<svg width="133" height="226" viewBox="0 0 133 226" fill="none" xmlns="http://www.w3.org/2000/svg">
<path d="M130.992 0.43481C130.493 0.144467 129.936 0 129.379 0C128.775 0 128.173 0.16985 127.645 0.507984L83.2327 28.9848C82.0336 29.7539 81.4853 31.2216 81.8859 32.5885C82.2865 33.9556 83.5412 34.8948 84.9666 34.8948H91.8224C81.858 48.1633 64.7058 79.5049 40.6759 128.372C19.4819 171.473 0.480103 212.961 0.291066 213.375C-0.112714 214.258 -0.0957846 215.275 0.33809 216.143C0.771338 217.011 1.57451 217.637 2.52251 217.845L37.7404 225.566C37.9686 225.616 38.1993 225.641 38.4282 225.641C39.1674 225.641 39.8916 225.386 40.4718 224.907C41.2321 224.279 41.6622 223.337 41.6377 222.352C41.4289 214.02 48.0242 189.408 80.6269 119.467C96.6715 85.0493 112.952 52.7701 118.477 41.9068L124.895 48.126C125.506 48.7174 126.311 49.0312 127.131 49.0312C127.525 49.0311 127.922 48.9585 128.303 48.8092C129.475 48.3493 130.269 47.2476 130.336 45.9912L132.585 3.37804C132.647 2.17609 132.033 1.03963 130.992 0.43481ZM127.13 45.8221L117.592 36.58C117.592 36.58 37.6664 192.004 38.4282 222.432L3.21032 214.71C3.21032 214.71 78.9184 49.2595 98.8603 31.6858H84.9666L129.379 3.20898L127.13 45.8221Z" fill="white"/>
</svg>
