<svg width="204" height="656" viewBox="0 0 204 656" fill="none" xmlns="http://www.w3.org/2000/svg">
<path fill-rule="evenodd" clip-rule="evenodd" d="M65.8344 294.205L53.009 460.099L122.263 540.547L151.246 540.856L167.627 525.007L183.546 318.272L65.8344 294.205Z" fill="#E7D1A7"/>
<path fill-rule="evenodd" clip-rule="evenodd" d="M179.597 335.372L177.99 541.141L124.23 540.571L58.6992 465.259L59.6773 344.672L179.597 335.372Z" fill="#FFD08E"/>
<path fill-rule="evenodd" clip-rule="evenodd" d="M188.846 404.569L186.667 655.23C150.229 656.63 113.366 656.148 76.1583 653.558C64.7148 652.761 53.3548 651.709 42.0308 650.54L44.1867 402.755L188.846 404.569Z" fill="#0066FF"/>
<path fill-rule="evenodd" clip-rule="evenodd" d="M0 164.67L18.2779 263.059C20.6341 275.722 42.1304 321.425 54.9517 320.098C67.7626 318.774 68.5573 279.501 65.8782 266.888L48.8116 198.134C39.0274 158.708 13.6758 161.698 0 164.67Z" fill="#EBC082"/>
<path fill-rule="evenodd" clip-rule="evenodd" d="M83.3314 23.644L81.9968 140.102C93.3804 124.186 121.235 133.721 123.31 154.611C132.736 136.701 159.688 143.52 165.267 162.09C176.669 147.01 204.128 157.64 203.835 179.102L202.491 277.404C202.113 305.005 186.687 340.307 174.715 354.227C139.228 395.492 75.6815 368.183 60.2601 343.428C48.2298 324.13 37.514 311.701 37.5115 296.925L39.7799 23.7687C39.7762 -10.8544 84.0954 -4.81159 83.3314 23.644Z" fill="#FFD08E"/>
<path fill-rule="evenodd" clip-rule="evenodd" d="M166.254 196.531C166.254 196.531 164.513 175.119 163.326 157.482C164.12 158.924 164.774 160.461 165.267 162.09C165.928 161.217 166.646 160.432 167.411 159.727C166.906 177.038 166.254 196.531 166.254 196.531ZM82.3316 139.654C82.1222 140.122 81.9978 140.323 81.9968 140.102C81.9667 154.544 83.3862 188.64 83.3862 188.64C83.3862 188.64 85.2145 155.502 85.8446 136.097C84.5668 137.086 83.3828 138.266 82.3316 139.654ZM124.446 194.275C124.446 194.275 125.024 170.531 125.416 151.367C124.642 152.341 123.938 153.42 123.31 154.611C123.007 151.591 122.17 148.812 120.921 146.307C121.967 164.698 124.446 194.275 124.446 194.275Z" fill="#D4B194"/>
</svg>
