<svg width="199" height="211" viewBox="0 0 199 211" fill="none" xmlns="http://www.w3.org/2000/svg">
<rect width="198.276" height="210.801" fill="black" fill-opacity="0"/>
<path opacity="0.3" d="M198.276 204.465C198.276 207.964 153.891 210.801 99.1386 210.801C44.3856 210.801 0 207.964 0 204.465C0 200.966 44.3856 198.129 99.1386 198.129C153.891 198.129 198.276 200.966 198.276 204.465Z" fill="black"/>
<rect width="17.6107" height="42.4958" fill="black" fill-opacity="0" transform="translate(167.411 159.34)"/>
<path d="M183.067 185.873C184.582 185.509 185.362 183.609 184.878 182.128C184.394 180.648 182.971 179.632 181.475 179.199C182.268 177.994 183.098 176.635 182.864 175.213C182.648 173.898 180.962 172.886 179.938 173.576C181.128 172.57 181.963 171.005 181.559 169.516C181.169 168.076 179.246 167.197 178.06 167.947C179.196 166.913 179.32 164.882 178.197 163.794C176.966 162.602 174.631 162.929 173.776 164.414C174.409 163.432 174.919 162.371 175.29 161.263C175.457 160.767 175.585 160.18 175.281 159.751C174.821 159.097 173.8 159.333 173.095 159.711C170.806 160.936 168.958 162.962 167.948 165.352L167.411 198.322C167.571 199.081 168.407 199.511 169.179 199.599C169.951 199.688 170.742 199.548 171.508 199.687C172.126 199.799 172.695 200.088 173.256 200.374C174.839 201.18 176.542 202.01 178.308 201.804C180.073 201.599 181.768 199.862 181.227 198.169C183.612 196.76 184.113 192.996 182.179 191.011C183.215 190.358 184.32 189.617 184.716 188.459C185.11 187.301 184.28 185.706 183.067 185.873Z" fill="#79A958"/>
<rect width="22.8376" height="20.8793" fill="black" fill-opacity="0" transform="translate(170.644 182.729)"/>
<path d="M188.161 200.433C188.442 200.356 188.728 200.295 189.008 200.212C190.454 199.782 191.949 199.213 192.893 198.038C193.198 197.658 193.441 197.209 193.477 196.723C193.592 195.148 191.657 194.275 190.079 194.178C187.641 194.028 185.175 194.642 183.057 195.855C184.606 194.532 185.947 192.967 186.997 191.222C187.167 190.941 187.325 190.564 187.119 190.308C186.929 190.071 186.561 190.11 186.267 190.183C182.749 191.042 179.586 193.272 177.597 196.297C179.501 193.769 181.179 191.074 182.604 188.25C183.034 187.397 183.444 186.382 183.028 185.524C179.786 186.879 177.111 189.535 175.731 192.766C176.725 190.624 177.395 188.331 177.711 185.991C177.806 185.282 177.865 184.538 177.606 183.87C177.346 183.204 176.677 182.645 175.968 182.74C175.437 182.811 175.017 183.212 174.658 183.61C171.642 186.962 170.184 191.661 170.772 196.129L170.913 202.62C171.742 203.272 172.871 203.351 173.925 203.403C180.495 203.73 187.337 204.009 193.372 201.392C191.699 200.721 189.947 200.452 188.161 200.433Z" fill="#579326"/>
<rect width="158.244" height="204.24" fill="black" fill-opacity="0" transform="translate(19.2334)"/>
<rect width="17.7428" height="28.8544" fill="black" fill-opacity="0" transform="translate(61.0458)"/>
<path fill-rule="evenodd" clip-rule="evenodd" d="M78.7704 14.6697C78.7763 14.669 78.7827 14.668 78.7886 14.6672C78.7886 14.6786 78.7886 14.6902 78.7886 14.7018L78.7803 14.7025H78.7719C78.7714 14.6917 78.7709 14.6808 78.7704 14.6697Z" fill="#343434"/>
<path fill-rule="evenodd" clip-rule="evenodd" d="M61.0458 14.6849C61.0556 14.6834 61.065 14.6821 61.0744 14.6807C61.0759 14.6886 61.0774 14.696 61.0788 14.7036C61.0675 14.7034 61.0566 14.7026 61.0458 14.7021C61.0458 14.6962 61.0458 14.6905 61.0458 14.6849Z" fill="#8C8C8C"/>
<path fill-rule="evenodd" clip-rule="evenodd" d="M61.0799 14.7041C61.0784 14.6962 61.0768 14.6886 61.0753 14.6805C61.0784 14.677 61.0819 14.6731 61.085 14.6693C61.1098 14.6729 61.1306 14.6602 61.1519 14.6506C61.2864 14.5895 61.4208 14.5284 61.5553 14.4675C62.1687 14.1897 62.7816 13.9123 63.3944 13.6342C63.7572 13.4696 64.1195 13.3025 64.4822 13.138C65.0956 12.8596 65.7085 12.5828 66.3219 12.3044C66.7491 12.1104 67.1758 11.9145 67.603 11.7203C68.2483 11.4267 68.8927 11.1328 69.5385 10.8415C69.6679 10.7834 69.7927 10.7165 69.9277 10.6714C69.9388 10.7092 69.9348 10.748 69.9348 10.786C69.9348 13.7944 69.9348 16.8028 69.9348 19.811C69.9348 19.8495 69.9312 19.8876 69.9292 19.9261C69.9003 19.9261 69.881 19.9061 69.8587 19.8929C66.9444 18.1716 64.0307 16.4502 61.1164 14.7284C61.1042 14.7208 61.0921 14.7122 61.0799 14.7041Z" fill="#393939"/>
<path fill-rule="evenodd" clip-rule="evenodd" d="M69.9291 19.9261C69.9312 19.8876 69.9347 19.8495 69.9347 19.811C69.9347 16.8028 69.9347 13.7944 69.9347 10.786C69.9347 10.748 69.9388 10.7092 69.9276 10.6714L69.9301 10.6711C70.1108 10.7366 70.2807 10.8261 70.4558 10.9034C70.6856 11.0048 70.9119 11.1123 71.1397 11.2162C71.4537 11.3592 71.7683 11.5012 72.0824 11.6437C72.2244 11.7083 72.3665 11.774 72.5085 11.8384C72.8201 11.9796 73.1321 12.1203 73.4431 12.2616C73.5882 12.3275 73.7328 12.3947 73.8779 12.4603C74.1118 12.566 74.3457 12.6705 74.5791 12.7765C74.7348 12.847 74.8896 12.92 75.0453 12.9905C75.3568 13.1319 75.6684 13.2726 75.9799 13.4139C76.125 13.4798 76.2691 13.547 76.4147 13.6126C76.6455 13.7168 76.8769 13.82 77.1077 13.9245C77.2665 13.9965 77.4238 14.0708 77.5821 14.143C77.8962 14.286 78.2092 14.43 78.5253 14.5687C78.6054 14.6039 78.68 14.6559 78.7693 14.6676L78.7703 14.6696C78.7708 14.681 78.7714 14.6922 78.7719 14.7033C78.7054 14.7576 78.6278 14.7949 78.5547 14.8382C75.7084 16.5204 72.8612 18.2021 70.0144 19.8835C69.9941 19.8954 69.9733 19.9056 69.9525 19.9165C69.9454 19.9198 69.9388 19.9228 69.9317 19.9261H69.9291Z" fill="#141414"/>
<path fill-rule="evenodd" clip-rule="evenodd" d="M69.9504 28.8337C69.9448 28.8494 69.9342 28.8623 69.9195 28.8484C69.9027 28.8327 69.89 28.8119 69.8768 28.7926C69.2538 27.9159 68.6313 27.0389 68.0087 26.162C67.2102 25.0373 66.4111 23.9126 65.612 22.7874C64.7008 21.5038 63.7891 20.2197 62.8773 18.9358C62.2954 18.1169 61.714 17.298 61.1325 16.479C61.1158 16.4552 61.1006 16.4309 61.0782 16.3989C61.1127 16.4002 61.13 16.4162 61.1493 16.4276C62.3319 17.1261 63.5151 17.8243 64.6982 18.523C65.6597 19.0909 66.6211 19.6591 67.5826 20.2273C68.338 20.6735 69.094 21.1195 69.8494 21.5654C69.8773 21.5816 69.9037 21.6019 69.9377 21.6055C69.9357 21.6468 69.9326 21.6881 69.9326 21.7292C69.9326 24.0581 69.9326 26.3874 69.9326 28.7166C69.9326 28.7429 69.9326 28.7695 69.9326 28.7962C69.9326 28.8114 69.9362 28.8251 69.9504 28.8337Z" fill="#8C8C8C"/>
<path fill-rule="evenodd" clip-rule="evenodd" d="M69.9505 28.8337C69.9363 28.8251 69.9327 28.8114 69.9327 28.7962C69.9327 28.7696 69.9327 28.743 69.9327 28.7166C69.9327 26.3874 69.9327 24.0582 69.9327 21.7292C69.9327 21.6882 69.9358 21.6468 69.9378 21.6055C71.3772 20.7562 72.8171 19.9069 74.2569 19.0575C75.7318 18.1869 77.2072 17.3163 78.6821 16.4456C78.7075 16.4309 78.7329 16.4172 78.7679 16.3977C78.7643 16.44 78.74 16.4613 78.7232 16.4854C78.0662 17.4106 77.4092 18.3355 76.7521 19.2603C74.4954 22.4371 72.2387 25.6139 69.9814 28.7909C69.9718 28.8051 69.9612 28.8193 69.9505 28.8337Z" fill="#3C3C3B"/>
<path fill-rule="evenodd" clip-rule="evenodd" d="M69.9316 19.9262C69.9388 19.9229 69.9455 19.9198 69.9527 19.9165C69.9486 19.9268 69.9434 19.9332 69.9316 19.9262Z" fill="#393939"/>
<path fill-rule="evenodd" clip-rule="evenodd" d="M69.9265 10.6715C69.7915 10.7166 69.6667 10.7836 69.5373 10.8416C68.8915 11.1329 68.2471 11.4268 67.6018 11.7204C67.1746 11.9146 66.7479 12.1105 66.3207 12.3045C65.7073 12.5829 65.0944 12.8597 64.481 13.1381C64.1182 13.3027 63.756 13.4697 63.3932 13.6343C62.7803 13.9124 62.1675 14.1898 61.5541 14.4676C61.4196 14.5285 61.2852 14.5896 61.1507 14.6507C61.1294 14.6603 61.1086 14.673 61.0837 14.6694C61.0837 14.638 61.1056 14.6152 61.1203 14.5909C61.9787 13.1663 62.8382 11.7422 63.6971 10.3178C64.6292 8.77202 65.5607 7.22573 66.4927 5.68019C67.3105 4.32379 68.1289 2.96841 68.9468 1.61251C69.2517 1.10646 69.5566 0.600411 69.8615 0.09436C69.8783 0.0664714 69.8935 0.037315 69.9133 0.0117084C69.9295 -0.0100953 69.9422 0.00156695 69.9488 0.0221032C69.9158 0.0540484 69.9315 0.094867 69.9315 0.131122C69.931 3.60046 69.931 7.06955 69.931 10.5384C69.931 10.583 69.93 10.6271 69.929 10.6712L69.9265 10.6715Z" fill="#8C8C8C"/>
<path fill-rule="evenodd" clip-rule="evenodd" d="M69.9302 10.6714C69.9312 10.6272 69.9322 10.5831 69.9322 10.5385C69.9322 7.06967 69.9322 3.60058 69.9327 0.131236C69.9327 0.0949808 69.917 0.054162 69.95 0.0222168C72.3995 4.08381 74.848 8.14515 77.297 12.2067C77.7749 12.9983 78.2518 13.7898 78.7288 14.5818C78.745 14.6085 78.7704 14.6325 78.7693 14.6678C78.68 14.6561 78.6055 14.6042 78.5253 14.5689C78.2092 14.4302 77.8962 14.2862 77.5821 14.1432C77.4238 14.071 77.2666 13.9967 77.1077 13.9247C76.8769 13.8202 76.6455 13.717 76.4147 13.6128C76.2691 13.5472 76.125 13.48 75.9799 13.4141C75.6684 13.2729 75.3569 13.1321 75.0453 12.9907C74.8896 12.9202 74.7348 12.8472 74.5791 12.7767C74.3457 12.6707 74.1118 12.5663 73.8779 12.4605C73.7328 12.3949 73.5882 12.3277 73.4431 12.2618C73.1321 12.1205 72.8201 11.9798 72.5086 11.8386C72.3665 11.7742 72.2244 11.7086 72.0824 11.6439C71.7683 11.5014 71.4538 11.3594 71.1397 11.2164C70.9119 11.1125 70.6856 11.005 70.4558 10.9036C70.2808 10.8263 70.1108 10.7368 69.9302 10.6714Z" fill="#343434"/>
<rect width="158.244" height="181.164" fill="black" fill-opacity="0" transform="translate(19.2334 23.0759)"/>
<rect width="13.0098" height="18.1158" fill="black" fill-opacity="0" transform="translate(162.113 146.282)"/>
<path d="M164.042 157.081L164.277 164.398L166.207 163.815L165.125 158.163L164.042 157.081Z" fill="#91682D"/>
<path d="M171.776 159.275C169.498 160.086 165.465 159.603 163.594 156.422C160.939 151.908 162.347 147.974 163.994 146.887L171.776 159.275Z" fill="#91682D"/>
<path d="M172.661 152.687C174.196 156.309 173.48 159.314 171.063 159.4C168.647 159.486 165.444 156.619 163.909 152.998C162.375 149.375 163.09 146.37 165.507 146.284C167.923 146.198 171.127 149.065 172.661 152.687Z" fill="url(#paint0_radial)"/>
<rect width="7.38763" height="6.17023" fill="black" fill-opacity="0" transform="translate(167.735 147.713)"/>
<path d="M167.735 152.843L173.146 149.348L173.413 149.773L168.285 153.883L167.735 152.843Z" fill="#91682D"/>
<path d="M172.737 149.168L173.413 150.172L175.123 149.112L174.332 147.713L172.737 149.168Z" fill="#EB00D7"/>
<path opacity="0.25" d="M169.041 148.685C168.811 148.082 168.532 147.585 168.213 147.176C167.284 146.583 166.348 146.254 165.506 146.284C163.09 146.37 162.374 149.375 163.909 152.998C164.411 154.182 165.091 155.284 165.864 156.23C168.296 153.112 169.131 150.635 169.041 148.685Z" fill="#C9D15E"/>
<path opacity="0.4" d="M164.042 156.543L165.299 155.877C166.401 157.716 168.657 159.086 169.953 159.402C167.987 159.552 165.389 158.538 164.042 156.543Z" fill="#B88953"/>
<path opacity="0.4" d="M164.582 157.688L165.222 164.103L166.072 163.857L164.994 158.048L164.582 157.688Z" fill="#B88953"/>
<path opacity="0.4" d="M162.98 148.474C162.213 149.725 162.195 151.495 162.429 152.659L163.325 152.175C162.964 151.151 162.713 149.691 162.98 148.474Z" fill="#CCF3FF"/>
<path opacity="0.4" d="M168.107 152.843L173.023 149.593L172.924 149.168L174.258 148.036L174.569 148.57L173.257 149.348L173.145 149.773L168.201 153.062L168.107 152.843Z" fill="#CCF3FF"/>
<path opacity="0.4" d="M171.256 151.511C173.592 156.383 172.995 158.345 170.654 159.077C171.726 157.744 171.409 155.836 169.712 152.659L171.256 151.511Z" fill="white"/>
<path opacity="0.4" d="M168.285 153.883L172.894 158.424C173.107 158.086 173.271 157.736 173.323 157.448L168.562 153.661L168.285 153.883Z" fill="#C9D15E"/>
<path opacity="0.75" d="M173.107 149.168L173.483 149.809L174.893 149.009L174.335 148.168L173.107 149.168Z" fill="#CCF3FF"/>
<rect width="158.244" height="181.164" fill="black" fill-opacity="0" transform="translate(19.2334 23.0759)"/>
<rect width="149.366" height="99.4728" fill="black" fill-opacity="0" transform="translate(28.1122 104.767)"/>
<rect width="10.2976" height="29.3577" fill="black" fill-opacity="0" transform="translate(28.1122 174.141)"/>
<path d="M38.4094 201.672C38.4794 203.855 29.0061 203.855 28.9365 201.672L28.1126 175.845C28.04 173.573 37.5134 173.573 37.586 175.845L38.4094 201.672Z" fill="url(#paint1_linear)"/>
<path d="M28.2155 179.086L28.8202 198.038C32.4925 198.103 35.7446 197.895 38.2906 197.956L37.6802 178.8C35.2855 177.955 30.8674 178.342 28.2155 179.086Z" fill="url(#paint2_linear)"/>
<rect width="5.29833" height="12.7494" fill="black" fill-opacity="0" transform="translate(32.9938 190.75)"/>
<path opacity="0.6" d="M36.9526 191.561L36.9394 190.75H36.7157L36.7294 191.561H36.9526Z" fill="#FFF7CC"/>
<path opacity="0.6" d="M36.9613 192.091H38.0395L38.0314 191.834H36.9573V191.819H36.7335L36.799 195.67L36.764 195.672L36.7645 195.7L35.7122 195.765L35.7112 195.737L35.454 195.752L35.4636 196.038L37.0263 195.942L36.9613 192.091Z" fill="#FFF7CC"/>
<path opacity="0.6" d="M38.284 199.754L32.9938 200.126L33.0922 203.226H33.0541L33.0628 203.499H33.321L33.2201 200.369L38.2921 200.012L38.284 199.754Z" fill="#FFF7CC"/>
<rect width="10.2971" height="29.3571" fill="black" fill-opacity="0" transform="translate(40.1426 172.097)"/>
<path d="M50.4393 199.628C50.5098 201.811 41.0364 201.811 40.9669 199.628L40.143 173.801C40.0704 171.529 49.5438 171.529 49.6164 173.801L50.4393 199.628Z" fill="url(#paint3_linear)"/>
<path d="M40.246 177.041L40.8502 195.993C44.523 196.058 47.7752 195.85 50.3211 195.912L49.7107 176.755C47.316 175.911 42.8979 176.297 40.246 177.041Z" fill="url(#paint4_linear)"/>
<rect width="5.29833" height="12.7491" fill="black" fill-opacity="0" transform="translate(45.0243 188.705)"/>
<path opacity="0.6" d="M48.9833 189.516L48.9701 188.705H48.7458L48.7601 189.516H48.9833Z" fill="#FFF7CC"/>
<path opacity="0.6" d="M48.9919 190.046H50.07L50.0619 189.79H48.9878V189.774H48.7641L48.8295 193.626L48.794 193.628L48.795 193.656L47.7427 193.721L47.7417 193.693L47.4845 193.708L47.4941 193.994L49.0568 193.898L48.9919 190.046Z" fill="#FFF7CC"/>
<path opacity="0.6" d="M50.3146 197.709L45.0244 198.082L45.1228 201.182H45.0848L45.0934 201.454H45.3517L45.2507 198.325L50.3227 197.968L50.3146 197.709Z" fill="#FFF7CC"/>
<rect width="10.8528" height="31.3652" fill="black" fill-opacity="0" transform="translate(166.625 171.787)"/>
<path d="M166.625 201.392C166.569 203.739 176.756 203.739 176.811 201.392L177.478 173.62C177.535 171.177 167.349 171.177 167.29 173.62L166.625 201.392Z" fill="url(#paint5_linear)"/>
<path d="M177.393 177.104L176.906 197.483C172.958 197.554 169.458 197.329 166.721 197.396L167.214 176.797C169.782 175.888 174.536 176.305 177.393 177.104Z" fill="url(#paint6_linear)"/>
<rect width="2.89955" height="16.6236" fill="black" fill-opacity="0" transform="translate(166.941 178.71)"/>
<path opacity="0.6" d="M169.127 190.519H168.891L168.905 189.923H168.628L168.631 189.647H168.912L168.913 189.629H169.148L169.127 190.519Z" fill="#FFF7CC"/>
<path opacity="0.6" d="M169.155 189.353H168.918L168.927 189.006L167.315 188.798L167.425 184.199L167.105 184.282L167.11 184.05L167.668 183.905L167.558 188.505L167.599 188.51L167.597 188.555L168.934 188.726L168.934 188.682L169.17 188.713L169.155 189.353Z" fill="#FFF7CC"/>
<path opacity="0.6" d="M168.105 190.519L168.113 189.647H168.353L168.346 190.519H168.105Z" fill="#FFF7CC"/>
<path opacity="0.6" d="M169.154 191.089H168.618L168.62 190.812H168.884L168.884 190.796H169.162L169.154 191.089Z" fill="#FFF7CC"/>
<path opacity="0.6" d="M169.483 194.732L169.598 189.924H169.418L169.425 189.647H169.84L169.718 194.746L169.483 194.732Z" fill="#FFF7CC"/>
<path opacity="0.6" d="M168.101 191.089H166.941L166.948 190.812H168.103V190.796H168.343L168.307 194.937L168.343 194.939V194.97L169.475 195.04L169.477 195.009L169.753 195.026L169.746 195.334L168.064 195.23L168.101 191.089Z" fill="#FFF7CC"/>
<path opacity="0.6" d="M169.176 188.433L168.941 188.403L169.166 179.003L167.218 179.558L167.223 179.331L169.41 178.71L169.176 188.433Z" fill="#FFF7CC"/>
<path opacity="0.3" d="M170.78 173.25L170.654 202.307C169.9 203.099 168.957 202.961 167.774 201.646L167.873 173.897C167.789 173.48 170.696 172.834 170.78 173.25Z" fill="#B86053"/>
<rect width="14.0275" height="40.8077" fill="black" fill-opacity="0" transform="translate(155.766 161.952)"/>
<path d="M155.766 200.222C155.693 203.256 168.861 203.256 168.934 200.222L169.793 164.321C169.869 161.162 156.701 161.162 156.626 164.321L155.766 200.222Z" fill="url(#paint7_linear)"/>
<path d="M169.685 168.825L169.054 195.169C163.951 195.26 159.427 194.97 155.889 195.055L156.527 168.427C159.847 167.253 165.991 167.792 169.685 168.825Z" fill="url(#paint8_linear)"/>
<rect width="9.94928" height="31.8594" fill="black" fill-opacity="0" transform="translate(155.911 170.9)"/>
<path opacity="0.6" d="M158.998 186.165H158.694L158.712 185.396H158.355L158.358 185.038H158.721V185.016H159.026L158.998 186.165Z" fill="#FFF7CC"/>
<path opacity="0.6" d="M159.034 184.658H158.73L158.741 184.21L156.656 183.941L156.799 177.995L156.385 178.103L156.392 177.803L157.113 177.616L156.97 183.562L157.024 183.569L157.023 183.627L158.749 183.849L158.75 183.791L159.055 183.83L159.034 184.658Z" fill="#FFF7CC"/>
<path opacity="0.6" d="M157.679 186.165L157.688 185.038H157.999L157.989 186.165H157.679Z" fill="#FFF7CC"/>
<path opacity="0.6" d="M161.894 184.616L159.402 184.295L159.41 183.934L161.518 184.205L161.516 184.147L161.877 184.194L161.894 184.616Z" fill="#FFF7CC"/>
<path opacity="0.6" d="M161.433 182.209L161.764 182.223L161.832 183.826L161.5 183.783L161.433 182.209Z" fill="#FFF7CC"/>
<path opacity="0.6" d="M159.034 186.902H158.341L158.344 186.544H158.685V186.523H159.044L159.034 186.902Z" fill="#FFF7CC"/>
<path opacity="0.6" d="M159.46 191.611L159.608 185.396H159.376L159.383 185.038H159.921L159.763 191.629L159.46 191.611Z" fill="#FFF7CC"/>
<path opacity="0.6" d="M157.672 186.902H156.175L156.183 186.544H157.675V186.523H157.986L157.939 191.877L157.987 191.879L157.986 191.919L159.45 192.009L159.451 191.97L159.809 191.992L159.799 192.389L157.625 192.256L157.672 186.902Z" fill="#FFF7CC"/>
<path opacity="0.6" d="M159.063 183.469L158.759 183.43L159.05 171.279L156.531 171.996L156.538 171.703L159.364 170.9L159.063 183.469Z" fill="#FFF7CC"/>
<path opacity="0.6" d="M163.281 186.127L163.601 186.185L163.697 193.737H163.737L163.737 193.759H165.383L165.384 193.737H165.742L165.733 194.117H163.382L163.281 186.127Z" fill="#FFF7CC"/>
<path opacity="0.6" d="M165.393 193.379L165.547 186.908L163.965 186.618L163.96 186.25L165.86 186.599L165.697 193.379H165.393Z" fill="#FFF7CC"/>
<path opacity="0.6" d="M155.919 197.553L163.277 198.072L163.174 202.38H163.226L163.218 202.76H162.859L162.963 198.409L155.911 197.912L155.919 197.553Z" fill="#FFF7CC"/>
<path opacity="0.3" d="M161.136 163.843L160.974 201.404C159.999 202.428 158.779 202.249 157.251 200.549L157.378 164.679C157.27 164.14 161.028 163.304 161.136 163.843Z" fill="#B86053"/>
<rect width="106.046" height="99.4728" fill="black" fill-opacity="0" transform="translate(62.5555 104.767)"/>
<rect width="89.6223" height="74.2948" fill="black" fill-opacity="0" transform="translate(71.4497 104.767)"/>
<path d="M72.9508 170.317C67.4368 162.212 75.997 107.647 117.422 104.818C144.561 102.964 172.871 152.88 155.983 170.969C140.532 187.52 75.585 174.189 72.9508 170.317Z" fill="#14A2E9"/>
<path opacity="0.15" d="M131.373 111.989C131.373 111.989 170.741 148.12 149.619 165.675C128.496 183.229 81.4049 167.339 81.4049 167.339C128.855 166.284 147.068 148.713 131.373 111.989Z" fill="#D15F5E"/>
<path opacity="0.3" d="M112.966 107.243C102.288 110.398 92.6774 117.052 85.9717 125.936C79.2674 134.82 75.5034 145.884 75.4019 157.011C75.3821 159.195 75.5084 161.426 76.3106 163.458C80.0381 166.024 84.9945 167.04 89.3938 165.976C94.5922 164.718 99.8418 165.344 104.933 163.706C101.677 146.168 104.786 127.087 113.702 111.635C114.201 110.772 114.729 109.874 114.777 108.88C114.824 107.885 113.921 106.961 112.966 107.243Z" fill="#33FF77"/>
<path opacity="0.85" d="M115.46 105.166C115.467 105.196 115.209 105.292 114.714 105.445C114.466 105.52 114.159 105.611 113.797 105.719C113.614 105.771 113.419 105.828 113.21 105.888C113.002 105.957 112.783 106.031 112.55 106.108C112.083 106.262 111.565 106.432 110.998 106.619C110.439 106.829 109.832 107.057 109.18 107.302C107.884 107.812 106.427 108.44 104.857 109.214C101.708 110.746 98.1477 112.959 94.549 115.862C92.7723 117.341 90.9879 118.987 89.2593 120.814C87.5506 122.659 85.9047 124.681 84.3765 126.864C82.8377 129.041 81.5379 131.304 80.4004 133.545C79.8149 134.659 79.3263 135.794 78.8281 136.896C78.6013 137.457 78.3775 138.012 78.1558 138.561C78.0478 138.836 77.9306 139.107 77.8321 139.382C77.7347 139.658 77.6378 139.932 77.5419 140.205C76.7408 142.375 76.1665 144.501 75.6652 146.495C75.2086 148.501 74.8372 150.385 74.6094 152.122C74.549 152.555 74.4912 152.979 74.4339 153.391C74.3796 153.805 74.3517 154.21 74.3106 154.602C74.2345 155.389 74.1533 156.129 74.1264 156.825C74.0924 157.521 74.0381 158.167 74.0244 158.765C74.0127 159.361 74.0021 159.907 73.9919 160.398C73.9722 160.889 73.9818 161.326 73.9879 161.704C73.9884 162.082 73.9899 162.403 73.9909 162.661C73.9859 163.18 73.9691 163.454 73.9392 163.456C73.9087 163.458 73.8666 163.188 73.8139 162.671C73.7905 162.412 73.7611 162.092 73.7266 161.713C73.6936 161.335 73.6571 160.897 73.6495 160.403C73.6368 159.909 73.6221 159.36 73.6058 158.759C73.5947 158.157 73.6246 157.505 73.6358 156.802C73.6393 156.098 73.6992 155.35 73.754 154.554C73.7849 154.157 73.8022 153.747 73.8473 153.329C73.8945 152.91 73.9427 152.481 73.993 152.042C74.1842 150.281 74.5231 148.37 74.9554 146.332C75.4318 144.305 75.9869 142.144 76.7783 139.936C76.8732 139.659 76.9696 139.38 77.065 139.1C77.1629 138.819 77.2786 138.545 77.3862 138.264C77.6064 137.706 77.823 137.138 78.0544 136.569C78.5531 135.447 79.0422 134.292 79.6302 133.159C80.7753 130.879 82.0904 128.575 83.6546 126.362C85.2086 124.143 86.8874 122.091 88.6317 120.225C90.3968 118.377 92.2213 116.717 94.0397 115.234C97.7205 112.321 101.366 110.133 104.587 108.655C106.194 107.907 107.684 107.314 109.009 106.842C109.675 106.619 110.296 106.412 110.867 106.221C111.447 106.06 111.977 105.913 112.454 105.78C112.692 105.716 112.917 105.654 113.128 105.597C113.343 105.55 113.543 105.507 113.729 105.467C114.102 105.39 114.417 105.326 114.673 105.274C115.183 105.174 115.454 105.137 115.46 105.166Z" fill="#33FF77"/>
<path opacity="0.3" d="M154.997 161.992C154.9 161.962 154.964 161.378 155.159 160.361C155.21 160.108 155.266 159.827 155.329 159.519C155.384 159.21 155.423 158.869 155.479 158.508C155.578 157.782 155.747 156.968 155.806 156.049C155.85 155.593 155.897 155.114 155.945 154.616C155.991 154.118 155.985 153.595 156.011 153.057C156.021 152.789 156.031 152.515 156.041 152.237C156.045 152.099 156.056 151.959 156.054 151.818C156.05 151.676 156.046 151.534 156.042 151.391C156.027 150.818 156.012 150.229 155.997 149.624C155.853 147.21 155.517 144.568 154.871 141.854C154.191 139.148 153.27 136.649 152.282 134.441C152.017 133.899 151.758 133.368 151.507 132.853C151.445 132.724 151.382 132.596 151.321 132.469C151.257 132.343 151.183 132.224 151.116 132.102C150.978 131.861 150.843 131.622 150.71 131.388C150.439 130.924 150.203 130.458 149.932 130.037C149.659 129.617 149.397 129.214 149.147 128.83C148.671 128.041 148.144 127.397 147.722 126.798C147.505 126.503 147.313 126.22 147.121 125.971C146.924 125.726 146.744 125.503 146.582 125.302C145.94 124.49 145.613 124.001 145.685 123.93C145.756 123.858 146.218 124.21 147.001 124.916C147.195 125.095 147.411 125.294 147.646 125.511C147.874 125.738 148.101 126 148.354 126.277C148.847 126.84 149.444 127.457 149.989 128.229C150.273 128.607 150.568 129.004 150.877 129.418C151.181 129.835 151.45 130.3 151.753 130.767C151.901 131.003 152.052 131.242 152.206 131.485C152.281 131.608 152.362 131.729 152.433 131.856C152.502 131.985 152.572 132.114 152.642 132.245C152.92 132.769 153.207 133.308 153.5 133.861C154.591 136.114 155.589 138.697 156.293 141.506C156.965 144.323 157.273 147.075 157.345 149.576C157.34 150.203 157.334 150.813 157.329 151.407C157.328 151.555 157.326 151.702 157.324 151.848C157.32 151.994 157.302 152.139 157.293 152.282C157.269 152.568 157.246 152.851 157.223 153.127C157.17 153.681 157.146 154.219 157.069 154.729C156.987 155.238 156.907 155.727 156.831 156.194C156.703 157.129 156.459 157.953 156.28 158.678C156.183 159.041 156.104 159.379 156.007 159.684C155.898 159.987 155.798 160.262 155.709 160.511C155.341 161.498 155.092 162.023 154.997 161.992Z" fill="#33FF77"/>
<path opacity="0.85" d="M145.884 123.85C145.882 123.87 145.662 123.862 145.243 123.829C144.826 123.796 144.212 123.737 143.422 123.655C143.028 123.614 142.589 123.568 142.108 123.517C141.628 123.478 141.104 123.437 140.542 123.391C139.418 123.309 138.141 123.177 136.723 123.123C136.015 123.086 135.273 123.047 134.5 123.008C133.727 122.969 132.921 122.967 132.088 122.944C130.421 122.883 128.639 122.916 126.765 122.928C123.018 123.015 118.9 123.25 114.6 123.727C110.302 124.228 106.237 124.922 102.565 125.678C100.736 126.087 98.9929 126.454 97.3831 126.888C96.5759 127.098 95.791 127.28 95.0462 127.491C94.3019 127.703 93.588 127.907 92.9056 128.102C91.5363 128.473 90.3212 128.888 89.2441 129.22C88.7073 129.39 88.2065 129.549 87.7463 129.694C87.2892 129.852 86.8727 129.995 86.4977 130.124C85.7458 130.382 85.1603 130.577 84.761 130.702C84.3618 130.828 84.1487 130.885 84.1411 130.866C84.1339 130.847 84.3333 130.753 84.7194 130.592C85.1055 130.429 85.6789 130.201 86.4196 129.91C86.7905 129.766 87.203 129.606 87.654 129.431C88.1081 129.263 88.6063 129.096 89.14 128.91C90.2106 128.547 91.4201 128.104 92.7869 127.706C93.4673 127.499 94.1811 127.282 94.9239 127.056C95.6682 126.833 96.4536 126.638 97.2603 126.417C98.8717 125.962 100.618 125.576 102.452 125.15C106.133 124.363 110.216 123.647 114.534 123.145C118.854 122.666 122.992 122.447 126.757 122.388C128.639 122.391 130.429 122.376 132.101 122.458C132.938 122.492 133.746 122.506 134.521 122.556C135.296 122.61 136.04 122.661 136.75 122.71C138.171 122.791 139.449 122.951 140.573 123.066C141.136 123.127 141.659 123.178 142.139 123.24C142.619 123.309 143.056 123.372 143.45 123.43C144.238 123.546 144.847 123.641 145.259 123.712C145.672 123.783 145.887 123.83 145.884 123.85Z" fill="#33FF77"/>
<path opacity="0.85" d="M155.089 147.662C155.087 147.682 154.82 147.673 154.314 147.636C153.807 147.599 153.062 147.536 152.103 147.448C151.623 147.402 151.091 147.352 150.507 147.298C149.924 147.25 149.29 147.198 148.607 147.141C147.244 147.034 145.694 146.885 143.975 146.779C143.117 146.719 142.217 146.657 141.28 146.591C140.343 146.527 139.366 146.484 138.356 146.425C136.336 146.3 134.175 146.227 131.901 146.135C127.352 145.992 122.349 145.92 117.098 145.989C111.846 146.073 106.847 146.292 102.305 146.567C100.035 146.726 97.8768 146.861 95.8621 147.046C94.8529 147.134 93.8788 147.206 92.9432 147.298C92.0087 147.39 91.1117 147.479 90.2547 147.564C88.5404 147.72 86.995 147.914 85.6353 148.061C84.9559 148.137 84.3227 148.207 83.7408 148.272C83.1588 148.345 82.6287 148.411 82.1502 148.469C81.1944 148.585 80.4511 148.671 79.9458 148.722C79.4414 148.774 79.1746 148.791 79.1715 148.771C79.169 148.751 79.4293 148.695 79.929 148.606C80.4288 148.516 81.167 148.394 82.1193 148.243C82.5957 148.169 83.1249 148.086 83.7043 147.996C84.2852 147.916 84.9163 147.829 85.5942 147.736C86.9519 147.557 88.4962 147.336 90.2096 147.152C91.067 147.055 91.9635 146.954 92.8981 146.848C93.8336 146.744 94.8093 146.661 95.8179 146.563C97.8357 146.356 99.996 146.203 102.269 146.029C106.818 145.724 111.827 145.488 117.089 145.404C122.351 145.335 127.365 145.423 131.921 145.597C134.198 145.703 136.363 145.794 138.385 145.941C139.396 146.011 140.374 146.065 141.311 146.14C142.249 146.219 143.149 146.294 144.008 146.366C145.726 146.5 147.277 146.676 148.639 146.816C149.319 146.889 149.953 146.957 150.536 147.02C151.118 147.094 151.649 147.16 152.127 147.221C153.083 147.344 153.825 147.445 154.327 147.519C154.829 147.594 155.091 147.642 155.089 147.662Z" fill="#33FF77"/>
<path opacity="0.85" d="M95.7236 159.366C95.7038 159.365 95.6977 159.182 95.7043 158.834C95.7109 158.485 95.7307 157.973 95.7627 157.313C95.7794 156.982 95.7982 156.615 95.818 156.213C95.8444 155.813 95.8844 155.377 95.922 154.909C96.0047 153.974 96.0788 152.906 96.2259 151.733C96.2949 151.146 96.3654 150.531 96.44 149.89C96.5171 149.249 96.6227 148.586 96.7191 147.896C96.9027 146.518 97.1681 145.056 97.4349 143.514C98.0108 140.439 98.749 137.078 99.6886 133.591C100.645 130.108 101.711 126.836 102.77 123.892C103.321 122.429 103.834 121.034 104.374 119.751C104.639 119.108 104.883 118.483 105.142 117.891C105.403 117.3 105.653 116.734 105.891 116.193C106.358 115.106 106.835 114.148 107.238 113.3C107.443 112.877 107.628 112.482 107.809 112.122C107.995 111.766 108.165 111.44 108.317 111.146C108.624 110.561 108.867 110.108 109.038 109.805C109.208 109.502 109.305 109.346 109.324 109.356C109.342 109.365 109.279 109.538 109.143 109.858C109.007 110.179 108.797 110.646 108.522 111.246C108.384 111.545 108.229 111.878 108.061 112.243C107.899 112.61 107.724 113.009 107.535 113.438C107.161 114.296 106.712 115.264 106.271 116.357C106.045 116.901 105.807 117.471 105.559 118.065C105.313 118.659 105.08 119.287 104.825 119.931C104.306 121.216 103.813 122.612 103.278 124.075C102.25 127.015 101.206 130.278 100.254 133.745C99.3187 137.215 98.5679 140.558 97.9646 143.614C97.6846 145.146 97.4035 146.6 97.1995 147.97C97.0935 148.654 96.9768 149.313 96.8885 149.951C96.8007 150.588 96.7175 151.199 96.6374 151.784C96.4644 152.95 96.3614 154.011 96.2482 154.942C96.1939 155.406 96.1432 155.839 96.097 156.238C96.0575 156.637 96.0219 157.002 95.9895 157.33C95.9235 157.987 95.8672 158.496 95.822 158.842C95.7774 159.186 95.7439 159.367 95.7236 159.366Z" fill="#33FF77"/>
<path opacity="0.85" d="M122.837 153.358C122.796 153.357 122.764 152.746 122.742 151.642C122.731 151.09 122.718 150.414 122.701 149.63C122.682 148.846 122.673 147.953 122.637 146.968C122.586 144.995 122.489 142.648 122.346 140.043C122.191 137.44 121.983 134.581 121.697 131.584C121.404 128.589 121.061 125.742 120.714 123.157C120.356 120.574 120.002 118.251 119.674 116.305C119.521 115.331 119.358 114.453 119.227 113.679C119.094 112.907 118.977 112.242 118.882 111.697C118.693 110.609 118.606 110.003 118.646 109.995C118.686 109.986 118.847 110.576 119.106 111.652C119.236 112.189 119.389 112.848 119.549 113.617C119.71 114.385 119.902 115.259 120.081 116.233C120.462 118.173 120.861 120.494 121.248 123.081C121.626 125.67 121.986 128.523 122.281 131.528C122.567 134.533 122.759 137.404 122.884 140.016C122.999 142.629 123.053 144.984 123.051 146.961C123.061 147.95 123.041 148.845 123.029 149.63C123.019 150.415 122.996 151.091 122.97 151.644C122.923 152.749 122.877 153.358 122.837 153.358Z" fill="#33FF77"/>
<path opacity="0.85" d="M145.809 146.785C145.769 146.786 145.689 146.183 145.58 145.095C145.554 144.822 145.525 144.52 145.493 144.189C145.454 143.858 145.395 143.501 145.343 143.117C145.226 142.349 145.136 141.47 144.933 140.514C144.842 140.034 144.747 139.531 144.649 139.007C144.548 138.484 144.4 137.95 144.272 137.391C144.03 136.268 143.664 135.097 143.306 133.859C142.52 131.403 141.509 128.749 140.214 126.069C138.896 123.399 137.425 120.97 135.971 118.84C135.215 117.796 134.517 116.788 133.779 115.906C133.418 115.462 133.086 115.016 132.736 114.614C132.383 114.215 132.046 113.831 131.723 113.465C131.094 112.716 130.456 112.104 129.921 111.54C129.651 111.262 129.406 110.996 129.168 110.762C128.926 110.534 128.706 110.324 128.508 110.136C127.716 109.38 127.289 108.947 127.315 108.916C127.341 108.885 127.818 109.26 128.661 109.967C128.871 110.145 129.104 110.342 129.36 110.559C129.609 110.782 129.868 111.038 130.151 111.306C130.71 111.851 131.374 112.449 132.028 113.185C132.363 113.546 132.712 113.925 133.077 114.319C133.44 114.716 133.784 115.158 134.157 115.601C134.916 116.476 135.637 117.484 136.413 118.53C137.906 120.666 139.408 123.114 140.74 125.812C142.049 128.523 143.056 131.212 143.822 133.701C144.17 134.957 144.522 136.143 144.745 137.282C144.864 137.848 145.002 138.39 145.092 138.92C145.179 139.45 145.261 139.959 145.341 140.445C145.519 141.413 145.583 142.303 145.668 143.08C145.706 143.469 145.749 143.829 145.77 144.163C145.785 144.498 145.796 144.803 145.807 145.078C145.847 146.177 145.849 146.783 145.809 146.785Z" fill="#33FF77"/>
<path d="M160.254 171.433L164.501 197.809L168.601 197.08L164.428 172.091L160.254 171.433Z" fill="#C55B34"/>
<path d="M78.2147 174.112L78.8591 170.537C78.7586 167.035 157.736 162.268 157.736 168.269L157.936 172.556L78.2147 174.112Z" fill="url(#paint9_linear)"/>
<path d="M66.3629 175.945L62.5557 197.997L67.2421 198.874L71.0493 174.677L66.3629 175.945Z" fill="#FFCE7D"/>
<path d="M161.841 173.506C160.963 168.237 71.3425 169.408 69.8615 177.671L65.5084 200.558L165.453 199.363L161.841 173.506Z" fill="url(#paint10_linear)"/>
<path d="M77.2467 192.089L79.8601 177.068L93.6988 175.604L109.147 174.677L134.237 173.934L149.784 174.112L151.721 190.679L135.58 190.678L108.195 191.191L91.4212 191.753L77.2467 192.089Z" fill="url(#paint11_linear)"/>
<path d="M78.8439 175.385L92.6562 173.783L108.329 172.823L134.998 172.451L150.793 172.824L149.784 174.112L134.237 173.934L109.147 174.677L93.6988 175.604L79.8601 177.068L78.8439 175.385Z" fill="#BF5970"/>
<path d="M65.5084 200.557L68.511 204.24H161.353L165.453 199.362L65.5084 200.557Z" fill="url(#paint12_linear)"/>
<path d="M73.4902 167.369L77.4161 166.108L73.4902 198.119L67.8519 198.191L73.4902 167.369ZM151.468 162.212L154.397 197.08L162.304 196.978L156.939 163.2L151.468 162.212ZM85.8078 164.92L80.6165 198.027L87.7332 197.936L90.9991 163.627L85.8078 164.92ZM97.579 197.809L105.926 197.702L107.317 162.212L101.46 163.018L97.579 197.809ZM116.031 197.572L125.475 197.451L123.464 161.627H118.041L116.031 197.572ZM137.776 197.293L145.611 197.193L141.071 162.212L135.213 161.627L137.776 197.293Z" fill="url(#paint13_linear)"/>
<path d="M90.999 163.627L95.0893 166.108V167.443H94.2841L94.0665 171.757L92.7869 171.875L92.656 173.783L93.6987 175.604L91.4211 191.753L87.7332 197.936L90.999 163.627ZM73.4901 198.119L77.2466 192.088L79.86 177.068L78.8437 175.385L79.002 173.732L80.17 173.512L80.6165 169.576L81.2999 169.397V168.432L77.416 166.108L73.4901 198.119ZM105.926 197.702L108.195 191.19L109.147 174.677L108.329 172.822L108.378 170.807L109.182 170.77L109.292 166.32L109.952 166.279V164.993L107.317 162.212L105.926 197.702ZM135.213 161.627L133.639 164.335V165.418H134.115L134.426 170.316L134.847 170.353L134.998 172.451L134.237 173.933L135.579 190.678L137.776 197.293L135.213 161.627ZM151.468 162.212L147.99 164.262V165.746L149.296 165.846L149.729 170.931L150.698 171.006L150.793 172.824L149.783 174.112L151.721 190.679L154.397 197.08L151.468 162.212Z" fill="#AD7F2C"/>
<path opacity="0.45" d="M93.6987 175.604L92.656 173.783L92.7869 171.875L94.0665 171.757L94.2842 167.443L96.4891 167.308L96.2339 171.573L95.0893 171.669L94.8316 173.65L95.552 175.493L93.5962 191.68L87.7332 197.936L91.4211 191.753L93.6987 175.604Z" fill="#D2A67C"/>
<path opacity="0.45" d="M109.292 166.321L109.182 170.77L108.378 170.807L108.329 172.823L109.147 174.678L108.195 191.191L105.926 197.703L111.749 191.124L112.409 174.58L112.076 172.77L111.087 172.823L111.197 170.684L112.002 170.652L112.409 166.135L109.292 166.321Z" fill="#D2A67C"/>
<path opacity="0.45" d="M123.767 165.652L125.475 197.451L129.626 190.789V174.112V172.596L128.941 172.579L128.892 170.317L129.626 170.316V165.409L123.767 165.652Z" fill="#D2A67C"/>
<path opacity="0.45" d="M149.296 165.847L146.512 165.648L146.818 170.743L148.174 170.825V172.762L146.856 172.823V174.078L148.075 190.679L154.373 196.874L151.721 190.679L149.784 174.112L150.793 172.824L150.698 171.006L149.729 170.931L149.296 165.847Z" fill="#D2A67C"/>
<path opacity="0.6" d="M76.931 166.786L73.8052 167.738L68.4379 197.702L74.2222 168.872L76.931 166.786Z" fill="#FAFFF0"/>
<path opacity="0.6" d="M86.1563 165.409L81.4049 197.452L86.9128 166.393L90.4765 164.384L86.1563 165.409Z" fill="#FAFFF0"/>
<path opacity="0.6" d="M101.85 163.455L106.927 162.773L102.973 164.384L98.4821 197.069L101.85 163.455Z" fill="#FAFFF0"/>
<path opacity="0.6" d="M118.627 162.103L116.689 197.069H117.275L119.618 163.274L123.059 162.103H118.627Z" fill="#FAFFF0"/>
<path opacity="0.6" d="M136.214 162.334L140.51 162.773L136.996 163.456L138.704 196.715L136.214 162.334Z" fill="#FAFFF0"/>
<path opacity="0.6" d="M152.452 162.773L156.569 163.652L161.597 196.24L155.848 164.139L152.452 162.773Z" fill="#FAFFF0"/>
<path opacity="0.45" d="M80.6165 169.576L81.2999 169.397L80.8549 173.391L80.3237 173.485L80.1816 175.23L80.6449 176.985L78.0305 192.07L73.4901 198.119L77.2466 192.089L79.86 177.068L78.8437 175.385L79.002 173.732L80.17 173.512L80.6165 169.576Z" fill="#D2A67C"/>
<path opacity="0.3" d="M67.5348 201.118L90.9158 200.777V203.655L69.0482 203.947L67.5348 201.118Z" fill="#FAFFF0"/>
<path opacity="0.3" d="M127.818 200.558L160.254 200.191L158.424 203.411H128.185L127.818 200.558Z" fill="#D2A67C"/>
<path opacity="0.5" d="M65.5084 200.557L165.453 199.362L162.304 203.106L66.9798 202.362L65.5084 200.557Z" fill="#D2A67C"/>
<path opacity="0.45" d="M134.115 165.418L134.426 170.316L134.847 170.353L134.998 172.451L134.237 173.934L135.58 190.678L137.776 197.293L134.313 190.702L133.164 173.934V172.451H133.731L133.585 170.337L133.072 170.316L132.925 165.425L134.115 165.418Z" fill="#D2A67C"/>
<rect width="100.807" height="180.527" fill="black" fill-opacity="0" transform="translate(19.2334 23.0759)"/>
<rect width="100.807" height="180.527" fill="black" fill-opacity="0" transform="translate(19.2334 23.0759)"/>
<rect width="2.04516" height="1.57824" fill="black" fill-opacity="0" transform="translate(51.6937 109.999)"/>
<path d="M51.9667 109.999L53.7389 110.015L53.5288 111.577L51.6937 111.56L51.9667 109.999Z" fill="#AD7F2C"/>
<path d="M74.9322 26.4414L85.6547 121.03L77.9256 140.776H55.6932L48.4015 125.355L62.9708 29.7054L66.088 28.8545L67.4274 29.3875L70.7359 28.425V27.5922L74.9322 26.4414Z" fill="#FFD586"/>
<path opacity="0.4" d="M71.3528 27.7127L73.2635 128.865L70.3655 130.173L76.4837 129.775L71.8891 27.592L71.3528 27.7127Z" fill="#FFF7CC"/>
<path opacity="0.4" d="M63.6561 30.1104L49.5328 124.838L56.0519 139.81H60.5141L57.8961 137.666L54.2269 123.851L64.2726 29.9448L63.6561 30.1104Z" fill="#FFF7CC"/>
<path d="M74.9323 26.4414L85.6547 121.03L95.0185 123.205L76.8896 28.332L74.9323 26.4414Z" fill="#D69E36"/>
<path d="M85.6546 121.031L95.0184 123.205L82.268 140.776H77.9255L85.6546 121.031Z" fill="#AD7F2C"/>
<path d="M85.9316 141.96H53.342V144.827H85.9316V141.96Z" fill="url(#paint14_linear)"/>
<path d="M95.0185 179.471H44.2549V184.489H95.0185V179.471Z" fill="url(#paint15_linear)"/>
<path d="M106.013 198.585H33.2609L39.474 184.489H99.7992L106.013 198.585Z" fill="url(#paint16_linear)"/>
<path d="M93.9825 151.039H45.2914V159.641H93.9825V151.039Z" fill="url(#paint17_linear)"/>
<path d="M81.5116 140.776H57.7622V141.961H81.5116V140.776Z" fill="#AD7F2C"/>
<path d="M45.2914 151.039L53.3421 144.827H85.9317L93.9825 151.039H45.2914Z" fill="url(#paint18_linear)"/>
<path d="M60.8723 32.3043L65.162 31.2068L65.0361 32.5135L60.6333 33.6184L60.8723 32.3043Z" fill="#FFD586"/>
<path d="M62.2533 34.4205L62.3573 33.741L65.4547 32.9612L65.0361 32.5134L60.6333 33.6183L62.2533 34.4205Z" fill="#AD7F2C"/>
<path d="M65.162 31.2068L65.0361 32.5135L65.4547 32.9612L65.5689 31.7037L65.162 31.2068Z" fill="#D69E36"/>
<path d="M71.6161 31.2067L76.0433 30.2002L75.9007 29.0139L71.6161 30.0225V31.2067Z" fill="#FFD586"/>
<path d="M76.0433 30.2002L78.4421 31.2683L78.1646 30.2002L75.9008 29.0139L76.0433 30.2002Z" fill="#D69E36"/>
<path d="M71.6161 31.2067L76.0433 30.2002L78.4421 31.2683L77.5577 31.8279L75.4355 30.8769L72.0986 31.5328L71.6161 31.2067Z" fill="#AD7F2C"/>
<rect width="0.532218" height="2.11193" fill="black" fill-opacity="0" transform="translate(90.4958 95.3999)"/>
<path opacity="0.75" d="M90.5557 95.4798L90.4958 97.5118H90.7455L91.0281 95.3999L90.5557 95.4798Z" fill="#FFF7CC"/>
<path d="M61.5872 28.9318L66.1519 27.6053L66.301 25.5146L62.2396 26.7514L61.5872 28.9318Z" fill="#FFD586"/>
<path d="M61.5872 28.932L62.9707 29.7055L66.0879 28.8546L66.1519 27.6055L61.5872 28.932Z" fill="#AD7F2C"/>
<path d="M66.1518 27.6055L68.9758 28.9365L67.4273 29.3876L66.0879 28.8546L66.1518 27.6055Z" fill="#AD7F2C"/>
<path d="M66.301 25.5146L66.1519 27.6053L68.9758 28.9363V27.0604L66.301 25.5146Z" fill="#D69E36"/>
<path d="M70.7358 27.5924L69.9175 26.8584L75.7896 25.1714L74.9322 26.4416L70.7358 27.5924Z" fill="#AD7F2C"/>
<path d="M75.7897 25.1714L74.9323 26.4416L76.8896 28.3322L78.5543 27.7131L75.7897 25.1714Z" fill="#AD7F2C"/>
<path d="M69.9175 26.8581V24.6681L75.1965 23.0759L75.7896 25.1711L69.9175 26.8581Z" fill="#FFD586"/>
<path d="M78.5542 27.7128L75.7896 25.1711L75.1965 23.0759L78.0256 25.9627L78.5542 27.7128Z" fill="#D69E36"/>
<path opacity="0.75" d="M81.2817 122.401L81.2305 122.099L77.9991 103.015L83.5912 102.821L83.438 101.474L77.1371 101.613L76.3578 101.631L76.4491 102.428L78.7013 122.168L74.4141 136.876L59.4583 137.306L54.6926 125.917L57.4445 104.44L57.5364 103.728L56.8266 103.76L52.1422 103.97L51.9585 105.173L56.1508 104.986L52.9088 125.915L52.8692 126.173L52.9778 126.4L58.5689 138.114L58.7322 138.455L59.0995 138.449L74.9169 138.152L75.3517 138.144L75.5146 137.711L81.1782 122.674L81.2817 122.401Z" fill="#FFF7CC"/>
<path d="M80.609 121.952L80.5577 121.651L77.3259 102.566L83.5679 102.35L83.3964 100.949L76.4639 101.164L75.6846 101.182L75.7754 101.98L78.0286 121.72L73.7419 136.428L58.786 136.857L54.0194 125.468L56.7718 103.992L56.8631 103.28L56.1528 103.311L51.4689 103.521L51.2858 104.725L55.4776 104.538L52.236 125.467L52.1965 125.724L52.3045 125.952L57.8961 137.666L58.0595 138.008L58.4263 138.001L74.2442 137.704L74.6785 137.696L74.8419 137.263L80.5055 122.226L80.609 121.952Z" fill="#AD7F2C"/>
<path d="M80.8388 122.135L80.7876 121.834L77.5562 102.749L83.5588 102.541L83.4071 101.199L76.6937 101.347L75.9144 101.364L76.0052 102.163L78.2589 121.903L73.9717 136.61L59.0159 137.04L54.2498 125.651L57.0022 104.175L57.093 103.463L56.3832 103.494L51.6998 103.704L51.5161 104.908L55.7084 104.721L52.4664 125.65L52.4263 125.908L52.5344 126.134L58.126 137.848L58.2893 138.19L58.6572 138.183L74.4745 137.887L74.9093 137.878L75.0717 137.446L80.7353 122.409L80.8388 122.135Z" fill="#D69E36"/>
<rect width="27.0909" height="55.3645" fill="black" fill-opacity="0" transform="translate(54.2269 39.5754)"/>
<path d="M59.3087 73.4108C59.5832 70.7969 59.9221 67.5777 60.2762 64.2091C60.6091 60.9359 60.9561 57.5171 61.2727 54.3956C61.8998 48.1495 62.3939 43.0979 62.4173 42.762C60.9439 43.1818 60.8024 43.2226 60.7897 43.2259C60.8018 43.2226 60.9439 43.1828 62.4122 42.7683C62.362 43.0865 61.7161 48.1318 60.9343 54.357C60.5477 57.4712 60.1235 60.8809 59.7171 64.1462C59.3325 67.3164 58.9662 70.3453 58.6684 72.8066C57.6141 72.9823 56.8125 73.1154 56.1047 73.2338L56.2245 73.9401C57.0758 73.7941 58.0398 73.6291 59.3087 73.4108Z" fill="#AD7F2C"/>
<path d="M79.5715 83.4084C79.0103 83.4464 78.3244 83.4926 77.5268 83.5471C77.1281 83.5775 76.7019 83.6099 76.2503 83.6442C76.024 83.6617 75.7912 83.6797 75.5522 83.6989C75.2341 83.7258 74.9094 83.7532 74.575 83.7813C74.6613 85.0959 74.7572 86.5684 74.8607 88.168C74.9586 89.5768 75.0636 91.0988 75.1742 92.7072C72.8155 92.9136 70.2701 93.1357 67.6181 93.3674C65.9342 93.5223 64.2929 93.6729 62.711 93.8174C61.2701 93.9551 59.8835 94.0887 58.5674 94.2137C58.7485 92.6253 58.9195 91.1381 59.0753 89.7827C59.2498 88.1976 59.4081 86.7672 59.5451 85.5211C59.0524 85.5812 58.5836 85.6392 58.1412 85.6932C57.7866 85.7396 57.4532 85.7832 57.1427 85.824C56.5212 85.9115 55.99 85.9863 55.5567 86.0464C54.6912 86.1757 54.2224 86.2662 54.227 86.3075C54.2315 86.3504 54.7084 86.3397 55.5821 86.2852C56.0179 86.2535 56.5542 86.2155 57.1793 86.1704C57.4918 86.145 57.8262 86.1181 58.1823 86.0892C58.3604 86.0745 58.5446 86.0593 58.7328 86.0436L58.8673 86.0319L58.9246 86.0284C58.9601 86.0266 58.9971 86.0248 59.0342 86.0228C59.024 86.0778 59.0144 86.1331 59.0042 86.1899C58.9834 86.3397 58.9616 86.4913 58.9398 86.6455C58.8957 86.9568 58.85 87.2786 58.8028 87.6099C58.7115 88.2727 58.6146 88.9744 58.5121 89.7127C58.299 91.312 58.0651 93.0657 57.816 94.9401C60.8312 94.6777 64.1701 94.3871 67.6821 94.0816C70.5669 93.8139 73.334 93.5581 75.8997 93.32C75.7435 91.4768 75.5963 89.7345 75.4609 88.1223C75.3934 87.3673 75.33 86.643 75.2681 85.9523C75.2366 85.607 75.2062 85.2706 75.1762 84.942C75.1615 84.7785 75.1463 84.6165 75.1321 84.4575L75.1204 84.3378L75.1159 84.3006L75.1067 84.2278C76.018 84.1198 76.8419 84.0219 77.5649 83.936C78.3579 83.8353 79.0403 83.7489 79.5979 83.6787C80.7105 83.5283 81.3224 83.4226 81.3178 83.3752C81.3127 83.3275 80.6927 83.3412 79.5715 83.4084Z" fill="#AD7F2C"/>
<path d="M75.6008 62.3853C75.7049 64.1412 75.8068 65.8617 75.9032 67.4879C76.0169 69.2956 76.1239 70.9978 76.2213 72.5306C77.7794 72.3009 78.9869 72.123 80.0417 71.967L79.9002 71.0224C79.1219 71.1423 78.2325 71.2787 77.0828 71.4559C76.8713 68.8448 76.6135 65.6561 76.3446 62.3325C76.0488 58.8267 75.7399 55.1791 75.4598 51.8573C74.8885 45.2163 74.4126 39.8718 74.372 39.5836C76.1579 39.58 76.3365 39.58 76.3512 39.5795C76.3365 39.5795 76.1579 39.579 74.3634 39.5754C74.3649 39.8832 74.6419 45.2297 75.0088 51.8895C75.1965 55.2176 75.4025 58.8721 75.6008 62.3853Z" fill="#AD7F2C"/>
<g opacity="0.75">
<rect width="27.0909" height="55.3646" fill="black" fill-opacity="0" transform="translate(54.4775 39.9556)"/>
<path opacity="0.75" d="M59.5593 73.7912C59.8338 71.1767 60.1727 67.9576 60.5279 64.5889C60.8597 61.3161 61.2067 57.8969 61.5233 54.7754C62.1504 48.5302 62.644 43.4778 62.6689 43.1421C61.195 43.5617 61.053 43.6025 61.0413 43.6061C61.053 43.6025 61.194 43.5627 62.6628 43.1482C62.6121 43.4669 61.9662 48.5117 61.1854 54.7374C60.7978 57.851 60.3736 61.2611 59.9682 64.5261C59.5842 67.6962 59.2163 70.7259 58.919 73.1865C57.8652 73.3622 57.0631 73.4953 56.3553 73.6139L56.4751 74.3208C57.3269 74.1745 58.2909 74.0089 59.5593 73.7912Z" fill="#FFF7CC"/>
<path opacity="0.75" d="M79.8221 83.7883C79.2615 83.8265 78.5755 83.8727 77.7774 83.9267C77.3792 83.9576 76.953 83.9896 76.5009 84.024C76.2741 84.0413 76.0423 84.0595 75.8033 84.0791C75.4857 84.1057 75.1595 84.1331 74.8256 84.161C74.9114 85.4758 75.0078 86.9483 75.1118 88.5476C75.2092 89.9572 75.3147 91.4779 75.4258 93.0873C73.0661 93.2932 70.5217 93.5156 67.8688 93.7473C66.1859 93.9017 64.544 94.0523 62.9616 94.1973C61.5207 94.335 60.1341 94.4681 58.818 94.5933C59.0002 93.0052 59.1706 91.518 59.3259 90.1626C59.5004 88.578 59.6587 87.1466 59.7967 85.9004C59.3025 85.9605 58.8342 86.0188 58.3913 86.0728C58.0377 86.1192 57.7044 86.1636 57.3928 86.2039C56.7723 86.2909 56.2406 86.3657 55.8074 86.4265C54.9418 86.5551 54.473 86.6458 54.4776 86.6877C54.4821 86.7297 54.9591 86.7194 55.8322 86.6651C56.2691 86.6332 56.8048 86.5954 57.4299 86.55C57.7424 86.5251 58.0778 86.4975 58.4334 86.4689C58.6115 86.4542 58.7947 86.4389 58.9834 86.4235L59.1184 86.4113L59.1752 86.4085C59.2107 86.4065 59.2477 86.4047 59.2843 86.4024C59.2751 86.4575 59.2645 86.5127 59.2548 86.5698C59.234 86.7194 59.2122 86.871 59.1904 87.0259C59.1463 87.3367 59.1006 87.6582 59.0544 87.9898C58.9626 88.6525 58.8652 89.3546 58.7632 90.0926C58.5501 91.6919 58.3162 93.4453 58.0661 95.3199C61.0818 95.0575 64.4208 94.7667 67.9337 94.4615C70.8175 94.1938 73.5841 93.9377 76.1498 93.6996C75.9951 91.8567 75.8475 90.1144 75.7115 88.5017C75.6445 87.7474 75.5806 87.0228 75.5192 86.3322C75.4877 85.9866 75.4573 85.6505 75.4274 85.3216C75.4121 85.1578 75.3974 84.9966 75.3827 84.8371L75.3716 84.7177L75.3665 84.6807L75.3574 84.6074C76.2691 84.4997 77.0925 84.4021 77.8155 84.3156C78.609 84.2152 79.2909 84.129 79.8485 84.0583C80.9616 83.9079 81.573 83.8022 81.5684 83.7548C81.5639 83.7071 80.9434 83.7208 79.8221 83.7883Z" fill="#FFF7CC"/>
<path opacity="0.75" d="M75.8521 62.7657C75.9561 64.5214 76.0576 66.2418 76.154 67.868C76.2681 69.6754 76.3757 71.3782 76.4721 72.911C78.0307 72.6813 79.2382 72.5033 80.293 72.3477L80.1504 71.4025C79.3726 71.5227 78.4832 71.6593 77.3336 71.8368C77.1225 69.2252 76.8643 66.0362 76.5954 62.7124C76.2996 59.2076 75.9911 55.5595 75.71 52.2375C75.1398 45.5964 74.6633 40.2519 74.6233 39.9637C76.4097 39.9604 76.5872 39.9604 76.6025 39.9604C76.5872 39.9599 76.4087 39.9591 74.6141 39.9556C74.6162 40.2636 74.8932 45.6101 75.2595 52.2699C75.4472 55.5978 75.6537 59.2524 75.8521 62.7657Z" fill="#FFF7CC"/>
</g>
<rect width="27.0904" height="55.3645" fill="black" fill-opacity="0" transform="translate(54.3182 39.7764)"/>
<path d="M59.3995 73.6117C59.6755 70.9978 60.0139 67.7784 60.368 64.41C60.6998 61.1369 61.0469 57.7177 61.3645 54.5965C61.9911 48.3502 62.4862 43.2988 62.5091 42.9626C61.0357 43.3828 60.8931 43.4236 60.882 43.4266C60.8931 43.4236 61.0342 43.3838 62.503 42.9692C62.4533 43.2877 61.8074 48.3325 61.0261 54.5582C60.639 57.6721 60.2148 61.0816 59.8084 64.3469C59.4243 67.5173 59.058 70.547 58.7597 73.0075C57.7054 73.1832 56.9038 73.3163 56.1965 73.4345L56.3163 74.1416C57.1676 73.9951 58.1321 73.83 59.3995 73.6117Z" fill="#D69E36"/>
<path d="M79.6623 83.6096C79.1022 83.6474 78.4162 83.693 77.6192 83.7478C77.2204 83.7785 76.7937 83.8104 76.3411 83.8449C76.1153 83.8619 75.8825 83.8806 75.6435 83.8994C75.3264 83.9263 75.0002 83.9539 74.6668 83.9821C74.7521 85.2966 74.848 86.7689 74.953 88.3689C75.0499 89.7773 75.1549 91.2993 75.2665 92.9082C72.9063 93.1143 70.3624 93.3364 67.71 93.5676C66.0265 93.7228 64.3842 93.8734 62.8018 94.0179C61.3609 94.1558 59.9748 94.2889 58.6587 94.4142C58.8408 92.826 59.0108 91.3393 59.1666 89.9832C59.3421 88.3986 59.4994 86.9677 59.6374 85.7215C59.1432 85.7821 58.6744 85.8399 58.232 85.8939C57.8779 85.9403 57.5445 85.9839 57.2335 86.0245C56.6125 86.112 56.0813 86.1865 55.6475 86.2476C54.783 86.3759 54.3142 86.4667 54.3183 86.5088C54.3233 86.5503 54.8003 86.5404 55.6734 86.4859C56.1092 86.4542 56.645 86.4165 57.2706 86.3708C57.5831 86.3455 57.918 86.3186 58.2741 86.29C58.4522 86.275 58.6354 86.2593 58.8236 86.2441L58.9591 86.2324L59.0159 86.2289C59.0524 86.2276 59.0879 86.2256 59.125 86.2233C59.1153 86.2788 59.1057 86.3338 59.096 86.3901C59.0742 86.5404 59.0529 86.6918 59.0306 86.847C58.9865 87.1575 58.9418 87.4793 58.8946 87.8104C58.8028 88.4731 58.7059 89.1754 58.6039 89.9137C58.3903 91.5125 58.1569 93.2664 57.9068 95.1408C60.9225 94.8781 64.2609 94.5876 67.7739 94.2821C70.6587 94.0143 73.4253 93.7585 75.991 93.521C75.8353 91.6775 75.6881 89.9353 75.5522 88.3228C75.4852 87.5685 75.4208 86.8434 75.3599 86.1533C75.3284 85.8075 75.2975 85.471 75.2675 85.1425C75.2528 84.9789 75.2376 84.8169 75.2229 84.658L75.2128 84.5386L75.2077 84.5018L75.198 84.4283C76.1098 84.3203 76.9332 84.2229 77.6562 84.1367C78.4497 84.0363 79.1316 83.9496 79.6887 83.8791C80.8018 83.729 81.4137 83.6233 81.4086 83.5756C81.404 83.528 80.784 83.5414 79.6623 83.6096Z" fill="#D69E36"/>
<path d="M75.6933 62.5859C75.7963 64.3419 75.8982 66.0626 75.9941 67.6885C76.1093 69.4967 76.2159 71.1985 76.3122 72.7321C77.8714 72.5019 79.0784 72.3244 80.1332 72.1685L79.9911 71.2233C79.2133 71.3432 78.3234 71.4799 77.1737 71.6573C76.9627 69.046 76.7055 65.857 76.4366 62.5332C76.1397 59.0276 75.8318 55.3798 75.5512 52.0583C74.9804 45.4172 74.504 40.0727 74.4634 39.7842C76.2504 39.7809 76.4284 39.7809 76.4431 39.7809C76.4279 39.7804 76.2493 39.7797 74.4553 39.7764C74.4563 40.0842 74.7334 45.4309 75.1002 52.0902C75.2879 55.4186 75.4939 59.073 75.6933 62.5859Z" fill="#D69E36"/>
<rect width="11.7306" height="103.87" fill="black" fill-opacity="0" transform="translate(60.1584 28.425)"/>
<path d="M67.4274 29.3875L61.9135 129.626L64.2544 129.775L64.4761 132.295L67.9738 132.098L68.5487 129.403L71.8891 128.58L70.7359 28.425L67.4274 29.3875Z" fill="#14A2E9"/>
<path d="M66.0879 28.8545L67.4274 29.3874L61.9134 129.626L60.1584 129.498L66.0879 28.8545Z" fill="#AD7F2C"/>
<path d="M64.2543 129.775H65.1954L65.376 132.244L64.476 132.295L64.2543 129.775Z" fill="#AD7F2C"/>
<path d="M67.3122 31.0142C67.2959 30.9501 68.0286 30.7163 68.9479 30.4912C69.8672 30.267 70.6252 30.137 70.6414 30.2004C70.6562 30.2648 69.924 30.499 69.0047 30.7232C68.0854 30.9483 67.3269 31.0778 67.3122 31.0142ZM67.2178 35.735C67.336 35.7246 67.4781 35.7086 67.6394 35.6886C67.7916 35.6673 67.9626 35.643 68.1473 35.6179C68.2178 35.6374 68.2893 35.6569 68.3639 35.6774C68.5511 35.643 68.749 35.6077 68.953 35.5702L69.0265 35.5557C69.1026 35.4997 69.1772 35.4444 69.2508 35.3904C69.4897 35.3377 69.715 35.2883 69.9185 35.2439C70.131 35.1952 70.3188 35.1478 70.4755 35.1057C70.7886 35.0205 70.9753 34.9528 70.9687 34.9196C70.9621 34.8862 70.7642 34.8938 70.442 34.9328C70.2802 34.9523 70.0884 34.9795 69.8733 35.0137C69.7668 35.0314 69.6536 35.0505 69.5359 35.07C69.4096 35.093 69.2772 35.1164 69.1412 35.1412C69.0681 35.1942 68.9935 35.2482 68.9169 35.3032C68.9164 35.304 68.9129 35.3042 68.9027 35.3068C68.7186 35.3428 68.541 35.3785 68.3715 35.4122C68.298 35.395 68.2259 35.3788 68.1559 35.3628C68.0509 35.3846 67.9499 35.4054 67.853 35.4262C67.7652 35.4457 67.681 35.464 67.6019 35.4825C67.4441 35.5192 67.3056 35.5537 67.1914 35.5846C66.9631 35.6475 66.8307 35.6982 66.8358 35.7259C66.8408 35.7532 66.9819 35.7553 67.2178 35.735ZM66.7617 44.0108C66.9063 44.0029 67.0813 43.99 67.2787 43.9718C67.4583 43.9535 67.6592 43.9332 67.8753 43.9114L67.8779 43.9155L67.924 43.9558C67.9732 43.9981 68.023 44.0407 68.0727 44.0833C68.3157 44.0476 68.5714 44.0098 68.8358 43.9707L68.9413 43.954C69.0062 43.8627 69.0702 43.773 69.1326 43.686C69.4187 43.633 69.6886 43.5823 69.9322 43.5372C70.1929 43.486 70.4253 43.436 70.6191 43.3907C71.0057 43.3004 71.2376 43.2276 71.231 43.1911C71.2249 43.1541 70.9824 43.1587 70.5872 43.198C70.3893 43.2167 70.1529 43.2441 69.8895 43.2791C69.7576 43.2976 69.6186 43.3166 69.4735 43.3367C69.3101 43.3618 69.1392 43.3874 68.9646 43.4142C68.9017 43.5004 68.8373 43.5884 68.7718 43.6777C68.6556 43.6969 68.542 43.7147 68.4299 43.7329C68.372 43.7421 68.3157 43.7519 68.2594 43.7611L68.1757 43.7755C68.1569 43.7781 68.1589 43.7781 68.1589 43.7781L68.1579 43.7788H68.1559L68.1062 43.7385C68.057 43.6985 68.0077 43.6589 67.959 43.6194C67.82 43.6424 67.6856 43.6642 67.5567 43.6848C67.4481 43.7043 67.3441 43.7228 67.2467 43.7405C67.0514 43.7765 66.8799 43.811 66.7383 43.8432C66.4552 43.9063 66.2903 43.9591 66.2954 43.99C66.3 44.0212 66.471 44.027 66.7617 44.0108ZM66.2457 55.0501C66.4182 55.0446 66.6247 55.0326 66.8596 55.0167C67.0661 55.0017 67.2974 54.9842 67.5471 54.9649L67.5491 54.9708L67.5496 54.9725L67.5603 54.9903L67.5821 55.0248C67.6293 55.0993 67.6775 55.1746 67.7257 55.2509C68.023 55.2139 68.336 55.1739 68.6602 55.1338C68.7054 55.1277 68.751 55.1211 68.7957 55.1155C68.8352 55.0248 68.8743 54.934 68.9129 54.8443L68.9519 54.7527C68.9575 54.7401 68.9535 54.7487 68.955 54.7451C69.2888 54.6904 69.6034 54.6389 69.8875 54.5917C70.1975 54.5377 70.474 54.486 70.7044 54.4384C71.165 54.3433 71.4405 54.2657 71.4349 54.2249C71.4289 54.1841 71.1422 54.1874 70.6734 54.2254C70.439 54.2447 70.1595 54.2725 69.8459 54.308C69.6896 54.3265 69.5247 54.3468 69.3533 54.3669C69.1523 54.393 68.9438 54.4206 68.7292 54.4495C68.677 54.5689 68.6232 54.6904 68.5679 54.8146C68.436 54.8316 68.3061 54.8501 68.1792 54.8676C68.1118 54.8765 68.0448 54.8858 67.9788 54.8955L67.8855 54.9087L67.8824 54.9109L67.8799 54.9087C67.8799 54.9087 67.8799 54.9099 67.8784 54.9076L67.8672 54.8904L67.8439 54.8562C67.7957 54.7834 67.748 54.7119 67.7008 54.6412C67.5983 54.6544 67.4984 54.667 67.3994 54.6797C67.3319 54.6896 67.266 54.6985 67.2005 54.7076C67.0717 54.7266 66.9479 54.7444 66.8317 54.7616C66.5983 54.7981 66.3938 54.8321 66.2254 54.8645C65.8875 54.9282 65.6912 54.9824 65.6952 55.0167C65.6988 55.0511 65.9022 55.0613 66.2457 55.0501ZM65.678 68.0954C65.8763 68.0913 66.1158 68.083 66.3883 68.069C66.6232 68.0559 66.887 68.0411 67.1716 68.0249L67.1726 68.033L67.1731 68.0346L67.1813 68.0564L67.2005 68.1053C67.2437 68.2105 67.2863 68.3165 67.3299 68.4245C67.6775 68.3867 68.0443 68.3464 68.4223 68.3053C68.4811 68.2987 68.5379 68.2919 68.5958 68.285C68.6282 68.1656 68.6602 68.0477 68.6917 67.9314L68.7236 67.814L68.7231 67.812C69.1052 67.7557 69.4654 67.7022 69.7896 67.654C70.1498 67.597 70.4705 67.5432 70.7378 67.4925C71.2711 67.3926 71.5912 67.3105 71.5851 67.2663C71.5795 67.2222 71.2493 67.2233 70.7079 67.2613C70.437 67.28 70.1128 67.3084 69.751 67.3444C69.5694 67.3642 69.3781 67.3835 69.1792 67.4048C68.9428 67.4329 68.6972 67.4616 68.4431 67.4915C68.4121 67.6051 68.3796 67.7207 68.3477 67.8371L68.3152 67.9549C68.3132 67.9587 68.3142 67.9565 68.3142 67.9565C68.165 67.975 68.0179 67.9922 67.8743 68.0092C67.7967 68.0186 67.7201 68.0277 67.6445 68.0376L67.5537 68.049L67.5501 68.0508L67.5466 68.0485L67.5461 68.0472L67.5359 68.0239L67.5141 67.975C67.4705 67.8728 67.4273 67.7719 67.3842 67.6715C67.2619 67.6847 67.1412 67.6984 67.0225 67.71C66.9433 67.7202 66.8662 67.7285 66.7916 67.7374C66.6414 67.7567 66.4979 67.7744 66.3629 67.7912C66.093 67.8267 65.855 67.8611 65.6592 67.8936C65.2665 67.9582 65.0392 68.014 65.0428 68.0513C65.0458 68.0888 65.2802 68.1025 65.678 68.0954ZM65.062 82.4192C65.2883 82.4175 65.5603 82.4114 65.8692 82.3997C66.024 82.3936 66.1884 82.3865 66.3599 82.3792C66.4461 82.3749 66.5344 82.3703 66.6242 82.3657C66.6627 82.3642 66.7018 82.3625 66.7424 82.3602L66.7525 82.3625L66.7531 82.3728C66.7536 82.3739 66.7525 82.3728 66.7536 82.3754L66.7617 82.4066L66.7789 82.4692C66.816 82.6031 66.853 82.7387 66.8911 82.8759C67.2878 82.8381 67.7049 82.7978 68.1341 82.7559C68.2061 82.7486 68.2777 82.7415 68.3477 82.7339C68.3715 82.5873 68.3959 82.4428 68.4197 82.2993L68.4426 82.1604L68.4415 82.1581C68.8738 82.0993 69.2802 82.0443 69.6465 81.9951C70.0565 81.9352 70.4207 81.8785 70.7241 81.8265C71.3309 81.7203 71.6947 81.6343 71.6891 81.5861C71.6836 81.5382 71.3096 81.5377 70.6947 81.5757C70.3873 81.594 70.0194 81.6229 69.6074 81.6594C69.4015 81.6792 69.1843 81.6997 68.9585 81.7218C68.6866 81.7502 68.4035 81.7801 68.1118 81.8113C68.0879 81.9512 68.0631 82.0924 68.0382 82.2354L68.0143 82.3779H68.0138V82.3774C67.8464 82.3952 67.682 82.4129 67.5212 82.4296C67.4339 82.4393 67.3477 82.4484 67.2624 82.4578L67.1985 82.4646L67.1711 82.4682L67.1701 82.4687L67.166 82.4702L67.163 82.4672C67.162 82.4651 67.164 82.4697 67.1615 82.4623L67.1513 82.4307L67.1331 82.3683C67.094 82.237 67.0554 82.1087 67.0174 81.9822C66.8743 81.9951 66.7348 82.0078 66.5978 82.0199C66.508 82.0285 66.4202 82.0377 66.3345 82.0466C66.164 82.0651 66.0012 82.0828 65.8469 82.0993C65.5389 82.135 65.269 82.169 65.0458 82.202C64.5988 82.2664 64.339 82.3232 64.3426 82.3642C64.3456 82.4048 64.611 82.422 65.062 82.4192ZM64.4065 97.2638C64.6587 97.2643 64.9641 97.2603 65.3106 97.2514C65.4842 97.2453 65.6673 97.2398 65.8596 97.2342C65.9565 97.2301 66.0549 97.2258 66.1549 97.2228C66.1975 97.2207 66.2406 97.2192 66.2837 97.2174L66.2959 97.2197L66.2954 97.2324L66.3182 97.3582C66.3502 97.5184 66.3822 97.6817 66.4141 97.847C66.8581 97.8084 67.3238 97.7686 67.8038 97.7263C67.889 97.7194 67.9743 97.7111 68.058 97.704C68.0737 97.5306 68.0894 97.3604 68.1052 97.1911L68.1199 97.0275L68.1189 97.0255C68.6014 96.9647 69.0544 96.9069 69.4623 96.8557C69.9215 96.7938 70.3299 96.7345 70.6699 96.6792C71.3502 96.5694 71.7576 96.4784 71.7526 96.4264C71.747 96.3755 71.3284 96.3729 70.6409 96.4104C70.2964 96.4297 69.885 96.4584 69.4238 96.4954C69.1934 96.5159 68.9499 96.5372 68.6962 96.5585C68.3898 96.5884 68.0702 96.6196 67.7409 96.6518C67.7241 96.8166 67.7074 96.9832 67.6907 97.1515L67.6739 97.3191C67.4892 97.3369 67.3066 97.3541 67.1275 97.3703C66.9895 97.3845 66.7825 97.4048 66.7378 97.4104L66.7353 97.4066L66.7074 97.2783C66.6734 97.1208 66.6399 96.9657 66.6064 96.8138C66.4461 96.8257 66.2868 96.8382 66.132 96.8501C66.0306 96.8587 65.9332 96.8676 65.8368 96.8759C65.6445 96.8947 65.4623 96.9117 65.2898 96.9284C64.9448 96.9629 64.6424 96.9976 64.3918 97.0301C63.8905 97.0957 63.5993 97.1543 63.6024 97.1979C63.6049 97.241 63.9012 97.2628 64.4065 97.2638ZM63.7155 111.871C63.9956 111.874 64.333 111.872 64.7165 111.865C64.9083 111.861 65.1118 111.856 65.3254 111.851C65.4319 111.848 65.541 111.845 65.6526 111.841C65.6988 111.84 65.7454 111.839 65.7931 111.837L65.8058 111.84L65.8053 111.855C65.8114 111.906 65.8185 111.959 65.8251 112.011C65.852 112.198 65.8774 112.388 65.9042 112.582C66.3944 112.543 66.9078 112.503 67.4375 112.461C67.5364 112.453 67.6343 112.444 67.7317 112.436C67.7399 112.238 67.748 112.042 67.7546 111.847L67.7617 111.658L67.7607 111.655C68.2934 111.592 68.7936 111.533 69.2442 111.48C69.7526 111.416 70.2046 111.353 70.5816 111.296C71.3345 111.181 71.7855 111.085 71.78 111.03C71.7749 110.975 71.3132 110.972 70.5521 111.008C70.1711 111.027 69.716 111.056 69.2056 111.094C68.9499 111.115 68.681 111.136 68.3999 111.159C68.058 111.19 67.7023 111.222 67.3355 111.256C67.3269 111.444 67.3177 111.635 67.3101 111.829L67.3005 112.023C67.096 112.04 66.8956 112.058 66.6983 112.075C66.5455 112.088 66.3233 112.108 66.2741 112.114L66.2716 112.11C66.2629 112.055 66.2538 112.002 66.2457 111.949C66.2158 111.766 66.1879 111.585 66.1594 111.408C65.9803 111.42 65.8033 111.432 65.6308 111.443C65.5197 111.452 65.4106 111.46 65.3045 111.469C65.092 111.487 64.8885 111.504 64.6983 111.519C64.3162 111.554 63.9803 111.589 63.7028 111.621C63.1478 111.687 62.8251 111.748 62.8271 111.794C62.8292 111.84 63.1569 111.866 63.7155 111.871ZM70.4349 124.611C70.0179 124.63 69.5187 124.659 68.9575 124.698C68.678 124.719 68.3827 124.741 68.0747 124.763C67.6983 124.795 67.3066 124.828 66.9022 124.863C66.9022 125.075 66.9007 125.291 66.8997 125.509C66.8997 125.582 66.8997 125.655 66.8992 125.73C66.8992 125.733 66.8987 125.731 66.8987 125.731C66.6759 125.749 66.4563 125.766 66.2406 125.783C66.1239 125.793 66.0088 125.802 65.8946 125.812L65.8089 125.82L65.7886 125.821H65.7876L65.786 125.822L65.781 125.824L65.7784 125.818C65.7703 125.752 65.7622 125.687 65.7541 125.622C65.7302 125.414 65.7059 125.208 65.6825 125.007C65.4852 125.018 65.2909 125.03 65.1011 125.041C64.9793 125.05 64.8601 125.058 64.7429 125.065C64.5095 125.083 64.2868 125.1 64.0773 125.116C63.6582 125.15 63.2893 125.184 62.9849 125.218C62.3756 125.284 62.0204 125.346 62.023 125.395C62.025 125.445 62.3837 125.474 62.9971 125.484C63.3035 125.489 63.6729 125.489 64.094 125.484C64.3045 125.481 64.5278 125.477 64.7617 125.473C64.8784 125.47 64.9986 125.468 65.1209 125.465L65.2132 125.463C65.2447 125.462 65.2827 125.461 65.2736 125.462L65.2883 125.465L65.2868 125.482C65.2924 125.544 65.298 125.607 65.3035 125.67C65.3243 125.883 65.3462 126.1 65.367 126.32C65.9022 126.282 66.4639 126.241 67.0412 126.2C67.1539 126.191 67.266 126.183 67.3766 126.174C67.3766 125.95 67.3756 125.729 67.3756 125.509C67.3756 125.437 67.3746 125.366 67.3746 125.294L67.373 125.29C67.9555 125.224 68.5034 125.163 68.9971 125.108C69.5542 125.041 70.0509 124.976 70.4639 124.917C71.2904 124.797 71.7855 124.697 71.78 124.638C71.7744 124.58 71.269 124.574 70.4349 124.611Z" fill="#D9FFFF"/>
<path opacity="0.75" d="M67.7414 29.6065L63.0443 128.461L68.9383 31.2684L70.3655 30.861V28.9319L67.7414 29.6065Z" fill="#FFF7CC"/>
<path opacity="0.15" d="M70.3655 83.6086L70.816 127.944L62.8389 128.865L62.9972 125.484L68.9972 125.108L70.3655 83.6086Z" fill="#D15F5E"/>
<path opacity="0.3" d="M76.7902 142.398H83.8724V144.39H76.9134L76.7902 142.398ZM77.1681 145.047L79.7587 151.039V158.585L79.121 159.223H91.2133V151.039L83.8724 145.047H77.1681Z" fill="#B86053"/>
<path d="M89.5999 159.641H49.674V163.782H89.5999V159.641Z" fill="url(#paint19_linear)"/>
<path d="M93.1057 166.411H46.1681V170.87H93.1057V166.411Z" fill="url(#paint20_linear)"/>
<path d="M90.6354 170.87H48.6384V173.897H90.6354V170.87Z" fill="url(#paint21_linear)"/>
<path d="M88.7232 173.897H50.5507V179.472H88.7232V173.897Z" fill="url(#paint22_linear)"/>
<path d="M97.4091 163.782H41.8646V166.411H97.4091V163.782Z" fill="url(#paint23_linear)"/>
<path opacity="0.3" d="M92.6278 164.2V166.131H77.4476L79.9332 165.96V164.275L92.6278 164.2Z" fill="#B87D5A"/>
<path opacity="0.3" d="M92.6278 179.909V184.131H77.4476L79.9332 183.757V180.073L92.6278 179.909Z" fill="#B87D5A"/>
<path opacity="0.3" d="M88.1956 159.82V163.424H76.7902L78.6577 163.105V159.959L88.1956 159.82Z" fill="#B87D5A"/>
<path opacity="0.3" d="M90.261 166.769V170.372H79.0798L80.9109 170.054V166.908L90.261 166.769Z" fill="#B87D5A"/>
<path opacity="0.3" d="M88.1955 171.428V173.409H78.2843L79.9068 173.234V171.505L88.1955 171.428Z" fill="#B87D5A"/>
<path opacity="0.3" d="M87.1006 174.275V178.715H77.8464L79.3614 178.322V174.447L87.1006 174.275Z" fill="#B87D5A"/>
<path opacity="0.3" d="M40.1833 185.106L34.7034 197.869H48.4015L46.3777 197.136L48.8799 185.106H40.1833Z" fill="#FDFFD6"/>
<path opacity="0.3" d="M96.1499 185.106L100.197 197.869H81.5537L83.5771 197.136L81.0758 185.106H96.1499Z" fill="#B87D5A"/>
<path opacity="0.5" d="M49.674 159.641V162.667L89.5999 163.782V159.641H49.674Z" fill="#B87D5A"/>
<path opacity="0.5" d="M46.1681 166.411H93.1057V169.556L46.1681 168.571V166.411Z" fill="#B87D5A"/>
<path opacity="0.5" d="M48.6384 170.87H90.6354L90.5705 172.274L48.6384 171.722V170.87Z" fill="#B87D5A"/>
<path opacity="0.5" d="M50.5507 173.897H88.7232V176.037L50.5507 175.407V173.897Z" fill="#B87D5A"/>
<path d="M120.04 203.603H19.2335L26.0894 198.585H113.185L120.04 203.603Z" fill="url(#paint24_linear)"/>
<path opacity="0.3" d="M107.236 199.159L110.556 203.022H79.4807L85.055 202.289L83.5294 199.159H107.236Z" fill="#B87D5A"/>
<path fill-rule="evenodd" clip-rule="evenodd" d="M54.9001 198.585V190.749C54.9001 190.749 55.8144 187.435 60.9174 187.51C66.0209 187.586 64.65 190.645 64.5739 191.818C64.4978 192.992 64.269 198.32 64.269 198.32L54.9001 198.585Z" fill="#292929"/>
<path fill-rule="evenodd" clip-rule="evenodd" d="M55.991 192.043C55.991 192.043 56.9053 188.729 62.0088 188.804C63.2939 188.824 64.1676 189.032 64.7556 189.352C64.506 188.389 63.6014 187.549 60.959 187.51C55.8555 187.435 54.9413 190.749 54.9413 190.749V198.585L55.991 198.556V192.043Z" fill="#AD7F2C"/>
<rect width="11.3095" height="21.2019" fill="black" fill-opacity="0" transform="translate(117.405 183.393)"/>
<path d="M128.625 200.573C128.424 199.92 127.684 199.387 127.056 199.656C127.737 198.971 128.464 198.181 128.472 197.214C128.479 196.25 127.243 195.348 126.533 196.004C126.848 195.447 127.113 194.816 127.016 194.185C126.917 193.551 126.328 192.962 125.699 193.077C126.801 192.112 126.579 190.055 125.295 189.347C125.714 188.664 125.94 187.863 125.942 187.06C125.943 186.693 125.873 186.282 125.577 186.066C125.346 185.899 124.969 185.98 124.831 186.194C125.018 185.347 124.74 184.405 124.102 183.813C123.849 183.579 123.526 183.393 123.18 183.393C122.547 183.396 122.069 184.04 122.019 184.671C121.968 185.301 122.23 185.909 122.485 186.488C121.352 186.289 120.337 187.419 120.214 188.562C120.091 189.706 120.591 190.814 121.081 191.855C120.894 191.401 120.232 191.313 119.82 191.581C119.409 191.849 119.208 192.344 119.097 192.822C118.72 194.441 119.121 196.223 120.156 197.522C119.56 196.884 118.381 197.579 118.286 198.447C118.19 199.315 118.748 200.106 119.277 200.801C118.972 200.2 117.972 200.321 117.616 200.892C117.259 201.464 117.401 202.219 117.696 202.825C117.991 203.429 118.425 203.965 118.664 204.595L127.786 203.848C128.151 203.532 128.313 203.048 128.451 202.585C128.647 201.93 128.828 201.226 128.625 200.573Z" fill="#579326"/>
<rect width="53.2911" height="25.8099" fill="black" fill-opacity="0" transform="translate(10.0702 180.142)"/>
<rect width="13.0861" height="24.5313" fill="black" fill-opacity="0" transform="translate(10.0702 180.142)"/>
<path d="M23.0544 200.019C22.8205 199.264 21.9646 198.647 21.2365 198.958C22.0249 198.166 22.8656 197.252 22.8753 196.134C22.8834 195.017 21.4552 193.974 20.6328 194.732C20.9975 194.088 21.3035 193.358 21.1903 192.628C21.0772 191.896 20.3948 191.213 19.6673 191.346C20.9433 190.23 20.685 187.85 19.2005 187.031C19.6845 186.24 19.9458 185.313 19.9483 184.385C19.9493 183.961 19.8692 183.485 19.5257 183.234C19.2593 183.04 18.822 183.135 18.6632 183.382C18.8809 182.402 18.5582 181.312 17.8195 180.629C17.5257 180.357 17.1528 180.141 16.753 180.142C16.0209 180.145 15.4674 180.891 15.409 181.62C15.3512 182.349 15.653 183.053 15.9493 183.722C14.6373 183.492 13.4628 184.8 13.3207 186.122C13.1782 187.446 13.7581 188.727 14.3233 189.933C14.1081 189.407 13.3415 189.306 12.8651 189.615C12.3892 189.926 12.1579 190.498 12.0295 191.051C11.5922 192.924 12.0564 194.985 13.2532 196.489C12.5637 195.751 11.201 196.556 11.0909 197.56C10.9798 198.564 11.6246 199.478 12.2365 200.282C11.8844 199.587 10.7261 199.728 10.3146 200.389C9.90165 201.05 10.066 201.924 10.408 202.625C10.7499 203.325 11.2517 203.945 11.5277 204.673L22.0818 203.808C22.5044 203.444 22.6921 202.883 22.8514 202.347C23.0777 201.589 23.2878 200.776 23.0544 200.019Z" fill="#79A958"/>
<rect width="25.9517" height="21.2295" fill="black" fill-opacity="0" transform="translate(21.9069 184.245)"/>
<path d="M47.7424 199.031C47.4522 198.525 46.711 198.545 46.1595 198.735C45.849 198.842 45.5562 198.992 45.2782 199.163C45.6004 198.477 45.8439 197.756 45.9936 197.014C46.1123 196.425 46.0854 195.656 45.5339 195.415C45.1417 195.244 44.6927 195.448 44.331 195.676C43.5172 196.189 42.816 196.862 42.2315 197.626C43.4071 195.446 44.1448 193.031 44.3589 190.563C42.3528 191.352 40.7891 193.117 40.1513 195.168C40.8799 191.732 41.4421 188.194 40.5593 184.822C37.7845 187.233 36.3786 191.122 36.9697 194.749C35.9068 191.515 35.8698 187.93 34.231 184.946C34.0991 184.706 33.9454 184.46 33.7044 184.332C33.268 184.1 32.6993 184.358 32.4284 184.77C32.1574 185.183 32.1123 185.7 32.0935 186.192C31.9824 189.025 32.4892 191.882 33.5674 194.505C32.5719 192.719 31.5765 190.932 30.5811 189.146C29.8982 187.92 29.0828 186.584 27.7317 186.2C27.2898 187.201 27.6105 188.358 27.958 189.395C28.8322 192.004 29.8469 194.566 30.9976 197.065C29.8997 194.892 28.438 192.903 26.6932 191.204C26.3593 190.879 25.8956 190.542 25.4705 190.73C24.9641 190.954 25.0017 191.679 25.1457 192.214C25.8621 194.883 27.1163 197.405 28.8073 199.591C27.1787 197.671 25.2635 195.917 22.8388 195.373C22.5445 195.307 22.1823 195.284 21.9996 195.523C21.8104 195.771 21.9464 196.126 22.0909 196.404C23.714 199.517 25.7602 202.408 28.1544 204.977L44.9068 205.474C46.469 204.022 47.5166 202.028 47.8256 199.918C47.8688 199.619 47.8936 199.294 47.7424 199.031Z" fill="#579326"/>
<rect width="23.9989" height="10.9193" fill="black" fill-opacity="0" transform="translate(39.3623 195.033)"/>
<path d="M62.4486 199.322C61.5485 198.539 59.9879 198.577 59.2598 199.521C59.5358 199.075 59.8189 198.61 59.8803 198.09C59.9417 197.569 59.7144 196.976 59.2274 196.782C58.9529 196.672 58.6444 196.704 58.3532 196.747C57.2152 196.917 56.1015 197.241 55.0513 197.708C55.1979 196.565 54.3476 195.382 53.2172 195.156C52.0858 194.93 50.8463 195.695 50.5414 196.807C50.2659 195.597 48.8737 194.771 47.6804 195.109C46.4861 195.445 45.7322 196.877 46.131 198.052C45.4283 197.511 44.5795 197.1 43.6926 197.122C42.8052 197.144 41.8966 197.687 41.6459 198.537C41.4739 199.127 41.7291 199.806 42.1944 200.177C41.2847 199.869 40.3212 199.721 39.3623 199.758C39.8879 202.552 41.9767 204.998 44.6551 205.952L60.6987 205.071C61.7845 204.578 62.7474 203.724 63.1619 202.607C63.5764 201.489 63.3471 200.105 62.4486 199.322Z" fill="#79A958"/>
<defs>
<radialGradient id="paint0_radial" cx="0" cy="0" r="1" gradientUnits="userSpaceOnUse" gradientTransform="translate(171.221 152.553) scale(7.63834 7.63395)">
<stop stop-color="#FFE486"/>
<stop offset="1" stop-color="#C9D15E"/>
</radialGradient>
<linearGradient id="paint1_linear" x1="28.5232" y1="188.725" x2="37.9874" y2="188.423" gradientUnits="userSpaceOnUse">
<stop stop-color="#FF8759"/>
<stop offset="0.761905" stop-color="#AB1535"/>
<stop offset="0.816771" stop-color="#AD1836"/>
<stop offset="0.860048" stop-color="#B52239"/>
<stop offset="0.899377" stop-color="#C1333E"/>
<stop offset="0.936344" stop-color="#D24A46"/>
<stop offset="0.971346" stop-color="#E8684F"/>
<stop offset="1" stop-color="#FF8759"/>
</linearGradient>
<linearGradient id="paint2_linear" x1="28.5058" y1="188.186" x2="37.9701" y2="187.884" gradientUnits="userSpaceOnUse">
<stop stop-color="#FFD586"/>
<stop offset="0.761905" stop-color="#D15F5E"/>
<stop offset="0.816004" stop-color="#D2625F"/>
<stop offset="0.858677" stop-color="#D66C62"/>
<stop offset="0.89746" stop-color="#DD7D68"/>
<stop offset="0.933923" stop-color="#E69470"/>
<stop offset="0.968427" stop-color="#F1B27A"/>
<stop offset="1" stop-color="#FFD586"/>
</linearGradient>
<linearGradient id="paint3_linear" x1="40.5538" y1="186.681" x2="50.0175" y2="186.379" gradientUnits="userSpaceOnUse">
<stop stop-color="#FF8759"/>
<stop offset="0.761905" stop-color="#AB1535"/>
<stop offset="0.816771" stop-color="#AD1836"/>
<stop offset="0.860048" stop-color="#B52239"/>
<stop offset="0.899377" stop-color="#C1333E"/>
<stop offset="0.936344" stop-color="#D24A46"/>
<stop offset="0.971346" stop-color="#E8684F"/>
<stop offset="1" stop-color="#FF8759"/>
</linearGradient>
<linearGradient id="paint4_linear" x1="40.5355" y1="186.141" x2="50.0008" y2="185.839" gradientUnits="userSpaceOnUse">
<stop stop-color="#FFD586"/>
<stop offset="0.761905" stop-color="#D15F5E"/>
<stop offset="0.816004" stop-color="#D2625F"/>
<stop offset="0.858677" stop-color="#D66C62"/>
<stop offset="0.89746" stop-color="#DD7D68"/>
<stop offset="0.933923" stop-color="#E69470"/>
<stop offset="0.968427" stop-color="#F1B27A"/>
<stop offset="1" stop-color="#FFD586"/>
</linearGradient>
<linearGradient id="paint5_linear" x1="177.146" y1="187.47" x2="166.964" y2="187.227" gradientUnits="userSpaceOnUse">
<stop stop-color="#FF8759"/>
<stop offset="0.761905" stop-color="#AB1535"/>
<stop offset="0.816771" stop-color="#AD1836"/>
<stop offset="0.860048" stop-color="#B52239"/>
<stop offset="0.899377" stop-color="#C1333E"/>
<stop offset="0.936344" stop-color="#D24A46"/>
<stop offset="0.971346" stop-color="#E8684F"/>
<stop offset="1" stop-color="#FF8759"/>
</linearGradient>
<linearGradient id="paint6_linear" x1="177.159" y1="186.89" x2="166.978" y2="186.646" gradientUnits="userSpaceOnUse">
<stop stop-color="#FFD586"/>
<stop offset="0.761905" stop-color="#D15F5E"/>
<stop offset="0.816004" stop-color="#D2625F"/>
<stop offset="0.858677" stop-color="#D66C62"/>
<stop offset="0.89746" stop-color="#DD7D68"/>
<stop offset="0.933923" stop-color="#E69470"/>
<stop offset="0.968427" stop-color="#F1B27A"/>
<stop offset="1" stop-color="#FFD586"/>
</linearGradient>
<linearGradient id="paint7_linear" x1="169.365" y1="182.225" x2="156.204" y2="181.91" gradientUnits="userSpaceOnUse">
<stop stop-color="#FF8759"/>
<stop offset="0.761905" stop-color="#AB1535"/>
<stop offset="0.816771" stop-color="#AD1836"/>
<stop offset="0.860048" stop-color="#B52239"/>
<stop offset="0.899377" stop-color="#C1333E"/>
<stop offset="0.936344" stop-color="#D24A46"/>
<stop offset="0.971346" stop-color="#E8684F"/>
<stop offset="1" stop-color="#FF8759"/>
</linearGradient>
<linearGradient id="paint8_linear" x1="169.382" y1="181.475" x2="156.221" y2="181.16" gradientUnits="userSpaceOnUse">
<stop stop-color="#FFD586"/>
<stop offset="0.761905" stop-color="#D15F5E"/>
<stop offset="0.816004" stop-color="#D2625F"/>
<stop offset="0.858677" stop-color="#D66C62"/>
<stop offset="0.89746" stop-color="#DD7D68"/>
<stop offset="0.933923" stop-color="#E69470"/>
<stop offset="0.968427" stop-color="#F1B27A"/>
<stop offset="1" stop-color="#FFD586"/>
</linearGradient>
<linearGradient id="paint9_linear" x1="78.2147" y1="169.76" x2="157.936" y2="169.76" gradientUnits="userSpaceOnUse">
<stop stop-color="#FFB463"/>
<stop offset="0.761905" stop-color="#AB751C"/>
<stop offset="0.824057" stop-color="#AE771F"/>
<stop offset="0.873086" stop-color="#B87F27"/>
<stop offset="0.917631" stop-color="#C98B35"/>
<stop offset="0.959245" stop-color="#E09D49"/>
<stop offset="0.99893" stop-color="#FEB362"/>
<stop offset="1" stop-color="#FFB463"/>
</linearGradient>
<linearGradient id="paint10_linear" x1="65.5084" y1="185.437" x2="165.453" y2="185.437" gradientUnits="userSpaceOnUse">
<stop stop-color="#FFF7AA"/>
<stop offset="0.761905" stop-color="#EBAE8A"/>
<stop offset="0.827724" stop-color="#ECB18B"/>
<stop offset="0.879638" stop-color="#EFBB90"/>
<stop offset="0.926796" stop-color="#F3CC97"/>
<stop offset="0.970885" stop-color="#FAE3A1"/>
<stop offset="1" stop-color="#FFF7AA"/>
</linearGradient>
<linearGradient id="paint11_linear" x1="77.2467" y1="183.011" x2="156.667" y2="183.011" gradientUnits="userSpaceOnUse">
<stop stop-color="#FFF7AA"/>
<stop offset="0.761905" stop-color="#EBAE8A"/>
<stop offset="0.827724" stop-color="#ECB18B"/>
<stop offset="0.879638" stop-color="#EFBB90"/>
<stop offset="0.926796" stop-color="#F3CC97"/>
<stop offset="0.970885" stop-color="#FAE3A1"/>
<stop offset="1" stop-color="#FFF7AA"/>
</linearGradient>
<linearGradient id="paint12_linear" x1="65.5084" y1="201.801" x2="165.453" y2="201.801" gradientUnits="userSpaceOnUse">
<stop stop-color="#FFB463"/>
<stop offset="0.761905" stop-color="#AB321C"/>
<stop offset="0.813906" stop-color="#AD351E"/>
<stop offset="0.854928" stop-color="#B33F23"/>
<stop offset="0.892198" stop-color="#BE502C"/>
<stop offset="0.927238" stop-color="#CD6739"/>
<stop offset="0.960733" stop-color="#E1864A"/>
<stop offset="0.992642" stop-color="#F9AA5E"/>
<stop offset="1" stop-color="#FFB463"/>
</linearGradient>
<linearGradient id="paint13_linear" x1="67.8519" y1="179.909" x2="162.304" y2="179.909" gradientUnits="userSpaceOnUse">
<stop stop-color="#FFCE7D"/>
<stop offset="0.761905" stop-color="#C55B34"/>
</linearGradient>
<linearGradient id="paint14_linear" x1="53.342" y1="143.394" x2="85.9316" y2="143.394" gradientUnits="userSpaceOnUse">
<stop stop-color="#FFD586"/>
<stop offset="0.761905" stop-color="#D15F5E"/>
<stop offset="0.816004" stop-color="#D2625F"/>
<stop offset="0.858677" stop-color="#D66C62"/>
<stop offset="0.89746" stop-color="#DD7D68"/>
<stop offset="0.933923" stop-color="#E69470"/>
<stop offset="0.968427" stop-color="#F1B27A"/>
<stop offset="1" stop-color="#FFD586"/>
</linearGradient>
<linearGradient id="paint15_linear" x1="44.2549" y1="181.98" x2="95.0185" y2="181.98" gradientUnits="userSpaceOnUse">
<stop stop-color="#FFB463"/>
<stop offset="0.761905" stop-color="#AB751C"/>
<stop offset="0.824057" stop-color="#AE771F"/>
<stop offset="0.873086" stop-color="#B87F27"/>
<stop offset="0.917631" stop-color="#C98B35"/>
<stop offset="0.959245" stop-color="#E09D49"/>
<stop offset="0.99893" stop-color="#FEB362"/>
<stop offset="1" stop-color="#FFB463"/>
</linearGradient>
<linearGradient id="paint16_linear" x1="33.2609" y1="191.537" x2="106.013" y2="191.537" gradientUnits="userSpaceOnUse">
<stop stop-color="#FFEC90"/>
<stop offset="0.761905" stop-color="#D18166"/>
<stop offset="0.818209" stop-color="#D28467"/>
<stop offset="0.862618" stop-color="#D78E6B"/>
<stop offset="0.90297" stop-color="#DE9F72"/>
<stop offset="0.940919" stop-color="#E8B67B"/>
<stop offset="0.976852" stop-color="#F5D487"/>
<stop offset="1" stop-color="#FFEC90"/>
</linearGradient>
<linearGradient id="paint17_linear" x1="54.7369" y1="155.34" x2="93.9435" y2="155.34" gradientUnits="userSpaceOnUse">
<stop stop-color="#FFB463"/>
<stop offset="0.761905" stop-color="#AB751C"/>
<stop offset="0.824057" stop-color="#AE771F"/>
<stop offset="0.873086" stop-color="#B87F27"/>
<stop offset="0.917631" stop-color="#C98B35"/>
<stop offset="0.959245" stop-color="#E09D49"/>
<stop offset="0.99893" stop-color="#FEB362"/>
<stop offset="1" stop-color="#FFB463"/>
</linearGradient>
<linearGradient id="paint18_linear" x1="57.0078" y1="147.933" x2="91.7943" y2="147.933" gradientUnits="userSpaceOnUse">
<stop stop-color="#FFEC90"/>
<stop offset="0.761905" stop-color="#D18166"/>
<stop offset="0.818209" stop-color="#D28467"/>
<stop offset="0.862618" stop-color="#D78E6B"/>
<stop offset="0.90297" stop-color="#DE9F72"/>
<stop offset="0.940919" stop-color="#E8B67B"/>
<stop offset="0.976852" stop-color="#F5D487"/>
<stop offset="1" stop-color="#FFEC90"/>
</linearGradient>
<linearGradient id="paint19_linear" x1="49.674" y1="161.711" x2="89.5999" y2="161.711" gradientUnits="userSpaceOnUse">
<stop stop-color="#FFB463"/>
<stop offset="0.761905" stop-color="#AB751C"/>
<stop offset="0.824057" stop-color="#AE771F"/>
<stop offset="0.873086" stop-color="#B87F27"/>
<stop offset="0.917631" stop-color="#C98B35"/>
<stop offset="0.959245" stop-color="#E09D49"/>
<stop offset="0.99893" stop-color="#FEB362"/>
<stop offset="1" stop-color="#FFB463"/>
</linearGradient>
<linearGradient id="paint20_linear" x1="46.1681" y1="168.64" x2="93.1057" y2="168.64" gradientUnits="userSpaceOnUse">
<stop stop-color="#FFB463"/>
<stop offset="0.761905" stop-color="#AB751C"/>
<stop offset="0.824057" stop-color="#AE771F"/>
<stop offset="0.873086" stop-color="#B87F27"/>
<stop offset="0.917631" stop-color="#C98B35"/>
<stop offset="0.959245" stop-color="#E09D49"/>
<stop offset="0.99893" stop-color="#FEB362"/>
<stop offset="1" stop-color="#FFB463"/>
</linearGradient>
<linearGradient id="paint21_linear" x1="48.6384" y1="172.383" x2="90.6354" y2="172.383" gradientUnits="userSpaceOnUse">
<stop stop-color="#FFB463"/>
<stop offset="0.761905" stop-color="#AB751C"/>
<stop offset="0.824057" stop-color="#AE771F"/>
<stop offset="0.873086" stop-color="#B87F27"/>
<stop offset="0.917631" stop-color="#C98B35"/>
<stop offset="0.959245" stop-color="#E09D49"/>
<stop offset="0.99893" stop-color="#FEB362"/>
<stop offset="1" stop-color="#FFB463"/>
</linearGradient>
<linearGradient id="paint22_linear" x1="50.5507" y1="176.685" x2="88.7232" y2="176.685" gradientUnits="userSpaceOnUse">
<stop stop-color="#FFB463"/>
<stop offset="0.761905" stop-color="#AB751C"/>
<stop offset="0.824057" stop-color="#AE771F"/>
<stop offset="0.873086" stop-color="#B87F27"/>
<stop offset="0.917631" stop-color="#C98B35"/>
<stop offset="0.959245" stop-color="#E09D49"/>
<stop offset="0.99893" stop-color="#FEB362"/>
<stop offset="1" stop-color="#FFB463"/>
</linearGradient>
<linearGradient id="paint23_linear" x1="41.8646" y1="165.097" x2="97.4091" y2="165.097" gradientUnits="userSpaceOnUse">
<stop stop-color="#FFEC90"/>
<stop offset="0.761905" stop-color="#D18166"/>
<stop offset="0.818209" stop-color="#D28467"/>
<stop offset="0.862618" stop-color="#D78E6B"/>
<stop offset="0.90297" stop-color="#DE9F72"/>
<stop offset="0.940919" stop-color="#E8B67B"/>
<stop offset="0.976852" stop-color="#F5D487"/>
<stop offset="1" stop-color="#FFEC90"/>
</linearGradient>
<linearGradient id="paint24_linear" x1="19.2335" y1="201.094" x2="120.04" y2="201.094" gradientUnits="userSpaceOnUse">
<stop stop-color="#FFB463"/>
<stop offset="0.761905" stop-color="#AB321C"/>
<stop offset="0.813906" stop-color="#AD351E"/>
<stop offset="0.854928" stop-color="#B33F23"/>
<stop offset="0.892198" stop-color="#BE502C"/>
<stop offset="0.927238" stop-color="#CD6739"/>
<stop offset="0.960733" stop-color="#E1864A"/>
<stop offset="0.992642" stop-color="#F9AA5E"/>
<stop offset="1" stop-color="#FFB463"/>
</linearGradient>
</defs>
</svg>
