<svg width="157" height="117" viewBox="0 0 157 117" fill="none" xmlns="http://www.w3.org/2000/svg">
<path opacity="0.3" d="M156.582 110.51C156.582 113.58 121.53 116.069 78.2914 116.069C35.0522 116.069 0 113.58 0 110.51C0 107.439 35.0522 104.95 78.2914 104.95C121.53 104.95 156.582 107.439 156.582 110.51Z" fill="black"/>
<path d="M143.027 96.4595C144.531 96.0969 145.306 94.2014 144.826 92.7244C144.345 91.2479 142.932 90.2343 141.446 89.8024C142.234 88.6009 143.059 87.2459 142.826 85.8266C142.612 84.5155 140.938 83.506 139.921 84.1943C141.102 83.1906 141.932 81.6302 141.53 80.1448C141.143 78.7087 139.234 77.8318 138.057 78.5802C139.184 77.5484 139.307 75.5223 138.193 74.4381C136.971 73.2489 134.653 73.5743 133.804 75.056C134.432 74.0762 134.938 73.0183 135.307 71.9131C135.472 71.4179 135.599 70.8325 135.298 70.4046C134.841 69.7523 133.828 69.9879 133.127 70.3652C130.855 71.5869 129.02 73.6084 128.018 75.9914L127.484 108.876C127.644 109.634 128.473 110.062 129.24 110.151C130.006 110.239 130.792 110.1 131.551 110.238C132.165 110.35 132.731 110.638 133.287 110.923C134.859 111.727 136.55 112.556 138.303 112.35C140.056 112.145 141.738 110.412 141.201 108.724C143.568 107.319 144.066 103.565 142.146 101.585C143.175 100.933 144.271 100.194 144.664 99.0385C145.056 97.8835 144.231 96.2934 143.027 96.4595Z" fill="#79A958"/>
<path d="M3.9181 110.745C4.88761 110.745 153.195 110.745 153.195 110.745C152.926 109.885 153.621 108.749 152.81 108.363C150.042 107.043 147.121 106.049 144.126 105.406C143.521 105.276 142.888 105.149 142.4 104.767C141.874 104.355 141.597 103.71 141.244 103.142C138.549 98.8106 135.466 101.167 131.907 101.63C127.332 102.226 120.909 99.7266 116.299 99.0392C105.758 97.4664 95.1356 96.4426 84.4893 95.9731C74.5041 95.5336 64.0195 95.4573 55.2915 90.5674C49.8879 87.5391 50.1275 84.9803 48.9693 79.183C47.8496 73.5807 46.6425 67.9923 45.1483 62.4779C42.2003 51.5941 38.1131 40.8951 31.6111 31.6193C30.1472 29.5315 22.1379 15.8378 19.3535 21.1817C18.7969 22.2496 18.7851 23.5091 18.7861 24.715C18.7903 30.3625 18.795 36.0099 18.7995 41.6579C18.8002 43.2671 18.7995 44.8924 18.4276 46.4573C18.0199 48.1691 17.1693 49.8212 17.2694 51.5781C17.3536 53.0604 18.1166 54.4807 17.9645 55.9564C17.8898 56.6853 17.5945 57.3696 17.3964 58.0749C16.6647 60.6681 17.2407 63.4246 17.676 66.0831C18.7252 72.5012 18.9218 79.0594 18.2588 85.5284C17.0005 85.1212 15.6011 86.0453 15.0999 87.2736C14.5984 88.501 14.8056 89.9077 15.2196 91.1685C15.5298 92.1173 15.9069 93.2931 15.2052 94.0005C14.8603 94.3484 14.3491 94.457 13.9174 94.6877C11.982 95.7249 12.3001 98.5645 12.8972 100.684C11.4576 99.9087 9.99572 101.725 9.51383 103.292C9.033 104.86 8.33343 106.856 6.70068 106.898C5.97446 106.916 5.1343 106.523 4.58944 107.005C4.06915 107.466 4.29885 108.298 4.40599 108.986C4.51418 109.674 4.13343 110.641 3.46313 110.46" fill="#30993A"/>
<path d="M20.1494 61.1474C19.4148 62.2441 21.1074 110.745 21.1074 110.745H134.778C134.778 110.745 134.376 58.5478 133.572 59.2537C132.768 59.96 20.1494 61.1474 20.1494 61.1474Z" fill="#DDBA64"/>
<path d="M57.3257 71.1719H25.1467V95.2568H57.3257V71.1719Z" fill="#E5C689"/>
<path d="M55.3014 74.0205H27.1851V95.2566H55.3014V74.0205Z" fill="#3D7E9B"/>
<path d="M58.2399 96.354H24.3435V92.7884L58.2399 91.6191V96.354Z" fill="#F9E1AA"/>
<path d="M51.6664 80.3935C52.8732 80.4431 54.0871 80.5194 55.3014 80.6099V74.0205H27.1851V81.6238C35.3112 80.6044 43.4977 80.0597 51.6664 80.3935Z" fill="#206F94"/>
<path d="M129.615 71.1719H97.436V95.2568H129.615V71.1719Z" fill="#E5C689"/>
<path d="M127.591 74.0205H99.4744V95.2566H127.591V74.0205Z" fill="#3D7E9B"/>
<path d="M130.529 96.354H96.6326V91.6191L130.529 92.7884V96.354Z" fill="#F9E1AA"/>
<path d="M127.591 80.6842V74.0205H99.4744V80.7989C108.831 80.2124 118.211 80.2796 127.591 80.6842Z" fill="#206F94"/>
<path d="M65.9395 110.509C66.1506 98.2411 66.0322 85.9707 65.5977 73.7034C74.0293 72.8317 82.4865 72.2104 90.9563 71.8677C90.4033 84.6377 90.6275 97.449 91.6143 110.206C83.1173 110.338 74.5156 110.43 65.9395 110.509Z" fill="#534635"/>
<path d="M86.3113 108.484C86.2985 108.484 86.2899 108.309 86.2849 107.975C86.2839 107.63 86.2826 107.14 86.2808 106.514C86.2852 105.246 86.3035 103.412 86.3341 101.145C86.3952 96.611 86.505 90.348 86.649 83.4305C86.7093 80.6838 86.7673 78.0405 86.822 75.5675C86.8828 75.6276 86.9432 75.6871 87.0033 75.7464C84.5252 75.8876 82.219 76.019 80.1522 76.1369C79.6358 76.1652 79.1343 76.1927 78.6488 76.2195C78.1638 76.251 77.6963 76.3074 77.2449 76.347C76.3439 76.4323 75.5108 76.5113 74.7537 76.5827C73.2417 76.7236 72.0386 76.8306 71.2128 76.8975C70.808 76.9272 70.4918 76.9503 70.266 76.9665C70.0507 76.9791 69.9381 76.9807 69.937 76.9705C69.936 76.9602 70.0465 76.9387 70.26 76.907C70.4845 76.8768 70.7986 76.8348 71.201 76.781C72.0229 76.6776 73.2224 76.5367 74.7315 76.3654C75.487 76.2806 76.3188 76.1878 77.2183 76.087C77.6691 76.0403 78.1353 75.9778 78.6206 75.9401C79.1064 75.9075 79.6084 75.8742 80.1255 75.8396C82.1963 75.7057 84.5069 75.5564 86.9897 75.3959L87.175 75.3838L87.1711 75.5748C87.1227 78.0481 87.0707 80.6914 87.0166 83.4384C86.8727 90.3556 86.7219 96.6178 86.5941 101.15C86.5303 103.416 86.4723 105.25 86.424 106.517C86.396 107.142 86.3743 107.632 86.3589 107.976C86.3401 108.31 86.3241 108.485 86.3113 108.484Z" fill="#362A18"/>
<path d="M76.9822 109.007C76.9569 109.007 76.9346 108.585 76.9166 107.823C76.8986 107.06 76.8842 105.957 76.8745 104.593C76.8283 101.865 76.9163 98.0972 77.007 93.9357C77.1777 89.776 77.3258 86.0091 77.543 83.2915C77.6381 81.9313 77.7215 80.8311 77.7873 80.0712C77.8535 79.3113 77.9018 78.8917 77.9272 78.8933C77.9525 78.8949 77.9525 79.3171 77.9305 80.0796C77.9086 80.8421 77.8647 81.9447 77.8028 83.3065C77.652 86.0301 77.5451 89.793 77.3747 93.9472C77.2843 98.1051 77.1549 101.869 77.1348 104.595C77.1113 105.957 77.0857 107.06 77.0598 107.822C77.0339 108.585 77.0076 109.007 76.9822 109.007Z" fill="#362A18"/>
<path d="M71.8477 109.007C71.8223 109.007 71.8001 108.585 71.7821 107.823C71.764 107.06 71.7499 105.957 71.7403 104.593C71.694 101.865 71.7821 98.0972 71.8728 93.9357C72.0431 89.776 72.1916 86.0094 72.4087 83.2915C72.5038 81.9313 72.587 80.8311 72.6531 80.0712C72.7189 79.3113 72.7673 78.8917 72.7926 78.8933C72.818 78.8949 72.818 79.3171 72.796 80.0796C72.7741 80.8421 72.7302 81.9447 72.6682 83.3065C72.5177 86.0301 72.4108 89.793 72.2404 93.9472C72.15 98.1051 72.0207 101.869 72.0003 104.595C71.9768 105.957 71.9511 107.06 71.9253 107.822C71.8994 108.585 71.873 109.007 71.8477 109.007Z" fill="#362A18"/>
<path d="M82.3681 107.967C82.3428 107.968 82.3015 107.559 82.2487 106.818C82.1959 106.077 82.1314 105.004 82.0595 103.678C81.9158 101.025 81.7428 97.3589 81.5742 93.3084C81.4697 89.2573 81.3955 85.5888 81.3602 82.9332C81.3427 81.6052 81.3346 80.5304 81.3375 79.7874C81.3404 79.0443 81.3539 78.6334 81.3793 78.6326C81.4046 78.6318 81.4394 79.0419 81.4807 79.7837C81.5217 80.5255 81.5693 81.5992 81.6202 82.9263C81.7222 85.5804 81.8374 89.2476 81.9422 93.2989C82.1105 97.3468 82.2424 101.012 82.3195 103.667C82.358 104.994 82.3828 106.068 82.3917 106.811C82.4005 107.554 82.3935 107.966 82.3681 107.967Z" fill="#362A18"/>
<path opacity="0.2" d="M24.3438 96.3538L58.7486 99.7439L58.2401 96.3538H24.3438Z" fill="black"/>
<path opacity="0.3" d="M96.6328 96.3538L130.529 98.7948L130.135 96.3538H96.6328Z" fill="black"/>
<path opacity="0.2" d="M133.028 55.5144H124.804V58.4758H133.028V55.5144Z" fill="black"/>
<path opacity="0.2" d="M128.916 50.6956H120.692V53.6569H128.916V50.6956Z" fill="black"/>
<path opacity="0.2" d="M101.749 66.2803H93.5251V69.2414H101.749V66.2803Z" fill="black"/>
<path opacity="0.2" d="M101.749 42.1792H93.5251V45.1405H101.749V42.1792Z" fill="black"/>
<path opacity="0.2" d="M96.928 45.9702H88.7041V48.9316H96.928V45.9702Z" fill="black"/>
<path opacity="0.2" d="M133.028 100.526H124.804V103.487H133.028V100.526Z" fill="black"/>
<path opacity="0.2" d="M129.29 105.006H121.066V107.967H129.29V105.006Z" fill="black"/>
<path opacity="0.2" d="M111.862 102.007H103.638V104.968H111.862V102.007Z" fill="black"/>
<path opacity="0.2" d="M50.1284 106.486H41.9045V109.447H50.1284V106.486Z" fill="black"/>
<path opacity="0.2" d="M37.647 102.007H29.4231V104.968H37.647V102.007Z" fill="black"/>
<path opacity="0.2" d="M61.4363 39.8853H53.2124V42.8466H61.4363V39.8853Z" fill="black"/>
<path opacity="0.2" d="M29.2581 40.699H21.0342V43.6603H29.2581V40.699Z" fill="black"/>
<path d="M143.861 107.771C144.14 107.694 144.424 107.633 144.702 107.55C146.137 107.123 147.621 106.554 148.558 105.383C148.862 105.004 149.103 104.556 149.138 104.071C149.253 102.5 147.331 101.63 145.765 101.533C143.344 101.383 140.896 101.996 138.793 103.206C140.331 101.886 141.662 100.325 142.705 98.5848C142.874 98.3037 143.031 97.9283 142.826 97.6729C142.638 97.436 142.273 97.4756 141.98 97.5486C138.488 98.405 135.348 100.629 133.374 103.645C135.263 101.125 136.929 98.4362 138.344 95.62C138.771 94.7693 139.178 93.7573 138.765 92.9008C135.546 94.2529 132.891 96.9023 131.52 100.125C132.508 97.9873 133.172 95.7008 133.486 93.3671C133.58 92.6592 133.639 91.9177 133.382 91.252C133.124 90.5873 132.459 90.0298 131.756 90.124C131.229 90.1953 130.811 90.5952 130.455 90.9922C127.461 94.3351 126.014 99.0216 126.598 103.479L126.737 109.953C127.561 110.603 128.682 110.682 129.728 110.734C136.25 111.06 143.043 111.339 149.034 108.728C147.374 108.059 145.634 107.79 143.861 107.771Z" fill="#579326"/>
<path d="M102.143 108.569C101.943 107.917 101.209 107.385 100.584 107.654C101.261 106.97 101.983 106.183 101.99 105.219C101.998 104.257 100.771 103.357 100.066 104.011C100.378 103.456 100.641 102.827 100.545 102.197C100.447 101.565 99.8622 100.978 99.2373 101.091C100.332 100.129 100.111 98.0774 98.8367 97.3721C99.2528 96.6901 99.4765 95.8911 99.4788 95.0911C99.4796 94.7248 99.4101 94.3139 99.1158 94.099C98.8872 93.9321 98.5124 94.0135 98.3763 94.2265C98.5621 93.3821 98.2859 92.442 97.6519 91.8516C97.4002 91.6181 97.0804 91.4326 96.737 91.4331C96.108 91.4363 95.6339 92.0786 95.584 92.7073C95.5336 93.336 95.7931 93.9426 96.0466 94.5199C94.9216 94.321 93.9139 95.4482 93.7921 96.5886C93.6693 97.7294 94.1669 98.8349 94.6527 99.8732C94.4669 99.42 93.8094 99.3324 93.4012 99.5998C92.9927 99.8671 92.7939 100.361 92.6836 100.837C92.3086 102.452 92.7071 104.229 93.7346 105.525C93.1425 104.889 91.9728 105.582 91.8779 106.448C91.7831 107.314 92.3366 108.102 92.8616 108.796C92.5595 108.197 91.5659 108.317 91.2123 108.887C90.8585 109.458 90.9994 110.21 91.2926 110.814C91.585 111.418 92.0167 111.953 92.2537 112.58L101.309 111.836C101.672 111.52 101.833 111.037 101.969 110.575C102.164 109.922 102.344 109.22 102.143 108.569Z" fill="#579326"/>
<path d="M14.3809 106.698C14.1483 105.944 13.299 105.329 12.5761 105.639C13.3588 104.849 14.1935 103.938 14.2029 102.823C14.211 101.709 12.793 100.668 11.9767 101.424C12.3389 100.782 12.6428 100.054 12.5302 99.3254C12.418 98.5957 11.7404 97.9151 11.0179 98.047C12.2848 96.934 12.0287 94.5599 10.5548 93.7436C11.0351 92.9538 11.2949 92.0299 11.297 91.1039C11.298 90.6807 11.2186 90.2065 10.8775 89.9565C10.6133 89.7626 10.1793 89.8573 10.0214 90.1042C10.2373 89.1257 9.91717 88.0394 9.18364 87.3575C8.892 87.0859 8.52197 86.8707 8.12501 86.8723C7.39775 86.8752 6.84845 87.6191 6.79043 88.3459C6.7332 89.0733 7.03268 89.7759 7.32693 90.4432C6.02475 90.2136 4.85846 91.5177 4.71761 92.8367C4.57571 94.1574 5.15141 95.4352 5.71273 96.6377C5.49923 96.1135 4.73799 96.0122 4.265 96.321C3.79278 96.6306 3.56282 97.2019 3.43529 97.7532C3.00149 99.6211 3.46221 101.677 4.65019 103.177C3.96552 102.441 2.6129 103.243 2.50341 104.245C2.39339 105.247 3.03337 106.158 3.64095 106.96C3.2913 106.267 2.14148 106.408 1.73276 107.067C1.32301 107.726 1.48607 108.598 1.82553 109.297C2.16499 109.995 2.66334 110.613 2.93721 111.34L13.415 110.477C13.8347 110.114 14.0213 109.554 14.1794 109.02C14.4041 108.264 14.6124 107.452 14.3809 106.698Z" fill="#79A958"/>
<path d="M38.8908 105.713C38.6028 105.208 37.8669 105.227 37.3192 105.417C37.0113 105.523 36.7205 105.673 36.4445 105.844C36.7644 105.16 37.0058 104.441 37.1543 103.7C37.2721 103.113 37.2457 102.346 36.698 102.105C36.3089 101.935 35.8633 102.138 35.5037 102.365C34.696 102.877 34.0001 103.549 33.4194 104.311C34.5865 102.137 35.319 99.7278 35.5317 97.266C33.5401 98.0532 31.9879 99.8136 31.3542 101.859C32.0778 98.4321 32.636 94.9037 31.7597 91.5401C29.0046 93.945 27.6086 97.8236 28.1958 101.442C27.1403 98.2151 27.1037 94.64 25.4767 91.6635C25.3458 91.4242 25.1935 91.1791 24.9538 91.0508C24.5208 90.8199 23.9563 91.0776 23.6869 91.4882C23.4185 91.8996 23.3731 92.415 23.3545 92.9067C23.2442 95.7326 23.7475 98.5812 24.8182 101.197C23.8296 99.4163 22.8415 97.6342 21.8535 95.8523C21.1751 94.6293 20.366 93.2976 19.0246 92.9146C18.5856 93.9124 18.9042 95.0667 19.2489 96.1005C20.117 98.7029 21.1246 101.258 22.2669 103.752C21.1769 101.584 19.7255 99.5998 17.9932 97.9055C17.6621 97.5812 17.2016 97.2448 16.7796 97.4327C16.2766 97.6565 16.3142 98.3788 16.4569 98.9128C17.1682 101.575 18.4137 104.09 20.0921 106.271C18.4753 104.356 16.5739 102.606 14.1666 102.064C13.8745 101.998 13.5149 101.975 13.3335 102.213C13.1456 102.461 13.2807 102.815 13.4245 103.092C15.0355 106.196 17.0671 109.081 19.4438 111.642L36.0755 112.138C37.6267 110.69 38.6665 108.701 38.9733 106.597C39.0162 106.298 39.041 105.974 38.8908 105.713Z" fill="#579326"/>
<path d="M53.4907 106.002C52.5975 105.222 51.0481 105.259 50.3253 106.201C50.5992 105.756 50.8801 105.292 50.9412 104.774C51.0024 104.254 50.7766 103.662 50.2932 103.469C50.0206 103.36 49.7143 103.392 49.425 103.435C48.2956 103.604 47.1897 103.927 46.147 104.393C46.2928 103.252 45.4487 102.073 44.3263 101.847C43.2029 101.622 41.9726 102.385 41.6695 103.494C41.3961 102.287 40.0142 101.464 38.8294 101.8C37.6435 102.135 36.8951 103.563 37.2907 104.735C36.5935 104.195 35.7507 103.786 34.8703 103.808C33.9894 103.83 33.0873 104.371 32.8388 105.22C32.6676 105.808 32.9211 106.485 33.3829 106.855C32.4797 106.548 31.523 106.4 30.5713 106.438C31.0929 109.224 33.167 111.663 35.826 112.615L51.754 111.737C52.8317 111.245 53.7876 110.393 54.1994 109.279C54.611 108.164 54.3831 106.783 53.4907 106.002Z" fill="#79A958"/>
<path d="M14.4915 59.0857L48.409 23.5351L54.7111 25.9152L76.153 0.643799L86.7748 3.14229L91.3754 1.78231L108.593 29.4323L114.583 27.1164L137.807 59.0857H14.4915Z" fill="#C69540"/>
<path d="M108.583 29.4358L94.0879 21.9291L91.4911 29.8653L81.9065 21.3796L80.8142 27.1131L76.9354 19.3503L59.5774 34.7495L57.9578 36.1879L56.5257 35.0775L48.7257 28.9764L35.2056 37.3697L48.4014 23.5425L54.7111 25.9111L73.2311 4.08488L76.1417 0.649658L79.5753 1.46386L85.8421 2.93089L86.7713 3.15418L89.6624 2.2938L91.3717 1.77479L92.7429 3.96655L95.516 8.42405L108.583 29.4358Z" fill="#EBB24D"/>
<path d="M94.4488 11.1052C93.9016 12.4958 96.3803 14.5252 94.5515 15.5472C92.0595 17.0273 91.0414 8.05381 87.5308 9.16609C84.9664 9.81603 86.9838 14.9983 87.3562 16.4781C88.0038 19.1595 85.1428 20.7273 83.8456 17.6775C83.0177 15.5472 83.5796 12.9555 82.1914 11.0159C81.5436 9.99367 80.2634 9.44632 78.9625 9.72682C77.4881 10.081 77.6802 10.7357 77.7711 12.0382C77.8566 13.236 77.6041 14.3229 75.8491 14.1305C74.652 14.0405 74.0956 12.8965 74.5404 11.8454C74.7547 11.3345 74.9088 9.62344 74.5404 9.16609C73.4329 7.96407 71.8715 9.99367 71.3112 10.7357C69.9395 12.5853 69.2917 15.4577 66.34 14.3478C65.8082 14.1397 65.4131 13.8726 65.1604 13.5771L67.2706 11.0884L73.2123 4.08488L76.1151 0.649658L79.5531 1.46386L85.8212 2.93089L86.7481 3.15418L89.6394 2.2938L91.3524 1.77479L92.7207 3.96654L95.4936 8.42405L96.8938 10.6725C95.9684 10.081 94.9942 9.91889 94.4488 11.1052Z" fill="#F86E1D"/>
<path d="M48.4015 23.55L51.9119 45.4395L48.1015 44.2687L41.5271 59.0857H69.425L62.0491 43.1591L54.7112 25.9189L48.4015 23.55Z" fill="#070707" fill-opacity="0.25"/>
<path d="M86.7712 3.1464L95.3547 19.0184L89.9432 18.4176L102.236 45.8112L108.582 44.6995L120.669 59.0856H137.807L115.628 40.6313L114.583 27.1164L108.582 29.4432L91.3752 1.78223L86.7712 3.1464Z" fill="#070707" fill-opacity="0.25"/>
<path d="M139.361 56.5852H13.2556V61.5919H139.361V56.5852Z" fill="#B3C543"/>
<path d="M30.2315 18.908H27.9438V26.3733H30.2315V18.908Z" fill="#A5A5A5"/>
<path d="M34.2347 15.019H32.176V26.3732H34.2347V15.019Z" fill="#A5A5A5"/>
<path d="M21.5374 52.572L25.7763 26.77H36.1888C36.1888 26.77 38.7714 55.0988 38.9235 54.3332C39.0764 53.5675 21.5374 52.572 21.5374 52.572Z" fill="#DDBA64"/>
<path d="M37.4005 23.9612H24.3513V28.785H37.4005V23.9612Z" fill="#AF3E28"/>
<path d="M105.166 46.9947L107.484 49.2453L123.894 33.5194L143.794 50.0975L145.95 46.9947L125.095 22.6406L105.166 46.9947Z" fill="#C6402E"/>
<path d="M139.593 57.0731L141.681 46.6577L125.178 27.04L108.674 46.4024L109.752 57.0731H139.593Z" fill="#DDBA64"/>
<path d="M126.664 28.8065L125.178 27.04L108.674 46.4024L108.834 47.9849C114.697 41.519 120.665 35.1482 126.664 28.8065Z" fill="#BC9848"/>
<path opacity="0.2" d="M19.9648 61.592L19.9729 69.4462L134.239 77.4095L133.96 61.592H19.9648Z" fill="black"/>
<path d="M70.3562 56.5853L85.1312 46.2117L95.0845 53.0454L103.638 50.0977L122.648 57.0731L70.3562 56.5853Z" fill="#916D2F"/>
</svg>
