<svg width="221" height="171" viewBox="0 0 221 171" fill="none" xmlns="http://www.w3.org/2000/svg">
<path opacity="0.3" d="M220.634 164.358C220.634 167.979 171.244 170.915 110.317 170.915C49.3908 170.915 0 167.979 0 164.358C0 160.736 49.3908 157.8 110.317 157.8C171.244 157.8 220.634 160.736 220.634 164.358Z" fill="black"/>
<path d="M31.1586 155.545C30.7172 154.114 29.1043 152.946 27.7326 153.535C29.218 152.035 30.8029 150.305 30.8207 148.189C30.8356 146.074 28.1439 144.098 26.5943 145.533C27.2816 144.314 27.8586 142.932 27.6451 141.548C27.4321 140.163 26.1461 138.871 24.7739 139.122C27.1789 137.008 26.6928 132.501 23.8951 130.952C24.8068 129.452 25.2997 127.698 25.3039 125.941C25.3057 125.137 25.1552 124.237 24.5073 123.762C24.0059 123.394 23.1816 123.574 22.8822 124.042C23.2917 122.185 22.6846 120.123 21.2915 118.828C20.7377 118.313 20.0356 117.904 19.2819 117.907C17.9013 117.912 16.8584 119.324 16.7481 120.704C16.6396 122.086 17.2083 123.419 17.767 124.686C15.2944 124.25 13.0804 126.726 12.8131 129.23C12.5439 131.737 13.6365 134.163 14.7025 136.446C14.2971 135.451 12.8518 135.258 11.9541 135.844C11.0575 136.432 10.6211 137.517 10.3788 138.563C9.55515 142.11 10.4301 146.013 12.6853 148.861C11.3855 147.462 8.81743 148.987 8.60968 150.888C8.40114 152.789 9.61552 154.52 10.769 156.043C10.105 154.727 7.9224 154.994 7.14679 156.246C6.36857 157.497 6.67797 159.152 7.3224 160.479C7.96708 161.805 8.91334 162.978 9.43311 164.357L29.3248 162.719C30.1214 162.03 30.4757 160.967 30.7757 159.953C31.2025 158.519 31.5978 156.977 31.1586 155.545Z" fill="#79A958"/>
<path d="M214.891 155.545C214.45 154.114 212.837 152.946 211.465 153.535C212.95 152.035 214.535 150.305 214.553 148.189C214.568 146.074 211.876 144.098 210.327 145.533C211.014 144.314 211.591 142.932 211.377 141.548C211.164 140.163 209.878 138.871 208.506 139.122C210.911 137.008 210.425 132.501 207.627 130.952C208.539 129.452 209.032 127.698 209.036 125.941C209.038 125.137 208.888 124.237 208.24 123.762C207.738 123.394 206.914 123.574 206.615 124.042C207.024 122.185 206.417 120.123 205.024 118.828C204.47 118.313 203.768 117.904 203.014 117.907C201.634 117.912 200.591 119.324 200.48 120.704C200.372 122.086 200.941 123.419 201.499 124.686C199.027 124.25 196.813 126.726 196.545 129.23C196.276 131.737 197.369 134.163 198.435 136.446C198.029 135.451 196.584 135.258 195.686 135.844C194.79 136.432 194.353 137.517 194.111 138.563C193.287 142.11 194.162 146.013 196.417 148.861C195.118 147.462 192.55 148.987 192.342 150.888C192.133 152.789 193.348 154.52 194.501 156.043C193.838 154.727 191.655 154.994 190.879 156.246C190.101 157.497 190.411 159.152 191.055 160.479C191.699 161.805 192.645 162.978 193.165 164.357L213.057 162.719C213.854 162.03 214.208 160.967 214.508 159.953C214.935 158.519 215.33 156.977 214.891 155.545Z" fill="#79A958"/>
<path d="M202.425 48.4429H19.3098V148.069H202.425V48.4429Z" fill="#EAE0CF"/>
<path d="M25.9984 50.1382H19.3098V145.199H25.9984V50.1382Z" fill="#D3CDAA"/>
<path d="M59.3356 50.1382H52.647V145.199H59.3356V50.1382Z" fill="#D3CDAA"/>
<path d="M168.888 50.1382H162.199V145.199H168.888V50.1382Z" fill="#D3CDAA"/>
<path d="M27.2974 145.199H18.0115V146.243H27.2974V145.199Z" fill="#BEB7A2"/>
<path d="M202.621 50.1382H195.932V145.199H202.621V50.1382Z" fill="#D3CDAA"/>
<path d="M203.92 145.199H194.634V146.243H203.92V145.199Z" fill="#BEB7A2"/>
<path d="M202.751 40.8801H19.3098V48.4428H202.751V40.8801Z" fill="#BEB7A2"/>
<path d="M166.069 40.8801H55.9912V48.4428H166.069V40.8801Z" fill="#D4CBB4"/>
<path d="M168.464 46.3569H53.5959V50.1383H168.464V46.3569Z" fill="#D4CBB4"/>
<path d="M204.374 48.4429H17.3623V50.1382H204.374V48.4429Z" fill="#BEB7A2"/>
<path d="M46.9073 60.8665H30.9341V86.088H46.9073V60.8665Z" fill="#FFFAE9"/>
<path d="M45.7171 62.3132H32.2498V86.088H45.7171V62.3132Z" fill="#6C6E75"/>
<path d="M44.2145 63.8225H33.7527V75.8975H44.2145V63.8225Z" fill="#7297C1"/>
<path d="M44.2145 77.9111H33.7527V84.6409H44.2145V77.9111Z" fill="#7297C1"/>
<path d="M46.9073 87.4077H30.9341V89.1691H46.9073V87.4077Z" fill="#A1998C"/>
<path d="M46.9073 106.441H30.9341V131.662H46.9073V106.441Z" fill="#FFFAE9"/>
<path d="M45.7171 107.888H32.2498V131.662H45.7171V107.888Z" fill="#6C6E75"/>
<path d="M44.2145 109.397H33.7527V121.472H44.2145V109.397Z" fill="#7297C1"/>
<path d="M44.2145 123.486H33.7527V130.215H44.2145V123.486Z" fill="#7297C1"/>
<path d="M46.9073 132.982H30.9341V134.744H46.9073V132.982Z" fill="#A1998C"/>
<path d="M191.191 60.8665H175.218V86.088H191.191V60.8665Z" fill="#FFFAE9"/>
<path d="M190.001 62.3132H176.533V86.088H190.001V62.3132Z" fill="#6C6E75"/>
<path d="M188.498 63.8225H178.037V75.8975H188.498V63.8225Z" fill="#7297C1"/>
<path d="M188.498 77.9111H178.037V84.6409H188.498V77.9111Z" fill="#7297C1"/>
<path d="M191.191 87.4077H175.218V89.1691H191.191V87.4077Z" fill="#A1998C"/>
<path d="M191.191 106.441H175.218V131.662H191.191V106.441Z" fill="#FFFAE9"/>
<path d="M190.001 107.888H176.533V131.662H190.001V107.888Z" fill="#6C6E75"/>
<path d="M188.498 109.397H178.037V121.472H188.498V109.397Z" fill="#7297C1"/>
<path d="M188.498 123.486H178.037V130.215H188.498V123.486Z" fill="#7297C1"/>
<path d="M191.191 132.982H175.218V134.744H191.191V132.982Z" fill="#A1998C"/>
<path d="M46.8728 94.5066H31.0938V100.83H46.8728V94.5066Z" fill="#C3B394"/>
<path d="M32.1978 95.6149H46.8728V94.5066H31.0938V100.83H32.1978V95.6149Z" fill="#A38D60"/>
<path d="M86.8421 60.8665H70.8691V86.088H86.8421V60.8665Z" fill="#FFFAE9"/>
<path d="M85.6519 62.3132H72.1848V86.088H85.6519V62.3132Z" fill="#6C6E75"/>
<path d="M84.1489 63.8225H73.687V75.8975H84.1489V63.8225Z" fill="#7297C1"/>
<path d="M84.1489 77.9111H73.687V84.6409H84.1489V77.9111Z" fill="#7297C1"/>
<path d="M86.8418 87.4077H70.8689V89.1691H86.8418V87.4077Z" fill="#A1998C"/>
<path d="M86.8421 106.441H70.8691V131.662H86.8421V106.441Z" fill="#FFFAE9"/>
<path d="M85.6519 107.888H72.1848V131.662H85.6519V107.888Z" fill="#6C6E75"/>
<path d="M84.1489 109.397H73.687V121.472H84.1489V109.397Z" fill="#7297C1"/>
<path d="M84.1489 123.486H73.687V130.215H84.1489V123.486Z" fill="#7297C1"/>
<path d="M86.8418 132.982H70.8689V134.744H86.8418V132.982Z" fill="#A1998C"/>
<path d="M86.8078 94.5066H71.0286V100.83H86.8078V94.5066Z" fill="#C3B394"/>
<path d="M72.1329 95.6149H86.8078V94.5066H71.0286V100.83H72.1329V95.6149Z" fill="#A38D60"/>
<path d="M118.854 60.8665H102.88V86.088H118.854V60.8665Z" fill="#FFFAE9"/>
<path d="M117.664 62.3132H104.196V86.088H117.664V62.3132Z" fill="#6C6E75"/>
<path d="M116.161 63.8225H105.699V75.8975H116.161V63.8225Z" fill="#7297C1"/>
<path d="M116.161 77.9111H105.699V84.6409H116.161V77.9111Z" fill="#7297C1"/>
<path d="M118.854 87.4077H102.88V89.1691H118.854V87.4077Z" fill="#A1998C"/>
<path d="M118.82 94.5066H103.04V100.83H118.82V94.5066Z" fill="#C3B394"/>
<path d="M104.144 95.6149H118.82V94.5066H103.04V100.83H104.144V95.6149Z" fill="#A38D60"/>
<path d="M150.725 60.8665H134.752V86.088H150.725V60.8665Z" fill="#FFFAE9"/>
<path d="M149.535 62.3132H136.068V86.088H149.535V62.3132Z" fill="#6C6E75"/>
<path d="M148.032 63.8225H137.571V75.8975H148.032V63.8225Z" fill="#7297C1"/>
<path d="M148.032 77.9111H137.571V84.6409H148.032V77.9111Z" fill="#7297C1"/>
<path d="M150.725 87.4077H134.752V89.1691H150.725V87.4077Z" fill="#A1998C"/>
<path d="M150.725 106.441H134.752V131.662H150.725V106.441Z" fill="#FFFAE9"/>
<path d="M149.535 107.888H136.068V131.662H149.535V107.888Z" fill="#6C6E75"/>
<path d="M148.032 109.397H137.571V121.472H148.032V109.397Z" fill="#7297C1"/>
<path d="M148.032 123.486H137.571V130.215H148.032V123.486Z" fill="#7297C1"/>
<path d="M150.725 132.982H134.752V134.744H150.725V132.982Z" fill="#A1998C"/>
<path d="M150.691 94.5066H134.912V100.83H150.691V94.5066Z" fill="#C3B394"/>
<path d="M136.016 95.6149H150.691V94.5066H134.912V100.83H136.016V95.6149Z" fill="#A38D60"/>
<path d="M191.157 94.5066H175.377V100.83H191.157V94.5066Z" fill="#C3B394"/>
<path d="M176.482 95.6149H191.157V94.5066H175.377V100.83H176.482V95.6149Z" fill="#A38D60"/>
<path opacity="0.2" d="M59.3967 50.5862L151.755 145.721L165.771 147.026L181.646 164.368H202.751L202.425 50.9774L59.3967 50.5862Z" fill="black"/>
<path d="M103.173 144.899H118.562V116.991C118.562 116.991 117.198 109.3 110.867 109.398C104.536 109.496 103.173 117.715 103.173 117.715V144.899Z" fill="#817462"/>
<path d="M103.173 146.96H118.562V119.051C118.562 119.051 117.198 111.361 110.867 111.459C104.536 111.556 103.173 119.775 103.173 119.775V146.96Z" fill="#4A3A31"/>
<path d="M118.562 119.052H103.332V120.749H118.562V119.052Z" fill="#645B4E"/>
<path d="M110.478 146.96L110.947 121.141H103.332L103.854 146.96H110.478Z" fill="#645B4E"/>
<path opacity="0.3" d="M160.227 50.1382H59.3354V145.925H160.227V50.1382Z" fill="black"/>
<path d="M69.9796 63.2014H58.3677V141.132H69.9796V63.2014Z" fill="#878175"/>
<path d="M62.8238 63.2014H58.3677V141.132H62.8238V63.2014Z" fill="#EDE5CF"/>
<path d="M64.1738 63.2014H62.4854V141.132H64.1738V63.2014Z" fill="#B6AE98"/>
<path d="M69.9796 55.5908H58.3677V63.2012H69.9796V55.5908Z" fill="#B6AE98"/>
<path d="M69.9796 142.827H58.3677V145.924H69.9796V142.827Z" fill="#9F9284"/>
<path d="M69.9796 141.132H58.3677V142.876H69.9796V141.132Z" fill="#BDAF97"/>
<path d="M67.4229 56.4707H58.2249V62.273H67.4229V56.4707Z" fill="#DBD1B8"/>
<path d="M67.8691 50.9771H61.439V55.5907H67.8691V50.9771Z" fill="#B6AE98"/>
<path d="M59.3967 55.4445C60.7856 55.4445 61.9115 54.3572 61.9115 53.0159C61.9115 51.6745 60.7856 50.5872 59.3967 50.5872C58.0078 50.5872 56.8818 51.6745 56.8818 53.0159C56.8818 54.3572 58.0078 55.4445 59.3967 55.4445Z" fill="#F1EAD5"/>
<path d="M72.4956 53.0154C72.4956 54.3567 71.3695 55.4441 69.9798 55.4441C68.5914 55.4441 67.4648 54.3567 67.4648 53.0154C67.4648 51.6735 68.5914 50.5862 69.9798 50.5862C71.3695 50.5862 72.4956 51.6735 72.4956 53.0154Z" fill="#F1EAD5"/>
<path d="M100.767 63.2012H89.1536V141.132H100.767V63.2012Z" fill="#878175"/>
<path d="M93.6097 63.2012H89.1536V141.132H93.6097V63.2012Z" fill="#EDE5CF"/>
<path d="M94.9597 63.2012H93.271V141.132H94.9597V63.2012Z" fill="#B6AE98"/>
<path d="M100.767 55.5908H89.1536V63.2012H100.767V55.5908Z" fill="#B6AE98"/>
<path d="M100.767 142.827H89.1536V145.924H100.767V142.827Z" fill="#9F9284"/>
<path d="M100.767 141.132H89.1536V142.876H100.767V141.132Z" fill="#BDAF97"/>
<path d="M98.2088 56.4705H89.0115V62.2727H98.2088V56.4705Z" fill="#DBD1B8"/>
<path d="M98.6555 50.9771H92.2246V55.5907H98.6555V50.9771Z" fill="#B6AE98"/>
<path d="M90.1827 55.4441C91.5719 55.4441 92.698 54.3567 92.698 53.0154C92.698 51.674 91.5719 50.5867 90.1827 50.5867C88.7936 50.5867 87.6675 51.674 87.6675 53.0154C87.6675 54.3567 88.7936 55.4441 90.1827 55.4441Z" fill="#F1EAD5"/>
<path d="M100.766 55.4438C102.155 55.4438 103.281 54.3564 103.281 53.0151C103.281 51.6738 102.155 50.5864 100.766 50.5864C99.3767 50.5864 98.2505 51.6738 98.2505 53.0151C98.2505 54.3564 99.3767 55.4438 100.766 55.4438Z" fill="#F1EAD5"/>
<path d="M131.552 63.2012H119.939V141.132H131.552V63.2012Z" fill="#878175"/>
<path d="M124.396 63.2012H119.939V141.132H124.396V63.2012Z" fill="#EDE5CF"/>
<path d="M125.745 63.2012H124.058V141.132H125.745V63.2012Z" fill="#B6AE98"/>
<path d="M131.552 55.5908H119.939V63.2012H131.552V55.5908Z" fill="#B6AE98"/>
<path d="M131.552 142.827H119.939V145.924H131.552V142.827Z" fill="#9F9284"/>
<path d="M131.552 141.132H119.939V142.876H131.552V141.132Z" fill="#BDAF97"/>
<path d="M128.995 56.4705H119.797V62.2727H128.995V56.4705Z" fill="#DBD1B8"/>
<path d="M129.441 50.9771H123.01V55.5907H129.441V50.9771Z" fill="#B6AE98"/>
<path d="M120.969 55.4441C122.358 55.4441 123.484 54.3567 123.484 53.0154C123.484 51.674 122.358 50.5867 120.969 50.5867C119.58 50.5867 118.453 51.674 118.453 53.0154C118.453 54.3567 119.58 55.4441 120.969 55.4441Z" fill="#F1EAD5"/>
<path d="M131.551 55.4438C132.941 55.4438 134.067 54.3564 134.067 53.0151C134.067 51.6738 132.941 50.5864 131.551 50.5864C130.162 50.5864 129.036 51.6738 129.036 53.0151C129.036 54.3564 130.162 55.4438 131.551 55.4438Z" fill="#F1EAD5"/>
<path d="M162.338 63.2014H150.725V141.132H162.338V63.2014Z" fill="#878175"/>
<path d="M155.182 63.2014H150.725V141.132H155.182V63.2014Z" fill="#EDE5CF"/>
<path d="M156.531 63.2014H154.844V141.132H156.531V63.2014Z" fill="#B6AE98"/>
<path d="M162.338 55.5908H150.725V63.2012H162.338V55.5908Z" fill="#B6AE98"/>
<path d="M162.338 142.827H150.725V145.924H162.338V142.827Z" fill="#9F9284"/>
<path d="M162.338 141.132H150.725V142.876H162.338V141.132Z" fill="#BDAF97"/>
<path d="M159.781 56.4707H150.583V62.273H159.781V56.4707Z" fill="#DBD1B8"/>
<path d="M160.227 50.9771H153.796V55.5907H160.227V50.9771Z" fill="#B6AE98"/>
<path d="M154.27 53.0154C154.27 54.3567 153.143 55.4441 151.755 55.4441C150.365 55.4441 149.239 54.3567 149.239 53.0154C149.239 51.6735 150.365 50.5862 151.755 50.5862C153.143 50.5862 154.27 51.6735 154.27 53.0154Z" fill="#F1EAD5"/>
<path d="M162.337 55.4441C163.727 55.4441 164.853 54.3567 164.853 53.0154C164.853 51.674 163.727 50.5867 162.337 50.5867C160.948 50.5867 159.822 51.674 159.822 53.0154C159.822 54.3567 160.948 55.4441 162.337 55.4441Z" fill="#F1EAD5"/>
<path d="M205.055 148.72H19.0183V164.368H205.055V148.72Z" fill="#91878E"/>
<path d="M208.042 146.243H16.0312V149.177H208.042V146.243Z" fill="#80777D"/>
<path d="M184.601 160.065H36.0315V164.368H184.601V160.065Z" fill="#BBBBC5"/>
<path d="M178.367 155.762H42.2654V160.065H178.367V155.762Z" fill="#BBBBC5"/>
<path d="M172.005 151.458H48.6284V155.762H172.005V151.458Z" fill="#BBBBC5"/>
<path d="M165.771 147.026H54.8621V151.329H165.771V147.026Z" fill="#BBBBC5"/>
<path d="M204.374 24.9058H19.0183V26.4707H204.374V24.9058Z" fill="#DAD7D9"/>
<path d="M33.5311 26.4705H22.6541V39.2822H33.5311V26.4705Z" fill="#DAD7D9"/>
<path d="M68.2626 26.4705H57.3855V39.2822H68.2626V26.4705Z" fill="#DAD7D9"/>
<path d="M43.2064 26.4705H40.041V39.2822H43.2064V26.4705Z" fill="#DAD7D9"/>
<path d="M50.7638 26.4705H47.5981V39.2822H50.7638V26.4705Z" fill="#DAD7D9"/>
<path d="M164.985 26.4705H154.109V39.2822H164.985V26.4705Z" fill="#DAD7D9"/>
<path d="M199.717 26.4705H188.84V39.2822H199.717V26.4705Z" fill="#DAD7D9"/>
<path d="M174.661 26.4705H171.495V39.2822H174.661V26.4705Z" fill="#DAD7D9"/>
<path d="M182.218 26.4705H179.052V39.2822H182.218V26.4705Z" fill="#DAD7D9"/>
<path d="M51.0593 41.3554L107.091 2.5L171.647 42.4976L51.0593 41.3554Z" fill="#DBD6D0"/>
<path d="M55.9912 39.8372L107.139 4.36792L166.069 40.8802L55.9912 39.8372Z" fill="#D1C3A2"/>
<path opacity="0.2" d="M110.867 10.9114L159.125 40.8112L166.392 40.8802L107.462 4.36792L56.3147 39.8372L68.2624 39.8967L110.867 10.9114Z" fill="black"/>
<path d="M16.843 40.8802H51.7455L107.091 2.49997L169.037 40.8802H205.543L204.893 38.0112H169.439L106.55 0.847168L50.1543 39.2825H16.843V40.8802Z" fill="#8A848D"/>
<path opacity="0.3" d="M21.5826 40.8801H19.3098V42.6733H21.5826V40.8801Z" fill="#8A848D"/>
<path opacity="0.3" d="M27.5572 40.8801H25.2837V42.6733H27.5572V40.8801Z" fill="#8A848D"/>
<path opacity="0.3" d="M33.531 40.8801H31.2583V42.6733H33.531V40.8801Z" fill="#8A848D"/>
<path opacity="0.3" d="M39.5054 40.8801H37.2324V42.6733H39.5054V40.8801Z" fill="#8A848D"/>
<path opacity="0.3" d="M45.4795 40.8801H43.2065V42.6733H45.4795V40.8801Z" fill="#8A848D"/>
<path opacity="0.3" d="M51.4537 40.8801H49.1807V42.6733H51.4537V40.8801Z" fill="#8A848D"/>
<path opacity="0.3" d="M57.4278 40.8801H55.1548V42.6733H57.4278V40.8801Z" fill="#8A848D"/>
<path opacity="0.3" d="M63.4021 40.8801H61.1294V42.6733H63.4021V40.8801Z" fill="#8A848D"/>
<path opacity="0.3" d="M69.3763 40.8801H67.1033V42.6733H69.3763V40.8801Z" fill="#8A848D"/>
<path opacity="0.3" d="M75.3509 40.8801H73.0779V42.6733H75.3509V40.8801Z" fill="#8A848D"/>
<path opacity="0.3" d="M81.3248 40.8801H79.0518V42.6733H81.3248V40.8801Z" fill="#8A848D"/>
<path opacity="0.3" d="M87.2991 40.8801H85.0261V42.6733H87.2991V40.8801Z" fill="#8A848D"/>
<path opacity="0.3" d="M93.2735 40.8801H91.0005V42.6733H93.2735V40.8801Z" fill="#8A848D"/>
<path opacity="0.3" d="M99.2479 40.8801H96.9749V42.6733H99.2479V40.8801Z" fill="#8A848D"/>
<path opacity="0.3" d="M105.222 40.8801H102.949V42.6733H105.222V40.8801Z" fill="#8A848D"/>
<path opacity="0.3" d="M111.196 40.8801H108.923V42.6733H111.196V40.8801Z" fill="#8A848D"/>
<path opacity="0.3" d="M117.17 40.8801H114.897V42.6733H117.17V40.8801Z" fill="#8A848D"/>
<path opacity="0.3" d="M123.145 40.8801H120.872V42.6733H123.145V40.8801Z" fill="#8A848D"/>
<path opacity="0.3" d="M129.119 40.8801H126.846V42.6733H129.119V40.8801Z" fill="#8A848D"/>
<path opacity="0.3" d="M135.093 40.8801H132.82V42.6733H135.093V40.8801Z" fill="#8A848D"/>
<path opacity="0.3" d="M141.067 40.8801H138.794V42.6733H141.067V40.8801Z" fill="#8A848D"/>
<path opacity="0.3" d="M147.042 40.8801H144.769V42.6733H147.042V40.8801Z" fill="#8A848D"/>
<path opacity="0.3" d="M153.016 40.8801H150.743V42.6733H153.016V40.8801Z" fill="#8A848D"/>
<path opacity="0.3" d="M158.99 40.8801H156.717V42.6733H158.99V40.8801Z" fill="#8A848D"/>
<path opacity="0.3" d="M164.964 40.8801H162.691V42.6733H164.964V40.8801Z" fill="#8A848D"/>
<path opacity="0.3" d="M170.939 40.8801H168.666V42.6733H170.939V40.8801Z" fill="#8A848D"/>
<path opacity="0.3" d="M176.912 40.8801H174.639V42.6733H176.912V40.8801Z" fill="#8A848D"/>
<path opacity="0.3" d="M182.887 40.8801H180.614V42.6733H182.887V40.8801Z" fill="#8A848D"/>
<path opacity="0.3" d="M188.861 40.8801H186.589V42.6733H188.861V40.8801Z" fill="#8A848D"/>
<path opacity="0.3" d="M194.835 40.8801H192.562V42.6733H194.835V40.8801Z" fill="#8A848D"/>
<path opacity="0.3" d="M200.809 40.8801H198.537V42.6733H200.809V40.8801Z" fill="#8A848D"/>
<path opacity="0.2" d="M184.602 160.065H36.032V161.272H184.602V160.065Z" fill="black"/>
<path opacity="0.2" d="M178.368 155.762H42.2654V156.968H178.368V155.762Z" fill="black"/>
<path opacity="0.2" d="M172.005 151.458H48.6287V152.665H172.005V151.458Z" fill="black"/>
<path opacity="0.2" d="M165.771 146.96H54.8623V148.167H165.771V146.96Z" fill="black"/>
<path d="M31.037 160.646C30.8475 160.314 30.3646 160.327 30.005 160.451C29.8025 160.522 29.612 160.619 29.4307 160.731C29.6405 160.283 29.7991 159.81 29.8969 159.324C29.9742 158.939 29.9567 158.435 29.5971 158.277C29.3415 158.165 29.0489 158.299 28.8129 158.448C28.2827 158.784 27.8256 159.225 27.4443 159.725C28.2108 158.298 28.6914 156.716 28.8314 155.1C27.5235 155.616 26.5046 156.772 26.0886 158.115C26.5637 155.865 26.9303 153.548 26.3543 151.34C24.5457 152.919 23.629 155.466 24.0147 157.841C23.3214 155.723 23.2976 153.375 22.2293 151.421C22.1434 151.264 22.043 151.103 21.886 151.019C21.6016 150.867 21.2308 151.036 21.0539 151.306C20.8778 151.576 20.848 151.915 20.836 152.237C20.7633 154.093 21.0939 155.963 21.7971 157.681C21.1477 156.512 20.4989 155.341 19.8502 154.171C19.4049 153.368 18.8734 152.494 17.9928 152.243C17.7043 152.898 17.9138 153.656 18.1401 154.334C18.7104 156.043 19.3715 157.721 20.1215 159.358C19.4057 157.935 18.4532 156.632 17.3157 155.519C17.0982 155.307 16.7959 155.086 16.5189 155.209C16.1886 155.356 16.2134 155.83 16.3067 156.181C16.7737 157.929 17.5916 159.58 18.6939 161.012C17.6321 159.755 16.3838 158.606 14.803 158.25C14.6115 158.206 14.375 158.191 14.2563 158.348C14.133 158.511 14.2213 158.743 14.3157 158.925C15.3735 160.963 16.7076 162.857 18.2682 164.539L29.1879 164.865C30.2065 163.914 30.8894 162.608 31.0911 161.226C31.1191 161.03 31.1355 160.817 31.037 160.646Z" fill="#579326"/>
<path d="M199.65 160.505C199.064 159.993 198.046 160.017 197.572 160.635C197.751 160.344 197.936 160.039 197.976 159.699C198.016 159.357 197.868 158.969 197.551 158.842C197.372 158.77 197.171 158.791 196.981 158.819C196.239 158.93 195.513 159.142 194.828 159.448C194.924 158.7 194.37 157.925 193.633 157.777C192.895 157.629 192.087 158.13 191.888 158.858C191.709 158.066 190.801 157.525 190.024 157.746C189.245 157.966 188.754 158.904 189.013 159.673C188.556 159.319 188.002 159.05 187.424 159.064C186.846 159.079 186.253 159.434 186.09 159.991C185.978 160.377 186.144 160.822 186.448 161.065C185.854 160.863 185.226 160.767 184.602 160.791C184.944 162.62 186.306 164.222 188.052 164.847L198.51 164.27C199.217 163.947 199.845 163.388 200.115 162.656C200.386 161.924 200.236 161.018 199.65 160.505Z" fill="#79A958"/>
<path opacity="0.1" d="M33.7523 58.9805H28.2043V60.8665H33.7523V58.9805Z" fill="black"/>
<path opacity="0.1" d="M44.2142 55.897H38.6663V57.7828H44.2142V55.897Z" fill="black"/>
<path opacity="0.1" d="M47.9332 58.9805H42.3853V60.8665H47.9332V58.9805Z" fill="black"/>
<path opacity="0.1" d="M50.7071 102.884H45.1592V104.77H50.7071V102.884Z" fill="black"/>
<path opacity="0.1" d="M193.931 54.9541H188.383V56.8399H193.931V54.9541Z" fill="black"/>
<path opacity="0.1" d="M181.142 57.157H175.594V59.0425H181.142V57.157Z" fill="black"/>
<path opacity="0.1" d="M177.414 55.2705H171.866V57.1566H177.414V55.2705Z" fill="black"/>
<path opacity="0.1" d="M195.336 90.6877H189.789V92.5735H195.336V90.6877Z" fill="black"/>
<path opacity="0.1" d="M177.414 104.556H171.866V106.441H177.414V104.556Z" fill="black"/>
<path opacity="0.1" d="M193.931 137.596H188.383V139.482H193.931V137.596Z" fill="black"/>
<path opacity="0.1" d="M189.788 140.189H184.24V142.075H189.788V140.189Z" fill="black"/>
<path opacity="0.1" d="M34.032 103.827H28.4841V105.713H34.032V103.827Z" fill="black"/>
<path opacity="0.1" d="M50.7071 140.189H45.1592V142.075H50.7071V140.189Z" fill="black"/>
<path opacity="0.1" d="M46.9883 138.303H41.4404V140.19H46.9883V138.303Z" fill="black"/>
</svg>
