<svg width="159" height="123" viewBox="0 0 159 123" fill="none" xmlns="http://www.w3.org/2000/svg">
<rect width="158.012" height="122.581" fill="black" fill-opacity="0"/>
<rect width="158.012" height="116.054" fill="black" fill-opacity="0" transform="translate(0 6.52686)"/>
<path opacity="0.3" d="M79.0062 122.581C122.64 122.581 158.012 119.692 158.012 116.127C158.012 112.562 122.64 109.673 79.0062 109.673C35.3723 109.673 0 112.562 0 116.127C0 119.692 35.3723 122.581 79.0062 122.581Z" fill="black"/>
<rect width="154.957" height="111.362" fill="black" fill-opacity="0" transform="translate(1.91528 6.52686)"/>
<rect width="90.4085" height="15.0911" fill="black" fill-opacity="0" transform="translate(38.9656 9.36182)"/>
<path d="M41.3415 9.36206H38.9656V24.4528H41.3415V9.36206Z" fill="#212121"/>
<path d="M129.374 9.36182H126.998V24.4526H129.374V9.36182Z" fill="#212121"/>
<path d="M135.311 6.52686H33.0287V21.8392H135.311V6.52686Z" fill="#434343"/>
<path d="M135.983 6.52686H32.3558V8.15707H135.983V6.52686Z" fill="#757575"/>
<path d="M41.3415 21.8391H38.9656V22.7604H41.3415V21.8391Z" fill="black"/>
<path d="M129.374 21.8391H126.998V22.7604H129.374V21.8391Z" fill="black"/>
<rect width="94.9491" height="1.20488" fill="black" fill-opacity="0" transform="translate(36.6952 8.15698)"/>
<path d="M36.6952 8.15698C36.6952 8.82225 37.235 9.36177 37.9007 9.36177C38.5661 9.36177 39.1059 8.82225 39.1059 8.15698H36.6952Z" fill="#FFE082"/>
<path d="M59.8301 8.15698C59.8301 8.82225 60.3695 9.36177 61.0351 9.36177C61.7008 9.36177 62.2406 8.82225 62.2406 8.15698H59.8301Z" fill="#FFE082"/>
<path d="M82.9646 8.15698C82.9646 8.82225 83.5039 9.36177 84.1696 9.36177C84.8352 9.36177 85.3751 8.82225 85.3751 8.15698H82.9646Z" fill="#FFE082"/>
<path d="M106.099 8.15698C106.099 8.82225 106.639 9.36177 107.304 9.36177C107.97 9.36177 108.51 8.82225 108.51 8.15698H106.099Z" fill="#FFE082"/>
<path d="M129.234 8.15698C129.234 8.82225 129.773 9.36177 130.439 9.36177C131.104 9.36177 131.644 8.82225 131.644 8.15698H129.234Z" fill="#FFE082"/>
<path opacity="0.5" d="M135.311 8.15649V13.7586H34.0858L33.0285 10.3343V8.15649H135.311Z" fill="url(#paint0_linear)"/>
<rect width="154.957" height="94.2561" fill="black" fill-opacity="0" transform="translate(1.91534 23.6323)"/>
<rect width="19.4609" height="46.9606" fill="black" fill-opacity="0" transform="translate(128.063 64.6025)"/>
<path d="M145.364 93.9225C147.038 93.5212 147.9 91.4212 147.366 89.7849C146.83 88.1486 145.258 87.0259 143.604 86.5473C144.481 85.2162 145.399 83.7148 145.139 82.1424C144.901 80.6896 143.038 79.5711 141.906 80.3337C143.221 79.2217 144.144 77.4931 143.697 75.8472C143.266 74.256 141.141 73.285 139.831 74.1135C141.086 72.9706 141.223 70.7258 139.982 69.5246C138.622 68.2067 136.042 68.5677 135.097 70.2091C135.796 69.1235 136.36 67.9516 136.77 66.7271C136.954 66.1784 137.095 65.5299 136.76 65.0558C136.252 64.3332 135.124 64.5944 134.344 65.0122C131.815 66.3658 129.772 68.6053 128.657 71.2458L128.063 107.68C128.24 108.519 129.163 108.994 130.017 109.091C130.87 109.19 131.745 109.035 132.59 109.189C133.273 109.312 133.903 109.631 134.522 109.947C136.271 110.838 138.154 111.756 140.105 111.528C142.056 111.302 143.929 109.381 143.331 107.511C145.966 105.954 146.519 101.795 144.383 99.6014C145.528 98.8791 146.748 98.0609 147.186 96.7803C147.621 95.5005 146.704 93.739 145.364 93.9225Z" fill="#79A958"/>
<rect width="25.237" height="23.0732" fill="black" fill-opacity="0" transform="translate(131.636 90.4492)"/>
<path d="M150.993 110.012C151.304 109.928 151.62 109.86 151.93 109.768C153.527 109.294 155.179 108.664 156.222 107.366C156.56 106.947 156.828 106.451 156.867 105.913C156.995 104.173 154.856 103.208 153.113 103.101C150.418 102.935 147.693 103.614 145.352 104.955C147.064 103.492 148.546 101.763 149.707 99.8349C149.894 99.5236 150.069 99.1075 149.841 98.8243C149.631 98.5622 149.226 98.6058 148.9 98.6869C145.013 99.6361 141.517 102.099 139.32 105.442C141.423 102.65 143.278 99.6704 144.852 96.5501C145.328 95.6075 145.781 94.4864 145.32 93.5372C141.738 95.035 138.782 97.9704 137.257 101.541C138.356 99.1732 139.096 96.6399 139.445 94.0539C139.55 93.2694 139.616 92.448 139.329 91.7107C139.041 90.9739 138.302 90.3563 137.519 90.4608C136.932 90.5399 136.468 90.9831 136.071 91.4227C132.738 95.1263 131.128 100.319 131.778 105.257L131.932 112.43C132.849 113.15 134.097 113.238 135.262 113.295C142.522 113.656 150.083 113.965 156.752 111.073C154.903 110.331 152.966 110.034 150.993 110.012Z" fill="#579326"/>
<rect width="17.2326" height="76.4508" fill="black" fill-opacity="0" transform="translate(14.7018 34.7708)"/>
<path d="M15.785 38.0379L23.9212 36.0532L24.0935 44.2616L28.9428 49.1969L30.1554 107.117L23.7784 111.222L23.754 110.066L28.4253 106.119L27.4892 50.2379L18.5252 46.195L15.785 38.0379Z" fill="#494252"/>
<path d="M14.7018 37.1778L14.7393 38.9551L24.9834 36.4202L24.9486 34.7708L14.7018 37.1778Z" fill="#2E2933"/>
<path d="M27.1132 55.1166L27.1596 57.3193L31.5161 57.0003L31.3859 55.0273L27.1132 55.1166Z" fill="#2E2933"/>
<path d="M27.615 79.0857L26.8593 81.3041L31.9344 81.2169L31.7594 78.9995L27.615 79.0857Z" fill="#2E2933"/>
<path d="M27.3372 104.133L28.4252 106.119L31.3811 105.819L31.4278 104.098L27.3372 104.133Z" fill="#2E2933"/>
<rect width="17.4988" height="76.446" fill="black" fill-opacity="0" transform="translate(136.823 34.4563)"/>
<path d="M153.234 37.6747L145.108 35.7332L144.887 43.9431L140.008 48.9037L138.445 106.832L144.797 110.902L144.828 109.746L140.181 105.824L141.455 49.9371L150.443 45.8471L153.234 37.6747Z" fill="#494252"/>
<path d="M154.321 36.8096L154.274 38.5869L144.044 36.1065L144.089 34.4563L154.321 36.8096Z" fill="#2E2933"/>
<path d="M141.802 54.8145L141.742 57.0172L137.387 56.7211L137.529 54.7476L141.802 54.8145Z" fill="#2E2933"/>
<path d="M141.155 78.7866L141.897 81.0004L136.823 80.9401L137.011 78.7217L141.155 78.7866Z" fill="#2E2933"/>
<path d="M141.281 103.832L140.181 105.824L137.227 105.54L137.191 103.819L141.281 103.832Z" fill="#2E2933"/>
<rect width="128.355" height="92.6731" fill="black" fill-opacity="0" transform="translate(19.766 23.6323)"/>
<rect width="128.355" height="92.6731" fill="black" fill-opacity="0" transform="translate(19.766 23.6323)"/>
<rect width="112.632" height="86.7051" fill="black" fill-opacity="0" transform="translate(28.9811 29.6003)"/>
<path opacity="0.4" d="M136.931 108.607C108.632 108.236 80.3071 107.866 51.957 107.496C52.1188 110.127 52.2796 112.758 52.44 115.389C80.8872 115.635 109.317 115.88 137.729 116.126C139.023 115.676 140.317 115.225 141.613 114.774C140.06 112.718 138.499 110.662 136.931 108.607Z" fill="#66A4A2"/>
<rect width="110.037" height="81.2318" fill="black" fill-opacity="0" transform="translate(28.9811 29.6003)"/>
<path d="M137.132 110.832C101.777 110.832 66.422 110.832 31.0665 110.832C31.1467 108.787 31.2279 106.742 31.3096 104.697C66.5597 104.697 101.81 104.697 137.06 104.697C137.084 106.742 137.109 108.787 137.132 110.832Z" fill="#AAA5B7" stroke="#AAA5B7" stroke-width="1.01715" stroke-miterlimit="10"/>
<path opacity="0.7" d="M137.075 105.945C137.07 105.529 137.065 105.113 137.06 104.697C101.81 104.697 66.5597 104.697 31.3095 104.697C31.2928 105.113 31.2761 105.529 31.2598 105.945C66.5313 105.945 101.803 105.945 137.075 105.945Z" fill="#AAA5B7" stroke="#AAA5B7" stroke-width="1.01715" stroke-miterlimit="10"/>
<path d="M135.857 104.69C101.283 104.69 66.7094 104.69 32.1356 104.69C31.0841 79.6599 30.0326 54.6304 28.9811 29.6003C65.66 29.6003 102.339 29.6003 139.018 29.6008C137.964 54.6306 136.911 79.6604 135.857 104.69Z" fill="#D6A460"/>
<rect width="32.7943" height="52.5599" fill="black" fill-opacity="0" transform="translate(98.6255 57.7432)"/>
<path d="M129.471 110.303C119.189 110.303 108.907 110.303 98.6255 110.303C98.835 92.7829 99.0443 75.2633 99.2541 57.7432C109.976 57.7432 120.698 57.7432 131.42 57.7432C130.77 75.2633 130.12 92.7829 129.471 110.303Z" fill="url(#paint1_linear)"/>
<g opacity="0.2">
<rect width="32.7943" height="52.5599" fill="black" fill-opacity="0" transform="translate(98.6255 57.7432)"/>
<path opacity="0.2" d="M127.788 61.2678C127.267 76.4382 126.746 91.6083 126.225 106.779C118.165 106.779 110.104 106.779 102.044 106.779C102.267 91.6083 102.49 76.4382 102.713 61.2678C111.071 61.2678 119.429 61.2678 127.788 61.2678ZM131.42 57.7432C120.698 57.7432 109.976 57.7432 99.2541 57.7432C99.0443 75.2633 98.835 92.7829 98.6255 110.303C108.907 110.303 119.189 110.303 129.471 110.303C130.12 92.7829 130.77 75.2633 131.42 57.7432Z" fill="#7154A1"/>
</g>
<path d="M128.875 60.2105C128.317 76.0858 127.759 91.9604 127.201 107.836C118.473 107.836 109.744 107.836 101.016 107.836C101.237 91.9604 101.457 76.0858 101.677 60.2105C110.743 60.2105 119.809 60.2105 128.875 60.2105ZM131.42 57.7432C120.698 57.7432 109.976 57.7432 99.2541 57.7432C99.0443 75.2633 98.835 92.7829 98.6255 110.303C108.907 110.303 119.189 110.303 129.471 110.303C130.12 92.7829 130.77 75.2633 131.42 57.7432Z" fill="#B341B7"/>
<path opacity="0.3" d="M116.826 97.2067C119.226 84.8921 121.687 72.5775 124.21 60.2625C125.232 60.2625 126.254 60.2625 127.276 60.2625C124.817 72.5775 122.416 84.8921 120.074 97.2067C118.992 97.2067 117.909 97.2067 116.826 97.2067Z" fill="#CCA8BE"/>
<path opacity="0.3" d="M104.322 97.2067C106.597 84.8921 108.935 72.5775 111.334 60.2625C112.356 60.2625 113.378 60.2625 114.4 60.2625C112.064 72.5775 109.788 84.8921 107.57 97.2067C106.487 97.2067 105.405 97.2067 104.322 97.2067Z" fill="#CCA8BE"/>
<rect width="23.4166" height="33.4919" fill="black" fill-opacity="0" transform="translate(37.0795 58.9775)"/>
<path d="M60.496 92.1898C53.0962 92.1898 45.6962 92.1898 38.2969 92.1898C37.891 81.1191 37.4854 70.0483 37.0795 58.9775C44.6766 58.9775 52.2738 58.9775 59.8707 58.9775C60.0792 70.0483 60.2878 81.1191 60.496 92.1898Z" stroke="#B341B7" stroke-width="14.5182" stroke-miterlimit="10"/>
<path d="M59 92.4695C52.3638 92.4695 45.7275 92.4695 39.0918 92.4695C38.7278 81.8028 38.364 71.1361 38 60.4695C44.8131 60.4695 51.6263 60.4695 58.4392 60.4695C58.6262 71.1361 58.8132 81.8028 59 92.4695Z" fill="url(#paint2_linear)"/>
<path d="M99.2541 57.7432C98.921 57.7432 98.5874 57.7432 98.2544 57.7432C98.0565 75.4397 97.8586 93.1356 97.661 110.832C97.9804 110.832 98.2998 110.832 98.6192 110.832C98.8307 93.1356 99.0425 75.4397 99.2541 57.7432Z" fill="#F1ECBD"/>
<path opacity="0.4" d="M100.263 57.7432C99.9307 57.7432 99.5973 57.7432 99.264 57.7432C99.0524 75.4397 98.8404 93.1356 98.6288 110.832C98.9479 110.832 99.2675 110.832 99.5867 110.832C99.8124 93.1356 100.038 75.4397 100.263 57.7432Z" fill="#7154A1"/>
<path opacity="0.4" d="M131.393 57.7432C131.06 57.7432 130.727 57.7432 130.393 57.7432C129.751 75.4397 129.109 93.1356 128.467 110.832C128.787 110.832 129.106 110.832 129.425 110.832C130.081 93.1356 130.737 75.4397 131.393 57.7432Z" fill="#7154A1"/>
<path opacity="0.4" d="M60.9014 57.3916C60.6232 57.3916 60.3449 57.3916 60.0666 57.3916C60.2913 69.4481 60.5161 81.5051 60.7411 93.5616C61.0113 93.5616 61.2817 93.5616 61.5521 93.5616C61.3355 81.5051 61.1183 69.4481 60.9014 57.3916Z" fill="#7154A1"/>
<path opacity="0.4" d="M36.6495 57.3916C36.3712 57.3916 36.0929 57.3916 35.8149 57.3916C36.269 69.4704 36.723 81.549 37.1769 93.628C37.447 93.628 37.7175 93.628 37.9874 93.628C37.5417 81.549 37.0954 69.4704 36.6495 57.3916Z" fill="#7154A1"/>
<path d="M132.531 57.7432C132.161 57.7432 131.79 57.7432 131.42 57.7432C130.764 75.4296 130.108 93.1161 129.452 110.802C129.807 110.802 130.163 110.802 130.518 110.802C131.189 93.1161 131.861 75.4296 132.531 57.7432Z" fill="#F1ECBD"/>
<path opacity="0.4" d="M61.3527 58.9775C61.2137 58.9775 61.0747 58.9775 60.9357 58.9775C61.1602 71.4524 61.3847 83.9277 61.609 96.403C53.4085 96.403 45.2079 96.403 37.0072 96.403C37.1609 97.1702 37.3147 97.9379 37.4681 98.7054C46.4293 99.3744 55.3756 100.044 64.3076 100.713C63.7231 98.5664 63.1356 96.4198 62.5453 94.2733C62.1533 82.5079 61.7556 70.7425 61.3527 58.9775Z" fill="black" fill-opacity="0.5"/>
<path d="M61.8664 57.3916C61.5569 57.3916 61.2472 57.3916 60.9374 57.3916C61.1543 69.4679 61.3715 81.5447 61.5886 93.6214C61.8895 93.6214 62.1904 93.6214 62.4912 93.6214C62.283 81.5447 62.0747 69.4679 61.8664 57.3916Z" fill="#F1ECBD"/>
<path d="M35.8248 57.3916C35.5151 57.3916 35.2053 57.3916 34.8956 57.3916C35.3583 69.4679 35.821 81.5447 36.2832 93.6214C36.5843 93.6214 36.8852 93.6214 37.186 93.6214C36.7322 81.5447 36.2786 69.4679 35.8248 57.3916Z" fill="#F1ECBD"/>
<path d="M62.5557 93.6001C53.7616 93.6001 44.9674 93.6001 36.1731 93.6001C36.2117 94.5929 36.2495 95.5863 36.2873 96.5791C45.0605 96.5791 53.8337 96.5791 62.6069 96.5791C62.5899 95.5863 62.5729 94.5929 62.5557 93.6001Z" fill="#F1ECBD"/>
<path opacity="0.8" d="M62.5557 93.6001C53.7616 93.6001 44.9674 93.6001 36.1731 93.6001C36.1896 94.027 36.2061 94.4535 36.2223 94.8804C45.0072 94.8804 53.7926 94.8804 62.578 94.8804C62.5704 94.4535 62.563 94.027 62.5557 93.6001Z" fill="url(#paint3_linear)"/>
<g opacity="0.2">
<rect width="27.3674" height="37.9468" fill="black" fill-opacity="0" transform="translate(101.283 60.3213)"/>
<path opacity="0.2" d="M117.972 74.0039C121.404 74.0039 124.836 74.0039 128.268 74.0039C128.395 73.6901 128.523 73.3762 128.651 73.0623C125.099 73.0623 121.548 73.0623 117.997 73.0623C118.111 68.8151 118.226 64.5685 118.34 60.3213C116.296 60.3213 114.252 60.3213 112.209 60.3213C112.115 64.5685 112.021 68.8151 111.927 73.0623C108.439 73.0623 104.95 73.0623 101.462 73.0623C101.542 73.3762 101.622 73.6901 101.703 74.0039C105.104 74.0039 108.505 74.0039 111.906 74.0039C111.818 77.9925 111.729 81.9816 111.641 85.9704C108.188 85.9707 104.736 85.9707 101.283 85.9707C101.362 86.2851 101.442 86.5989 101.521 86.9128C104.888 86.9128 108.254 86.9128 111.621 86.9128C111.537 90.6981 111.453 94.4828 111.369 98.268C113.352 98.268 115.335 98.268 117.319 98.268C117.42 94.4828 117.522 90.6981 117.624 86.9128C121.021 86.9128 124.419 86.9128 127.816 86.9128C127.942 86.5989 128.068 86.2846 128.194 85.9704C124.679 85.9707 121.164 85.9707 117.65 85.9707C117.757 81.9821 117.864 77.993 117.972 74.0039Z" fill="#7154A1"/>
</g>
<path d="M130.519 110.766V110.766C130.165 110.601 129.811 110.436 129.456 110.271C119.169 110.271 108.882 110.271 98.5948 110.271C98.2838 110.436 97.9728 110.601 97.6618 110.766C75.4063 110.766 53.1508 110.766 30.8956 110.766C30.9199 111.333 30.9445 111.899 30.9691 112.466C66.3332 112.466 101.697 112.466 137.062 112.466C137.086 111.899 137.11 111.333 137.135 110.766C134.93 110.766 132.724 110.766 130.519 110.766Z" fill="#586658"/>
<path d="M30.7992 49.0391C30.4258 49.0391 30.0529 49.0391 29.6794 49.0391C30.4598 67.5708 31.2401 86.1025 32.0204 104.634C32.3773 104.634 32.7342 104.634 33.0914 104.634C32.3273 86.1025 31.5633 67.5708 30.7992 49.0391Z" fill="#FFD4E3"/>
<path d="M139.488 29.6523C139.109 29.6523 138.73 29.6523 138.351 29.6523C137.311 54.6679 136.27 79.6832 135.23 104.699C135.587 104.699 135.944 104.699 136.302 104.699C137.364 79.6832 138.426 54.6679 139.488 29.6523Z" fill="#CC5A78"/>
<path d="M130.501 111.251C130.147 111.087 129.793 110.922 129.438 110.757C120.838 110.757 112.238 110.757 103.638 110.757C101.643 110.922 99.6491 111.087 97.6562 111.251C99.3386 111.251 101.021 111.251 102.703 111.251C78.7741 111.251 54.8454 111.251 30.9164 111.251C30.4943 112.188 30.0732 113.125 29.6531 114.061C65.6049 114.101 101.553 114.14 137.498 114.179C137.371 113.203 137.242 112.227 137.114 111.251C134.909 111.251 132.705 111.251 130.501 111.251Z" fill="url(#paint4_linear)"/>
<path d="M137.969 116.183C101.895 116.183 65.821 116.183 29.7474 116.183C29.6951 115.008 29.6429 113.833 29.5909 112.659C65.7687 112.659 101.947 112.659 138.125 112.659C138.073 113.833 138.021 115.008 137.969 116.183Z" fill="#A1B2A4"/>
<path d="M138.086 113.539C138.099 113.246 138.112 112.953 138.125 112.659C101.947 112.659 65.7687 112.659 29.5909 112.659C29.6038 112.953 29.6168 113.246 29.6302 113.539C65.7817 113.539 101.934 113.539 138.086 113.539Z" fill="#F0FCF5"/>
<g opacity="0.6">
<rect width="97.2271" height="3.82682" fill="black" fill-opacity="0" transform="translate(35.892 112.479)"/>
<g opacity="0.6">
<rect width="0.640539" height="3.5236" fill="black" fill-opacity="0" transform="translate(35.892 112.659)"/>
<path opacity="0.6" d="M36.5326 116.183C36.3654 116.183 36.1977 116.183 36.0305 116.183C35.9844 115.008 35.9382 113.833 35.892 112.659C36.06 112.659 36.2279 112.659 36.3958 112.659C36.4415 113.833 36.4872 115.008 36.5326 116.183Z" fill="#879D84"/>
</g>
<g opacity="0.6">
<rect width="0.56824" height="3.62501" fill="black" fill-opacity="0" transform="translate(68.13 112.599)"/>
<path opacity="0.6" d="M68.1955 116.224C68.1736 115.016 68.1516 113.809 68.13 112.602C68.2979 112.6 68.4659 112.6 68.6338 112.599C68.6551 113.806 68.6767 115.013 68.6982 116.221C68.5303 116.222 68.3629 116.223 68.1955 116.224Z" fill="#879D84"/>
</g>
<g opacity="0.6">
<rect width="0.516997" height="3.72617" fill="black" fill-opacity="0" transform="translate(100.358 112.539)"/>
<path opacity="0.6" d="M100.358 116.265C100.362 115.024 100.367 113.784 100.371 112.544C100.539 112.542 100.707 112.54 100.875 112.539C100.871 113.779 100.866 115.018 100.861 116.259C100.693 116.261 100.526 116.263 100.358 116.265Z" fill="#879D84"/>
</g>
<g opacity="0.6">
<rect width="0.599696" height="3.82682" fill="black" fill-opacity="0" transform="translate(132.519 112.479)"/>
<path opacity="0.6" d="M132.519 116.305C132.551 115.033 132.583 113.759 132.615 112.487C132.783 112.484 132.951 112.481 133.119 112.479C133.087 113.751 133.054 115.024 133.022 116.297C132.855 116.3 132.687 116.302 132.519 116.305Z" fill="#879D84"/>
</g>
</g>
<path opacity="0.3" d="M137.132 110.832C136.836 110.832 136.539 110.832 136.243 110.832C136.218 108.787 136.192 106.742 136.166 104.697C136.464 104.697 136.762 104.697 137.06 104.697C137.084 106.742 137.109 108.787 137.132 110.832Z" fill="#7154A1"/>
<path d="M98.625 110.338C98.3036 110.502 97.9819 110.667 97.661 110.832C97.6808 108.787 97.7008 106.742 97.7206 104.697C98.0436 104.697 98.3665 104.697 98.6892 104.697C98.6679 106.577 98.6466 108.457 98.625 110.338Z" fill="#C9CECA"/>
<path d="M129.447 110.338C129.804 110.502 130.16 110.667 130.517 110.832C130.595 108.787 130.674 106.742 130.753 104.697C130.387 104.697 130.021 104.697 129.656 104.697C129.586 106.577 129.516 108.457 129.447 110.338Z" fill="#FFD4E3"/>
<path d="M39.4547 90.5085C46.1072 90.5085 52.7594 90.5085 59.4116 90.5085C59.4179 90.8153 59.4238 91.1216 59.4299 91.4284C52.7825 91.4284 46.1348 91.4284 39.4877 91.4284C39.4765 91.1216 39.4659 90.8153 39.4547 90.5085Z" fill="#E04BCB"/>
<path opacity="0.5" d="M74.8419 90.6317C76.6247 80.5674 78.4527 70.5032 80.3254 60.439C81.9309 60.439 83.5364 60.439 85.1422 60.439C83.3249 70.5032 81.5496 80.5674 79.8175 90.6317C78.159 90.6317 76.5004 90.6317 74.8419 90.6317Z" fill="#CCA8BE"/>
<path opacity="0.5" d="M45.2533 90.6317C46.7974 80.5674 48.3867 70.5032 50.0204 60.439C52.2102 60.439 54.3999 60.439 56.5897 60.439C54.9968 70.5032 53.4469 80.5674 51.9398 90.6317C49.7109 90.6317 47.4821 90.6317 45.2533 90.6317Z" fill="white" fill-opacity="0.5"/>
<rect width="22.7912" height="33.7203" fill="black" fill-opacity="0" transform="translate(69.2865 58.4695)"/>
<path d="M91.8667 92.1898C84.4666 92.1898 77.0668 92.1898 69.6673 92.1898C69.5402 81.1191 69.4131 70.0483 69.2865 58.9775C76.8834 58.9775 84.4806 58.9775 92.0777 58.9775C92.0072 70.0483 91.9367 81.1191 91.8667 92.1898Z" stroke="#B341B7" stroke-width="14.5182" stroke-miterlimit="10"/>
<path d="M91.7963 91.4695C84.6531 91.4695 77.5102 91.4695 70.3676 91.4695C70.2449 80.4695 70.1222 69.4695 70 58.4695C77.3332 58.4695 84.6666 58.4695 92 58.4695C91.9319 69.4695 91.8639 80.4695 91.7963 91.4695Z" fill="url(#paint5_linear)"/>
<path opacity="0.4" d="M93.1468 57.5674C92.8687 57.5674 92.5907 57.5674 92.3127 57.5674C92.234 69.5651 92.1559 81.5637 92.0773 93.5614C92.3474 93.5614 92.6176 93.5614 92.888 93.5614C92.9743 81.5637 93.0605 69.5651 93.1468 57.5674Z" fill="#7154A1"/>
<path opacity="0.4" d="M68.8961 57.3916C68.6181 57.3916 68.34 57.3916 68.062 57.3916C68.2117 69.4704 68.3614 81.549 68.511 93.628C68.7814 93.628 69.0519 93.628 69.322 93.628C69.18 81.549 69.0379 69.4704 68.8961 57.3916Z" fill="#7154A1"/>
<path opacity="0.4" d="M93.5592 58.9775C93.4202 58.9775 93.2812 58.9775 93.1425 58.9775C93.0526 71.4524 92.9631 83.9277 92.8733 96.403C84.6726 96.403 76.472 96.403 68.2715 96.403C68.406 97.1702 68.5404 97.9379 68.6744 98.7054C77.682 99.4865 86.6724 100.268 95.6463 101.049C95.0549 98.7903 94.4611 96.5318 93.8631 94.2733C93.7673 82.5079 93.666 70.7425 93.5592 58.9775Z" fill="black" fill-opacity="0.5"/>
<path d="M94.1133 57.3916C93.8033 57.3916 93.4938 57.3916 93.1843 57.3916C93.0968 69.4679 93.0098 81.5447 92.9225 93.6214C93.2237 93.6214 93.5245 93.6214 93.8254 93.6214C93.9213 81.5447 94.0172 69.4679 94.1133 57.3916Z" fill="#F1ECBD"/>
<path d="M68.0712 57.3916C67.7617 57.3916 67.4517 57.3916 67.1422 57.3916C67.301 69.4679 67.4593 81.5447 67.6176 93.6214C67.9185 93.6214 68.2193 93.6214 68.5202 93.6214C68.3705 81.5447 68.2209 69.4679 68.0712 57.3916Z" fill="#F1ECBD"/>
<path d="M93.8906 93.6001C85.0965 93.6001 76.3025 93.6001 67.5085 93.6001C67.5217 94.5929 67.5346 95.5863 67.5481 96.5791C76.3208 96.5791 85.0937 96.5791 93.8667 96.5791C93.8748 95.5863 93.8829 94.5929 93.8906 93.6001Z" fill="#F1ECBD"/>
<path opacity="0.8" d="M93.8906 93.6001C85.0965 93.6001 76.3025 93.6001 67.508 93.6001C67.5141 94.027 67.5192 94.4535 67.5252 94.8804C76.3101 94.8804 85.0953 94.8804 93.8804 94.8804C93.8837 94.4535 93.8873 94.027 93.8906 93.6001Z" fill="url(#paint6_linear)"/>
<path d="M70.8672 90.5085C77.5197 90.5085 84.1721 90.5085 90.8243 90.5085C90.8226 90.8153 90.821 91.1216 90.8193 91.4284C84.1721 91.4284 77.5245 91.4284 70.8771 91.4284C70.8738 91.1216 70.8707 90.8153 70.8672 90.5085Z" fill="#E04BCB"/>
<path d="M116.372 108.11C115.767 108.11 115.164 108.11 114.56 108.11C114.977 91.321 115.395 74.5321 115.813 57.7432C116.442 57.7432 117.071 57.7432 117.7 57.7432C117.257 74.5321 116.814 91.321 116.372 108.11Z" fill="#B341B7"/>
<path d="M113.954 108.11C113.351 108.11 112.747 108.11 112.143 108.11C112.528 91.321 112.913 74.5321 113.297 57.7432C113.926 57.7432 114.555 57.7432 115.184 57.7432C114.774 74.5321 114.364 91.321 113.954 108.11Z" fill="#B341B7"/>
<path d="M114.552 110.224C114.32 110.224 114.089 110.224 113.858 110.224C114.284 92.7307 114.71 75.2369 115.137 57.7432C115.378 57.7432 115.619 57.7432 115.86 57.7432C115.424 75.2369 114.988 92.7307 114.552 110.224Z" fill="#632F6B"/>
<path opacity="0.5" d="M129.402 109.72C119.143 109.72 108.883 109.72 98.6239 109.72C98.6216 109.917 98.6191 110.113 98.6168 110.31C108.872 110.31 119.126 110.31 129.381 110.31C129.388 110.113 129.395 109.917 129.402 109.72Z" fill="#7154A1"/>
<rect width="13.7737" height="27.7988" fill="black" fill-opacity="0" transform="translate(116.202 58.2778)"/>
<path d="M116.202 86.0762C116.218 85.4449 116.235 84.8142 116.251 84.1829C120.515 84.1829 124.779 84.1829 129.044 84.1829C129.021 84.8142 128.998 85.4455 128.976 86.0768C124.718 86.0762 120.46 86.0762 116.202 86.0762Z" fill="#B341B7"/>
<path d="M116.536 73.1239C116.552 72.4923 116.568 71.8615 116.585 71.2302C120.893 71.2302 125.201 71.2302 129.51 71.2302C129.487 71.8615 129.464 72.4928 129.442 73.1241C125.14 73.1241 120.838 73.1239 116.536 73.1239Z" fill="#B341B7"/>
<path d="M116.87 60.1712C116.886 59.5404 116.902 58.9091 116.918 58.2778C121.271 58.2778 125.623 58.2783 129.976 58.2783C129.953 58.9091 129.93 59.5404 129.907 60.1717C125.562 60.1717 121.216 60.1712 116.87 60.1712Z" fill="#B341B7"/>
<rect width="28.1416" height="51.4125" fill="black" fill-opacity="0" transform="translate(100.436 58.2778)"/>
<rect width="28.1416" height="12.5552" fill="black" fill-opacity="0" transform="translate(100.436 97.135)"/>
<path d="M115.917 97.135C115.825 100.689 115.734 104.243 115.643 107.797C115.639 107.948 115.634 108.1 115.631 108.252C115.618 108.731 115.606 109.211 115.594 109.69C119.771 109.69 123.949 109.69 128.126 109.69C128.144 109.212 128.161 108.733 128.178 108.254C128.183 108.102 128.189 107.949 128.194 107.797C128.322 104.244 128.45 100.69 128.578 97.1373C124.358 97.1363 120.137 97.1358 115.917 97.135Z" fill="#B341B7"/>
<path d="M100.461 107.797C100.459 107.948 100.458 108.1 100.456 108.252C100.449 108.731 100.443 109.211 100.436 109.69C104.614 109.69 108.791 109.69 112.969 109.69C112.98 109.212 112.992 108.733 113.003 108.254C113.006 108.102 113.01 107.949 113.014 107.797C113.098 104.244 113.182 100.69 113.266 97.1373C109.045 97.1363 104.825 97.1358 100.605 97.135C100.557 100.689 100.509 104.243 100.461 107.797Z" fill="#B341B7"/>
<path d="M100.753 86.0762C100.762 85.4449 100.77 84.8142 100.778 84.1829C105.043 84.1829 109.307 84.1829 113.571 84.1829C113.557 84.8142 113.542 85.4455 113.527 86.0768C109.269 86.0762 105.011 86.0762 100.753 86.0762Z" fill="#B341B7"/>
<path d="M100.927 73.1239C100.936 72.4923 100.944 71.8615 100.952 71.2302C105.261 71.2302 109.569 71.2302 113.878 71.2302C113.863 71.8615 113.848 72.4928 113.833 73.1241C109.531 73.1241 105.229 73.1239 100.927 73.1239Z" fill="#B341B7"/>
<path d="M101.101 60.1712C101.11 59.5404 101.118 58.9091 101.127 58.2778C105.479 58.2778 109.831 58.2783 114.184 58.2783C114.169 58.9091 114.154 59.5404 114.139 60.1717C109.793 60.1717 105.447 60.1712 101.101 60.1712Z" fill="#B341B7"/>
<path opacity="0.5" d="M76 90.6622C77.5441 80.598 79.1334 70.5337 80.7671 60.4695C82.9569 60.4695 85.1466 60.4695 87.3364 60.4695C85.7435 70.5337 84.1936 80.598 82.6865 90.6622C80.4576 90.6622 78.2288 90.6622 76 90.6622Z" fill="white" fill-opacity="0.5"/>
<path d="M112.043 98.2646C108.483 98.2646 104.922 98.2646 101.362 98.2646C101.284 97.8919 101.206 97.5187 101.128 97.146C104.889 97.146 108.65 97.146 112.411 97.146C112.288 97.5187 112.166 97.8914 112.043 98.2646Z" fill="#E04BCB"/>
<path d="M113.418 84.6066C109.463 84.6066 105.508 84.6066 101.554 84.6066C101.472 84.4692 101.39 84.3313 101.308 84.1934C105.176 84.1934 109.045 84.1934 112.914 84.1934C113.082 84.3313 113.25 84.4692 113.418 84.6066Z" fill="#E04BCB"/>
<path d="M113.723 71.6249C109.727 71.6249 105.732 71.6249 101.736 71.6254C101.653 71.4875 101.57 71.3496 101.488 71.2117C105.396 71.2117 109.305 71.2117 113.214 71.2117C113.383 71.3496 113.553 71.487 113.723 71.6249Z" fill="#E04BCB"/>
<path opacity="0.3" d="M101.815 72.7688C105.518 72.7683 109.221 72.7683 112.924 72.7683C113.005 72.9062 113.087 73.0442 113.168 73.1821C109.266 73.1821 105.363 73.1821 101.46 73.1821C101.578 73.0442 101.697 72.9062 101.815 72.7688Z" fill="#632F6B"/>
<path opacity="0.3" d="M117.61 72.7688C121.242 72.7683 124.875 72.7683 128.508 72.7683C128.588 72.9062 128.667 73.0442 128.748 73.1821C124.915 73.1821 121.082 73.1821 117.25 73.1821C117.37 73.0442 117.489 72.9062 117.61 72.7688Z" fill="#632F6B"/>
<path opacity="0.3" d="M101.632 85.6919C105.297 85.6919 108.963 85.6919 112.628 85.6919C112.708 85.8293 112.789 85.9672 112.87 86.1052C109.007 86.1052 105.144 86.1052 101.281 86.1052C101.398 85.9672 101.515 85.8293 101.632 85.6919Z" fill="#632F6B"/>
<path opacity="0.3" d="M117.284 85.6919C120.818 85.6919 124.353 85.6919 127.887 85.6919C127.966 85.8293 128.045 85.9672 128.124 86.1052C124.392 86.1052 120.659 86.1052 116.927 86.1052C117.046 85.9672 117.165 85.8293 117.284 85.6919Z" fill="#632F6B"/>
<path opacity="0.3" d="M101.998 59.7866C105.739 59.7866 109.48 59.7866 113.221 59.7861C113.304 59.9241 113.386 60.062 113.468 60.1994C109.525 60.1994 105.583 60.1994 101.64 60.1994C101.759 60.062 101.879 59.9241 101.998 59.7866Z" fill="#632F6B"/>
<path opacity="0.3" d="M117.742 59.7861C121.483 59.7861 125.224 59.7861 128.965 59.7861C129.046 59.9241 129.127 60.062 129.207 60.1994C125.265 60.1994 121.322 60.1994 117.379 60.1994C117.5 60.062 117.621 59.9241 117.742 59.7861Z" fill="#632F6B"/>
<path d="M127.203 98.2646C123.759 98.2646 120.315 98.2646 116.871 98.2646C116.798 97.8919 116.725 97.5187 116.652 97.146C120.296 97.146 123.94 97.146 127.584 97.146C127.457 97.5187 127.33 97.8914 127.203 98.2646Z" fill="#E04BCB"/>
<path d="M128.548 84.6066C124.771 84.6066 120.995 84.6066 117.218 84.6066C117.138 84.4692 117.058 84.3313 116.977 84.1934C120.668 84.1934 124.358 84.1934 128.049 84.1934C128.215 84.3313 128.382 84.4692 128.548 84.6066Z" fill="#E04BCB"/>
<path d="M129.004 71.6249C125.2 71.6249 121.397 71.6249 117.593 71.6254C117.512 71.4875 117.431 71.3496 117.35 71.2117C121.066 71.2117 124.783 71.2117 128.499 71.2117C128.667 71.3496 128.835 71.487 129.004 71.6249Z" fill="#E04BCB"/>
<path d="M139.195 36.9395C102.558 36.9983 65.9248 37.0571 29.2969 37.116C29.2441 35.864 29.1916 34.6116 29.1389 33.3596C65.8748 33.3596 102.611 33.3596 139.347 33.3596C139.297 34.553 139.246 35.7464 139.195 36.9395Z" fill="url(#paint7_linear)"/>
<g opacity="0.5">
<rect width="109.262" height="35.5655" fill="black" fill-opacity="0" transform="translate(30.2117 34.543)"/>
<path opacity="0.5" d="M138.738 65.8654C138.986 57.8781 139.231 49.8903 139.474 41.903C103.259 39.4498 66.8388 36.9962 30.2117 34.543C30.5404 42.6692 30.8692 50.7954 31.1982 58.9217C31.1985 58.9217 31.1985 58.9217 31.1985 58.9217C31.1987 58.9242 31.1985 58.9267 31.1985 58.9288C31.2908 61.1771 33.2193 63.1262 35.5044 63.2829C37.7888 63.4396 39.5785 61.745 39.5037 59.4962C39.5037 59.4939 39.5037 59.4911 39.5037 59.4886C39.507 59.4891 39.5105 59.4893 39.5141 59.4896C39.5141 59.4921 39.5136 59.4946 39.5138 59.4972C39.5511 60.5899 40.0245 61.6111 40.7617 62.3905C41.5415 63.216 42.6158 63.7702 43.7896 63.8503C46.0717 64.0073 47.8728 62.3129 47.8124 60.0641C47.8124 60.0615 47.8124 60.059 47.8124 60.059C47.8152 60.0567 47.8185 60.057 47.8215 60.057C47.8215 60.06 47.8215 60.0626 47.8215 60.0648C47.8847 62.3129 49.7865 64.2621 52.0666 64.4185C54.3472 64.5749 56.1589 62.8803 56.1128 60.632C56.1128 60.6295 56.1123 60.6272 56.112 60.6244C56.1158 60.6244 56.1191 60.6244 56.1224 60.6249C56.1229 60.6274 56.1219 60.63 56.1224 60.6322C56.1709 62.8803 58.059 64.8297 60.3378 64.9862C62.6163 65.1428 64.4375 63.4482 64.4063 61.1999C64.4063 61.1969 64.4058 61.1948 64.4058 61.1923C64.4192 61.1933 64.4327 61.1941 64.4461 61.1951C64.4461 61.1974 64.4456 61.1999 64.4461 61.2024C64.4796 63.4503 66.3543 65.3994 68.6305 65.5561C70.9078 65.7128 72.7389 64.0177 72.7221 61.7698C72.7221 61.7698 72.7216 61.7648 72.7216 61.7617C72.7252 61.7622 72.7287 61.7622 72.732 61.7627C72.732 61.7653 72.7318 61.7678 72.7318 61.7678C72.7513 64.0182 74.612 65.9673 76.887 66.124C79.1612 66.2802 81.0027 64.5856 81.0007 62.3373C81.0007 62.3352 81.0007 62.3327 81.0004 62.3296C81.0007 62.3296 81.0007 62.3296 81.0007 62.3296C81.0007 62.3319 81.0007 62.3352 81.0007 62.3373C81.0057 64.5856 82.853 66.5347 85.1255 66.6909C87.3984 66.8476 89.2493 65.153 89.262 62.9047C89.262 62.9021 89.262 62.9001 89.262 62.8971C89.2655 62.8971 89.2691 62.8976 89.2726 62.8976C89.2726 62.9001 89.2721 62.9026 89.2721 62.9052C89.2622 65.1535 91.0961 67.1021 93.367 67.2588C93.4345 67.2634 93.5019 67.2664 93.5689 67.268C95.746 67.3141 97.5004 65.654 97.5263 63.4726C97.5263 63.47 97.5263 63.4675 97.5263 63.465C97.5296 63.465 97.5329 63.465 97.5362 63.4655C97.5359 63.4675 97.5349 63.4705 97.5349 63.4705C97.5111 65.7209 99.332 67.6701 101.6 67.8267C103.869 67.9832 105.74 66.2883 105.782 64.04C105.782 64.0374 105.782 64.0349 105.782 64.0324C105.786 64.0326 105.789 64.0329 105.793 64.0329C105.793 64.0354 105.792 64.0385 105.792 64.0405C105.768 65.4192 106.614 66.6965 107.658 67.5058C108.317 68.0164 108.95 68.3338 109.827 68.3947C112.093 68.5508 113.976 66.8562 114.032 64.6079C114.032 64.6059 114.031 64.6028 114.031 64.6003C114.035 64.6003 114.038 64.6008 114.042 64.6008C114.042 64.6033 114.041 64.6064 114.041 64.6084C113.987 66.8567 115.781 68.8054 118.045 68.9621C120.31 69.1187 122.202 67.4241 122.273 65.1758C122.274 65.1733 122.273 65.1707 122.273 65.1682C122.277 65.1682 122.28 65.1687 122.283 65.1687C122.283 65.1712 122.283 65.1738 122.283 65.1763C122.215 67.4246 123.995 69.3733 126.257 69.53C128.235 69.6669 129.762 68.3779 130.217 66.5525C130.283 66.2893 130.323 66.015 130.334 65.7316C130.334 65.729 130.334 65.7265 130.334 65.7239C130.34 65.7245 130.346 65.7247 130.352 65.725C130.352 65.7275 130.352 65.73 130.352 65.7326C130.27 67.9809 132.21 69.9417 134.471 70.0984C136.732 70.2551 138.645 68.56 138.744 66.3121C138.751 66.1621 138.748 66.0125 138.738 65.8654Z" fill="#2E1060"/>
</g>
<rect width="128.355" height="28.5037" fill="black" fill-opacity="0" transform="translate(19.7659 34.5608)"/>
<path d="M19.7669 51.1196C23.4846 51.1556 27.202 51.1911 30.9194 51.2271C31.0817 55.1731 31.2443 59.1191 31.4069 63.0646C27.5617 59.0831 23.6814 55.1011 19.7669 51.1196Z" fill="#7C1D9E"/>
<path d="M147.916 51.1196C144.448 51.1556 140.98 51.1911 137.512 51.2271C137.347 55.1731 137.183 59.1191 137.019 63.0646C140.393 59.0831 143.797 55.1011 147.232 51.1196C147.46 51.1196 147.688 51.1196 147.916 51.1196Z" fill="#7C1D9E"/>
<rect width="128.345" height="9.42584" fill="black" fill-opacity="0" transform="translate(19.7661 46.9211)"/>
<path d="M29.6282 51.1052C29.5305 48.7945 29.4983 48.3052 26.769 48.3052C24.0363 48.3052 19.7512 50.8562 19.7662 51.1047C19.8836 53.4154 22.2289 56.3462 24.9387 56.3467C27.6479 56.3467 29.7235 53.4164 29.6282 51.1052Z" fill="#C42929"/>
<path d="M39.5026 51.1054C39.4247 48.7947 37.1446 46.9211 34.4105 46.9211C31.6771 46.9206 29.5409 48.7937 29.6403 51.1049C29.74 53.4161 32.0629 56.347 34.7722 56.347C37.482 56.347 39.5804 53.4167 39.5026 51.1054Z" fill="#B3B3B3"/>
<path d="M49.3765 51.1054C49.3161 48.7947 47.0502 46.9211 44.3166 46.9211C41.583 46.9206 39.4325 48.7937 39.514 51.1049C39.5961 53.4161 41.8965 56.347 44.6063 56.347C47.3156 56.347 49.4363 53.4167 49.3765 51.1054Z" fill="#C42929"/>
<path d="M59.2502 51.1054C59.207 48.7947 56.9564 46.9211 54.2223 46.9211C51.4891 46.9206 49.3242 48.7937 49.3879 51.1049C49.4521 53.4161 51.7301 56.347 54.4394 56.347C57.1492 56.347 59.292 53.4167 59.2502 51.1054Z" fill="#B3B3B3"/>
<path d="M69.1606 51.1054C69.1355 48.7947 66.8988 46.9211 64.1649 46.9211C61.431 46.9206 59.2517 48.7937 59.2978 51.1049C59.344 53.4161 61.5997 56.347 64.3095 56.347C67.0188 56.347 69.1847 53.4167 69.1606 51.1054Z" fill="#C42929"/>
<path d="M79.0341 51.1054C79.027 48.7947 76.8043 46.9211 74.0714 46.9211C71.3372 46.9206 69.1434 48.7937 69.1716 51.1049C69.2 53.4161 71.4336 56.347 74.1437 56.347C76.8525 56.347 79.0407 53.4167 79.0341 51.1054Z" fill="#B3B3B3"/>
<path d="M88.8966 51.1054C88.9073 48.7947 86.6992 46.9211 83.9659 46.9211C81.232 46.9206 79.0234 48.7937 79.0341 51.1049C79.0453 53.4161 81.2558 56.347 83.9654 56.347C86.6749 56.347 88.8855 53.4167 88.8966 51.1054Z" fill="#C42929"/>
<path d="M98.7707 51.1054C98.7992 48.7947 96.6059 46.9211 93.8717 46.9211C91.1376 46.9206 88.9151 48.7937 88.908 51.1049C88.9011 53.4161 91.0894 56.347 93.7992 56.347C96.5089 56.347 98.7423 53.4167 98.7707 51.1054Z" fill="#B3B3B3"/>
<path d="M108.644 51.1054C108.69 48.7947 106.511 46.9211 103.777 46.9211C101.044 46.9206 98.8073 48.7937 98.7819 51.1049C98.7576 53.4161 100.923 56.347 103.633 56.347C106.342 56.347 108.598 53.4167 108.644 51.1054Z" fill="#C42929"/>
<path d="M118.518 51.1054C118.582 48.7947 116.417 46.9211 113.684 46.9211C110.95 46.9206 108.699 48.7937 108.656 51.1049C108.614 53.4161 110.757 56.347 113.466 56.347C116.176 56.347 118.454 53.4167 118.518 51.1054Z" fill="#B3B3B3"/>
<path d="M128.392 51.1054C128.474 48.7947 126.323 46.9211 123.59 46.9211C120.856 46.9206 118.59 48.7937 118.53 51.1049C118.47 53.4161 120.59 56.347 123.3 56.347C126.009 56.347 128.31 53.4167 128.392 51.1054Z" fill="#C42929"/>
<path d="M148.111 51.0878C148.123 50.891 144.651 48.3228 141.919 48.3228C139.189 48.3228 138.346 48.7766 138.249 51.0878C138.153 53.3985 140.229 56.3293 142.939 56.3293C145.648 56.3293 147.994 53.399 148.111 51.0878Z" fill="#C42929"/>
<path d="M138.266 51.1054C138.365 48.7947 136.229 46.9211 133.496 46.9211C130.762 46.9211 128.482 48.7937 128.404 51.1049C128.326 53.4161 130.424 56.347 133.134 56.347C135.843 56.347 138.167 53.4167 138.266 51.1054Z" fill="#B3B3B3"/>
<rect width="128.152" height="16.5364" fill="black" fill-opacity="0" transform="translate(19.7659 34.5608)"/>
<path d="M147.918 51.0972C105.2 51.0972 62.4831 51.0972 19.7659 51.0972C23.0648 45.5849 26.4095 40.0726 29.8002 34.5608C65.8385 34.5608 101.877 34.5608 137.915 34.5613C141.295 40.0731 144.629 45.5854 147.918 51.0972Z" fill="url(#paint8_linear)"/>
<rect width="128.354" height="16.5694" fill="black" fill-opacity="0" transform="translate(19.7672 34.5613)"/>
<path d="M29.6417 51.12C26.3499 51.12 23.0587 51.12 19.7672 51.12C23.0658 45.6006 26.4103 40.0807 29.8005 34.5618C32.5772 34.5618 35.354 34.5618 38.1308 34.5618C35.2622 40.0807 32.4321 45.6006 29.6417 51.12Z" fill="url(#paint9_linear)"/>
<path d="M49.3885 51.121C46.097 51.121 42.8053 51.121 39.5135 51.121C41.7972 45.6011 44.1127 40.0812 46.4598 34.5613C49.2371 34.5613 52.0138 34.5613 54.7906 34.5613C52.9651 40.0812 51.1645 45.6011 49.3885 51.121Z" fill="url(#paint10_linear)"/>
<path d="M69.1346 51.1231C65.8434 51.1231 62.5516 51.1231 59.2599 51.1231C60.5288 45.6026 61.8154 40.0817 63.1194 34.5613C65.8961 34.5613 68.6729 34.5613 71.4499 34.5613C70.6673 40.0817 69.8959 45.6026 69.1346 51.1231Z" fill="url(#paint11_linear)"/>
<path d="M88.8812 51.1251C85.5894 51.1251 82.298 51.1251 79.0062 51.1251C79.2602 45.6036 79.5171 40.0822 79.7779 34.5613C82.5552 34.5613 85.3325 34.5613 88.1095 34.5613C88.37 40.0822 88.6272 45.6036 88.8812 51.1251Z" fill="url(#paint12_linear)"/>
<path d="M108.628 51.1271C105.337 51.1271 102.045 51.1271 98.7531 51.1271C97.9921 45.6052 97.2204 40.0835 96.438 34.5613C99.2153 34.5613 101.992 34.5613 104.769 34.5613C106.073 40.0835 107.359 45.6052 108.628 51.1271Z" fill="url(#paint13_linear)"/>
<path d="M128.374 51.1291C125.083 51.1291 121.791 51.1291 118.499 51.1291C116.723 45.6062 114.923 40.0837 113.098 34.5613C115.874 34.5613 118.651 34.5613 121.429 34.5613C123.775 40.0837 126.091 45.6062 128.374 51.1291Z" fill="url(#paint14_linear)"/>
<path d="M148.121 51.1307C144.829 51.1307 141.537 51.1307 138.246 51.1307C135.455 45.6077 132.626 40.0842 129.757 34.5613C132.534 34.5613 135.311 34.5613 138.088 34.5613C141.479 40.0842 144.823 45.6077 148.121 51.1307Z" fill="url(#paint15_linear)"/>
<path opacity="0.7" d="M139.408 30.3325C102.61 30.3325 65.8104 30.3325 29.0118 30.3325C29.0392 30.9897 29.0671 31.6468 29.0945 32.3035C65.8381 32.3035 102.581 32.3035 139.324 32.3035C139.352 31.6468 139.38 30.9897 139.408 30.3325Z" fill="url(#paint16_linear)"/>
<path d="M140.524 30.9586C102.855 30.9586 65.1848 30.9586 27.5151 30.9586C27.41 28.5282 27.3055 26.0979 27.2005 23.667C65.0803 23.667 102.96 23.667 140.84 23.667C140.735 26.0979 140.63 28.5282 140.524 30.9586Z" fill="#DDDAE5"/>
<path opacity="0.4" d="M28.2705 30.9586C28.0186 30.9586 27.7667 30.9586 27.5151 30.9586C27.41 28.5282 27.3055 26.0979 27.2005 23.667C27.4537 23.667 27.7066 23.667 27.9595 23.667C28.0633 26.0979 28.1668 28.5282 28.2705 30.9586Z" fill="#FFD4E3"/>
<path opacity="0.4" d="M140.474 30.9724C140.163 30.9724 139.851 30.9724 139.54 30.9724C139.644 28.5258 139.748 26.0787 139.852 23.6323C140.165 23.6323 140.478 23.6323 140.791 23.6323C140.686 26.0787 140.58 28.5258 140.474 30.9724Z" fill="#BBB7C4"/>
<path opacity="0.6" d="M140.514 30.05C140.5 30.3563 140.487 30.6626 140.474 30.9689C102.819 30.9689 65.1638 30.9689 27.509 30.9689C27.4958 30.6626 27.4826 30.3563 27.4694 30.05C65.1508 30.05 102.832 30.05 140.514 30.05Z" fill="#BBB7C4"/>
<path opacity="0.3" d="M140.71 25.522C140.475 27.3342 140.241 29.1465 140.007 30.9587C102.538 29.7433 64.9646 28.5284 27.2857 27.3129C27.2604 26.7161 27.2345 26.1193 27.2086 25.5227C65.042 25.5225 102.876 25.5225 140.71 25.522Z" fill="black"/>
<rect width="26.221" height="3.71375" fill="black" fill-opacity="0" transform="translate(36.3119 90.4277)"/>
<path d="M61.7242 90.5435C53.2326 91.5523 44.7622 92.5603 36.312 93.5686C36.5948 93.7501 36.8779 93.9307 37.1605 94.1122C45.299 94.1218 53.437 94.1315 61.5753 94.1416C61.8944 93.9748 62.2136 93.8085 62.5329 93.6421C62.2638 92.6092 61.9941 91.5763 61.7242 90.5435Z" fill="#C9CECA"/>
<path d="M61.7648 90.4277C53.4393 90.4277 45.1133 90.4277 36.7876 90.4277C36.9122 91.6558 37.0365 92.884 37.1605 94.1121C45.3061 94.1121 53.4517 94.1121 61.5974 94.1121C61.6529 92.884 61.709 91.6558 61.7648 90.4277Z" fill="#F0FCF5"/>
<path d="M60.9812 91.9973C53.2072 91.9973 45.433 91.9973 37.6587 91.9973C37.6075 91.6505 37.5563 91.3036 37.5048 90.9568C45.3625 90.9568 53.2199 90.9568 61.0773 90.9568C61.0454 91.3036 61.0134 91.6505 60.9812 91.9973Z" fill="#BFBFBF"/>
<path d="M61.7075 91.9971C53.45 91.9971 45.1925 91.9971 36.9352 91.9971C36.9573 92.2012 36.9789 92.4053 37.0009 92.6091C45.2232 92.6061 53.4457 92.603 61.6679 92.5995C61.6813 92.3987 61.6943 92.1979 61.7075 91.9971Z" fill="white"/>
<path opacity="0.4" d="M37.094 93.5686C37.0709 93.2486 37.0479 92.9286 37.025 92.6087C45.2254 92.6061 53.4259 92.6036 61.6268 92.6011C61.6156 92.9238 61.6045 93.2461 61.593 93.5686C53.4269 93.5686 45.2604 93.5686 37.094 93.5686Z" fill="#C9CECA"/>
<rect width="26.2187" height="3.71375" fill="black" fill-opacity="0" transform="translate(67.4801 90.4277)"/>
<path d="M92.9682 90.5435C84.4515 91.5523 75.9555 92.5603 67.4801 93.5686C67.7581 93.7501 68.0362 93.9307 68.3145 94.1122C76.4527 94.1218 84.5907 94.1315 92.7287 94.1416C93.0519 93.9748 93.3756 93.8085 93.6988 93.6421C93.4558 92.6092 93.2122 91.5763 92.9682 90.5435Z" fill="#C9CECA"/>
<path d="M93.0118 90.4277C84.6861 90.4277 76.3601 90.4277 68.0341 90.4277C68.1277 91.6558 68.2213 92.884 68.3144 94.1121C76.4598 94.1121 84.6054 94.1121 92.751 94.1121C92.8378 92.884 92.9246 91.6558 93.0118 90.4277Z" fill="#F0FCF5"/>
<path d="M92.1886 91.9973C84.4141 91.9973 76.6399 91.9973 68.8657 91.9973C68.823 91.6505 68.7804 91.3036 68.7375 90.9568C76.5952 90.9568 84.4532 90.9568 92.3106 90.9568C92.27 91.3036 92.2295 91.6505 92.1886 91.9973Z" fill="#BFBFBF"/>
<path d="M92.9147 91.9971C84.6572 91.9971 76.3999 91.9971 68.1427 91.9971C68.1594 92.2012 68.1762 92.4053 68.1929 92.6091C76.4152 92.6061 84.6376 92.603 92.8604 92.5995C92.8784 92.3987 92.8967 92.1979 92.9147 91.9971Z" fill="white"/>
<path opacity="0.4" d="M68.2619 93.5686C68.2467 93.2486 68.2315 92.9286 68.2165 92.6087C76.4172 92.6061 84.6176 92.6036 92.8185 92.6011C92.7992 92.9238 92.7802 93.2461 92.7609 93.5686C84.5947 93.5686 76.4281 93.5686 68.2619 93.5686Z" fill="#C9CECA"/>
<rect width="21.0799" height="29.8312" fill="black" fill-opacity="0" transform="translate(1.91541 85.0107)"/>
<rect width="21.0799" height="29.8312" fill="black" fill-opacity="0" transform="translate(1.91541 85.0107)"/>
<path d="M4.1529 103.719H2.52454V114.842H4.1529V103.719Z" fill="#FFB74D"/>
<path d="M22.3861 103.719H20.7577V114.842H22.3861V103.719Z" fill="#FFB74D"/>
<path d="M22.9953 85.0107H1.91541V113.178H22.9953V85.0107Z" fill="#FFCC80"/>
<path d="M21.572 86.4336H3.33884V111.755H21.572V86.4336Z" fill="#212121"/>
<rect width="12.4979" height="23.4297" fill="black" fill-opacity="0" transform="translate(87.45 91.0586)"/>
<path d="M99.8496 110.044C99.6278 109.322 98.81 108.733 98.1149 109.03C98.8683 108.273 99.6715 107.4 99.6801 106.332C99.6885 105.267 98.3227 104.27 97.538 104.994C97.8856 104.379 98.1783 103.682 98.0713 102.984C97.9622 102.285 97.3112 101.633 96.6157 101.76C97.8338 100.693 97.5888 98.4197 96.1697 97.6388C96.6329 96.883 96.882 95.9979 96.8846 95.1116C96.8856 94.7059 96.8079 94.2501 96.4807 94.0123C96.226 93.8272 95.809 93.9174 95.6573 94.1537C95.864 93.2182 95.5568 92.1767 94.8511 91.5226C94.571 91.2634 94.2148 91.0581 93.8326 91.0586C93.1327 91.0621 92.605 91.7741 92.5492 92.4703C92.4929 93.167 92.7821 93.8393 93.0642 94.4782C91.812 94.2582 90.6902 95.5073 90.5548 96.7707C90.418 98.0345 90.9718 99.2594 91.5127 100.41C91.3057 99.9074 90.574 99.8105 90.1197 100.107C89.6649 100.403 89.4437 100.95 89.3206 101.478C88.9033 103.267 89.3468 105.236 90.4906 106.672C89.8318 105.967 88.5294 106.735 88.4239 107.694C88.3183 108.653 88.9345 109.527 89.519 110.295C89.1826 109.631 88.0768 109.766 87.6831 110.397C87.2892 111.028 87.4459 111.862 87.7724 112.532C88.0981 113.2 88.5784 113.793 88.8424 114.488L98.9221 113.663C99.326 113.314 99.5046 112.778 99.6568 112.267C99.8739 111.543 100.074 110.765 99.8496 110.044Z" fill="#579326"/>
<rect width="58.8907" height="28.5216" fill="black" fill-opacity="0" transform="translate(16.2322 89.3669)"/>
<rect width="14.4611" height="27.1082" fill="black" fill-opacity="0" transform="translate(16.2322 89.3669)"/>
<path d="M30.5808 111.332C30.3218 110.497 29.3766 109.816 28.572 110.159C29.4431 109.284 30.3721 108.274 30.3827 107.039C30.3913 105.805 28.8132 104.652 27.9048 105.489C28.3076 104.778 28.646 103.971 28.5207 103.164C28.3959 102.355 27.642 101.601 26.8373 101.747C28.2475 100.514 27.9624 97.8841 26.3218 96.9795C26.8566 96.1043 27.1458 95.0806 27.1483 94.0548C27.1491 93.5862 27.0608 93.0609 26.681 92.7836C26.3873 92.5691 25.9038 92.674 25.7282 92.9473C25.9682 91.8632 25.6123 90.66 24.7957 89.9039C24.471 89.6032 24.059 89.3649 23.6171 89.367C22.8079 89.3695 22.1965 90.194 22.1316 90.9992C22.0682 91.8054 22.4015 92.5838 22.729 93.3231C21.2795 93.0685 19.9814 94.5132 19.8246 95.975C19.6668 97.4379 20.3074 98.8536 20.9322 100.186C20.6945 99.6051 19.8472 99.4931 19.3208 99.8348C18.7952 100.178 18.5392 100.811 18.3972 101.422C17.9144 103.492 18.4274 105.77 19.7495 107.432C18.9875 106.615 17.4816 107.505 17.3599 108.615C17.2376 109.724 17.9499 110.734 18.626 111.623C18.2368 110.855 16.957 111.011 16.5022 111.741C16.0461 112.471 16.2275 113.437 16.6054 114.212C16.9832 114.986 17.538 115.67 17.8429 116.475L29.5055 115.519C29.9728 115.117 30.1803 114.497 30.3563 113.905C30.6065 113.068 30.8383 112.168 30.5808 111.332Z" fill="#79A958"/>
<rect width="28.6786" height="23.46" fill="black" fill-opacity="0" transform="translate(29.3124 93.9001)"/>
<path d="M57.8627 110.241C57.5421 109.681 56.7227 109.702 56.1133 109.913C55.7704 110.032 55.4469 110.196 55.1397 110.385C55.4959 109.628 55.7645 108.831 55.9297 108.011C56.0611 107.36 56.0314 106.511 55.4218 106.244C54.9888 106.055 54.4926 106.28 54.0925 106.532C53.1935 107.099 52.4188 107.843 51.7724 108.688C53.0717 106.279 53.8871 103.61 54.1235 100.883C51.9068 101.755 50.1788 103.705 49.4736 105.971C50.2792 102.175 50.9005 98.2651 49.9251 94.5389C46.8581 97.2028 45.3046 101.5 45.9581 105.509C44.7833 101.934 44.7425 97.973 42.9312 94.675C42.7858 94.4099 42.6161 94.1386 42.3493 93.9966C41.8673 93.7405 41.2392 94.026 40.9393 94.4808C40.6405 94.9372 40.59 95.5077 40.5694 96.0522C40.4467 99.1834 41.0068 102.34 42.1983 105.238C41.0981 103.265 39.9982 101.29 38.8982 99.3162C38.1433 97.9611 37.2427 96.4858 35.7495 96.0614C35.261 97.1668 35.6156 98.4456 35.9992 99.591C36.9654 102.474 38.0869 105.306 39.3584 108.068C38.1453 105.666 36.5299 103.468 34.6014 101.591C34.2331 101.232 33.7206 100.859 33.2506 101.067C32.6907 101.315 32.7328 102.115 32.8916 102.707C33.6831 105.657 35.0697 108.443 36.9378 110.859C35.1382 108.737 33.0217 106.798 30.3421 106.198C30.0172 106.125 29.6166 106.099 29.4149 106.363C29.2057 106.638 29.3563 107.03 29.5162 107.337C31.3092 110.776 33.5707 113.973 36.2163 116.81L54.7288 117.36C56.4556 115.756 57.6131 113.552 57.9545 111.22C58.0022 110.889 58.0299 110.531 57.8627 110.241Z" fill="#579326"/>
<rect width="26.5207" height="12.0664" fill="black" fill-opacity="0" transform="translate(48.6022 105.822)"/>
<path d="M74.1139 110.562C73.1194 109.697 71.3949 109.738 70.5903 110.781C70.8952 110.289 71.2077 109.775 71.276 109.201C71.344 108.625 71.0926 107.969 70.5543 107.755C70.2511 107.634 69.9104 107.669 69.5882 107.717C68.331 107.904 67.0999 108.262 65.9393 108.778C66.1017 107.515 65.1621 106.208 63.9129 105.958C62.6626 105.708 61.293 106.554 60.9556 107.783C60.6511 106.445 59.1128 105.533 57.7942 105.906C56.4743 106.277 55.6412 107.859 56.0816 109.158C55.3054 108.56 54.3673 108.106 53.3873 108.13C52.4068 108.155 51.4025 108.755 51.126 109.695C50.9355 110.346 51.2179 111.097 51.7316 111.507C50.7265 111.166 49.6615 111.003 48.6022 111.044C49.1828 114.131 51.4913 116.834 54.4512 117.888L72.1803 116.915C73.38 116.37 74.4442 115.426 74.9026 114.192C75.3607 112.957 75.1073 111.427 74.1139 110.562Z" fill="#79A958"/>
<rect width="27.2032" height="27.1779" fill="black" fill-opacity="0" transform="translate(69.3629)"/>
<path fill-rule="evenodd" clip-rule="evenodd" d="M69.3629 14.3841C69.3629 13.853 69.3629 13.3229 69.3629 12.792C69.3852 12.6097 69.4105 12.4274 69.4298 12.2456C69.7398 9.39513 70.8139 6.87451 72.6858 4.69691C76.5054 0.254007 82.8991 -1.23093 88.2764 1.08027C94.6739 3.82907 98.0316 10.8585 95.9512 17.5036C94.3129 22.7381 90.6617 25.8743 85.2754 26.9675C84.7764 27.0692 84.2639 27.1092 83.7571 27.1779C83.2261 27.1779 82.6952 27.1779 82.1632 27.1779C82.0879 27.1612 82.0118 27.1429 81.9344 27.1303C81.0907 26.9862 80.2315 26.9071 79.4078 26.6901C74.3317 25.3601 70.4461 21.082 69.5704 15.9038C69.4856 15.3988 69.4308 14.8897 69.3629 14.3841ZM81.1394 11.6394C80.7774 11.6703 80.4344 11.6944 80.0924 11.7271C78.7964 11.8541 77.509 12.0359 76.2776 12.4773C75.8657 12.6256 75.4572 12.8178 75.096 13.0627C74.4674 13.4902 74.473 14.0297 75.0886 14.4709C75.3438 14.6559 75.6318 14.8053 75.924 14.9247C77.1295 15.4191 78.4057 15.6189 79.6891 15.7659C80.1696 15.8222 80.6518 15.8569 81.1617 15.9043C81.1617 17.9088 81.1617 19.8927 81.1617 21.8735C82.3314 21.8735 83.4697 21.8735 84.6384 21.8735C84.6384 21.7445 84.6384 21.6311 84.6384 21.517C84.6384 19.7393 84.6427 17.9617 84.6343 16.184C84.6323 15.954 84.7033 15.8982 84.9276 15.8709C86.1204 15.7258 87.3152 15.5884 88.4978 15.3818C89.3238 15.236 90.1336 14.983 90.8291 14.4785C91.4435 14.0338 91.4547 13.493 90.8302 13.0668C90.4697 12.8211 90.061 12.6267 89.6495 12.4794C88.4182 12.0369 87.132 11.8541 85.836 11.7271C85.4438 11.6891 85.0503 11.6594 84.6533 11.6255C84.6533 11.0649 84.6533 10.5368 84.6533 9.978C86.2284 9.978 87.7893 9.978 89.3641 9.978C89.3641 8.80034 89.3641 7.6564 89.3641 6.50105C85.042 6.50105 80.7383 6.50105 76.4301 6.50105C76.4301 7.66401 76.4301 8.80896 76.4301 9.98535C78.0103 9.98535 79.5709 9.98535 81.1394 9.98535C81.1394 10.5462 81.1394 11.0743 81.1394 11.6394Z" fill="#140040"/>
<path fill-rule="evenodd" clip-rule="evenodd" d="M81.1394 11.6393C81.1394 11.0742 81.1394 10.5461 81.1394 9.98528C79.5709 9.98528 78.0103 9.98528 76.4301 9.98528C76.4301 8.80889 76.4301 7.66393 76.4301 6.50098C80.7383 6.50098 85.042 6.50098 89.3642 6.50098C89.3642 7.65633 89.3642 8.80027 89.3642 9.97792C87.7893 9.97792 86.2285 9.97792 84.6534 9.97792C84.6534 10.5367 84.6534 11.0648 84.6534 11.6254C85.0504 11.6594 85.4438 11.689 85.836 11.727C87.1321 11.8541 88.4182 12.0369 89.6496 12.4793C90.061 12.6266 90.4697 12.821 90.8302 13.0667C91.4547 13.4929 91.4436 14.0337 90.8292 14.4784C90.1336 14.9829 89.3238 15.2359 88.4979 15.3817C87.3152 15.5884 86.1204 15.7258 84.9276 15.8708C84.7033 15.8982 84.6323 15.9539 84.6343 16.1839C84.6427 17.9617 84.6384 19.7392 84.6384 21.517C84.6384 21.6311 84.6384 21.7444 84.6384 21.8734C83.4697 21.8734 82.3314 21.8734 81.1617 21.8734C81.1617 19.8926 81.1617 17.9087 81.1617 15.9043C80.6518 15.8568 80.1696 15.8221 79.6891 15.7658C78.4058 15.6188 77.1295 15.419 75.924 14.9246C75.6318 14.8052 75.3439 14.6559 75.0887 14.4708C74.473 14.0296 74.4674 13.4901 75.096 13.0627C75.4573 12.8177 75.8657 12.6256 76.2777 12.4773C77.509 12.0359 78.7964 11.8541 80.0925 11.727C80.4344 11.6943 80.7774 11.6703 81.1394 11.6393ZM81.1478 12.0348C80.7627 12.0592 80.4101 12.0749 80.06 12.1048C78.8885 12.2072 77.7186 12.3299 76.5922 12.6953C76.303 12.7893 76.0199 12.9334 75.7683 13.1047C75.5148 13.2777 75.528 13.5013 75.7706 13.694C75.907 13.802 76.0638 13.9001 76.2269 13.9566C76.6356 14.094 77.0478 14.2335 77.4689 14.3227C78.9012 14.6305 80.3553 14.7362 81.815 14.7786C84.0392 14.842 86.2564 14.7743 88.4426 14.3197C88.9966 14.203 89.542 13.9957 90.0565 13.7543C90.4436 13.5725 90.4319 13.2475 90.0593 13.0267C89.782 12.8624 89.474 12.7343 89.1635 12.6413C88.0823 12.3206 86.9662 12.1958 85.8464 12.1041C85.4537 12.0729 85.061 12.0551 84.6313 12.0285C84.6313 12.7336 84.6313 13.3928 84.6313 14.0634C83.4522 14.0634 82.3081 14.0634 81.1478 14.0634C81.1478 13.3725 81.1478 12.729 81.1478 12.0348Z" fill="white"/>
<path fill-rule="evenodd" clip-rule="evenodd" d="M81.1478 12.0351C81.1478 12.7293 81.1478 13.3728 81.1478 14.0637C82.3082 14.0637 83.4522 14.0637 84.6313 14.0637C84.6313 13.3931 84.6313 12.7339 84.6313 12.0288C85.0611 12.0554 85.4538 12.0732 85.8465 12.1044C86.9662 12.1961 88.0824 12.3209 89.1636 12.6416C89.4741 12.7346 89.782 12.8627 90.0593 13.027C90.432 13.2478 90.4436 13.5728 90.0565 13.7546C89.5421 13.996 88.9966 14.2034 88.4426 14.32C86.2564 14.7746 84.0393 14.8423 81.815 14.7789C80.3553 14.7365 78.9012 14.6308 77.469 14.323C77.0479 14.2338 76.6356 14.0943 76.227 13.9569C76.0639 13.9004 75.9071 13.8023 75.7706 13.6943C75.5281 13.5016 75.5149 13.278 75.7683 13.1051C76.02 12.9337 76.3031 12.7897 76.5923 12.6956C77.7186 12.3303 78.8886 12.2075 80.0601 12.1051C80.4101 12.0752 80.7627 12.0595 81.1478 12.0351Z" fill="#140040"/>
<defs>
<linearGradient id="paint0_linear" x1="84.1699" y1="13.8996" x2="84.1699" y2="8.221" gradientUnits="userSpaceOnUse">
<stop stop-color="white" stop-opacity="0"/>
<stop offset="1" stop-opacity="0.7"/>
</linearGradient>
<linearGradient id="paint1_linear" x1="115.023" y1="138.707" x2="115.023" y2="4.21215" gradientUnits="userSpaceOnUse">
<stop offset="0.005421" stop-color="#3DDFFF"/>
<stop offset="0.169354" stop-color="#3BCFEC"/>
<stop offset="0.502419" stop-color="#35A4BA"/>
<stop offset="0.971134" stop-color="#2C606B"/>
<stop offset="1" stop-color="#2B5C66"/>
</linearGradient>
<linearGradient id="paint2_linear" x1="48.5" y1="114.11" x2="48.5" y2="53.6846" gradientUnits="userSpaceOnUse">
<stop offset="0.005421" stop-color="#3DDFFF"/>
<stop offset="0.169354" stop-color="#3BCFEC"/>
<stop offset="0.502419" stop-color="#35A4BA"/>
<stop offset="0.971134" stop-color="#2C606B"/>
<stop offset="1" stop-color="#2B5C66"/>
</linearGradient>
<linearGradient id="paint3_linear" x1="31.8801" y1="93.8562" x2="76.4201" y2="94.8343" gradientUnits="userSpaceOnUse">
<stop offset="0.005421" stop-color="#EF927F"/>
<stop offset="0.173985" stop-color="#ED8A76"/>
<stop offset="0.678282" stop-color="#E9755F"/>
<stop offset="0.994758" stop-color="#E86E56"/>
</linearGradient>
<linearGradient id="paint4_linear" x1="83.5756" y1="109.488" x2="83.5756" y2="117.435" gradientUnits="userSpaceOnUse">
<stop stop-color="#BCC9BD"/>
<stop offset="0.338482" stop-color="#A5B6A4"/>
<stop offset="0.7464" stop-color="#8FA48D"/>
<stop offset="1" stop-color="#879D84"/>
</linearGradient>
<linearGradient id="paint5_linear" x1="81" y1="113.786" x2="81" y2="51.4726" gradientUnits="userSpaceOnUse">
<stop offset="0.005421" stop-color="#3DDFFF"/>
<stop offset="0.169354" stop-color="#3BCFEC"/>
<stop offset="0.502419" stop-color="#35A4BA"/>
<stop offset="0.971134" stop-color="#2C606B"/>
<stop offset="1" stop-color="#2B5C66"/>
</linearGradient>
<linearGradient id="paint6_linear" x1="63.2202" y1="93.8569" x2="107.706" y2="94.8338" gradientUnits="userSpaceOnUse">
<stop offset="0.005421" stop-color="#EF927F"/>
<stop offset="0.173985" stop-color="#ED8A76"/>
<stop offset="0.678282" stop-color="#E9755F"/>
<stop offset="0.994758" stop-color="#E86E56"/>
</linearGradient>
<linearGradient id="paint7_linear" x1="29.1389" y1="35.2378" x2="139.347" y2="35.2378" gradientUnits="userSpaceOnUse">
<stop offset="0.128644" stop-color="#FA396B"/>
<stop offset="0.350385" stop-color="#FC4D6B"/>
<stop offset="0.629472" stop-color="#FD616C"/>
<stop offset="0.820659" stop-color="#FE686C"/>
</linearGradient>
<linearGradient id="paint8_linear" x1="83.8417" y1="58.6313" x2="83.8417" y2="24.9127" gradientUnits="userSpaceOnUse">
<stop offset="0.128041" stop-color="#D6D6D6"/>
<stop offset="0.3607" stop-color="#DBDBDB"/>
<stop offset="0.646994" stop-color="#EAEAEA"/>
<stop offset="0.913885" stop-color="white"/>
</linearGradient>
<linearGradient id="paint9_linear" x1="28.949" y1="30.2578" x2="28.949" y2="54.7141" gradientUnits="userSpaceOnUse">
<stop offset="0.128041" stop-color="#FF6363"/>
<stop offset="0.277029" stop-color="#FD5E5E"/>
<stop offset="0.460758" stop-color="#F94F4F"/>
<stop offset="0.662752" stop-color="#F23636"/>
<stop offset="0.876486" stop-color="#E81313"/>
<stop offset="0.913885" stop-color="#E60C0C"/>
</linearGradient>
<linearGradient id="paint10_linear" x1="47.1521" y1="29.9619" x2="47.1521" y2="55.2055" gradientUnits="userSpaceOnUse">
<stop offset="0.128041" stop-color="#FF6363"/>
<stop offset="0.277029" stop-color="#FD5E5E"/>
<stop offset="0.460758" stop-color="#F94F4F"/>
<stop offset="0.662752" stop-color="#F23636"/>
<stop offset="0.876486" stop-color="#E81313"/>
<stop offset="0.913885" stop-color="#E60C0C"/>
</linearGradient>
<linearGradient id="paint11_linear" x1="65.3549" y1="29.6661" x2="65.3549" y2="55.6975" gradientUnits="userSpaceOnUse">
<stop offset="0.128041" stop-color="#FF6363"/>
<stop offset="0.277029" stop-color="#FD5E5E"/>
<stop offset="0.460758" stop-color="#F94F4F"/>
<stop offset="0.662752" stop-color="#F23636"/>
<stop offset="0.876486" stop-color="#E81313"/>
<stop offset="0.913885" stop-color="#E60C0C"/>
</linearGradient>
<linearGradient id="paint12_linear" x1="83.9437" y1="29.3705" x2="83.9437" y2="56.1902" gradientUnits="userSpaceOnUse">
<stop offset="0.128041" stop-color="#FF6363"/>
<stop offset="0.277029" stop-color="#FD5E5E"/>
<stop offset="0.460758" stop-color="#F94F4F"/>
<stop offset="0.662752" stop-color="#F23636"/>
<stop offset="0.876486" stop-color="#E81313"/>
<stop offset="0.913885" stop-color="#E60C0C"/>
</linearGradient>
<linearGradient id="paint13_linear" x1="102.533" y1="29.0746" x2="102.533" y2="56.6829" gradientUnits="userSpaceOnUse">
<stop offset="0.128041" stop-color="#FF6363"/>
<stop offset="0.277029" stop-color="#FD5E5E"/>
<stop offset="0.460758" stop-color="#F94F4F"/>
<stop offset="0.662752" stop-color="#F23636"/>
<stop offset="0.876486" stop-color="#E81313"/>
<stop offset="0.913885" stop-color="#E60C0C"/>
</linearGradient>
<linearGradient id="paint14_linear" x1="120.736" y1="28.7787" x2="120.736" y2="57.1755" gradientUnits="userSpaceOnUse">
<stop offset="0.128041" stop-color="#FF6363"/>
<stop offset="0.277029" stop-color="#FD5E5E"/>
<stop offset="0.460758" stop-color="#F94F4F"/>
<stop offset="0.662752" stop-color="#F23636"/>
<stop offset="0.876486" stop-color="#E81313"/>
<stop offset="0.913885" stop-color="#E60C0C"/>
</linearGradient>
<linearGradient id="paint15_linear" x1="138.939" y1="28.4827" x2="138.939" y2="57.6675" gradientUnits="userSpaceOnUse">
<stop offset="0.128041" stop-color="#FF6363"/>
<stop offset="0.277029" stop-color="#FD5E5E"/>
<stop offset="0.460758" stop-color="#F94F4F"/>
<stop offset="0.662752" stop-color="#F23636"/>
<stop offset="0.876486" stop-color="#E81313"/>
<stop offset="0.913885" stop-color="#E60C0C"/>
</linearGradient>
<linearGradient id="paint16_linear" x1="84.21" y1="34.3001" x2="84.21" y2="28.1702" gradientUnits="userSpaceOnUse">
<stop offset="0.073472" stop-color="white"/>
<stop offset="0.250535" stop-color="#DCD5E8"/>
<stop offset="0.563915" stop-color="#A390C2"/>
<stop offset="0.790515" stop-color="#7F65AA"/>
<stop offset="0.905469" stop-color="#7154A1"/>
</linearGradient>
</defs>
</svg>
