<svg width="200" height="163" viewBox="0 0 200 163" fill="none" xmlns="http://www.w3.org/2000/svg">
<path opacity="0.3" d="M199.258 156.176C199.258 159.446 154.657 162.097 99.6371 162.097C44.6177 162.097 0.0153809 159.446 0.0153809 156.176C0.0153809 152.905 44.6177 150.254 99.6371 150.254C154.657 150.254 199.258 152.905 199.258 156.176Z" fill="black"/>
<path d="M10.9475 32.8805L10.6614 30.8779L72.0302 12.8296V32.8805H10.9475Z" fill="#4F2618"/>
<path d="M10.9478 31.8588L71.0128 14.1938V31.8588H10.9478Z" fill="#96492D"/>
<path d="M183.12 32.8805L183.406 30.8779L122.037 12.8296V32.8805H183.12Z" fill="#4F2618"/>
<path d="M183.121 31.8588L123.056 14.1938V31.8588H183.121Z" fill="#96492D"/>
<path d="M184.335 36.7859H121.109V153.989H184.335V36.7859Z" fill="#7E5C37"/>
<path d="M187.009 31.8586H118.919V36.7858H187.009V31.8586Z" fill="#3D2A14"/>
<path d="M187.009 152.99H118.919V157.918H187.009V152.99Z" fill="#D0A279"/>
<path d="M76.3631 36.7859H13.1365V153.989H76.3631V36.7859Z" fill="#7E5C37"/>
<path d="M79.0378 31.8586H10.9478V36.7858H79.0378V31.8586Z" fill="#3D2A14"/>
<path d="M79.0378 152.99H10.9478V157.918H79.0378V152.99Z" fill="#D0A279"/>
<path opacity="0.1" d="M68.0945 43.4402H61.5898V45.3932H68.0945V43.4402Z" fill="black"/>
<path opacity="0.1" d="M59.4011 45.8826H52.8965V47.8369H59.4011V45.8826Z" fill="black"/>
<path opacity="0.1" d="M36.5424 43.4402H30.0381V45.3932H36.5424V43.4402Z" fill="black"/>
<path opacity="0.1" d="M56.1489 59.1724H49.6443V61.1253H56.1489V59.1724Z" fill="black"/>
<path opacity="0.1" d="M51.7717 57.2192H45.2671V59.1722H51.7717V57.2192Z" fill="black"/>
<path opacity="0.1" d="M29.0947 70.7705H22.5901V72.7237H29.0947V70.7705Z" fill="black"/>
<path opacity="0.1" d="M33.2905 74.4333H26.7856V76.3863H33.2905V74.4333Z" fill="black"/>
<path opacity="0.1" d="M41.3447 68.3271H34.8403V70.2814H41.3447V68.3271Z" fill="black"/>
<path opacity="0.1" d="M69.9795 76.3862H63.4749V78.3392H69.9795V76.3862Z" fill="black"/>
<path opacity="0.1" d="M73.2317 74.4333H66.7271V76.3863H73.2317V74.4333Z" fill="black"/>
<path opacity="0.1" d="M49.1567 85.3599H42.6521V87.3128H49.1567V85.3599Z" fill="black"/>
<path opacity="0.1" d="M42.6523 89.6934H36.1477V91.6474H42.6523V89.6934Z" fill="black"/>
<path opacity="0.1" d="M26.8752 101.047H20.3706V103.002H26.8752V101.047Z" fill="black"/>
<path d="M137.006 96.4232C136.936 86.6063 136.865 76.7876 136.796 66.9705C136.767 63.19 139.22 60.12 142.243 60.1486C145.268 60.1775 147.757 63.2942 147.776 67.0745C147.826 76.7895 147.876 86.5037 147.925 96.2185C144.29 96.5974 140.65 96.5953 137.006 96.4232Z" fill="#F1D197"/>
<path d="M140.656 95.6434C139.752 95.635 138.825 95.6116 137.842 95.5725C137.776 86.0412 137.709 76.5101 137.642 66.9787C137.618 63.6778 139.686 61.0109 142.25 61.0356C144.814 61.06 146.915 63.7657 146.932 67.0669C146.982 76.5132 147.032 85.9604 147.081 95.4072C145.077 95.5883 142.966 95.6657 140.656 95.6434Z" fill="#3D7E9B"/>
<path d="M142.465 96.1924C142.205 96.1898 141.944 96.1877 141.683 96.1846C141.608 84.2925 141.533 72.4004 141.458 60.5083C141.721 60.5112 141.983 60.5135 142.246 60.5162C142.319 72.408 142.392 84.2998 142.465 96.1924Z" fill="#F1D197"/>
<path d="M136.913 88.4369C136.911 88.1611 136.909 87.8861 136.907 87.6104C140.581 87.6452 144.255 87.6801 147.929 87.7145C147.931 87.9908 147.932 88.2661 147.934 88.5411C144.26 88.5062 140.587 88.4713 136.913 88.4369Z" fill="#F1D197"/>
<path d="M136.818 75.1016C136.815 74.8268 136.814 74.5508 136.812 74.2769C140.494 74.3118 144.178 74.3467 147.861 74.3815C147.862 74.6557 147.864 74.9313 147.866 75.2065C144.183 75.1716 140.5 75.137 136.818 75.1016Z" fill="#F1D197"/>
<path opacity="0.1" d="M139.908 81.4869C141.473 74.4666 143.694 68.2545 146.097 63.6773C145.25 62.0967 143.839 61.0503 142.25 61.0356C139.686 61.0109 137.618 63.6778 137.642 66.9787C137.709 76.5101 137.776 86.0412 137.842 95.5725C137.874 95.5736 137.905 95.5741 137.937 95.5757C138.143 91.3179 138.79 86.5043 139.908 81.4869Z" fill="white"/>
<path d="M150.082 94.9505L134.33 94.8005L134.286 99.4378L150.038 99.5877L150.082 94.9505Z" fill="#6C6D6A"/>
<path opacity="0.2" d="M134.286 99.438L149.994 104.308L150.038 99.5881L134.286 99.438Z" fill="black"/>
<path opacity="0.1" d="M30.1284 103.002H23.6238V104.955H30.1284V103.002Z" fill="black"/>
<path opacity="0.1" d="M67.5408 98.8499H61.0361V100.804H67.5408V98.8499Z" fill="black"/>
<path opacity="0.1" d="M72.0391 101.66H65.5342V103.612H72.0391V101.66Z" fill="black"/>
<path opacity="0.1" d="M58.6645 105.199H52.1599V107.154H58.6645V105.199Z" fill="black"/>
<path opacity="0.1" d="M72.0391 122.903H65.5342V124.856H72.0391V122.903Z" fill="black"/>
<path opacity="0.1" d="M76.1128 128.457H69.6084V130.411H76.1128V128.457Z" fill="black"/>
<path opacity="0.1" d="M71.4927 130.411H64.988V132.364H71.4927V130.411Z" fill="black"/>
<path opacity="0.1" d="M45.9048 125.404H39.3999V127.358H45.9048V125.404Z" fill="black"/>
<path opacity="0.1" d="M38.9741 129.86H32.4695V131.813H38.9741V129.86Z" fill="black"/>
<path opacity="0.1" d="M33.9287 127.907H27.4243V129.86H33.9287V127.907Z" fill="black"/>
<path opacity="0.1" d="M30.676 140.895H24.1716V142.85H30.676V140.895Z" fill="black"/>
<path opacity="0.1" d="M49.8266 145.535H43.322V147.488H49.8266V145.535Z" fill="black"/>
<path opacity="0.1" d="M57.3044 139.919H50.7998V141.872H57.3044V139.919Z" fill="black"/>
<path opacity="0.1" d="M73.9622 149.259H67.4573V151.212H73.9622V149.259Z" fill="black"/>
<path opacity="0.1" d="M63.8091 151.036H57.3044V152.99H63.8091V151.036Z" fill="black"/>
<path opacity="0.1" d="M56.3313 119.721H49.8267V121.675H56.3313V119.721Z" fill="black"/>
<path d="M124.269 5.41064H71.0125V142.758H124.269V5.41064Z" fill="#5696AC"/>
<path d="M72.2616 5.41064H71.0125V142.758H72.2616V5.41064Z" fill="#3D6B7A"/>
<path d="M82.6629 5.41064H81.4141V142.758H82.6629V5.41064Z" fill="#3D6B7A"/>
<path d="M124.269 30.6045H71.0125V31.8592H124.269V30.6045Z" fill="#3D6B7A"/>
<path d="M124.269 59.1731H71.0125V60.4276H124.269V59.1731Z" fill="#3D6B7A"/>
<path d="M124.269 87.7412H71.0125V88.9954H124.269V87.7412Z" fill="#3D6B7A"/>
<path d="M124.269 116.309H71.0125V117.564H124.269V116.309Z" fill="#3D6B7A"/>
<path d="M93.0648 5.41064H91.8159V142.758H93.0648V5.41064Z" fill="#3D6B7A"/>
<path d="M103.466 5.41064H102.217V142.758H103.466V5.41064Z" fill="#3D6B7A"/>
<path d="M113.868 5.41064H112.618V142.758H113.868V5.41064Z" fill="#3D6B7A"/>
<path d="M124.269 5.41064H123.02V142.758H124.269V5.41064Z" fill="#3D6B7A"/>
<path d="M127.369 0.832275H66.9998V5.41074H127.369V0.832275Z" fill="#8EA2B3"/>
<path d="M127.005 141.719H68.2766V158.201H127.005V141.719Z" fill="#EBCEA3"/>
<path d="M127.005 140.071H68.2766V141.719H127.005V140.071Z" fill="#FAFFED"/>
<path d="M127.005 139.233H68.2766V140.369H127.005V139.233Z" fill="#93968C"/>
<path opacity="0.2" d="M124.269 9.68701H71.0125V21.8339C71.0125 21.8339 90.467 7.48975 124.269 12.1897V9.68701Z" fill="black"/>
<path opacity="0.2" d="M124.269 5.41064H71.0125V6.55519H124.269V5.41064Z" fill="black"/>
<path opacity="0.1" d="M176.066 43.4402H169.562V45.3932H176.066V43.4402Z" fill="black"/>
<path opacity="0.1" d="M167.373 45.8826H160.868V47.8369H167.373V45.8826Z" fill="black"/>
<path opacity="0.1" d="M144.514 43.4402H138.01V45.3932H144.514V43.4402Z" fill="black"/>
<path opacity="0.1" d="M164.121 59.1724H157.616V61.1253H164.121V59.1724Z" fill="black"/>
<path opacity="0.1" d="M159.743 57.2192H153.239V59.1722H159.743V57.2192Z" fill="black"/>
<path opacity="0.1" d="M137.066 70.7705H130.562V72.7237H137.066V70.7705Z" fill="black"/>
<path opacity="0.1" d="M141.262 74.4333H134.757V76.3863H141.262V74.4333Z" fill="black"/>
<path opacity="0.1" d="M149.317 68.3271H142.812V70.2814H149.317V68.3271Z" fill="black"/>
<path opacity="0.1" d="M177.951 76.3862H171.447V78.3392H177.951V76.3862Z" fill="black"/>
<path opacity="0.1" d="M181.204 74.4333H174.699V76.3863H181.204V74.4333Z" fill="black"/>
<path opacity="0.1" d="M157.129 85.3599H150.624V87.3128H157.129V85.3599Z" fill="black"/>
<path opacity="0.1" d="M150.624 89.6934H144.12V91.6474H150.624V89.6934Z" fill="black"/>
<path opacity="0.1" d="M134.847 101.047H128.343V103.002H134.847V101.047Z" fill="black"/>
<path opacity="0.1" d="M138.1 103.002H131.595V104.955H138.1V103.002Z" fill="black"/>
<path opacity="0.1" d="M175.513 98.8499H169.008V100.804H175.513V98.8499Z" fill="black"/>
<path opacity="0.1" d="M180.011 101.66H173.506V103.612H180.011V101.66Z" fill="black"/>
<path opacity="0.1" d="M166.636 105.199H160.132V107.154H166.636V105.199Z" fill="black"/>
<path opacity="0.1" d="M180.011 122.903H173.506V124.856H180.011V122.903Z" fill="black"/>
<path opacity="0.1" d="M184.085 128.457H177.58V130.411H184.085V128.457Z" fill="black"/>
<path opacity="0.1" d="M179.465 130.411H172.96V132.364H179.465V130.411Z" fill="black"/>
<path opacity="0.1" d="M153.876 125.404H147.372V127.358H153.876V125.404Z" fill="black"/>
<path opacity="0.1" d="M146.946 129.86H140.441V131.813H146.946V129.86Z" fill="black"/>
<path opacity="0.1" d="M141.9 127.907H135.396V129.86H141.9V127.907Z" fill="black"/>
<path opacity="0.1" d="M138.648 140.895H132.143V142.85H138.648V140.895Z" fill="black"/>
<path opacity="0.1" d="M157.799 145.535H151.294V147.488H157.799V145.535Z" fill="black"/>
<path opacity="0.1" d="M165.276 139.919H158.772V141.872H165.276V139.919Z" fill="black"/>
<path opacity="0.1" d="M181.934 149.259H175.429V151.212H181.934V149.259Z" fill="black"/>
<path opacity="0.1" d="M171.781 151.036H165.276V152.99H171.781V151.036Z" fill="black"/>
<path opacity="0.1" d="M164.303 119.721H157.799V121.675H164.303V119.721Z" fill="black"/>
<path opacity="0.2" d="M13.1365 36.7859V45.3931L71.0125 41.3342V36.7859H13.1365Z" fill="black"/>
<path opacity="0.2" d="M124.269 36.7859V45.3931L184.335 39.4728V36.7859H124.269Z" fill="black"/>
<path d="M18.0306 44.573H10.7961V144.715H18.0306V44.573Z" fill="#878787"/>
<path d="M14.3174 52.1024C15.4416 52.1024 16.3529 51.1874 16.3529 50.0587C16.3529 48.9299 15.4416 48.0149 14.3174 48.0149C13.1933 48.0149 12.282 48.9299 12.282 50.0587C12.282 51.1874 13.1933 52.1024 14.3174 52.1024Z" fill="#C4C4C4"/>
<path d="M13.3 50.7066C13.3 49.6665 14.0811 48.8237 15.0454 48.8237C15.2881 48.8237 15.5191 48.8772 15.729 48.9741C15.412 48.5033 14.8988 48.1958 14.3181 48.1958C13.3543 48.1958 12.5732 49.0389 12.5732 50.079C12.5732 50.8567 13.0102 51.5245 13.6342 51.8116C13.4252 51.5009 13.3 51.1199 13.3 50.7066Z" fill="#A1A1A1"/>
<path d="M14.3172 64.8409C15.4413 64.8409 16.3526 63.9259 16.3526 62.7972C16.3526 61.6684 15.4413 60.7534 14.3172 60.7534C13.193 60.7534 12.2817 61.6684 12.2817 62.7972C12.2817 63.9259 13.193 64.8409 14.3172 64.8409Z" fill="#C4C4C4"/>
<path d="M13.3 63.4454C13.3 62.4053 14.0811 61.5622 15.0454 61.5622C15.2881 61.5622 15.5191 61.616 15.729 61.7125C15.412 61.2418 14.8988 60.9348 14.3181 60.9348C13.3543 60.9348 12.5732 61.7776 12.5732 62.8175C12.5732 63.5955 13.0102 64.263 13.6342 64.55C13.4252 64.2396 13.3 63.8586 13.3 63.4454Z" fill="#A1A1A1"/>
<path d="M14.3172 77.5797C15.4413 77.5797 16.3526 76.6647 16.3526 75.536C16.3526 74.4072 15.4413 73.4922 14.3172 73.4922C13.193 73.4922 12.2817 74.4072 12.2817 75.536C12.2817 76.6647 13.193 77.5797 14.3172 77.5797Z" fill="#C4C4C4"/>
<path d="M13.3 76.1839C13.3 75.144 14.0811 74.301 15.0454 74.301C15.2881 74.301 15.5191 74.3545 15.729 74.4511C15.412 73.9806 14.8988 73.6733 14.3181 73.6733C13.3543 73.6733 12.5732 74.5161 12.5732 75.5563C12.5732 76.3342 13.0102 77.0015 13.6342 77.2886C13.4252 76.9782 13.3 76.5972 13.3 76.1839Z" fill="#A1A1A1"/>
<path d="M14.3172 90.3187C15.4413 90.3187 16.3526 89.4037 16.3526 88.275C16.3526 87.1462 15.4413 86.2312 14.3172 86.2312C13.193 86.2312 12.2817 87.1462 12.2817 88.275C12.2817 89.4037 13.193 90.3187 14.3172 90.3187Z" fill="#C4C4C4"/>
<path d="M13.3 88.9229C13.3 87.8825 14.0811 87.0397 15.0454 87.0397C15.2881 87.0397 15.5191 87.0935 15.729 87.1901C15.412 86.7196 14.8988 86.4121 14.3181 86.4121C13.3543 86.4121 12.5732 87.2552 12.5732 88.295C12.5732 89.0728 13.0102 89.7405 13.6342 90.0279C13.4252 89.7172 13.3 89.3359 13.3 88.9229Z" fill="#A1A1A1"/>
<path d="M14.3172 103.057C15.4413 103.057 16.3526 102.142 16.3526 101.013C16.3526 99.8848 15.4413 98.9697 14.3172 98.9697C13.193 98.9697 12.2817 99.8848 12.2817 101.013C12.2817 102.142 13.193 103.057 14.3172 103.057Z" fill="#C4C4C4"/>
<path d="M13.3 101.661C13.3 100.621 14.0811 99.7785 15.0454 99.7785C15.2881 99.7785 15.5191 99.8318 15.729 99.9286C15.412 99.4579 14.8988 99.1506 14.3181 99.1506C13.3543 99.1506 12.5732 99.9937 12.5732 101.034C12.5732 101.812 13.0102 102.479 13.6342 102.766C13.4252 102.456 13.3 102.075 13.3 101.661Z" fill="#A1A1A1"/>
<path d="M14.3172 115.796C15.4413 115.796 16.3526 114.881 16.3526 113.752C16.3526 112.624 15.4413 111.708 14.3172 111.708C13.193 111.708 12.2817 112.624 12.2817 113.752C12.2817 114.881 13.193 115.796 14.3172 115.796Z" fill="#C4C4C4"/>
<path d="M13.3 114.4C13.3 113.36 14.0811 112.517 15.0454 112.517C15.2881 112.517 15.5191 112.571 15.729 112.667C15.412 112.197 14.8988 111.889 14.3181 111.889C13.3543 111.889 12.5732 112.732 12.5732 113.772C12.5732 114.55 13.0102 115.218 13.6342 115.505C13.4252 115.194 13.3 114.813 13.3 114.4Z" fill="#A1A1A1"/>
<path d="M14.3172 128.535C15.4413 128.535 16.3526 127.62 16.3526 126.491C16.3526 125.362 15.4413 124.447 14.3172 124.447C13.193 124.447 12.2817 125.362 12.2817 126.491C12.2817 127.62 13.193 128.535 14.3172 128.535Z" fill="#C4C4C4"/>
<path d="M13.3 127.139C13.3 126.099 14.0811 125.256 15.0454 125.256C15.2881 125.256 15.5191 125.309 15.729 125.406C15.412 124.935 14.8988 124.628 14.3181 124.628C13.3543 124.628 12.5732 125.471 12.5732 126.511C12.5732 127.289 13.0102 127.957 13.6342 128.243C13.4252 127.933 13.3 127.552 13.3 127.139Z" fill="#A1A1A1"/>
<path d="M14.3172 141.274C15.4413 141.274 16.3526 140.359 16.3526 139.23C16.3526 138.101 15.4413 137.186 14.3172 137.186C13.193 137.186 12.2817 138.101 12.2817 139.23C12.2817 140.359 13.193 141.274 14.3172 141.274Z" fill="#C4C4C4"/>
<path d="M13.3 139.878C13.3 138.837 14.0811 137.994 15.0454 137.994C15.2881 137.994 15.5191 138.048 15.729 138.145C15.412 137.674 14.8988 137.367 14.3181 137.367C13.3543 137.367 12.5732 138.21 12.5732 139.25C12.5732 140.027 13.0102 140.695 13.6342 140.982C13.4252 140.672 13.3 140.291 13.3 139.878Z" fill="#A1A1A1"/>
<path d="M127.005 135.653H68.2771V139.93H127.005V135.653Z" fill="#878787"/>
<path d="M123.788 138.939C124.45 138.939 124.986 138.4 124.986 137.735C124.986 137.071 124.45 136.532 123.788 136.532C123.126 136.532 122.589 137.071 122.589 137.735C122.589 138.4 123.126 138.939 123.788 138.939Z" fill="#C4C4C4"/>
<path d="M123.408 137.134C124.018 137.134 124.512 137.595 124.512 138.165C124.512 138.309 124.481 138.446 124.424 138.569C124.7 138.382 124.881 138.079 124.881 137.736C124.881 137.165 124.386 136.704 123.776 136.704C123.32 136.704 122.929 136.962 122.76 137.331C122.942 137.207 123.166 137.134 123.408 137.134Z" fill="#A1A1A1"/>
<path d="M116.317 138.939C116.979 138.939 117.516 138.4 117.516 137.735C117.516 137.071 116.979 136.532 116.317 136.532C115.655 136.532 115.119 137.071 115.119 137.735C115.119 138.4 115.655 138.939 116.317 138.939Z" fill="#C4C4C4"/>
<path d="M115.938 137.134C116.547 137.134 117.042 137.595 117.042 138.165C117.042 138.309 117.01 138.446 116.954 138.569C117.23 138.382 117.41 138.079 117.41 137.736C117.41 137.165 116.916 136.704 116.306 136.704C115.849 136.704 115.458 136.962 115.29 137.331C115.472 137.207 115.695 137.134 115.938 137.134Z" fill="#A1A1A1"/>
<path d="M108.847 138.939C109.509 138.939 110.045 138.4 110.045 137.735C110.045 137.071 109.509 136.532 108.847 136.532C108.185 136.532 107.648 137.071 107.648 137.735C107.648 138.4 108.185 138.939 108.847 138.939Z" fill="#C4C4C4"/>
<path d="M108.467 137.134C109.077 137.134 109.571 137.595 109.571 138.165C109.571 138.309 109.539 138.446 109.483 138.569C109.759 138.382 109.939 138.079 109.939 137.736C109.939 137.165 109.445 136.704 108.835 136.704C108.378 136.704 107.987 136.962 107.819 137.331C108.001 137.207 108.224 137.134 108.467 137.134Z" fill="#A1A1A1"/>
<path d="M101.376 138.939C102.038 138.939 102.574 138.4 102.574 137.735C102.574 137.071 102.038 136.532 101.376 136.532C100.714 136.532 100.177 137.071 100.177 137.735C100.177 138.4 100.714 138.939 101.376 138.939Z" fill="#C4C4C4"/>
<path d="M100.996 137.134C101.606 137.134 102.101 137.595 102.101 138.165C102.101 138.309 102.069 138.446 102.013 138.569C102.288 138.382 102.469 138.079 102.469 137.736C102.469 137.165 101.974 136.704 101.365 136.704C100.908 136.704 100.517 136.962 100.348 137.331C100.531 137.207 100.754 137.134 100.996 137.134Z" fill="#A1A1A1"/>
<path d="M93.9055 138.939C94.5673 138.939 95.1039 138.4 95.1039 137.735C95.1039 137.071 94.5673 136.532 93.9055 136.532C93.2436 136.532 92.707 137.071 92.707 137.735C92.707 138.4 93.2436 138.939 93.9055 138.939Z" fill="#C4C4C4"/>
<path d="M93.526 137.134C94.1356 137.134 94.6298 137.595 94.6298 138.165C94.6298 138.309 94.5985 138.446 94.542 138.569C94.8182 138.382 94.9983 138.079 94.9983 137.736C94.9983 137.165 94.5039 136.704 93.8939 136.704C93.4377 136.704 93.0464 136.962 92.8784 137.331C93.06 137.207 93.2832 137.134 93.526 137.134Z" fill="#A1A1A1"/>
<path d="M86.435 138.939C87.0969 138.939 87.6334 138.4 87.6334 137.735C87.6334 137.071 87.0969 136.532 86.435 136.532C85.7731 136.532 85.2366 137.071 85.2366 137.735C85.2366 138.4 85.7731 138.939 86.435 138.939Z" fill="#C4C4C4"/>
<path d="M86.0551 137.134C86.6653 137.134 87.1594 137.595 87.1594 138.165C87.1594 138.309 87.1281 138.446 87.0714 138.569C87.3471 138.382 87.5276 138.079 87.5276 137.736C87.5276 137.165 87.0329 136.704 86.4233 136.704C85.9673 136.704 85.5753 136.962 85.407 137.331C85.5891 137.207 85.8128 137.134 86.0551 137.134Z" fill="#A1A1A1"/>
<path d="M78.9643 138.939C79.6262 138.939 80.1627 138.4 80.1627 137.735C80.1627 137.071 79.6262 136.532 78.9643 136.532C78.3024 136.532 77.7659 137.071 77.7659 137.735C77.7659 138.4 78.3024 138.939 78.9643 138.939Z" fill="#C4C4C4"/>
<path d="M78.5846 137.134C79.1943 137.134 79.689 137.595 79.689 138.165C79.689 138.309 79.6576 138.446 79.6009 138.569C79.8769 138.382 80.0566 138.079 80.0566 137.736C80.0566 137.165 79.5627 136.704 78.9526 136.704C78.4965 136.704 78.1051 136.962 77.9365 137.331C78.1187 137.207 78.3424 137.134 78.5846 137.134Z" fill="#A1A1A1"/>
<path d="M71.4938 138.939C72.1557 138.939 72.6923 138.4 72.6923 137.735C72.6923 137.071 72.1557 136.532 71.4938 136.532C70.832 136.532 70.2954 137.071 70.2954 137.735C70.2954 138.4 70.832 138.939 71.4938 138.939Z" fill="#C4C4C4"/>
<path d="M71.1141 137.134C71.7241 137.134 72.2185 137.595 72.2185 138.165C72.2185 138.309 72.1869 138.446 72.1302 138.569C72.4061 138.382 72.5864 138.079 72.5864 137.736C72.5864 137.165 72.092 136.704 71.4821 136.704C71.0258 136.704 70.6344 136.962 70.4661 137.331C70.6482 137.207 70.8716 137.134 71.1141 137.134Z" fill="#A1A1A1"/>
<path d="M127.005 5.41064H68.2771V9.6871H127.005V5.41064Z" fill="#878787"/>
<path d="M123.788 8.69549C124.45 8.69549 124.987 8.15668 124.987 7.49203C124.987 6.82738 124.45 6.28857 123.788 6.28857C123.126 6.28857 122.59 6.82738 122.59 7.49203C122.59 8.15668 123.126 8.69549 123.788 8.69549Z" fill="#C4C4C4"/>
<path d="M123.409 6.89049C124.018 6.89049 124.513 7.35282 124.513 7.92274C124.513 8.066 124.482 8.20297 124.425 8.32682C124.701 8.13921 124.881 7.83589 124.881 7.49242C124.881 6.9225 124.386 6.46069 123.777 6.46069C123.321 6.46069 122.929 6.71915 122.76 7.08833C122.943 6.96448 123.166 6.89049 123.409 6.89049Z" fill="#A1A1A1"/>
<path d="M116.318 8.69549C116.98 8.69549 117.516 8.15668 117.516 7.49203C117.516 6.82738 116.98 6.28857 116.318 6.28857C115.656 6.28857 115.119 6.82738 115.119 7.49203C115.119 8.15668 115.656 8.69549 116.318 8.69549Z" fill="#C4C4C4"/>
<path d="M115.938 6.89049C116.548 6.89049 117.042 7.35282 117.042 7.92274C117.042 8.066 117.01 8.20297 116.954 8.32682C117.23 8.13921 117.41 7.83589 117.41 7.49242C117.41 6.9225 116.916 6.46069 116.306 6.46069C115.85 6.46069 115.458 6.71915 115.29 7.08833C115.472 6.96448 115.696 6.89049 115.938 6.89049Z" fill="#A1A1A1"/>
<path d="M108.847 8.69549C109.509 8.69549 110.046 8.15668 110.046 7.49203C110.046 6.82738 109.509 6.28857 108.847 6.28857C108.185 6.28857 107.648 6.82738 107.648 7.49203C107.648 8.15668 108.185 8.69549 108.847 8.69549Z" fill="#C4C4C4"/>
<path d="M108.467 6.89049C109.077 6.89049 109.572 7.35282 109.572 7.92274C109.572 8.066 109.54 8.20297 109.483 8.32682C109.759 8.13921 109.939 7.83589 109.939 7.49242C109.939 6.9225 109.445 6.46069 108.835 6.46069C108.379 6.46069 107.988 6.71915 107.819 7.08833C108.001 6.96448 108.225 6.89049 108.467 6.89049Z" fill="#A1A1A1"/>
<path d="M101.376 8.69549C102.038 8.69549 102.575 8.15668 102.575 7.49203C102.575 6.82738 102.038 6.28857 101.376 6.28857C100.714 6.28857 100.177 6.82738 100.177 7.49203C100.177 8.15668 100.714 8.69549 101.376 8.69549Z" fill="#C4C4C4"/>
<path d="M100.996 6.89049C101.606 6.89049 102.101 7.35282 102.101 7.92274C102.101 8.066 102.069 8.20297 102.013 8.32682C102.288 8.13921 102.469 7.83589 102.469 7.49242C102.469 6.9225 101.974 6.46069 101.365 6.46069C100.908 6.46069 100.517 6.71915 100.348 7.08833C100.531 6.96448 100.754 6.89049 100.996 6.89049Z" fill="#A1A1A1"/>
<path d="M93.9056 8.69549C94.5675 8.69549 95.1042 8.15668 95.1042 7.49203C95.1042 6.82738 94.5675 6.28857 93.9056 6.28857C93.2436 6.28857 92.707 6.82738 92.707 7.49203C92.707 8.15668 93.2436 8.69549 93.9056 8.69549Z" fill="#C4C4C4"/>
<path d="M93.526 6.89049C94.1356 6.89049 94.6298 7.35282 94.6298 7.92274C94.6298 8.066 94.5985 8.20297 94.542 8.32682C94.8182 8.13921 94.9983 7.83589 94.9983 7.49242C94.9983 6.9225 94.5039 6.46069 93.8939 6.46069C93.4377 6.46069 93.0464 6.71915 92.8784 7.08833C93.06 6.96448 93.2832 6.89049 93.526 6.89049Z" fill="#A1A1A1"/>
<path d="M86.4351 8.69549C87.0971 8.69549 87.6337 8.15668 87.6337 7.49203C87.6337 6.82738 87.0971 6.28857 86.4351 6.28857C85.7732 6.28857 85.2366 6.82738 85.2366 7.49203C85.2366 8.15668 85.7732 8.69549 86.4351 8.69549Z" fill="#C4C4C4"/>
<path d="M86.0551 6.89049C86.6653 6.89049 87.1594 7.35282 87.1594 7.92274C87.1594 8.066 87.1281 8.20297 87.0714 8.32682C87.3471 8.13921 87.5276 7.83589 87.5276 7.49242C87.5276 6.9225 87.0329 6.46069 86.4233 6.46069C85.9673 6.46069 85.5753 6.71915 85.407 7.08833C85.5891 6.96448 85.8128 6.89049 86.0551 6.89049Z" fill="#A1A1A1"/>
<path d="M78.9644 8.69549C79.6264 8.69549 80.163 8.15668 80.163 7.49203C80.163 6.82738 79.6264 6.28857 78.9644 6.28857C78.3025 6.28857 77.7659 6.82738 77.7659 7.49203C77.7659 8.15668 78.3025 8.69549 78.9644 8.69549Z" fill="#C4C4C4"/>
<path d="M78.5849 6.89049C79.1945 6.89049 79.6892 7.35282 79.6892 7.92274C79.6892 8.066 79.6578 8.20297 79.6011 8.32682C79.8771 8.13921 80.0569 7.83589 80.0569 7.49242C80.0569 6.9225 79.563 6.46069 78.9528 6.46069C78.4968 6.46069 78.1053 6.71915 77.9368 7.08833C78.1189 6.96448 78.3426 6.89049 78.5849 6.89049Z" fill="#A1A1A1"/>
<path d="M71.494 8.69549C72.1559 8.69549 72.6925 8.15668 72.6925 7.49203C72.6925 6.82738 72.1559 6.28857 71.494 6.28857C70.832 6.28857 70.2954 6.82738 70.2954 7.49203C70.2954 8.15668 70.832 8.69549 71.494 8.69549Z" fill="#C4C4C4"/>
<path d="M71.1144 6.89049C71.7243 6.89049 72.2187 7.35282 72.2187 7.92274C72.2187 8.066 72.1871 8.20297 72.1304 8.32682C72.4064 8.13921 72.5867 7.83589 72.5867 7.49242C72.5867 6.9225 72.0923 6.46069 71.4823 6.46069C71.0261 6.46069 70.6346 6.71915 70.4663 7.08833C70.6485 6.96448 70.8719 6.89049 71.1144 6.89049Z" fill="#A1A1A1"/>
<path d="M186.699 44.5732H179.465V144.715H186.699V44.5732Z" fill="#878787"/>
<path d="M182.985 52.1024C184.109 52.1024 185.021 51.1874 185.021 50.0588C185.021 48.9301 184.109 48.0151 182.985 48.0151C181.861 48.0151 180.95 48.9301 180.95 50.0588C180.95 51.1874 181.861 52.1024 182.985 52.1024Z" fill="#C4C4C4"/>
<path d="M181.968 50.7066C181.968 49.6665 182.75 48.8237 183.714 48.8237C183.956 48.8237 184.187 48.8772 184.397 48.9741C184.08 48.5033 183.567 48.1958 182.987 48.1958C182.023 48.1958 181.241 49.0389 181.241 50.079C181.241 50.8567 181.679 51.5245 182.303 51.8116C182.093 51.5009 181.968 51.1199 181.968 50.7066Z" fill="#A1A1A1"/>
<path d="M182.985 64.8409C184.109 64.8409 185.021 63.926 185.021 62.7973C185.021 61.6686 184.109 60.7537 182.985 60.7537C181.861 60.7537 180.95 61.6686 180.95 62.7973C180.95 63.926 181.861 64.8409 182.985 64.8409Z" fill="#C4C4C4"/>
<path d="M181.968 63.4456C181.968 62.4055 182.75 61.5624 183.714 61.5624C183.956 61.5624 184.187 61.6162 184.397 61.7128C184.08 61.2421 183.567 60.9351 182.987 60.9351C182.023 60.9351 181.241 61.7779 181.241 62.8177C181.241 63.5957 181.679 64.2632 182.303 64.5503C182.093 64.2399 181.968 63.8589 181.968 63.4456Z" fill="#A1A1A1"/>
<path d="M182.985 77.5797C184.109 77.5797 185.021 76.6647 185.021 75.5361C185.021 74.4074 184.109 73.4924 182.985 73.4924C181.861 73.4924 180.95 74.4074 180.95 75.5361C180.95 76.6647 181.861 77.5797 182.985 77.5797Z" fill="#C4C4C4"/>
<path d="M181.968 76.1841C181.968 75.1443 182.75 74.3012 183.714 74.3012C183.956 74.3012 184.187 74.3548 184.397 74.4513C184.08 73.9808 183.567 73.6736 182.987 73.6736C182.023 73.6736 181.241 74.5164 181.241 75.5565C181.241 76.3345 181.679 77.0018 182.303 77.2888C182.093 76.9784 181.968 76.5974 181.968 76.1841Z" fill="#A1A1A1"/>
<path d="M182.985 90.3187C184.109 90.3187 185.021 89.4037 185.021 88.2751C185.021 87.1464 184.109 86.2314 182.985 86.2314C181.861 86.2314 180.95 87.1464 180.95 88.2751C180.95 89.4037 181.861 90.3187 182.985 90.3187Z" fill="#C4C4C4"/>
<path d="M181.968 88.9229C181.968 87.8825 182.75 87.0397 183.714 87.0397C183.956 87.0397 184.187 87.0935 184.397 87.1901C184.08 86.7196 183.567 86.4121 182.987 86.4121C182.023 86.4121 181.241 87.2552 181.241 88.295C181.241 89.0728 181.679 89.7405 182.303 90.0279C182.093 89.7172 181.968 89.3359 181.968 88.9229Z" fill="#A1A1A1"/>
<path d="M182.985 103.057C184.109 103.057 185.021 102.143 185.021 101.014C185.021 99.8852 184.109 98.9702 182.985 98.9702C181.861 98.9702 180.95 99.8852 180.95 101.014C180.95 102.143 181.861 103.057 182.985 103.057Z" fill="#C4C4C4"/>
<path d="M181.968 101.662C181.968 100.622 182.75 99.7788 183.714 99.7788C183.956 99.7788 184.187 99.832 184.397 99.9289C184.08 99.4581 183.567 99.1509 182.987 99.1509C182.023 99.1509 181.241 99.9939 181.241 101.034C181.241 101.812 181.679 102.479 182.303 102.767C182.093 102.456 181.968 102.075 181.968 101.662Z" fill="#A1A1A1"/>
<path d="M182.985 115.796C184.109 115.796 185.021 114.881 185.021 113.752C185.021 112.623 184.109 111.708 182.985 111.708C181.861 111.708 180.95 112.623 180.95 113.752C180.95 114.881 181.861 115.796 182.985 115.796Z" fill="#C4C4C4"/>
<path d="M181.968 114.4C181.968 113.36 182.75 112.517 183.714 112.517C183.956 112.517 184.187 112.571 184.397 112.667C184.08 112.197 183.567 111.889 182.987 111.889C182.023 111.889 181.241 112.732 181.241 113.772C181.241 114.55 181.679 115.218 182.303 115.505C182.093 115.194 181.968 114.813 181.968 114.4Z" fill="#A1A1A1"/>
<path d="M182.985 128.535C184.109 128.535 185.021 127.62 185.021 126.491C185.021 125.362 184.109 124.447 182.985 124.447C181.861 124.447 180.95 125.362 180.95 126.491C180.95 127.62 181.861 128.535 182.985 128.535Z" fill="#C4C4C4"/>
<path d="M181.968 127.139C181.968 126.099 182.75 125.256 183.714 125.256C183.956 125.256 184.187 125.309 184.397 125.406C184.08 124.935 183.567 124.628 182.987 124.628C182.023 124.628 181.241 125.471 181.241 126.511C181.241 127.289 181.679 127.957 182.303 128.243C182.093 127.933 181.968 127.552 181.968 127.139Z" fill="#A1A1A1"/>
<path d="M182.985 141.274C184.109 141.274 185.021 140.359 185.021 139.23C185.021 138.101 184.109 137.186 182.985 137.186C181.861 137.186 180.95 138.101 180.95 139.23C180.95 140.359 181.861 141.274 182.985 141.274Z" fill="#C4C4C4"/>
<path d="M181.968 139.878C181.968 138.837 182.75 137.994 183.714 137.994C183.956 137.994 184.187 138.048 184.397 138.145C184.08 137.674 183.567 137.367 182.987 137.367C182.023 137.367 181.241 138.21 181.241 139.25C181.241 140.027 181.679 140.695 182.303 140.982C182.093 140.672 181.968 140.291 181.968 139.878Z" fill="#A1A1A1"/>
<path d="M52.3473 96.4232C52.2778 86.6063 52.207 76.7876 52.1372 66.9705C52.1087 63.19 54.5615 60.12 57.5845 60.1486C60.6093 60.1775 63.099 63.2942 63.1175 67.0745C63.1674 76.7895 63.2168 86.5037 63.267 96.2185C59.6315 96.5974 55.9915 96.5953 52.3473 96.4232Z" fill="#F1D197"/>
<path d="M55.9975 95.6434C55.0935 95.635 54.1666 95.6116 53.1835 95.5725C53.1172 86.0412 53.05 76.5101 52.9834 66.9787C52.9596 63.6778 55.0269 61.0109 57.5908 61.0356C60.1557 61.06 62.2559 63.7657 62.2729 67.0669C62.3228 76.5132 62.373 85.9604 62.4224 95.4072C60.418 95.5883 58.3076 95.6657 55.9975 95.6434Z" fill="#3D7E9B"/>
<path d="M57.8067 96.1924C57.5459 96.1898 57.2854 96.1877 57.024 96.1846C56.9496 84.2925 56.8748 72.4004 56.7996 60.5083C57.0625 60.5112 57.3248 60.5135 57.5875 60.5162C57.6604 72.408 57.7338 84.2998 57.8067 96.1924Z" fill="#F1D197"/>
<path d="M52.2545 88.4369C52.2529 88.1611 52.2508 87.8861 52.2493 87.6104C55.9227 87.6452 59.5972 87.6801 63.2709 87.7145C63.2724 87.9908 63.2737 88.2661 63.2753 88.5411C59.6019 88.5062 55.9282 88.4713 52.2545 88.4369Z" fill="#F1D197"/>
<path d="M52.1591 75.1016C52.157 74.8268 52.1554 74.5508 52.1531 74.2769C55.8359 74.3118 59.5193 74.3467 63.2026 74.3815C63.2034 74.6557 63.2053 74.9313 63.2066 75.2065C59.524 75.1716 55.8414 75.137 52.1591 75.1016Z" fill="#F1D197"/>
<path opacity="0.1" d="M55.2493 81.4869C56.8146 74.4666 59.0354 68.2545 61.438 63.6773C60.591 62.0967 59.1804 61.0503 57.5908 61.0356C55.0269 61.0109 52.9596 63.6778 52.9834 66.9787C53.05 76.5101 53.1172 86.0412 53.1835 95.5725C53.2152 95.5736 53.2462 95.5741 53.2784 95.5757C53.4843 91.3179 54.1314 86.5043 55.2493 81.4869Z" fill="white"/>
<path d="M65.4235 94.9505L49.6714 94.8005L49.6275 99.4378L65.3796 99.5877L65.4235 94.9505Z" fill="#6C6D6A"/>
<path opacity="0.2" d="M49.6274 99.438L65.3354 104.308L65.3795 99.5881L49.6274 99.438Z" fill="black"/>
<path d="M28.112 96.4232C28.0422 86.6063 27.9714 76.7876 27.9014 66.9705C27.8731 63.19 30.3257 60.12 33.3489 60.1486C36.3738 60.1775 38.8634 63.2942 38.8817 67.0745C38.9319 76.7895 38.9815 86.5037 39.0314 96.2185C35.3959 96.5974 31.7559 96.5953 28.112 96.4232Z" fill="#F1D197"/>
<path d="M31.7624 95.6434C30.8582 95.635 29.931 95.6116 28.9482 95.5725C28.8818 86.0412 28.8146 76.5101 28.7483 66.9787C28.7242 63.6778 30.7913 61.0109 33.3554 61.0356C35.92 61.06 38.0206 63.7657 38.0373 67.0669C38.0877 76.5132 38.1374 85.9604 38.1873 95.4072C36.1824 95.5883 34.072 95.6657 31.7624 95.6434Z" fill="#3D7E9B"/>
<path d="M33.5711 96.1924C33.3103 96.1898 33.0495 96.1877 32.7885 96.1846C32.714 84.2925 32.6392 72.4004 32.5637 60.5083C32.8269 60.5112 33.0895 60.5135 33.3519 60.5162C33.4248 72.408 33.4982 84.2998 33.5711 96.1924Z" fill="#F1D197"/>
<path d="M28.0189 88.4369C28.0173 88.1611 28.0153 87.8861 28.0134 87.6104C31.6869 87.6452 35.3616 87.6801 39.0353 87.7145C39.0369 87.9908 39.0382 88.2661 39.0397 88.5411C35.3663 88.5062 31.6926 88.4713 28.0189 88.4369Z" fill="#F1D197"/>
<path d="M27.9235 75.1016C27.9216 74.8268 27.9201 74.5508 27.9177 74.2769C31.6006 74.3118 35.2837 74.3467 38.9673 74.3815C38.9681 74.6557 38.9699 74.9313 38.9712 75.2065C35.2884 75.1716 31.6058 75.137 27.9235 75.1016Z" fill="#F1D197"/>
<path opacity="0.1" d="M31.0139 81.4869C32.5793 74.4666 34.8 68.2545 37.2026 63.6773C36.3554 62.0967 34.9453 61.0503 33.3554 61.0356C30.7913 61.0109 28.7242 63.6778 28.7483 66.9787C28.8146 76.5101 28.8818 86.0412 28.9482 95.5725C28.98 95.5736 29.0109 95.5741 29.043 95.5757C29.249 91.3179 29.8957 86.5043 31.0139 81.4869Z" fill="white"/>
<path d="M41.1879 94.9505L25.4358 94.8005L25.3919 99.4378L41.144 99.5877L41.1879 94.9505Z" fill="#6C6D6A"/>
<path opacity="0.2" d="M25.3918 99.438L41.0998 104.308L41.1439 99.5881L25.3918 99.438Z" fill="black"/>
<path d="M161.241 96.4232C161.172 86.6063 161.101 76.7876 161.031 66.9705C161.003 63.19 163.455 60.12 166.479 60.1486C169.503 60.1775 171.993 63.2942 172.011 67.0745C172.061 76.7895 172.111 86.5037 172.161 96.2185C168.526 96.5974 164.885 96.5953 161.241 96.4232Z" fill="#F1D197"/>
<path d="M164.892 95.6434C163.988 95.635 163.06 95.6116 162.077 95.5725C162.011 86.0412 161.944 76.5101 161.877 66.9787C161.853 63.6778 163.921 61.0109 166.485 61.0356C169.049 61.06 171.15 63.7657 171.166 67.0669C171.217 76.5132 171.267 85.9604 171.317 95.4072C169.312 95.5883 167.201 95.6657 164.892 95.6434Z" fill="#3D7E9B"/>
<path d="M166.701 96.1924C166.44 96.1898 166.179 96.1877 165.918 96.1846C165.843 84.2925 165.769 72.4004 165.693 60.5083C165.956 60.5112 166.219 60.5135 166.482 60.5162C166.555 72.408 166.628 84.2998 166.701 96.1924Z" fill="#F1D197"/>
<path d="M161.149 88.4369C161.147 88.1611 161.145 87.8861 161.143 87.6104C164.817 87.6452 168.491 87.6801 172.165 87.7145C172.166 87.9908 172.168 88.2661 172.169 88.5411C168.495 88.5062 164.822 88.4713 161.149 88.4369Z" fill="#F1D197"/>
<path d="M161.053 75.1016C161.051 74.8268 161.049 74.5508 161.047 74.2769C164.73 74.3118 168.413 74.3467 172.097 74.3815C172.097 74.6557 172.099 74.9313 172.101 75.2065C168.418 75.1716 164.735 75.137 161.053 75.1016Z" fill="#F1D197"/>
<path opacity="0.1" d="M164.143 81.4869C165.709 74.4666 167.929 68.2545 170.332 63.6773C169.485 62.0967 168.074 61.0503 166.485 61.0356C163.921 61.0109 161.853 63.6778 161.877 66.9787C161.944 76.5101 162.011 86.0412 162.077 95.5725C162.109 95.5736 162.14 95.5741 162.172 95.5757C162.378 91.3179 163.025 86.5043 164.143 81.4869Z" fill="white"/>
<path d="M174.317 94.9505L158.565 94.8005L158.521 99.4378L174.273 99.5877L174.317 94.9505Z" fill="#6C6D6A"/>
<path opacity="0.2" d="M158.521 99.438L174.229 104.308L174.274 99.5881L158.521 99.438Z" fill="black"/>
<path opacity="0.15" d="M149.317 36.7859L135.456 152.99H127.005V135.653H124.269V36.7859H149.317Z" fill="black"/>
<path opacity="0.2" d="M124.269 9.68701H113.867V135.653H124.269V9.68701Z" fill="black"/>
<path opacity="0.2" d="M127.024 135.653H107.615V157.871H127.024V135.653Z" fill="black"/>
<path opacity="0.2" d="M83.1371 9.68701H72.7356V135.653H83.1371V9.68701Z" fill="white"/>
<path opacity="0.2" d="M86.4674 135.653H68.2771V158.201H86.4674V135.653Z" fill="white"/>
<path opacity="0.3" d="M98.6074 23.5728C91.5874 23.5728 85.8953 29.2871 85.8953 36.337C85.8953 43.3862 91.5874 49.1013 98.6074 49.1013C105.628 49.1013 111.32 43.3862 111.32 36.337C111.32 29.2871 105.628 23.5728 98.6074 23.5728Z" fill="black"/>
<path d="M110.268 34.1449C110.268 41.1945 104.575 46.9094 97.5554 46.9094C90.5359 46.9094 84.8433 41.1945 84.8433 34.1449C84.8433 27.0955 90.5359 21.3811 97.5554 21.3811C104.575 21.3811 110.268 27.0955 110.268 34.1449Z" fill="#D4B950"/>
<path d="M104.514 33.1532C104.781 32.8575 104.756 32.4044 104.456 32.1417L97.8561 26.3431C97.5569 26.0802 97.0766 26.0854 96.7831 26.3557L90.1619 32.4505C89.8687 32.7203 89.8541 33.1732 90.1295 33.4607L90.296 33.6344C90.5709 33.922 91.0165 33.9564 91.2895 33.7108L91.7842 33.2655V39.7807C91.7842 40.1801 92.1067 40.5044 92.505 40.5044H95.0861C95.4838 40.5044 95.8063 40.1801 95.8063 39.7807V35.223H99.0984V39.7807C99.0932 40.1801 99.3775 40.5036 99.7753 40.5036H102.511C102.909 40.5036 103.231 40.1801 103.231 39.7807V33.3574C103.231 33.3574 103.368 33.4778 103.536 33.6263C103.705 33.7751 104.058 33.656 104.326 33.3602L104.514 33.1532Z" fill="#7D6400"/>
<path opacity="0.3" d="M86.9388 35.4772C86.9388 28.8912 92.2568 23.5528 98.8147 23.5528C101.882 23.5528 104.678 24.7212 106.786 26.6388C104.611 23.8664 101.24 22.0845 97.4535 22.0845C90.8961 22.0845 85.5781 27.4228 85.5781 34.0088C85.5781 37.5139 87.0847 40.6654 89.4831 42.8472C87.8914 40.8182 86.9388 38.2601 86.9388 35.4772Z" fill="white"/>
<path d="M23.5361 150.651C23.1373 149.359 21.681 148.305 20.4423 148.837C21.7837 147.482 23.2147 145.919 23.2306 144.008C23.2445 142.099 20.8136 140.315 19.4143 141.611C20.0349 140.509 20.556 139.262 20.3629 138.012C20.1708 136.761 19.0095 135.594 17.7705 135.821C19.9421 133.912 19.5034 129.842 16.9769 128.442C17.8001 127.089 18.2453 125.505 18.249 123.917C18.2506 123.192 18.1144 122.379 17.5296 121.95C17.077 121.618 16.3325 121.78 16.062 122.203C16.432 120.526 15.8835 118.664 14.6257 117.494C14.1256 117.029 13.4916 116.66 12.8109 116.663C11.5641 116.667 10.6223 117.943 10.5227 119.189C10.4247 120.436 10.9385 121.641 11.4426 122.785C9.21007 122.391 7.21068 124.627 6.96921 126.888C6.72618 129.152 7.7132 131.343 8.6754 133.404C8.30928 132.506 7.00423 132.332 6.1936 132.861C5.38376 133.392 4.98968 134.371 4.77069 135.316C4.02696 138.519 4.81695 142.044 6.85371 144.616C5.6801 143.353 3.36085 144.73 3.17322 146.446C2.9848 148.163 4.08184 149.726 5.12348 151.101C4.524 149.913 2.55257 150.154 1.85222 151.285C1.14952 152.415 1.42914 153.909 2.01111 155.107C2.59282 156.305 3.44735 157.364 3.91695 158.61L21.8798 157.131C22.5998 156.508 22.9191 155.548 23.1906 154.632C23.5758 153.337 23.9325 151.945 23.5361 150.651Z" fill="#79A958"/>
<path d="M192.166 151.322C191.862 150.789 191.085 150.809 190.506 151.01C190.18 151.123 189.874 151.28 189.582 151.461C189.92 150.739 190.175 149.979 190.332 149.197C190.457 148.576 190.428 147.767 189.85 147.512C189.439 147.333 188.968 147.547 188.589 147.787C187.735 148.328 187 149.037 186.387 149.842C187.62 147.546 188.393 145.001 188.618 142.401C186.515 143.233 184.875 145.092 184.206 147.252C184.97 143.633 185.56 139.906 184.634 136.353C181.724 138.894 180.25 142.99 180.87 146.811C179.755 143.403 179.717 139.627 177.998 136.484C177.86 136.231 177.698 135.972 177.446 135.836C176.988 135.593 176.392 135.865 176.107 136.299C175.824 136.733 175.776 137.278 175.757 137.797C175.64 140.782 176.172 143.79 177.302 146.553C176.258 144.672 175.214 142.79 174.171 140.908C173.455 139.616 172.6 138.21 171.183 137.805C170.719 138.859 171.056 140.078 171.42 141.17C172.337 143.919 173.401 146.618 174.607 149.251C173.456 146.962 171.924 144.866 170.094 143.076C169.744 142.734 169.258 142.379 168.812 142.577C168.281 142.813 168.321 143.577 168.471 144.14C169.222 146.952 170.538 149.609 172.311 151.912C170.603 149.889 168.595 148.041 166.052 147.468C165.744 147.399 165.364 147.375 165.173 147.626C164.974 147.888 165.116 148.262 165.268 148.554C166.969 151.833 169.116 154.88 171.626 157.585L189.192 158.109C190.83 156.58 191.929 154.479 192.253 152.256C192.298 151.941 192.325 151.599 192.166 151.322Z" fill="#579326"/>
</svg>
