<svg width="221" height="151" viewBox="0 0 221 151" fill="none" xmlns="http://www.w3.org/2000/svg">
<rect width="220.18" height="150.809" fill="black" fill-opacity="0"/>
<path opacity="0.3" d="M108.054 150.809C167.73 150.809 216.107 147.929 216.107 144.376C216.107 140.822 167.73 137.942 108.054 137.942C48.3772 137.942 -1.52588e-05 140.822 -1.52588e-05 144.376C-1.52588e-05 147.929 48.3772 150.809 108.054 150.809Z" fill="black"/>
<rect width="214.621" height="144.508" fill="black" fill-opacity="0" transform="translate(5.55984)"/>
<rect width="25.3326" height="43.0155" fill="black" fill-opacity="0" transform="translate(5.55988 100.703)"/>
<rect width="17.112" height="41.293" fill="black" fill-opacity="0" transform="translate(13.7804 100.703)"/>
<path d="M15.6798 126.485C14.2075 126.132 13.449 124.285 13.9193 122.846C14.3901 121.408 15.7727 120.421 17.2267 119.999C16.4561 118.829 15.6494 117.509 15.8767 116.126C16.0862 114.849 17.725 113.865 18.7199 114.536C17.5636 113.558 16.7519 112.038 17.1451 110.591C17.5241 109.192 19.3926 108.338 20.5444 109.067C19.4414 108.061 19.3206 106.088 20.4114 105.032C21.6073 103.873 23.8762 104.19 24.7072 105.634C24.0923 104.679 23.5966 103.648 23.2364 102.572C23.074 102.089 22.9502 101.519 23.245 101.102C23.692 100.467 24.6839 100.696 25.3693 101.064C27.5931 102.254 29.3891 104.223 30.3698 106.545L30.8924 138.582C30.7367 139.319 29.9249 139.737 29.174 139.823C28.4241 139.909 27.655 139.773 26.9117 139.908C26.311 140.017 25.7574 140.298 25.2125 140.575C23.6747 141.359 22.0197 142.166 20.3039 141.965C18.588 141.766 16.9416 140.078 17.4672 138.433C15.1506 137.064 14.6636 133.407 16.5423 131.478C15.5357 130.843 14.4622 130.124 14.0776 128.998C13.6945 127.872 14.5012 126.323 15.6798 126.485Z" fill="#79A958"/>
<rect width="22.191" height="20.288" fill="black" fill-opacity="0" transform="translate(5.55991 123.431)"/>
<path d="M10.7296 140.632C10.4561 140.558 10.1786 140.498 9.90666 140.417C8.50178 140.001 7.04922 139.447 6.13192 138.306C5.83511 137.937 5.59919 137.501 5.56469 137.028C5.45257 135.498 7.33283 134.65 8.86607 134.555C11.2359 134.409 13.6312 135.006 15.6895 136.186C14.1847 134.899 12.8813 133.378 11.8605 131.683C11.6956 131.409 11.5424 131.043 11.7428 130.795C11.927 130.564 12.2841 130.603 12.5708 130.674C15.9883 131.508 19.0619 133.675 20.9944 136.613C19.1451 134.158 17.514 131.538 16.1299 128.795C15.7113 127.966 15.3131 126.98 15.7179 126.146C18.8681 127.463 21.4673 130.044 22.8082 133.183C21.8417 131.101 21.1913 128.874 20.8843 126.6C20.792 125.911 20.7342 125.188 20.9863 124.54C21.239 123.892 21.8889 123.349 22.5779 123.441C23.0939 123.51 23.5018 123.9 23.8504 124.286C26.7814 127.543 28.1979 132.109 27.6261 136.451L27.4901 142.758C26.6839 143.392 25.5865 143.468 24.5627 143.519C18.1786 143.836 11.5302 144.108 5.66616 141.565C7.29123 140.913 8.99493 140.651 10.7296 140.632Z" fill="#579326"/>
<rect width="178.166" height="142.969" fill="black" fill-opacity="0" transform="translate(22.2206)"/>
<rect width="178.166" height="142.969" fill="black" fill-opacity="0" transform="translate(22.2206)"/>
<rect width="178.166" height="142.707" fill="black" fill-opacity="0" transform="translate(22.2206)"/>
<rect width="178.166" height="142.707" fill="black" fill-opacity="0" transform="translate(22.2206)"/>
<path d="M200.386 85.0964H94.5195V86.7586H200.386V85.0964Z" fill="#331D08"/>
<path d="M200.386 92.8518H94.5195V94.5132H200.386V92.8518Z" fill="#707070"/>
<path d="M95.628 94.5134H198.723V142.707H94.5195L95.628 94.5134Z" fill="#E6E6E6"/>
<path d="M200.386 122.211H94.5195V123.873H200.386V122.211Z" fill="#707070"/>
<path d="M112.164 98.9453L113.014 118.996H118.467L119.016 98.9453H112.164Z" fill="#0C304A"/>
<path d="M113.853 118.996L113.288 100.26H118.979L118.467 118.996H113.853Z" fill="#28729F"/>
<path d="M135.375 98.9453L136.225 118.996H141.679L142.227 98.9453H135.375Z" fill="#0C304A"/>
<path d="M137.066 118.996L136.499 100.26H142.192L141.679 118.996H137.066Z" fill="#28729F"/>
<path d="M133.073 5.54004L132.355 37.6269L132.322 39.2059L131.39 80.9663L131.351 82.5448L130.418 124.304L130.387 125.883L130.008 142.707H68.7595L67.7473 125.883L67.6524 124.304L65.1324 82.5448L65.0375 80.9663L62.5179 39.2059L62.4231 37.6269L61.6169 24.2756L84.0451 18.3944L85.6255 17.9827L117.328 9.66882L118.908 9.251L133.073 5.54004Z" fill="#45516B"/>
<path d="M132.322 39.2059L132.355 37.6269H118.908V9.25098L117.328 9.6688V37.6269H85.6256V17.9826L84.0451 18.3944V37.6269H62.4231L62.518 39.2059H84.0451V80.9663H65.0375L65.1324 82.5447H84.0451V124.304H67.6524L67.7473 125.883H84.0451V142.707H85.6256V125.883H117.328V142.707H118.908V125.883H130.387L130.418 124.304H118.908V82.5447H131.351L131.39 80.9663H118.908V39.2059H132.322ZM117.328 124.304H85.6256V82.5447H117.328V124.304ZM117.328 80.9663H85.6256V39.2059H117.328V80.9663Z" fill="#333C4F"/>
<path d="M56.5509 25.655L136.722 4.66247V0L55.8787 21.6738L56.5509 25.655Z" fill="white"/>
<path d="M110.964 142.707L114.207 47.1721H28.5402L30.8923 142.707H110.964Z" fill="white"/>
<path d="M113.858 57.4363H73.5712L74.8878 96.1241H112.545L113.858 57.4363Z" fill="#28729F"/>
<path d="M112.438 99.2827H74.8878L75.4139 137.971H111.125L112.438 99.2827Z" fill="#28729F"/>
<path d="M113.931 57.5605H73.6483V60.4916L113.551 64.9353L113.931 57.5605Z" fill="#0E405B"/>
<path d="M112.438 99.0994H74.8878L74.9041 100.439L112.164 105.89L112.438 99.0994Z" fill="#0E405B"/>
<path d="M28.3967 40.856L30.8924 142.707H26.1704L22.2206 40.856H28.3967Z" fill="#964C27"/>
<path opacity="0.5" d="M89.6347 57.4363L90.5073 96.1241H104.728L105.517 57.4363H89.6347Z" fill="#2DB5CF"/>
<path opacity="0.5" d="M91.001 99.2827L92.0873 137.971H103.148L104.498 99.2827H91.001Z" fill="#2DB5CF"/>
<path d="M198.723 98.9453H157.152V122.212H198.723V98.9453Z" fill="#BFBFBF"/>
<path d="M161.241 122.211L160.617 101.161H171.563L170.594 122.211H161.241Z" fill="#34B1CD"/>
<path d="M166.021 121.657L169.901 107.808L170.039 111.686L167.591 121.657H166.021Z" fill="#5BC8DF"/>
<path d="M166.575 104.485H169.901L164.451 121.657H162.141L166.575 104.485Z" fill="#5BC8DF"/>
<path d="M160.617 101.161H171.563L171.47 103.377L160.685 103.471L160.617 101.161Z" fill="#247C8F"/>
<path d="M173.434 122.211L172.811 101.161H183.758L182.788 122.211H173.434Z" fill="#34B1CD"/>
<path d="M178.215 121.657L182.094 107.808L182.233 111.686L179.785 121.657H178.215Z" fill="#5BC8DF"/>
<path d="M178.769 104.485H182.094L176.645 121.657H174.335L178.769 104.485Z" fill="#5BC8DF"/>
<path d="M172.811 101.161H183.758L183.664 103.377L172.879 103.471L172.811 101.161Z" fill="#247C8F"/>
<path d="M185.629 122.211L185.005 101.161H195.951L194.982 122.211H185.629Z" fill="#34B1CD"/>
<path d="M190.409 121.657L194.289 107.808L194.427 111.686L191.979 121.657H190.409Z" fill="#5BC8DF"/>
<path d="M190.963 104.485H194.289L188.839 121.657H186.529L190.963 104.485Z" fill="#5BC8DF"/>
<path d="M185.005 101.161H195.951L195.858 103.377L185.073 103.471L185.005 101.161Z" fill="#247C8F"/>
<path d="M198.723 117.226H157.152V122.212H198.723V117.226Z" fill="#28729F"/>
<path d="M157.152 117.226H198.723V118.888L159.577 118.611L159.785 122.212H157.152V117.226Z" fill="#0C304A"/>
<path d="M142.649 85.0801L142.926 92.609H144.045V85.0801H142.649Z" fill="#331D08"/>
<path d="M155.951 85.0801L156.229 92.609H157.293V85.0801H155.951Z" fill="#331D08"/>
<path d="M169.254 85.0801L169.531 92.609H170.282V85.0801H169.254Z" fill="#331D08"/>
<path d="M182.556 85.0801L182.834 92.609H184.049V85.0801H182.556Z" fill="#331D08"/>
<path d="M195.859 85.0801L196.136 92.609H197.297V85.0801H195.859Z" fill="#331D08"/>
<path d="M60.7427 111.686H41.6407V142.707H60.7427V111.686Z" fill="#545152"/>
<path d="M44.7889 142.707L45.2227 119.044H60.7427V142.707H44.7889Z" fill="#736F70"/>
<path d="M47.6103 127.197H46.4164V131.969H47.6103V127.197Z" fill="#545152"/>
<path opacity="0.3" d="M61.6199 24.3277L132.773 18.9217L133.809 6.39258L61.6199 24.3277Z" fill="black"/>
<path opacity="0.3" d="M28.5402 47.1807H30.1714L38.7183 142.707L30.8923 142.969L28.5402 47.1807Z" fill="black"/>
<path opacity="0.3" d="M130.384 124.628L198.723 130.749V123.873H130.384V124.628Z" fill="black"/>
<path opacity="0.3" d="M131.062 95.1615L198.723 96.7953V94.2285H131.062V95.1615Z" fill="black"/>
<path opacity="0.3" d="M113.931 53.5159L131.685 67.7482L131.062 92.3819L142.192 92.852L152.392 122.212V123.873L159.515 142.707L111.509 142.969L113.931 53.5159Z" fill="black"/>
<rect width="26.4829" height="42.9275" fill="black" fill-opacity="0" transform="translate(39.524 55.3167)"/>
<path fill-rule="evenodd" clip-rule="evenodd" d="M65.9898 74.7378C65.8934 74.7106 65.8117 74.6523 65.7254 74.6062C61.4342 72.3165 57.1435 70.0264 52.8528 67.736C52.8431 67.7304 52.834 67.7248 52.8239 67.7197C52.8102 67.168 52.8168 66.6161 52.8071 66.0639C52.7797 64.5037 52.8041 62.9424 52.7853 61.3814C52.7609 59.4079 52.7853 57.4344 52.7574 55.4609C52.7569 55.4203 52.7569 55.3795 52.7569 55.3392C52.7569 55.3316 52.7564 55.324 52.7564 55.3167C52.7635 55.3167 52.7711 55.3167 52.7787 55.3167C52.7752 55.3585 52.8097 55.3813 52.8294 55.4102C57.1993 61.8185 61.5707 68.2255 65.9416 74.6331C65.9624 74.6632 65.9801 74.6954 65.9994 74.7269C65.9959 74.7304 65.9928 74.734 65.9898 74.7378Z" fill="#0B8311"/>
<path fill-rule="evenodd" clip-rule="evenodd" d="M52.8238 98.2441C52.766 98.2233 52.7508 98.1655 52.7209 98.1219C48.9654 92.6106 45.2104 87.0988 41.456 81.5867C40.834 80.6737 40.2135 79.7597 39.592 78.8463C39.5722 78.8163 39.5473 78.7895 39.524 78.7611C39.5661 78.7119 39.596 78.7621 39.625 78.7776C41.0131 79.5136 42.4012 80.2503 43.7883 80.9881C46.8005 82.5902 49.8117 84.1935 52.8233 85.7964C52.8228 88.8512 52.8228 91.9062 52.8228 94.9608C52.8228 96.0556 52.8233 97.1498 52.8238 98.2441Z" fill="#3AB73A"/>
<path fill-rule="evenodd" clip-rule="evenodd" d="M52.7572 55.3396C52.7572 55.3799 52.7572 55.4207 52.7577 55.4613C52.7856 57.4348 52.7613 59.4083 52.7856 61.3818C52.8044 62.9428 52.78 64.504 52.8074 66.0643C52.8171 66.6165 52.8105 67.1684 52.8242 67.7201C52.4685 67.9052 52.1123 68.0882 51.7572 68.2748C48.5953 69.9385 45.4335 71.6025 42.2722 73.2669C41.4157 73.7177 40.5598 74.1697 39.7029 74.6197C39.6517 74.6466 39.6045 74.6841 39.5441 74.6918L39.5456 74.6943C39.5355 74.6436 39.5771 74.6159 39.6004 74.5822C42.6765 70.078 45.7531 65.5742 48.8303 61.0705C50.1144 59.1913 51.3985 57.3118 52.6831 55.4329C52.7049 55.4004 52.7191 55.3601 52.7572 55.3396Z" fill="#3AB73A"/>
<path fill-rule="evenodd" clip-rule="evenodd" d="M52.8238 98.244C52.8233 97.1498 52.8228 96.0555 52.8228 94.9608C52.8228 91.9062 52.8228 88.8511 52.8233 85.7963C53.6579 85.3478 54.492 84.8986 55.3271 84.4508C58.6224 82.6832 61.9172 80.9166 65.2124 79.1495C65.4519 79.0207 65.6914 78.8919 65.9314 78.7646C65.9522 78.7534 66.0009 78.6929 65.9943 78.7844C65.7721 79.1018 65.5524 79.4213 65.3459 79.7498C65.32 79.7666 65.3063 79.7924 65.2967 79.8208C65.0755 80.1327 64.8614 80.4496 64.6559 80.7718C64.6178 80.8106 64.5889 80.8557 64.5656 80.9044C64.3454 81.2168 64.1308 81.5329 63.9253 81.8557C63.8766 81.9102 63.837 81.9708 63.8035 82.0357C63.5935 82.3318 63.3895 82.6328 63.1947 82.939C63.1541 82.9991 63.1135 83.0594 63.0729 83.1193C62.87 83.4207 62.667 83.7217 62.4641 84.0229C62.4159 84.0776 62.3758 84.1382 62.3423 84.2029C62.1541 84.4823 61.9664 84.7612 61.7776 85.0406C61.7371 85.1004 61.6965 85.1605 61.6559 85.2206C61.4753 85.4726 61.3017 85.7291 61.1358 85.9913C61.0724 86.0684 61.0176 86.151 60.9694 86.238C60.7959 86.4948 60.6224 86.7519 60.4489 87.0085C60.4083 87.0688 60.3677 87.1292 60.3271 87.1897C60.1384 87.4684 59.9501 87.747 59.7619 88.0254C59.7213 88.086 59.6807 88.1463 59.6407 88.2067C59.4818 88.4414 59.323 88.6757 59.1647 88.91C59.1242 88.9708 59.0836 89.0309 59.043 89.0915C58.8989 89.304 58.7553 89.5162 58.6117 89.7289C58.564 89.7847 58.5224 89.8445 58.49 89.9099C58.3383 90.1173 58.1957 90.3298 58.0582 90.5473C58.0105 90.6028 57.9694 90.6626 57.9364 90.7286C57.7929 90.9408 57.6493 91.1532 57.5052 91.3654C57.4575 91.421 57.4164 91.4813 57.3834 91.5467C57.2393 91.7592 57.0957 91.9711 56.9517 92.1841C56.9045 92.2399 56.8629 92.2994 56.8299 92.3651C56.6858 92.5771 56.5422 92.7895 56.3981 93.002C56.3575 93.0626 56.317 93.1232 56.2764 93.1835C56.1475 93.3737 56.0186 93.5643 55.8898 93.7545C55.8639 93.7925 55.838 93.8308 55.8121 93.8691C55.6833 94.0592 55.5539 94.2499 55.425 94.44C55.3991 94.4781 55.3738 94.5161 55.3479 94.5544C55.2261 94.7176 55.1125 94.8862 55.0054 95.0597C54.9755 95.1038 54.9451 95.1484 54.9146 95.1925C54.7903 95.3766 54.6655 95.5611 54.5412 95.7457C54.5153 95.7832 54.4895 95.8215 54.4636 95.8593C54.3276 96.0454 54.1977 96.2355 54.077 96.4318C54.0511 96.4693 54.0252 96.5073 53.9993 96.5449C53.8634 96.7312 53.7335 96.9211 53.6122 97.1173C53.5737 97.1554 53.5458 97.201 53.5224 97.2499C53.3758 97.4515 53.2348 97.6568 53.1034 97.8693C53.08 97.8858 53.0663 97.9089 53.0582 97.9357C52.9689 98.03 52.9258 98.1599 52.8238 98.244Z" fill="#0B8311"/>
<path fill-rule="evenodd" clip-rule="evenodd" d="M40.0461 76.7424C40.4149 76.5431 40.7828 76.3418 41.1526 76.1446C45.0207 74.0808 48.8888 72.0176 52.7579 69.9558C52.7909 69.9383 52.8234 69.8854 52.8726 69.9315C52.8219 69.9718 52.8447 70.0273 52.8447 70.076C52.8437 72.6468 52.8442 75.2177 52.8447 77.7885C52.5717 77.7984 52.3028 77.753 52.0314 77.7375C51.7057 77.7195 51.381 77.683 51.0557 77.6561C50.8437 77.6384 50.6311 77.6252 50.419 77.6077C50.0897 77.5806 49.7615 77.5507 49.4327 77.5238C49.2242 77.5063 49.0152 77.4934 48.8066 77.4756C48.485 77.4487 48.1643 77.4178 47.8427 77.3909C47.6194 77.3727 47.3952 77.3656 47.1724 77.3423C46.8295 77.306 46.486 77.2812 46.142 77.2566C45.9517 77.2434 45.7615 77.2261 45.5712 77.2104C45.2389 77.1823 44.9066 77.1526 44.5743 77.1252C44.3622 77.108 44.1496 77.0953 43.937 77.0776C43.5352 77.0431 43.1339 77.0051 42.732 76.9716C42.421 76.9457 42.1095 76.9265 41.7985 76.9021C41.3525 76.8666 40.9061 76.8342 40.4611 76.7896C40.3226 76.7759 40.1811 76.7883 40.0461 76.7424Z" fill="#3AB73A"/>
<path fill-rule="evenodd" clip-rule="evenodd" d="M52.8447 77.7886C52.8442 75.2178 52.8436 72.647 52.8447 70.0762C52.8447 70.0275 52.8218 69.972 52.8726 69.9316C53.4225 70.2252 53.973 70.5173 54.523 70.8119C58.1415 72.753 61.7599 74.6945 65.3784 76.6361C65.4104 76.6533 65.4454 76.6675 65.4738 76.6898C65.4946 76.705 65.4819 76.7202 65.4591 76.7248C65.384 76.6716 65.3099 76.7294 65.2358 76.7314C65.0309 76.736 64.8264 76.7572 64.6219 76.7755C64.3155 76.8019 64.0096 76.8328 63.7036 76.8594C63.5027 76.8769 63.3018 76.8896 63.1009 76.9068C62.7838 76.9345 62.4667 76.9644 62.1496 76.9925C61.9558 77.0093 61.7625 77.023 61.5692 77.0402C61.2592 77.0681 60.9492 77.0977 60.6397 77.1254C60.4388 77.1426 60.2379 77.1563 60.037 77.1736C59.731 77.2009 59.4246 77.2314 59.1186 77.2575C58.9106 77.2755 58.7021 77.2881 58.4936 77.3059C58.18 77.3328 57.8665 77.3629 57.5529 77.3906C57.3561 77.4078 57.1587 77.4215 56.9619 77.4387C56.6595 77.4659 56.3571 77.4966 56.0542 77.5232C55.8502 77.5409 55.6453 77.5528 55.4408 77.5711C55.1455 77.5975 54.8508 77.6294 54.5555 77.6553C54.3439 77.674 54.1308 77.6819 53.9198 77.7034C53.5626 77.7394 53.2059 77.7805 52.8467 77.7904L52.8447 77.7886Z" fill="#0B8311"/>
<path fill-rule="evenodd" clip-rule="evenodd" d="M40.0461 76.7424C40.1811 76.7883 40.3226 76.7759 40.4611 76.7896C40.9061 76.8342 41.3525 76.8667 41.7985 76.9022C42.1095 76.9265 42.421 76.9458 42.732 76.9716C43.1339 77.0051 43.5352 77.0431 43.937 77.0776C44.1496 77.0953 44.3622 77.108 44.5743 77.1253C44.9066 77.1526 45.2389 77.1823 45.5712 77.2105C45.7615 77.2262 45.9517 77.2434 46.142 77.2566C46.486 77.2812 46.8295 77.306 47.1724 77.3423C47.3952 77.3656 47.6194 77.3727 47.8427 77.391C48.1643 77.4178 48.485 77.4488 48.8066 77.4756C49.0152 77.4934 49.2242 77.5063 49.4327 77.5238C49.7615 77.5507 50.0897 77.5806 50.419 77.6077C50.6311 77.6252 50.8437 77.6384 51.0558 77.6562C51.381 77.683 51.7057 77.7195 52.0314 77.7375C52.3028 77.753 52.5717 77.7984 52.8447 77.7885L52.8467 77.7903C52.8462 79.7078 52.8457 81.6245 52.8452 83.5417C52.5509 83.4083 52.2714 83.2466 51.9862 83.096C48.6199 81.3144 45.2541 79.531 41.8888 77.7482C41.2759 77.4237 40.6641 77.0986 40.0517 76.7739C40.0497 76.7637 40.0476 76.7531 40.0456 76.7427L40.0461 76.7424Z" fill="#0B8311"/>
<path fill-rule="evenodd" clip-rule="evenodd" d="M52.8452 83.5416C52.8457 81.6244 52.8462 79.7077 52.8467 77.7902C53.2059 77.7803 53.5626 77.7393 53.9197 77.7033C54.1308 77.6817 54.3439 77.6738 54.5555 77.6551C54.8507 77.6292 55.1455 77.5973 55.4408 77.5709C55.6453 77.5527 55.8502 77.5407 56.0542 77.523C56.3571 77.4964 56.6595 77.4657 56.9619 77.4386C57.1587 77.4213 57.3561 77.4076 57.5529 77.3904C57.8665 77.3628 58.18 77.3326 58.4936 77.3057C58.7021 77.288 58.9106 77.2753 59.1186 77.2573C59.4246 77.2312 59.731 77.2008 60.0369 77.1734C60.2379 77.1561 60.4388 77.1424 60.6397 77.1252C60.9492 77.0976 61.2592 77.0679 61.5692 77.04C61.7625 77.0228 61.9558 77.0091 62.1496 76.9924C62.4667 76.9642 62.7838 76.9343 63.1009 76.9067C63.3018 76.8894 63.5027 76.8767 63.7036 76.8592C64.0095 76.8326 64.3155 76.8017 64.6219 76.7753C64.8264 76.7571 65.0309 76.7358 65.2358 76.7312C65.3099 76.7292 65.384 76.6714 65.4591 76.7246C64.9751 76.9893 64.4915 77.2565 64.0065 77.5189C61.1648 79.0571 58.3226 80.594 55.4809 82.132C54.6417 82.5858 53.8036 83.0409 52.9644 83.4945C52.9273 83.5142 52.8944 83.5497 52.8452 83.5416Z" fill="#146714"/>
<path fill-rule="evenodd" clip-rule="evenodd" d="M65.9995 74.7268C66.002 74.7345 66.0082 74.7478 66.0066 74.7489C65.9954 74.756 65.9913 74.7473 65.9897 74.7378C65.9928 74.734 65.9959 74.7304 65.9995 74.7268Z" fill="#0B8311"/>
<path fill-rule="evenodd" clip-rule="evenodd" d="M39.544 74.6914C39.5394 74.6958 39.5352 74.7004 39.5311 74.7047C39.5306 74.7017 39.5301 74.6981 39.5296 74.695C39.5347 74.6945 39.5404 74.6945 39.5455 74.694L39.544 74.6914Z" fill="#3AB73A"/>
<path fill-rule="evenodd" clip-rule="evenodd" d="M40.0451 76.7427C40.0471 76.7528 40.0491 76.7632 40.0511 76.773C40.0437 76.7671 40.0367 76.7614 40.0293 76.7563C40.0348 76.7516 40.0397 76.7474 40.0451 76.7427Z" fill="#3AB73A"/>
<path fill-rule="evenodd" clip-rule="evenodd" d="M60.9695 86.2379C61.0177 86.1509 61.0724 86.0683 61.1359 85.9912C61.1435 85.9983 61.1582 86.0105 61.1572 86.012C61.1024 86.0941 61.0867 86.2082 60.9695 86.2379Z" fill="#FEFEFE"/>
<path fill-rule="evenodd" clip-rule="evenodd" d="M57.9365 90.7284C57.9695 90.6625 58.0106 90.6026 58.0583 90.5471C58.0816 90.6158 58.0243 90.7013 57.9365 90.7284Z" fill="#FEFEFE"/>
<path fill-rule="evenodd" clip-rule="evenodd" d="M58.49 89.9098C58.5225 89.8444 58.5641 89.7845 58.6118 89.7288C58.6351 89.797 58.5773 89.8829 58.49 89.9098Z" fill="#FEFEFE"/>
<path fill-rule="evenodd" clip-rule="evenodd" d="M59.043 89.0914C59.0836 89.0308 59.1242 88.9708 59.1648 88.9099C59.1886 88.9789 59.1308 89.0646 59.043 89.0914Z" fill="#FEFEFE"/>
<path fill-rule="evenodd" clip-rule="evenodd" d="M59.6407 88.2067C59.6808 88.1463 59.7214 88.086 59.7619 88.0254C59.7863 88.0936 59.729 88.1793 59.6407 88.2067Z" fill="#FEFEFE"/>
<path fill-rule="evenodd" clip-rule="evenodd" d="M57.3835 91.5468C57.4164 91.4813 57.4575 91.421 57.5052 91.3655C57.5286 91.4344 57.4707 91.5199 57.3835 91.5468Z" fill="#FEFEFE"/>
<path fill-rule="evenodd" clip-rule="evenodd" d="M56.83 92.3651C56.863 92.2994 56.9046 92.2399 56.9518 92.1841C56.9751 92.2523 56.9178 92.3382 56.83 92.3651Z" fill="#FEFEFE"/>
<path fill-rule="evenodd" clip-rule="evenodd" d="M56.2764 93.1835C56.317 93.1231 56.3576 93.0625 56.3982 93.002C56.422 93.0704 56.3647 93.1566 56.2764 93.1835Z" fill="#FEFEFE"/>
<path fill-rule="evenodd" clip-rule="evenodd" d="M61.6559 85.2205C61.6965 85.1604 61.7371 85.1004 61.7777 85.0405C61.7965 85.1115 61.7422 85.1916 61.6559 85.2205Z" fill="#FEFEFE"/>
<path fill-rule="evenodd" clip-rule="evenodd" d="M60.3272 87.1898C60.3678 87.1292 60.4084 87.0689 60.4489 87.0085C60.4713 87.077 60.4139 87.1627 60.3272 87.1898Z" fill="#FEFEFE"/>
<path fill-rule="evenodd" clip-rule="evenodd" d="M63.8036 82.0357C63.837 81.9708 63.8766 81.9102 63.9253 81.8557C63.9375 81.9515 63.8934 82.0086 63.8036 82.0357Z" fill="#FEFEFE"/>
<path fill-rule="evenodd" clip-rule="evenodd" d="M63.0729 83.1192C63.1135 83.0594 63.1541 82.9991 63.1947 82.939C63.2079 83.0356 63.1627 83.0924 63.0729 83.1192Z" fill="#FEFEFE"/>
<path fill-rule="evenodd" clip-rule="evenodd" d="M62.3423 84.203C62.3758 84.1383 62.4159 84.0777 62.4641 84.0229C62.4778 84.1193 62.4326 84.1763 62.3423 84.203Z" fill="#FEFEFE"/>
<path fill-rule="evenodd" clip-rule="evenodd" d="M64.5656 80.9043C64.589 80.8556 64.6179 80.8105 64.656 80.7717C64.6768 80.8508 64.6453 80.8934 64.5656 80.9043Z" fill="#FEFEFE"/>
<path fill-rule="evenodd" clip-rule="evenodd" d="M54.9146 95.1924C54.9451 95.1483 54.9755 95.1037 55.0055 95.0596C55.0288 95.1404 54.9958 95.1828 54.9146 95.1924Z" fill="#FEFEFE"/>
<path fill-rule="evenodd" clip-rule="evenodd" d="M53.5225 97.25C53.5458 97.2011 53.5737 97.1555 53.6123 97.1174C53.6336 97.196 53.6016 97.2391 53.5225 97.25Z" fill="#FEFEFE"/>
<path fill-rule="evenodd" clip-rule="evenodd" d="M55.8122 93.8682C55.8379 93.8302 55.8636 93.7922 55.8893 93.7544C55.9145 93.8169 55.8953 93.8456 55.8122 93.8682Z" fill="#FEFEFE"/>
<path fill-rule="evenodd" clip-rule="evenodd" d="M55.348 94.5535C55.3737 94.5155 55.3989 94.4777 55.4246 94.4399C55.4498 94.5027 55.4301 94.5314 55.348 94.5535Z" fill="#FEFEFE"/>
<path fill-rule="evenodd" clip-rule="evenodd" d="M54.4636 95.8584C54.4893 95.8209 54.515 95.7829 54.5407 95.7456C54.5639 95.8081 54.5442 95.8363 54.4636 95.8584Z" fill="#FEFEFE"/>
<path fill-rule="evenodd" clip-rule="evenodd" d="M53.9994 96.5442C54.0251 96.5069 54.0508 96.4692 54.0765 96.4319C54.0987 96.4938 54.0795 96.5223 53.9994 96.5442Z" fill="#FEFEFE"/>
<path fill-rule="evenodd" clip-rule="evenodd" d="M53.0583 97.9354C53.0663 97.9087 53.0799 97.8858 53.1031 97.8694C53.1328 97.9187 53.1293 97.9238 53.0583 97.9354Z" fill="#FEFEFE"/>
<path fill-rule="evenodd" clip-rule="evenodd" d="M65.2967 79.8203C65.3063 79.7921 65.3199 79.7664 65.3456 79.7498C65.3491 79.787 65.3501 79.8225 65.2967 79.8203Z" fill="#FEFEFE"/>
<rect width="10.9895" height="20.6016" fill="black" fill-opacity="0" transform="translate(119.016 123.274)"/>
<path d="M129.919 139.967C129.724 139.333 129.005 138.815 128.394 139.076C129.056 138.41 129.763 137.643 129.77 136.704C129.777 135.767 128.576 134.891 127.886 135.527C128.192 134.986 128.449 134.374 128.355 133.76C128.259 133.145 127.687 132.572 127.075 132.683C128.147 131.746 127.931 129.747 126.683 129.06C127.09 128.396 127.31 127.617 127.312 126.838C127.313 126.481 127.245 126.08 126.956 125.871C126.733 125.709 126.366 125.788 126.232 125.996C126.415 125.173 126.144 124.257 125.524 123.682C125.277 123.454 124.964 123.274 124.628 123.274C124.013 123.277 123.549 123.903 123.5 124.515C123.45 125.128 123.704 125.719 123.952 126.281C122.851 126.087 121.865 127.186 121.746 128.297C121.626 129.408 122.113 130.485 122.588 131.497C122.406 131.055 121.763 130.97 121.363 131.23C120.964 131.491 120.769 131.971 120.661 132.436C120.294 134.009 120.684 135.74 121.69 137.002C121.11 136.383 119.965 137.058 119.872 137.902C119.779 138.745 120.321 139.513 120.835 140.188C120.539 139.605 119.567 139.723 119.221 140.278C118.874 140.833 119.012 141.567 119.299 142.155C119.586 142.743 120.008 143.264 120.24 143.876L129.103 143.15C129.458 142.843 129.615 142.372 129.749 141.922C129.94 141.286 130.116 140.602 129.919 139.967Z" fill="#579326"/>
<rect width="51.7826" height="25.079" fill="black" fill-opacity="0" transform="translate(168.398 119.429)"/>
<rect width="12.7156" height="23.8361" fill="black" fill-opacity="0" transform="translate(207.465 119.429)"/>
<path d="M207.564 138.743C207.791 138.009 208.623 137.41 209.33 137.712C208.564 136.942 207.747 136.054 207.738 134.968C207.73 133.883 209.118 132.869 209.917 133.606C209.562 132.98 209.265 132.271 209.375 131.561C209.485 130.85 210.148 130.187 210.855 130.316C209.616 129.231 209.866 126.918 211.309 126.123C210.838 125.354 210.584 124.453 210.582 123.551C210.581 123.14 210.659 122.677 210.993 122.434C211.251 122.245 211.677 122.337 211.831 122.578C211.62 121.625 211.933 120.566 212.651 119.902C212.936 119.637 213.298 119.427 213.687 119.429C214.399 119.432 214.936 120.157 214.993 120.865C215.049 121.573 214.756 122.258 214.468 122.908C215.742 122.684 216.884 123.955 217.022 125.24C217.161 126.526 216.597 127.771 216.048 128.943C216.257 128.432 217.002 128.333 217.464 128.634C217.927 128.936 218.152 129.492 218.277 130.029C218.701 131.849 218.25 133.852 217.088 135.314C217.758 134.596 219.082 135.378 219.189 136.354C219.297 137.33 218.67 138.218 218.076 138.999C218.418 138.323 219.543 138.461 219.943 139.103C220.344 139.746 220.184 140.594 219.853 141.276C219.52 141.956 219.032 142.558 218.764 143.266L208.509 142.425C208.099 142.071 207.916 141.526 207.761 141.006C207.541 140.269 207.337 139.478 207.564 138.743Z" fill="#79A958"/>
<rect width="25.2171" height="20.6286" fill="black" fill-opacity="0" transform="translate(183.462 123.416)"/>
<path d="M183.574 137.784C183.857 137.292 184.577 137.311 185.113 137.496C185.414 137.6 185.699 137.745 185.969 137.911C185.656 137.245 185.42 136.545 185.274 135.824C185.159 135.251 185.185 134.504 185.721 134.269C186.102 134.104 186.538 134.301 186.89 134.523C187.68 135.021 188.361 135.676 188.93 136.418C187.788 134.3 187.071 131.953 186.863 129.555C188.812 130.322 190.331 132.037 190.951 134.029C190.243 130.691 189.697 127.254 190.554 123.977C193.251 126.32 194.617 130.098 194.042 133.623C195.075 130.48 195.111 126.997 196.704 124.097C196.832 123.864 196.981 123.625 197.216 123.5C197.639 123.275 198.192 123.526 198.456 123.926C198.719 124.327 198.763 124.829 198.781 125.308C198.889 128.061 198.396 130.837 197.348 133.385C198.316 131.65 199.283 129.914 200.25 128.178C200.914 126.986 201.706 125.689 203.019 125.316C203.449 126.288 203.137 127.412 202.799 128.419C201.95 130.955 200.964 133.444 199.845 135.874C200.912 133.762 202.332 131.828 204.028 130.178C204.352 129.862 204.803 129.534 205.216 129.717C205.708 129.936 205.671 130.639 205.532 131.159C204.836 133.753 203.617 136.203 201.974 138.327C203.556 136.462 205.417 134.757 207.773 134.229C208.06 134.165 208.412 134.142 208.589 134.375C208.773 134.616 208.64 134.961 208.5 135.23C206.923 138.255 204.935 141.066 202.608 143.561L186.33 144.044C184.812 142.633 183.794 140.695 183.494 138.645C183.452 138.354 183.428 138.039 183.574 137.784Z" fill="#579326"/>
<rect width="23.3198" height="10.6101" fill="black" fill-opacity="0" transform="translate(168.398 133.898)"/>
<path d="M169.285 138.066C170.159 137.306 171.676 137.342 172.383 138.259C172.115 137.826 171.84 137.374 171.78 136.869C171.721 136.363 171.942 135.786 172.415 135.598C172.682 135.491 172.981 135.523 173.265 135.565C174.37 135.729 175.452 136.044 176.473 136.498C176.33 135.387 177.156 134.238 178.255 134.018C179.354 133.798 180.558 134.542 180.855 135.622C181.122 134.446 182.476 133.645 183.635 133.972C184.796 134.299 185.528 135.69 185.141 136.831C185.823 136.306 186.648 135.907 187.51 135.928C188.372 135.95 189.255 136.477 189.498 137.304C189.666 137.877 189.418 138.537 188.966 138.897C189.85 138.597 190.786 138.454 191.718 138.49C191.207 141.204 189.177 143.581 186.575 144.509L170.985 143.653C169.93 143.173 168.995 142.343 168.592 141.258C168.188 140.172 168.412 138.827 169.285 138.066Z" fill="#79A958"/>
</svg>
