<svg width="184" height="117" viewBox="0 0 184 117" fill="none" xmlns="http://www.w3.org/2000/svg">
<path opacity="0.3" d="M169.089 110.208C169.089 113.829 131.238 116.765 84.5446 116.765C37.852 116.765 0 113.829 0 110.208C0 106.586 37.852 103.65 84.5446 103.65C131.238 103.65 169.089 106.586 169.089 110.208Z" fill="black"/>
<path d="M64.8934 29.8394H24.2617V53.0633H64.8934V29.8394Z" fill="#CCAE93"/>
<path d="M67.0358 27.7876H22.1194V30.6054H67.0358V27.7876Z" fill="#805937"/>
<path d="M174.278 93.7876C176.052 93.3599 176.966 91.1244 176.4 89.3821C175.832 87.6403 174.166 86.4449 172.414 85.9353C173.343 84.5184 174.315 82.9199 174.041 81.2459C173.788 79.6993 171.814 78.5086 170.614 79.3204C172.007 78.1365 172.986 76.2961 172.512 74.5439C172.055 72.8499 169.803 71.8155 168.415 72.6982C169.745 71.4812 169.89 69.0914 168.576 67.8125C167.134 66.4097 164.4 66.7939 163.399 68.5414C164.139 67.3858 164.737 66.1379 165.171 64.8343C165.367 64.2503 165.516 63.5596 165.161 63.0548C164.622 62.2855 163.427 62.5636 162.601 63.0086C159.921 64.4497 157.756 66.8338 156.574 69.645L155.944 108.434C156.132 109.327 157.11 109.832 158.016 109.937C158.919 110.041 159.846 109.877 160.742 110.04C161.466 110.172 162.133 110.511 162.789 110.848C164.643 111.797 166.638 112.774 168.705 112.531C170.773 112.29 172.757 110.245 172.124 108.254C174.916 106.597 175.503 102.168 173.239 99.8331C174.452 99.0643 175.745 98.1932 176.209 96.8298C176.67 95.4675 175.698 93.5919 174.278 93.7876Z" fill="#79A958"/>
<path d="M153.094 4.31592L152.887 11.497L152.851 12.7408L151.906 25.4967L151.87 26.7252L150.932 59.0869L150.895 60.3123L149.95 92.6719L149.914 93.8818L149.438 110.179H93.7573L92.9713 93.8821L92.9106 92.6656L91.3443 60.3102L91.2828 59.0877L89.7233 26.7296L89.6626 25.5064L88.0965 12.761L88.0419 11.497L87.6943 4.31592H153.094Z" fill="#CCAE93"/>
<path d="M11.0913 110.207L9.29077 46.5776H120.19L118.672 110.207H11.0913Z" fill="#E6E6E6"/>
<path d="M7.00586 84.3074L7.61527 87.5705H123.237L123.085 84.3074H7.00586Z" fill="#707070"/>
<path d="M153.094 4.31592H165.89L161.632 110.179H149.438L153.094 4.31592Z" fill="#7D6A5B"/>
<path d="M9.63306 58.8147L10.3684 84.5112H65.6103L65.4639 58.8147H9.63306Z" fill="#BFBFBF"/>
<path d="M9.63306 58.8147H65.4639L65.35 60.0382H9.67226L9.63306 58.8147Z" fill="#7F7F80"/>
<path d="M99.1775 14.9292L100.186 38.8346H106.658L107.309 14.9292H99.1775Z" fill="#0C304A"/>
<path d="M101.183 38.8345L100.511 16.4966H107.266L106.658 38.8345H101.183Z" fill="#28729F"/>
<path d="M115.57 14.9292L116.579 38.8346H123.051L123.702 14.9292H115.57Z" fill="#0C304A"/>
<path d="M117.576 38.8345L116.904 16.4966H123.659L123.051 38.8345H117.576Z" fill="#28729F"/>
<path d="M133.499 14.9292L134.507 38.8346H140.98L141.631 14.9292H133.499Z" fill="#0C304A"/>
<path d="M135.505 38.8345L134.833 16.4966H141.588L140.98 38.8345H135.505Z" fill="#28729F"/>
<path d="M155.532 0.727051H84.8489V4.3979H155.532V0.727051Z" fill="#BAB9B7"/>
<path d="M167.719 0.727051H155.532V4.3979H167.719V0.727051Z" fill="#707070"/>
<path d="M80.5835 60.0381L81.1926 81.4518H88.5048V60.0381H80.5835Z" fill="#1E769A"/>
<path d="M80.5835 60.0381L80.6177 61.2616H88.5048V60.0381H80.5835Z" fill="#022F4C"/>
<path d="M86.0673 61.8735H87.8956L83.5539 80.84H81.802L86.0673 61.8735Z" fill="#228DB8"/>
<path d="M85.0769 80.84L87.8955 71.1531V74.5437L86.296 80.84H85.0769Z" fill="#228DB8"/>
<path d="M93.9885 60.0381L94.5979 81.4518H101.91V60.0381H93.9885Z" fill="#1E769A"/>
<path d="M93.9885 60.0381L94.0233 61.2616H101.91V60.0381H93.9885Z" fill="#022F4C"/>
<path d="M99.4729 61.8735H101.301L96.9589 80.84H95.207L99.4729 61.8735Z" fill="#228DB8"/>
<path d="M98.4827 80.84L101.301 71.1531V74.5437L99.7012 80.84H98.4827Z" fill="#228DB8"/>
<path d="M107.394 60.0381L108.004 81.4518H115.316V60.0381H107.394Z" fill="#1E769A"/>
<path d="M107.394 60.0381L107.429 61.2616H115.316V60.0381H107.394Z" fill="#022F4C"/>
<path d="M112.878 61.8735H114.706L110.365 80.84H108.613L112.878 61.8735Z" fill="#228DB8"/>
<path d="M111.888 80.84L114.706 71.1531V74.5437L113.106 80.84H111.888Z" fill="#228DB8"/>
<path d="M65.4948 64.1685L14.1655 64.3209L14.9785 81.4519H65.6103L65.4948 64.1685Z" fill="#28729F"/>
<path d="M14.1655 64.3209L65.4948 64.1685V66.7682H14.1655V64.3209Z" fill="#00303E"/>
<path opacity="0.5" d="M28.7046 64.2778L29.8045 81.4519H51.3353V64.2109L28.7046 64.2778Z" fill="#2DB5CF"/>
<path d="M7.00586 46.3745L7.61527 49.6371H123.237L123.085 46.3745H7.00586Z" fill="#707070"/>
<path d="M65.3501 41.6833L65.7552 110.208H76.3181L77.1311 41.6833H65.3501Z" fill="#509695"/>
<path d="M115.316 91.2412H80.5835V110.208H115.316V91.2412Z" fill="#774127"/>
<path d="M80.5835 91.2412H115.316V92.4647L80.5835 92.8728V91.2412Z" fill="#5A2918"/>
<path d="M82.0879 94.9983H113.129" stroke="#69361B" stroke-miterlimit="10"/>
<path d="M82.0879 97.4165H113.129" stroke="#69361B" stroke-miterlimit="10"/>
<path d="M82.0879 99.8347H113.129" stroke="#69361B" stroke-miterlimit="10"/>
<path d="M82.0879 102.253H113.129" stroke="#69361B" stroke-miterlimit="10"/>
<path d="M82.0879 104.94H113.129" stroke="#69361B" stroke-miterlimit="10"/>
<path d="M82.0879 107.09H113.129" stroke="#69361B" stroke-miterlimit="10"/>
<path d="M120.19 107.149H8.07227V110.208H120.19V107.149Z" fill="#373536"/>
<path d="M27.571 91.2412H17.8215V107.149H27.571V91.2412Z" fill="#545152"/>
<path d="M19.4282 107.149L19.6498 95.0144H27.5711V107.149H19.4282Z" fill="#736F70"/>
<path d="M32.0474 106.955V90.8337H65.6437L65.7378 106.955H32.0474Z" fill="#0E405B"/>
<path d="M36.1018 107.149H65.7381L65.6654 94.9121H36.1018V107.149Z" fill="#2275A1"/>
<path opacity="0.5" d="M49.1299 105.925L53.6202 95.5239H56.8193L53.2392 105.925H49.1299Z" fill="#2DB5CF"/>
<path opacity="0.5" d="M56.0061 105.925L58.8506 95.5239H60.475L58.2412 105.925H56.0061Z" fill="#2DB5CF"/>
<path d="M20.869 99.1951H20.2593V101.642H20.869V99.1951Z" fill="#545152"/>
<path opacity="0.2" d="M123.085 46.3745L150.592 73.9064L149.438 110.208H120.19L120.042 107.291L118.745 107.149L119.21 87.6552L120.912 87.6993L121.135 84.363L119.29 84.3074L120.117 49.6371H123.237L123.085 46.3745Z" fill="black"/>
<path opacity="0.3" d="M77.1311 46.5776L82.8907 46.6343L90.9186 107.149H76.3545L77.1311 46.5776Z" fill="black"/>
<path opacity="0.3" d="M9.37744 49.637L9.56507 56.2626L65.3502 52.3217L65.1215 49.637H9.37744Z" fill="black"/>
<path opacity="0.3" d="M77.1311 49.637V54.8294L119.636 52.2333L120.117 49.637H77.1311Z" fill="black"/>
<path opacity="0.3" d="M87.6943 4.39785L88.4281 15.4603L152.9 9.92906L153.094 4.18164L87.6943 4.39785Z" fill="black"/>
<path d="M42.3508 90.8337H41.7256V107.149H42.3508V90.8337Z" fill="#005957"/>
<path d="M25.4028 64.6526H24.7776V80.9675H25.4028V64.6526Z" fill="#005957"/>
<path d="M39.8308 64.6738H39.2056V80.9888H39.8308V64.6738Z" fill="#005957"/>
<path d="M53.2878 64.6738H52.6626V80.9888H53.2878V64.6738Z" fill="#005957"/>
<path d="M54.3479 90.8337H53.7227V107.149H54.3479V90.8337Z" fill="#005957"/>
<path d="M181.953 19.0356L173.44 16.2949L172.828 26.2794L167.434 32.0927L163.115 102.544L169.653 107.794L169.739 106.389L165 101.398L168.919 33.418L178.624 28.8553L181.953 19.0356Z" fill="#494252"/>
<path d="M183.145 18.0328L183.013 20.1944L172.297 16.7001L172.42 14.6934L183.145 18.0328Z" fill="#2E2933"/>
<path d="M169.061 39.3722L168.897 42.0515L164.3 41.4887L164.541 39.0928L169.061 39.3722Z" fill="#2E2933"/>
<path d="M167.275 68.5266L167.959 71.2568L162.589 70.9475L162.89 68.2559L167.275 68.5266Z" fill="#2E2933"/>
<path d="M166.256 99.0238L165 101.398L161.885 100.916L161.926 98.8184L166.256 99.0238Z" fill="#2E2933"/>
<path d="M166.303 107.363C166.633 107.273 166.968 107.201 167.295 107.103C168.988 106.599 170.739 105.928 171.844 104.546C172.202 104.1 172.486 103.572 172.528 102.999C172.663 101.147 170.397 100.12 168.549 100.005C165.694 99.8284 162.806 100.551 160.326 101.979C162.14 100.421 163.71 98.5804 164.94 96.528C165.139 96.1963 165.324 95.7534 165.083 95.4522C164.86 95.173 164.43 95.2197 164.085 95.3058C159.966 96.316 156.262 98.9389 153.933 102.497C156.161 99.5245 158.127 96.3527 159.795 93.0309C160.3 92.0275 160.78 90.8336 160.292 89.8234C156.495 91.4182 153.363 94.5433 151.747 98.3443C152.912 95.8232 153.696 93.1264 154.066 90.3734C154.177 89.5384 154.246 88.6636 153.943 87.8785C153.638 87.0945 152.855 86.437 152.025 86.5482C151.403 86.6322 150.911 87.104 150.491 87.5721C146.959 91.5153 145.252 97.0433 145.941 102.301L146.105 109.937C147.076 110.704 148.399 110.797 149.633 110.858C157.326 111.242 165.339 111.571 172.405 108.493C170.447 107.703 168.394 107.386 166.303 107.363Z" fill="#579326"/>
<path d="M83.6491 106.558C83.4139 105.79 82.5474 105.163 81.811 105.479C82.6091 104.673 83.4605 103.744 83.4693 102.607C83.4782 101.473 82.031 100.411 81.1995 101.182C81.5679 100.527 81.8779 99.7853 81.7645 99.0423C81.649 98.2976 80.9591 97.6043 80.2221 97.7387C81.5131 96.6036 81.2533 94.1833 79.7496 93.3515C80.2404 92.547 80.5044 91.6045 80.507 90.661C80.508 90.2291 80.426 89.7442 80.0789 89.4907C79.8092 89.2939 79.3671 89.3899 79.2066 89.6413C79.4256 88.6453 79.1 87.5364 78.3521 86.84C78.0552 86.5645 77.6779 86.3457 77.2728 86.3462C76.5312 86.3499 75.9719 87.1077 75.9129 87.8492C75.8533 88.5907 76.1596 89.3065 76.4585 89.9871C75.1315 89.7526 73.943 91.0824 73.7993 92.4274C73.6545 93.7729 74.2415 95.077 74.8143 96.3018C74.5953 95.7671 73.8197 95.6637 73.3383 95.9791C72.8564 96.2945 72.6218 96.877 72.4916 97.439C72.0495 99.3435 72.5193 101.44 73.7314 102.968C73.0331 102.218 71.6533 103.036 71.5415 104.057C71.4296 105.078 72.0824 106.008 72.7017 106.826C72.3453 106.119 71.1735 106.262 70.7564 106.934C70.3388 107.607 70.505 108.495 70.851 109.207C71.196 109.919 71.705 110.55 71.9847 111.29L82.666 110.412C83.0941 110.04 83.2833 109.47 83.4448 108.925C83.6747 108.155 83.8864 107.326 83.6491 106.558Z" fill="#579326"/>
<path d="M10.0845 108.571C9.92432 108.051 9.33895 107.628 8.84113 107.841C9.38024 107.297 9.95541 106.669 9.96169 105.901C9.96717 105.134 8.99034 104.417 8.42797 104.938C8.67754 104.495 8.88686 103.993 8.80951 103.491C8.73216 102.989 8.26543 102.52 7.76761 102.611C8.64017 101.844 8.46378 100.208 7.44853 99.6459C7.77937 99.102 7.95837 98.4654 7.95968 97.8275C7.96047 97.536 7.90585 97.2091 7.67066 97.037C7.48878 96.9034 7.18956 96.9687 7.08111 97.1388C7.22954 96.4647 7.00925 95.7161 6.50358 95.2464C6.30289 95.0593 6.04783 94.9111 5.77449 94.9121C5.27353 94.9142 4.89487 95.4267 4.85515 95.9276C4.81569 96.4285 5.02188 96.9126 5.22466 97.3723C4.32754 97.2141 3.52397 98.1125 3.42701 99.0212C3.32928 99.9311 3.72571 100.811 4.11247 101.64C3.9656 101.279 3.44113 101.209 3.11526 101.422C2.78991 101.635 2.63154 102.028 2.54348 102.408C2.24478 103.695 2.56229 105.112 3.3805 106.145C2.90907 105.638 1.97693 106.191 1.90167 106.881C1.82588 107.571 2.26674 108.199 2.68512 108.751C2.44444 108.274 1.65236 108.371 1.37066 108.825C1.08843 109.279 1.20079 109.88 1.43442 110.361C1.6683 110.842 2.01194 111.268 2.20036 111.769L9.41892 111.174C9.70794 110.924 9.83651 110.538 9.94548 110.17C10.1004 109.65 10.2437 109.09 10.0845 108.571Z" fill="#79A958"/>
<path d="M26.9699 107.892C26.7716 107.544 26.2644 107.558 25.887 107.688C25.6751 107.762 25.4746 107.865 25.2846 107.982C25.5049 107.512 25.6714 107.016 25.7736 106.506C25.8549 106.101 25.8366 105.573 25.4592 105.407C25.1911 105.29 24.884 105.43 24.6366 105.586C24.0799 105.939 23.6004 106.401 23.2006 106.926C24.0047 105.429 24.5093 103.769 24.6556 102.073C23.2837 102.615 22.2144 103.828 21.7777 105.237C22.2763 102.876 22.6607 100.446 22.057 98.1285C20.1588 99.785 19.1974 102.457 19.6019 104.95C18.8746 102.727 18.8493 100.264 17.7285 98.2132C17.6383 98.0485 17.5335 97.8795 17.3684 97.7913C17.0699 97.6323 16.6811 97.8097 16.4955 98.0925C16.3105 98.3759 16.2794 98.7309 16.2666 99.0697C16.1906 101.017 16.5373 102.979 17.2748 104.781C16.5938 103.554 15.913 102.326 15.2323 101.099C14.765 100.256 14.2076 99.3392 13.2836 99.0752C12.981 99.7627 13.2005 100.558 13.438 101.27C14.0359 103.063 14.73 104.823 15.5171 106.541C14.7661 105.048 13.7665 103.681 12.5728 102.514C12.3449 102.29 12.0277 102.058 11.7368 102.188C11.3903 102.342 11.4162 102.84 11.5147 103.208C12.0044 105.042 12.8626 106.774 14.019 108.276C12.9049 106.957 11.5952 105.752 9.93656 105.378C9.7356 105.333 9.4876 105.317 9.36269 105.481C9.23333 105.652 9.32637 105.896 9.42541 106.087C10.5353 108.225 11.9349 110.213 13.5724 111.977L25.0304 112.319C26.0989 111.321 26.8155 109.951 27.0266 108.501C27.0562 108.296 27.0734 108.072 26.9699 107.892Z" fill="#579326"/>
<path d="M37.0285 108.091C36.4131 107.554 35.3456 107.579 34.8478 108.228C35.0364 107.922 35.2298 107.602 35.2719 107.245C35.3142 106.887 35.1585 106.479 34.8256 106.346C34.6377 106.271 34.4268 106.293 34.2274 106.323C33.4494 106.439 32.6874 106.661 31.969 106.983C32.0696 106.197 31.4879 105.384 30.7147 105.229C29.9409 105.073 29.0931 105.599 28.8843 106.363C28.6959 105.532 27.7439 104.965 26.9278 105.196C26.1109 105.427 25.5953 106.411 25.8679 107.218C25.3873 106.847 24.8066 106.565 24.2001 106.58C23.5933 106.595 22.9719 106.968 22.8005 107.552C22.6829 107.958 22.8574 108.424 23.1755 108.679C22.5532 108.467 21.8942 108.366 21.2385 108.392C21.5978 110.311 23.0268 111.991 24.8586 112.647L35.8319 112.042C36.5743 111.703 37.2329 111.116 37.5167 110.349C37.8002 109.581 37.6431 108.63 37.0285 108.091Z" fill="#79A958"/>
<path opacity="0.3" d="M25.8928 54.8293L33.2964 58.8145L65.1215 59.4264L65.2981 51.711L58.5907 32.0708L25.8928 54.8293Z" fill="black"/>
<path d="M25.8928 54.0562V51.7112C25.8928 51.0634 26.4155 50.5386 27.0607 50.5386H62.0941C62.7393 50.5386 63.2619 51.0634 63.2619 51.7112V54.0562C63.2619 54.704 62.7393 55.2288 62.0941 55.2288H27.0607C26.4155 55.2288 25.8928 54.704 25.8928 54.0562Z" fill="#AF6328"/>
<path d="M62.0942 52.8835V53.47C62.0942 53.7938 61.8328 54.0562 61.5104 54.0562H28.2284C27.5834 54.0562 27.0608 54.5815 27.0608 55.2288H43.9935H54.5035H62.0942C62.7394 55.2288 63.262 54.704 63.262 54.0562V51.7112C62.6173 51.7112 62.0942 52.236 62.0942 52.8835Z" fill="#A25425"/>
<path d="M37.5706 50.5385H30.564V32.364C30.564 32.0402 30.8253 31.7778 31.1478 31.7778H36.9868C37.3093 31.7778 37.5706 32.0402 37.5706 32.364V50.5385Z" fill="#3CB44A"/>
<path d="M58.5909 50.5385H51.5842V32.364C51.5842 32.0402 51.8456 31.7778 52.168 31.7778H58.0071C58.3295 31.7778 58.5909 32.0402 58.5909 32.364V50.5385Z" fill="#4C9BD5"/>
<path d="M44.5772 50.5386H37.5706V26.5012C37.5706 26.1774 37.8319 25.915 38.1544 25.915H43.9934C44.3159 25.915 44.5772 26.1774 44.5772 26.5012V50.5386Z" fill="#ED2C39"/>
<path d="M51.584 50.5386H44.5771V28.8465C44.5771 28.5227 44.8387 28.26 45.1612 28.26H51C51.3222 28.26 51.584 28.5227 51.584 28.8465V50.5386Z" fill="#FFCF68"/>
<path d="M38.7384 49.3657H42.8255C43.1483 49.3657 43.4096 49.1034 43.4096 48.7796V27.6736C43.4096 27.026 43.9322 26.501 44.5772 26.501V31.1912V41.7443V50.5384H37.5706C37.5706 49.8908 38.0932 49.3657 38.7384 49.3657Z" fill="#CB202C"/>
<path d="M45.745 49.3659H49.8324C50.1549 49.3659 50.4162 49.1036 50.4162 48.7798V30.0188C50.4162 29.3712 50.9388 28.8464 51.584 28.8464V33.5367V41.7445V50.5386H44.5771C44.5771 49.891 45.1001 49.3659 45.745 49.3659Z" fill="#F5B445"/>
<path d="M52.7521 49.3662H56.8392C57.1617 49.3662 57.423 49.1038 57.423 48.78V33.5369C57.423 32.889 57.9459 32.3643 58.5909 32.3643V37.0545V41.7447V50.5388H51.5842C51.5842 49.8912 52.1069 49.3662 52.7521 49.3662Z" fill="#3688C8"/>
<path d="M31.7316 49.3662H35.8189C36.1414 49.3662 36.4027 49.1038 36.4027 48.78V33.5369C36.4027 32.889 36.9259 32.3643 37.5706 32.3643V37.0545V41.7447V50.5388H30.564C30.564 49.8912 31.0866 49.3662 31.7316 49.3662Z" fill="#0E9247"/>
<path d="M44.5772 29.4326H37.5706V30.0188H44.5772V29.4326Z" fill="#B52025"/>
<path d="M44.5772 30.6052H37.5706V31.1914H44.5772V30.6052Z" fill="#B52025"/>
<path d="M37.5706 34.1228H30.564V34.709H37.5706V34.1228Z" fill="#04803D"/>
<path d="M37.5706 35.2954H30.564V35.8816H37.5706V35.2954Z" fill="#04803D"/>
<path d="M37.5706 46.4348H30.564V47.0213H37.5706V46.4348Z" fill="#04803D"/>
<path d="M37.5706 47.6072H30.564V48.1936H37.5706V47.6072Z" fill="#04803D"/>
<path d="M58.5909 34.1228H51.5842V34.709H58.5909V34.1228Z" fill="#0261A4"/>
<path d="M58.5909 35.2954H51.5842V35.8816H58.5909V35.2954Z" fill="#0261A4"/>
<path d="M58.5909 46.4348H51.5842V47.0213H58.5909V46.4348Z" fill="#0261A4"/>
<path d="M58.5909 47.6072H51.5842V48.1936H58.5909V47.6072Z" fill="#0261A4"/>
<path d="M51.584 30.6052H44.5771V31.1914H51.584V30.6052Z" fill="#F09820"/>
<path d="M51.584 31.7778H44.5771V32.364H51.584V31.7778Z" fill="#F09820"/>
<path d="M51.584 46.4348H44.5771V47.0213H51.584V46.4348Z" fill="#F09820"/>
<path d="M51.584 47.6072H44.5771V48.1936H51.584V47.6072Z" fill="#F09820"/>
<path d="M44.5772 45.8481H37.5706V46.4343H44.5772V45.8481Z" fill="#B52025"/>
<path d="M44.5772 47.021H37.5706V47.6072H44.5772V47.021Z" fill="#B52025"/>
</svg>
