<svg width="166" height="181" viewBox="0 0 166 181" fill="none" xmlns="http://www.w3.org/2000/svg">
<path opacity="0.3" d="M159.318 175.079C159.318 178.349 125.136 181 82.9707 181C40.805 181 6.6228 178.349 6.6228 175.079C6.6228 171.808 40.805 169.157 82.9707 169.157C125.136 169.157 159.318 171.808 159.318 175.079Z" fill="black"/>
<path d="M134.752 135.257V173.41H139.569L141.358 134.821L134.752 135.257Z" fill="#664621"/>
<path d="M159.318 135.632V173.734H163.57L165.149 135.197L159.318 135.632Z" fill="#664621"/>
<path d="M144.248 134.86L142.184 173.41L148.377 172.673V135.187L144.248 134.86Z" fill="#664621"/>
<path d="M151.405 135.47L150.716 172.673L156.91 173.41V135.47H151.405Z" fill="#664621"/>
<path d="M161.762 141.639H132.138V144.632H161.762V141.639Z" fill="#543A1B"/>
<path d="M160.832 160.026H131.208V163.018H160.832V160.026Z" fill="#543A1B"/>
<path d="M30.5364 174.682V136.529H25.7192L23.9302 175.117L30.5364 174.682Z" fill="#664621"/>
<path d="M5.96986 174.307V136.205H1.71812L0.138672 174.742L5.96986 174.307Z" fill="#664621"/>
<path d="M21.0403 175.079L23.1045 136.529L16.9116 137.265V174.752L21.0403 175.079Z" fill="#664621"/>
<path d="M13.8837 174.469L14.5718 137.265L8.37866 136.529V174.469H13.8837Z" fill="#664621"/>
<path d="M33.1513 165.306H3.5271V168.299H33.1513V165.306Z" fill="#543A1B"/>
<path d="M34.0803 146.919H4.4563V149.912H34.0803V146.919Z" fill="#543A1B"/>
<path d="M132.45 13.7705H37.6909V119.888H132.45V13.7705Z" fill="#82582F"/>
<path d="M135.818 11.0134H33.6995V14.3303H135.818V11.0134Z" fill="#664621"/>
<path d="M55.3069 15.6748H36.5896V24.3117H55.3069V15.6748Z" fill="#664621"/>
<path d="M47.9436 25.97H36.5896V34.6068H47.9436V25.97Z" fill="#664621"/>
<path d="M55.3069 36.2649H36.5896V44.9018H55.3069V36.2649Z" fill="#664621"/>
<path d="M47.9436 46.5598H36.5896V55.1967H47.9436V46.5598Z" fill="#664621"/>
<path d="M55.3069 56.855H36.5896V65.4916H55.3069V56.855Z" fill="#664621"/>
<path d="M47.9436 67.1501H36.5896V75.7868H47.9436V67.1501Z" fill="#664621"/>
<path d="M55.3069 77.4451H36.5896V86.0817H55.3069V77.4451Z" fill="#664621"/>
<path d="M47.9436 87.7402H36.5896V96.3771H47.9436V87.7402Z" fill="#664621"/>
<path d="M55.3069 98.0354H36.5896V106.672H55.3069V98.0354Z" fill="#664621"/>
<path d="M47.9436 108.33H36.5896V116.967H47.9436V108.33Z" fill="#664621"/>
<path d="M134.52 15.6748H115.803V24.3117H134.52V15.6748Z" fill="#664621"/>
<path d="M134.52 25.97H123.166V34.6068H134.52V25.97Z" fill="#664621"/>
<path d="M134.52 36.2649H115.803V44.9018H134.52V36.2649Z" fill="#664621"/>
<path d="M134.52 46.5598H123.166V55.1967H134.52V46.5598Z" fill="#664621"/>
<path d="M134.52 56.855H115.803V65.4916H134.52V56.855Z" fill="#664621"/>
<path d="M134.52 67.1501H123.166V75.7868H134.52V67.1501Z" fill="#664621"/>
<path d="M134.52 77.4451H115.803V86.0817H134.52V77.4451Z" fill="#664621"/>
<path d="M134.52 87.7402H123.166V96.3771H134.52V87.7402Z" fill="#664621"/>
<path d="M134.52 98.0354H115.803V106.672H134.52V98.0354Z" fill="#664621"/>
<path d="M134.52 108.33H123.166V116.967H134.52V108.33Z" fill="#664621"/>
<path d="M136.823 128.459L136.804 131.908H136.566H132.46L132.618 128.399L136.823 128.459Z" fill="#560021"/>
<path d="M132.46 136.715L136.764 136.804L136.744 139.688H136.566L132.45 139.638L132.46 139.084V136.715Z" fill="#560021"/>
<path d="M136.616 157.529L136.586 161.484L132.46 161.465V157.647V157.529H136.566H136.616Z" fill="#560021"/>
<path d="M136.714 143.949L136.694 147.17H136.685H132.785L132.618 143.949V143.881L136.566 143.949H136.714Z" fill="#560021"/>
<path d="M46.4027 150.045V153.793H41.3882L41.418 150.045H41.4969H46.4027Z" fill="#93500D"/>
<path d="M46.4027 150.045V153.793H41.3882L41.418 150.045H41.4969H46.4027Z" stroke="#68370C" stroke-miterlimit="10"/>
<path d="M41.438 147.171L41.467 142.275H41.5757L44.3685 142.325V147.171H41.4968H41.438Z" fill="#93500D"/>
<path d="M41.438 147.171L41.467 142.275H41.5757L44.3685 142.325V147.171H41.4968H41.438Z" stroke="#68370C" stroke-miterlimit="10"/>
<path d="M48.5446 147.171H44.3684V142.325L49.2058 142.414L84.6727 143.038L87.9602 143.097V147.171H84.6727H48.5446Z" fill="#93500D"/>
<path d="M48.5446 147.171H44.3684V142.325L49.2058 142.414L84.6727 143.038L87.9602 143.097V147.171H84.6727H48.5446Z" stroke="#68370C" stroke-miterlimit="10"/>
<path d="M111.749 136.28L114.03 136.318L114.02 136.674V139.4L109.924 139.352L90.5369 139.104V135.823L111.749 136.28Z" fill="#93500D"/>
<path d="M111.749 136.28L114.03 136.318L114.02 136.674V139.4L109.924 139.352L90.5369 139.104V135.823L111.749 136.28Z" stroke="#68370C" stroke-miterlimit="10"/>
<path d="M86.8745 135.753L90.5367 135.823V139.104L84.929 139.034L84.9687 138.478L85.0285 135.714L86.8745 135.753Z" fill="#93500D"/>
<path d="M86.8745 135.753L90.5367 135.823V139.104L84.929 139.034L84.9687 138.478L85.0285 135.714L86.8745 135.753Z" stroke="#68370C" stroke-miterlimit="10"/>
<path d="M109.924 139.352V143.485L107.604 143.434L87.9601 143.098L84.6726 143.038L84.929 139.034L90.5367 139.104L109.924 139.352Z" fill="#93500D"/>
<path d="M109.924 139.352V143.485L107.604 143.434L87.9601 143.098L84.6726 143.038L84.929 139.034L90.5367 139.104L109.924 139.352Z" stroke="#68370C" stroke-miterlimit="10"/>
<path d="M132.618 128.398L132.46 131.908H129.962H115.837V128.181L118.452 128.211L132.618 128.398Z" fill="#93500D"/>
<path d="M132.618 128.398L132.46 131.908H129.962H115.837V128.181L118.452 128.211L132.618 128.398Z" stroke="#68370C" stroke-miterlimit="10"/>
<path d="M136.744 139.689L136.714 143.95H136.566L132.618 143.882L129.962 143.831V139.609L132.45 139.638L136.566 139.689H136.744Z" fill="#93500D"/>
<path d="M136.744 139.689L136.714 143.95H136.566L132.618 143.882L129.962 143.831V139.609L132.45 139.638L136.566 139.689H136.744Z" stroke="#68370C" stroke-miterlimit="10"/>
<path d="M120.604 147.171H107.604V147.093V143.434L109.924 143.484L129.962 143.831L132.618 143.881V143.949L132.785 147.171H120.604Z" fill="#93500D"/>
<path d="M120.604 147.171H107.604V147.093V143.434L109.924 143.484L129.962 143.831L132.618 143.881V143.949L132.785 147.171H120.604Z" stroke="#68370C" stroke-miterlimit="10"/>
<path d="M120.604 147.171V150.045H105.106V147.171H107.604H120.604Z" fill="#93500D"/>
<path d="M120.604 147.171V150.045H105.106V147.171H107.604H120.604Z" stroke="#68370C" stroke-miterlimit="10"/>
<path d="M103.004 150.045H86.8745H84.6726V147.171H87.9601H105.106V150.045H103.004Z" fill="#93500D"/>
<path d="M103.004 150.045H86.8745H84.6726V147.171H87.9601H105.106V150.045H103.004Z" stroke="#68370C" stroke-miterlimit="10"/>
<path d="M103.004 150.045V153.793H90.5367H86.8745V150.045H103.004Z" fill="#93500D"/>
<path d="M103.004 150.045V153.793H90.5367H86.8745V150.045H103.004Z" stroke="#68370C" stroke-miterlimit="10"/>
<path d="M103.004 153.793H106.874V157.529H90.5369V153.793H103.004Z" fill="#93500D"/>
<path d="M103.004 153.793H106.874V157.529H90.5369V153.793H103.004Z" stroke="#68370C" stroke-miterlimit="10"/>
<path d="M105.106 150.045H120.604H123.24V153.793H106.874H103.004V150.045H105.106Z" fill="#93500D"/>
<path d="M105.106 150.045H120.604H123.24V153.793H106.874H103.004V150.045H105.106Z" stroke="#68370C" stroke-miterlimit="10"/>
<path d="M136.674 150.045L136.645 153.793H136.566H130.644H123.24V150.045H136.674Z" fill="#93500D"/>
<path d="M136.674 150.045L136.645 153.793H136.566H130.644H123.24V150.045H136.674Z" stroke="#68370C" stroke-miterlimit="10"/>
<path d="M136.645 153.793L136.616 157.529H136.566H132.46H130.644V153.793H136.566H136.645Z" fill="#93500D"/>
<path d="M136.645 153.793L136.616 157.529H136.566H132.46H130.644V153.793H136.566H136.645Z" stroke="#68370C" stroke-miterlimit="10"/>
<path d="M130.644 153.793V157.529H108.759H106.874V153.793H123.24H130.644Z" fill="#93500D"/>
<path d="M130.644 153.793V157.529H108.759H106.874V153.793H123.24H130.644Z" stroke="#68370C" stroke-miterlimit="10"/>
<path d="M132.46 131.908H136.566H136.804L136.763 136.804L132.46 136.715L129.656 136.655L129.962 131.908H132.46Z" fill="#93500D"/>
<path d="M132.46 131.908H136.566H136.804L136.763 136.804L132.46 136.715L129.656 136.655L129.962 131.908H132.46Z" stroke="#68370C" stroke-miterlimit="10"/>
<path d="M129.962 131.908L129.657 136.655L114.03 136.318L111.749 136.279V131.908H115.837H129.962Z" fill="#93500D"/>
<path d="M129.962 131.908L129.657 136.655L114.03 136.318L111.749 136.279V131.908H115.837H129.962Z" stroke="#68370C" stroke-miterlimit="10"/>
<path d="M136.862 123.325L136.832 127.179L136.822 128.459L132.618 128.399L118.452 128.211L118.462 127.814V123.325V123.265L136.862 123.325Z" fill="#93500D"/>
<path d="M136.862 123.325L136.832 127.179L136.822 128.459L132.618 128.399L118.452 128.211L118.462 127.814V123.325V123.265L136.862 123.325Z" stroke="#68370C" stroke-miterlimit="10"/>
<path d="M90.5367 135.823L86.8745 135.753V131.908H95.1263H111.749V136.279L90.5367 135.823Z" fill="#93500D"/>
<path d="M90.5367 135.823L86.8745 135.753V131.908H95.1263H111.749V136.279L90.5367 135.823Z" stroke="#68370C" stroke-miterlimit="10"/>
<path d="M107.604 147.093V147.171H105.106H87.9602V143.097L107.604 143.434V147.093Z" fill="#93500D"/>
<path d="M107.604 147.093V147.171H105.106H87.9602V143.097L107.604 143.434V147.093Z" stroke="#68370C" stroke-miterlimit="10"/>
<path d="M106.874 157.529H108.759V161.335L97.4169 161.275L84.9688 161.217V157.529H90.5368H106.874Z" fill="#93500D"/>
<path d="M106.874 157.529H108.759V161.335L97.4169 161.275L84.9688 161.217V157.529H90.5368H106.874Z" stroke="#68370C" stroke-miterlimit="10"/>
<path d="M84.9688 161.217L97.417 161.275V161.484V164.734L48.5447 164.934V164.696V161.027L84.9688 161.217Z" fill="#93500D"/>
<path d="M84.9688 161.217L97.417 161.275V161.484V164.734L48.5447 164.934V164.696V161.027L84.9688 161.217Z" stroke="#68370C" stroke-miterlimit="10"/>
<path d="M84.6727 147.171H48.5447V150.045H84.6727V147.171Z" fill="#93500D"/>
<path d="M84.6727 147.171H48.5447V150.045H84.6727V147.171Z" stroke="#68370C" stroke-miterlimit="10"/>
<path d="M82.0373 127.725V131.908H53.2632V127.458V127.338L62.6902 127.468L82.0373 127.725Z" fill="#93500D"/>
<path d="M82.0373 127.725V131.908H53.2632V127.458V127.338L62.6902 127.468L82.0373 127.725Z" stroke="#68370C" stroke-miterlimit="10"/>
<path d="M82.0373 127.725L62.6902 127.468V127.458V123.106L84.6728 123.176V123.325L84.9689 127.766L82.0373 127.725Z" fill="#93500D"/>
<path d="M82.0373 127.725L62.6902 127.468V127.458V123.106L84.6728 123.176V123.325L84.9689 127.766L82.0373 127.725Z" stroke="#68370C" stroke-miterlimit="10"/>
<path d="M41.576 134.793H41.5269L41.5462 131.908H46.4029V134.891L42.938 134.822L41.576 134.793Z" fill="#93500D"/>
<path d="M41.576 134.793H41.5269L41.5462 131.908H46.4029V134.891L42.938 134.822L41.576 134.793Z" stroke="#68370C" stroke-miterlimit="10"/>
<path d="M49.2059 138.577L42.9377 138.498V138.478V134.822L46.4026 134.891L85.0287 135.714L84.9689 138.478L84.9291 139.034L49.2059 138.577Z" fill="#93500D"/>
<path d="M49.2059 138.577L42.9377 138.498V138.478V134.822L46.4026 134.891L85.0287 135.714L84.9689 138.478L84.9291 139.034L49.2059 138.577Z" stroke="#68370C" stroke-miterlimit="10"/>
<path d="M42.9378 138.478V138.498L41.4968 138.478L41.5266 134.793H41.5757L42.9378 134.822V138.478Z" fill="#93500D"/>
<path d="M42.9378 138.478V138.498L41.4968 138.478L41.5266 134.793H41.5757L42.9378 134.822V138.478Z" stroke="#68370C" stroke-miterlimit="10"/>
<path d="M49.2059 138.577V142.414L44.3685 142.325L41.5758 142.275H41.467L41.4968 138.478L42.9378 138.498L49.2059 138.577Z" fill="#93500D"/>
<path d="M49.2059 138.577V142.414L44.3685 142.325L41.5758 142.275H41.467L41.4968 138.478L42.9378 138.498L49.2059 138.577Z" stroke="#68370C" stroke-miterlimit="10"/>
<path d="M41.4966 150.045H41.4177L41.4378 147.171H41.4966H44.3683H48.5446V150.045H46.4025H41.4966Z" fill="#93500D"/>
<path d="M41.4966 150.045H41.4177L41.4378 147.171H41.4966H44.3683H48.5446V150.045H46.4025H41.4966Z" stroke="#68370C" stroke-miterlimit="10"/>
<path d="M43.609 157.529V160.998L41.3384 160.988L41.3593 157.529H43.609Z" fill="#93500D"/>
<path d="M43.609 157.529V160.998L41.3384 160.988L41.3593 157.529H43.609Z" stroke="#68370C" stroke-miterlimit="10"/>
<path d="M43.609 160.998L48.5446 161.027V164.696V164.934L41.3088 164.963L41.3384 160.989L43.609 160.998Z" fill="#93500D"/>
<path d="M43.609 160.998L48.5446 161.027V164.696V164.934L41.3088 164.963L41.3384 160.989L43.609 160.998Z" stroke="#68370C" stroke-miterlimit="10"/>
<path d="M48.5445 161.027L43.6089 160.998V157.529H84.9687V161.217L48.5445 161.027Z" fill="#93500D"/>
<path d="M48.5445 161.027L43.6089 160.998V157.529H84.9687V161.217L48.5445 161.027Z" stroke="#68370C" stroke-miterlimit="10"/>
<path d="M84.6727 150.045H86.8746V153.793H46.4026V150.045H48.5447H84.6727Z" fill="#93500D"/>
<path d="M84.6727 150.045H86.8746V153.793H46.4026V150.045H48.5447H84.6727Z" stroke="#68370C" stroke-miterlimit="10"/>
<path d="M86.8746 131.908V135.753L85.0286 135.714L46.4026 134.891V131.908H53.2631H82.0373H86.8746Z" fill="#93500D"/>
<path d="M86.8746 131.908V135.753L85.0286 135.714L46.4026 134.891V131.908H53.2631H82.0373H86.8746Z" stroke="#68370C" stroke-miterlimit="10"/>
<path d="M84.9686 127.766L95.1263 127.893V131.908H86.8745H82.0371V127.725L84.9686 127.766Z" fill="#93500D"/>
<path d="M84.9686 127.766L95.1263 127.893V131.908H86.8745H82.0371V127.725L84.9686 127.766Z" stroke="#68370C" stroke-miterlimit="10"/>
<path d="M118.462 127.814L118.452 128.211L115.837 128.181L95.1264 127.893L84.9687 127.766L84.6726 123.325V123.176L118.462 123.265V123.325V127.814Z" fill="#93500D"/>
<path d="M118.462 127.814L118.452 128.211L115.837 128.181L95.1264 127.893L84.9687 127.766L84.6726 123.325V123.176L118.462 123.265V123.325V127.814Z" stroke="#68370C" stroke-miterlimit="10"/>
<path d="M115.837 128.182V131.908H111.749H95.1265V127.894L115.837 128.182Z" fill="#93500D"/>
<path d="M115.837 128.182V131.908H111.749H95.1265V127.894L115.837 128.182Z" stroke="#68370C" stroke-miterlimit="10"/>
<path d="M114.02 139.4L129.962 139.609V143.831L109.924 143.485V139.352L114.02 139.4Z" fill="#93500D"/>
<path d="M114.02 139.4L129.962 139.609V143.831L109.924 143.485V139.352L114.02 139.4Z" stroke="#68370C" stroke-miterlimit="10"/>
<path d="M129.962 139.609L114.021 139.4V136.674L114.03 136.318L129.657 136.655L132.46 136.715V139.084L132.45 139.638L129.962 139.609Z" fill="#93500D"/>
<path d="M129.962 139.609L114.021 139.4V136.674L114.03 136.318L129.657 136.655L132.46 136.715V139.084L132.45 139.638L129.962 139.609Z" stroke="#68370C" stroke-miterlimit="10"/>
<path d="M132.785 147.171H136.685H136.694L136.674 150.045H123.24H120.604V147.171H132.785Z" fill="#93500D"/>
<path d="M132.785 147.171H136.685H136.694L136.674 150.045H123.24H120.604V147.171H132.785Z" stroke="#68370C" stroke-miterlimit="10"/>
<path d="M130.644 157.529H132.46V157.647V161.465L116.982 161.385L108.759 161.335V157.529H130.644Z" fill="#93500D"/>
<path d="M130.644 157.529H132.46V157.647V161.465L116.982 161.385L108.759 161.335V157.529H130.644Z" stroke="#68370C" stroke-miterlimit="10"/>
<path d="M132.46 161.465L136.585 161.484L136.566 164.576V164.586L116.982 164.665V161.484V161.385L132.46 161.465Z" fill="#93500D"/>
<path d="M132.46 161.465L136.585 161.484L136.566 164.576V164.586L116.982 164.665V161.484V161.385L132.46 161.465Z" stroke="#68370C" stroke-miterlimit="10"/>
<path d="M108.759 161.335L116.982 161.385V161.484V164.664L97.417 164.734V161.484V161.275L108.759 161.335Z" fill="#93500D"/>
<path d="M108.759 161.335L116.982 161.385V161.484V164.664L97.417 164.734V161.484V161.275L108.759 161.335Z" stroke="#68370C" stroke-miterlimit="10"/>
<path d="M41.3591 157.529L41.3879 153.793H46.4024H86.8745H90.5367V157.529H84.9686H43.6089H41.3591Z" fill="#93500D"/>
<path d="M41.3591 157.529L41.3879 153.793H46.4024H86.8745H90.5367V157.529H84.9686H43.6089H41.3591Z" stroke="#68370C" stroke-miterlimit="10"/>
<path d="M84.9291 139.034L84.6727 143.038L49.2058 142.414V138.577L84.9291 139.034Z" fill="#93500D"/>
<path d="M84.9291 139.034L84.6727 143.038L49.2058 142.414V138.577L84.9291 139.034Z" stroke="#68370C" stroke-miterlimit="10"/>
<path d="M53.2634 127.458V131.908H46.4029H41.5461L41.5759 127.179L53.2634 127.338V127.458Z" fill="#93500D"/>
<path d="M53.2634 127.458V131.908H46.4029H41.5461L41.5759 127.179L53.2634 127.338V127.458Z" stroke="#68370C" stroke-miterlimit="10"/>
<path d="M62.6904 127.458V127.468L53.2634 127.338L41.5759 127.179L41.6057 123.046L62.6904 123.106V127.458Z" fill="#93500D"/>
<path d="M62.6904 127.458V127.468L53.2634 127.338L41.5759 127.179L41.6057 123.046L62.6904 123.106V127.458Z" stroke="#68370C" stroke-miterlimit="10"/>
<path d="M116.982 164.665L136.566 164.586L140.969 164.566V175.291C131.591 175.688 120.703 175.974 109.46 176.162C100.111 176.332 90.5165 176.431 81.3558 176.489C62.2851 176.609 45.0607 176.559 35.7215 176.51C31.0627 176.489 28.3684 176.47 28.3684 176.47V113.601H140.969V123.334L136.862 123.325L118.463 123.265L84.6728 123.176L62.6902 123.106L41.6055 123.046L41.5757 127.179L41.5459 131.908L41.5266 134.793L41.4968 138.478L41.467 142.275L41.438 147.171L41.4179 150.045L41.3881 153.793L41.3594 157.529L41.3384 160.989L41.3089 164.963L48.5447 164.934L97.417 164.734L116.982 164.665Z" fill="#706C62"/>
<path d="M140.969 113.601L37.9039 121.137L28.3684 176.47V113.601H140.969Z" fill="#8F8A81"/>
<path opacity="0.5" d="M48.5446 164.934L44.9815 161.484L47.4053 128.211L124.651 127.179L124.227 155.785C124.227 155.785 110.904 164.789 111.749 164.734C112.595 164.68 136.566 164.586 136.566 164.586L136.862 123.325L41.6054 123.046L41.3088 164.963L48.5446 164.934Z" fill="#B0B0B0"/>
<path d="M77.0603 32.1711H63.5127V50.6881H77.0603V32.1711Z" fill="#473117"/>
<path d="M78.5143 29.96H62.2573V32.3955H78.5143V29.96Z" fill="#665846"/>
<path d="M78.5138 50.688H62.2568V53.1238H78.5138V50.688Z" fill="#665846"/>
<path d="M67.5212 31.8774H66.489V50.9472H67.5212V31.8774Z" fill="#291B10"/>
<path d="M74.3337 31.8774H73.3015V50.9472H74.3337V31.8774Z" fill="#291B10"/>
<path d="M77.4308 43.8477H62.5667V44.8841H77.4308V43.8477Z" fill="#291B10"/>
<path d="M77.4308 36.0747H62.5667V37.1112H77.4308V36.0747Z" fill="#291B10"/>
<path d="M97.9971 70.717H84.449V89.2342H97.9971V70.717Z" fill="#473117"/>
<path d="M99.4506 68.5061H83.1936V70.9416H99.4506V68.5061Z" fill="#665846"/>
<path d="M99.4506 89.2341H83.1936V91.6699H99.4506V89.2341Z" fill="#665846"/>
<path d="M88.4578 70.4231H87.4255V89.4932H88.4578V70.4231Z" fill="#291B10"/>
<path d="M95.27 70.4231H94.238V89.4932H95.27V70.4231Z" fill="#291B10"/>
<path d="M98.3668 82.3938H83.5032V83.4302H98.3668V82.3938Z" fill="#291B10"/>
<path d="M98.3668 74.6208H83.5032V75.6573H98.3668V74.6208Z" fill="#291B10"/>
<path opacity="0.2" d="M105.609 23.3789H94.238V27.939H105.609V23.3789Z" fill="#291B10"/>
<path opacity="0.2" d="M98.7968 28.8977H87.4255V33.4581H98.7968V28.8977Z" fill="#291B10"/>
<path opacity="0.2" d="M83.1159 20.3989H71.7446V24.9593H83.1159V20.3989Z" fill="#291B10"/>
<path opacity="0.2" d="M112.946 44.8843H101.575V49.4446H112.946V44.8843Z" fill="#291B10"/>
<path opacity="0.2" d="M94.1432 52.9165H82.7725V57.4769H94.1432V52.9165Z" fill="#291B10"/>
<path opacity="0.2" d="M77.0604 58.2024H65.6897V62.7625H77.0604V58.2024Z" fill="#291B10"/>
<path opacity="0.2" d="M66.6779 67.4436H55.3069V72.004H66.6779V67.4436Z" fill="#291B10"/>
<path opacity="0.2" d="M112.198 73.5068H100.827V78.0672H112.198V73.5068Z" fill="#291B10"/>
<path opacity="0.2" d="M117.359 90.4521H105.988V95.0122H117.359V90.4521Z" fill="#291B10"/>
<path opacity="0.2" d="M102.693 98.6396H91.322V103.2H102.693V98.6396Z" fill="#291B10"/>
<path opacity="0.2" d="M94.7711 104.858H83.4001V109.419H94.7711V104.858Z" fill="#291B10"/>
<path opacity="0.2" d="M75.6843 94.0969H64.3127V98.657H75.6843V94.0969Z" fill="#291B10"/>
<path opacity="0.2" d="M69.1986 106.05H57.8276V110.61H69.1986V106.05Z" fill="#291B10"/>
<path d="M96.113 128.458H68.6567V164.852H96.113V128.458Z" fill="#291B10"/>
<path d="M71.6087 132.125H96.113V128.458H68.6567V164.852H71.6087V132.125Z" fill="#543721"/>
<path d="M75.2624 130.153H73.8293V164.665H75.2624V130.153Z" fill="#545454"/>
<path d="M81.2495 130.153H79.8164V164.665H81.2495V130.153Z" fill="#545454"/>
<path d="M87.2364 130.153H85.8027V164.665H87.2364V130.153Z" fill="#545454"/>
<path d="M93.2232 130.153H91.7898V164.665H93.2232V130.153Z" fill="#545454"/>
<path d="M20.9197 17.1792L29.8643 14.8977V25.2241L35.0552 31.5577V104.423L27.9867 109.416V107.962L33.1857 103.121L33.4413 32.8287L23.7305 27.5093L20.9197 17.1792Z" fill="#494252"/>
<path d="M19.7549 16.0702V18.3058L31.0172 15.388V13.3127L19.7549 16.0702Z" fill="#2E2933"/>
<path d="M32.9182 38.9541V41.725L37.6908 41.4382L37.5936 38.9541H32.9182Z" fill="#2E2933"/>
<path d="M32.9185 69.1074L32.0413 71.877L37.5939 71.9003L37.4535 69.1074H32.9185Z" fill="#2E2933"/>
<path d="M32.0413 100.596L33.1859 103.122L36.4258 102.823L36.5157 100.66L32.0413 100.596Z" fill="#2E2933"/>
<path d="M32.6396 173.702C32.428 173.016 31.655 172.456 30.9975 172.739C31.7093 172.019 32.4693 171.19 32.4776 170.176C32.4849 169.162 31.1945 168.215 30.4518 168.903C30.7814 168.318 31.0581 167.656 30.9557 166.993C30.8537 166.329 30.237 165.71 29.5793 165.83C30.732 164.817 30.4991 162.656 29.158 161.914C29.5952 161.195 29.8314 160.354 29.833 159.511C29.8341 159.127 29.7619 158.695 29.4515 158.468C29.2111 158.291 28.8159 158.377 28.6727 158.602C28.869 157.712 28.5776 156.723 27.9102 156.102C27.6447 155.855 27.3081 155.66 26.947 155.661C26.2853 155.664 25.7851 156.34 25.7323 157.002C25.6803 157.664 25.9529 158.303 26.2207 158.911C25.0356 158.701 23.9746 159.888 23.8461 161.088C23.7175 162.29 24.2409 163.453 24.7518 164.547C24.5574 164.07 23.8646 163.978 23.4348 164.259C23.0046 164.541 22.7956 165.061 22.6795 165.562C22.2847 167.262 22.7041 169.133 23.7849 170.498C23.1619 169.828 21.9308 170.558 21.8313 171.47C21.7312 172.381 22.3137 173.21 22.8664 173.94C22.5483 173.31 21.502 173.438 21.1301 174.037C20.7572 174.638 20.9057 175.431 21.2145 176.067C21.5234 176.702 21.9771 177.265 22.2261 177.926L31.7605 177.141C32.1426 176.81 32.3122 176.301 32.4562 175.814C32.6605 175.127 32.85 174.388 32.6396 173.702Z" fill="#79A958"/>
<path d="M54.9425 172.805C54.6807 172.346 54.0111 172.363 53.5125 172.536C53.2324 172.633 52.9677 172.769 52.7165 172.924C53.0077 172.302 53.2277 171.648 53.3625 170.974C53.4697 170.439 53.4456 169.742 52.947 169.522C52.5932 169.368 52.1876 169.552 51.8607 169.759C51.1256 170.225 50.4921 170.836 49.9638 171.529C51.026 169.552 51.6924 167.359 51.8861 165.119C50.0735 165.835 48.6613 167.437 48.0848 169.298C48.7431 166.18 49.2511 162.97 48.4533 159.909C45.9462 162.097 44.6761 165.626 45.2105 168.919C44.2502 165.983 44.2167 162.729 42.736 160.021C42.6169 159.803 42.4784 159.58 42.2602 159.463C41.8664 159.253 41.3526 159.488 41.1075 159.861C40.8631 160.236 40.8221 160.705 40.8051 161.152C40.7048 163.724 41.1629 166.316 42.1371 168.696C41.2376 167.076 40.3381 165.454 39.4392 163.833C38.8219 162.72 38.0855 161.508 36.8651 161.159C36.4656 162.067 36.7554 163.117 37.069 164.058C37.8592 166.426 38.7759 168.752 39.8155 171.02C38.8232 169.048 37.5028 167.243 35.9265 165.701C35.6252 165.406 35.2063 165.1 34.8221 165.27C34.3645 165.474 34.3988 166.132 34.5284 166.618C35.1754 169.04 36.309 171.328 37.8362 173.313C36.3652 171.57 34.635 169.978 32.4446 169.485C32.1788 169.425 31.8514 169.404 31.6862 169.621C31.5153 169.846 31.6384 170.168 31.7693 170.42C33.2351 173.245 35.084 175.87 37.2464 178.201L52.3807 178.652C53.7922 177.335 54.7387 175.525 55.0178 173.609C55.057 173.338 55.0794 173.043 54.9425 172.805Z" fill="#579326"/>
<path d="M136.519 7.96272C136.383 7.72315 136.033 7.73207 135.773 7.82207C135.627 7.87298 135.489 7.94382 135.358 8.02516C135.51 7.70032 135.625 7.35895 135.695 7.00761C135.751 6.72843 135.738 6.36449 135.479 6.25035C135.293 6.16927 135.082 6.26557 134.911 6.37341C134.528 6.61665 134.197 6.93545 133.922 7.29703C134.476 6.26504 134.824 5.12154 134.925 3.95285C133.979 4.3265 133.242 5.16221 132.941 6.13332C133.285 4.50624 133.55 2.83113 133.134 1.23422C131.826 2.37615 131.163 4.21734 131.442 5.93496C130.941 4.40338 130.923 2.70597 130.151 1.29273C130.089 1.17938 130.017 1.06288 129.903 1.002C129.697 0.892323 129.429 1.0146 129.301 1.20955C129.174 1.40504 129.152 1.64958 129.143 1.88285C129.091 3.22446 129.33 4.57708 129.838 5.81898C129.369 4.97356 128.9 4.12734 128.431 3.28139C128.109 2.70072 127.724 2.06862 127.088 1.88679C126.879 2.3604 127.03 2.90827 127.194 3.39921C127.606 4.63481 128.085 5.84784 128.627 7.03175C128.109 6.00265 127.421 5.06067 126.598 4.25618C126.441 4.10242 126.222 3.94262 126.022 4.03183C125.783 4.1381 125.801 4.48131 125.869 4.73452C126.206 5.99846 126.798 7.19234 127.595 8.22773C126.827 7.31828 125.924 6.48755 124.781 6.23041C124.643 6.19892 124.472 6.18816 124.386 6.30152C124.296 6.41881 124.361 6.58726 124.429 6.71846C125.194 8.19231 126.158 9.56199 127.287 10.7779L135.183 11.0135C135.919 10.3258 136.413 9.38173 136.559 8.38228C136.579 8.24059 136.591 8.08709 136.519 7.96272Z" fill="#579326"/>
<path d="M39.9025 9.73264C39.809 9.56864 39.5696 9.57494 39.3924 9.6366C39.2921 9.6715 39.198 9.71978 39.1081 9.77488C39.2121 9.55316 39.2905 9.3199 39.3386 9.07928C39.3767 8.88853 39.3684 8.63978 39.1901 8.56159C39.0642 8.50622 38.9194 8.57208 38.8029 8.64608C38.5405 8.81243 38.3142 9.03022 38.126 9.27765C38.5049 8.57182 38.7428 7.78963 38.8117 6.99039C38.1652 7.24596 37.6614 7.81745 37.4555 8.48156C37.6901 7.36876 37.8715 6.22342 37.5869 5.13161C36.6924 5.91196 36.2395 7.17144 36.43 8.3459C36.0874 7.2987 36.0757 6.13788 35.5473 5.17123C35.5049 5.09382 35.4553 5.01406 35.3777 4.9726C35.2368 4.89756 35.0539 4.98126 34.9661 5.11429C34.8788 5.24811 34.8647 5.41525 34.8584 5.57505C34.8226 6.49237 34.986 7.4173 35.3335 8.26666C35.0126 7.68835 34.6917 7.10978 34.3708 6.53147C34.1505 6.13421 33.8881 5.70205 33.4525 5.57741C33.3098 5.90146 33.4133 6.27616 33.5254 6.61202C33.8071 7.45692 34.1346 8.28608 34.5051 9.09582C34.1513 8.39208 33.6801 7.74791 33.118 7.19794C33.0103 7.09272 32.8606 6.98357 32.7237 7.04444C32.5603 7.11712 32.5726 7.3517 32.6189 7.52514C32.8499 8.38946 33.2542 9.20576 33.7995 9.91369C33.274 9.29208 32.657 8.72374 31.8757 8.54794C31.7806 8.52643 31.6635 8.51908 31.6049 8.59648C31.5438 8.67678 31.5877 8.79197 31.6342 8.8817C32.1574 9.88955 32.817 10.8263 33.5887 11.6578L38.9884 11.8186C39.4917 11.3487 39.8296 10.703 39.9289 10.0197C39.943 9.92261 39.9511 9.81739 39.9025 9.73264Z" fill="#579326"/>
<path d="M68.2283 173.069C67.4151 172.359 66.0055 172.393 65.3478 173.249C65.5968 172.845 65.8524 172.423 65.9083 171.951C65.964 171.478 65.7583 170.939 65.3182 170.763C65.0705 170.664 64.7919 170.693 64.5285 170.732C63.5007 170.886 62.4944 171.18 61.5457 171.604C61.6785 170.566 60.9099 169.493 59.889 169.288C58.8667 169.082 57.7471 169.777 57.4712 170.786C57.2224 169.688 55.9649 168.939 54.8867 169.245C53.8077 169.55 53.1267 170.849 53.4868 171.916C52.852 171.425 52.0853 171.052 51.2841 171.072C50.4826 171.092 49.6618 171.585 49.4355 172.357C49.2797 172.892 49.5102 173.508 49.9304 173.845C49.1088 173.565 48.2383 173.431 47.3723 173.465C47.8466 176 49.7339 178.22 52.1538 179.086L66.6478 178.287C67.6283 177.839 68.4985 177.064 68.8728 176.051C69.2475 175.036 69.0403 173.78 68.2283 173.069Z" fill="#79A958"/>
</svg>
