<svg width="202" height="215" viewBox="0 0 202 215" fill="none" xmlns="http://www.w3.org/2000/svg">
<rect width="201.804" height="214.055" fill="black" fill-opacity="0"/>
<path opacity="0.3" d="M100.902 214.055C156.629 214.055 201.804 211.267 201.804 207.826C201.804 204.386 156.629 201.598 100.902 201.598C45.1754 201.598 -1.52588e-05 204.386 -1.52588e-05 207.826C-1.52588e-05 211.267 45.1754 214.055 100.902 214.055Z" fill="black"/>
<rect width="29.6368" height="50.3234" fill="black" fill-opacity="0" transform="translate(4.1461 158.645)"/>
<rect width="20.0193" height="48.3081" fill="black" fill-opacity="0" transform="translate(13.7635 158.645)"/>
<path d="M15.9857 188.806C14.2633 188.393 13.3759 186.233 13.9259 184.55C14.4769 182.867 16.0943 181.712 17.7955 181.219C16.8934 179.85 15.9497 178.306 16.2161 176.688C16.4611 175.194 18.3779 174.043 19.5423 174.828C18.1897 173.684 17.2399 171.905 17.6996 170.212C18.143 168.576 20.3292 167.576 21.6768 168.429C20.3861 167.253 20.245 164.944 21.521 163.708C22.9203 162.353 25.5743 162.724 26.5464 164.413C25.8275 163.296 25.2475 162.09 24.8259 160.831C24.6362 160.266 24.4911 159.599 24.8361 159.111C25.3587 158.368 26.5195 158.637 27.3211 159.067C29.9228 160.459 32.0238 162.763 33.1715 165.479L33.7828 202.958C33.6002 203.822 32.6509 204.309 31.7722 204.41C30.8949 204.511 29.9954 204.353 29.1258 204.51C28.4226 204.638 27.7752 204.966 27.138 205.291C25.3389 206.207 23.4023 207.152 21.3952 206.917C19.3881 206.684 17.4616 204.709 18.0766 202.785C15.3663 201.183 14.7965 196.904 16.9944 194.648C15.8168 193.905 14.5611 193.063 14.1111 191.746C13.6631 190.43 14.6067 188.617 15.9857 188.806Z" fill="#79A958"/>
<rect width="25.9612" height="23.735" fill="black" fill-opacity="0" transform="translate(4.14604 185.233)"/>
<path d="M10.1942 205.358C9.87461 205.27 9.54939 205.201 9.23128 205.107C7.58795 204.619 5.88881 203.971 4.81575 202.636C4.46821 202.204 4.19221 201.694 4.15162 201.141C4.02072 199.351 6.22062 198.359 8.01413 198.248C10.7863 198.077 13.589 198.775 15.9969 200.155C14.2364 198.65 12.7117 196.871 11.5174 194.888C11.3246 194.568 11.145 194.14 11.3794 193.849C11.5951 193.579 12.0126 193.624 12.348 193.707C16.3465 194.683 19.9421 197.218 22.2029 200.656C20.0395 197.784 18.1313 194.719 16.5119 191.509C16.0223 190.54 15.5565 189.386 16.0299 188.41C19.7153 189.951 22.7559 192.971 24.3246 196.643C23.1943 194.207 22.4332 191.601 22.074 188.941C21.9659 188.135 21.8985 187.289 22.1932 186.531C22.489 185.773 23.2496 185.138 24.0552 185.245C24.659 185.326 25.1364 185.782 25.5443 186.235C28.9731 190.045 30.6301 195.386 29.9614 200.466L29.8021 207.845C28.8589 208.586 27.5753 208.675 26.3774 208.735C18.9086 209.106 11.1308 209.424 4.27085 206.449C6.17191 205.686 8.16481 205.379 10.1942 205.358Z" fill="#579326"/>
<rect width="175.986" height="208.184" fill="black" fill-opacity="0" transform="translate(20.3004)"/>
<rect width="175.986" height="208.184" fill="black" fill-opacity="0" transform="translate(20.3004)"/>
<rect width="48.9993" height="40.8494" fill="black" fill-opacity="0" transform="translate(137.046 129.785)"/>
<rect width="16.8108" height="23.234" fill="black" fill-opacity="0" transform="translate(137.046 129.785)"/>
<path d="M137.512 132.756C137.418 139.51 137.324 146.265 137.23 153.019C137.811 153.019 138.391 153.019 138.972 153.019C139.071 146.283 139.17 139.546 139.27 132.81C139.278 132.256 139.727 131.807 140.273 131.807C144.014 131.807 147.755 131.807 151.496 131.807C151.621 131.807 151.72 131.91 151.718 132.037C151.626 136.457 151.534 140.877 151.442 145.297C152.025 145.297 152.607 145.297 153.189 145.297C153.289 140.659 153.39 136.02 153.49 131.382C153.507 130.632 152.92 130.026 152.18 130.026C148.202 130.026 144.224 130.026 140.247 130.026C138.757 130.026 137.532 131.248 137.512 132.756Z" fill="#D3D0B4"/>
<path d="M153.857 132.929C153.004 132.929 152.151 132.929 151.298 132.929C151.293 133.196 151.287 133.464 151.282 133.731C152.134 133.731 152.986 133.731 153.839 133.731C153.845 133.464 153.85 133.196 153.857 132.929Z" fill="#AFAD96"/>
<path d="M143.29 132.029C142.985 132.029 142.68 132.029 142.375 132.029C142.387 131.281 142.399 130.533 142.411 129.785C142.717 129.785 143.022 129.785 143.327 129.785C143.315 130.533 143.302 131.281 143.29 132.029Z" fill="#E8E4C4"/>
<path d="M139.466 134.684C139.462 134.993 139.457 135.302 139.453 135.611C138.715 135.611 137.977 135.611 137.24 135.611C137.244 135.302 137.248 134.993 137.253 134.684C137.991 134.684 138.728 134.684 139.466 134.684Z" fill="#E8E4C4"/>
<path d="M139.361 141.739C139.357 142.048 139.352 142.356 139.348 142.665C138.613 142.665 137.878 142.665 137.143 142.665C137.147 142.356 137.151 142.048 137.155 141.739C137.891 141.739 138.626 141.739 139.361 141.739Z" fill="#E8E4C4"/>
<path d="M139.257 148.794C139.252 149.103 139.248 149.412 139.243 149.72C138.511 149.72 137.778 149.72 137.046 149.72C137.05 149.412 137.054 149.103 137.058 148.794C137.792 148.794 138.524 148.794 139.257 148.794Z" fill="#E8E4C4"/>
<path d="M148.864 132.029C148.56 132.029 148.255 132.029 147.95 132.029C147.964 131.281 147.978 130.533 147.993 129.785C148.297 129.785 148.603 129.785 148.908 129.785C148.893 130.533 148.879 131.281 148.864 132.029Z" fill="#E8E4C4"/>
<rect width="16.897" height="23.234" fill="black" fill-opacity="0" transform="translate(155.285 137.857)"/>
<path d="M155.903 140.828C155.748 147.582 155.594 154.337 155.439 161.091C156.017 161.091 156.595 161.091 157.174 161.091C157.333 154.355 157.494 147.618 157.654 140.882C157.667 140.328 158.118 139.879 158.662 139.879C162.389 139.879 166.115 139.879 169.841 139.879C169.966 139.879 170.064 139.982 170.06 140.109C169.928 144.529 169.797 148.949 169.665 153.369C170.245 153.369 170.825 153.369 171.405 153.369C171.547 148.731 171.69 144.092 171.832 139.454C171.855 138.704 171.276 138.098 170.539 138.098C166.577 138.098 162.615 138.098 158.653 138.098C157.169 138.098 155.938 139.32 155.903 140.828Z" fill="#D3D0B4"/>
<path d="M172.182 141.001C171.333 141.001 170.484 141.001 169.634 141.001C169.627 141.268 169.619 141.536 169.611 141.803C170.46 141.803 171.309 141.803 172.158 141.803C172.166 141.536 172.174 141.268 172.182 141.001Z" fill="#AFAD96"/>
<path d="M161.665 140.101C161.362 140.101 161.058 140.101 160.754 140.101C160.773 139.353 160.792 138.605 160.811 137.857C161.115 137.857 161.419 137.857 161.723 137.857C161.704 138.605 161.685 139.353 161.665 140.101Z" fill="#E8E4C4"/>
<path d="M157.833 142.756C157.826 143.065 157.818 143.374 157.811 143.683C157.076 143.683 156.342 143.683 155.607 143.683C155.614 143.374 155.621 143.065 155.628 142.756C156.363 142.756 157.098 142.756 157.833 142.756Z" fill="#E8E4C4"/>
<path d="M157.664 149.811C157.657 150.12 157.65 150.428 157.642 150.737C156.91 150.737 156.178 150.737 155.446 150.737C155.453 150.428 155.46 150.12 155.467 149.811C156.2 149.811 156.932 149.811 157.664 149.811Z" fill="#E8E4C4"/>
<path d="M157.496 156.866C157.489 157.175 157.481 157.483 157.474 157.792C156.744 157.792 156.015 157.792 155.285 157.792C155.292 157.483 155.299 157.175 155.306 156.866C156.036 156.866 156.766 156.866 157.496 156.866Z" fill="#E8E4C4"/>
<path d="M167.218 140.101C166.914 140.101 166.611 140.101 166.307 140.101C166.328 139.353 166.349 138.605 166.37 137.857C166.674 137.857 166.978 137.857 167.282 137.857C167.261 138.605 167.24 139.353 167.218 140.101Z" fill="#E8E4C4"/>
<path d="M161.879 170.635C155.115 170.635 148.351 170.635 141.587 170.635C141.709 163.022 141.832 155.409 141.955 147.796C142.004 144.667 144.537 142.131 147.612 142.131C150.762 142.131 153.912 142.131 157.062 142.131C160.136 142.131 162.561 144.667 162.478 147.796C162.278 155.409 162.078 163.022 161.879 170.635Z" fill="#D3D0B4"/>
<path d="M141.928 149.474C148.763 149.474 155.598 149.474 162.433 149.474C162.446 149.021 162.457 148.569 162.469 148.116C155.63 148.116 148.79 148.116 141.95 148.116C141.943 148.569 141.935 149.021 141.928 149.474Z" fill="#FAAF40"/>
<path d="M185.173 170.635C178.409 170.635 171.645 170.635 164.88 170.635C165.091 163.022 165.302 155.409 165.513 147.796C165.598 144.667 168.16 142.131 171.234 142.131C174.384 142.131 177.534 142.131 180.685 142.131C183.76 142.131 186.155 144.667 186.036 147.796C185.748 155.409 185.46 163.022 185.173 170.635Z" fill="#D3D0B4"/>
<path opacity="0.2" d="M180.69 141.988C178.627 141.988 176.564 141.988 174.501 141.988C177.578 141.988 179.98 144.524 179.87 147.653C179.605 155.266 179.341 162.879 179.076 170.492C181.11 170.492 183.144 170.492 185.178 170.492C185.466 162.879 185.753 155.266 186.041 147.653C186.161 144.524 183.766 141.988 180.69 141.988Z" fill="black"/>
<path d="M165.466 149.474C172.302 149.474 179.137 149.474 185.972 149.474C185.989 149.021 186.006 148.569 186.024 148.116C179.184 148.116 172.344 148.116 165.504 148.116C165.492 148.569 165.479 149.021 165.466 149.474Z" fill="#FAAF40"/>
<path d="M144.409 149.474C143.582 149.474 142.755 149.474 141.928 149.474C141.936 149.021 141.943 148.569 141.95 148.116C142.777 148.116 143.605 148.116 144.432 148.116C144.425 148.569 144.417 149.021 144.409 149.474Z" fill="#404041"/>
<path d="M149.623 149.474C148.796 149.474 147.969 149.474 147.142 149.474C147.15 149.021 147.159 148.569 147.168 148.116C147.995 148.116 148.822 148.116 149.65 148.116C149.64 148.569 149.631 149.021 149.623 149.474Z" fill="#404041"/>
<path d="M154.837 149.474C154.009 149.474 153.182 149.474 152.355 149.474C152.364 149.021 152.374 148.569 152.384 148.116C153.212 148.116 154.039 148.116 154.867 148.116C154.857 148.569 154.847 149.021 154.837 149.474Z" fill="#404041"/>
<path d="M160.05 149.474C159.223 149.474 158.396 149.474 157.569 149.474C157.58 149.021 157.591 148.569 157.601 148.116C158.429 148.116 159.257 148.116 160.084 148.116C160.073 148.569 160.062 149.021 160.05 149.474Z" fill="#404041"/>
<path d="M167.947 149.474C167.12 149.474 166.293 149.474 165.466 149.474C165.479 149.021 165.492 148.569 165.504 148.116C166.332 148.116 167.159 148.116 167.987 148.116C167.973 148.569 167.961 149.021 167.947 149.474Z" fill="#404041"/>
<path d="M173.161 149.474C172.334 149.474 171.508 149.474 170.681 149.474C170.695 149.021 170.708 148.569 170.722 148.116C171.549 148.116 172.376 148.116 173.204 148.116C173.189 148.569 173.175 149.021 173.161 149.474Z" fill="#404041"/>
<path d="M178.375 149.474C177.548 149.474 176.721 149.474 175.894 149.474C175.909 149.021 175.924 148.569 175.939 148.116C176.766 148.116 177.593 148.116 178.421 148.116C178.405 148.569 178.39 149.021 178.375 149.474Z" fill="#404041"/>
<path d="M183.588 149.474C182.761 149.474 181.934 149.474 181.107 149.474C181.123 149.021 181.139 148.569 181.155 148.116C181.982 148.116 182.81 148.116 183.637 148.116C183.621 148.569 183.604 149.021 183.588 149.474Z" fill="#404041"/>
<rect width="14.8914" height="118.51" fill="black" fill-opacity="0" transform="translate(123.874 25.5608)"/>
<path d="M123.874 144.071C128.838 144.071 133.802 144.071 138.765 144.071C138.593 105.114 138.378 66.1563 138.121 27.1987C134.437 27.1987 130.752 27.1987 127.068 27.1987C125.961 66.1563 124.896 105.114 123.874 144.071Z" fill="#D5D5D5"/>
<rect width="12.2801" height="26.3782" fill="black" fill-opacity="0" transform="translate(126.065 36.5505)"/>
<path d="M126.803 36.5505C130.596 36.5505 134.389 36.5505 138.182 36.5505C138.191 38.0583 138.202 39.5658 138.212 41.0733C134.366 41.0733 130.521 41.0733 126.675 41.0733C126.718 39.5658 126.76 38.0583 126.803 36.5505Z" fill="#B2514D"/>
<path d="M126.496 47.4788C130.414 47.4788 134.332 47.4788 138.251 47.4788C138.26 48.986 138.27 50.4935 138.28 52.0005C134.309 52.0005 130.339 52.0005 126.369 52.0005C126.411 50.4935 126.453 48.986 126.496 47.4788Z" fill="#B2514D"/>
<path d="M126.19 58.4067C130.233 58.4067 134.276 58.4067 138.318 58.4067C138.327 59.914 138.336 61.4215 138.345 62.9287C134.251 62.9287 130.158 62.9287 126.065 62.9287C126.107 61.4215 126.148 59.914 126.19 58.4067Z" fill="#B2514D"/>
<path d="M127.285 25.5608C130.83 25.5608 134.376 25.5608 137.922 25.5608C138.308 25.5608 138.619 25.8627 138.614 26.2359C138.612 26.332 138.611 26.4276 138.61 26.5235C138.604 26.8961 138.286 27.1986 137.9 27.1986C134.357 27.1986 130.814 27.1986 127.271 27.1986C126.883 27.1986 126.573 26.8961 126.576 26.5235C126.577 26.4276 126.578 26.332 126.578 26.2359C126.581 25.8627 126.897 25.5608 127.285 25.5608Z" fill="#B4B5B5"/>
<path opacity="0.3" d="M132.595 27.1987C134.437 27.1987 136.279 27.1987 138.121 27.1987C138.378 66.1563 138.593 105.114 138.765 144.071C136.284 144.071 133.802 144.071 131.32 144.071C131.745 105.114 132.17 66.1563 132.595 27.1987Z" fill="black"/>
<rect width="18.2989" height="145.839" fill="black" fill-opacity="0" transform="translate(91.0266 1.32983)"/>
<path d="M91.0266 147.168C97.126 147.168 103.226 147.168 109.325 147.168C108.423 99.2275 107.456 51.2865 106.425 3.34546C101.841 3.34546 97.2574 3.34546 92.6739 3.34546C92.0605 51.2865 91.5116 99.2275 91.0266 147.168Z" fill="#D5D5D5"/>
<rect width="15.2233" height="32.4608" fill="black" fill-opacity="0" transform="translate(92.13 14.854)"/>
<path d="M92.5279 14.854C97.2427 14.854 101.958 14.854 106.672 14.854C106.712 16.7094 106.752 18.5642 106.791 20.4196C102.013 20.4196 97.2356 20.4196 92.4579 20.4196C92.4812 18.5642 92.5045 16.7094 92.5279 14.854Z" fill="#B2514D"/>
<path d="M92.3609 28.3022C97.226 28.3022 102.092 28.3022 106.957 28.3022C106.996 30.1571 107.035 32.0119 107.074 33.8665C102.146 33.8665 97.2194 33.8665 92.2919 33.8665C92.3148 32.0119 92.3376 30.1571 92.3609 28.3022Z" fill="#B2514D"/>
<path d="M92.197 41.75C97.2107 41.75 102.224 41.75 107.239 41.75C107.277 43.6051 107.315 45.4599 107.353 47.3148C102.279 47.3148 97.2041 47.3148 92.1301 47.3148C92.1524 45.4599 92.1747 43.6051 92.197 41.75Z" fill="#B2514D"/>
<path d="M92.9124 1.32983C97.3239 1.32983 101.736 1.32983 106.148 1.32983C106.631 1.32983 107.021 1.70151 107.021 2.16066C107.021 2.27881 107.021 2.39645 107.021 2.51459C107.022 2.97323 106.633 3.34542 106.15 3.34542C101.742 3.34542 97.3351 3.34542 92.9271 3.34542C92.4446 3.34542 92.0514 2.97323 92.0479 2.51459C92.0469 2.39645 92.0459 2.27881 92.0454 2.16066C92.0413 1.70151 92.4294 1.32983 92.9124 1.32983Z" fill="#B4B5B5"/>
<path opacity="0.3" d="M99.5507 3.34546C101.842 3.34546 104.134 3.34546 106.425 3.34546C107.456 51.2865 108.423 99.2275 109.325 147.168C106.276 147.168 103.226 147.168 100.176 147.168C99.9677 99.2275 99.7592 51.2865 99.5507 3.34546Z" fill="black"/>
<rect width="175.986" height="121.241" fill="black" fill-opacity="0" transform="translate(20.3004 86.0198)"/>
<rect width="85.7362" height="39.8945" fill="black" fill-opacity="0" transform="translate(110.55 167.366)"/>
<path d="M194.076 207.261C166.234 207.261 138.392 207.261 110.55 207.261C110.56 194.121 110.57 180.981 110.58 167.841C138.977 167.841 167.374 167.841 195.77 167.841C195.205 180.981 194.641 194.121 194.076 207.261Z" fill="#405159"/>
<path d="M119.049 167.841C116.226 167.841 113.403 167.841 110.58 167.841C110.57 180.981 110.56 194.121 110.55 207.261C113.318 207.261 116.086 207.261 118.853 207.261C118.918 194.121 118.984 180.981 119.049 167.841Z" fill="#313F45"/>
<path d="M195.582 172.221C167.247 172.221 138.912 172.221 110.576 172.221C110.578 170.761 110.579 169.301 110.58 167.841C138.977 167.841 167.374 167.841 195.77 167.841C195.707 169.301 195.645 170.761 195.582 172.221Z" fill="#313F45"/>
<path d="M195.641 170.838C167.286 170.838 138.931 170.838 110.577 170.838C110.578 169.839 110.578 168.84 110.579 167.841C138.976 167.841 167.89 167.366 196.286 167.366C196.244 168.366 195.683 169.839 195.641 170.838Z" fill="#A0220A"/>
<path d="M195.642 170.838C167.287 170.838 138.932 170.838 110.577 170.838C110.578 170.639 110.578 170.44 110.578 170.241C138.941 170.241 167.304 170.241 195.667 170.241C195.658 170.44 195.65 170.639 195.642 170.838Z" fill="#A0220A"/>
<path d="M195.721 168.975C167.341 168.975 138.96 168.975 110.579 168.975C110.58 168.693 110.58 168.411 110.58 168.129C138.972 168.129 167.365 168.129 195.758 168.129C195.746 168.411 195.733 168.693 195.721 168.975Z" fill="#A0220A"/>
<rect width="52.5221" height="86.5923" fill="black" fill-opacity="0" transform="translate(20.3004 120.669)"/>
<path d="M72.8226 207.261C57.3243 207.261 41.8266 207.261 26.3284 207.261C25.2061 180.419 24.0843 153.578 22.962 126.736C39.4882 136.243 55.7911 145.75 71.8703 155.256C72.1879 172.591 72.505 189.926 72.8226 207.261Z" fill="#485C65"/>
<path opacity="0.5" d="M25.4466 128.485C25.443 128.396 25.5206 128.31 25.6099 128.261C24.7276 127.753 23.8453 127.244 22.962 126.736C24.0843 153.578 25.2061 180.419 26.3284 207.261C27.1016 207.261 27.8748 207.261 28.6475 207.261C27.5805 181.002 26.5135 154.744 25.4466 128.485Z" fill="#485C65"/>
<path opacity="0.5" d="M71.9083 157.333C55.8439 147.747 39.5541 138.16 23.0386 128.574C23.0133 127.961 22.9874 127.349 22.962 126.736C39.4882 136.243 55.7911 145.75 71.8703 155.256C71.8829 155.949 71.8956 156.641 71.9083 157.333Z" fill="#485C65"/>
<path d="M20.3004 120.669C20.3653 122.182 20.4308 123.696 20.4957 125.209C37.8676 135.225 54.9925 145.241 71.8702 155.256C71.8418 153.711 71.8139 152.167 71.7855 150.622C54.8702 140.638 37.7083 130.653 20.3004 120.669Z" fill="#A0220A"/>
<path d="M20.4481 124.101C20.4638 124.47 20.4795 124.84 20.4958 125.209C37.8677 135.225 54.9925 145.241 71.8703 155.256C71.8637 154.883 71.8566 154.51 71.85 154.137C54.9626 144.125 37.8286 134.113 20.4481 124.101Z" fill="#A0220A"/>
<path d="M20.5972 121.384C37.7946 131.157 54.7535 140.929 71.474 150.702C71.5775 150.703 31.8169 130.092 20.5972 121.384Z" fill="#A0220A"/>
<rect width="96.9742" height="121.241" fill="black" fill-opacity="0" transform="translate(52.7281 86.0198)"/>
<path d="M144.245 207.261C144.844 173.571 145.443 139.881 146.042 106.191C130.978 100.607 115.793 95.0228 100.485 89.439C85.2488 95.0474 70.1356 100.656 55.1447 106.264C56.0174 139.93 56.89 173.595 57.7627 207.261C86.5902 207.261 115.417 207.261 144.245 207.261Z" fill="#5F7884"/>
<path d="M57.1965 185.425C57.3852 192.703 57.574 199.982 57.7627 207.261C86.5902 207.261 115.417 207.261 144.245 207.261C144.374 199.982 144.504 192.703 144.633 185.425C115.488 185.425 86.3421 185.425 57.1965 185.425Z" fill="#173945"/>
<path d="M52.8093 108.282C68.4729 102.429 84.2705 96.5771 100.202 90.7246C116.469 96.5774 132.602 102.43 148.598 108.283C148.617 107.284 149.684 104.613 149.702 103.614C133.642 97.428 116.525 92.2055 100.176 86.0198C84.2644 92.2052 68.3583 99.099 52.7281 105.284C52.7555 106.284 52.7824 107.283 52.8093 108.282Z" fill="#A0220A"/>
<path d="M52.8094 108.282C68.473 102.429 84.2706 96.5769 100.202 90.7244C116.47 96.5772 132.602 102.43 148.598 108.283C148.604 107.936 148.611 107.591 148.617 107.245C132.571 101.123 116.382 95.0012 100.05 88.8794C84.1539 94.8476 68.3934 100.816 52.7693 106.784C52.7825 107.283 52.7962 107.783 52.8094 108.282Z" fill="#A0220A"/>
<path d="M53.2614 105.554C68.7211 99.4837 84.3178 93.4131 100.051 87.3423C116.249 93.4131 132.308 99.4837 148.226 105.554C132.328 99.7654 116.297 93.9765 100.132 88.1876C84.3782 93.9765 68.7541 99.7654 53.2614 105.554Z" fill="#A0220A"/>
<rect width="35.257" height="22.1714" fill="black" fill-opacity="0" transform="translate(62.9528 109.466)"/>
<rect width="3.89314" height="22.1405" fill="black" fill-opacity="0" transform="translate(62.9528 109.466)"/>
<path d="M65.9033 109.466C64.9251 109.629 63.9474 109.791 62.9697 109.954C62.8688 116.875 63.2422 131.33 63.4832 131.505C63.4832 131.505 65.9428 131.616 66.8459 131.606C66.5339 124.225 66.2188 116.845 65.9033 109.466Z" fill="#CCC394"/>
<path d="M65.9034 109.466C66.2194 116.846 66.5335 124.225 66.846 131.606C76.0916 131.616 85.3367 131.627 94.5822 131.637C94.6137 124.247 94.6462 116.856 94.6796 109.466C85.0875 109.466 75.4954 109.466 65.9034 109.466Z" fill="#F1ECBD"/>
<path d="M94.6796 109.466C95.8308 109.571 96.982 109.675 98.1332 109.78C98.1585 117.066 98.1844 124.352 98.2098 131.637C97.0008 131.637 95.7912 131.637 94.5822 131.637C94.6136 124.247 94.6461 116.856 94.6796 109.466Z" fill="#CCC394"/>
<rect width="26.3973" height="20.393" fill="black" fill-opacity="0" transform="translate(67.1032 110.355)"/>
<path d="M75.0971 116.006C76.7562 115.963 78.5289 115.917 80.3792 115.87C80.3802 115.499 80.3818 115.131 80.3838 114.776C80.3823 113.12 80.3518 111.632 80.2798 110.355C78.3564 110.355 76.4325 110.355 74.5091 110.355C74.7217 111.918 74.9332 113.85 75.0971 116.006Z" fill="#8D7E9B"/>
<path d="M80.984 130.734C80.7912 128.072 80.603 124.509 80.4624 120.576C80.4031 119.332 80.3853 118.131 80.3812 116.978C78.5532 117.02 76.8029 117.038 75.1707 117.038C75.2169 117.74 75.26 118.457 75.294 119.193C75.5385 124.241 75.3965 128.598 75.1829 130.727C77.1169 130.729 79.0504 130.732 80.984 130.734Z" fill="#8D7E9B"/>
<path d="M81.1469 110.355C81.3122 111.637 81.4203 113.126 81.4761 114.77C81.4868 115.119 81.4944 115.479 81.503 115.841C83.4198 115.78 85.2575 115.723 86.9891 115.67C86.9647 113.657 86.9617 111.855 86.9794 110.355C85.0352 110.355 83.091 110.355 81.1469 110.355Z" fill="#8D7E9B"/>
<path d="M88.1362 116.662C88.1895 118.064 88.2377 119.551 88.2788 121.092C88.3747 124.754 88.4132 128.113 88.399 130.742C90.0738 130.744 91.7486 130.746 93.4234 130.748C93.4406 125.922 93.4589 121.097 93.4771 116.272C91.9353 116.411 90.1342 116.545 88.1362 116.662Z" fill="#8D7E9B"/>
<path d="M88.0951 115.635C90.0769 115.572 91.8876 115.516 93.4802 115.466C93.4868 113.762 93.4939 112.059 93.5005 110.355C91.6076 110.355 89.7146 110.355 87.8217 110.355C87.9191 111.847 88.0119 113.635 88.0951 115.635Z" fill="#8D7E9B"/>
<path d="M74.1108 119.228C74.0758 118.478 74.0393 117.748 74.0027 117.034C72.2118 117.023 70.5796 116.991 69.191 116.942C68.5258 116.917 67.9287 116.891 67.3772 116.862C67.572 121.481 67.7653 126.1 67.9586 130.719C70.19 130.722 72.4213 130.724 74.6527 130.726C74.4822 128.601 74.3584 124.254 74.1108 119.228Z" fill="#8D7E9B"/>
<path d="M69.1803 116.158C70.5954 116.121 72.2052 116.08 73.9505 116.035C73.8353 113.869 73.7227 111.927 73.6446 110.355C71.4639 110.355 69.2833 110.355 67.1032 110.355C67.1859 112.309 67.2681 114.262 67.3508 116.216C67.9053 116.196 68.5091 116.176 69.1803 116.158Z" fill="#8D7E9B"/>
<path d="M87.4868 130.741C87.3346 128.116 87.1945 124.765 87.0956 121.111C87.0545 119.586 87.0241 118.115 87.0027 116.725C85.2833 116.816 83.4502 116.894 81.5385 116.949C81.535 116.949 81.5319 116.949 81.5289 116.95C81.5558 118.113 81.5862 119.321 81.6451 120.572C81.7841 124.503 81.8485 128.07 81.8439 130.735C83.7247 130.738 85.606 130.739 87.4868 130.741Z" fill="#8D7E9B"/>
<rect width="2.26026" height="21.0337" fill="black" fill-opacity="0" transform="translate(63.7476 110.019)"/>
<rect width="2.18519" height="13.6755" fill="black" fill-opacity="0" transform="translate(63.8227 117.377)"/>
<path d="M65.156 117.497C64.6867 117.633 64.2402 117.757 63.8227 117.867C63.9251 124.143 64.1063 130.842 64.1981 130.956C64.1981 130.956 65.5223 131.062 66.0078 131.052C65.8597 126.494 65.7105 121.936 65.5619 117.377C65.4269 117.418 65.295 117.458 65.156 117.497Z" fill="#7C6C88"/>
<rect width="1.77727" height="6.74042" fill="black" fill-opacity="0" transform="translate(63.7476 110.019)"/>
<path d="M64.7861 116.438C65.0378 116.365 65.2839 116.301 65.5249 116.243C65.4569 114.168 65.3884 112.094 65.3209 110.019C64.7963 110.174 64.2722 110.329 63.7476 110.484C63.7486 112.207 63.7709 114.425 63.8049 116.76C64.1159 116.648 64.4391 116.539 64.7861 116.438Z" fill="#7C6C88"/>
<rect width="2.01319" height="21.0649" fill="black" fill-opacity="0" transform="translate(95.3874 110.019)"/>
<path d="M96.6445 116.025C96.886 116.066 97.1189 116.113 97.3426 116.162C97.335 114.214 97.3274 112.266 97.3198 110.318C96.681 110.219 96.0423 110.119 95.4035 110.019C95.402 111.968 95.4004 113.916 95.3989 115.864C95.7876 115.898 96.2061 115.949 96.6445 116.025Z" fill="#7C6C88"/>
<path d="M96.4345 117.115C96.0692 117.052 95.7253 116.984 95.3975 116.916C95.394 121.639 95.3904 126.361 95.3874 131.084C96.0586 131.084 96.7293 131.084 97.4006 131.084C97.3823 126.474 97.3645 121.865 97.3468 117.256C97.0535 117.214 96.7516 117.169 96.4345 117.115Z" fill="#7C6C88"/>
<rect width="34.3688" height="22.1717" fill="black" fill-opacity="0" transform="translate(104.438 111.158)"/>
<rect width="3.524" height="22.1408" fill="black" fill-opacity="0" transform="translate(104.438 111.158)"/>
<path d="M107.416 111.158C106.46 111.321 105.505 111.484 104.55 111.647C104.336 118.568 104.456 133.023 104.688 133.198C104.688 133.198 107.082 133.309 107.962 133.298C107.782 125.918 107.599 118.538 107.416 111.158Z" fill="#CCC394"/>
<path d="M107.416 111.158C107.6 118.539 107.782 125.918 107.962 133.298C116.968 133.309 125.974 133.319 134.98 133.33C135.136 125.94 135.291 118.549 135.448 111.158C126.104 111.158 116.76 111.158 107.416 111.158Z" fill="#F1ECBD"/>
<path d="M135.448 111.158C136.568 111.263 137.688 111.368 138.807 111.473C138.709 118.759 138.612 126.045 138.515 133.33C137.337 133.33 136.158 133.33 134.98 133.33C135.136 125.94 135.291 118.549 135.448 111.158Z" fill="#CCC394"/>
<rect width="25.7149" height="20.3934" fill="black" fill-opacity="0" transform="translate(108.569 112.047)"/>
<path d="M116.262 117.699C117.878 117.656 119.607 117.61 121.41 117.563C121.417 117.192 121.424 116.824 121.432 116.469C121.459 114.813 121.454 113.325 121.406 112.047C119.532 112.047 117.658 112.047 115.784 112.047C115.965 113.611 116.139 115.543 116.262 117.699Z" fill="#8D7E9B"/>
<path d="M121.749 132.427C121.606 129.765 121.482 126.202 121.412 122.269C121.375 121.025 121.378 119.823 121.393 118.67C119.612 118.713 117.906 118.731 116.316 118.731C116.35 119.433 116.379 120.15 116.4 120.886C116.554 125.934 116.342 130.292 116.098 132.42C117.982 132.422 119.865 132.425 121.749 132.427Z" fill="#8D7E9B"/>
<path d="M122.25 112.047C122.39 113.329 122.47 114.818 122.497 116.463C122.501 116.812 122.502 117.172 122.505 117.534C124.373 117.473 126.164 117.416 127.852 117.362C127.862 115.35 127.89 113.548 127.932 112.047C126.038 112.047 124.144 112.047 122.25 112.047Z" fill="#8D7E9B"/>
<path d="M128.953 118.354C128.981 119.757 129.003 121.244 129.017 122.785C129.049 126.447 129.03 129.806 128.972 132.435C130.604 132.437 132.235 132.439 133.866 132.441C133.965 127.615 134.063 122.79 134.163 117.965C132.658 118.103 130.901 118.238 128.953 118.354Z" fill="#8D7E9B"/>
<path d="M128.93 117.328C130.862 117.265 132.626 117.208 134.179 117.159C134.214 115.455 134.249 113.751 134.284 112.047C132.441 112.047 130.596 112.047 128.752 112.047C128.822 113.539 128.882 115.328 128.93 117.328Z" fill="#8D7E9B"/>
<path d="M115.247 120.92C115.225 120.171 115.203 119.441 115.179 118.727C113.434 118.716 111.845 118.683 110.492 118.635C109.845 118.61 109.264 118.584 108.727 118.555C108.839 123.174 108.95 127.793 109.061 132.412C111.234 132.414 113.408 132.417 115.582 132.419C115.451 130.293 115.404 125.946 115.247 120.92Z" fill="#8D7E9B"/>
<path d="M110.495 117.85C111.874 117.814 113.444 117.773 115.144 117.728C115.069 115.562 114.992 113.62 114.942 112.047C112.817 112.047 110.694 112.047 108.569 112.047C108.617 114.001 108.665 115.955 108.712 117.909C109.253 117.889 109.841 117.869 110.495 117.85Z" fill="#8D7E9B"/>
<path d="M128.083 132.434C127.979 129.809 127.899 126.458 127.864 122.804C127.85 121.279 127.845 119.808 127.848 118.417C126.171 118.509 124.384 118.587 122.521 118.642C122.518 118.642 122.515 118.642 122.511 118.642C122.518 119.806 122.528 121.013 122.564 122.265C122.633 126.196 122.636 129.763 122.587 132.428C124.419 132.43 126.251 132.432 128.083 132.434Z" fill="#8D7E9B"/>
<rect width="1.90749" height="21.0339" fill="black" fill-opacity="0" transform="translate(105.247 111.712)"/>
<rect width="1.90749" height="13.6754" fill="black" fill-opacity="0" transform="translate(105.247 119.071)"/>
<path d="M106.553 119.19C106.093 119.326 105.657 119.45 105.248 119.559C105.242 125.836 105.306 132.534 105.393 132.649C105.394 132.649 106.682 132.755 107.155 132.745C107.087 128.187 107.019 123.629 106.95 119.071C106.818 119.111 106.689 119.151 106.553 119.19Z" fill="#7C6C88"/>
<rect width="1.68392" height="6.74042" fill="black" fill-opacity="0" transform="translate(105.25 111.712)"/>
<path d="M106.211 118.131C106.457 118.058 106.698 117.994 106.934 117.935C106.903 115.861 106.871 113.786 106.84 111.712C106.326 111.867 105.813 112.022 105.299 112.177C105.271 113.9 105.256 116.117 105.25 118.452C105.555 118.341 105.871 118.232 106.211 118.131Z" fill="#7C6C88"/>
<rect width="2.23085" height="21.0648" fill="black" fill-opacity="0" transform="translate(135.774 111.712)"/>
<path d="M137.251 117.717C137.486 117.759 137.712 117.805 137.929 117.855C137.954 115.907 137.98 113.959 138.005 112.011C137.385 111.911 136.764 111.812 136.143 111.712C136.109 113.66 136.075 115.609 136.041 117.557C136.419 117.591 136.826 117.642 137.251 117.717Z" fill="#7C6C88"/>
<path d="M137.029 118.807C136.674 118.744 136.34 118.677 136.022 118.609C135.939 123.331 135.857 128.054 135.774 132.777C136.428 132.777 137.081 132.777 137.735 132.777C137.795 128.167 137.855 123.558 137.915 118.948C137.631 118.907 137.337 118.861 137.029 118.807Z" fill="#7C6C88"/>
<rect width="6.54897" height="35.0879" fill="black" fill-opacity="0" transform="translate(187.323 172.221)"/>
<path d="M191.633 207.309C191.887 207.309 192.14 207.309 192.394 207.309C192.887 195.613 193.379 183.917 193.872 172.221C193.614 172.221 193.355 172.221 193.097 172.221C192.609 183.917 192.121 195.613 191.633 207.309Z" fill="#353B47"/>
<path d="M193.733 175.512C193.744 175.264 193.754 175.016 193.765 174.768C192.046 174.768 190.328 174.768 188.61 174.768C188.6 175.016 188.591 175.264 188.581 175.512C190.299 175.512 192.016 175.512 193.733 175.512Z" fill="#353B47"/>
<path d="M193.612 178.401C193.622 178.153 193.633 177.905 193.643 177.656C191.928 177.656 190.212 177.656 188.496 177.656C188.486 177.905 188.477 178.153 188.466 178.401C190.182 178.401 191.897 178.401 193.612 178.401Z" fill="#353B47"/>
<path d="M193.49 181.291C193.5 181.042 193.511 180.793 193.521 180.545C191.808 180.545 190.095 180.545 188.382 180.545C188.372 180.793 188.362 181.042 188.352 181.291C190.065 181.291 191.777 181.291 193.49 181.291Z" fill="#353B47"/>
<path d="M193.369 184.179C193.379 183.931 193.389 183.683 193.4 183.434C191.689 183.434 189.978 183.434 188.268 183.434C188.257 183.683 188.248 183.931 188.238 184.179C189.948 184.179 191.658 184.179 193.369 184.179Z" fill="#353B47"/>
<path d="M193.247 187.068C193.257 186.819 193.268 186.571 193.278 186.323C191.57 186.323 189.862 186.323 188.153 186.323C188.143 186.571 188.134 186.819 188.124 187.068C189.831 187.068 191.539 187.068 193.247 187.068Z" fill="#353B47"/>
<path d="M193.125 189.956C193.136 189.708 193.146 189.459 193.156 189.211C191.451 189.211 189.744 189.211 188.039 189.211C188.029 189.459 188.019 189.708 188.009 189.956C189.715 189.956 191.42 189.956 193.125 189.956Z" fill="#353B47"/>
<path d="M193.003 192.844C193.014 192.597 193.024 192.348 193.035 192.1C191.332 192.1 189.628 192.1 187.925 192.1C187.915 192.348 187.905 192.597 187.895 192.844C189.598 192.844 191.301 192.844 193.003 192.844Z" fill="#353B47"/>
<path d="M192.881 195.734C192.892 195.486 192.903 195.237 192.913 194.989C191.212 194.989 189.511 194.989 187.81 194.989C187.8 195.237 187.791 195.486 187.781 195.734C189.481 195.734 191.181 195.734 192.881 195.734Z" fill="#353B47"/>
<path d="M192.76 198.623C192.77 198.375 192.781 198.126 192.791 197.878C191.093 197.878 189.394 197.878 187.696 197.878C187.686 198.126 187.677 198.375 187.666 198.623C189.365 198.623 191.062 198.623 192.76 198.623Z" fill="#353B47"/>
<path d="M192.639 201.511C192.649 201.263 192.659 201.014 192.67 200.766C190.974 200.766 189.278 200.766 187.582 200.766C187.572 201.014 187.562 201.263 187.552 201.511C189.248 201.511 190.943 201.511 192.639 201.511Z" fill="#353B47"/>
<path d="M192.517 204.4C192.527 204.151 192.538 203.903 192.548 203.655C190.855 203.655 189.161 203.655 187.468 203.655C187.458 203.903 187.448 204.151 187.438 204.4C189.131 204.4 190.824 204.4 192.517 204.4Z" fill="#353B47"/>
<path d="M187.323 207.309C187.577 207.309 187.83 207.309 188.084 207.309C188.551 195.613 189.018 183.917 189.485 172.221C189.227 172.221 188.969 172.221 188.711 172.221C188.248 183.917 187.786 195.613 187.323 207.309Z" fill="#353B47"/>
<path opacity="0.3" d="M55.1741 107.399C55.2213 109.206 55.2679 111.013 55.3146 112.82C70.3146 107.579 85.4293 102.338 100.659 97.0969C115.873 105.193 130.911 113.289 145.772 121.384C145.856 116.703 145.939 112.022 146.022 107.341C130.87 101.802 115.597 96.2633 100.202 90.7246C85.0716 96.2828 70.063 101.841 55.1741 107.399Z" fill="black"/>
<rect width="51.1523" height="48.523" fill="black" fill-opacity="0" transform="translate(75.2441 159.661)"/>
<rect width="51.1523" height="48.5228" fill="black" fill-opacity="0" transform="translate(75.2441 159.661)"/>
<path d="M126.326 206.828C125.26 206.978 124.122 207.11 122.922 207.232C109.619 208.587 89.5607 208.182 80.6622 207.9C77.8433 207.816 76.1513 207.74 76.1513 207.74C76.1482 207.74 76.0386 175.375 75.2441 159.992C91.685 159.882 108.129 159.772 124.575 159.661C123.838 172.392 126.891 204.522 126.326 206.828Z" fill="#173945"/>
<rect width="43.9255" height="38.8212" fill="black" fill-opacity="0" transform="translate(78.9971 169.363)"/>
<path d="M122.923 207.232C109.619 208.587 89.5608 208.183 80.6622 207.9C80.1143 195.283 79.5592 182.665 78.9971 170.049C86.7114 170.133 94.4238 170.228 102.135 170.312C106.881 170.36 120.322 169.258 122.295 169.371C122.558 181.998 122.769 194.615 122.923 207.232Z" fill="#534635"/>
<rect width="37.2228" height="35.3009" fill="black" fill-opacity="0" transform="translate(83.8839 171.175)"/>
<path d="M120.793 206.475C120.787 206.475 120.783 206.414 120.782 206.294C120.782 206.168 120.783 205.992 120.783 205.764C120.793 205.29 120.806 204.605 120.823 203.725C120.844 202.839 120.878 201.755 120.871 200.496C120.873 199.866 120.875 199.193 120.878 198.479C120.879 198.122 120.879 197.754 120.88 197.377C120.874 197 120.867 196.613 120.86 196.216C120.847 195.423 120.833 194.592 120.819 193.725C120.808 192.859 120.762 191.958 120.734 191.025C120.682 189.158 120.574 187.163 120.473 185.063C120.245 180.862 119.944 176.239 119.645 171.374C119.706 171.429 119.767 171.484 119.828 171.54C119.509 171.557 119.188 171.574 118.867 171.591C116.453 171.718 114.097 171.841 111.821 171.961C110.683 172.031 109.563 172.047 108.468 172.087C107.373 172.121 106.3 172.155 105.254 172.187C104.208 172.219 103.188 172.25 102.196 172.28C101.205 172.304 100.242 172.304 99.3111 172.316C97.4501 172.332 95.716 172.347 94.132 172.361C93.7363 172.364 93.3502 172.367 92.9737 172.37C92.5973 172.366 92.2304 172.362 91.8738 172.358C91.1609 172.348 90.4892 172.339 89.8596 172.33C88.6044 172.309 87.5217 172.292 86.6343 172.277C85.754 172.256 85.0686 172.24 84.5952 172.229C84.3674 172.22 84.1909 172.213 84.065 172.208C83.9453 172.201 83.8844 172.194 83.8839 172.188C83.8839 172.182 83.9453 172.176 84.0645 172.171C84.1909 172.168 84.3674 172.163 84.5947 172.157C85.0681 172.153 85.7535 172.147 86.6333 172.138C87.5212 172.136 88.6033 172.133 89.8591 172.131C90.4882 172.131 91.1604 172.131 91.8733 172.131C92.2299 172.131 92.5968 172.13 92.9732 172.13C93.3492 172.123 93.7353 172.116 94.131 172.109C95.7135 172.082 97.4461 172.052 99.3055 172.02C100.236 172.002 101.198 171.996 102.188 171.967C103.179 171.932 104.198 171.896 105.244 171.858C106.29 171.822 107.361 171.784 108.456 171.746C109.551 171.703 110.669 171.684 111.806 171.612C114.081 171.49 116.435 171.364 118.848 171.234C119.17 171.217 119.49 171.2 119.809 171.184C119.866 171.181 119.923 171.178 119.98 171.175C119.983 171.233 119.987 171.291 119.99 171.35C120.286 176.214 120.576 180.838 120.787 185.043C120.878 187.147 120.975 189.143 121.014 191.013C121.036 191.949 121.075 192.85 121.079 193.718C121.086 194.586 121.092 195.418 121.098 196.212C121.101 196.609 121.104 196.997 121.107 197.375C121.102 197.753 121.097 198.12 121.092 198.478C121.08 199.193 121.069 199.867 121.058 200.498C121.048 201.758 120.994 202.843 120.952 203.728C120.909 204.608 120.875 205.293 120.851 205.767C120.836 205.994 120.825 206.17 120.816 206.296C120.807 206.415 120.799 206.476 120.793 206.475Z" fill="#362A18"/>
<rect width="0.547168" height="31.6363" fill="black" fill-opacity="0" transform="translate(117.567 173.192)"/>
<path d="M117.627 204.828C117.616 204.828 117.605 204.717 117.597 204.507C117.589 204.296 117.583 203.985 117.578 203.585C117.568 202.784 117.565 201.626 117.569 200.194C117.576 197.331 117.61 193.377 117.668 189.009C117.727 184.64 117.799 180.686 117.869 177.824C117.904 176.393 117.938 175.235 117.97 174.434C117.985 174.034 118 173.724 118.014 173.513C118.029 173.303 118.042 173.192 118.053 173.192C118.066 173.192 118.076 173.303 118.084 173.514C118.092 173.725 118.099 174.036 118.104 174.436C118.114 175.237 118.117 176.395 118.113 177.826C118.105 180.689 118.07 184.644 118.011 189.012C117.951 193.38 117.879 197.334 117.81 200.197C117.775 201.628 117.741 202.786 117.71 203.586C117.695 203.986 117.68 204.297 117.666 204.507C117.652 204.718 117.639 204.828 117.627 204.828Z" fill="#362A18"/>
<rect width="42.17" height="3.59833" fill="black" fill-opacity="0" transform="translate(78.5125 163.381)"/>
<rect width="9.36987" height="3.21277" fill="black" fill-opacity="0" transform="translate(111.313 163.433)"/>
<path d="M111.53 165.38C111.554 165.81 111.553 166.217 111.545 166.61C114.586 166.613 117.626 166.622 120.666 166.645C120.672 165.618 120.677 164.591 120.683 163.564C117.586 163.516 114.456 163.469 111.313 163.433C111.415 164.019 111.495 164.673 111.53 165.38Z" fill="#534635"/>
<rect width="10.1913" height="3.37655" fill="black" fill-opacity="0" transform="translate(88.2168 163.405)"/>
<path d="M88.2168 163.624C88.3385 164.288 88.443 165.032 88.509 165.838C88.5354 166.161 88.5537 166.476 88.5668 166.782C91.8469 166.73 95.128 166.691 98.4081 166.662C98.3928 166.363 98.3796 166.055 98.369 165.736C98.3451 164.875 98.3436 164.073 98.3705 163.405C94.9763 163.435 91.5876 163.503 88.2168 163.624Z" fill="#534635"/>
<rect width="10.9229" height="3.26721" fill="black" fill-opacity="0" transform="translate(99.4167 163.381)"/>
<path d="M110.276 165.451C110.239 164.716 110.205 164.032 110.183 163.419C106.606 163.383 103.01 163.368 99.4167 163.392C99.5233 164.052 99.6009 164.843 99.6253 165.704C99.6344 166.029 99.6349 166.343 99.6293 166.648C103.199 166.62 106.769 166.607 110.34 166.607C110.319 166.236 110.298 165.853 110.276 165.451Z" fill="#534635"/>
<rect width="8.82091" height="3.30759" fill="black" fill-opacity="0" transform="translate(78.5126 163.671)"/>
<path d="M87.2569 165.934C87.1899 165.116 87.1367 164.354 87.1001 163.671C84.229 163.785 81.3685 163.929 78.5415 164.135C78.5314 165.083 78.5228 166.03 78.5126 166.979C81.4527 166.91 84.3934 166.856 87.3335 166.806C87.3076 166.522 87.2818 166.233 87.2569 165.934Z" fill="#534635"/>
<rect width="1.45136" height="35.4013" fill="black" fill-opacity="0" transform="translate(81.5011 172.014)"/>
<path d="M82.8311 207.415C82.819 207.415 82.8073 207.291 82.7956 207.055C82.7839 206.819 82.7723 206.471 82.7606 206.022C82.7378 205.126 82.7155 203.829 82.6957 202.227C82.6962 199.022 82.5277 194.597 82.4075 189.709C82.1655 184.825 82.0046 180.401 81.7642 177.2C81.6647 175.599 81.5901 174.304 81.546 173.408C81.5242 172.96 81.5095 172.612 81.5039 172.375C81.4983 172.139 81.5008 172.015 81.513 172.014C81.5247 172.013 81.545 172.136 81.5734 172.371C81.6018 172.606 81.6373 172.953 81.6799 173.399C81.7652 174.293 81.8768 175.586 82.0072 177.185C82.3096 180.379 82.5079 184.809 82.75 189.7C82.8697 194.593 82.9986 199.023 82.9362 202.229C82.925 203.832 82.9108 205.129 82.893 206.025C82.8839 206.473 82.8743 206.821 82.8641 207.056C82.8535 207.292 82.8428 207.416 82.8311 207.415Z" fill="#362A18"/>
<rect width="1.6563" height="30.2277" fill="black" fill-opacity="0" transform="translate(85.5235 174.25)"/>
<path d="M87.1686 204.478C87.1452 204.48 87.0869 204.06 87.0022 203.298C86.9174 202.536 86.8053 201.433 86.6739 200.068C86.3781 197.342 86.1468 193.561 85.8748 189.386C85.7023 185.206 85.5308 181.422 85.5384 178.684C85.5252 177.314 85.5207 176.206 85.5252 175.44C85.5298 174.674 85.5435 174.25 85.5674 174.25C85.5912 174.25 85.6227 174.673 85.6597 175.439C85.6962 176.204 85.7373 177.312 85.7815 178.681C85.8363 181.421 86.0453 185.198 86.2173 189.371C86.4877 193.541 86.68 197.32 86.9139 200.049C87.0143 201.415 87.0899 202.521 87.1341 203.286C87.1782 204.051 87.1919 204.476 87.1686 204.478Z" fill="#362A18"/>
<rect width="0.661279" height="30.3438" fill="black" fill-opacity="0" transform="translate(90.6895 174.25)"/>
<path d="M91.303 204.594C91.2797 204.594 91.2492 204.17 91.2147 203.402C91.1802 202.635 91.1417 201.524 91.1006 200.151C91.0189 197.406 90.9286 193.613 90.8504 189.423C90.7718 185.234 90.7201 181.441 90.6993 178.695C90.6891 177.322 90.6866 176.211 90.6932 175.443C90.6993 174.675 90.714 174.25 90.7378 174.25C90.7617 174.25 90.7921 174.674 90.8271 175.441C90.8621 176.209 90.9017 177.32 90.9428 178.692C91.025 181.437 91.1153 185.23 91.1929 189.42C91.2705 193.609 91.3213 197.403 91.3411 200.149C91.3512 201.522 91.3537 202.632 91.3471 203.401C91.3411 204.169 91.3269 204.594 91.303 204.594Z" fill="#362A18"/>
<rect width="0.882067" height="30.1197" fill="black" fill-opacity="0" transform="translate(95.3172 175.062)"/>
<path d="M95.8434 205.182C95.8195 205.18 95.8084 204.758 95.8079 203.995C95.8074 203.232 95.818 202.129 95.8383 200.767C95.923 198.042 95.8566 194.277 95.8525 190.119C95.717 185.964 95.6572 182.2 95.4791 179.476C95.4121 178.114 95.3639 177.011 95.338 176.249C95.3127 175.486 95.3096 175.063 95.3335 175.062C95.3573 175.061 95.4055 175.48 95.472 176.24C95.539 177.001 95.6242 178.101 95.7221 179.462C95.9616 182.179 96.06 185.951 96.195 190.115C96.1985 194.279 96.2259 198.05 96.0793 200.775C96.0275 202.138 95.9804 203.24 95.9403 204.001C95.8997 204.763 95.8667 205.183 95.8434 205.182Z" fill="#362A18"/>
<rect width="4.13852" height="0.812871" fill="black" fill-opacity="0" transform="translate(98.3979 205.496)"/>
<path d="M102.535 205.51C102.556 205.548 102.365 205.711 102.01 205.9C101.653 206.079 101.119 206.253 100.509 206.303C99.8986 206.336 99.3491 206.237 98.9641 206.105C98.5932 205.967 98.3872 205.834 98.3983 205.791C98.4126 205.739 98.6541 205.791 99.0305 205.863C99.3984 205.922 99.9153 205.977 100.486 205.946C101.055 205.899 101.56 205.776 101.922 205.664C102.281 205.544 102.51 205.462 102.535 205.51Z" fill="#362A18"/>
<rect width="0.503523" height="29.8748" fill="black" fill-opacity="0" transform="translate(99.4306 174.955)"/>
<path d="M99.7023 204.83C99.679 204.83 99.6582 204.411 99.6409 203.655C99.6237 202.898 99.6094 201.804 99.5998 200.453C99.5795 197.75 99.5749 194.018 99.5922 189.894C99.5136 185.77 99.4613 182.035 99.4405 179.332C99.4304 177.98 99.4278 176.886 99.4339 176.13C99.44 175.374 99.4547 174.955 99.4786 174.955C99.5024 174.955 99.5328 175.372 99.5678 176.128C99.6034 176.883 99.6424 177.977 99.684 179.328C99.7662 182.031 99.8565 185.764 99.9342 189.889C99.9169 194.016 99.8824 197.752 99.8403 200.456C99.819 201.808 99.7967 202.901 99.7728 203.657C99.75 204.413 99.7256 204.83 99.7023 204.83Z" fill="#362A18"/>
<rect width="1.1131" height="32.3447" fill="black" fill-opacity="0" transform="translate(103.91 174.837)"/>
<path d="M104.984 207.182C104.972 207.182 104.959 207.069 104.943 206.853C104.927 206.638 104.909 206.32 104.89 205.911C104.851 205.093 104.807 203.909 104.759 202.446C104.663 199.519 104.554 195.477 104.454 191.011C104.263 186.547 104.108 182.505 104.013 179.577C103.966 178.114 103.933 176.929 103.918 176.111C103.911 175.701 103.908 175.383 103.91 175.167C103.912 174.951 103.918 174.837 103.931 174.837C103.943 174.836 103.959 174.949 103.979 175.164C104 175.379 104.024 175.696 104.052 176.105C104.109 176.922 104.178 178.105 104.256 179.567C104.414 182.491 104.606 186.532 104.796 190.996C104.895 195.465 104.966 199.512 105 202.441C105.016 203.905 105.024 205.09 105.022 205.909C105.021 206.319 105.017 206.637 105.011 206.853C105.005 207.068 104.996 207.181 104.984 207.182Z" fill="#362A18"/>
<rect width="0.447661" height="28.6974" fill="black" fill-opacity="0" transform="translate(108.783 175.308)"/>
<path d="M108.935 204.005C108.911 204.005 108.893 203.603 108.878 202.876C108.864 202.15 108.855 201.099 108.85 199.801C108.842 197.205 108.854 193.62 108.889 189.659C108.829 185.697 108.793 182.11 108.785 179.512C108.78 178.214 108.783 177.163 108.793 176.437C108.802 175.71 108.819 175.308 108.843 175.308C108.866 175.308 108.896 175.709 108.927 176.435C108.959 177.16 108.993 178.211 109.028 179.509C109.099 182.105 109.172 185.691 109.23 189.653C109.195 193.618 109.145 197.206 109.092 199.804C109.065 201.103 109.038 202.153 109.011 202.879C108.984 203.605 108.959 204.006 108.935 204.005Z" fill="#362A18"/>
<rect width="0.924677" height="28.6989" fill="black" fill-opacity="0" transform="translate(114.052 173.306)"/>
<path d="M114.726 202.005C114.703 202.004 114.687 201.602 114.677 200.875C114.668 200.148 114.665 199.097 114.67 197.798C114.716 195.2 114.628 191.613 114.593 187.65C114.447 183.692 114.372 180.106 114.206 177.512C114.142 176.214 114.096 175.163 114.072 174.437C114.047 173.71 114.045 173.308 114.069 173.306C114.093 173.305 114.14 173.704 114.205 174.428C114.271 175.151 114.354 176.199 114.449 177.495C114.676 180.082 114.791 183.675 114.936 187.641C114.97 191.609 115.018 195.201 114.911 197.8C114.875 199.1 114.842 200.152 114.81 200.878C114.778 201.604 114.75 202.006 114.726 202.005Z" fill="#362A18"/>
<rect width="17.5776" height="23.433" fill="black" fill-opacity="0" transform="translate(158.203 177.705)"/>
<path d="M175.728 177.705C170.103 178.079 164.482 178.452 158.863 178.826C158.209 186.253 158.045 193.713 158.355 201.138C163.986 200.765 169.632 200.71 175.252 200.973C175.715 193.218 175.876 185.452 175.728 177.705Z" fill="#F1ECBD"/>
<rect width="14.3165" height="19.0867" fill="black" fill-opacity="0" transform="translate(159.832 179.878)"/>
<rect width="7.09853" height="18.9528" fill="black" fill-opacity="0" transform="translate(167.05 179.878)"/>
<path d="M174.102 179.878C171.75 180.034 169.4 180.19 167.05 180.346C167.142 183.249 167.204 186.898 167.215 190.876C167.223 193.699 167.205 196.357 167.167 198.705C169.357 198.69 171.546 198.729 173.73 198.831C174.101 192.513 174.226 186.188 174.102 179.878Z" fill="#8D7E9B"/>
<rect width="6.23674" height="18.553" fill="black" fill-opacity="0" transform="translate(159.832 180.412)"/>
<path d="M165.974 190.92C165.959 186.954 165.995 183.315 166.068 180.412C164.171 180.538 162.275 180.665 160.379 180.791C159.842 186.841 159.702 192.917 159.951 198.965C161.988 198.831 164.029 198.755 166.069 198.722C166.017 196.383 165.984 193.735 165.974 190.92Z" fill="#8D7E9B"/>
<rect width="13.9679" height="18.0896" fill="black" fill-opacity="0" transform="translate(33.019 151.585)"/>
<rect width="13.9679" height="18.0896" fill="black" fill-opacity="0" transform="translate(33.019 151.585)"/>
<path d="M46.1989 151.585C41.8189 151.874 37.4409 152.162 33.065 152.451C32.9117 158.184 33.1421 163.943 33.7443 169.675C38.1421 169.387 42.5668 169.344 46.9868 169.547C46.962 163.561 46.7007 157.566 46.1989 151.585Z" fill="#F1ECBD"/>
<rect width="11.3798" height="14.7343" fill="black" fill-opacity="0" transform="translate(34.3067 153.263)"/>
<rect width="6.1441" height="14.6311" fill="black" fill-opacity="0" transform="translate(39.5425 153.263)"/>
<path d="M45.0356 153.263C43.2041 153.383 41.373 153.504 39.5425 153.624C39.7571 155.864 39.9844 158.682 40.1883 161.753C40.3329 163.932 40.4496 165.984 40.5354 167.796C42.2518 167.785 43.9697 167.815 45.6866 167.894C45.6632 163.017 45.4466 158.134 45.0356 153.263Z" fill="#8D7E9B"/>
<rect width="5.36814" height="14.3223" fill="black" fill-opacity="0" transform="translate(34.3067 153.675)"/>
<path d="M39.2183 161.787C39.0128 158.726 38.8631 155.916 38.7774 153.675C37.2999 153.773 35.8225 153.87 34.3456 153.968C34.2188 158.638 34.4029 163.329 34.8905 167.997C36.4816 167.894 38.0777 167.835 39.6749 167.81C39.5201 166.004 39.3639 163.96 39.2183 161.787Z" fill="#8D7E9B"/>
<path opacity="0.3" d="M164.95 168.13C164.914 169.424 164.878 170.72 164.842 172.014C175.09 172.083 185.337 172.152 195.582 172.221C195.459 175.087 195.336 177.953 195.212 180.818C185.09 178.9 174.939 176.981 164.758 175.062C164.459 185.847 164.16 196.631 163.861 207.415C157.323 207.364 150.784 207.313 144.245 207.261C144.436 194.121 144.627 180.981 144.817 167.841C151.529 167.937 158.24 168.033 164.95 168.13Z" fill="black"/>
<path opacity="0.3" d="M23.5343 140.429C34.5079 143.82 45.4282 147.21 56.2938 150.601C55.9889 148.906 55.6835 147.21 55.377 145.515C44.6682 139.22 33.8615 132.925 22.9574 126.63C23.1497 131.229 23.342 135.829 23.5343 140.429Z" fill="#173945"/>
<rect width="89.4486" height="39.3239" fill="black" fill-opacity="0" transform="translate(57.0386 135.923)"/>
<path d="M71.444 146.545C68.1275 146.305 64.8093 146.065 61.4902 145.825C61.4659 144.771 61.441 143.717 61.4166 142.663C64.542 142.663 67.6678 142.663 70.7931 142.663C71.0108 143.957 71.2274 145.251 71.444 146.545Z" fill="#516670"/>
<path d="M77.5684 151.675C74.2609 151.435 70.9524 151.195 67.6424 150.955C67.6211 149.901 67.5993 148.847 67.578 147.793C70.6952 147.793 73.8129 147.793 76.9301 147.793C77.1432 149.087 77.3558 150.381 77.5684 151.675Z" fill="#516670"/>
<path d="M66.9615 169.835C63.682 169.595 60.4019 169.356 57.1198 169.115C57.0929 168.061 57.0655 167.007 57.0386 165.953C60.1284 165.953 63.2177 165.953 66.3075 165.953C66.5257 167.247 66.7439 168.541 66.9615 169.835Z" fill="#516670"/>
<path d="M102.582 152.079C99.2782 151.839 95.9733 151.599 92.6668 151.36C92.6582 150.306 92.6501 149.251 92.6414 148.198C95.7581 148.198 98.8748 148.198 101.992 148.198C102.189 149.491 102.385 150.785 102.582 152.079Z" fill="#516670"/>
<path d="M146.487 139.805C143.169 139.565 139.849 139.325 136.528 139.085C136.542 138.031 136.556 136.977 136.57 135.923C139.706 135.923 142.841 135.923 145.977 135.923C146.147 137.217 146.318 138.511 146.487 139.805Z" fill="#516670"/>
<path d="M144.688 175.247C141.427 175.007 138.165 174.767 134.901 174.528C134.914 173.474 134.928 172.419 134.942 171.365C138.023 171.365 141.104 171.365 144.185 171.365C144.353 172.659 144.521 173.953 144.688 175.247Z" fill="#516670"/>
<path d="M81.2878 146.545C78.3624 146.305 75.4359 146.065 72.5085 145.825C72.4897 144.771 72.4704 143.717 72.4517 142.663C75.2086 142.663 77.9656 142.663 80.7226 142.663C80.9113 143.957 81.0996 145.251 81.2878 146.545Z" fill="#516670"/>
<rect width="19.8736" height="9.01174" fill="black" fill-opacity="0" transform="translate(94.3928 135.923)"/>
<path d="M104.391 139.805C101.067 139.565 97.7419 139.325 94.4156 139.085C94.408 138.031 94.4004 136.977 94.3928 135.923C97.5288 135.923 100.665 135.923 103.8 135.923C103.998 137.217 104.194 138.511 104.391 139.805Z" fill="#516670"/>
<path d="M110.452 144.935C107.138 144.695 103.821 144.455 100.505 144.215C100.5 143.161 100.496 142.107 100.492 141.053C103.619 141.053 106.747 141.053 109.874 141.053C110.067 142.347 110.26 143.641 110.452 144.935Z" fill="#516670"/>
<path d="M114.266 139.805C111.335 139.565 108.403 139.325 105.47 139.085C105.468 138.031 105.466 136.977 105.465 135.923C108.23 135.923 110.996 135.923 113.763 135.923C113.931 137.217 114.099 138.511 114.266 139.805Z" fill="#516670"/>
<rect width="48.5206" height="56.0079" fill="black" fill-opacity="0" transform="translate(91.5785 102.173)"/>
<path d="M130.211 154.299C133.508 154.539 136.804 154.779 140.099 155.019C140.083 156.073 140.067 157.127 140.051 158.181C136.949 158.181 133.847 158.181 130.746 158.181C130.567 156.887 130.389 155.593 130.211 154.299Z" fill="#516670"/>
<path d="M124.227 149.169C127.533 149.409 130.838 149.649 134.142 149.889C134.129 150.943 134.116 151.997 134.103 153.051C130.994 153.051 127.885 153.051 124.775 153.051C124.593 151.757 124.41 150.463 124.227 149.169Z" fill="#516670"/>
<path d="M103.529 103.614C106.513 103.853 109.496 104.093 112.479 104.333C112.477 105.387 112.475 106.441 112.474 107.495C109.669 107.495 106.865 107.495 104.061 107.495C103.883 106.201 103.706 104.907 103.529 103.614Z" fill="#516670"/>
<path d="M91.5785 102.173C94.5663 102.413 97.5531 102.653 100.538 102.892C100.543 103.946 100.547 105 100.552 106.054C97.7454 106.054 94.9387 106.054 92.1325 106.054C91.9484 104.761 91.7637 103.467 91.5785 102.173Z" fill="#516670"/>
<rect width="19.3892" height="9.01157" fill="black" fill-opacity="0" transform="translate(27.555 194.306)"/>
<path d="M37.1431 199.436C40.378 199.675 43.6119 199.915 46.8448 200.155C46.8777 201.209 46.9112 202.263 46.9442 203.317C43.9112 203.317 40.8788 203.317 37.8458 203.317C37.6119 202.023 37.3775 200.729 37.1431 199.436Z" fill="#3E4F57"/>
<path d="M31.0543 194.306C34.2979 194.546 37.5409 194.785 40.7824 195.025C40.8184 196.079 40.8544 197.133 40.891 198.187C37.8504 198.187 34.8103 198.187 31.7702 198.187C31.5317 196.893 31.2933 195.599 31.0543 194.306Z" fill="#3E4F57"/>
<path d="M27.5551 199.436C30.411 199.675 33.2664 199.915 36.1203 200.155C36.1588 201.209 36.1979 202.263 36.2364 203.317C33.5611 203.317 30.8864 203.317 28.2111 203.317C27.9929 202.023 27.7742 200.729 27.5551 199.436Z" fill="#3E4F57"/>
<rect width="17.1548" height="14.8918" fill="black" fill-opacity="0" transform="translate(40.4972 176.413)"/>
<path d="M47.8138 187.424C51.0675 187.663 54.3197 187.903 57.5708 188.143C57.5977 189.197 57.6251 190.251 57.652 191.305C54.6007 191.305 51.55 191.305 48.4987 191.305C48.2709 190.011 48.0426 188.717 47.8138 187.424Z" fill="#3E4F57"/>
<path d="M44.0645 176.413C47.3359 176.653 50.6063 176.893 53.8752 177.133C53.9042 178.187 53.9331 179.241 53.962 180.295C50.8945 180.295 47.8265 180.295 44.759 180.295C44.5277 179.001 44.2963 177.707 44.0645 176.413Z" fill="#3E4F57"/>
<path d="M40.4972 181.543C43.377 181.783 46.2562 182.023 49.1345 182.263C49.1659 183.317 49.1974 184.371 49.2288 185.425C46.5297 185.425 43.8306 185.425 41.1314 185.425C40.9204 184.131 40.7088 182.837 40.4972 181.543Z" fill="#3E4F57"/>
<rect width="13.5896" height="19.8534" fill="black" fill-opacity="0" transform="translate(176.642 183.484)"/>
<path d="M176.642 183.484C179.886 183.724 183.129 183.964 186.371 184.203C186.33 185.257 186.29 186.312 186.249 187.365C183.192 187.365 180.135 187.365 177.078 187.365C176.933 186.072 176.788 184.778 176.642 183.484Z" fill="#303C42"/>
<path d="M180.557 194.326C183.783 194.566 187.008 194.805 190.232 195.045C190.188 196.099 190.145 197.153 190.103 198.207C187.062 198.207 184.022 198.207 180.982 198.207C180.841 196.913 180.699 195.619 180.557 194.326Z" fill="#303C42"/>
<path d="M176.673 199.456C179.511 199.695 182.348 199.935 185.184 200.175C185.144 201.229 185.103 202.283 185.063 203.337C182.388 203.337 179.713 203.337 177.038 203.337C176.916 202.043 176.795 200.749 176.673 199.456Z" fill="#303C42"/>
<path d="M108.142 4.49995C102.425 4.49995 96.7094 4.49995 90.9935 4.49995C90.9808 3.00005 90.9686 1.50015 90.9559 0C96.684 0 102.412 0 108.14 0C108.14 1.50015 108.141 3.00005 108.142 4.49995Z" fill="#303C42"/>
<path d="M139.287 28.6297C134.429 28.6297 129.57 28.6297 124.712 28.6297C124.722 27.2499 124.732 25.8702 124.742 24.4905C129.609 24.4905 134.478 24.4905 139.345 24.4905C139.326 25.8702 139.307 27.2499 139.287 28.6297Z" fill="#303C42"/>
<rect width="18.0472" height="89.9528" fill="black" fill-opacity="0" transform="translate(39.0599 110.28)"/>
<path d="M40.1852 113.899C42.9518 113.187 45.7214 112.475 48.4941 111.763C48.588 114.985 48.6824 118.207 48.7762 121.429C50.4475 123.405 52.1141 125.381 53.7762 127.357C54.3866 150.091 54.9969 172.825 55.6073 195.559C53.5307 197.117 51.4591 198.674 49.3927 200.232C49.379 199.779 49.3658 199.325 49.3521 198.871C50.862 197.361 52.3754 195.851 53.8929 194.341C53.3622 172.409 52.8341 150.478 52.3085 128.547C49.2542 126.887 46.1933 125.228 43.1243 123.568C42.1486 120.345 41.1689 117.122 40.1852 113.899Z" fill="#494252"/>
<path d="M39.0599 112.861C39.0832 113.558 39.1071 114.256 39.1304 114.953C42.6114 114.043 46.0969 113.133 49.5875 112.222C49.5688 111.575 49.5505 110.927 49.5317 110.28C46.0365 111.14 42.5459 112.001 39.0599 112.861Z" fill="#2E2933"/>
<path d="M51.9817 134.28C52.0061 135.145 52.0299 136.009 52.0543 136.874C53.5241 136.784 54.9939 136.694 56.4642 136.605C56.414 135.83 56.3643 135.055 56.3145 134.28C54.8701 134.28 53.4262 134.28 51.9817 134.28Z" fill="#2E2933"/>
<path d="M52.7671 162.504C52.5236 163.368 52.2811 164.232 52.038 165.096C53.728 165.103 55.4175 165.11 57.107 165.118C57.0421 164.246 56.9767 163.376 56.9117 162.504C55.5302 162.504 54.1486 162.504 52.7671 162.504Z" fill="#2E2933"/>
<path d="M52.7966 191.977C53.1624 192.765 53.5277 193.553 53.893 194.341C54.8615 194.248 55.8311 194.155 56.8001 194.062C56.8092 193.386 56.8189 192.712 56.828 192.036C55.4845 192.016 54.1405 191.997 52.7966 191.977Z" fill="#2E2933"/>
<path opacity="0.3" d="M149.769 142.131C149.773 142.131 158.788 145.559 158.692 154.299C158.605 163.04 157.984 167.841 157.984 167.841C153.595 167.841 149.207 167.841 144.818 167.841C144.967 159.446 145.115 151.051 145.264 142.655C146.765 142.48 148.267 142.306 149.769 142.131Z" fill="black"/>
<path opacity="0.3" d="M167.042 144.01C167.05 144.01 170.054 159.835 169.484 167.841C167.975 167.841 166.466 167.841 164.958 167.841C165.154 160.742 165.351 153.643 165.548 146.545C166.045 145.7 166.544 144.855 167.042 144.01Z" fill="black"/>
<path d="M85.6612 133.838L115.413 135.147L114.712 157.333L85.8702 156.789L85.6612 133.838Z" fill="#D1D1D1"/>
<rect width="27.7788" height="27.7634" fill="black" fill-opacity="0" transform="translate(85.6612 131.432)"/>
<rect width="22.964" height="22.9511" fill="black" fill-opacity="0" transform="translate(88.0686 133.838)"/>
<path d="M99.5506 133.838C93.2097 133.838 88.0686 138.976 88.0686 145.314C88.0686 151.651 93.2097 156.789 99.5506 156.789C105.892 156.789 111.033 151.651 111.033 145.314C111.033 138.976 105.892 133.838 99.5506 133.838ZM107.414 153.172C105.34 155.242 102.521 156.408 99.5877 156.408C93.4649 156.408 88.5019 151.447 88.5019 145.328C88.5019 139.209 93.4649 134.249 99.5877 134.249C105.71 134.249 110.673 139.209 110.673 145.328C110.673 146.809 110.377 148.279 109.799 149.641C109.24 150.962 108.429 152.162 107.414 153.172Z" fill="#00206B"/>
<path d="M97.6395 151.159C95.0915 150.33 93.369 147.957 93.369 145.281C93.369 142.604 95.0875 140.235 97.6283 139.402L97.6324 140.902L95.295 140.909V142.145C95.295 142.145 96.1504 142.127 96.1357 142.145C96.606 142.145 96.7582 142.419 96.8059 142.652L96.817 147.868C96.7947 148.016 96.71 148.249 96.3802 148.249C96.3949 148.264 95.536 148.249 95.536 148.249L95.3097 149.638L97.6471 149.641L97.6395 151.159ZM98.7876 139.143C99.0398 139.113 99.295 139.099 99.5471 139.099H99.5507C99.606 139.099 99.6582 139.099 99.7136 139.099V140.845C99.4102 140.845 99.0951 140.853 98.7876 140.86V139.143ZM98.8247 144.536L98.8211 142.223C99.4766 142.223 101.532 142.012 101.532 143.378C101.536 144.684 99.4802 144.536 98.8247 144.536ZM102.08 146.976C102.08 148.416 99.6177 148.256 98.8287 148.256L98.8247 145.706C99.61 145.706 102.08 145.473 102.08 146.976ZM99.5507 151.459H99.5471C99.3026 151.459 99.0545 151.444 98.8099 151.418L98.8064 149.66C99.1245 149.667 99.432 149.667 99.7318 149.667V151.459C99.673 151.459 99.6101 151.459 99.5507 151.459ZM103.921 149.649C103.095 150.481 102.043 151.063 100.895 151.314V149.638C102.843 149.523 104.206 149.03 104.373 147.202C104.507 145.728 103.814 145.069 102.706 144.806C103.377 144.462 103.795 143.859 103.695 142.852H103.688H103.699C103.688 142.756 103.673 142.659 103.651 142.567V142.56C103.384 141.416 102.266 141.012 100.88 140.894V139.239C103.714 139.861 105.736 142.375 105.736 145.277C105.736 146.917 105.084 148.49 103.925 149.649H103.921Z" fill="#00206B"/>
<path d="M99.5842 135.204C94.0281 135.204 89.502 139.724 89.502 145.28C89.502 150.837 94.0245 155.357 99.5842 155.357C105.147 155.357 109.67 150.837 109.67 145.28C109.67 139.724 105.143 135.204 99.5842 135.204ZM99.5842 152.784C95.4467 152.784 92.0763 149.415 92.0763 145.277C92.0763 141.138 95.4431 137.77 99.5842 137.77C103.729 137.77 107.096 141.138 107.096 145.277C107.096 149.415 103.725 152.784 99.5842 152.784Z" fill="#EBA809"/>
<rect width="12.8564" height="24.1018" fill="black" fill-opacity="0" transform="translate(51.2237 182.938)"/>
<path d="M51.3247 202.468C51.553 201.726 52.3942 201.119 53.1091 201.425C52.3344 200.646 51.5079 199.748 51.4993 198.65C51.4906 197.554 52.8955 196.528 53.7027 197.273C53.345 196.64 53.0442 195.923 53.1543 195.205C53.2664 194.486 53.9361 193.816 54.6515 193.946C53.3983 192.849 53.6505 190.511 55.1101 189.707C54.6337 188.929 54.3775 188.019 54.375 187.107C54.374 186.69 54.4536 186.221 54.7905 185.976C55.0523 185.786 55.4815 185.879 55.6373 186.122C55.4247 185.159 55.7408 184.088 56.4668 183.415C56.755 183.149 57.1213 182.938 57.5145 182.938C58.2344 182.942 58.7773 183.674 58.8346 184.39C58.8925 185.107 58.5952 185.798 58.305 186.456C59.5931 186.229 60.7469 187.514 60.8864 188.814C61.0269 190.114 60.4572 191.374 59.9011 192.558C60.1137 192.041 60.8666 191.941 61.3339 192.246C61.8017 192.55 62.0295 193.113 62.1558 193.657C62.585 195.496 62.1289 197.522 60.9523 198.999C61.6302 198.274 62.9696 199.064 63.0782 200.051C63.1867 201.038 62.5531 201.936 61.9518 202.726C62.2979 202.044 63.4354 202.182 63.8402 202.831C64.2456 203.481 64.0843 204.339 63.7484 205.027C63.4135 205.715 62.9194 206.324 62.6479 207.04L52.2791 206.191C51.8635 205.831 51.6799 205.281 51.5231 204.754C51.2999 204.01 51.0944 203.21 51.3247 202.468Z" fill="#579326"/>
<rect width="44.2905" height="21.4508" fill="black" fill-opacity="0" transform="translate(155.012 186.375)"/>
<rect width="10.8757" height="20.3878" fill="black" fill-opacity="0" transform="translate(188.427 186.375)"/>
<path d="M188.512 202.895C188.706 202.267 189.417 201.755 190.022 202.013C189.367 201.355 188.668 200.595 188.661 199.667C188.654 198.739 189.841 197.871 190.524 198.501C190.221 197.966 189.967 197.359 190.061 196.752C190.154 196.144 190.722 195.577 191.327 195.687C190.267 194.759 190.481 192.781 191.715 192.101C191.312 191.443 191.095 190.673 191.093 189.901C191.092 189.549 191.159 189.154 191.445 188.945C191.665 188.784 192.029 188.863 192.161 189.069C191.98 188.253 192.248 187.348 192.863 186.78C193.107 186.553 193.416 186.374 193.749 186.375C194.357 186.378 194.818 186.998 194.866 187.603C194.914 188.21 194.663 188.795 194.417 189.351C195.507 189.16 196.483 190.246 196.601 191.345C196.72 192.446 196.238 193.51 195.768 194.512C195.947 194.076 196.584 193.991 196.98 194.248C197.375 194.507 197.568 194.982 197.674 195.442C198.038 196.999 197.652 198.712 196.658 199.962C197.231 199.348 198.363 200.017 198.455 200.851C198.547 201.686 198.011 202.445 197.502 203.114C197.795 202.536 198.758 202.654 199.1 203.203C199.443 203.752 199.306 204.478 199.022 205.061C198.738 205.643 198.321 206.158 198.091 206.763L189.32 206.045C188.969 205.742 188.812 205.275 188.68 204.83C188.492 204.2 188.318 203.524 188.512 202.895Z" fill="#79A958"/>
<rect width="21.5689" height="17.6439" fill="black" fill-opacity="0" transform="translate(167.896 189.785)"/>
<path d="M167.993 202.075C168.234 201.654 168.85 201.67 169.309 201.828C169.567 201.917 169.81 202.042 170.041 202.183C169.773 201.614 169.571 201.015 169.447 200.398C169.348 199.908 169.37 199.269 169.829 199.069C170.154 198.927 170.528 199.096 170.829 199.285C171.505 199.712 172.087 200.271 172.573 200.906C171.596 199.095 170.983 197.088 170.805 195.036C172.472 195.692 173.772 197.159 174.303 198.863C173.697 196.008 173.229 193.068 173.963 190.265C176.27 192.269 177.438 195.501 176.946 198.516C177.83 195.827 177.861 192.848 179.223 190.368C179.332 190.169 179.46 189.964 179.661 189.858C180.023 189.665 180.495 189.88 180.721 190.222C180.946 190.565 180.983 190.994 180.999 191.404C181.091 193.759 180.67 196.132 179.774 198.312C180.601 196.828 181.429 195.343 182.256 193.858C182.824 192.839 183.501 191.73 184.624 191.41C184.992 192.242 184.725 193.204 184.436 194.065C183.709 196.234 182.866 198.363 181.91 200.44C182.823 198.634 184.037 196.981 185.488 195.569C185.765 195.299 186.15 195.019 186.503 195.175C186.925 195.362 186.893 195.964 186.773 196.409C186.178 198.627 185.136 200.723 183.73 202.539C185.084 200.944 186.675 199.486 188.691 199.034C188.935 198.979 189.237 198.96 189.388 199.159C189.546 199.365 189.432 199.66 189.312 199.891C187.964 202.478 186.263 204.881 184.273 207.016L170.35 207.429C169.051 206.222 168.181 204.565 167.924 202.811C167.888 202.563 167.867 202.293 167.993 202.075Z" fill="#579326"/>
<rect width="19.9459" height="9.07497" fill="black" fill-opacity="0" transform="translate(155.012 198.751)"/>
<path d="M155.771 202.316C156.519 201.666 157.816 201.697 158.421 202.481C158.191 202.111 157.957 201.724 157.905 201.292C157.854 200.859 158.043 200.366 158.448 200.205C158.676 200.114 158.932 200.14 159.175 200.176C160.12 200.317 161.046 200.586 161.919 200.974C161.797 200.024 162.503 199.042 163.443 198.854C164.383 198.666 165.413 199.301 165.667 200.226C165.896 199.22 167.053 198.534 168.045 198.814C169.037 199.094 169.664 200.284 169.332 201.26C169.916 200.81 170.622 200.469 171.359 200.487C172.097 200.505 172.852 200.957 173.06 201.664C173.203 202.154 172.991 202.718 172.604 203.027C173.36 202.77 174.161 202.648 174.958 202.679C174.521 205 172.785 207.033 170.559 207.826L157.225 207.094C156.323 206.684 155.522 205.974 155.178 205.046C154.833 204.117 155.024 202.967 155.771 202.316Z" fill="#79A958"/>
</svg>
