<svg width="151" height="263" viewBox="0 0 151 263" fill="none" xmlns="http://www.w3.org/2000/svg">
<path d="M49.5145 89.4973L4.77246 96.7026L29.4467 246.604L54.1374 241.626L49.5145 89.4973Z" fill="url(#paint0_linear)"/>
<path d="M0.643555 92.9343V98.1291L50.9516 89.4975L49.5146 82.9033L0.643555 92.9343Z" fill="url(#paint1_linear)"/>
<path d="M48.2333 195.586L47.5076 57.588C47.5076 57.588 82.8762 26.4367 120.886 58.2498C120.694 102.851 118.757 190.186 118.757 190.186L48.2333 195.586Z" fill="#14A2E9"/>
<path opacity="0.85" d="M62.0769 60.6631H60.3984V149.388H62.0769V60.6631Z" fill="#60FBFF"/>
<path opacity="0.85" d="M120.885 75.1113H47.5869V76.7964H120.885V75.1113Z" fill="#60FBFF"/>
<path opacity="0.85" d="M120.885 101.174H47.5869V102.859H120.885V101.174Z" fill="#60FBFF"/>
<path opacity="0.85" d="M120.885 127.237H47.5869V128.922H120.885V127.237Z" fill="#60FBFF"/>
<path opacity="0.85" d="M85.4719 60.6631H83.7935V149.388H85.4719V60.6631Z" fill="#60FBFF"/>
<path opacity="0.85" d="M108.039 60.6631H106.361V149.388H108.039V60.6631Z" fill="#60FBFF"/>
<path opacity="0.15" d="M92.5703 50.0769C92.5703 50.0769 106.221 164.977 54.7402 188.443C95.2849 188.632 113.467 185.162 113.467 185.162L118.135 60.8934C118.135 60.8934 103.241 47.8017 92.5703 50.0769Z" fill="#D15F5E"/>
<path d="M143.912 241.426C143.441 239.898 141.72 238.653 140.256 239.281C141.841 237.68 143.533 235.833 143.552 233.575C143.568 231.318 140.695 229.21 139.041 230.741C139.774 229.439 140.39 227.965 140.162 226.488C139.935 225.01 138.563 223.631 137.099 223.899C139.665 221.644 139.146 216.834 136.16 215.179C137.134 213.579 137.66 211.707 137.664 209.831C137.666 208.974 137.505 208.013 136.814 207.506C136.279 207.113 135.399 207.305 135.079 207.806C135.517 205.824 134.868 203.622 133.382 202.241C132.791 201.691 132.042 201.254 131.237 201.257C129.764 201.263 128.651 202.771 128.533 204.243C128.417 205.717 129.024 207.141 129.62 208.493C126.982 208.028 124.619 210.67 124.334 213.342C124.046 216.017 125.213 218.606 126.349 221.043C125.917 219.982 124.375 219.776 123.417 220.402C122.46 221.029 121.994 222.186 121.736 223.302C120.857 227.088 121.79 231.253 124.197 234.293C122.81 232.8 120.069 234.428 119.848 236.456C119.625 238.484 120.921 240.332 122.152 241.958C121.444 240.553 119.114 240.837 118.286 242.174C117.456 243.509 117.786 245.276 118.474 246.692C119.162 248.107 120.171 249.359 120.727 250.831L141.956 249.083C142.806 248.347 143.183 247.213 143.504 246.13C143.959 244.599 144.381 242.954 143.912 241.426Z" fill="#50A913"/>
<path opacity="0.3" d="M150.873 255.539C150.873 259.16 117.838 262.096 77.0863 262.096C36.3349 262.096 3.29932 259.16 3.29932 255.539C3.29932 251.917 36.3349 248.981 77.0863 248.981C117.838 248.981 150.873 251.917 150.873 255.539Z" fill="black"/>
<path d="M44.3323 189.054L44.9958 181.165C44.8923 173.437 126.25 162.917 126.25 176.159L126.456 185.619L44.3323 189.054Z" fill="url(#paint2_linear)"/>
<path d="M130.479 187.717C129.574 176.09 37.2529 178.673 35.7272 196.908L31.2429 247.412L134.2 244.774L130.479 187.717Z" fill="url(#paint3_linear)"/>
<path d="M43.3347 228.723L46.0271 195.576L60.2826 192.347L76.1968 190.301L102.042 188.66L118.058 189.054L120.054 225.614L103.426 225.611L75.2163 226.742L57.9365 227.983L43.3347 228.723Z" fill="url(#paint4_linear)"/>
<path d="M44.9802 191.863L59.2088 188.329L75.3539 186.208L102.827 185.39L119.098 186.211L118.058 189.054L102.042 188.66L76.197 190.301L60.2828 192.347L46.0274 195.576L44.9802 191.863Z" fill="#BF5970"/>
<path d="M31.2429 247.412L34.336 255.539H129.976L134.2 244.774L31.2429 247.412Z" fill="url(#paint5_linear)"/>
<path d="M39.4652 174.174L43.5094 171.391L39.4652 242.031L33.6572 242.191L39.4652 174.174ZM119.793 162.794L122.81 239.738L130.956 239.513L125.429 164.975L119.793 162.794ZM52.1543 168.769L46.8065 241.828L54.1375 241.626L57.5017 165.917L52.1543 168.769ZM64.28 241.347L72.8788 241.112L74.3117 162.794L68.2777 164.572L64.28 241.347ZM83.2876 240.824L93.017 240.558L90.945 161.502H85.3589L83.2876 240.824ZM105.689 240.208L113.759 239.987L109.082 162.794L103.048 161.502L105.689 240.208Z" fill="url(#paint6_linear)"/>
<path d="M57.5017 165.917L61.7155 171.391V174.337H60.8858L60.6619 183.857L59.3435 184.117L59.2086 188.329L60.2827 192.347L57.9365 227.983L54.1374 241.626L57.5017 165.917ZM39.4651 242.031L43.3348 228.723L46.0272 195.576L44.9801 191.863L45.1431 188.215L46.3463 187.729L46.8065 179.044L47.5102 178.648V176.521L43.5093 171.391L39.4651 242.031ZM72.8788 241.112L75.2163 226.742L76.1968 190.301L75.3538 186.208L75.4047 181.76L76.2329 181.679L76.3458 171.86L77.0263 171.769V168.93L74.3116 162.794L72.8788 241.112ZM103.048 161.502L101.427 167.478V169.869H101.917L102.237 180.678L102.671 180.759L102.827 185.389L102.042 188.659L103.426 225.611L105.689 240.208L103.048 161.502ZM119.793 162.794L116.211 167.317V170.592L117.556 170.814L118.001 182.034L119 182.199L119.098 186.211L118.058 189.054L120.054 225.613L122.81 239.738L119.793 162.794Z" fill="#AD7F2C"/>
<path opacity="0.45" d="M60.2827 192.347L59.2087 188.329L59.3436 184.117L60.6619 183.857L60.8859 174.337L63.1576 174.04L62.8944 183.45L61.7156 183.664L61.4498 188.034L62.192 192.101L60.1774 227.821L54.1375 241.627L57.9366 227.983L60.2827 192.347Z" fill="#D2A67C"/>
<path opacity="0.45" d="M76.3456 171.86L76.2328 181.679L75.4046 181.76L75.3537 186.208L76.1967 190.301L75.2162 226.742L72.8787 241.112L78.8768 226.595L79.5563 190.087L79.2139 186.093L78.1953 186.21L78.3082 181.489L79.1371 181.419L79.5563 171.45L76.3456 171.86Z" fill="#D2A67C"/>
<path opacity="0.45" d="M91.2568 170.385L93.0169 240.558L97.2932 225.857V189.054V185.709L96.5868 185.672L96.5364 180.679L97.2932 180.678V169.848L91.2568 170.385Z" fill="#D2A67C"/>
<path opacity="0.45" d="M117.555 170.815L114.688 170.376L115.002 181.619L116.4 181.801V186.075L115.042 186.21V188.979L116.298 225.613L122.785 239.284L120.054 225.613L118.058 189.054L119.098 186.212L119 182.199L118.001 182.034L117.555 170.815Z" fill="#D2A67C"/>
<path opacity="0.6" d="M43.0099 172.888L39.7898 174.987L34.2607 241.112L40.2195 177.491L43.0099 172.888Z" fill="#FAFFF0"/>
<path opacity="0.6" d="M52.513 169.848L47.6187 240.558L53.2923 172.02L56.9636 167.586L52.513 169.848Z" fill="#FAFFF0"/>
<path opacity="0.6" d="M68.6798 165.538L73.9092 164.032L69.8367 167.587L65.2102 239.714L68.6798 165.538Z" fill="#FAFFF0"/>
<path opacity="0.6" d="M85.9618 162.553L83.9658 239.714H84.569L86.9828 165.136L90.5282 162.553H85.9618Z" fill="#FAFFF0"/>
<path opacity="0.6" d="M104.08 163.064L108.504 164.032L104.884 165.538L106.644 238.933L104.08 163.064Z" fill="#FAFFF0"/>
<path opacity="0.6" d="M120.807 164.032L125.048 165.971L130.227 237.884L124.305 167.047L120.807 164.032Z" fill="#FAFFF0"/>
<path opacity="0.45" d="M46.8065 179.044L47.5102 178.648L47.0519 187.463L46.5046 187.669L46.3583 191.521L46.8355 195.393L44.1423 228.682L39.4651 242.031L43.3348 228.723L46.0272 195.576L44.9801 191.863L45.1431 188.216L46.3463 187.73L46.8065 179.044Z" fill="#D2A67C"/>
<path opacity="0.3" d="M33.3303 248.649L57.4163 247.897V254.247L34.8894 254.893L33.3303 248.649Z" fill="#FAFFF0"/>
<path opacity="0.3" d="M95.4302 247.412L128.844 246.604L126.958 253.71H95.8081L95.4302 247.412Z" fill="#D2A67C"/>
<path opacity="0.5" d="M31.2429 247.412L134.2 244.774L130.956 253.036L32.7589 251.394L31.2429 247.412Z" fill="#D2A67C"/>
<path opacity="0.45" d="M101.917 169.869L102.237 180.678L102.671 180.759L102.827 185.39L102.042 188.659L103.426 225.611L105.688 240.208L102.121 225.663L100.937 188.659V185.39H101.521L101.371 180.725L100.843 180.678L100.691 169.882L101.917 169.869Z" fill="#D2A67C"/>
<path d="M46.0507 248.453C45.5798 246.925 43.8582 245.68 42.3943 246.308C43.9795 244.707 45.671 242.86 45.6901 240.602C45.7063 238.345 42.8336 236.237 41.1791 237.768C41.9129 236.466 42.5289 234.992 42.3007 233.515C42.0736 232.037 40.7012 230.658 39.2372 230.926C41.8037 228.67 41.2844 223.861 38.2988 222.206C39.272 220.606 39.798 218.734 39.8025 216.858C39.8046 216.001 39.6433 215.04 38.9524 214.533C38.4172 214.14 37.5376 214.332 37.2174 214.832C37.6554 212.851 37.0068 210.649 35.5204 209.268C34.9296 208.718 34.1801 208.281 33.3752 208.284C31.9026 208.29 30.7894 209.798 30.6718 211.27C30.5555 212.744 31.1628 214.168 31.7586 215.519C29.1203 215.054 26.7572 217.697 26.4721 220.369C26.1846 223.044 27.3512 225.633 28.4879 228.07C28.0552 227.008 26.5134 226.802 25.5551 227.429C24.5984 228.056 24.1324 229.213 23.8742 230.329C22.9951 234.115 23.9283 238.28 26.3356 241.32C24.9488 239.827 22.2078 241.454 21.9862 243.483C21.7633 245.511 23.0597 247.359 24.2905 248.984C23.5823 247.58 21.2524 247.864 20.4248 249.201C19.594 250.536 19.9248 252.302 20.6127 253.719C21.3005 255.134 22.3097 256.386 22.865 257.858L44.0939 256.11C44.944 255.374 45.3216 254.239 45.642 253.157C46.0972 251.626 46.5195 249.981 46.0507 248.453Z" fill="#79A958"/>
<path d="M119.947 246.455C119.548 245.756 118.529 245.783 117.772 246.045C117.345 246.193 116.943 246.4 116.561 246.636C117.004 245.69 117.338 244.694 117.544 243.67C117.707 242.857 117.67 241.796 116.912 241.463C116.373 241.227 115.756 241.508 115.259 241.822C114.141 242.531 113.178 243.46 112.375 244.515C113.99 241.506 115.004 238.172 115.298 234.766C112.542 235.855 110.394 238.292 109.517 241.122C110.518 236.38 111.291 231.496 110.078 226.842C106.265 230.17 104.334 235.537 105.146 240.544C103.685 236.079 103.634 231.131 101.383 227.012C101.202 226.681 100.991 226.342 100.659 226.165C100.06 225.845 99.2789 226.202 98.9063 226.77C98.5344 227.339 98.4719 228.053 98.4463 228.733C98.2937 232.644 98.9899 236.586 100.472 240.207C99.1036 237.742 97.7361 235.276 96.3688 232.809C95.4301 231.117 94.3104 229.274 92.4539 228.743C91.8466 230.125 92.2869 231.722 92.7646 233.153C93.9657 236.754 95.3601 240.291 96.9406 243.741C95.4322 240.741 93.4239 237.995 91.0268 235.651C90.5685 235.202 89.9313 234.736 89.3468 234.996C88.6511 235.306 88.7031 236.306 88.9007 237.045C89.8848 240.729 91.6085 244.21 93.9314 247.227C91.6937 244.577 89.0624 242.156 85.7311 241.405C85.3268 241.314 84.8293 241.282 84.5781 241.612C84.3181 241.955 84.505 242.445 84.7038 242.828C86.9337 247.124 89.7448 251.116 93.0343 254.661L116.05 255.348C118.197 253.343 119.636 250.59 120.061 247.679C120.12 247.266 120.155 246.817 119.947 246.455Z" fill="#579326"/>
<path d="M140.151 246.855C138.915 245.776 136.771 245.827 135.77 247.13C136.15 246.515 136.539 245.873 136.623 245.155C136.708 244.436 136.395 243.617 135.726 243.35C135.349 243.198 134.925 243.243 134.525 243.302C132.962 243.536 131.431 243.983 129.988 244.628C130.19 243.05 129.022 241.418 127.468 241.105C125.914 240.793 124.211 241.849 123.792 243.384C123.414 241.714 121.501 240.575 119.861 241.04C118.22 241.504 117.185 243.48 117.733 245.102C116.767 244.355 115.601 243.789 114.382 243.819C113.163 243.849 111.915 244.598 111.571 245.773C111.334 246.587 111.685 247.524 112.324 248.036C111.074 247.61 109.75 247.406 108.433 247.458C109.155 251.314 112.025 254.69 115.705 256.007L137.748 254.792C139.239 254.11 140.562 252.931 141.132 251.39C141.701 249.847 141.386 247.937 140.151 246.855Z" fill="#79A958"/>
<path d="M107.642 6.16394C106.337 4.04198 103.28 1.89221 100.847 1.38658L94.6763 0.104012C92.2444 -0.401615 89.3003 0.985909 88.1332 3.18737L85.209 8.70703C84.0422 10.9085 83.7171 14.6499 84.4862 17.0209L86.3944 22.9048C87.1635 25.2765 89.8238 27.1544 92.3069 27.0797L98.6011 26.8892C101.084 26.8144 104.465 25.2277 106.115 23.3637L110.256 18.6866C111.906 16.8223 112.189 13.5615 110.884 11.439L107.642 6.16394Z" fill="url(#paint7_radial)"/>
<path d="M85.1188 17.0764C84.3499 14.7051 84.6753 10.9632 85.8418 8.76197L88.0973 4.50494C89.2636 2.30374 91.0717 2.35412 92.1134 4.61777L94.452 9.69661C95.4944 11.9603 95.1886 15.4884 93.7728 17.5369L90.5593 22.1859C89.1432 24.2347 87.3552 23.9715 86.5866 21.5995L85.1188 17.0764Z" fill="url(#paint8_radial)"/>
<path d="M93.166 4.1102C92.1236 1.84655 93.2611 0.407856 95.693 0.913484L100.483 1.90926C102.915 2.41541 105.972 4.56518 107.276 6.68688L109.776 10.7532C111.081 12.8754 110.124 14.4335 107.649 14.2162L101.903 13.7114C99.4289 13.4941 96.552 11.464 95.5098 9.20085L93.166 4.1102Z" fill="url(#paint9_radial)"/>
<path d="M94.7291 18.2101C96.1446 16.1614 99.3276 14.6626 101.802 14.8801L107.549 15.3852C110.023 15.6022 110.697 17.3046 109.047 19.1689L105.846 22.7857C104.196 24.6495 100.815 26.2359 98.3314 26.3107L93.4465 26.4586C90.9644 26.5337 90.0913 24.9189 91.5077 22.8702L94.7291 18.2101Z" fill="url(#paint10_radial)"/>
<path d="M105.576 10.151C105.167 9.48373 105.381 8.98256 106.022 9.00487C106.642 9.02822 107.466 9.537 107.894 10.1638C108.34 10.8159 108.213 11.3764 107.576 11.3945C106.915 11.4126 106.003 10.8442 105.576 10.151Z" fill="url(#paint11_linear)"/>
<path d="M105.701 9.75116C105.617 9.61655 105.66 9.51133 105.794 9.51422C105.928 9.51737 106.104 9.62626 106.189 9.75903C106.275 9.89285 106.236 10.001 106.102 9.9999C105.966 9.99859 105.786 9.88655 105.701 9.75116Z" fill="white"/>
<path d="M99.1076 10.1127C98.7807 9.33764 99.245 8.76222 100.101 8.79213C100.926 8.82309 101.863 9.40875 102.236 10.1309C102.624 10.8865 102.276 11.5415 101.408 11.5667C100.504 11.5908 99.4515 10.9248 99.1076 10.1127Z" fill="url(#paint12_linear)"/>
<path d="M99.4146 9.6495C99.3466 9.49364 99.4399 9.37189 99.6215 9.37583C99.802 9.38029 100.003 9.5065 100.074 9.65999C100.144 9.81507 100.056 9.94023 99.8737 9.93839C99.69 9.93656 99.4842 9.80641 99.4146 9.6495Z" fill="white"/>
<path d="M103.408 6.62145C103.079 6.08617 103.327 5.72433 103.935 5.79334C104.525 5.86077 105.265 6.31471 105.614 6.82427C105.974 7.35273 105.796 7.76127 105.188 7.72008C104.559 7.67678 103.749 7.17614 103.408 6.62145Z" fill="url(#paint13_linear)"/>
<path d="M103.561 6.33155C103.494 6.22344 103.544 6.14683 103.671 6.16021C103.798 6.17359 103.955 6.27068 104.024 6.37773C104.093 6.48531 104.047 6.5635 103.919 6.5517C103.79 6.5391 103.63 6.44044 103.561 6.33155Z" fill="white"/>
<path d="M97.397 6.06855C97.1424 5.46714 97.6029 5.07277 98.3911 5.16198C99.1541 5.24936 99.9833 5.76365 100.278 6.33356C100.583 6.92656 100.212 7.38076 99.411 7.32671C98.5813 7.27003 97.6622 6.69487 97.397 6.06855Z" fill="url(#paint14_linear)"/>
<path d="M97.7055 5.74896C97.6526 5.62721 97.7458 5.54429 97.9121 5.56161C98.0775 5.57867 98.2548 5.68861 98.3103 5.80878C98.3652 5.93001 98.2765 6.01581 98.1086 6.00007C97.9407 5.98354 97.7591 5.87097 97.7055 5.74896Z" fill="white"/>
<path d="M101.65 3.76192C101.38 3.32215 101.646 3.05923 102.223 3.15789C102.783 3.25471 103.454 3.66431 103.743 4.08754C104.041 4.5239 103.833 4.82434 103.254 4.7451C102.658 4.66271 101.929 4.21559 101.65 3.76192Z" fill="url(#paint15_linear)"/>
<path d="M101.82 3.54883C101.764 3.46015 101.818 3.40452 101.939 3.42446C102.059 3.4444 102.202 3.53125 102.258 3.61942C102.315 3.70863 102.264 3.76557 102.143 3.74668C102.022 3.727 101.876 3.63857 101.82 3.54883Z" fill="white"/>
<path d="M96.0533 2.89226C95.8506 2.41183 96.2977 2.13999 97.0268 2.26489C97.7334 2.38664 98.4782 2.84503 98.7168 3.30606C98.9619 3.78387 98.5853 4.10346 97.8447 4.00165C97.0798 3.89617 96.2648 3.39028 96.0533 2.89226Z" fill="url(#paint16_linear)"/>
<path d="M96.3561 2.66831C96.3138 2.57149 96.4043 2.51376 96.5581 2.53921C96.7109 2.5644 96.8694 2.66201 96.9133 2.75831C96.9578 2.85513 96.8704 2.91496 96.7158 2.89082C96.561 2.86641 96.3993 2.76671 96.3561 2.66831Z" fill="white"/>
<path d="M87.8138 17.5732C88.2244 17.0967 88.7593 17.2458 89.0073 17.9361C89.2616 18.6472 89.1053 19.628 88.6621 20.0972C88.2296 20.5529 87.7043 20.3309 87.4819 19.6293C87.2671 18.9466 87.4145 18.0384 87.8138 17.5732Z" fill="url(#paint17_linear)"/>
<path d="M88.1885 17.6585C88.2743 17.5606 88.3836 17.5929 88.4318 17.7328C88.4807 17.8726 88.4496 18.0665 88.3625 18.1644C88.2759 18.262 88.1676 18.2263 88.1197 18.0865C88.0731 17.9474 88.1035 17.7566 88.1885 17.6585Z" fill="white"/>
<path d="M85.871 11.7941C86.2099 11.3105 86.6387 11.3291 86.8279 11.8565C87.0219 12.3976 86.8833 13.2467 86.5219 13.7297C86.1678 14.2018 85.7468 14.1283 85.5757 13.5878C85.4095 13.0604 85.5404 12.2666 85.871 11.7941Z" fill="url(#paint18_linear)"/>
<path d="M86.173 11.7899C86.2436 11.6905 86.3308 11.6957 86.3684 11.8028C86.405 11.9101 86.3778 12.0785 86.3069 12.178C86.2355 12.2772 86.1484 12.2698 86.1121 12.1625C86.0757 12.0549 86.1029 11.8891 86.173 11.7899Z" fill="white"/>
<path d="M88.7152 11.9797C89.1349 11.4355 89.6868 11.4591 89.9463 12.0605C90.2126 12.6803 90.0584 13.6482 89.6055 14.1927C89.1642 14.7222 88.6217 14.628 88.3883 14.0101C88.1622 13.4084 88.3073 12.5113 88.7152 11.9797Z" fill="url(#paint19_linear)"/>
<path d="M89.1023 11.979C89.1894 11.8661 89.3016 11.8729 89.3529 11.995C89.4042 12.1172 89.373 12.3088 89.2844 12.4211C89.1957 12.5329 89.0835 12.5234 89.034 12.4009C88.9843 12.2789 89.0152 12.0905 89.1023 11.979Z" fill="white"/>
<path d="M89.6057 6.45832C90.0333 5.848 90.6011 5.74907 90.8719 6.26441C91.1504 6.79549 90.9986 7.74954 90.5361 8.36774C90.0853 8.9694 89.5266 8.99958 89.2825 8.46246C89.046 7.93952 89.1887 7.05447 89.6057 6.45832Z" fill="url(#paint20_linear)"/>
<path d="M90.0033 6.37189C90.0925 6.24594 90.2082 6.22731 90.261 6.33253C90.3146 6.43775 90.2843 6.62641 90.1938 6.7534C90.1035 6.87856 89.9882 6.89457 89.9366 6.78883C89.8848 6.68334 89.9144 6.49783 90.0033 6.37189Z" fill="white"/>
<path d="M92.4152 12.2229C92.9527 11.5992 93.6881 11.6301 94.0563 12.3305C94.4363 13.0555 94.2625 14.1798 93.6732 14.8032C93.1004 15.4073 92.3773 15.2816 92.0486 14.5595C91.7321 13.8597 91.8941 12.8301 92.4152 12.2229Z" fill="url(#paint21_linear)"/>
<path d="M92.9271 12.2254C93.0401 12.0965 93.1895 12.1057 93.2612 12.2466C93.3336 12.3896 93.2991 12.6103 93.1845 12.7394C93.0705 12.8674 92.9214 12.8546 92.851 12.7124C92.7819 12.5709 92.8157 12.3534 92.9271 12.2254Z" fill="white"/>
<path d="M94.7177 22.9564C95.1745 22.1947 96.254 21.7001 97.1044 21.8591C97.9336 22.016 98.2106 22.7363 97.748 23.4618C97.2923 24.175 96.2757 24.6486 95.4526 24.5284C94.6093 24.4043 94.2698 23.7053 94.7177 22.9564Z" fill="url(#paint22_linear)"/>
<path d="M95.4775 22.5816C95.5717 22.4263 95.7919 22.3253 95.968 22.3565C96.1438 22.3877 96.2084 22.5383 96.1134 22.6924C96.0193 22.8461 95.8019 22.9461 95.6266 22.9164C95.4508 22.8863 95.3836 22.737 95.4775 22.5816Z" fill="white"/>
<path d="M104.54 18.4416C105.069 17.661 106.093 17.1913 106.806 17.3999C107.501 17.6051 107.619 18.3773 107.091 19.1206C106.571 19.8511 105.603 20.3025 104.907 20.1356C104.194 19.9637 104.02 19.2101 104.54 18.4416Z" fill="url(#paint23_linear)"/>
<path d="M105.264 18.0835C105.373 17.9239 105.582 17.8279 105.73 17.8696C105.877 17.9105 105.908 18.0724 105.799 18.2304C105.69 18.3873 105.484 18.4828 105.337 18.4432C105.188 18.4033 105.156 18.2425 105.264 18.0835Z" fill="white"/>
<path d="M75.4068 2.32578C72.9927 1.73881 69.3138 2.36986 67.2307 3.72747L61.9457 7.17398C59.8622 8.53238 58.7416 11.5979 59.4545 13.987L61.2417 19.9758C61.9549 22.3649 64.3444 25.2535 66.5526 26.3962L72.0302 29.2306C74.2384 30.3736 77.4451 29.8296 79.1573 28.0231L83.4984 23.443C85.2106 21.6357 86.5029 18.1207 86.3699 15.6298L86.0367 9.38069C85.9042 6.8906 83.8204 4.37269 81.4068 3.78572L75.4068 2.32578Z" fill="url(#paint24_radial)"/>
<path d="M67.0414 25.989C64.8332 24.8469 62.4439 21.9574 61.731 19.5689L60.3523 14.9497C59.6396 12.5609 60.9593 11.3206 63.2859 12.1933L68.5061 14.1523C70.8327 15.025 73.0869 17.7489 73.5154 20.2054L74.4878 25.7794C74.9161 28.2356 73.4606 29.3112 71.2529 28.1682L67.0414 25.989Z" fill="url(#paint25_radial)"/>
<path d="M63.678 11.0891C61.3517 10.2161 61.1523 8.39089 63.2353 7.03249L67.3379 4.35741C69.4209 2.99927 73.0998 2.36848 75.5139 2.95545L80.1386 4.08059C82.5527 4.66808 82.964 6.45129 81.0529 8.044L76.6146 11.7437C74.7036 13.3364 71.2366 13.9252 68.9105 13.0523L63.678 11.0891Z" fill="url(#paint26_radial)"/>
<path d="M74.6657 20.0079C74.2374 17.5514 75.4499 14.2388 77.361 12.6458L81.7998 8.9458C83.7106 7.35308 85.3828 8.08752 85.5158 10.5773L85.7732 15.4095C85.906 17.8999 84.614 21.4157 82.9018 23.222L79.5326 26.7769C77.8209 28.5834 76.0692 28.0518 75.6407 25.5956L74.6657 20.0079Z" fill="url(#paint27_radial)"/>
<path d="M64.2181 9.06896C63.5727 8.78846 63.6843 8.18312 64.3185 7.72971C64.8869 7.32405 65.7837 7.11021 66.4402 7.22802C67.186 7.3621 67.4708 7.89003 66.9187 8.45444C66.2821 9.10412 64.9757 9.39694 64.2181 9.06896Z" fill="url(#paint28_linear)"/>
<path d="M64.2246 8.57498C64.0949 8.52618 64.1077 8.3997 64.2471 8.29396C64.3832 8.19005 64.5948 8.14125 64.7258 8.18271C64.8608 8.22495 64.8648 8.34801 64.7279 8.45901C64.5872 8.57315 64.3586 8.62562 64.2246 8.57498Z" fill="white"/>
<path d="M70.7894 7.89836C70.1442 7.61734 70.256 7.012 70.8897 6.55859C71.4584 6.1532 72.3552 5.93935 73.0117 6.05664C73.7567 6.19125 74.0421 6.71918 73.4902 7.28384C72.8536 7.933 71.547 8.22583 70.7894 7.89836Z" fill="url(#paint29_linear)"/>
<path d="M70.7958 7.40417C70.6664 7.35484 70.6794 7.22837 70.8189 7.1221C70.9549 7.01925 71.166 6.96992 71.297 7.01111C71.4318 7.05362 71.4365 7.17668 71.2989 7.2882C71.1584 7.40155 70.93 7.45429 70.7958 7.40417Z" fill="white"/>
<path d="M77.4102 6.81212C76.765 6.53136 76.8769 5.92576 77.5108 5.47288C78.0792 5.06722 78.9758 4.85337 79.6325 4.97118C80.3778 5.10553 80.6627 5.63293 80.111 6.1976C79.4744 6.84702 78.1678 7.13985 77.4102 6.81212Z" fill="url(#paint30_linear)"/>
<path d="M77.4171 6.31811C77.2868 6.2693 77.2999 6.14283 77.4393 6.03709C77.5754 5.93318 77.7867 5.88385 77.9183 5.92531C78.053 5.96755 78.0564 6.09088 77.9196 6.20239C77.7791 6.31574 77.5505 6.36875 77.4171 6.31811Z" fill="white"/>
<path d="M65.514 19.7338C65.3719 18.8895 65.8125 18.3251 66.5836 18.5688C67.4491 18.8441 68.2511 19.96 68.2715 20.9267C68.288 21.7962 67.6462 22.093 66.909 21.7044C66.2408 21.3515 65.645 20.5074 65.514 19.7338Z" fill="url(#paint31_linear)"/>
<path d="M65.7975 19.3787C65.7702 19.1987 65.8631 19.0934 66.0088 19.1475C66.1569 19.2029 66.2981 19.401 66.3214 19.5865C66.3436 19.7681 66.2427 19.8628 66.0988 19.803C65.9573 19.7434 65.8241 19.5555 65.7975 19.3787Z" fill="white"/>
<path d="M77.8761 23.8045C77.6646 23.0872 78.0287 22.0095 78.6846 21.4126C79.3329 20.8235 80.0074 20.94 80.1974 21.6563C80.3835 22.3627 80.0307 23.3997 79.4048 23.989C78.7703 24.5849 78.0846 24.5101 77.8761 23.8045Z" fill="url(#paint32_linear)"/>
<path d="M78.1146 23.0365C78.0719 22.889 78.1462 22.6688 78.2804 22.5453C78.4151 22.4227 78.5574 22.4435 78.5996 22.5912C78.6409 22.7381 78.5671 22.9562 78.4337 23.079C78.3 23.202 78.1575 23.1834 78.1146 23.0365Z" fill="white"/>
<path d="M82.6317 19.4037C82.465 18.6874 82.8173 17.6546 83.4146 17.1104C84.0058 16.5741 84.6 16.73 84.7495 17.4445C84.8953 18.1492 84.5538 19.1442 83.9817 19.6832C83.4024 20.2276 82.7971 20.109 82.6317 19.4037Z" fill="url(#paint33_linear)"/>
<path d="M82.8647 18.666C82.831 18.5185 82.9032 18.3078 83.0254 18.1958C83.1475 18.0835 83.2736 18.1128 83.3066 18.2601C83.3398 18.4067 83.2676 18.6156 83.1465 18.7284C83.0246 18.8402 82.8982 18.8126 82.8647 18.666Z" fill="white"/>
<path d="M81.2966 13.687C81.1098 12.8844 81.4811 11.7847 82.1222 11.2458C82.7556 10.7152 83.3985 10.9453 83.5647 11.7438C83.7277 12.5307 83.3679 13.5884 82.7561 14.1234C82.1365 14.6642 81.4819 14.4768 81.2966 13.687Z" fill="url(#paint34_linear)"/>
<path d="M81.5417 12.9002C81.5045 12.7351 81.5804 12.5111 81.7114 12.3993C81.8427 12.2886 81.9785 12.3332 82.0157 12.4977C82.0523 12.6619 81.9767 12.8847 81.8467 12.9957C81.7164 13.1072 81.5801 13.0644 81.5417 12.9002Z" fill="white"/>
<path d="M76.1826 18.0683C75.9445 17.2604 76.3289 16.1098 77.0361 15.5149C77.7354 14.929 78.4687 15.1216 78.6824 15.9269C78.8912 16.7196 78.5194 17.8237 77.8462 18.4128C77.1634 19.0082 76.4175 18.8625 76.1826 18.0683Z" fill="url(#paint35_linear)"/>
<path d="M76.4333 17.2466C76.3857 17.0805 76.4645 16.8457 76.6088 16.7229C76.7538 16.6006 76.9086 16.6368 76.9562 16.8027C77.0028 16.9682 76.9251 17.2007 76.7815 17.3232C76.6371 17.4463 76.4822 17.4117 76.4333 17.2466Z" fill="white"/>
<path d="M130.91 53.1787H37.9902V60.6632H130.91V53.1787Z" fill="url(#paint36_linear)"/>
<path d="M120.992 23.5957H47.9099V29.7734H120.992V23.5957Z" fill="url(#paint37_linear)"/>
<path d="M127.409 33.6946H41.4924V40.3472H127.409V33.6946Z" fill="url(#paint38_linear)"/>
<path d="M122.888 40.3472H46.0142V44.8627H122.888V40.3472Z" fill="url(#paint39_linear)"/>
<path d="M119.387 44.8628H49.5146V53.1788H119.387V44.8628Z" fill="url(#paint40_linear)"/>
<path d="M135.287 29.7737H33.6152V33.6949H135.287V29.7737Z" fill="url(#paint41_linear)"/>
<path opacity="0.3" d="M126.534 30.3975V33.2783H98.7478L103.297 33.0229V30.5087L126.534 30.3975Z" fill="#B87D5A"/>
<path opacity="0.3" d="M126.534 53.8311V60.1287H98.7478L103.297 59.5716V54.0753L126.534 53.8311Z" fill="#B87D5A"/>
<path opacity="0.3" d="M118.421 23.8633V29.2392H97.5449L100.963 28.7634V24.0706L118.421 23.8633Z" fill="#B87D5A"/>
<path opacity="0.3" d="M122.202 34.2292V39.6041H101.735L105.087 39.1297V34.4357L122.202 34.2292Z" fill="#B87D5A"/>
<path opacity="0.3" d="M118.421 41.179V44.1343H100.279L103.249 43.8729V41.2936L118.421 41.179Z" fill="#B87D5A"/>
<path opacity="0.3" d="M116.417 45.4263V52.0495H99.4778L102.251 51.4639V45.6826L116.417 45.4263Z" fill="#B87D5A"/>
<path opacity="0.5" d="M47.9099 23.5957V28.1107L120.992 29.7734V23.5957H47.9099Z" fill="#B87D5A"/>
<path opacity="0.5" d="M41.4924 33.6946H127.409V38.3872L41.4924 36.9173V33.6946Z" fill="#B87D5A"/>
<path opacity="0.5" d="M46.0142 40.3472H122.888L122.768 42.4416L46.0142 41.6171V40.3472Z" fill="#B87D5A"/>
<path opacity="0.5" d="M49.5146 44.8628H119.387V48.0548L49.5146 47.1144V44.8628Z" fill="#B87D5A"/>
<path d="M122.067 197.982H43.9971C41.3271 197.982 39.0029 196.072 38.3692 193.357L29.6151 155.863C28.7235 152.043 31.4867 148.359 35.243 148.359H130.821C134.578 148.359 137.341 152.043 136.449 155.863L127.695 193.357C127.061 196.072 124.737 197.982 122.067 197.982Z" fill="url(#paint42_linear)"/>
<path d="M43.9976 197.457C41.5514 197.457 39.437 195.72 38.8561 193.232L30.1022 155.738C29.7139 154.075 30.0704 152.349 31.0804 151.002C32.0904 149.655 33.6082 148.883 35.2435 148.883H130.821C132.457 148.883 133.974 149.655 134.985 151.002C135.995 152.349 136.351 154.075 135.963 155.738L127.209 193.232C126.628 195.72 124.514 197.457 122.067 197.457H43.9976Z" fill="url(#paint43_linear)"/>
<path d="M43.9971 194.836C42.708 194.836 41.594 193.921 41.288 192.61L32.5341 155.116C32.3292 154.24 32.5174 153.33 33.0494 152.621C33.5815 151.911 34.3812 151.504 35.243 151.504H130.821C131.683 151.504 132.482 151.911 133.015 152.621C133.547 153.33 133.735 154.24 133.53 155.116L124.776 192.61C124.47 193.921 123.356 194.836 122.067 194.836H43.9971Z" fill="url(#paint44_linear)"/>
<path d="M43.997 193.788C43.1709 193.788 42.457 193.202 42.2605 192.361L33.5066 154.867C33.3755 154.306 33.4962 153.723 33.8372 153.268C34.1782 152.813 34.6904 152.552 35.2429 152.552H130.821C131.373 152.552 131.886 152.813 132.227 153.268C132.568 153.723 132.688 154.306 132.557 154.867L123.804 192.361C123.607 193.202 122.893 193.788 122.067 193.788H43.997Z" fill="#F6EFBB"/>
<path d="M32.0162 152.882C32.5816 152.882 33.0399 152.422 33.0399 151.854C33.0399 151.286 32.5816 150.826 32.0162 150.826C31.4508 150.826 30.9924 151.286 30.9924 151.854C30.9924 152.422 31.4508 152.882 32.0162 152.882Z" fill="#F6EFBB"/>
<path d="M37.6423 151.154C38.2076 151.154 38.6659 150.694 38.6659 150.126C38.6659 149.559 38.2076 149.099 37.6423 149.099C37.0769 149.099 36.6187 149.559 36.6187 150.126C36.6187 150.694 37.0769 151.154 37.6423 151.154Z" fill="#F6EFBB"/>
<path d="M43.0012 151.154C43.5666 151.154 44.025 150.694 44.025 150.126C44.025 149.559 43.5666 149.098 43.0012 149.098C42.4357 149.098 41.9773 149.559 41.9773 150.126C41.9773 150.694 42.4357 151.154 43.0012 151.154Z" fill="#F6EFBB"/>
<path d="M48.459 151.154C49.0244 151.154 49.4828 150.694 49.4828 150.127C49.4828 149.559 49.0244 149.099 48.459 149.099C47.8936 149.099 47.4353 149.559 47.4353 150.127C47.4353 150.694 47.8936 151.154 48.459 151.154Z" fill="#F6EFBB"/>
<path d="M53.917 151.154C54.4824 151.154 54.9408 150.694 54.9408 150.127C54.9408 149.559 54.4824 149.099 53.917 149.099C53.3517 149.099 52.8933 149.559 52.8933 150.127C52.8933 150.694 53.3517 151.154 53.917 151.154Z" fill="#F6EFBB"/>
<path d="M59.3749 151.154C59.9402 151.154 60.3985 150.694 60.3985 150.126C60.3985 149.559 59.9402 149.099 59.3749 149.099C58.8096 149.099 58.3513 149.559 58.3513 150.126C58.3513 150.694 58.8096 151.154 59.3749 151.154Z" fill="#F6EFBB"/>
<path d="M64.8329 151.154C65.3983 151.154 65.8565 150.694 65.8565 150.126C65.8565 149.559 65.3983 149.099 64.8329 149.099C64.2676 149.099 63.8093 149.559 63.8093 150.126C63.8093 150.694 64.2676 151.154 64.8329 151.154Z" fill="#F6EFBB"/>
<path d="M70.2908 151.154C70.8562 151.154 71.3146 150.694 71.3146 150.127C71.3146 149.559 70.8562 149.099 70.2908 149.099C69.7254 149.099 69.2671 149.559 69.2671 150.127C69.2671 150.694 69.7254 151.154 70.2908 151.154Z" fill="#F6EFBB"/>
<path d="M75.7488 151.154C76.3142 151.154 76.7726 150.694 76.7726 150.127C76.7726 149.559 76.3142 149.099 75.7488 149.099C75.1834 149.099 74.7251 149.559 74.7251 150.127C74.7251 150.694 75.1834 151.154 75.7488 151.154Z" fill="#F6EFBB"/>
<path d="M81.2067 151.154C81.7722 151.154 82.2306 150.694 82.2306 150.126C82.2306 149.559 81.7722 149.098 81.2067 149.098C80.6413 149.098 80.1829 149.559 80.1829 150.126C80.1829 150.694 80.6413 151.154 81.2067 151.154Z" fill="#F6EFBB"/>
<path d="M86.6646 151.154C87.23 151.154 87.6883 150.694 87.6883 150.127C87.6883 149.559 87.23 149.099 86.6646 149.099C86.0992 149.099 85.6409 149.559 85.6409 150.127C85.6409 150.694 86.0992 151.154 86.6646 151.154Z" fill="#F6EFBB"/>
<path d="M92.1225 151.154C92.6878 151.154 93.1461 150.694 93.1461 150.126C93.1461 149.559 92.6878 149.099 92.1225 149.099C91.5572 149.099 91.0989 149.559 91.0989 150.126C91.0989 150.694 91.5572 151.154 92.1225 151.154Z" fill="#F6EFBB"/>
<path d="M97.5805 151.154C98.1458 151.154 98.6041 150.694 98.6041 150.126C98.6041 149.559 98.1458 149.099 97.5805 149.099C97.0152 149.099 96.5569 149.559 96.5569 150.126C96.5569 150.694 97.0152 151.154 97.5805 151.154Z" fill="#F6EFBB"/>
<path d="M103.038 151.154C103.604 151.154 104.062 150.694 104.062 150.126C104.062 149.559 103.604 149.099 103.038 149.099C102.473 149.099 102.015 149.559 102.015 150.126C102.015 150.694 102.473 151.154 103.038 151.154Z" fill="#F6EFBB"/>
<path d="M108.496 151.154C109.062 151.154 109.52 150.694 109.52 150.127C109.52 149.559 109.062 149.099 108.496 149.099C107.931 149.099 107.473 149.559 107.473 150.127C107.473 150.694 107.931 151.154 108.496 151.154Z" fill="#F6EFBB"/>
<path d="M113.954 151.154C114.52 151.154 114.978 150.694 114.978 150.127C114.978 149.559 114.52 149.099 113.954 149.099C113.389 149.099 112.931 149.559 112.931 150.127C112.931 150.694 113.389 151.154 113.954 151.154Z" fill="#F6EFBB"/>
<path d="M119.412 151.154C119.978 151.154 120.436 150.694 120.436 150.126C120.436 149.559 119.978 149.098 119.412 149.098C118.847 149.098 118.388 149.559 118.388 150.126C118.388 150.694 118.847 151.154 119.412 151.154Z" fill="#F6EFBB"/>
<path d="M124.87 151.154C125.436 151.154 125.894 150.694 125.894 150.127C125.894 149.559 125.436 149.099 124.87 149.099C124.305 149.099 123.846 149.559 123.846 150.127C123.846 150.694 124.305 151.154 124.87 151.154Z" fill="#F6EFBB"/>
<path d="M130.328 151.154C130.893 151.154 131.352 150.694 131.352 150.126C131.352 149.559 130.893 149.099 130.328 149.099C129.763 149.099 129.304 149.559 129.304 150.126C129.304 150.694 129.763 151.154 130.328 151.154Z" fill="#F6EFBB"/>
<path d="M134.635 153.58C135.2 153.58 135.658 153.12 135.658 152.552C135.658 151.984 135.2 151.524 134.635 151.524C134.069 151.524 133.611 151.984 133.611 152.552C133.611 153.12 134.069 153.58 134.635 153.58Z" fill="#F6EFBB"/>
<path d="M133.611 160.401C134.176 160.401 134.635 159.941 134.635 159.373C134.635 158.806 134.176 158.345 133.611 158.345C133.046 158.345 132.587 158.806 132.587 159.373C132.587 159.941 133.046 160.401 133.611 160.401Z" fill="#F6EFBB"/>
<path d="M132.009 167.43C132.575 167.43 133.033 166.97 133.033 166.402C133.033 165.835 132.575 165.374 132.009 165.374C131.444 165.374 130.985 165.835 130.985 166.402C130.985 166.97 131.444 167.43 132.009 167.43Z" fill="#F6EFBB"/>
<path d="M130.407 174.459C130.973 174.459 131.431 173.999 131.431 173.431C131.431 172.864 130.973 172.403 130.407 172.403C129.842 172.403 129.384 172.864 129.384 173.431C129.384 173.999 129.842 174.459 130.407 174.459Z" fill="#F6EFBB"/>
<path d="M128.806 181.488C129.371 181.488 129.829 181.028 129.829 180.46C129.829 179.893 129.371 179.432 128.806 179.432C128.24 179.432 127.782 179.893 127.782 180.46C127.782 181.028 128.24 181.488 128.806 181.488Z" fill="#F6EFBB"/>
<path d="M127.204 188.517C127.769 188.517 128.228 188.057 128.228 187.489C128.228 186.921 127.769 186.461 127.204 186.461C126.639 186.461 126.18 186.921 126.18 187.489C126.18 188.057 126.639 188.517 127.204 188.517Z" fill="#F6EFBB"/>
<path d="M125.156 195.546C125.722 195.546 126.18 195.086 126.18 194.518C126.18 193.951 125.722 193.49 125.156 193.49C124.591 193.49 124.133 193.951 124.133 194.518C124.133 195.086 124.591 195.546 125.156 195.546Z" fill="#F6EFBB"/>
<path d="M118.388 197.095C118.954 197.095 119.412 196.634 119.412 196.067C119.412 195.499 118.954 195.039 118.388 195.039C117.823 195.039 117.365 195.499 117.365 196.067C117.365 196.634 117.823 197.095 118.388 197.095Z" fill="#F6EFBB"/>
<path d="M111.907 197.095C112.472 197.095 112.931 196.634 112.931 196.067C112.931 195.499 112.472 195.039 111.907 195.039C111.341 195.039 110.883 195.499 110.883 196.067C110.883 196.634 111.341 197.095 111.907 197.095Z" fill="#F6EFBB"/>
<path d="M105.425 197.095C105.991 197.095 106.449 196.634 106.449 196.067C106.449 195.499 105.991 195.039 105.425 195.039C104.86 195.039 104.402 195.499 104.402 196.067C104.402 196.634 104.86 197.095 105.425 197.095Z" fill="#F6EFBB"/>
<path d="M98.9435 197.095C99.5089 197.095 99.9671 196.634 99.9671 196.067C99.9671 195.499 99.5089 195.039 98.9435 195.039C98.3782 195.039 97.9199 195.499 97.9199 196.067C97.9199 196.634 98.3782 197.095 98.9435 197.095Z" fill="#F6EFBB"/>
<path d="M92.4619 197.095C93.0273 197.095 93.4857 196.635 93.4857 196.067C93.4857 195.499 93.0273 195.039 92.4619 195.039C91.8964 195.039 91.438 195.499 91.438 196.067C91.438 196.635 91.8964 197.095 92.4619 197.095Z" fill="#F6EFBB"/>
<path d="M85.9804 197.095C86.5457 197.095 87.004 196.634 87.004 196.067C87.004 195.499 86.5457 195.039 85.9804 195.039C85.4151 195.039 84.9568 195.499 84.9568 196.067C84.9568 196.634 85.4151 197.095 85.9804 197.095Z" fill="#F6EFBB"/>
<path d="M79.4986 197.095C80.064 197.095 80.5223 196.634 80.5223 196.067C80.5223 195.499 80.064 195.039 79.4986 195.039C78.9332 195.039 78.4749 195.499 78.4749 196.067C78.4749 196.634 78.9332 197.095 79.4986 197.095Z" fill="#F6EFBB"/>
<path d="M73.017 197.095C73.5823 197.095 74.0406 196.634 74.0406 196.067C74.0406 195.499 73.5823 195.039 73.017 195.039C72.4517 195.039 71.9934 195.499 71.9934 196.067C71.9934 196.634 72.4517 197.095 73.017 197.095Z" fill="#F6EFBB"/>
<path d="M66.5352 197.095C67.1006 197.095 67.5589 196.634 67.5589 196.067C67.5589 195.499 67.1006 195.039 66.5352 195.039C65.9698 195.039 65.5115 195.499 65.5115 196.067C65.5115 196.634 65.9698 197.095 66.5352 197.095Z" fill="#F6EFBB"/>
<path d="M60.0535 197.095C60.6189 197.095 61.0773 196.634 61.0773 196.067C61.0773 195.499 60.6189 195.039 60.0535 195.039C59.4881 195.039 59.0298 195.499 59.0298 196.067C59.0298 196.634 59.4881 197.095 60.0535 197.095Z" fill="#F6EFBB"/>
<path d="M53.5721 197.095C54.1375 197.095 54.5958 196.634 54.5958 196.067C54.5958 195.499 54.1375 195.039 53.5721 195.039C53.0067 195.039 52.5483 195.499 52.5483 196.067C52.5483 196.634 53.0067 197.095 53.5721 197.095Z" fill="#F6EFBB"/>
<path d="M47.0904 197.095C47.6558 197.095 48.1141 196.634 48.1141 196.067C48.1141 195.499 47.6558 195.039 47.0904 195.039C46.525 195.039 46.0667 195.499 46.0667 196.067C46.0667 196.634 46.525 197.095 47.0904 197.095Z" fill="#F6EFBB"/>
<path d="M40.8065 195.665C41.3718 195.665 41.8302 195.205 41.8302 194.638C41.8302 194.07 41.3718 193.61 40.8065 193.61C40.2411 193.61 39.7827 194.07 39.7827 194.638C39.7827 195.205 40.2411 195.665 40.8065 195.665Z" fill="#F6EFBB"/>
<path d="M39.2246 190.463C39.79 190.463 40.2484 190.003 40.2484 189.435C40.2484 188.867 39.79 188.407 39.2246 188.407C38.6591 188.407 38.2007 188.867 38.2007 189.435C38.2007 190.003 38.6591 190.463 39.2246 190.463Z" fill="#F6EFBB"/>
<path d="M37.9986 185.38C38.564 185.38 39.0223 184.92 39.0223 184.352C39.0223 183.784 38.564 183.324 37.9986 183.324C37.4332 183.324 36.9749 183.784 36.9749 184.352C36.9749 184.92 37.4332 185.38 37.9986 185.38Z" fill="#F6EFBB"/>
<path d="M36.7724 180.296C37.3377 180.296 37.796 179.836 37.796 179.269C37.796 178.701 37.3377 178.241 36.7724 178.241C36.2071 178.241 35.7488 178.701 35.7488 179.269C35.7488 179.836 36.2071 180.296 36.7724 180.296Z" fill="#F6EFBB"/>
<path d="M35.5463 175.213C36.1116 175.213 36.5699 174.753 36.5699 174.186C36.5699 173.618 36.1116 173.158 35.5463 173.158C34.981 173.158 34.5227 173.618 34.5227 174.186C34.5227 174.753 34.981 175.213 35.5463 175.213Z" fill="#F6EFBB"/>
<path d="M34.3204 170.13C34.8858 170.13 35.3441 169.67 35.3441 169.102C35.3441 168.534 34.8858 168.074 34.3204 168.074C33.755 168.074 33.2966 168.534 33.2966 169.102C33.2966 169.67 33.755 170.13 34.3204 170.13Z" fill="#F6EFBB"/>
<path d="M33.0942 165.047C33.6596 165.047 34.118 164.587 34.118 164.019C34.118 163.451 33.6596 162.991 33.0942 162.991C32.5287 162.991 32.0703 163.451 32.0703 164.019C32.0703 164.587 32.5287 165.047 33.0942 165.047Z" fill="#F6EFBB"/>
<path d="M31.8682 159.963C32.4336 159.963 32.892 159.503 32.892 158.935C32.892 158.368 32.4336 157.907 31.8682 157.907C31.3028 157.907 30.8445 158.368 30.8445 158.935C30.8445 159.503 31.3028 159.963 31.8682 159.963Z" fill="#F6EFBB"/>
<path opacity="0.2" d="M120.886 80.6332L120.436 60.6631H47.4355L47.5764 70.6481C47.5764 70.6481 107.374 63.3164 120.886 80.6332Z" fill="black"/>
<path d="M23.7129 140.657C23.6355 129.786 23.5571 118.914 23.4798 108.042C23.4484 103.856 26.1643 100.457 29.5122 100.488C32.8616 100.52 35.6185 103.972 35.6389 108.158C35.6943 118.915 35.7495 129.673 35.8046 140.431C31.7789 140.85 27.748 140.848 23.7129 140.657Z" fill="#F1D197"/>
<path d="M27.7539 139.794C26.7527 139.784 25.726 139.759 24.6376 139.715C24.5642 129.161 24.4899 118.606 24.4162 108.052C24.3896 104.397 26.6788 101.443 29.5181 101.47C32.3581 101.498 34.6839 104.494 34.7027 108.149C34.7584 118.61 34.8135 129.071 34.8687 139.533C32.6485 139.733 30.3117 139.819 27.7539 139.794Z" fill="#3D7E9B"/>
<path d="M29.7579 140.402C29.4692 140.399 29.1804 140.396 28.8911 140.393C28.8088 127.224 28.726 114.055 28.6423 100.886C28.9337 100.889 29.2246 100.892 29.5152 100.895C29.5959 114.064 29.6772 127.232 29.7579 140.402Z" fill="#F1D197"/>
<path d="M23.6098 131.813C23.6079 131.508 23.6056 131.204 23.6038 130.898C27.6715 130.937 31.7406 130.976 35.8089 131.014C35.8107 131.32 35.812 131.624 35.8139 131.929C31.7458 131.89 27.6778 131.852 23.6098 131.813Z" fill="#F1D197"/>
<path d="M23.5041 117.046C23.502 116.742 23.5002 116.437 23.4976 116.133C27.5758 116.172 31.6545 116.21 35.7335 116.249C35.7343 116.553 35.7364 116.858 35.738 117.163C31.6598 117.124 27.5818 117.086 23.5041 117.046Z" fill="#F1D197"/>
<path opacity="0.1" d="M26.9252 124.118C28.6586 116.344 31.1176 109.465 33.7782 104.396C32.8403 102.646 31.2786 101.487 29.5181 101.47C26.6788 101.443 24.3896 104.397 24.4162 108.052C24.4899 118.606 24.5642 129.161 24.6376 139.715C24.6729 139.717 24.7071 139.717 24.7426 139.719C24.9708 135.004 25.6871 129.674 26.9252 124.118Z" fill="white"/>
<path d="M38.1924 139.027L20.7493 138.861L20.7007 143.996L38.1438 144.162L38.1924 139.027Z" fill="#6C6D6A"/>
<path opacity="0.2" d="M20.7007 143.996L38.0949 149.388L38.1438 144.162L20.7007 143.996Z" fill="black"/>
<path d="M60.205 174.119V176.908C60.205 180.267 58.5322 182.186 55.3067 182.186C52.0809 182.186 50.4082 180.267 50.4082 176.908V165.992C50.4082 162.633 52.0809 160.714 55.3067 160.714C58.5322 160.714 60.205 162.633 60.205 165.992V168.031H57.0986V165.782C57.0986 164.282 56.4419 163.713 55.3964 163.713C54.3508 163.713 53.6941 164.282 53.6941 165.782V177.118C53.6941 178.618 54.3508 179.157 55.3964 179.157C56.4419 179.157 57.0986 178.618 57.0986 177.118V174.119H60.205Z" fill="#AF8900"/>
<path d="M72.8394 181.946H69.524L68.9564 178.138H64.9244L64.3568 181.946H61.3401L64.6853 160.954H69.4942L72.8394 181.946ZM65.3423 175.289H68.5085L66.9254 164.672L65.3423 175.289Z" fill="#AF8900"/>
<path d="M78.7835 160.714C81.9793 160.714 83.6225 162.633 83.6225 165.992V166.652H80.5156V165.782C80.5156 164.282 79.9185 163.713 78.8732 163.713C77.8279 163.713 77.2305 164.282 77.2305 165.782C77.2305 170.101 83.652 170.91 83.652 176.908C83.652 180.267 81.9793 182.186 78.7535 182.186C75.528 182.186 73.8552 180.267 73.8552 176.908V175.619H76.9616V177.118C76.9616 178.618 77.6188 179.157 78.6641 179.157C79.7094 179.157 80.3666 178.618 80.3666 177.118C80.3666 172.8 73.9446 171.99 73.9446 165.992C73.9446 162.633 75.5878 160.714 78.7835 160.714Z" fill="#AF8900"/>
<path d="M85.5339 160.954H88.8193V181.946H85.5339V160.954Z" fill="#AF8900"/>
<path d="M94.1358 166.742V181.946H91.1792V160.954H95.3005L98.6755 173.519V160.954H101.603V181.946H98.2279L94.1358 166.742Z" fill="#AF8900"/>
<path d="M103.694 165.992C103.694 162.633 105.456 160.714 108.682 160.714C111.908 160.714 113.67 162.633 113.67 165.992V176.908C113.67 180.267 111.908 182.186 108.682 182.186C105.456 182.186 103.694 180.267 103.694 176.908V165.992ZM106.979 177.118C106.979 178.618 107.636 179.187 108.682 179.187C109.727 179.187 110.384 178.618 110.384 177.118V165.782C110.384 164.282 109.727 163.713 108.682 163.713C107.636 163.713 106.979 164.282 106.979 165.782V177.118Z" fill="#AF8900"/>
<path d="M120.436 166.658L121.639 169.106L124.33 169.499L122.383 171.404L122.843 174.095L120.436 172.825L118.029 174.095L118.489 171.404L116.542 169.499L119.233 169.106L120.436 166.658Z" fill="#AF8900"/>
<path d="M43.0012 166.658L44.2046 169.106L46.8952 169.499L44.948 171.404L45.4077 174.095L43.0012 172.825L40.5946 174.095L41.0543 171.404L39.1072 169.499L41.7978 169.106L43.0012 166.658Z" fill="#AF8900"/>
<defs>
<linearGradient id="paint0_linear" x1="4.77246" y1="168.05" x2="54.1374" y2="168.05" gradientUnits="userSpaceOnUse">
<stop stop-color="#FFF7AA"/>
<stop offset="0.761905" stop-color="#EBAE8A"/>
<stop offset="0.827724" stop-color="#ECB18B"/>
<stop offset="0.879638" stop-color="#EFBB90"/>
<stop offset="0.926796" stop-color="#F3CC97"/>
<stop offset="0.970885" stop-color="#FAE3A1"/>
<stop offset="1" stop-color="#FFF7AA"/>
</linearGradient>
<linearGradient id="paint1_linear" x1="0.643555" y1="90.5162" x2="50.9516" y2="90.5162" gradientUnits="userSpaceOnUse">
<stop stop-color="#FFB463"/>
<stop offset="0.761905" stop-color="#AB751C"/>
<stop offset="0.824057" stop-color="#AE771F"/>
<stop offset="0.873086" stop-color="#B87F27"/>
<stop offset="0.917631" stop-color="#C98B35"/>
<stop offset="0.959245" stop-color="#E09D49"/>
<stop offset="0.99893" stop-color="#FEB362"/>
<stop offset="1" stop-color="#FFB463"/>
</linearGradient>
<linearGradient id="paint2_linear" x1="44.3323" y1="179.451" x2="126.456" y2="179.451" gradientUnits="userSpaceOnUse">
<stop stop-color="#FFB463"/>
<stop offset="0.761905" stop-color="#AB751C"/>
<stop offset="0.824057" stop-color="#AE771F"/>
<stop offset="0.873086" stop-color="#B87F27"/>
<stop offset="0.917631" stop-color="#C98B35"/>
<stop offset="0.959245" stop-color="#E09D49"/>
<stop offset="0.99893" stop-color="#FEB362"/>
<stop offset="1" stop-color="#FFB463"/>
</linearGradient>
<linearGradient id="paint3_linear" x1="31.2429" y1="214.045" x2="134.2" y2="214.045" gradientUnits="userSpaceOnUse">
<stop stop-color="#FFF7AA"/>
<stop offset="0.761905" stop-color="#EBAE8A"/>
<stop offset="0.827724" stop-color="#ECB18B"/>
<stop offset="0.879638" stop-color="#EFBB90"/>
<stop offset="0.926796" stop-color="#F3CC97"/>
<stop offset="0.970885" stop-color="#FAE3A1"/>
<stop offset="1" stop-color="#FFF7AA"/>
</linearGradient>
<linearGradient id="paint4_linear" x1="43.3347" y1="208.691" x2="125.149" y2="208.691" gradientUnits="userSpaceOnUse">
<stop stop-color="#FFF7AA"/>
<stop offset="0.761905" stop-color="#EBAE8A"/>
<stop offset="0.827724" stop-color="#ECB18B"/>
<stop offset="0.879638" stop-color="#EFBB90"/>
<stop offset="0.926796" stop-color="#F3CC97"/>
<stop offset="0.970885" stop-color="#FAE3A1"/>
<stop offset="1" stop-color="#FFF7AA"/>
</linearGradient>
<linearGradient id="paint5_linear" x1="31.2429" y1="250.157" x2="134.2" y2="250.157" gradientUnits="userSpaceOnUse">
<stop stop-color="#FFB463"/>
<stop offset="0.761905" stop-color="#AB321C"/>
<stop offset="0.813906" stop-color="#AD351E"/>
<stop offset="0.854928" stop-color="#B33F23"/>
<stop offset="0.892198" stop-color="#BE502C"/>
<stop offset="0.927238" stop-color="#CD6739"/>
<stop offset="0.960733" stop-color="#E1864A"/>
<stop offset="0.992642" stop-color="#F9AA5E"/>
<stop offset="1" stop-color="#FFB463"/>
</linearGradient>
<linearGradient id="paint6_linear" x1="33.6572" y1="201.846" x2="130.956" y2="201.846" gradientUnits="userSpaceOnUse">
<stop stop-color="#FFCE7D"/>
<stop offset="0.761905" stop-color="#C55B34"/>
</linearGradient>
<radialGradient id="paint7_radial" cx="0" cy="0" r="1" gradientUnits="userSpaceOnUse" gradientTransform="translate(98.6964 13.5123) rotate(35.0937) scale(29.3106 29.3514)">
<stop stop-color="white"/>
<stop offset="0.280047" stop-color="#E5E5E5"/>
<stop offset="0.463878" stop-color="#D1D1D1"/>
<stop offset="0.622869" stop-color="#CACACA"/>
<stop offset="0.863925" stop-color="#B5B5B5"/>
<stop offset="1" stop-color="#A6A6A6"/>
</radialGradient>
<radialGradient id="paint8_radial" cx="0" cy="0" r="1" gradientUnits="userSpaceOnUse" gradientTransform="translate(66.8497 13.8089) rotate(35.0937) scale(29.3436 29.3844)">
<stop stop-color="white"/>
<stop offset="0.280047" stop-color="#E5E5E5"/>
<stop offset="0.463878" stop-color="#D1D1D1"/>
<stop offset="0.622869" stop-color="#CACACA"/>
<stop offset="0.863925" stop-color="#B5B5B5"/>
<stop offset="1" stop-color="#A6A6A6"/>
</radialGradient>
<radialGradient id="paint9_radial" cx="0" cy="0" r="1" gradientUnits="userSpaceOnUse" gradientTransform="translate(104.861 2.47076) rotate(35.0937) scale(58.2308 58.3117)">
<stop stop-color="white"/>
<stop offset="0.280047" stop-color="#E5E5E5"/>
<stop offset="0.463878" stop-color="#D1D1D1"/>
<stop offset="0.622869" stop-color="#CACACA"/>
<stop offset="0.863925" stop-color="#B5B5B5"/>
<stop offset="1" stop-color="#A6A6A6"/>
</radialGradient>
<radialGradient id="paint10_radial" cx="0" cy="0" r="1" gradientUnits="userSpaceOnUse" gradientTransform="translate(102.218 27.1317) rotate(35.0937) scale(19.5773 19.6045)">
<stop stop-color="white"/>
<stop offset="0.280047" stop-color="#E5E5E5"/>
<stop offset="0.463878" stop-color="#D1D1D1"/>
<stop offset="0.622869" stop-color="#CACACA"/>
<stop offset="0.863925" stop-color="#B5B5B5"/>
<stop offset="1" stop-color="#A6A6A6"/>
</radialGradient>
<linearGradient id="paint11_linear" x1="112.737" y1="3.89952" x2="101.61" y2="15.5408" gradientUnits="userSpaceOnUse">
<stop stop-color="#A6A6A6"/>
<stop offset="0.24553" stop-color="#6F6F6F"/>
<stop offset="0.490956" stop-color="#3F3F3F"/>
<stop offset="0.706595" stop-color="#1D1D1D"/>
<stop offset="0.883651" stop-color="#080808"/>
<stop offset="1"/>
</linearGradient>
<linearGradient id="paint12_linear" x1="109.545" y1="0.847788" x2="98.4177" y2="12.4903" gradientUnits="userSpaceOnUse">
<stop stop-color="#A6A6A6"/>
<stop offset="0.24553" stop-color="#6F6F6F"/>
<stop offset="0.490956" stop-color="#3F3F3F"/>
<stop offset="0.706595" stop-color="#1D1D1D"/>
<stop offset="0.883651" stop-color="#080808"/>
<stop offset="1"/>
</linearGradient>
<linearGradient id="paint13_linear" x1="109.851" y1="1.14265" x2="98.7257" y2="12.7821" gradientUnits="userSpaceOnUse">
<stop stop-color="#A6A6A6"/>
<stop offset="0.24553" stop-color="#6F6F6F"/>
<stop offset="0.490956" stop-color="#3F3F3F"/>
<stop offset="0.706595" stop-color="#1D1D1D"/>
<stop offset="0.883651" stop-color="#080808"/>
<stop offset="1"/>
</linearGradient>
<linearGradient id="paint14_linear" x1="106.621" y1="-1.9497" x2="95.4912" y2="9.69444" gradientUnits="userSpaceOnUse">
<stop stop-color="#A6A6A6"/>
<stop offset="0.24553" stop-color="#6F6F6F"/>
<stop offset="0.490956" stop-color="#3F3F3F"/>
<stop offset="0.706595" stop-color="#1D1D1D"/>
<stop offset="0.883651" stop-color="#080808"/>
<stop offset="1"/>
</linearGradient>
<linearGradient id="paint15_linear" x1="107.501" y1="-1.10352" x2="96.3755" y2="10.5363" gradientUnits="userSpaceOnUse">
<stop stop-color="#A6A6A6"/>
<stop offset="0.24553" stop-color="#6F6F6F"/>
<stop offset="0.490956" stop-color="#3F3F3F"/>
<stop offset="0.706595" stop-color="#1D1D1D"/>
<stop offset="0.883651" stop-color="#080808"/>
<stop offset="1"/>
</linearGradient>
<linearGradient id="paint16_linear" x1="104.306" y1="-4.15909" x2="93.1784" y2="7.48277" gradientUnits="userSpaceOnUse">
<stop stop-color="#A6A6A6"/>
<stop offset="0.24553" stop-color="#6F6F6F"/>
<stop offset="0.490956" stop-color="#3F3F3F"/>
<stop offset="0.706595" stop-color="#1D1D1D"/>
<stop offset="0.883651" stop-color="#080808"/>
<stop offset="1"/>
</linearGradient>
<linearGradient id="paint17_linear" x1="74.3715" y1="19.4527" x2="98.4424" y2="18.3577" gradientUnits="userSpaceOnUse">
<stop stop-color="#A6A6A6"/>
<stop offset="0.24553" stop-color="#6F6F6F"/>
<stop offset="0.490956" stop-color="#3F3F3F"/>
<stop offset="0.706595" stop-color="#1D1D1D"/>
<stop offset="0.883651" stop-color="#080808"/>
<stop offset="1"/>
</linearGradient>
<linearGradient id="paint18_linear" x1="74.0862" y1="13.3001" x2="98.167" y2="12.2046" gradientUnits="userSpaceOnUse">
<stop stop-color="#A6A6A6"/>
<stop offset="0.24553" stop-color="#6F6F6F"/>
<stop offset="0.490956" stop-color="#3F3F3F"/>
<stop offset="0.706595" stop-color="#1D1D1D"/>
<stop offset="0.883651" stop-color="#080808"/>
<stop offset="1"/>
</linearGradient>
<linearGradient id="paint19_linear" x1="74.1112" y1="13.7548" x2="98.1844" y2="12.6596" gradientUnits="userSpaceOnUse">
<stop stop-color="#A6A6A6"/>
<stop offset="0.24553" stop-color="#6F6F6F"/>
<stop offset="0.490956" stop-color="#3F3F3F"/>
<stop offset="0.706595" stop-color="#1D1D1D"/>
<stop offset="0.883651" stop-color="#080808"/>
<stop offset="1"/>
</linearGradient>
<linearGradient id="paint20_linear" x1="73.8556" y1="8.13235" x2="97.9284" y2="7.03723" gradientUnits="userSpaceOnUse">
<stop stop-color="#A6A6A6"/>
<stop offset="0.24553" stop-color="#6F6F6F"/>
<stop offset="0.490956" stop-color="#3F3F3F"/>
<stop offset="0.706595" stop-color="#1D1D1D"/>
<stop offset="0.883651" stop-color="#080808"/>
<stop offset="1"/>
</linearGradient>
<linearGradient id="paint21_linear" x1="74.1366" y1="14.3522" x2="98.212" y2="13.257" gradientUnits="userSpaceOnUse">
<stop stop-color="#A6A6A6"/>
<stop offset="0.24553" stop-color="#6F6F6F"/>
<stop offset="0.490956" stop-color="#3F3F3F"/>
<stop offset="0.706595" stop-color="#1D1D1D"/>
<stop offset="0.883651" stop-color="#080808"/>
<stop offset="1"/>
</linearGradient>
<linearGradient id="paint22_linear" x1="101.174" y1="35.1" x2="92.8478" y2="15.1389" gradientUnits="userSpaceOnUse">
<stop stop-color="#A6A6A6"/>
<stop offset="0.24553" stop-color="#6F6F6F"/>
<stop offset="0.490956" stop-color="#3F3F3F"/>
<stop offset="0.706595" stop-color="#1D1D1D"/>
<stop offset="0.883651" stop-color="#080808"/>
<stop offset="1"/>
</linearGradient>
<linearGradient id="paint23_linear" x1="110.911" y1="31.0417" x2="102.582" y2="11.0755" gradientUnits="userSpaceOnUse">
<stop stop-color="#A6A6A6"/>
<stop offset="0.24553" stop-color="#6F6F6F"/>
<stop offset="0.490956" stop-color="#3F3F3F"/>
<stop offset="0.706595" stop-color="#1D1D1D"/>
<stop offset="0.883651" stop-color="#080808"/>
<stop offset="1"/>
</linearGradient>
<radialGradient id="paint24_radial" cx="0" cy="0" r="1" gradientUnits="userSpaceOnUse" gradientTransform="translate(73.2831 13.4907) rotate(-9.75149) scale(33.2483 33.3763)">
<stop stop-color="white"/>
<stop offset="0.280047" stop-color="#E5E5E5"/>
<stop offset="0.463878" stop-color="#D1D1D1"/>
<stop offset="0.622869" stop-color="#CACACA"/>
<stop offset="0.863925" stop-color="#B5B5B5"/>
<stop offset="1" stop-color="#A6A6A6"/>
</radialGradient>
<radialGradient id="paint25_radial" cx="0" cy="0" r="1" gradientUnits="userSpaceOnUse" gradientTransform="translate(54.4599 35.5733) rotate(-9.75149) scale(27.4963 27.6021)">
<stop stop-color="white"/>
<stop offset="0.280047" stop-color="#E5E5E5"/>
<stop offset="0.463878" stop-color="#D1D1D1"/>
<stop offset="0.622869" stop-color="#CACACA"/>
<stop offset="0.863925" stop-color="#B5B5B5"/>
<stop offset="1" stop-color="#A6A6A6"/>
</radialGradient>
<radialGradient id="paint26_radial" cx="0" cy="0" r="1" gradientUnits="userSpaceOnUse" gradientTransform="translate(71.0137 1.42248) rotate(-9.75149) scale(44.9551 45.1281)">
<stop stop-color="white"/>
<stop offset="0.280047" stop-color="#E5E5E5"/>
<stop offset="0.463878" stop-color="#D1D1D1"/>
<stop offset="0.622869" stop-color="#CACACA"/>
<stop offset="0.863925" stop-color="#B5B5B5"/>
<stop offset="1" stop-color="#A6A6A6"/>
</radialGradient>
<radialGradient id="paint27_radial" cx="0" cy="0" r="1" gradientUnits="userSpaceOnUse" gradientTransform="translate(89.1879 23.4293) rotate(-9.75149) scale(29.1899 29.3023)">
<stop stop-color="white"/>
<stop offset="0.280047" stop-color="#E5E5E5"/>
<stop offset="0.463878" stop-color="#D1D1D1"/>
<stop offset="0.622869" stop-color="#CACACA"/>
<stop offset="0.863925" stop-color="#B5B5B5"/>
<stop offset="1" stop-color="#A6A6A6"/>
</radialGradient>
<linearGradient id="paint28_linear" x1="65.4511" y1="-0.187291" x2="65.5095" y2="10.5216" gradientUnits="userSpaceOnUse">
<stop stop-color="#A6A6A6"/>
<stop offset="0.24553" stop-color="#6F6F6F"/>
<stop offset="0.490956" stop-color="#3F3F3F"/>
<stop offset="0.706595" stop-color="#1D1D1D"/>
<stop offset="0.883651" stop-color="#080808"/>
<stop offset="1"/>
</linearGradient>
<linearGradient id="paint29_linear" x1="72.0283" y1="-0.224704" x2="72.0867" y2="10.4856" gradientUnits="userSpaceOnUse">
<stop stop-color="#A6A6A6"/>
<stop offset="0.24553" stop-color="#6F6F6F"/>
<stop offset="0.490956" stop-color="#3F3F3F"/>
<stop offset="0.706595" stop-color="#1D1D1D"/>
<stop offset="0.883651" stop-color="#080808"/>
<stop offset="1"/>
</linearGradient>
<linearGradient id="paint30_linear" x1="78.6552" y1="-0.260181" x2="78.7136" y2="10.4491" gradientUnits="userSpaceOnUse">
<stop stop-color="#A6A6A6"/>
<stop offset="0.24553" stop-color="#6F6F6F"/>
<stop offset="0.490956" stop-color="#3F3F3F"/>
<stop offset="0.706595" stop-color="#1D1D1D"/>
<stop offset="0.883651" stop-color="#080808"/>
<stop offset="1"/>
</linearGradient>
<linearGradient id="paint31_linear" x1="61.334" y1="27.2339" x2="69.395" y2="17.0852" gradientUnits="userSpaceOnUse">
<stop stop-color="#A6A6A6"/>
<stop offset="0.24553" stop-color="#6F6F6F"/>
<stop offset="0.490956" stop-color="#3F3F3F"/>
<stop offset="0.706595" stop-color="#1D1D1D"/>
<stop offset="0.883651" stop-color="#080808"/>
<stop offset="1"/>
</linearGradient>
<linearGradient id="paint32_linear" x1="92.7663" y1="28.9971" x2="69.4998" y2="18.4382" gradientUnits="userSpaceOnUse">
<stop stop-color="#A6A6A6"/>
<stop offset="0.24553" stop-color="#6F6F6F"/>
<stop offset="0.490956" stop-color="#3F3F3F"/>
<stop offset="0.706595" stop-color="#1D1D1D"/>
<stop offset="0.883651" stop-color="#080808"/>
<stop offset="1"/>
</linearGradient>
<linearGradient id="paint33_linear" x1="95.1848" y1="23.6682" x2="71.9179" y2="13.1091" gradientUnits="userSpaceOnUse">
<stop stop-color="#A6A6A6"/>
<stop offset="0.24553" stop-color="#6F6F6F"/>
<stop offset="0.490956" stop-color="#3F3F3F"/>
<stop offset="0.706595" stop-color="#1D1D1D"/>
<stop offset="0.883651" stop-color="#080808"/>
<stop offset="1"/>
</linearGradient>
<linearGradient id="paint34_linear" x1="97.1149" y1="19.4164" x2="73.847" y2="8.85686" gradientUnits="userSpaceOnUse">
<stop stop-color="#A6A6A6"/>
<stop offset="0.24553" stop-color="#6F6F6F"/>
<stop offset="0.490956" stop-color="#3F3F3F"/>
<stop offset="0.706595" stop-color="#1D1D1D"/>
<stop offset="0.883651" stop-color="#080808"/>
<stop offset="1"/>
</linearGradient>
<linearGradient id="paint35_linear" x1="94.6434" y1="24.8541" x2="71.3807" y2="14.2969" gradientUnits="userSpaceOnUse">
<stop stop-color="#A6A6A6"/>
<stop offset="0.24553" stop-color="#6F6F6F"/>
<stop offset="0.490956" stop-color="#3F3F3F"/>
<stop offset="0.706595" stop-color="#1D1D1D"/>
<stop offset="0.883651" stop-color="#080808"/>
<stop offset="1"/>
</linearGradient>
<linearGradient id="paint36_linear" x1="37.9902" y1="56.9209" x2="130.91" y2="56.9209" gradientUnits="userSpaceOnUse">
<stop stop-color="#FFB463"/>
<stop offset="0.761905" stop-color="#AB751C"/>
<stop offset="0.824057" stop-color="#AE771F"/>
<stop offset="0.873086" stop-color="#B87F27"/>
<stop offset="0.917631" stop-color="#C98B35"/>
<stop offset="0.959245" stop-color="#E09D49"/>
<stop offset="0.99893" stop-color="#FEB362"/>
<stop offset="1" stop-color="#FFB463"/>
</linearGradient>
<linearGradient id="paint37_linear" x1="47.9099" y1="26.6846" x2="120.992" y2="26.6846" gradientUnits="userSpaceOnUse">
<stop stop-color="#FFB463"/>
<stop offset="0.761905" stop-color="#AB751C"/>
<stop offset="0.824057" stop-color="#AE771F"/>
<stop offset="0.873086" stop-color="#B87F27"/>
<stop offset="0.917631" stop-color="#C98B35"/>
<stop offset="0.959245" stop-color="#E09D49"/>
<stop offset="0.99893" stop-color="#FEB362"/>
<stop offset="1" stop-color="#FFB463"/>
</linearGradient>
<linearGradient id="paint38_linear" x1="41.4924" y1="37.0209" x2="127.409" y2="37.0209" gradientUnits="userSpaceOnUse">
<stop stop-color="#FFB463"/>
<stop offset="0.761905" stop-color="#AB751C"/>
<stop offset="0.824057" stop-color="#AE771F"/>
<stop offset="0.873086" stop-color="#B87F27"/>
<stop offset="0.917631" stop-color="#C98B35"/>
<stop offset="0.959245" stop-color="#E09D49"/>
<stop offset="0.99893" stop-color="#FEB362"/>
<stop offset="1" stop-color="#FFB463"/>
</linearGradient>
<linearGradient id="paint39_linear" x1="46.0142" y1="42.6049" x2="122.888" y2="42.6049" gradientUnits="userSpaceOnUse">
<stop stop-color="#FFB463"/>
<stop offset="0.761905" stop-color="#AB751C"/>
<stop offset="0.824057" stop-color="#AE771F"/>
<stop offset="0.873086" stop-color="#B87F27"/>
<stop offset="0.917631" stop-color="#C98B35"/>
<stop offset="0.959245" stop-color="#E09D49"/>
<stop offset="0.99893" stop-color="#FEB362"/>
<stop offset="1" stop-color="#FFB463"/>
</linearGradient>
<linearGradient id="paint40_linear" x1="49.5146" y1="49.0208" x2="119.387" y2="49.0208" gradientUnits="userSpaceOnUse">
<stop stop-color="#FFB463"/>
<stop offset="0.761905" stop-color="#AB751C"/>
<stop offset="0.824057" stop-color="#AE771F"/>
<stop offset="0.873086" stop-color="#B87F27"/>
<stop offset="0.917631" stop-color="#C98B35"/>
<stop offset="0.959245" stop-color="#E09D49"/>
<stop offset="0.99893" stop-color="#FEB362"/>
<stop offset="1" stop-color="#FFB463"/>
</linearGradient>
<linearGradient id="paint41_linear" x1="33.6152" y1="31.7343" x2="135.287" y2="31.7343" gradientUnits="userSpaceOnUse">
<stop stop-color="#FFEC90"/>
<stop offset="0.761905" stop-color="#D18166"/>
<stop offset="0.818209" stop-color="#D28467"/>
<stop offset="0.862618" stop-color="#D78E6B"/>
<stop offset="0.90297" stop-color="#DE9F72"/>
<stop offset="0.940919" stop-color="#E8B67B"/>
<stop offset="0.976852" stop-color="#F5D487"/>
<stop offset="1" stop-color="#FFEC90"/>
</linearGradient>
<linearGradient id="paint42_linear" x1="83.0321" y1="198.215" x2="83.0321" y2="149.871" gradientUnits="userSpaceOnUse">
<stop stop-color="#EA5321"/>
<stop offset="1" stop-color="#CE8A00"/>
</linearGradient>
<linearGradient id="paint43_linear" x1="83.0327" y1="138.924" x2="83.0327" y2="201.663" gradientUnits="userSpaceOnUse">
<stop stop-color="#EA5321"/>
<stop offset="1" stop-color="#990000"/>
</linearGradient>
<linearGradient id="paint44_linear" x1="83.0319" y1="152.203" x2="83.0319" y2="194.837" gradientUnits="userSpaceOnUse">
<stop stop-color="#990000"/>
<stop offset="0.21243" stop-color="#920000"/>
<stop offset="0.514741" stop-color="#800000"/>
<stop offset="0.869345" stop-color="#610000"/>
<stop offset="1" stop-color="#540000"/>
</linearGradient>
</defs>
</svg>
