<svg width="214" height="147" viewBox="0 0 214 147" fill="none" xmlns="http://www.w3.org/2000/svg">
<rect width="213.967" height="146.848" fill="black" fill-opacity="0"/>
<rect width="213.967" height="146.848" fill="black" fill-opacity="0"/>
<path opacity="0.3" d="M106.691 146.848C165.615 146.848 213.382 144.355 213.382 141.28C213.382 138.205 165.615 135.712 106.691 135.712C47.7671 135.712 0 138.205 0 141.28C0 144.355 47.7671 146.848 106.691 146.848Z" fill="black"/>
<rect width="208.866" height="144.413" fill="black" fill-opacity="0" transform="translate(5.10046)"/>
<rect width="26.4915" height="44.9826" fill="black" fill-opacity="0" transform="translate(5.10046 97.1306)"/>
<rect width="17.8945" height="43.181" fill="black" fill-opacity="0" transform="translate(13.6975 97.1306)"/>
<path d="M15.6839 124.091C14.144 123.722 13.351 121.791 13.8427 120.286C14.3353 118.782 15.7808 117.749 17.3013 117.309C16.4951 116.085 15.6514 114.705 15.8899 113.259C16.1085 111.923 17.8219 110.895 18.863 111.596C17.6539 110.573 16.8051 108.984 17.2156 107.47C17.6123 106.007 19.5662 105.114 20.7706 105.876C19.6169 104.825 19.4911 102.761 20.6316 101.656C21.8822 100.445 24.2547 100.777 25.1238 102.286C24.4809 101.288 23.9624 100.21 23.586 99.0844C23.416 98.5799 23.2866 97.9833 23.5946 97.5475C24.0619 96.883 25.0994 97.1231 25.8163 97.5074C28.1415 98.752 30.0197 100.811 31.0456 103.239L31.592 136.741C31.4287 137.513 30.5804 137.949 29.795 138.039C29.0106 138.129 28.2065 137.987 27.4292 138.128C26.8006 138.242 26.2222 138.535 25.6524 138.826C24.0441 139.645 22.313 140.489 20.519 140.279C18.725 140.071 17.003 138.305 17.553 136.586C15.1298 135.154 14.621 131.329 16.5854 129.312C15.5327 128.648 14.4104 127.896 14.0081 126.718C13.6078 125.542 14.451 123.922 15.6839 124.091Z" fill="#79A958"/>
<rect width="23.2059" height="21.2161" fill="black" fill-opacity="0" transform="translate(5.10046 120.897)"/>
<path d="M10.5067 138.885C10.2211 138.807 9.93039 138.745 9.64627 138.661C8.17747 138.225 6.65844 137.646 5.69954 136.452C5.38853 136.067 5.14195 135.611 5.10542 135.116C4.98873 133.516 6.95525 132.629 8.55799 132.53C11.0364 132.378 13.5413 133.002 15.694 134.235C14.1201 132.89 12.7574 131.3 11.6899 129.527C11.5174 129.241 11.3571 128.858 11.5661 128.598C11.7589 128.357 12.1323 128.397 12.4322 128.471C16.006 129.344 19.2201 131.609 21.2409 134.683C19.3074 132.115 17.6016 129.376 16.1541 126.507C15.7163 125.64 15.3003 124.609 15.7234 123.736C19.0177 125.114 21.7356 127.813 23.1374 131.096C22.1273 128.918 21.4469 126.589 21.1257 124.211C21.0293 123.49 20.969 122.735 21.2323 122.057C21.4966 121.38 22.1765 120.812 22.8969 120.908C23.4367 120.98 23.8634 121.388 24.2277 121.792C27.2927 125.198 28.7736 129.972 28.176 134.513L28.0339 141.109C27.1907 141.771 26.043 141.851 24.9725 141.904C18.2962 142.236 11.3439 142.52 5.21247 139.861C6.91161 139.179 8.69294 138.905 10.5067 138.885Z" fill="#579326"/>
<rect width="204.451" height="144.413" fill="black" fill-opacity="0" transform="translate(8.93082)"/>
<rect width="204.451" height="144.413" fill="black" fill-opacity="0" transform="translate(8.93082)"/>
<rect width="28.0259" height="37.5299" fill="black" fill-opacity="0" transform="translate(99.8334 1.83496)"/>
<rect width="26.9924" height="14.712" fill="black" fill-opacity="0" transform="translate(99.8334 1.83496)"/>
<path d="M99.8334 16.0138C105.946 16.1355 112.057 16.2564 118.167 16.3779C121.054 16.4341 123.94 16.4907 126.826 16.547C126.826 16.547 126.717 16.4493 126.515 16.2531C125.407 15.1753 121.676 11.1353 120.407 4.52063C120.269 3.87108 120.174 3.20277 120.105 2.5086C120.095 2.46727 120.094 2.45003 120.094 2.45003C118.843 2.38639 117.591 2.32352 116.34 2.26064C115.681 2.22413 115.023 2.18864 114.365 2.15213C112.272 2.04666 110.179 1.94094 108.086 1.83496C108.086 1.83496 107.35 6.7038 104.886 10.9198C104.621 11.3731 104.336 11.8097 104.035 12.2387C104.036 12.2473 104.028 12.2473 104.028 12.2473C103.44 13.0698 102.782 13.8446 102.029 14.505C101.97 14.5575 101.935 14.5854 101.935 14.5854C101.301 15.1467 100.6 15.634 99.8334 16.0138Z" fill="#432739"/>
<rect width="17.0878" height="20.9816" fill="black" fill-opacity="0" transform="translate(104.781 18.3833)"/>
<path d="M104.781 39.3649C105.984 39.3467 107.187 39.3287 108.39 39.3104C111.285 39.2719 114.181 39.2328 117.076 39.194C117.442 39.1877 117.807 39.1814 118.172 39.175C119.404 39.1588 120.636 39.1423 121.868 39.1258C121.698 32.2117 121.525 25.2974 121.352 18.3833C120.325 18.3967 119.297 18.4097 118.269 18.4229C116.412 18.4447 114.554 18.4665 112.697 18.4878C110.159 18.52 107.621 18.5516 105.083 18.5833C105.082 18.6115 105.08 18.6401 105.079 18.6683C104.977 25.5669 104.879 32.466 104.781 39.3649Z" fill="#A6583C"/>
<rect width="28.0259" height="2.77542" fill="black" fill-opacity="0" transform="translate(99.8334 16.0139)"/>
<path d="M99.8334 16.0139C99.8872 16.9393 99.9405 17.8642 99.9948 18.7893C101.689 18.749 103.384 18.7085 105.08 18.6684C107.618 18.6086 110.158 18.5482 112.697 18.4879C114.553 18.4438 116.409 18.3997 118.266 18.3555C121.226 18.2866 124.186 18.2176 127.146 18.1489C127.384 17.5214 127.621 16.8942 127.859 16.2669C127.411 16.2624 126.963 16.2578 126.515 16.2533C123.729 16.2299 120.944 16.2066 118.158 16.1835C112.05 16.127 105.942 16.0707 99.8334 16.0139Z" fill="#291823"/>
<path d="M108.39 39.3103C108.391 39.3164 108.391 39.322 108.391 39.3276C111.444 39.3103 114.498 39.2936 117.551 39.2771C117.759 39.2771 117.968 39.2763 118.177 39.2763C117.946 34.6088 117.715 29.9413 117.482 25.2737C117.482 25.2737 117.785 19.9475 112.574 20.1584C107.362 20.3699 108.133 25.6535 108.133 25.6535C108.219 30.206 108.304 34.7579 108.39 39.3103Z" fill="#E3ECEB"/>
<rect width="7.0041" height="16.5155" fill="black" fill-opacity="0" transform="translate(109.58 22.6274)"/>
<path d="M116.584 38.878C116.431 35.8153 116.276 32.7524 116.122 29.6897C115.371 29.7201 114.62 29.7508 113.868 29.7815C114.021 32.7503 114.173 35.7197 114.326 38.6888C115.079 38.752 115.831 38.8148 116.584 38.878Z" fill="#8F9384"/>
<path d="M112.224 39.0562C112.143 35.8526 112.062 32.649 111.981 29.4453C111.18 29.4775 110.38 29.5102 109.58 29.5427C109.751 32.7428 109.921 35.9431 110.091 39.1429C110.802 39.114 111.513 39.0851 112.224 39.0562Z" fill="#8F9384"/>
<path d="M113.66 22.6274C113.695 24.353 113.731 26.0783 113.767 27.8038C114.518 27.7731 115.27 27.7427 116.022 27.7118C116.022 27.7118 116.471 23.2192 113.66 22.6274Z" fill="#8F9384"/>
<path d="M112.282 27.8644C112.172 26.1404 112.06 24.4169 111.949 22.6929C111.949 22.6929 109.723 23.2582 109.974 27.958C110.744 27.9268 111.513 27.8954 112.282 27.8644Z" fill="#8F9384"/>
<rect width="19.1827" height="37.125" fill="black" fill-opacity="0" transform="translate(108.677 2.1521)"/>
<g opacity="0.22">
<rect width="13.4947" height="16.2033" fill="black" fill-opacity="0" transform="translate(114.365 2.1521)"/>
<path opacity="0.22" d="M118.266 18.3554C121.226 18.2864 124.186 18.2175 127.146 18.1487C127.384 17.5213 127.621 16.894 127.859 16.2668C127.411 16.2622 126.963 16.2576 126.515 16.2531C125.407 15.1753 121.676 11.1353 120.407 4.5206C120.35 3.74023 120.152 2.75323 120.105 2.50857C120.095 2.46724 120.094 2.45 120.094 2.45C118.843 2.38636 117.591 2.32349 116.34 2.26061C115.681 2.2241 115.023 2.18861 114.365 2.1521C114.457 3.24635 114.72 5.79486 115.346 8.54974C115.641 9.83059 116.015 11.1505 116.484 12.3908C116.938 13.5877 117.479 14.7136 118.131 15.6573C118.176 16.5563 118.221 17.4561 118.266 18.3554Z" fill="#0A1C44"/>
</g>
<g opacity="0.22">
<rect width="13.1918" height="20.8939" fill="black" fill-opacity="0" transform="translate(108.677 18.3833)"/>
<path opacity="0.22" d="M108.677 18.8962C109.977 19.3173 111.275 19.7377 112.574 20.1585C113.162 26.3341 113.746 32.5096 114.325 38.6849C115.242 38.8545 116.16 39.0244 117.077 39.194C117.235 39.2217 117.393 39.2493 117.551 39.2772C117.759 39.2772 117.968 39.2764 118.177 39.2764C118.175 39.2425 118.173 39.209 118.172 39.175C119.404 39.1588 120.636 39.1423 121.868 39.1258C121.698 32.2117 121.526 25.2974 121.352 18.3833C120.325 18.3967 119.297 18.4097 118.269 18.4229C118.271 18.4515 118.272 18.4796 118.273 18.5078C115.074 18.6376 111.875 18.7666 108.677 18.8962Z" fill="#0A1C44"/>
</g>
<rect width="191.789" height="144.413" fill="black" fill-opacity="0" transform="translate(21.5924)"/>
<rect width="191.789" height="144.413" fill="black" fill-opacity="0" transform="translate(21.5924)"/>
<rect width="191.789" height="144.413" fill="black" fill-opacity="0" transform="translate(21.5924)"/>
<rect width="43.6585" height="29.6045" fill="black" fill-opacity="0" transform="translate(35.6068 112.905)"/>
<path d="M65.6503 117.823C64.5691 115.435 62.5686 113.188 59.9588 112.923C57.3479 112.657 54.5874 115.387 55.6203 117.798C53.7741 116.424 50.8989 116.705 49.3519 118.407C47.805 120.111 47.801 122.995 49.3459 124.702C45.1191 124.529 41.391 129.031 42.3494 133.149C40.1465 133.487 37.8634 134.285 36.5224 136.061C35.1794 137.84 35.2545 140.785 37.1424 141.968C38.8842 143.061 41.1348 142.264 43.0927 141.631C54.6457 137.909 67.351 141.088 79.2652 138.763L65.6503 117.823Z" fill="#319A00"/>
<rect width="26.3965" height="33.0378" fill="black" fill-opacity="0" transform="translate(42.958 91.5818)"/>
<path d="M63.0212 102.091C60.8051 97.65 57.011 94.0153 52.4768 91.9911C51.7254 91.657 50.8238 91.3728 50.1156 91.7903C49.2236 92.3154 49.2069 93.5995 49.454 94.604C50.0126 96.8848 51.3652 98.9613 53.2262 100.393C51.1587 98.6814 47.9502 98.5191 45.7218 100.015C44.9877 100.509 44.3094 101.3 44.4418 102.175C44.5199 102.686 44.8639 103.113 45.2175 103.49C46.4438 104.793 47.9669 105.818 49.6371 106.461C47.4651 106.249 45.215 107.061 43.6797 108.611C43.3134 108.982 42.9694 109.432 42.9583 109.953C42.9405 110.833 43.8335 111.425 44.6356 111.793C46.4367 112.618 48.3444 113.21 50.2987 113.545C48.3195 114.017 46.5605 115.349 45.5717 117.126C45.3078 117.6 45.0917 118.139 45.1911 118.673C45.4053 119.818 46.837 120.214 48.0009 120.27C50.8949 120.411 53.8188 119.915 56.5047 118.826C55.8208 119.552 55.1206 120.303 54.7655 121.235C54.4114 122.167 54.4839 123.335 55.2089 124.021C56.1034 124.867 57.5351 124.667 58.7193 124.325C62.6909 123.178 66.3758 121.051 69.3545 118.184L63.0212 102.091Z" fill="#6EBA00"/>
<rect width="163.721" height="141.095" fill="black" fill-opacity="0" transform="translate(49.6609)"/>
<path d="M138.728 72.498H120.709V98.9448H138.728V72.498Z" fill="#BB833B"/>
<rect width="149.156" height="84.4447" fill="black" fill-opacity="0" transform="translate(59.3601 7.78247)"/>
<path d="M168.067 7.78247C168.067 7.78247 140.949 38.665 130.54 50.4814C117.498 41.9417 108.433 35.2211 95.8629 26.0026C83.1449 34.9412 59.4884 52.102 59.3687 52.4707C59.2149 52.9435 61.1759 80.4959 61.9125 91.8871C132.71 95.234 150.362 72.714 205.385 74.9425C206.256 65.8377 207.3 56.7475 208.516 47.6809C194.501 37.5683 168.067 7.78247 168.067 7.78247Z" fill="#BB833B"/>
<path d="M139.889 84.5208H204.617C204.926 81.0005 205.282 77.554 205.685 74.2206C203.882 74.0819 200.605 73.9683 196.375 73.8907C188.72 73.752 177.97 73.7257 167.307 73.7949C153.757 73.8824 140.372 74.1415 133.712 74.5656C133.957 79.0019 134.19 83.4296 134.432 87.866C111.945 89.4515 84.4286 90.7687 61.9146 91.8862C60.5878 107.68 63.2581 124.802 61.9318 140.604C63.8228 140.648 65.7122 140.683 67.601 140.708C86.7604 141.073 105.92 141.177 125.079 141.021C130.558 140.983 136.036 140.916 141.514 140.833L139.889 84.5208Z" fill="#A6583C"/>
<rect width="159.221" height="56.824" fill="black" fill-opacity="0" transform="translate(54.1602)"/>
<path d="M210.776 52.2242C196.761 42.1115 168.067 7.78269 168.067 7.78269C168.067 7.78269 140.949 38.6653 130.54 50.4817C117.498 41.9419 108.433 35.2213 95.8629 26.0028C83.145 34.9414 54.2799 56.4551 54.1602 56.824V49.2731L95.0653 19.3238L129.752 43.8028L167.562 0L213.382 45.7989L210.776 52.2242Z" fill="#432739"/>
<path d="M54.2631 107.042V114.865L58.2839 117.566L58.9831 135.712L55.4087 141.095L57.7598 140.542L60.6091 136.54V115.913L58.2839 111.693L59.5072 107.426L54.2631 107.042Z" fill="#8E8298"/>
<rect width="5.49529" height="1.19228" fill="black" fill-opacity="0" transform="translate(57.5732 119.026)"/>
<path d="M63.0678 119.491C63.1013 119.814 61.877 120.205 60.3271 120.217C58.7776 120.233 57.5462 119.867 57.5736 119.541C57.6 119.211 58.8273 119.042 60.3159 119.026C61.806 119.014 63.0348 119.161 63.0678 119.491Z" fill="#543A4A"/>
<rect width="5.49529" height="1.19339" fill="black" fill-opacity="0" transform="translate(57.5732 126.513)"/>
<path d="M63.0678 126.978C63.1013 127.304 61.877 127.692 60.3271 127.706C58.7776 127.721 57.5462 127.354 57.5736 127.03C57.6 126.698 58.8273 126.53 60.3159 126.514C61.806 126.503 63.0348 126.648 63.0678 126.978Z" fill="#543A4A"/>
<rect width="5.49529" height="1.19311" fill="black" fill-opacity="0" transform="translate(57.5732 134.002)"/>
<path d="M63.0678 134.469C63.1013 134.791 61.877 135.182 60.3271 135.195C58.7776 135.21 57.5462 134.844 57.5736 134.518C57.6 134.187 58.8273 134.018 60.3159 134.003C61.806 133.992 63.0348 134.137 63.0678 134.469Z" fill="#543A4A"/>
<rect width="57.8854" height="32.2255" fill="black" fill-opacity="0" transform="translate(67.6011 108.86)"/>
<rect width="27.6982" height="31.0114" fill="black" fill-opacity="0" transform="translate(67.6011 110.039)"/>
<path d="M95.2008 139.408C94.9857 135.273 94.8751 130.728 94.8614 125.973C94.8548 120.201 94.9187 114.79 94.9948 110.039C80.5123 110.54 67.7751 110.929 67.7751 110.929C67.7751 110.929 67.7573 129.004 67.6011 140.708C76.835 140.884 86.0663 140.997 95.2992 141.051C95.2647 140.511 95.2307 139.964 95.2008 139.408Z" fill="#543A4A"/>
<rect width="26.2725" height="32.2255" fill="black" fill-opacity="0" transform="translate(99.2139 108.86)"/>
<path d="M99.2139 109.891C99.4884 114.699 99.6224 120.172 99.6289 125.957C99.6112 131.377 99.5955 136.498 99.5807 141.067C108.08 141.099 116.579 141.091 125.079 141.021C125.218 130.295 125.347 119.577 125.486 108.86C118.378 109.188 108.654 109.557 99.2139 109.891Z" fill="#543A4A"/>
<rect width="22.9021" height="25.6436" fill="black" fill-opacity="0" transform="translate(69.9993 112.723)"/>
<rect width="22.4556" height="5.97627" fill="black" fill-opacity="0" transform="translate(70.0967 121.495)"/>
<path d="M92.5524 127.472C92.5483 126.948 92.5417 126.43 92.5392 125.9C92.5382 124.468 92.5422 123.068 92.5493 121.695C86.0881 121.645 80.2936 121.601 75.6031 121.564C73.5351 121.543 71.7005 121.52 70.1216 121.495C70.115 123.161 70.1079 124.98 70.0967 126.857C71.9034 126.878 74.183 126.923 76.8522 126.989C81.1947 127.096 86.561 127.26 92.5524 127.472Z" fill="#432739"/>
<rect width="22.9021" height="4.67497" fill="black" fill-opacity="0" transform="translate(69.9993 133.692)"/>
<path d="M92.6928 134.058C91.7284 134.022 90.7598 133.986 89.8253 133.95C84.5132 133.796 79.7283 133.699 75.7101 133.702C73.7015 133.673 71.8846 133.716 70.288 133.721C70.2042 133.721 70.1297 133.723 70.0465 133.723C70.0328 135.244 70.017 136.717 69.9993 138.084C77.634 138.229 85.2672 138.323 92.9014 138.367C92.8719 137.921 92.8456 137.469 92.8202 137.008C92.7715 136.053 92.7294 135.065 92.6928 134.058Z" fill="#432739"/>
<rect width="22.4592" height="3.20516" fill="black" fill-opacity="0" transform="translate(70.1241 117.65)"/>
<path d="M75.7639 118.104C73.5919 118.099 71.7 118.037 70.1328 117.949C70.1312 118.827 70.1277 119.808 70.1241 120.855C71.7005 120.807 73.5336 120.762 75.6006 120.722C80.2601 120.629 86.0673 120.566 92.5559 120.556C92.5635 119.567 92.5732 118.598 92.5833 117.65C90.7645 117.709 88.9826 117.771 87.2835 117.832C82.9577 117.993 79.0496 118.119 75.7639 118.104Z" fill="#432739"/>
<rect width="22.516" height="4.62342" fill="black" fill-opacity="0" transform="translate(70.1343 112.723)"/>
<path d="M75.7543 117.26C79.0212 117.169 82.9076 116.957 87.2363 116.735C88.9527 116.649 90.7559 116.569 92.5966 116.492C92.6133 115.192 92.6306 113.928 92.6503 112.723C80.6742 113.137 70.1425 113.459 70.1425 113.459C70.1425 113.459 70.1409 114.975 70.1343 117.347C71.699 117.347 73.5849 117.328 75.7543 117.26Z" fill="#432739"/>
<rect width="22.6038" height="5.64364" fill="black" fill-opacity="0" transform="translate(70.0536 127.422)"/>
<path d="M75.7016 132.859C79.73 132.75 84.5286 132.759 89.8528 132.852C90.7711 132.871 91.7097 132.894 92.6574 132.917C92.6148 131.514 92.5813 130.082 92.5631 128.607C86.5514 128.338 81.1724 128.072 76.8223 127.831C74.1663 127.684 71.8943 127.546 70.0937 127.422C70.0821 129.294 70.0689 131.208 70.0536 133.066C70.1257 133.063 70.1937 133.059 70.2688 133.056C71.8664 132.986 73.6878 132.885 75.7016 132.859Z" fill="#432739"/>
<rect width="22.7692" height="26.5577" fill="black" fill-opacity="0" transform="translate(100.966 111.693)"/>
<rect width="22.4759" height="3.94953" fill="black" fill-opacity="0" transform="translate(101.188 116.968)"/>
<path d="M101.188 117.392C101.223 118.429 101.25 119.491 101.273 120.575C102.162 120.58 103.056 120.586 103.958 120.593C111.101 120.651 117.804 120.77 123.612 120.917C123.628 119.601 123.646 118.285 123.663 116.968C117.515 117.045 109.776 117.162 101.358 117.386C101.301 117.389 101.246 117.39 101.188 117.392Z" fill="#432739"/>
<rect width="22.1913" height="5.03617" fill="black" fill-opacity="0" transform="translate(101.301 128.984)"/>
<path d="M123.437 134.02C123.455 132.612 123.474 131.204 123.492 129.796C117.827 129.619 111.279 129.384 104.296 129.106C103.292 129.064 102.3 129.024 101.315 128.984C101.31 130.424 101.306 131.819 101.301 133.186C103.22 133.255 105.174 133.331 107.161 133.412C112.91 133.645 118.396 133.861 123.437 134.02Z" fill="#432739"/>
<rect width="22.3039" height="6.99522" fill="black" fill-opacity="0" transform="translate(101.294 121.764)"/>
<path d="M104.344 127.915C111.315 128.194 117.852 128.485 123.506 128.759C123.537 126.49 123.567 124.221 123.597 121.95C117.778 121.902 111.084 121.845 103.948 121.783C103.056 121.778 102.171 121.771 101.294 121.764C101.313 123.078 101.324 124.419 101.326 125.783C101.324 126.463 101.322 127.127 101.319 127.796C102.319 127.834 103.324 127.873 104.344 127.915Z" fill="#432739"/>
<rect width="22.7692" height="4.50857" fill="black" fill-opacity="0" transform="translate(100.966 111.693)"/>
<path d="M101.328 116.197C109.761 115.971 117.519 115.949 123.677 116.031C123.696 114.586 123.715 113.139 123.735 111.693C117.575 111.965 109.147 112.268 100.966 112.543C101.036 113.716 101.095 114.941 101.143 116.201C101.206 116.2 101.266 116.198 101.328 116.197Z" fill="#432739"/>
<rect width="22.138" height="3.86858" fill="black" fill-opacity="0" transform="translate(101.283 134.382)"/>
<path d="M107.112 134.603C105.137 134.528 103.204 134.454 101.296 134.382C101.294 135.705 101.288 137.002 101.283 138.235C108.65 138.264 116.016 138.254 123.381 138.199C123.395 137.174 123.408 136.152 123.421 135.128C118.367 135.021 112.867 134.834 107.112 134.603Z" fill="#432739"/>
<path d="M130.902 68.6465L131.502 76.7823H206.867V68.6465H130.902Z" fill="#432739"/>
<path d="M125.497 68.6465L125.576 89.7896H135.567V68.6465H125.497Z" fill="#432739"/>
<path d="M59.36 85.6365V95.5331L128.617 92.6677V84.074L59.36 85.6365Z" fill="#432739"/>
<rect width="17.9889" height="0.458781" fill="black" fill-opacity="0" transform="translate(84.5945 37.145)"/>
<rect width="17.9889" height="0.458781" fill="black" fill-opacity="0" transform="translate(84.5945 37.145)"/>
<rect width="17.9889" height="0.458781" fill="black" fill-opacity="0" transform="translate(84.5945 37.145)"/>
<rect width="17.9889" height="0.458781" fill="black" fill-opacity="0" transform="translate(84.5945 37.145)"/>
<path d="M102.583 37.5396C102.582 37.5642 102.33 37.5817 101.874 37.5921C101.418 37.6025 100.76 37.6059 99.9461 37.6025C98.3187 37.5957 96.0724 37.5617 93.5914 37.502C91.1074 37.5199 88.8583 37.5161 87.2302 37.4955C86.4161 37.4853 85.7573 37.4707 85.302 37.4527C84.8466 37.4346 84.5947 37.4129 84.5945 37.3883C84.5942 37.3637 84.8459 37.3383 85.301 37.3137C85.7558 37.2892 86.4144 37.2651 87.2282 37.2431C88.856 37.1991 91.1046 37.1629 93.5887 37.145C96.0745 37.2047 98.3248 37.2788 99.9524 37.3501C100.766 37.3859 101.425 37.421 101.879 37.4532C102.334 37.4855 102.584 37.5151 102.583 37.5396Z" fill="#AD6E1F"/>
<rect width="29.9107" height="0.5058" fill="black" fill-opacity="0" transform="translate(79.6061 44.4358)"/>
<rect width="29.9107" height="0.5058" fill="black" fill-opacity="0" transform="translate(79.6061 44.4358)"/>
<rect width="29.9107" height="0.5058" fill="black" fill-opacity="0" transform="translate(79.6061 44.4358)"/>
<rect width="29.9107" height="0.5058" fill="black" fill-opacity="0" transform="translate(79.6061 44.4358)"/>
<path d="M109.517 44.4888C109.518 44.5134 109.1 44.5446 108.344 44.5798C107.587 44.615 106.493 44.6543 105.139 44.6953C102.433 44.7773 98.6919 44.8659 94.56 44.9416C90.4301 44.8911 86.6914 44.8253 83.9851 44.7599C82.632 44.7271 81.5371 44.6945 80.7807 44.664C80.0242 44.6333 79.6059 44.6046 79.6061 44.5801C79.6064 44.5555 80.0252 44.5371 80.7822 44.525C81.5394 44.5129 82.6348 44.507 83.9882 44.5075C86.6952 44.5083 90.4344 44.5342 94.5643 44.5847C98.6916 44.5089 102.428 44.4603 105.134 44.4429C106.487 44.4343 107.582 44.4334 108.34 44.4409C109.097 44.4483 109.516 44.4642 109.517 44.4888Z" fill="#AD6E1F"/>
<rect width="25.3587" height="0.589141" fill="black" fill-opacity="0" transform="translate(89.1475 40.8516)"/>
<rect width="25.3587" height="0.589141" fill="black" fill-opacity="0" transform="translate(89.1475 40.8516)"/>
<rect width="25.3587" height="0.589141" fill="black" fill-opacity="0" transform="translate(89.1475 40.8516)"/>
<rect width="25.3587" height="0.589141" fill="black" fill-opacity="0" transform="translate(89.1475 40.8516)"/>
<path d="M114.506 41.4125C114.505 41.4371 114.149 41.4451 113.507 41.4385C112.864 41.4319 111.936 41.4107 110.789 41.377C108.497 41.275 105.327 41.2718 101.827 41.2085C98.3289 41.2477 95.1607 41.2288 92.8649 41.3153C91.7175 41.3413 90.7885 41.356 90.1462 41.3582C89.5039 41.3604 89.1485 41.3499 89.1475 41.3253C89.1464 41.3007 89.5003 41.2642 90.1411 41.2193C90.7817 41.1744 91.7094 41.1212 92.8557 41.063C95.1465 40.9122 98.322 40.8907 101.828 40.8516C105.333 40.9148 108.507 40.958 110.799 41.1247C111.946 41.1909 112.874 41.2505 113.514 41.2998C114.154 41.349 114.508 41.3879 114.506 41.4125Z" fill="#AD6E1F"/>
<rect width="29.9102" height="0.950505" fill="black" fill-opacity="0" transform="translate(65.3042 50.1321)"/>
<rect width="29.9102" height="0.950505" fill="black" fill-opacity="0" transform="translate(65.3042 50.1321)"/>
<rect width="29.9102" height="0.950505" fill="black" fill-opacity="0" transform="translate(65.3042 50.1321)"/>
<rect width="29.9102" height="0.950505" fill="black" fill-opacity="0" transform="translate(65.3042 50.1321)"/>
<path d="M95.2144 50.1557C95.216 50.1803 94.7989 50.2224 94.0437 50.2773C93.2882 50.3322 92.1944 50.4001 90.842 50.4764C88.1373 50.6289 84.3986 50.815 80.2682 50.9986C76.1368 51.0517 72.396 51.0798 69.688 51.0824C68.3341 51.0838 67.2382 51.0786 66.4808 51.067C65.7235 51.0554 65.3045 51.0372 65.3042 51.0126C65.3039 50.988 65.7223 50.9591 66.4792 50.9281C67.236 50.8969 68.3311 50.8636 69.6847 50.8301C72.392 50.7629 76.1322 50.6947 80.2636 50.6416C84.3892 50.4582 88.1246 50.3121 90.8304 50.2242C92.183 50.1803 93.2784 50.1509 94.0358 50.1386C94.7933 50.1263 95.2129 50.1311 95.2144 50.1557Z" fill="#AD6E1F"/>
<rect width="21.6743" height="0.59938" fill="black" fill-opacity="0" transform="translate(104.314 50.0879)"/>
<rect width="21.6743" height="0.59938" fill="black" fill-opacity="0" transform="translate(104.314 50.0879)"/>
<rect width="21.6743" height="0.59938" fill="black" fill-opacity="0" transform="translate(104.314 50.0879)"/>
<rect width="21.6743" height="0.59938" fill="black" fill-opacity="0" transform="translate(104.314 50.0879)"/>
<path d="M125.988 50.12C125.989 50.1446 125.688 50.1816 125.141 50.2272C124.593 50.273 123.801 50.3275 122.822 50.3872C120.863 50.528 118.152 50.5976 115.157 50.6757C112.16 50.6906 109.447 50.7049 107.487 50.6246C106.507 50.5952 105.713 50.5652 105.165 50.5364C104.617 50.5076 104.314 50.48 104.314 50.4554C104.314 50.4308 104.618 50.4114 105.167 50.3975C105.715 50.3835 106.509 50.375 107.49 50.3722C109.454 50.388 112.161 50.3335 115.152 50.3189C118.142 50.2408 120.851 50.2113 122.811 50.1351C123.791 50.1076 124.585 50.0916 125.134 50.0884C125.683 50.0854 125.987 50.0954 125.988 50.12Z" fill="#AD6E1F"/>
<rect width="44.41" height="3.32464" fill="black" fill-opacity="0" transform="translate(122.095 51.7314)"/>
<rect width="44.41" height="3.32464" fill="black" fill-opacity="0" transform="translate(122.095 51.7314)"/>
<rect width="44.41" height="3.32464" fill="black" fill-opacity="0" transform="translate(122.095 51.7314)"/>
<rect width="44.41" height="3.32464" fill="black" fill-opacity="0" transform="translate(122.095 51.7314)"/>
<path d="M166.505 51.7402C166.506 51.7525 166.352 51.7772 166.058 51.8132C165.763 51.8492 165.328 51.8962 164.768 51.9531C163.646 52.0671 162.023 52.2202 160.016 52.4019C156.002 52.7653 150.454 53.2429 144.325 53.7484C138.19 54.1556 132.634 54.5044 128.611 54.7391C126.6 54.8565 124.971 54.9453 123.846 54.9986C123.283 55.0253 122.846 55.0431 122.549 55.0512C122.252 55.0592 122.096 55.0575 122.095 55.0452C122.094 55.0329 122.249 55.0106 122.544 54.9793C122.84 54.9481 123.275 54.9079 123.837 54.86C124.96 54.7641 126.585 54.6368 128.594 54.4873C132.613 54.1882 138.166 53.7995 144.301 53.3922C150.428 52.8869 155.977 52.4493 159.995 52.1504C162.004 52.0009 163.63 51.8861 164.755 51.8148C165.317 51.7791 165.754 51.7544 166.051 51.7416C166.348 51.7288 166.504 51.7279 166.505 51.7402Z" fill="#AD6E1F"/>
<rect width="35.3253" height="1.02123" fill="black" fill-opacity="0" transform="translate(137.911 46.1934)"/>
<rect width="35.3253" height="1.02123" fill="black" fill-opacity="0" transform="translate(137.911 46.1934)"/>
<rect width="35.3253" height="1.02123" fill="black" fill-opacity="0" transform="translate(137.911 46.1934)"/>
<rect width="35.3253" height="1.02123" fill="black" fill-opacity="0" transform="translate(137.911 46.1934)"/>
<path d="M173.236 46.2257C173.237 46.238 173.114 46.2533 172.878 46.2713C172.644 46.2893 172.297 46.31 171.85 46.3327C170.957 46.3783 169.664 46.4326 168.066 46.4919C164.871 46.6108 160.456 46.7504 155.578 46.8823C150.701 47.0144 146.285 47.1141 143.088 47.1683C141.489 47.1954 140.195 47.2113 139.301 47.2141C138.854 47.2156 138.507 47.2137 138.271 47.2085C138.035 47.2033 137.911 47.1946 137.911 47.1823C137.911 47.17 138.034 47.1546 138.269 47.1366C138.504 47.1186 138.851 47.098 139.297 47.0753C140.19 47.0296 141.483 46.9754 143.081 46.9161C146.276 46.7971 150.691 46.6576 155.569 46.5256C160.446 46.3935 164.862 46.2939 168.06 46.2396C169.658 46.2125 170.952 46.1967 171.846 46.1939C172.294 46.1923 172.641 46.1942 172.877 46.1994C173.112 46.2046 173.236 46.2134 173.236 46.2257Z" fill="#AD6E1F"/>
<rect width="41.6043" height="1.53173" fill="black" fill-opacity="0" transform="translate(146.582 35.0671)"/>
<rect width="41.6043" height="1.53173" fill="black" fill-opacity="0" transform="translate(146.582 35.0671)"/>
<rect width="41.6043" height="1.53173" fill="black" fill-opacity="0" transform="translate(146.582 35.0671)"/>
<rect width="41.6043" height="1.53173" fill="black" fill-opacity="0" transform="translate(146.582 35.0671)"/>
<path d="M188.187 35.0884C188.187 35.1007 188.042 35.1179 187.765 35.1395C187.489 35.161 187.08 35.1867 186.555 35.2163C185.503 35.2754 183.98 35.3491 182.098 35.4325C178.335 35.5996 173.135 35.8057 167.391 36.0114C161.647 36.217 156.445 36.3832 152.68 36.4856C150.797 36.5369 149.273 36.5722 148.22 36.5885C147.693 36.5966 147.284 36.6002 147.006 36.5984C146.729 36.5968 146.583 36.5899 146.582 36.5776C146.582 36.5653 146.727 36.5481 147.004 36.5265C147.281 36.505 147.689 36.4793 148.215 36.4497C149.267 36.3906 150.789 36.3169 152.671 36.2333C156.434 36.0664 161.634 35.8603 167.378 35.6546C173.122 35.449 178.324 35.2828 182.089 35.1804C183.972 35.1291 185.496 35.0938 186.549 35.0775C187.076 35.0694 187.485 35.0658 187.763 35.0676C188.04 35.0692 188.186 35.0761 188.187 35.0884Z" fill="#AD6E1F"/>
<rect width="24.7063" height="0.36645" fill="black" fill-opacity="0" transform="translate(153.514 30.291)"/>
<rect width="24.7063" height="0.36645" fill="black" fill-opacity="0" transform="translate(153.514 30.291)"/>
<rect width="24.7063" height="0.36645" fill="black" fill-opacity="0" transform="translate(153.514 30.291)"/>
<rect width="24.7063" height="0.36645" fill="black" fill-opacity="0" transform="translate(153.514 30.291)"/>
<path d="M178.221 30.4332C178.221 30.4578 177.875 30.4825 177.25 30.5059C176.625 30.5293 175.721 30.5516 174.603 30.5713C172.368 30.6111 169.279 30.6413 165.868 30.6527C162.457 30.6641 159.369 30.6544 157.133 30.6295C156.015 30.6171 155.111 30.6009 154.485 30.5816C153.86 30.5622 153.514 30.5399 153.514 30.5153C153.514 30.4907 153.86 30.466 154.485 30.4425C155.11 30.4192 156.014 30.3969 157.132 30.3771C159.368 30.3373 162.456 30.3072 165.867 30.2958C169.278 30.2843 172.367 30.2941 174.602 30.319C175.72 30.3314 176.625 30.3476 177.25 30.3669C177.875 30.3863 178.221 30.4086 178.221 30.4332Z" fill="#AD6E1F"/>
<rect width="12.789" height="0.45372" fill="black" fill-opacity="0" transform="translate(163.915 23.8965)"/>
<rect width="12.789" height="0.45372" fill="black" fill-opacity="0" transform="translate(163.915 23.8965)"/>
<rect width="12.789" height="0.45372" fill="black" fill-opacity="0" transform="translate(163.915 23.8965)"/>
<rect width="12.789" height="0.45372" fill="black" fill-opacity="0" transform="translate(163.915 23.8965)"/>
<path d="M176.704 24.1339C176.705 24.1833 175.99 24.2321 174.832 24.2712C173.673 24.3104 172.071 24.3399 170.302 24.3502C168.537 24.2923 166.939 24.2199 165.784 24.1497C164.628 24.0794 163.914 24.0114 163.915 23.962C163.917 23.9127 164.634 23.8917 165.792 23.8974C166.95 23.903 168.548 23.9356 170.314 23.9935C172.077 23.983 173.673 23.9934 174.83 24.0188C175.986 24.0443 176.703 24.0846 176.704 24.1339Z" fill="#AD6E1F"/>
<rect width="10.8346" height="0.772302" fill="black" fill-opacity="0" transform="translate(160.447 18.7197)"/>
<rect width="10.8346" height="0.772302" fill="black" fill-opacity="0" transform="translate(160.447 18.7197)"/>
<rect width="10.8346" height="0.772302" fill="black" fill-opacity="0" transform="translate(160.447 18.7197)"/>
<rect width="10.8346" height="0.772302" fill="black" fill-opacity="0" transform="translate(160.447 18.7197)"/>
<path d="M171.282 19.4484C171.279 19.4976 170.669 19.5038 169.687 19.474C168.704 19.4443 167.349 19.3786 165.853 19.284C164.357 19.1894 163.004 19.0838 162.026 18.9896C161.047 18.8954 160.444 18.8125 160.447 18.7634C160.45 18.7142 161.059 18.708 162.042 18.7377C163.024 18.7674 164.379 18.8332 165.875 18.9278C167.371 19.0223 168.725 19.1279 169.703 19.2221C170.681 19.3163 171.285 19.3992 171.282 19.4484Z" fill="#AD6E1F"/>
<rect width="13.0041" height="0.414707" fill="black" fill-opacity="0" transform="translate(189.709 48.4805)"/>
<rect width="13.0041" height="0.414707" fill="black" fill-opacity="0" transform="translate(189.709 48.4805)"/>
<rect width="13.0041" height="0.414707" fill="black" fill-opacity="0" transform="translate(189.709 48.4805)"/>
<rect width="13.0041" height="0.414707" fill="black" fill-opacity="0" transform="translate(189.709 48.4805)"/>
<path d="M202.713 48.7933C202.713 48.8426 201.984 48.8754 200.807 48.8886C199.63 48.9018 198.004 48.8955 196.208 48.8663C194.413 48.8372 192.788 48.7908 191.612 48.7394C190.436 48.6881 189.708 48.6317 189.709 48.5824C189.71 48.533 190.439 48.5002 191.616 48.487C192.793 48.4738 194.419 48.4802 196.214 48.5093C198.01 48.5385 199.635 48.5849 200.811 48.6362C201.987 48.6876 202.714 48.744 202.713 48.7933Z" fill="#AD6E1F"/>
<rect width="13.2228" height="0.899083" fill="black" fill-opacity="0" transform="translate(188.623 54.8835)"/>
<rect width="13.2228" height="0.899083" fill="black" fill-opacity="0" transform="translate(188.623 54.8835)"/>
<rect width="13.2228" height="0.899083" fill="black" fill-opacity="0" transform="translate(188.623 54.8835)"/>
<rect width="13.2228" height="0.899083" fill="black" fill-opacity="0" transform="translate(188.623 54.8835)"/>
<path d="M201.846 55.7457C201.843 55.7949 201.1 55.7932 199.902 55.7508C198.703 55.7084 197.049 55.6252 195.224 55.5112C193.398 55.3972 191.746 55.2741 190.552 55.1673C189.358 55.0604 188.62 54.9696 188.623 54.9205C188.627 54.8713 189.369 54.8729 190.568 54.9154C191.766 54.9577 193.42 55.041 195.246 55.155C197.072 55.2689 198.723 55.392 199.918 55.4989C201.112 55.6058 201.849 55.6965 201.846 55.7457Z" fill="#AD6E1F"/>
<rect width="10.1847" height="0.479106" fill="black" fill-opacity="0" transform="translate(193.827 51.7917)"/>
<rect width="10.1847" height="0.479106" fill="black" fill-opacity="0" transform="translate(193.827 51.7917)"/>
<rect width="10.1847" height="0.479106" fill="black" fill-opacity="0" transform="translate(193.827 51.7917)"/>
<rect width="10.1847" height="0.479106" fill="black" fill-opacity="0" transform="translate(193.827 51.7917)"/>
<path d="M204.012 52.0812C204.013 52.1305 203.444 52.1764 202.52 52.2108C201.596 52.2451 200.319 52.2681 198.908 52.2709C197.502 52.2039 196.231 52.1234 195.311 52.0472C194.392 51.9712 193.825 51.8994 193.827 51.8502C193.829 51.8011 194.401 51.7836 195.324 51.7952C196.246 51.8068 197.519 51.8475 198.925 51.9144C200.328 51.9111 201.598 51.9281 202.518 51.9584C203.439 51.9885 204.01 52.0319 204.012 52.0812Z" fill="#AD6E1F"/>
<rect width="39.8823" height="0.551171" fill="black" fill-opacity="0" transform="translate(160.012 63.4998)"/>
<rect width="39.8823" height="0.551171" fill="black" fill-opacity="0" transform="translate(160.012 63.4998)"/>
<rect width="39.8823" height="0.551171" fill="black" fill-opacity="0" transform="translate(160.012 63.4998)"/>
<rect width="39.8823" height="0.551171" fill="black" fill-opacity="0" transform="translate(160.012 63.4998)"/>
<path d="M199.894 63.9425C199.894 63.9548 199.754 63.9662 199.489 63.9766C199.223 63.987 198.831 63.9964 198.327 64.0046C197.318 64.0213 195.857 64.0338 194.052 64.0415C190.443 64.0571 185.457 64.0538 179.949 64.0282C174.443 63.945 169.458 63.8498 165.85 63.7631C164.046 63.7198 162.586 63.6784 161.577 63.6419C161.073 63.6236 160.682 63.6064 160.416 63.5908C160.151 63.5753 160.011 63.5611 160.012 63.5488C160.012 63.5365 160.151 63.5266 160.417 63.5188C160.683 63.5112 161.075 63.506 161.58 63.503C162.589 63.4968 164.049 63.4996 165.854 63.5107C169.463 63.5329 174.448 63.5882 179.954 63.6712C185.46 63.6968 190.445 63.7401 194.053 63.7891C195.858 63.8137 197.318 63.8397 198.327 63.8657C198.831 63.8787 199.223 63.8918 199.489 63.9046C199.754 63.9175 199.894 63.9302 199.894 63.9425Z" fill="#AD6E1F"/>
<rect width="32.9447" height="0.782989" fill="black" fill-opacity="0" transform="translate(130.535 60.1743)"/>
<rect width="32.9447" height="0.782989" fill="black" fill-opacity="0" transform="translate(130.535 60.1743)"/>
<rect width="32.9447" height="0.782989" fill="black" fill-opacity="0" transform="translate(130.535 60.1743)"/>
<rect width="32.9447" height="0.782989" fill="black" fill-opacity="0" transform="translate(130.535 60.1743)"/>
<path d="M163.479 60.4644C163.48 60.4767 163.365 60.4926 163.146 60.5113C162.927 60.5301 162.604 60.5519 162.188 60.5762C161.355 60.6249 160.149 60.6836 158.659 60.7486C155.679 60.9246 151.555 60.9268 147.002 60.9573C142.448 60.8518 138.324 60.7814 135.35 60.557C133.861 60.4676 132.657 60.3891 131.825 60.3269C131.409 60.2957 131.086 60.2687 130.867 60.2463C130.649 60.224 130.534 60.2062 130.535 60.1939C130.535 60.1816 130.651 60.1753 130.871 60.1744C131.091 60.1736 131.415 60.1783 131.832 60.1881C132.666 60.2077 133.872 60.2478 135.362 60.3048C138.342 60.4648 142.459 60.4949 147.005 60.6003C151.553 60.5698 155.671 60.6076 158.651 60.4964C160.141 60.4637 161.348 60.4434 162.182 60.4374C162.599 60.4345 162.923 60.435 163.143 60.4395C163.363 60.4439 163.479 60.4521 163.479 60.4644Z" fill="#AD6E1F"/>
<rect width="29.6895" height="0.765779" fill="black" fill-opacity="0" transform="translate(114.937 65.8906)"/>
<rect width="29.6895" height="0.765779" fill="black" fill-opacity="0" transform="translate(114.937 65.8906)"/>
<rect width="29.6895" height="0.765779" fill="black" fill-opacity="0" transform="translate(114.937 65.8906)"/>
<rect width="29.6895" height="0.765779" fill="black" fill-opacity="0" transform="translate(114.937 65.8906)"/>
<path d="M144.626 65.9125C144.628 65.9371 144.214 65.9807 143.465 66.0385C142.715 66.0962 141.629 66.1682 140.287 66.2495C137.605 66.4458 133.891 66.5339 129.789 66.6459C125.685 66.6578 121.969 66.6819 119.284 66.5664C117.94 66.5256 116.853 66.4863 116.103 66.4512C115.351 66.416 114.936 66.3849 114.937 66.3603C114.937 66.3357 115.353 66.3198 116.105 66.3122C116.857 66.3047 117.945 66.3055 119.288 66.314C121.977 66.365 125.686 66.3007 129.784 66.289C133.881 66.1771 137.592 66.129 140.276 65.9973C141.618 65.9484 142.705 65.9148 143.457 65.8997C144.208 65.8846 144.625 65.8879 144.626 65.9125Z" fill="#AD6E1F"/>
<rect width="40.7453" height="0.875652" fill="black" fill-opacity="0" transform="translate(71.8055 79.8059)"/>
<rect width="40.7453" height="0.875652" fill="black" fill-opacity="0" transform="translate(71.8055 79.8059)"/>
<rect width="40.7453" height="0.875652" fill="black" fill-opacity="0" transform="translate(71.8055 79.8059)"/>
<rect width="40.7453" height="0.875652" fill="black" fill-opacity="0" transform="translate(71.8055 79.8059)"/>
<path d="M112.551 80.0759C112.551 80.0882 112.408 80.0986 112.136 80.1071C111.864 80.1155 111.464 80.1221 110.948 80.1266C109.917 80.1359 108.425 80.1377 106.581 80.1322C102.894 80.0853 97.8009 80.1658 92.1754 80.1931C86.5523 80.3277 81.4605 80.3936 77.7745 80.5468C75.9313 80.6053 74.4397 80.6465 73.4085 80.6669C72.8927 80.6772 72.4924 80.6821 72.2205 80.6815C71.9491 80.6809 71.806 80.6747 71.8055 80.6624C71.805 80.6501 71.947 80.6323 72.2177 80.6096C72.4884 80.5871 72.8882 80.5597 73.4029 80.5281C74.4323 80.465 75.9224 80.3854 77.7644 80.2946C81.4458 80.077 86.5422 79.9707 92.1703 79.8361C97.7994 79.8088 102.896 79.7683 106.584 79.8798C108.428 79.9176 109.92 79.9542 110.951 79.9877C111.466 80.0044 111.866 80.0203 112.138 80.0351C112.409 80.05 112.551 80.0636 112.551 80.0759Z" fill="#AD6E1F"/>
<rect width="11.2699" height="0.416881" fill="black" fill-opacity="0" transform="translate(60.7527 62.8601)"/>
<rect width="11.2699" height="0.416881" fill="black" fill-opacity="0" transform="translate(60.7527 62.8601)"/>
<rect width="11.2699" height="0.416881" fill="black" fill-opacity="0" transform="translate(60.7527 62.8601)"/>
<rect width="11.2699" height="0.416881" fill="black" fill-opacity="0" transform="translate(60.7527 62.8601)"/>
<path d="M72.0226 63.1762C72.0216 63.2255 71.3902 63.2581 70.3696 63.2709C69.3493 63.2837 67.9404 63.2767 66.3844 63.247C64.8283 63.2172 63.4199 63.1703 62.4006 63.1186C61.3816 63.0669 60.7517 63.0102 60.7527 62.9609C60.7537 62.9116 61.3851 62.879 62.4057 62.8662C63.426 62.8534 64.8349 62.8604 66.3909 62.8901C67.947 62.9199 69.3554 62.9668 70.3747 63.0185C71.3937 63.0702 72.0236 63.1269 72.0226 63.1762Z" fill="#AD6E1F"/>
<rect width="9.97111" height="0.460537" fill="black" fill-opacity="0" transform="translate(61.4031 67.6357)"/>
<rect width="9.97111" height="0.460537" fill="black" fill-opacity="0" transform="translate(61.4031 67.6357)"/>
<rect width="9.97111" height="0.460537" fill="black" fill-opacity="0" transform="translate(61.4031 67.6357)"/>
<rect width="9.97111" height="0.460537" fill="black" fill-opacity="0" transform="translate(61.4031 67.6357)"/>
<path d="M71.3742 67.6992C71.3778 67.7484 70.8227 67.8174 69.9207 67.8893C69.0188 67.9611 67.77 68.0359 66.3902 68.0963C65.013 68.0899 63.7659 68.0643 62.8636 68.0278C61.961 67.9914 61.4029 67.9443 61.4031 67.895C61.4034 67.8457 61.9617 67.8036 62.8646 67.7754C63.7674 67.7473 65.0145 67.733 66.392 67.7393C67.7644 67.679 69.0069 67.6444 69.9087 67.6371C70.8103 67.63 71.3707 67.6501 71.3742 67.6992Z" fill="#AD6E1F"/>
<rect width="11.9234" height="0.419615" fill="black" fill-opacity="0" transform="translate(62.4828 73.9766)"/>
<rect width="11.9234" height="0.419615" fill="black" fill-opacity="0" transform="translate(62.4828 73.9766)"/>
<rect width="11.9234" height="0.419615" fill="black" fill-opacity="0" transform="translate(62.4828 73.9766)"/>
<rect width="11.9234" height="0.419615" fill="black" fill-opacity="0" transform="translate(62.4828 73.9766)"/>
<path d="M74.4063 74.165C74.4078 74.2143 73.7411 74.2647 72.6612 74.3066C71.5813 74.3485 70.0879 74.3816 68.4387 74.3962C66.7926 74.3513 65.303 74.2908 64.2251 74.2291C63.1475 74.1675 62.4816 74.1047 62.4829 74.0554C62.4841 74.0061 63.1526 73.9797 64.2322 73.9768C65.3116 73.9739 66.8025 73.9945 68.4484 74.0393C70.0922 74.0246 71.5803 74.0315 72.6584 74.0542C73.7365 74.077 74.4047 74.1156 74.4063 74.165Z" fill="#AD6E1F"/>
<rect width="26.6571" height="0.525446" fill="black" fill-opacity="0" transform="translate(63.5706 84.0652)"/>
<rect width="26.6571" height="0.525446" fill="black" fill-opacity="0" transform="translate(63.5706 84.0652)"/>
<rect width="26.6571" height="0.525446" fill="black" fill-opacity="0" transform="translate(63.5706 84.0652)"/>
<rect width="26.6571" height="0.525446" fill="black" fill-opacity="0" transform="translate(63.5706 84.0652)"/>
<path d="M90.2276 84.1351C90.2281 84.1597 89.8552 84.1886 89.1812 84.2198C88.5072 84.2508 87.5313 84.2842 86.3255 84.3178C83.9141 84.385 80.5822 84.4532 76.9016 84.5064C73.221 84.5596 69.8887 84.5879 67.4762 84.5904C66.27 84.5917 65.2938 84.5866 64.619 84.575C63.9442 84.5634 63.5711 84.5453 63.5706 84.5207C63.57 84.4961 63.943 84.4672 64.617 84.436C65.291 84.405 66.2669 84.3716 67.4726 84.338C69.8841 84.2709 73.2159 84.2027 76.8963 84.1494C80.5769 84.0962 83.9095 84.0679 86.322 84.0654C87.5282 84.0641 88.5044 84.0692 89.1792 84.0808C89.8539 84.0924 90.2271 84.1105 90.2276 84.1351Z" fill="#AD6E1F"/>
<rect width="14.9669" height="17.4876" fill="black" fill-opacity="0" transform="translate(72.5645 59.4917)"/>
<path d="M87.0135 59.4917L72.5645 60.6159C72.7791 65.2963 73.2454 76.7324 73.4301 76.8835C73.601 77.0232 87.1612 76.9951 87.2657 76.8947C87.2657 76.8947 88.0069 64.6937 87.0135 59.4917Z" fill="#432739"/>
<rect width="13.0317" height="15.2525" fill="black" fill-opacity="0" transform="translate(73.5316 60.6096)"/>
<path d="M79.18 68.0429C79.1516 67.193 79.1308 66.3642 79.1171 65.5638C76.9354 65.5438 75.041 65.5002 73.7031 65.4221C73.7639 66.8095 73.8309 68.3038 73.8979 69.7149C75.3023 69.5608 77.146 69.4148 79.2277 69.2981C79.2104 68.8851 79.1947 68.4673 79.18 68.0429Z" fill="#8E8298"/>
<path d="M86.5569 69.0648C86.5691 67.9084 86.565 66.7061 86.5326 65.5439C85.0506 65.5726 83.3184 65.5815 81.4615 65.5784C81.2469 65.5784 81.0364 65.5772 80.8243 65.5761C80.8628 66.3542 80.8963 67.1589 80.9237 67.9845C80.9379 68.3992 80.9496 68.8089 80.9608 69.2126C81.0937 69.206 81.2246 69.1999 81.3595 69.1933C83.2566 69.1144 85.0293 69.0729 86.5569 69.0648Z" fill="#8E8298"/>
<path d="M80.7548 64.2727C80.9907 64.2716 81.2246 64.2706 81.4646 64.2706C83.3058 64.2737 85.0201 64.3322 86.492 64.4228C86.426 62.969 86.3073 61.6334 86.112 60.6096L80.5239 61.0449C80.6092 62.0188 80.6873 63.1051 80.7548 64.2727Z" fill="#8E8298"/>
<path d="M79.2865 70.5759C77.2028 70.6358 75.3535 70.6459 73.9405 70.6104C74.078 73.4297 74.2099 75.7161 74.286 75.7779C74.3555 75.8345 76.9192 75.8601 79.663 75.8621C79.5158 74.384 79.386 72.5755 79.2865 70.5759Z" fill="#8E8298"/>
<path d="M79.1003 64.2958C79.0897 63.1628 79.0957 62.1078 79.114 61.155L73.5316 61.5896C73.5696 62.407 73.6158 63.4622 73.6665 64.6254C75.0034 64.4735 76.9045 64.3475 79.1003 64.2958Z" fill="#8E8298"/>
<path d="M81.4139 70.5003C81.2708 70.5059 81.1308 70.511 80.9877 70.517C81.0242 72.5397 81.0141 74.3687 80.9659 75.861C83.7203 75.8559 86.2896 75.8285 86.3327 75.7877C86.3327 75.7877 86.4839 73.2874 86.5412 70.1956C85.0323 70.3152 83.285 70.4215 81.4139 70.5003Z" fill="#8E8298"/>
<rect width="15.141" height="17.8837" fill="black" fill-opacity="0" transform="translate(99.3235 59.0962)"/>
<path d="M113.949 59.4362L99.4336 59.0962C99.3819 64.2269 99.2256 76.7111 99.4139 76.8752C99.5894 77.0278 114.071 76.9951 114.183 76.8947C114.183 76.8947 114.952 64.7304 113.949 59.4362Z" fill="#432739"/>
<rect width="13.1769" height="15.5681" fill="black" fill-opacity="0" transform="translate(100.29 60.2537)"/>
<path d="M105.838 67.5806C105.836 66.6836 105.842 65.8114 105.854 64.9684C103.621 64.792 101.685 64.6105 100.32 64.4297C100.308 65.9402 100.298 67.5664 100.292 69.1003C101.759 68.9973 103.681 68.9269 105.847 68.9023C105.842 68.4672 105.839 68.0268 105.838 67.5806Z" fill="#8E8298"/>
<path d="M113.456 69.0166C113.472 67.8544 113.472 66.6441 113.443 65.4727C111.926 65.3954 110.153 65.2828 108.252 65.149C108.033 65.134 107.818 65.1173 107.601 65.1013C107.62 65.9139 107.633 66.7536 107.641 67.6161C107.645 68.0481 107.647 68.4751 107.647 68.8949C107.786 68.8949 107.922 68.8949 108.062 68.8959C110.032 68.9056 111.871 68.9489 113.456 69.0166Z" fill="#8E8298"/>
<path d="M107.564 63.7382C107.803 63.7565 108.042 63.7725 108.287 63.793C110.162 63.9413 111.908 64.1358 113.407 64.3416C113.345 62.8727 113.232 61.5175 113.041 60.4656L107.416 60.3521C107.476 61.3758 107.526 62.5157 107.564 63.7382Z" fill="#8E8298"/>
<path d="M105.866 70.2484C103.691 70.2291 101.762 70.1673 100.291 70.074C100.286 73.1336 100.307 75.6116 100.385 75.6796C100.456 75.7412 103.18 75.7861 106.098 75.8071C105.988 74.2555 105.908 72.3535 105.866 70.2484Z" fill="#8E8298"/>
<path d="M105.877 63.6327C105.904 62.4396 105.944 61.3299 105.993 60.3287L100.352 60.2537C100.346 61.1441 100.336 62.2946 100.325 63.5628C101.695 63.5017 103.638 63.5149 105.877 63.6327Z" fill="#8E8298"/>
<path d="M108.088 70.2545C107.938 70.2545 107.792 70.2545 107.643 70.2545C107.629 72.3616 107.573 74.2633 107.484 75.8154C110.414 75.8296 113.146 75.8205 113.191 75.7797C113.191 75.7797 113.362 73.2641 113.434 70.1541C111.862 70.2119 110.04 70.2484 108.088 70.2545Z" fill="#8E8298"/>
<rect width="27.1913" height="32.1189" fill="black" fill-opacity="0" transform="translate(154.605 29.0728)"/>
<path d="M180.871 29.683L154.801 29.0728C154.711 38.2869 154.428 60.7071 154.768 61.0042C155.081 61.2775 181.089 61.2189 181.29 61.0384C181.29 61.0384 182.672 39.1905 180.871 29.683Z" fill="#432739"/>
<rect width="23.6647" height="27.9591" fill="black" fill-opacity="0" transform="translate(156.34 31.1516)"/>
<path d="M166.306 44.3102C166.302 42.7015 166.312 41.1324 166.332 39.6188C162.323 39.3034 158.844 38.9777 156.393 38.6516C156.373 41.3657 156.355 44.2843 156.344 47.0387C158.979 46.8547 162.43 46.7274 166.32 46.6853C166.312 45.9042 166.308 45.1134 166.306 44.3102Z" fill="#8E8298"/>
<path d="M179.984 46.8911C180.013 44.8015 180.015 42.6303 179.964 40.5259C177.239 40.3878 174.055 40.1854 170.641 39.9451C170.247 39.9157 169.861 39.8868 169.471 39.8589C169.504 41.3167 169.528 42.8272 169.543 44.3735C169.549 45.1501 169.553 45.9165 169.553 46.6728C169.803 46.6728 170.047 46.6708 170.297 46.6728C173.837 46.6891 177.138 46.7687 179.984 46.8911Z" fill="#8E8298"/>
<path d="M169.404 37.4108C169.834 37.4417 170.262 37.4732 170.702 37.5077C174.068 37.7739 177.206 38.1248 179.896 38.4931C179.786 35.8569 179.584 33.4212 179.238 31.5339L169.138 31.3301C169.245 33.1679 169.334 35.2139 169.404 37.4108Z" fill="#8E8298"/>
<path d="M166.356 49.1027C162.449 49.068 158.984 48.957 156.34 48.7874C156.333 54.2837 156.371 58.7324 156.511 58.8564C156.637 58.9677 161.532 59.0458 166.772 59.0841C166.574 56.2965 166.428 52.8811 166.356 49.1027Z" fill="#8E8298"/>
<path d="M166.376 37.2214C166.425 35.0778 166.496 33.0843 166.585 31.2885L156.454 31.1516C156.441 32.7529 156.424 34.8187 156.405 37.0939C158.864 36.9867 162.354 37.0087 166.376 37.2214Z" fill="#8E8298"/>
<path d="M170.346 49.1139C170.077 49.1139 169.814 49.1139 169.546 49.1139C169.521 52.8956 169.421 56.3127 169.261 59.1005C174.523 59.1244 179.428 59.1076 179.509 59.0349C179.509 59.0349 179.816 54.5169 179.947 48.9333C177.124 49.0373 173.85 49.1027 170.346 49.1139Z" fill="#8E8298"/>
<path opacity="0.3" d="M79.6076 50.5843L95.6726 100.464L61.5503 100.004C61.5772 97.2663 61.6888 94.5545 61.9146 91.8861C61.2129 81.1081 59.427 55.869 59.3661 52.7926C56.2007 55.1758 54.1906 56.7269 54.1561 56.8225V49.2756L95.0653 19.3237L104.445 25.9419L79.6076 50.5843Z" fill="#2C3B91"/>
<path opacity="0.3" d="M79.6076 50.5843L95.6726 100.464L61.5503 100.004C61.5772 97.2663 61.6888 94.5545 61.9146 91.8861C61.2129 81.1081 59.427 55.869 59.3661 52.7926C56.2007 55.1758 54.1906 56.7269 54.1561 56.8225V49.2756L95.0653 19.3237L104.445 25.9419L79.6076 50.5843Z" fill="black"/>
<path opacity="0.3" d="M68.4443 101.74L61.5392 101.656C61.5133 114.585 62.9892 128.013 61.9318 140.604C63.8228 140.648 65.7122 140.683 67.6011 140.708C74.1023 140.833 80.6036 140.915 87.1034 140.978L68.4443 101.74Z" fill="black"/>
<rect width="76.1681" height="12.1251" fill="black" fill-opacity="0" transform="translate(49.6609 92.8823)"/>
<path d="M125.773 92.8823L63.0678 94.5597C59.049 97.7636 53.9115 102.068 49.6609 104.965C57.5127 105.401 117.51 102.308 124.718 102.282C124.467 99.6808 126.154 95.4681 125.773 92.8823Z" fill="#543A4A"/>
<path d="M49.6609 104.964L50.9161 108.537L124.202 105.007L124.718 102.236L49.6609 104.964Z" fill="#432739"/>
<path opacity="0.3" d="M97.1881 93.6477L63.0678 94.5597C59.049 97.762 53.9136 102.067 49.6614 104.964H49.6609V104.965L50.9161 108.537L89.18 106.694L97.1881 93.6477Z" fill="black"/>
<rect width="119.889" height="131.354" fill="black" fill-opacity="0" transform="translate(21.5924 13.0588)"/>
<rect width="39.8661" height="46.5598" fill="black" fill-opacity="0" transform="translate(26.972 19.3835)"/>
<path d="M66.2054 65.5481C66.4155 56.3542 66.627 47.1591 66.8381 37.9639L45.6869 19.3835C40.9451 26.4979 26.972 40.7391 26.972 40.7391C26.972 40.7391 27.0932 51.4359 27.2728 65.9433C40.25 65.5759 53.2277 65.4388 66.2054 65.5481Z" fill="#BB833B"/>
<rect width="38.9326" height="76.7923" fill="black" fill-opacity="0" transform="translate(27.2729 65.5115)"/>
<path d="M27.2729 65.9433C27.5996 92.5226 28.1171 131.91 28.423 141.873C40.4241 142.334 52.4388 142.426 64.4459 142.143C65.0314 116.612 65.6179 91.0792 66.2054 65.548C53.2277 65.4387 40.25 65.5759 27.2729 65.9433Z" fill="#A6583C"/>
<path d="M23.9273 61.148L25.1785 69.5795H67.4347L68.489 60.1052L23.9273 61.148Z" fill="#432739"/>
<rect width="49.5059" height="32.7828" fill="black" fill-opacity="0" transform="translate(21.5924 13.0635)"/>
<path d="M24.3154 45.8463C24.3154 45.8463 40.1505 29.7044 45.5245 21.6415L69.4946 42.6994L71.0983 36.2407L45.3601 13.0635L21.5924 38.9106L24.3154 45.8463Z" fill="#432739"/>
<rect width="17.9295" height="35.9063" fill="black" fill-opacity="0" transform="translate(61.6768 106.398)"/>
<path d="M77.1898 108.558H62.6946V142.304H77.1898V108.558Z" fill="#923B1C"/>
<path d="M61.6768 106.398V109.194H79.6063L78.9695 106.398H61.6768Z" fill="#432739"/>
<path d="M56.173 84.6123H35.9213V121.917H56.173V84.6123Z" fill="#432739"/>
<rect width="16.9803" height="35.2489" fill="black" fill-opacity="0" transform="translate(37.5576 86.6682)"/>
<path d="M46.3502 96.9032C43.0072 96.8495 39.9433 96.7896 37.5577 96.6887V105.123C40.337 104.961 44.1528 104.912 48.37 105.057C50.5668 105.132 52.6516 105.253 54.5379 105.402V96.963C52.2467 96.9798 49.4192 96.9478 46.3502 96.9032Z" fill="#543A4A"/>
<path d="M48.4014 114.304C50.5541 114.333 52.6186 114.376 54.5379 114.43V107.367C52.6272 107.335 50.5196 107.281 48.2944 107.205C44.1107 107.059 40.3218 106.873 37.5577 106.65V114.303C40.5957 114.247 44.3441 114.25 48.4014 114.304Z" fill="#543A4A"/>
<path d="M48.372 116.451C44.3243 116.397 40.5866 116.24 37.5577 116.035V121.917H54.5379V116.454C52.6105 116.48 50.5354 116.482 48.372 116.451Z" fill="#543A4A"/>
<path d="M46.3841 94.7557C49.447 94.8 52.2587 94.9887 54.5378 95.2341V86.6682H37.5576V95.0388C39.9472 94.8279 43.0223 94.7006 46.3841 94.7557Z" fill="#543A4A"/>
<rect width="7.18316" height="11.1753" fill="black" fill-opacity="0" transform="translate(57.1557 90.2156)"/>
<rect width="4.49662" height="5.99024" fill="black" fill-opacity="0" transform="translate(58.8024 95.4006)"/>
<path d="M63.2318 95.4006L58.8807 95.8012C58.7127 97.3011 58.8152 98.833 59.1871 100.298C59.2582 100.577 59.3459 100.866 59.5509 101.069C59.8649 101.377 60.3566 101.394 60.7965 101.391C61.5773 101.384 62.5052 101.296 62.8888 100.617C63.0187 100.389 63.0628 100.123 63.0999 99.8628C63.3094 98.3867 63.354 96.8863 63.2318 95.4006Z" fill="#F7C548"/>
<path d="M62.7371 92.8578L61.8031 93.0367C61.8072 93.0132 61.8163 92.9977 61.8214 92.9744C61.8975 92.6154 61.9157 92.1636 61.8183 91.6743C61.7615 91.4273 61.7062 91.1875 61.5484 90.8936C61.4672 90.7534 61.3663 90.6064 61.2029 90.468C61.0446 90.3308 60.7904 90.2114 60.523 90.2157C59.9634 90.2352 59.6519 90.5955 59.4865 90.8936C59.315 91.2136 59.2841 91.5384 59.2952 91.8071C59.3267 92.3563 59.4977 92.7442 59.6534 93.0674C59.7199 93.199 59.7889 93.306 59.8584 93.4069L58.8153 93.6054C58.1648 94.5863 57.6088 95.6279 57.1557 96.7132C59.5388 96.3808 61.9365 96.1466 64.3389 96.012C63.6686 95.0374 63.1288 93.9738 62.7371 92.8578ZM60.3718 92.8192C60.3211 92.5195 60.2562 92.1413 60.2861 91.814C60.2998 91.6507 60.3409 91.5049 60.4043 91.4093C60.4439 91.3386 60.4997 91.3056 60.5215 91.2942C60.5433 91.3082 60.5885 91.3444 60.6392 91.4273C60.7194 91.5465 60.799 91.7503 60.8584 91.9222C60.9776 92.2787 61.0385 92.624 61.0639 92.9216C61.0705 93.0122 61.075 93.091 61.0791 93.1742L60.4606 93.2918C60.4337 93.1519 60.4038 92.9977 60.3718 92.8192Z" fill="#8E8298"/>
<rect width="41.1144" height="22.5395" fill="black" fill-opacity="0" transform="translate(33.4988 120.254)"/>
<rect width="28.1784" height="7.91326" fill="black" fill-opacity="0" transform="translate(33.4988 120.254)"/>
<path d="M60.5232 121.917H33.4988V128.167H60.5232V121.917Z" fill="#8E8298"/>
<path d="M61.6773 120.254H33.4991V122.409H61.6773V120.254Z" fill="#543A4A"/>
<rect width="32.4897" height="7.91322" fill="black" fill-opacity="0" transform="translate(33.4989 125.129)"/>
<path d="M64.8353 126.792H33.4989V133.043H64.8353V126.792Z" fill="#8E8298"/>
<path d="M65.9887 125.129H33.499V127.285H65.9887V125.129Z" fill="#543A4A"/>
<rect width="36.8018" height="7.91267" fill="black" fill-opacity="0" transform="translate(33.4989 130.005)"/>
<path d="M69.1468 131.667H33.4989V137.918H69.1468V131.667Z" fill="#8E8298"/>
<path d="M70.3007 130.005H33.499V132.159H70.3007V130.005Z" fill="#543A4A"/>
<rect width="41.1143" height="7.91272" fill="black" fill-opacity="0" transform="translate(33.4989 134.881)"/>
<path d="M73.4594 136.544H33.4989V142.794H73.4594V136.544Z" fill="#8E8298"/>
<path d="M74.6132 134.881H33.499V137.035H74.6132V134.881Z" fill="#543A4A"/>
<rect width="112.025" height="63.4787" fill="black" fill-opacity="0" transform="translate(29.456 71.4661)"/>
<path d="M39.3982 75.2703L29.456 74.566V71.4663H38.8193L39.3982 75.2703Z" fill="#923B1C"/>
<path d="M45.4469 80.2981L35.5042 79.5928V76.4941H44.867L45.4469 80.2981Z" fill="#923B1C"/>
<path d="M49.2465 75.2701L40.4753 74.5658V71.4661H48.7351L49.2465 75.2701Z" fill="#923B1C"/>
<path d="M139.306 100.298L130.535 99.5936V96.4939H138.795L139.306 100.298Z" fill="#923B1C"/>
<path d="M135.498 120.09L126.727 119.386V116.286H134.986L135.498 120.09Z" fill="#923B1C"/>
<path d="M141.481 124.788L132.709 124.084V120.984H140.97L141.481 124.788Z" fill="#923B1C"/>
<path d="M137.095 134.945L128.324 134.24V131.141H136.584L137.095 134.945Z" fill="#923B1C"/>
<rect width="15.412" height="8.83207" fill="black" fill-opacity="0" transform="translate(63.3928 110.178)"/>
<path d="M71.0619 115.206L78.8047 115.91V119.01H71.5129L71.0619 115.206Z" fill="#A6583C"/>
<path d="M66.3526 110.178L74.0944 110.882V113.982H66.8031L66.3526 110.178Z" fill="#A6583C"/>
<path d="M63.3928 115.206L70.2228 115.91V119.01H63.7915L63.3928 115.206Z" fill="#A6583C"/>
<rect width="18.1924" height="1.8184" fill="black" fill-opacity="0" transform="translate(43.6042 57.1423)"/>
<rect width="18.1924" height="1.8184" fill="black" fill-opacity="0" transform="translate(43.6042 57.1423)"/>
<rect width="18.1924" height="1.8184" fill="black" fill-opacity="0" transform="translate(43.6042 57.1423)"/>
<rect width="18.1924" height="1.8184" fill="black" fill-opacity="0" transform="translate(43.6042 57.1423)"/>
<path d="M61.7965 57.1555C61.8001 57.1798 61.5497 57.2365 61.0938 57.318C60.638 57.3996 59.9766 57.506 59.1577 57.6301C57.5233 57.8986 55.2491 58.1486 52.7376 58.4252C50.2189 58.6405 47.938 58.836 46.2846 58.8887C45.4581 58.9255 44.7886 58.9491 44.3257 58.9575C43.8624 58.9657 43.6057 58.9586 43.6042 58.934C43.6027 58.9094 43.8564 58.8696 44.3168 58.8188C44.7772 58.7678 45.4439 58.7058 46.2683 58.6369C47.9203 58.5195 50.1907 58.2846 52.7026 58.07C55.21 57.7937 57.4845 57.5839 59.1253 57.3797C59.9472 57.2878 60.6131 57.2196 61.0745 57.1804C61.536 57.1413 61.7929 57.1311 61.7965 57.1555Z" fill="#AD6E1F"/>
<rect width="8.0346" height="0.682529" fill="black" fill-opacity="0" transform="translate(55.3804 53.1104)"/>
<rect width="8.0346" height="0.682529" fill="black" fill-opacity="0" transform="translate(55.3804 53.1104)"/>
<rect width="8.0346" height="0.682529" fill="black" fill-opacity="0" transform="translate(55.3804 53.1104)"/>
<rect width="8.0346" height="0.682529" fill="black" fill-opacity="0" transform="translate(55.3804 53.1104)"/>
<path d="M63.4149 53.1419C63.4294 53.2267 61.6504 53.5871 59.4195 53.74C57.1795 53.868 55.3822 53.7342 55.3804 53.6482C55.3782 53.5373 57.1914 53.5105 59.3969 53.3838C61.6085 53.2322 63.3977 53.0321 63.4149 53.1419Z" fill="#AD6E1F"/>
<rect width="7.14007" height="0.428006" fill="black" fill-opacity="0" transform="translate(55.9193 48.7231)"/>
<rect width="7.14007" height="0.428006" fill="black" fill-opacity="0" transform="translate(55.9193 48.7231)"/>
<rect width="7.14007" height="0.428006" fill="black" fill-opacity="0" transform="translate(55.9193 48.7231)"/>
<rect width="7.14007" height="0.428006" fill="black" fill-opacity="0" transform="translate(55.9193 48.7231)"/>
<path d="M63.0594 48.9253C63.0654 49.0236 61.4622 49.1253 59.4787 49.1512C57.5081 49.0546 55.9145 48.8964 55.9193 48.798C55.9241 48.6995 57.5256 48.6981 59.4962 48.7946C61.4579 48.7678 63.0533 48.8269 63.0594 48.9253Z" fill="#AD6E1F"/>
<rect width="14.9939" height="0.356974" fill="black" fill-opacity="0" transform="translate(39.3151 33.4985)"/>
<rect width="14.9939" height="0.356974" fill="black" fill-opacity="0" transform="translate(39.3151 33.4985)"/>
<rect width="14.9939" height="0.356974" fill="black" fill-opacity="0" transform="translate(39.3151 33.4985)"/>
<rect width="14.9939" height="0.356974" fill="black" fill-opacity="0" transform="translate(39.3151 33.4985)"/>
<path d="M54.309 33.677C54.309 33.7263 53.4698 33.771 52.1131 33.8033C50.7565 33.8355 48.8823 33.8555 46.812 33.8555C44.7418 33.8555 42.8676 33.8355 41.5109 33.8033C40.1542 33.771 39.3151 33.7263 39.3151 33.677C39.3151 33.6277 40.1542 33.5831 41.5109 33.5508C42.8676 33.5186 44.7418 33.4985 46.812 33.4985C48.8823 33.4985 50.7565 33.5186 52.1131 33.5508C53.4698 33.5831 54.309 33.6277 54.309 33.677Z" fill="#AD6E1F"/>
<rect width="9.46477" height="0.430956" fill="black" fill-opacity="0" transform="translate(40.9167 29.8674)"/>
<rect width="9.46477" height="0.430956" fill="black" fill-opacity="0" transform="translate(40.9167 29.8674)"/>
<rect width="9.46477" height="0.430956" fill="black" fill-opacity="0" transform="translate(40.9167 29.8674)"/>
<rect width="9.46477" height="0.430956" fill="black" fill-opacity="0" transform="translate(40.9167 29.8674)"/>
<path d="M50.3815 30.0982C50.3838 30.1943 48.2552 30.3222 45.6268 30.2946C44.313 30.2826 43.124 30.2307 42.2643 30.1745C41.8351 30.144 41.4881 30.1132 41.2483 30.0839C41.2141 30.0792 41.1994 30.0789 41.1542 30.0706C41.106 30.0597 41.0781 30.0234 41.0649 30.0043C41.0378 29.9622 41.0289 29.949 41.0056 29.9382C40.9604 29.9198 40.9175 29.9238 40.9168 29.9096C40.916 29.9008 40.9378 29.8701 41.0193 29.8676C41.0603 29.8644 41.1164 29.9035 41.1451 29.9347C41.1618 29.9495 41.171 29.9528 41.177 29.95C41.2016 29.9484 41.227 29.9467 41.2529 29.9449C41.4939 29.9316 41.8424 29.924 42.2729 29.9221C43.1326 29.9138 44.3194 29.9257 45.6306 29.9376C48.2521 29.9652 50.3792 29.9972 50.3815 30.0982Z" fill="#AD6E1F"/>
<rect width="7.33216" height="0.848754" fill="black" fill-opacity="0" transform="translate(55.3784 40.1262)"/>
<rect width="7.33216" height="0.848754" fill="black" fill-opacity="0" transform="translate(55.3784 40.1262)"/>
<rect width="7.33216" height="0.848754" fill="black" fill-opacity="0" transform="translate(55.3784 40.1262)"/>
<rect width="7.33216" height="0.848754" fill="black" fill-opacity="0" transform="translate(55.3784 40.1262)"/>
<path d="M62.7103 40.1433C62.723 40.1872 62.3348 40.3424 61.6839 40.5216C61.0317 40.6936 60.1113 40.8663 59.0822 40.944C58.0522 41.0086 57.1174 40.9643 56.4444 40.8831C55.7777 40.7949 55.3741 40.6949 55.3785 40.6494C55.3833 40.5968 55.8011 40.6086 56.4683 40.6318C57.1304 40.6471 58.0477 40.6512 59.0576 40.5878C60.0664 40.5116 60.9738 40.3817 61.6311 40.2748C62.2859 40.1608 62.6961 40.0924 62.7103 40.1433Z" fill="#AD6E1F"/>
<rect width="11.6012" height="0.415925" fill="black" fill-opacity="0" transform="translate(27.8918 47.6694)"/>
<rect width="11.6012" height="0.415925" fill="black" fill-opacity="0" transform="translate(27.8918 47.6694)"/>
<rect width="11.6012" height="0.415925" fill="black" fill-opacity="0" transform="translate(27.8918 47.6694)"/>
<rect width="11.6012" height="0.415925" fill="black" fill-opacity="0" transform="translate(27.8918 47.6694)"/>
<path d="M39.493 47.7707C39.4941 47.82 38.8457 47.8765 37.7964 47.9281C36.7472 47.9797 35.2975 48.0263 33.6957 48.0559C32.094 48.0853 30.6435 48.092 29.593 48.0791C28.5428 48.066 27.8928 48.0334 27.8918 47.9841C27.8908 47.9348 28.5395 47.8783 29.5884 47.8267C30.6376 47.7751 32.0874 47.7284 33.6891 47.6989C35.2909 47.6695 36.7414 47.6628 37.7919 47.6757C38.8421 47.6888 39.492 47.7213 39.493 47.7707Z" fill="#AD6E1F"/>
<rect width="13.7377" height="1.04052" fill="black" fill-opacity="0" transform="translate(28.074 52.168)"/>
<rect width="13.7377" height="1.04052" fill="black" fill-opacity="0" transform="translate(28.074 52.168)"/>
<rect width="13.7377" height="1.04052" fill="black" fill-opacity="0" transform="translate(28.074 52.168)"/>
<rect width="13.7377" height="1.04052" fill="black" fill-opacity="0" transform="translate(28.074 52.168)"/>
<path d="M41.8117 52.1996C41.8153 52.2487 41.0496 52.3479 39.8087 52.4686C38.5682 52.5892 36.8523 52.7313 34.9555 52.8664C33.0588 53.0012 31.3401 53.1034 30.0948 53.1597C28.8495 53.2158 28.0775 53.2261 28.074 53.1769C28.0704 53.1277 28.836 53.0286 30.0768 52.9079C31.3175 52.7873 33.0334 52.6451 34.9302 52.5103C36.8269 52.3753 38.5456 52.2731 39.7909 52.2168C41.0362 52.1605 41.8081 52.1504 41.8117 52.1996Z" fill="#AD6E1F"/>
<rect width="17.4311" height="21.3044" fill="black" fill-opacity="0" transform="translate(37.6132 35.9314)"/>
<path d="M54.0446 35.9314L38.0786 36.9407C37.6493 43.6961 37.5169 50.4695 37.6818 57.2358C43.4566 57.0502 49.2693 57.3689 54.9852 56.5342C55.1745 49.5334 54.9218 42.8782 54.0446 35.9314Z" fill="#432739"/>
<rect width="14.2725" height="18.432" fill="black" fill-opacity="0" transform="translate(39.1923 37.3677)"/>
<path d="M45.9526 42.0476C48.6579 41.9437 51.1439 41.9483 53.113 42.0355C52.9922 40.4884 52.8426 38.9368 52.6553 37.3677L39.564 38.2411C39.4777 39.6667 39.4087 41.0926 39.3504 42.5192C41.216 42.3113 43.4889 42.142 45.9526 42.0476Z" fill="#8E8298"/>
<path d="M53.3961 47.4459C53.3585 46.2619 53.2971 45.0754 53.2246 43.8899C51.2626 44.13 48.7669 44.3239 46.0439 44.4279C43.5209 44.525 41.1921 44.5293 39.2931 44.4583C39.2591 45.5635 39.2281 46.6671 39.2129 47.772C41.0784 47.5692 43.1982 47.4099 45.4564 47.3379C48.4229 47.2353 51.1596 47.2964 53.3961 47.4459Z" fill="#8E8298"/>
<path d="M45.5361 49.718C43.2469 49.793 41.0911 49.8554 39.1957 49.8886C39.1865 51.8586 39.1936 53.8298 39.2393 55.7997C43.9734 55.639 48.7396 55.9146 53.426 55.191C53.4768 53.2279 53.4727 51.3013 53.4417 49.3828C51.2109 49.5129 48.4864 49.6183 45.5361 49.718Z" fill="#8E8298"/>
<path opacity="0.3" d="M38.8973 69.5769L52.8024 142.287C44.6715 142.314 36.5482 142.184 28.4244 141.87C28.1388 132.349 27.6441 95.9676 27.3158 69.5769H25.1824L23.9267 61.1469L27.2113 61.0678C27.1159 52.8551 27.0378 46.3482 27.0028 43.0639C25.3564 44.7803 24.3158 45.8447 24.3158 45.8447L21.5934 38.9136L45.3564 13.0588L54.2509 21.0651L33.4954 41.3574L37.2245 60.8348L38.8973 69.5769Z" fill="black"/>
<rect width="10.9341" height="38.0147" fill="black" fill-opacity="0" transform="translate(24.8016 106.398)"/>
<rect width="10.9341" height="38.0147" fill="black" fill-opacity="0" transform="translate(24.8016 106.398)"/>
<path d="M34.8457 108.558L34.7833 144.374L27.209 144.413L26.0725 108.558H34.8457Z" fill="#923B1C"/>
<path d="M24.8016 107.033V109.194H35.7356V106.398L24.8016 107.033Z" fill="#432739"/>
<rect width="9.81584" height="8.83359" fill="black" fill-opacity="0" transform="translate(25.6123 120.625)"/>
<path d="M27.6864 120.625L35.4281 121.331V124.43H28.1374L27.6864 120.625Z" fill="#A6583C"/>
<path d="M25.6123 125.654L32.4429 126.359V129.459H26.0101L25.6123 125.654Z" fill="#A6583C"/>
<rect width="7.18266" height="11.1753" fill="black" fill-opacity="0" transform="translate(27.6631 90.2156)"/>
<rect width="4.49564" height="5.99024" fill="black" fill-opacity="0" transform="translate(29.3092 95.4006)"/>
<path d="M33.7377 95.4006L29.3886 95.8012C29.2181 97.3011 29.3231 98.833 29.6945 100.298C29.764 100.577 29.8533 100.866 30.0578 101.069C30.3718 101.377 30.863 101.394 31.3049 101.391C32.0847 101.384 33.0116 101.296 33.3962 100.617C33.5246 100.389 33.5687 100.123 33.6057 99.8628C33.8158 98.3867 33.8594 96.8863 33.7377 95.4006Z" fill="#F7C548"/>
<path d="M33.243 92.8578L32.3095 93.0367C32.3156 93.0132 32.3232 92.9977 32.3282 92.9744C32.4054 92.6154 32.4221 92.1636 32.3232 91.6743C32.2679 91.4273 32.2126 91.1875 32.0543 90.8936C31.9751 90.7534 31.8747 90.6064 31.7093 90.468C31.551 90.3308 31.2978 90.2114 31.0289 90.2157C30.4703 90.2352 30.1598 90.5955 29.9944 90.8936C29.8214 91.2136 29.7909 91.5384 29.8016 91.8071C29.8356 92.3563 30.005 92.7442 30.1598 93.0674C30.2278 93.199 30.2963 93.306 30.3648 93.4069L29.3216 93.6054C28.6712 94.5863 28.1151 95.6279 27.6631 96.7132C30.0461 96.3808 32.4434 96.1466 34.8457 96.012C34.1765 95.0374 33.6352 93.9738 33.243 92.8578ZM30.8782 92.8192C30.828 92.5195 30.763 92.1413 30.7915 91.814C30.8062 91.6507 30.8478 91.5049 30.9097 91.4093C30.9503 91.3386 31.0076 91.3056 31.0289 91.2942C31.0487 91.3082 31.0949 91.3444 31.1476 91.4273C31.2263 91.5465 31.3049 91.7503 31.3658 91.9222C31.485 92.2787 31.5454 92.624 31.5702 92.9216C31.5789 93.0122 31.5814 93.091 31.5855 93.1742L30.9675 93.2918C30.9406 93.1519 30.9097 92.9977 30.8782 92.8192Z" fill="#8E8298"/>
<rect width="18.3419" height="80.4137" fill="black" fill-opacity="0" transform="translate(8.93079 44.4053)"/>
<path d="M9.96365 48.1432L17.3538 45.7874L17.8723 54.4115L22.5456 59.4396L26.2031 120.293L20.5233 124.819L20.4502 123.605L24.5695 119.3L21.2554 60.582L12.8404 56.6289L9.96365 48.1432Z" fill="#494252"/>
<path d="M8.93079 47.2753L9.04291 49.1428L18.3463 46.1382L18.2418 44.4053L8.93079 47.2753Z" fill="#2E2933"/>
<path d="M21.1245 65.7238L21.2635 68.0378L25.2528 67.5581L25.0468 65.4883L21.1245 65.7238Z" fill="#2E2933"/>
<path d="M22.6379 90.9069L22.0408 93.2637L26.7008 93.0036L26.4426 90.6782L22.6379 90.9069Z" fill="#2E2933"/>
<path d="M23.4822 117.248L24.5695 119.3L27.2727 118.888L27.2397 117.076L23.4822 117.248Z" fill="#2E2933"/>
<path opacity="0.3" d="M130.54 50.4814L176.704 17.8325L168.067 7.78247L130.54 50.4814Z" fill="black"/>
<path opacity="0.3" d="M76.8994 113.983L131.111 111.693L125.773 92.8823L123.278 105.008L79.3773 107.166L79.84 109.194H77.1956L76.8994 113.983Z" fill="black"/>
<path d="M211.263 135.195H139.747V140.639H211.263V135.195Z" fill="#432739"/>
<path d="M198.919 86.6682H191.527V133.692H198.919V86.6682Z" fill="#432739"/>
<path d="M201.846 84.5205H187.192V87.8058H201.846V84.5205Z" fill="#432739"/>
<path d="M201.846 131.667H187.695V135.195H201.846V131.667Z" fill="#432739"/>
<path d="M208.517 120.917H141.514V122.886H208.517V120.917Z" fill="#432739"/>
<path d="M149.653 122.886H147.255V135.195H149.653V122.886Z" fill="#432739"/>
<path d="M160.877 122.886H158.477V135.195H160.877V122.886Z" fill="#432739"/>
<path d="M172.099 122.886H169.7V135.195H172.099V122.886Z" fill="#432739"/>
<path d="M183.322 122.886H180.922V135.195H183.322V122.886Z" fill="#432739"/>
<path d="M194.544 122.886H192.146V135.195H194.544V122.886Z" fill="#432739"/>
<path d="M205.768 122.886H203.368V135.195H205.768V122.886Z" fill="#432739"/>
<rect width="7.18367" height="11.1751" fill="black" fill-opacity="0" transform="translate(144.862 84.2021)"/>
<rect width="4.49649" height="5.99024" fill="black" fill-opacity="0" transform="translate(146.509 89.387)"/>
<path d="M150.938 89.387L146.587 89.7875C146.42 91.2874 146.522 92.8193 146.894 94.2847C146.964 94.5631 147.053 94.8526 147.258 95.0554C147.572 95.3632 148.063 95.38 148.503 95.3769C149.284 95.3701 150.212 95.2826 150.596 94.6034C150.725 94.375 150.77 94.1098 150.807 93.8491C151.016 92.3731 151.061 90.8727 150.938 89.387Z" fill="#F7C548"/>
<path d="M150.444 86.8441L149.51 87.0231C149.514 86.9998 149.523 86.9843 149.528 86.9607C149.604 86.6017 149.622 86.1499 149.525 85.6606C149.468 85.4137 149.412 85.1738 149.255 84.88C149.174 84.74 149.073 84.5927 148.91 84.4543C148.751 84.3174 148.497 84.1977 148.229 84.2023C147.67 84.2215 147.359 84.5821 147.193 84.88C147.022 85.1999 146.99 85.5247 147.002 85.7934C147.033 86.3426 147.204 86.7305 147.36 87.0538C147.426 87.1853 147.496 87.2923 147.565 87.3932L146.522 87.5918C145.872 88.5729 145.315 89.6142 144.862 90.6998C147.246 90.3672 149.643 90.1329 152.046 89.9983C151.375 89.024 150.836 87.9601 150.444 86.8441ZM148.079 86.8055C148.028 86.5059 147.963 86.1279 147.993 85.8003C148.007 85.6373 148.048 85.4917 148.111 85.3959C148.151 85.3252 148.206 85.292 148.228 85.2808C148.25 85.2947 148.295 85.331 148.346 85.4137C148.426 85.5328 148.506 85.7367 148.565 85.9086C148.684 86.265 148.745 86.6103 148.771 86.908C148.777 86.9985 148.782 87.0776 148.786 87.1605L148.167 87.2781C148.14 87.1382 148.111 86.9843 148.079 86.8055Z" fill="#8E8298"/>
<rect width="7.18367" height="11.1751" fill="black" fill-opacity="0" transform="translate(165.546 83.7993)"/>
<rect width="4.49677" height="5.98999" fill="black" fill-opacity="0" transform="translate(167.193 88.9846)"/>
<path d="M171.623 88.9846L167.272 89.3849C167.104 90.8851 167.206 92.4167 167.578 93.8821C167.649 94.1607 167.737 94.4503 167.942 94.6529C168.256 94.9606 168.747 94.9774 169.188 94.9743C169.968 94.9677 170.896 94.88 171.28 94.2011C171.41 93.9724 171.454 93.7077 171.491 93.4468C171.701 91.9705 171.745 90.4703 171.623 88.9846Z" fill="#F7C548"/>
<path d="M171.128 86.4415L170.194 86.6205C170.198 86.5969 170.207 86.5817 170.212 86.5581C170.288 86.1989 170.306 85.7471 170.209 85.2577C170.152 85.0111 170.097 84.7712 169.94 84.4774C169.858 84.3372 169.757 84.1901 169.594 84.0517C169.435 83.9145 169.181 83.7951 168.914 83.7994C168.355 83.819 168.043 84.1792 167.877 84.4774C167.706 84.7973 167.675 85.1221 167.686 85.3909C167.718 85.94 167.889 86.3279 168.044 86.6512C168.111 86.7827 168.18 86.8897 168.249 86.9906L167.206 87.1892C166.556 88.1701 165.999 89.2113 165.546 90.297C167.929 89.9648 170.327 89.7301 172.73 89.5957C172.059 88.6211 171.52 87.5575 171.128 86.4415ZM168.763 86.403C168.712 86.1033 168.647 85.725 168.677 85.3977C168.69 85.2344 168.732 85.0886 168.795 84.9931C168.835 84.9223 168.89 84.8894 168.912 84.878C168.934 84.8922 168.979 84.9282 169.03 85.0111C169.11 85.1302 169.19 85.3338 169.249 85.506C169.368 85.8624 169.429 86.2075 169.455 86.5054C169.462 86.5959 169.466 86.675 169.47 86.7576L168.851 86.8753C168.825 86.7356 168.795 86.5817 168.763 86.403Z" fill="#8E8298"/>
<rect width="11.492" height="21.5439" fill="black" fill-opacity="0" transform="translate(122.578 119.472)"/>
<path d="M133.98 136.929C133.776 136.265 133.024 135.723 132.385 135.997C133.077 135.3 133.816 134.498 133.824 133.516C133.832 132.536 132.576 131.62 131.855 132.285C132.174 131.72 132.443 131.079 132.345 130.437C132.244 129.794 131.645 129.195 131.006 129.311C132.126 128.331 131.901 126.24 130.596 125.522C131.022 124.827 131.251 124.013 131.253 123.198C131.254 122.825 131.183 122.406 130.882 122.188C130.648 122.017 130.264 122.101 130.125 122.318C130.315 121.457 130.033 120.5 129.384 119.898C129.126 119.66 128.799 119.471 128.447 119.472C127.804 119.475 127.318 120.129 127.267 120.77C127.215 121.41 127.481 122.029 127.74 122.616C126.589 122.414 125.558 123.562 125.433 124.724C125.308 125.886 125.817 127.013 126.314 128.07C126.124 127.608 125.451 127.519 125.033 127.791C124.615 128.064 124.412 128.567 124.298 129.052C123.915 130.697 124.322 132.508 125.374 133.828C124.768 133.18 123.571 133.886 123.474 134.768C123.377 135.65 123.943 136.454 124.481 137.16C124.172 136.55 123.155 136.673 122.793 137.253C122.43 137.834 122.574 138.601 122.875 139.217C123.174 139.831 123.616 140.376 123.859 141.016L133.127 140.257C133.498 139.935 133.662 139.443 133.803 138.973C134.002 138.307 134.186 137.592 133.98 136.929Z" fill="#579326"/>
<rect width="42.1229" height="22.0577" fill="black" fill-opacity="0" transform="translate(171.844 119.222)"/>
<rect width="26.3701" height="21.5716" fill="black" fill-opacity="0" transform="translate(187.597 119.222)"/>
<path d="M187.715 134.248C188.01 133.733 188.763 133.753 189.323 133.946C189.639 134.055 189.936 134.207 190.219 134.381C189.891 133.685 189.644 132.952 189.492 132.198C189.371 131.599 189.399 130.818 189.959 130.573C190.357 130.399 190.814 130.606 191.181 130.837C192.008 131.359 192.72 132.043 193.315 132.819C192.12 130.605 191.37 128.15 191.153 125.643C193.191 126.444 194.78 128.238 195.429 130.322C194.688 126.831 194.117 123.236 195.014 119.809C197.834 122.259 199.262 126.211 198.661 129.896C199.741 126.609 199.779 122.967 201.444 119.935C201.578 119.691 201.734 119.441 201.979 119.311C202.423 119.075 203.001 119.338 203.276 119.756C203.551 120.176 203.597 120.701 203.616 121.202C203.729 124.08 203.214 126.983 202.118 129.648C203.13 127.833 204.141 126.017 205.153 124.202C205.847 122.956 206.675 121.6 208.048 121.21C208.497 122.226 208.171 123.402 207.818 124.455C206.93 127.106 205.899 129.71 204.73 132.25C205.845 130.041 207.33 128.02 209.104 126.294C209.442 125.963 209.914 125.621 210.346 125.812C210.861 126.04 210.822 126.776 210.676 127.32C209.948 130.032 208.673 132.595 206.955 134.816C208.61 132.865 210.556 131.082 213.02 130.53C213.319 130.463 213.687 130.439 213.873 130.682C214.065 130.935 213.926 131.296 213.78 131.578C212.131 134.74 210.051 137.679 207.619 140.289L190.596 140.794C189.009 139.319 187.944 137.292 187.63 135.148C187.587 134.844 187.561 134.514 187.715 134.248Z" fill="#579326"/>
<rect width="24.3859" height="11.0952" fill="black" fill-opacity="0" transform="translate(171.844 130.185)"/>
<path d="M172.772 134.543C173.686 133.748 175.272 133.786 176.012 134.745C175.731 134.292 175.444 133.819 175.381 133.291C175.319 132.762 175.55 132.158 176.045 131.962C176.324 131.85 176.637 131.883 176.933 131.927C178.089 132.099 179.221 132.428 180.288 132.903C180.139 131.741 181.003 130.54 182.152 130.31C183.301 130.08 184.561 130.857 184.871 131.987C185.151 130.758 186.565 129.919 187.778 130.262C188.991 130.603 189.758 132.058 189.352 133.252C190.066 132.702 190.929 132.285 191.83 132.307C192.732 132.329 193.655 132.881 193.909 133.745C194.084 134.345 193.825 135.035 193.352 135.412C194.277 135.098 195.256 134.949 196.23 134.987C195.696 137.825 193.573 140.31 190.852 141.28L174.55 140.385C173.447 139.883 172.468 139.015 172.047 137.881C171.625 136.745 171.858 135.339 172.772 134.543Z" fill="#79A958"/>
<rect width="18.0671" height="18.2486" fill="black" fill-opacity="0" transform="translate(86.266 35.1013)"/>
<path d="M101.336 42.9674C101.336 42.9674 102.982 42.0907 103.093 40.3646C103.204 38.6391 101.678 36.3289 99.0399 36.159L91.6456 35.6824L91.3341 40.5056L87.1327 40.2343L86.9998 42.2904L91.2012 42.5612L91.0256 45.2877L86.8242 45.0164L86.6913 47.0726L90.8927 47.3434L90.6309 51.3968L97.4787 51.838C100.714 52.0464 103.602 50.4608 103.809 47.2551C103.976 45.4469 102.986 43.729 101.336 42.9674ZM94.3209 38.024L97.7238 38.2431C99.087 38.3313 100.451 39.0792 100.355 40.5735C100.259 42.0704 98.7268 42.7291 97.3564 42.6317L94.0373 42.4177L94.3209 38.024ZM97.4828 49.2352L93.6137 48.9857L93.9211 44.2178L97.7608 44.4653C100.312 44.63 101.305 45.7527 101.205 47.3008C101.105 48.8493 99.2113 49.3468 97.4828 49.2352Z" fill="#610806"/>
<path opacity="0.3" d="M101.842 44.461C101.842 44.461 103.488 43.5848 103.599 41.8583C103.711 40.1327 102.184 37.823 99.5461 37.6527L92.1514 37.176L91.8404 41.9987L87.6385 41.728L87.506 43.7846L91.7075 44.0554L91.5319 46.7814L87.33 46.5101L87.1976 48.5667L91.3985 48.8375L91.1372 52.89L97.985 53.3316C101.22 53.5405 104.108 51.9544 104.315 48.7493C104.482 46.9401 103.491 45.2226 101.842 44.461ZM94.8272 39.5177L98.2301 39.7367C99.5933 39.8249 100.958 40.5729 100.861 42.0667C100.764 43.5645 99.2331 44.2222 97.8622 44.1254L94.5436 43.9114L94.8272 39.5177ZM97.9886 50.7289L94.12 50.4794L94.4274 45.7115L98.2666 45.9589C100.818 46.1232 101.811 47.2463 101.711 48.7944C101.611 50.3425 99.7171 50.8404 97.9886 50.7289Z" fill="black"/>
<path d="M100.91 42.3868C100.91 42.3868 102.556 41.5101 102.667 39.7836C102.778 38.058 101.252 35.7483 98.6146 35.5785L91.2198 35.1013L90.9083 39.9245L86.7069 39.6532L86.5745 41.7099L90.7759 41.9807L90.5998 44.7067L86.3984 44.4354L86.266 46.492L90.4669 46.7628L90.2056 50.8158L97.0529 51.2574C100.289 51.4658 103.176 49.8797 103.383 46.6746C103.551 44.8659 102.56 43.1484 100.91 42.3868ZM93.8956 37.4429L97.298 37.6625C98.6617 37.7502 100.026 38.4982 99.9296 39.9925C99.8327 41.4898 98.3015 42.1475 96.9306 42.0507L93.612 41.8367L93.8956 37.4429ZM97.057 48.6542L93.1879 48.4047L93.4958 43.6368L97.335 43.8842C99.8865 44.049 100.879 45.1716 100.779 46.7197C100.679 48.2683 98.7855 48.7657 97.057 48.6542Z" fill="#92EBDE"/>
</svg>
