<svg width="176" height="121" viewBox="0 0 176 121" fill="none" xmlns="http://www.w3.org/2000/svg">
<path opacity="0.3" d="M175.626 114.459C175.626 117.775 136.311 120.463 87.8133 120.463C39.3152 120.463 0 117.775 0 114.459C0 111.142 39.3152 108.454 87.8133 108.454C136.311 108.454 175.626 111.142 175.626 114.459Z" fill="black"/>
<path d="M167.504 102.421C167.054 100.961 165.408 99.7694 164.009 100.37C165.524 98.8395 167.142 97.0736 167.16 94.9144C167.175 92.7565 164.428 90.74 162.847 92.2047C163.548 90.9602 164.137 89.5503 163.919 88.1384C163.702 86.7246 162.39 85.4061 160.989 85.6622C163.444 83.5056 162.948 78.9067 160.093 77.3253C161.023 75.7953 161.526 74.0052 161.53 72.2118C161.532 71.3921 161.378 70.4732 160.718 69.9888C160.206 69.6131 159.365 69.7967 159.059 70.2748C159.477 68.3796 158.857 66.2754 157.436 64.9538C156.871 64.4282 156.154 64.011 155.385 64.0144C153.977 64.0197 152.912 65.4607 152.8 66.8687C152.689 68.2783 153.269 69.639 153.839 70.9318C151.317 70.4874 149.057 73.0134 148.784 75.5686C148.51 78.1269 149.625 80.602 150.712 82.9318C150.298 81.9163 148.824 81.7198 147.908 82.318C146.993 82.9179 146.547 84.0246 146.3 85.0923C145.46 88.7112 146.353 92.694 148.654 95.6003C147.328 94.1731 144.707 95.7291 144.495 97.669C144.282 99.6088 145.522 101.375 146.699 102.929C146.021 101.586 143.794 101.858 143.002 103.136C142.209 104.413 142.524 106.101 143.182 107.456C143.839 108.809 144.805 110.006 145.336 111.413L165.633 109.742C166.446 109.038 166.808 107.953 167.114 106.918C167.549 105.455 167.953 103.882 167.504 102.421Z" fill="#79A958"/>
<path d="M12.4204 37.7577L19.2533 36.0149V43.9034L23.2186 48.7414V104.405L17.8188 108.219V107.109L21.7907 103.411L21.9859 49.7125L14.5672 45.6486L12.4204 37.7577Z" fill="#494252"/>
<path d="M11.5315 36.9102V38.6181L20.1348 36.3893V34.804L11.5315 36.9102Z" fill="#2E2933"/>
<path d="M21.5864 54.3914V56.5081L25.2322 56.2892L25.1579 54.3914H21.5864Z" fill="#2E2933"/>
<path d="M21.5865 77.427L20.9165 79.5427L25.1581 79.5605L25.0509 77.427H21.5865Z" fill="#2E2933"/>
<path d="M20.9165 101.481L21.7909 103.411L24.2656 103.183L24.3346 101.53L20.9165 101.481Z" fill="#2E2933"/>
<path d="M161.717 37.7575L154.885 36.0146V43.9032L150.919 48.7411V104.405L156.319 108.219V107.108L152.347 103.411L152.152 49.7123L159.57 45.6483L161.717 37.7575Z" fill="#494252"/>
<path d="M162.607 36.9099V38.6178L154.003 36.3891V34.8037L162.607 36.9099Z" fill="#2E2933"/>
<path d="M152.551 54.3914V56.5081L148.906 56.2892L148.98 54.3914H152.551Z" fill="#2E2933"/>
<path d="M152.551 77.427L153.221 79.5427L148.98 79.5605L149.087 77.427H152.551Z" fill="#2E2933"/>
<path d="M153.222 101.481L152.348 103.411L149.872 103.183L149.804 101.53L153.222 101.481Z" fill="#2E2933"/>
<path opacity="0.4" d="M151.268 107.119L48.0022 105.822L48.3419 115.037L152.642 115.899L157.313 114.32L151.268 107.119Z" fill="#7466A4"/>
<path d="M151.63 109.717H22.4546L23.0697 102.554H151.22L151.63 109.717Z" fill="#B7A5AC" stroke="#B7A5AC" stroke-width="1.01715" stroke-miterlimit="10"/>
<path opacity="0.7" d="M151.304 104.012L151.221 102.554H23.0703L22.9448 104.012H151.304Z" fill="#B7A5AC" stroke="#B7A5AC" stroke-width="1.01715" stroke-miterlimit="10"/>
<path d="M149.763 7.35986H24.071V102.546H149.763V7.35986Z" fill="#499CBD"/>
<path d="M143.573 109.64V109.64L142.256 109.062H104.688L103.559 109.64H22.2498V111.625H151.63V109.64H143.573Z" fill="#585E66"/>
<path d="M25.2321 5.45386H23.9336V102.48H25.2321V5.45386Z" fill="#FFE9D4"/>
<path d="M150.302 7.42114H149.003V102.556H150.302V7.42114Z" fill="#CC965A"/>
<path d="M143.574 110.207L142.256 109.63H110.836L103.559 110.207H109.707H22.2499L20.5588 113.488L152.255 113.625L151.63 110.207H143.574Z" fill="url(#paint0_linear)"/>
<path d="M152.938 111.85H20.5588V115.965H152.938V111.85Z" fill="#A1A5B2"/>
<path d="M152.938 111.85H20.5588V112.879H152.938V111.85Z" fill="#F0F1FC"/>
<g opacity="0.6">
<g opacity="0.6">
<path opacity="0.6" d="M28.8596 111.85H28.2444V115.964H28.8596V111.85Z" fill="#84929D"/>
</g>
<g opacity="0.6">
<path opacity="0.6" d="M68.2042 116.009L68.1812 111.78L67.5659 111.783L67.5889 116.012L68.2042 116.009Z" fill="#84929D"/>
</g>
<g opacity="0.6">
<path opacity="0.6" d="M107.549 116.054L107.503 111.709L106.887 111.716L106.933 116.06L107.549 116.054Z" fill="#84929D"/>
</g>
<g opacity="0.6">
<path opacity="0.6" d="M146.893 116.098L146.824 111.639L146.209 111.649L146.278 116.107L146.893 116.098Z" fill="#84929D"/>
</g>
</g>
<path opacity="0.3" d="M151.63 109.717H150.547L150.137 102.554H151.22L151.63 109.717Z" fill="#A15466"/>
<path d="M104.726 109.14L103.559 109.717L103.548 102.554H104.722L104.726 109.14Z" fill="#C9CACE"/>
<path d="M142.248 109.14L143.573 109.717L143.577 102.554H142.248V109.14Z" fill="#FFE9D4"/>
<path opacity="0.5" d="M142.166 108.419H104.715V109.107H142.166V108.419Z" fill="#A15466"/>
<path opacity="0.7" d="M150.244 8.21484H24.071V10.516H150.244V8.21484Z" fill="url(#paint1_linear)"/>
<path d="M151.551 0.432373H22.3296V8.94618H151.551V0.432373Z" fill="#E5DADF"/>
<path opacity="0.4" d="M23.1939 0.432373H22.3296V8.94618H23.1939V0.432373Z" fill="#FFE9D4"/>
<path opacity="0.4" d="M151.493 0.391846H150.425V8.9618H151.493V0.391846Z" fill="#C4B7BC"/>
<path opacity="0.6" d="M151.492 7.88525H22.3215V8.95791H151.492V7.88525Z" fill="#C4B7BC"/>
<path opacity="0.9" d="M151.492 2.59863H22.2476V5.7754H151.492V2.59863Z" fill="url(#paint2_linear)"/>
<path opacity="0.7" d="M150.243 41.5713H24.0708V43.8725H150.243V41.5713Z" fill="url(#paint3_linear)"/>
<path d="M151.55 33.7888H22.3293V42.3024H151.55V33.7888Z" fill="#E5DADF"/>
<path opacity="0.4" d="M23.1936 33.7888H22.3293V42.3024H23.1936V33.7888Z" fill="#FFE9D4"/>
<path opacity="0.4" d="M151.493 33.7483H150.425V42.3182H151.493V33.7483Z" fill="#C4B7BC"/>
<path opacity="0.6" d="M151.492 41.2417H22.3215V42.3141H151.492V41.2417Z" fill="#C4B7BC"/>
<path opacity="0.9" d="M151.492 35.9553H22.2476V39.1321H151.492V35.9553Z" fill="url(#paint4_linear)"/>
<path d="M106.339 48.5427H68.7898V109.911H106.339V48.5427Z" fill="url(#paint5_linear)"/>
<g opacity="0.2">
<path opacity="0.2" d="M102.241 52.6581V105.795H72.8884V52.6581H102.241ZM106.339 48.5427H68.7898V109.911H106.339V48.5427Z" fill="#A15466"/>
</g>
<path d="M103.47 51.4235V107.03H71.6589V51.4235H103.47ZM106.339 48.5427H68.7898V109.911H106.339V48.5427Z" fill="#B75A41"/>
<path opacity="0.3" d="M90.5239 94.6197L98.0158 51.4841H101.602L94.4365 94.6197H90.5239Z" fill="#CCB6A8"/>
<path opacity="0.3" d="M75.4626 94.6197L82.9545 51.4841H86.5404L79.3747 94.6197H75.4626Z" fill="#CCB6A8"/>
<path d="M68.7903 48.5427H67.6235V110.528H68.7903V48.5427Z" fill="#C9CACE"/>
<path opacity="0.4" d="M69.9681 48.5427H68.8013V110.528H69.9681V48.5427Z" fill="#A15466"/>
<path opacity="0.4" d="M106.308 48.5427H105.141V110.528H106.308V48.5427Z" fill="#A15466"/>
<path d="M107.637 48.5427H106.339V110.494H107.637V48.5427Z" fill="#FFE9D4"/>
<g opacity="0.2">
<path opacity="0.2" d="M91.1516 67.5282H103.326L103.738 66.4288H91.1516V51.5528L83.9793 51.5522V66.4288H71.6147L71.9147 67.5282H83.9793V81.5L71.6147 81.5003L71.9147 82.6005H83.9793V95.8588H91.1516V82.6005H103.326L103.738 81.5L91.1516 81.5003V67.5282Z" fill="#A15466"/>
</g>
<path d="M68.7896 109.95L67.6228 110.528L67.6118 103.365H68.7859L68.7896 109.95Z" fill="#C9CACE"/>
<path d="M106.312 109.951L107.637 110.528L107.641 103.365H106.312V109.951Z" fill="#FFE9D4"/>
<path d="M90.3228 48.5427H88.1208V107.35H90.3228V48.5427Z" fill="#B75A41"/>
<path d="M87.3855 48.5427H85.1836V107.35H87.3855V48.5427Z" fill="#B75A41"/>
<path d="M88.176 48.5427H87.3306V109.819H88.176V48.5427Z" fill="#6B392F"/>
<path opacity="0.5" d="M106.23 109.23H68.7793V109.918H106.23V109.23Z" fill="#A15466"/>
<path d="M104.676 79.4128H89.4268V81.6232H104.676V79.4128Z" fill="#B75A41"/>
<path d="M104.676 64.2896H89.4268V66.5005H104.676V64.2896Z" fill="#B75A41"/>
<path d="M104.676 49.1667H89.4268V51.3771H104.676V49.1667Z" fill="#B75A41"/>
<path d="M89.4265 94.5356V106.984V107.515V109.195L104.676 109.195V107.518V106.985V94.5383L89.4265 94.5356Z" fill="#B75A41"/>
<path d="M70.9839 106.984V107.515V109.195L86.2329 109.195V107.518V106.985V94.5383L70.9839 94.5356V106.984Z" fill="#B75A41"/>
<path d="M86.2329 79.4128H70.9839V81.6232H86.2329V79.4128Z" fill="#B75A41"/>
<path d="M86.2329 64.2896H70.9839V66.5005H86.2329V64.2896Z" fill="#B75A41"/>
<path d="M86.2329 49.1667H70.9839V51.3771H86.2329V49.1667Z" fill="#B75A41"/>
<path d="M84.7915 95.8542L71.9147 95.8548L71.6147 94.5486H85.2036L84.7915 95.8542Z" fill="#E0754B"/>
<path d="M86.0613 79.9078H71.9147L71.6147 79.4255H85.449L86.0613 79.9078Z" fill="#E0754B"/>
<path d="M86.0613 64.7503L71.9147 64.7506L71.6147 64.2683H85.449L86.0613 64.7503Z" fill="#E0754B"/>
<path opacity="0.3" d="M72.0269 66.0857L85.149 66.0852L85.449 66.5688H71.6147L72.0269 66.0857Z" fill="#6B392F"/>
<path opacity="0.3" d="M90.6838 66.0857L103.558 66.0852L103.858 66.5688H90.272L90.6838 66.0857Z" fill="#6B392F"/>
<path opacity="0.3" d="M72.0269 81.1748H85.149L85.449 81.6571H71.6147L72.0269 81.1748Z" fill="#6B392F"/>
<path opacity="0.3" d="M90.7058 81.1748H103.36L103.66 81.6571H90.2935L90.7058 81.1748Z" fill="#6B392F"/>
<path opacity="0.3" d="M72.0269 50.9282L85.149 50.928L85.449 51.4105H71.6147L72.0269 50.9282Z" fill="#6B392F"/>
<path opacity="0.3" d="M90.4355 50.928H103.558L103.858 51.4105H90.0234L90.4355 50.928Z" fill="#6B392F"/>
<path d="M103.068 95.8542L90.6118 95.8548L90.3118 94.5486H103.479L103.068 95.8542Z" fill="#E0754B"/>
<path d="M104.103 79.9078H90.593L90.2925 79.4255H103.49L104.103 79.9078Z" fill="#E0754B"/>
<path d="M104.095 64.7503L90.6291 64.7506L90.3291 64.2683H103.483L104.095 64.7503Z" fill="#E0754B"/>
<path opacity="0.2" d="M106.5 48.5427H68.7909V109.951L67.6235 110.528L73.0967 109.951V55.2557H100.385H102.76L106.5 48.5427Z" fill="#A15466"/>
<path d="M54.9426 84.197H37.6743V84.3917H54.9426V84.197Z" fill="#578CB7"/>
<path d="M54.9426 83.9854H37.6743V84.1971H54.9426V83.9854Z" fill="#578BB6"/>
<path d="M54.9426 83.7729H37.6743V83.985H54.9426V83.7729Z" fill="#568BB5"/>
<path d="M54.9426 83.562H37.6743V83.773H54.9426V83.562Z" fill="#568AB4"/>
<path d="M54.9426 83.3501H37.6743V83.5621H54.9426V83.3501Z" fill="#5689B3"/>
<path d="M54.9426 83.1387H37.6743V83.3504H54.9426V83.1387Z" fill="#5588B2"/>
<path d="M54.9426 82.9268H37.6743V83.1388H54.9426V82.9268Z" fill="#5588B1"/>
<path d="M54.9426 82.7148H37.6743V82.9263H54.9426V82.7148Z" fill="#5587B0"/>
<path d="M54.9426 82.5032H37.6743V82.7149H54.9426V82.5032Z" fill="#5486AF"/>
<path d="M54.9426 82.291H37.6743V82.503H54.9426V82.291Z" fill="#5485AE"/>
<path d="M54.9426 82.0791H37.6743V82.2911H54.9426V82.0791Z" fill="#5485AD"/>
<path d="M54.9426 81.8677H37.6743V82.0794H54.9426V81.8677Z" fill="#5384AC"/>
<path d="M54.9426 81.6555H37.6743V81.8675H54.9426V81.6555Z" fill="#5383AB"/>
<path d="M54.9426 81.4446H37.6743V81.6555H54.9426V81.4446Z" fill="#5383AA"/>
<path d="M54.9426 81.2327H37.6743V81.4444H54.9426V81.2327Z" fill="#5282A9"/>
<path d="M54.9426 81.0208H37.6743V81.2328H54.9426V81.0208Z" fill="#5281A8"/>
<path d="M54.9426 80.8088H37.6743V81.0208H54.9426V80.8088Z" fill="#5280A7"/>
<path d="M54.9426 80.5969H37.6743V80.8084H54.9426V80.5969Z" fill="#5180A6"/>
<path d="M54.9426 80.3857H37.6743V80.5972H54.9426V80.3857Z" fill="#517FA5"/>
<path d="M54.9426 80.1738H37.6743V80.3856H54.9426V80.1738Z" fill="#517EA4"/>
<path d="M54.9426 79.9619H37.6743V80.1739H54.9426V79.9619Z" fill="#507DA3"/>
<path d="M54.9426 79.7502H37.6743V79.962H54.9426V79.7502Z" fill="#507DA2"/>
<path d="M54.9426 79.5383H37.6743V79.7503H54.9426V79.5383Z" fill="#4F7CA1"/>
<path d="M54.9426 79.3259H37.6743V79.5379H54.9426V79.3259Z" fill="#4F7BA0"/>
<path d="M54.9426 79.1147H37.6743V79.3262H54.9426V79.1147Z" fill="#4F7A9F"/>
<path d="M54.9426 78.9028H37.6743V79.1146H54.9426V78.9028Z" fill="#4E7A9E"/>
<path d="M54.9426 78.6909H37.6743V78.9029H54.9426V78.6909Z" fill="#4E799D"/>
<path d="M54.9426 78.4792H37.6743V78.691H54.9426V78.4792Z" fill="#4E789C"/>
<path d="M54.9426 78.2681H37.6743V78.479H54.9426V78.2681Z" fill="#4D789B"/>
<path d="M54.9426 78.0562H37.6743V78.2682H54.9426V78.0562Z" fill="#4D779A"/>
<path d="M54.9426 77.8442H37.6743V78.0563H54.9426V77.8442Z" fill="#4D7699"/>
<path d="M54.9426 77.6326H37.6743V77.8443H54.9426V77.6326Z" fill="#4C7598"/>
<path d="M54.9426 77.4207H37.6743V77.6327H54.9426V77.4207Z" fill="#4C7596"/>
<path d="M54.9426 77.2087H37.6743V77.4205H54.9426V77.2087Z" fill="#4C7495"/>
<path d="M54.9426 76.9978H37.6743V77.2088H54.9426V76.9978Z" fill="#4B7394"/>
<path d="M54.9426 76.7856H37.6743V76.9977H54.9426V76.7856Z" fill="#4B7293"/>
<path d="M54.9426 76.5737H37.6743V76.7857H54.9426V76.5737Z" fill="#4A7292"/>
<path d="M54.9426 76.3618H37.6743V76.5738H54.9426V76.3618Z" fill="#4A7191"/>
<path d="M54.9426 76.1504H37.6743V76.3616H54.9426V76.1504Z" fill="#4A7090"/>
<path d="M54.9426 75.9385H37.6743V76.1505H54.9426V75.9385Z" fill="#496F8F"/>
<path d="M54.9426 75.7268H37.6743V75.9386H54.9426V75.7268Z" fill="#496F8E"/>
<path d="M54.9426 75.5146H37.6743V75.7267H54.9426V75.5146Z" fill="#496E8D"/>
<path d="M54.9426 75.3027H37.6743V75.5147H54.9426V75.3027Z" fill="#486D8C"/>
<path d="M54.9426 75.0908H37.6743V75.3028H54.9426V75.0908Z" fill="#486C8B"/>
<path d="M54.9426 74.8794H37.6743V75.0906H54.9426V74.8794Z" fill="#486C8A"/>
<path d="M54.9426 74.668H37.6743V74.8795H54.9426V74.668Z" fill="#476B89"/>
<path d="M54.9426 74.4561H37.6743V74.6681H54.9426V74.4561Z" fill="#476A88"/>
<path d="M54.9426 74.2441H37.6743V74.4559H54.9426V74.2441Z" fill="#476987"/>
<path d="M54.9426 74.0322H37.6743V74.2442H54.9426V74.0322Z" fill="#466986"/>
<path d="M54.9426 73.821H37.6743V74.032H54.9426V73.821Z" fill="#466885"/>
<path d="M54.9426 73.6091H37.6743V73.8211H54.9426V73.6091Z" fill="#456784"/>
<path d="M54.9426 73.3975H37.6743V73.6092H54.9426V73.3975Z" fill="#456683"/>
<path d="M54.9426 73.1855H37.6743V73.3976H54.9426V73.1855Z" fill="#456682"/>
<path d="M54.9426 72.9736H37.6743V73.1854H54.9426V72.9736Z" fill="#446581"/>
<path d="M54.9426 72.7617H37.6743V72.9737H54.9426V72.7617Z" fill="#446480"/>
<path d="M54.9426 72.55H37.6743V72.7615H54.9426V72.55Z" fill="#44637F"/>
<path d="M54.9426 72.3381H37.6743V72.5501H54.9426V72.3381Z" fill="#43637E"/>
<path d="M54.9426 72.1265H37.6743V72.3382H54.9426V72.1265Z" fill="#43627C"/>
<path d="M54.9426 71.9146H37.6743V72.1266H54.9426V71.9146Z" fill="#43617B"/>
<path d="M54.9426 71.7034H37.6743V71.9143H54.9426V71.7034Z" fill="#42607A"/>
<path d="M54.9426 71.4917H37.6743V71.7034H54.9426V71.4917Z" fill="#426079"/>
<path d="M54.9426 71.2798H37.6743V71.4918H54.9426V71.2798Z" fill="#415F78"/>
<path d="M54.9426 71.0679H37.6743V71.2799H54.9426V71.0679Z" fill="#415E77"/>
<path d="M54.9426 70.8557H37.6743V71.0677H54.9426V70.8557Z" fill="#415D76"/>
<path d="M54.9426 70.6438H37.6743V70.8555H54.9426V70.6438Z" fill="#405C75"/>
<path d="M54.9426 70.4319H37.6743V70.6439H54.9426V70.4319Z" fill="#405C74"/>
<path d="M54.9426 70.2209H37.6743V70.4319H54.9426V70.2209Z" fill="#405B73"/>
<path d="M54.9426 70.0093H37.6743V70.221H54.9426V70.0093Z" fill="#3F5A72"/>
<path d="M54.9426 69.7971H37.6743V70.0091H54.9426V69.7971Z" fill="#3F5971"/>
<path d="M54.9426 69.585H37.6743V69.797H54.9426V69.585Z" fill="#3F5970"/>
<path d="M54.9426 69.3738H37.6743V69.5853H54.9426V69.3738Z" fill="#3E586F"/>
<path d="M54.9426 69.1619H37.6743V69.3736H54.9426V69.1619Z" fill="#3E576E"/>
<path d="M54.9426 68.95H37.6743V69.162H54.9426V68.95Z" fill="#3D566D"/>
<path d="M54.9426 68.7383H37.6743V68.95H54.9426V68.7383Z" fill="#3D566C"/>
<path d="M54.9426 68.5261H37.6743V68.7381H54.9426V68.5261Z" fill="#3D556B"/>
<path d="M54.9426 68.3147H37.6743V68.5262H54.9426V68.3147Z" fill="#3C5469"/>
<path d="M54.9426 68.103H37.6743V68.3145H54.9426V68.103Z" fill="#3C5368"/>
<path d="M54.9426 67.8916H37.6743V68.1034H54.9426V67.8916Z" fill="#3C5367"/>
<path d="M54.9426 67.6797H37.6743V67.8917H54.9426V67.6797Z" fill="#3B5266"/>
<path d="M54.9426 67.4675H37.6743V67.6795H54.9426V67.4675Z" fill="#3B5165"/>
<path d="M54.9426 67.2566H37.6743V67.4673H54.9426V67.2566Z" fill="#3B5064"/>
<path d="M54.9426 67.0447H37.6743V67.2567H54.9426V67.0447Z" fill="#3A4F63"/>
<path d="M54.9426 66.8328H37.6743V67.0448H54.9426V66.8328Z" fill="#3A4F62"/>
<path d="M54.9426 66.6208H37.6743V66.8329H54.9426V66.6208Z" fill="#394E61"/>
<path d="M54.9426 66.4089H37.6743V66.6207H54.9426V66.4089Z" fill="#394D60"/>
<path d="M54.9426 66.1968H37.6743V66.4088H54.9426V66.1968Z" fill="#394C5F"/>
<path d="M54.9426 65.9851H37.6743V66.1969H54.9426V65.9851Z" fill="#384C5E"/>
<path d="M54.9426 65.7737H37.6743V65.9852H54.9426V65.7737Z" fill="#384B5D"/>
<path d="M54.9426 65.5618H37.6743V65.7738H54.9426V65.5618Z" fill="#384A5C"/>
<path d="M54.9426 65.3499H37.6743V65.5619H54.9426V65.3499Z" fill="#37495B"/>
<path d="M54.9426 65.1384H37.6743V65.3497H54.9426V65.1384Z" fill="#37495A"/>
<path d="M54.9426 64.927H37.6743V65.1385H54.9426V64.927Z" fill="#364858"/>
<path d="M54.9426 64.7148H37.6743V64.9269H54.9426V64.7148Z" fill="#364757"/>
<path d="M54.9426 64.5032H37.6743V64.7149H54.9426V64.5032Z" fill="#364656"/>
<path d="M54.9426 64.2913H37.6743V64.5033H54.9426V64.2913Z" fill="#354555"/>
<path d="M54.9426 64.0789H37.6743V64.2909H54.9426V64.0789Z" fill="#354554"/>
<path d="M54.9426 63.8669H37.6743V64.079H54.9426V63.8669Z" fill="#354453"/>
<path d="M54.9426 63.6565H37.6743V63.8672H54.9426V63.6565Z" fill="#344352"/>
<path d="M54.9426 63.4446H37.6743V63.6566H54.9426V63.4446Z" fill="#344251"/>
<path d="M54.9426 63.2327H37.6743V63.4447H54.9426V63.2327Z" fill="#344250"/>
<path d="M54.9426 63.0205H37.6743V63.2323H54.9426V63.0205Z" fill="#33414F"/>
<path d="M54.9426 62.8091H37.6743V63.0206H54.9426V62.8091Z" fill="#33404E"/>
<path d="M54.9426 62.5972H37.6743V62.8092H54.9426V62.5972Z" fill="#323F4D"/>
<path d="M54.9426 62.385H37.6743V62.597H54.9426V62.385Z" fill="#323E4C"/>
<path d="M54.9426 62.1736H37.6743V62.3853H54.9426V62.1736Z" fill="#323E4A"/>
<path d="M54.9426 61.9617H37.6743V62.1737H54.9426V61.9617Z" fill="#313D49"/>
<path d="M54.9426 61.75H37.6743V61.9612H54.9426V61.75Z" fill="#313C48"/>
<path d="M54.9426 61.5381H37.6743V61.7501H54.9426V61.5381Z" fill="#313B47"/>
<path d="M54.9426 61.3267H37.6743V61.5381H54.9426V61.3267Z" fill="#303B46"/>
<path d="M54.9426 61.1147H37.6743V61.3268H54.9426V61.1147Z" fill="#303A45"/>
<path d="M54.9426 60.9031H37.6743V61.1148H54.9426V60.9031Z" fill="#2F3944"/>
<path d="M54.9426 60.6907H37.6743V60.9027H54.9426V60.6907Z" fill="#2F3843"/>
<path d="M54.9426 60.48H37.6743V60.6909H54.9426V60.48Z" fill="#2F3742"/>
<path d="M54.9426 60.2681H37.6743V60.4798H54.9426V60.2681Z" fill="#2E3741"/>
<path d="M54.9426 60.0562H37.6743V60.2682H54.9426V60.0562Z" fill="#2E3640"/>
<path d="M54.9426 59.8442H37.6743V60.0563H54.9426V59.8442Z" fill="#2E353F"/>
<path d="M54.9426 59.6321H37.6743V59.8441H54.9426V59.6321Z" fill="#2D343D"/>
<path d="M54.9426 59.4204H37.6743V59.6322H54.9426V59.4204Z" fill="#2D333C"/>
<path d="M54.9426 59.2458H37.6743V59.4203H54.9426V59.2458Z" fill="#2C333B"/>
<g opacity="0.2">
<g opacity="0.2">
<path opacity="0.2" d="M52.8789 61.3185V82.3184H39.7377V61.3185H52.8789ZM54.9431 59.2458H37.6743V84.3911H54.9431V59.2458Z" fill="#A15466"/>
</g>
</g>
<path d="M56.097 85.5492H36.5215V58.0881H56.097V85.5492ZM38.8282 83.2331H53.7903V60.404H38.8282V83.2331Z" fill="#B75A41"/>
<g opacity="0.5">
<path opacity="0.5" d="M41.7083 83.2115L46.0353 60.3528H49.6888L45.5738 83.2115H41.7083Z" fill="#CCB6A8"/>
</g>
<g opacity="0.4">
<path opacity="0.4" d="M56.0662 59.2458H55.7502V87.5809H36.5479L36.8403 89.3237H57.4632L56.5099 85.9683L56.0662 59.2458Z" fill="#A15466"/>
</g>
<path d="M56.5258 85.4587H35.9805V87.714H56.5258V85.4587Z" fill="#F0F1FC"/>
<g opacity="0.8">
<g opacity="0.8">
<path opacity="0.8" d="M36.1788 85.4585L36.1579 86.428H35.98V85.4585H36.1788Z" fill="#EED07B"/>
<path opacity="0.8" d="M37.0165 85.4585L36.9953 86.428H36.158L36.1789 85.4585H37.0165Z" fill="#EED079"/>
<path opacity="0.8" d="M37.8527 85.4585L37.8315 86.428H36.9941L37.0153 85.4585H37.8527Z" fill="#EECF78"/>
<path opacity="0.8" d="M38.6896 85.4585L38.6684 86.428H37.8308L37.852 85.4585H38.6896Z" fill="#EECF77"/>
<path opacity="0.8" d="M39.526 85.4585L39.5051 86.428H38.6675L38.6887 85.4585H39.526Z" fill="#EDCE75"/>
<path opacity="0.8" d="M40.3627 85.4585L40.3415 86.428H39.5042L39.5251 85.4585H40.3627Z" fill="#EDCE74"/>
<path opacity="0.8" d="M41.1994 85.4585L41.1782 86.428H40.3406L40.3618 85.4585H41.1994Z" fill="#EDCD73"/>
<path opacity="0.8" d="M42.036 85.4585L42.0148 86.428H41.1775L41.1987 85.4585H42.036Z" fill="#EDCD72"/>
<path opacity="0.8" d="M42.8724 85.4585L42.8515 86.428H42.0139L42.0351 85.4585H42.8724Z" fill="#ECCC70"/>
<path opacity="0.8" d="M43.7094 85.4585L43.6882 86.428H42.8508L42.8718 85.4585H43.7094Z" fill="#ECCC6F"/>
<path opacity="0.8" d="M44.546 85.4585L44.5246 86.428H43.6873L43.7084 85.4585H44.546Z" fill="#ECCB6E"/>
<path opacity="0.8" d="M45.3827 85.4585L45.3615 86.428H44.5239L44.5454 85.4585H45.3827Z" fill="#ECCB6D"/>
<path opacity="0.8" d="M46.2191 85.4585L46.1982 86.428H45.3604L45.3815 85.4585H46.2191Z" fill="#ECCA6B"/>
<path opacity="0.8" d="M47.0558 85.4585L47.0349 86.428H46.1975L46.2184 85.4585H47.0558Z" fill="#EBCA6A"/>
<path opacity="0.8" d="M47.8925 85.4585L47.8713 86.428H47.0339L47.0549 85.4585H47.8925Z" fill="#EBC969"/>
<path opacity="0.8" d="M48.7291 85.4585L48.7079 86.428H47.8706L47.8918 85.4585H48.7291Z" fill="#EBC968"/>
<path opacity="0.8" d="M49.5656 85.4585L49.5446 86.428H48.707L48.7282 85.4585H49.5656Z" fill="#EBC967"/>
<path opacity="0.8" d="M50.4022 85.4585L50.3813 86.428H49.5437L49.5646 85.4585H50.4022Z" fill="#EBC866"/>
<path opacity="0.8" d="M51.2394 85.4585L51.218 86.428H50.3806L50.4015 85.4585H51.2394Z" fill="#EBC865"/>
<path opacity="0.8" d="M52.0758 85.4585L52.0546 86.428H51.217L51.2385 85.4585H52.0758Z" fill="#EAC764"/>
<path opacity="0.8" d="M52.9128 85.4585L52.8913 86.428H52.0537L52.0749 85.4585H52.9128Z" fill="#EAC763"/>
<path opacity="0.8" d="M53.7497 85.4585L53.728 86.428H52.8906L52.9121 85.4585H53.7497Z" fill="#EAC762"/>
<path opacity="0.8" d="M54.5856 85.4585L54.5644 86.428H53.7271L53.7488 85.4585H54.5856Z" fill="#EAC661"/>
<path opacity="0.8" d="M55.4223 85.4585L55.4008 86.428H54.5635L54.5847 85.4585H55.4223Z" fill="#EAC660"/>
<path opacity="0.8" d="M56.2595 85.4585L56.2375 86.428H55.3999L55.4214 85.4585H56.2595Z" fill="#E9C55F"/>
<path opacity="0.8" d="M56.2368 86.428L56.2588 85.4585H56.5267V86.428H56.2368Z" fill="#E9C55E"/>
</g>
</g>
<path d="M135.967 84.197H118.699V84.3917H135.967V84.197Z" fill="#578CB7"/>
<path d="M135.967 83.9854H118.699V84.1971H135.967V83.9854Z" fill="#578BB6"/>
<path d="M135.967 83.7729H118.699V83.985H135.967V83.7729Z" fill="#568BB5"/>
<path d="M135.967 83.562H118.699V83.773H135.967V83.562Z" fill="#568AB4"/>
<path d="M135.967 83.3501H118.699V83.5621H135.967V83.3501Z" fill="#5689B3"/>
<path d="M135.967 83.1387H118.699V83.3504H135.967V83.1387Z" fill="#5588B2"/>
<path d="M135.967 82.9268H118.699V83.1388H135.967V82.9268Z" fill="#5588B1"/>
<path d="M135.967 82.7148H118.699V82.9263H135.967V82.7148Z" fill="#5587B0"/>
<path d="M135.967 82.5032H118.699V82.7149H135.967V82.5032Z" fill="#5486AF"/>
<path d="M135.967 82.291H118.699V82.503H135.967V82.291Z" fill="#5485AE"/>
<path d="M135.967 82.0791H118.699V82.2911H135.967V82.0791Z" fill="#5485AD"/>
<path d="M135.967 81.8677H118.699V82.0794H135.967V81.8677Z" fill="#5384AC"/>
<path d="M135.967 81.6555H118.699V81.8675H135.967V81.6555Z" fill="#5383AB"/>
<path d="M135.967 81.4446H118.699V81.6555H135.967V81.4446Z" fill="#5383AA"/>
<path d="M135.967 81.2327H118.699V81.4444H135.967V81.2327Z" fill="#5282A9"/>
<path d="M135.967 81.0208H118.699V81.2328H135.967V81.0208Z" fill="#5281A8"/>
<path d="M135.967 80.8088H118.699V81.0208H135.967V80.8088Z" fill="#5280A7"/>
<path d="M135.967 80.5969H118.699V80.8084H135.967V80.5969Z" fill="#5180A6"/>
<path d="M135.967 80.3857H118.699V80.5972H135.967V80.3857Z" fill="#517FA5"/>
<path d="M135.967 80.1738H118.699V80.3856H135.967V80.1738Z" fill="#517EA4"/>
<path d="M135.967 79.9619H118.699V80.1739H135.967V79.9619Z" fill="#507DA3"/>
<path d="M135.967 79.7502H118.699V79.962H135.967V79.7502Z" fill="#507DA2"/>
<path d="M135.967 79.5383H118.699V79.7503H135.967V79.5383Z" fill="#4F7CA1"/>
<path d="M135.967 79.3259H118.699V79.5379H135.967V79.3259Z" fill="#4F7BA0"/>
<path d="M135.967 79.1147H118.699V79.3262H135.967V79.1147Z" fill="#4F7A9F"/>
<path d="M135.967 78.9028H118.699V79.1146H135.967V78.9028Z" fill="#4E7A9E"/>
<path d="M135.967 78.6909H118.699V78.9029H135.967V78.6909Z" fill="#4E799D"/>
<path d="M135.967 78.4792H118.699V78.691H135.967V78.4792Z" fill="#4E789C"/>
<path d="M135.967 78.2681H118.699V78.479H135.967V78.2681Z" fill="#4D789B"/>
<path d="M135.967 78.0562H118.699V78.2682H135.967V78.0562Z" fill="#4D779A"/>
<path d="M135.967 77.8442H118.699V78.0563H135.967V77.8442Z" fill="#4D7699"/>
<path d="M135.967 77.6326H118.699V77.8443H135.967V77.6326Z" fill="#4C7598"/>
<path d="M135.967 77.4207H118.699V77.6327H135.967V77.4207Z" fill="#4C7596"/>
<path d="M135.967 77.2087H118.699V77.4205H135.967V77.2087Z" fill="#4C7495"/>
<path d="M135.967 76.9978H118.699V77.2088H135.967V76.9978Z" fill="#4B7394"/>
<path d="M135.967 76.7856H118.699V76.9977H135.967V76.7856Z" fill="#4B7293"/>
<path d="M135.967 76.5737H118.699V76.7857H135.967V76.5737Z" fill="#4A7292"/>
<path d="M135.967 76.3618H118.699V76.5738H135.967V76.3618Z" fill="#4A7191"/>
<path d="M135.967 76.1504H118.699V76.3616H135.967V76.1504Z" fill="#4A7090"/>
<path d="M135.967 75.9385H118.699V76.1505H135.967V75.9385Z" fill="#496F8F"/>
<path d="M135.967 75.7268H118.699V75.9386H135.967V75.7268Z" fill="#496F8E"/>
<path d="M135.967 75.5146H118.699V75.7267H135.967V75.5146Z" fill="#496E8D"/>
<path d="M135.967 75.3027H118.699V75.5147H135.967V75.3027Z" fill="#486D8C"/>
<path d="M135.967 75.0908H118.699V75.3028H135.967V75.0908Z" fill="#486C8B"/>
<path d="M135.967 74.8794H118.699V75.0906H135.967V74.8794Z" fill="#486C8A"/>
<path d="M135.967 74.668H118.699V74.8795H135.967V74.668Z" fill="#476B89"/>
<path d="M135.967 74.4561H118.699V74.6681H135.967V74.4561Z" fill="#476A88"/>
<path d="M135.967 74.2441H118.699V74.4559H135.967V74.2441Z" fill="#476987"/>
<path d="M135.967 74.0322H118.699V74.2442H135.967V74.0322Z" fill="#466986"/>
<path d="M135.967 73.821H118.699V74.032H135.967V73.821Z" fill="#466885"/>
<path d="M135.967 73.6091H118.699V73.8211H135.967V73.6091Z" fill="#456784"/>
<path d="M135.967 73.3975H118.699V73.6092H135.967V73.3975Z" fill="#456683"/>
<path d="M135.967 73.1855H118.699V73.3976H135.967V73.1855Z" fill="#456682"/>
<path d="M135.967 72.9736H118.699V73.1854H135.967V72.9736Z" fill="#446581"/>
<path d="M135.967 72.7617H118.699V72.9737H135.967V72.7617Z" fill="#446480"/>
<path d="M135.967 72.55H118.699V72.7615H135.967V72.55Z" fill="#44637F"/>
<path d="M135.967 72.3381H118.699V72.5501H135.967V72.3381Z" fill="#43637E"/>
<path d="M135.967 72.1265H118.699V72.3382H135.967V72.1265Z" fill="#43627C"/>
<path d="M135.967 71.9146H118.699V72.1266H135.967V71.9146Z" fill="#43617B"/>
<path d="M135.967 71.7034H118.699V71.9143H135.967V71.7034Z" fill="#42607A"/>
<path d="M135.967 71.4917H118.699V71.7034H135.967V71.4917Z" fill="#426079"/>
<path d="M135.967 71.2798H118.699V71.4918H135.967V71.2798Z" fill="#415F78"/>
<path d="M135.967 71.0679H118.699V71.2799H135.967V71.0679Z" fill="#415E77"/>
<path d="M135.967 70.8557H118.699V71.0677H135.967V70.8557Z" fill="#415D76"/>
<path d="M135.967 70.6438H118.699V70.8555H135.967V70.6438Z" fill="#405C75"/>
<path d="M135.967 70.4319H118.699V70.6439H135.967V70.4319Z" fill="#405C74"/>
<path d="M135.967 70.2209H118.699V70.4319H135.967V70.2209Z" fill="#405B73"/>
<path d="M135.967 70.0093H118.699V70.221H135.967V70.0093Z" fill="#3F5A72"/>
<path d="M135.967 69.7971H118.699V70.0091H135.967V69.7971Z" fill="#3F5971"/>
<path d="M135.967 69.585H118.699V69.797H135.967V69.585Z" fill="#3F5970"/>
<path d="M135.967 69.3738H118.699V69.5853H135.967V69.3738Z" fill="#3E586F"/>
<path d="M135.967 69.1619H118.699V69.3736H135.967V69.1619Z" fill="#3E576E"/>
<path d="M135.967 68.95H118.699V69.162H135.967V68.95Z" fill="#3D566D"/>
<path d="M135.967 68.7383H118.699V68.95H135.967V68.7383Z" fill="#3D566C"/>
<path d="M135.967 68.5261H118.699V68.7381H135.967V68.5261Z" fill="#3D556B"/>
<path d="M135.967 68.3147H118.699V68.5262H135.967V68.3147Z" fill="#3C5469"/>
<path d="M135.967 68.103H118.699V68.3145H135.967V68.103Z" fill="#3C5368"/>
<path d="M135.967 67.8916H118.699V68.1034H135.967V67.8916Z" fill="#3C5367"/>
<path d="M135.967 67.6797H118.699V67.8917H135.967V67.6797Z" fill="#3B5266"/>
<path d="M135.967 67.4675H118.699V67.6795H135.967V67.4675Z" fill="#3B5165"/>
<path d="M135.967 67.2566H118.699V67.4673H135.967V67.2566Z" fill="#3B5064"/>
<path d="M135.967 67.0447H118.699V67.2567H135.967V67.0447Z" fill="#3A4F63"/>
<path d="M135.967 66.8328H118.699V67.0448H135.967V66.8328Z" fill="#3A4F62"/>
<path d="M135.967 66.6208H118.699V66.8329H135.967V66.6208Z" fill="#394E61"/>
<path d="M135.967 66.4089H118.699V66.6207H135.967V66.4089Z" fill="#394D60"/>
<path d="M135.967 66.1968H118.699V66.4088H135.967V66.1968Z" fill="#394C5F"/>
<path d="M135.967 65.9851H118.699V66.1969H135.967V65.9851Z" fill="#384C5E"/>
<path d="M135.967 65.7737H118.699V65.9852H135.967V65.7737Z" fill="#384B5D"/>
<path d="M135.967 65.5618H118.699V65.7738H135.967V65.5618Z" fill="#384A5C"/>
<path d="M135.967 65.3499H118.699V65.5619H135.967V65.3499Z" fill="#37495B"/>
<path d="M135.967 65.1384H118.699V65.3497H135.967V65.1384Z" fill="#37495A"/>
<path d="M135.967 64.927H118.699V65.1385H135.967V64.927Z" fill="#364858"/>
<path d="M135.967 64.7148H118.699V64.9269H135.967V64.7148Z" fill="#364757"/>
<path d="M135.967 64.5032H118.699V64.7149H135.967V64.5032Z" fill="#364656"/>
<path d="M135.967 64.2913H118.699V64.5033H135.967V64.2913Z" fill="#354555"/>
<path d="M135.967 64.0789H118.699V64.2909H135.967V64.0789Z" fill="#354554"/>
<path d="M135.967 63.8669H118.699V64.079H135.967V63.8669Z" fill="#354453"/>
<path d="M135.967 63.6565H118.699V63.8672H135.967V63.6565Z" fill="#344352"/>
<path d="M135.967 63.4446H118.699V63.6566H135.967V63.4446Z" fill="#344251"/>
<path d="M135.967 63.2327H118.699V63.4447H135.967V63.2327Z" fill="#344250"/>
<path d="M135.967 63.0205H118.699V63.2323H135.967V63.0205Z" fill="#33414F"/>
<path d="M135.967 62.8091H118.699V63.0206H135.967V62.8091Z" fill="#33404E"/>
<path d="M135.967 62.5972H118.699V62.8092H135.967V62.5972Z" fill="#323F4D"/>
<path d="M135.967 62.385H118.699V62.597H135.967V62.385Z" fill="#323E4C"/>
<path d="M135.967 62.1736H118.699V62.3853H135.967V62.1736Z" fill="#323E4A"/>
<path d="M135.967 61.9617H118.699V62.1737H135.967V61.9617Z" fill="#313D49"/>
<path d="M135.967 61.75H118.699V61.9612H135.967V61.75Z" fill="#313C48"/>
<path d="M135.967 61.5381H118.699V61.7501H135.967V61.5381Z" fill="#313B47"/>
<path d="M135.967 61.3267H118.699V61.5381H135.967V61.3267Z" fill="#303B46"/>
<path d="M135.967 61.1147H118.699V61.3268H135.967V61.1147Z" fill="#303A45"/>
<path d="M135.967 60.9031H118.699V61.1148H135.967V60.9031Z" fill="#2F3944"/>
<path d="M135.967 60.6907H118.699V60.9027H135.967V60.6907Z" fill="#2F3843"/>
<path d="M135.967 60.48H118.699V60.6909H135.967V60.48Z" fill="#2F3742"/>
<path d="M135.967 60.2681H118.699V60.4798H135.967V60.2681Z" fill="#2E3741"/>
<path d="M135.967 60.0562H118.699V60.2682H135.967V60.0562Z" fill="#2E3640"/>
<path d="M135.967 59.8442H118.699V60.0563H135.967V59.8442Z" fill="#2E353F"/>
<path d="M135.967 59.6321H118.699V59.8441H135.967V59.6321Z" fill="#2D343D"/>
<path d="M135.967 59.4204H118.699V59.6322H135.967V59.4204Z" fill="#2D333C"/>
<path d="M135.967 59.2458H118.699V59.4203H135.967V59.2458Z" fill="#2C333B"/>
<g opacity="0.2">
<g opacity="0.2">
<path opacity="0.2" d="M133.903 61.3185V82.3184H120.762V61.3185H133.903ZM135.967 59.2458H118.698V84.3911H135.967V59.2458Z" fill="#A15466"/>
</g>
</g>
<path d="M137.121 85.5492H117.545V58.0881H137.121V85.5492ZM119.852 83.2331H134.814V60.404H119.852V83.2331Z" fill="#B75A41"/>
<g opacity="0.5">
<path opacity="0.5" d="M122.733 83.2115L127.059 60.3528H130.713L126.598 83.2115H122.733Z" fill="#CCB6A8"/>
</g>
<g opacity="0.4">
<path opacity="0.4" d="M137.09 59.2458H136.774V87.5809H117.572L117.864 89.3237H138.487L137.534 85.9683L137.09 59.2458Z" fill="#A15466"/>
</g>
<path d="M137.55 85.4587H117.005V87.714H137.55V85.4587Z" fill="#F0F1FC"/>
<g opacity="0.8">
<g opacity="0.8">
<path opacity="0.8" d="M117.203 85.4585L117.182 86.428H117.004V85.4585H117.203Z" fill="#EED07B"/>
<path opacity="0.8" d="M118.041 85.4585L118.019 86.428H117.182L117.203 85.4585H118.041Z" fill="#EED079"/>
<path opacity="0.8" d="M118.878 85.4585L118.857 86.428H118.02L118.041 85.4585H118.878Z" fill="#EECF78"/>
<path opacity="0.8" d="M119.714 85.4585L119.693 86.428H118.855L118.877 85.4585H119.714Z" fill="#EECF77"/>
<path opacity="0.8" d="M120.55 85.4585L120.529 86.428H119.692L119.713 85.4585H120.55Z" fill="#EDCE75"/>
<path opacity="0.8" d="M121.387 85.4585L121.366 86.428H120.529L120.549 85.4585H121.387Z" fill="#EDCE74"/>
<path opacity="0.8" d="M122.224 85.4585L122.203 86.428H121.365L121.386 85.4585H122.224Z" fill="#EDCD73"/>
<path opacity="0.8" d="M123.06 85.4585L123.039 86.428H122.202L122.223 85.4585H123.06Z" fill="#EDCD72"/>
<path opacity="0.8" d="M123.897 85.4585L123.876 86.428H123.038L123.06 85.4585H123.897Z" fill="#ECCC70"/>
<path opacity="0.8" d="M124.734 85.4585L124.713 86.428H123.875L123.896 85.4585H124.734Z" fill="#ECCC6F"/>
<path opacity="0.8" d="M125.57 85.4585L125.549 86.428H124.712L124.733 85.4585H125.57Z" fill="#ECCB6E"/>
<path opacity="0.8" d="M126.407 85.4585L126.386 86.428H125.548L125.57 85.4585H126.407Z" fill="#ECCB6D"/>
<path opacity="0.8" d="M127.244 85.4585L127.223 86.428H126.385L126.406 85.4585H127.244Z" fill="#ECCA6B"/>
<path opacity="0.8" d="M128.08 85.4585L128.059 86.428H127.222L127.243 85.4585H128.08Z" fill="#EBCA6A"/>
<path opacity="0.8" d="M128.917 85.4585L128.896 86.428H128.058L128.079 85.4585H128.917Z" fill="#EBC969"/>
<path opacity="0.8" d="M129.754 85.4585L129.732 86.428H128.895L128.916 85.4585H129.754Z" fill="#EBC968"/>
<path opacity="0.8" d="M130.59 85.4585L130.569 86.428H129.731L129.753 85.4585H130.59Z" fill="#EBC967"/>
<path opacity="0.8" d="M131.427 85.4585L131.406 86.428H130.568L130.589 85.4585H131.427Z" fill="#EBC866"/>
<path opacity="0.8" d="M132.264 85.4585L132.242 86.428H131.405L131.426 85.4585H132.264Z" fill="#EBC865"/>
<path opacity="0.8" d="M133.1 85.4585L133.079 86.428H132.241L132.263 85.4585H133.1Z" fill="#EAC764"/>
<path opacity="0.8" d="M133.937 85.4585L133.915 86.428H133.078L133.099 85.4585H133.937Z" fill="#EAC763"/>
<path opacity="0.8" d="M134.774 85.4585L134.752 86.428H133.915L133.937 85.4585H134.774Z" fill="#EAC762"/>
<path opacity="0.8" d="M135.61 85.4585L135.589 86.428H134.751L134.773 85.4585H135.61Z" fill="#EAC661"/>
<path opacity="0.8" d="M136.447 85.4585L136.425 86.428H135.588L135.609 85.4585H136.447Z" fill="#EAC660"/>
<path opacity="0.8" d="M137.284 85.4585L137.262 86.428H136.425L136.446 85.4585H137.284Z" fill="#E9C55F"/>
<path opacity="0.8" d="M137.261 86.428L137.283 85.4585H137.551V86.428H137.261Z" fill="#E9C55E"/>
</g>
</g>
<path d="M157.313 76.3335H154.017V111.635H157.313V76.3335Z" fill="#FF9811"/>
<path d="M160.609 76.3335H157.313V111.635H160.609V76.3335Z" fill="#FF5023"/>
<path d="M168.3 87.3655H146.326V76.3335H168.3L172.695 81.8492L168.3 87.3655Z" fill="#786145"/>
<path d="M146.326 81.8492V76.3335H168.3L172.695 81.8492H146.326Z" fill="#A0815C"/>
<path d="M146.326 101.706H168.3V90.6746H146.326L141.932 96.1903L146.326 101.706Z" fill="#786145"/>
<path d="M168.3 96.1903V90.6746H146.326L141.932 96.1903H168.3Z" fill="#A0815C"/>
<path d="M163.905 109.428H150.721V112.738H163.905V109.428Z" fill="#64C37D"/>
<path d="M96.1499 13.3276H76.6635C75.6459 13.3276 74.155 14.2066 74.155 15.8466V29.7016C74.155 31.0907 75.2803 32.2206 76.6635 32.2206H96.1499C97.5331 32.2206 98.6586 31.0907 98.6586 29.7016V15.8466C98.6586 14.924 98.0369 13.3276 96.1499 13.3276ZM93.4436 16.1263L86.4067 21.8866L79.3698 16.1263H93.4436ZM76.9421 29.4219V18.1L85.4408 25.057C85.722 25.2874 86.0644 25.4026 86.4067 25.4026C86.7493 25.4026 87.0916 25.2879 87.3728 25.057L95.8713 18.1V29.4219H76.9421Z" fill="#453C2E"/>
<path d="M96.1499 12.405H76.6635C75.6459 12.405 74.155 13.284 74.155 14.924V28.7788C74.155 30.1681 75.2803 31.2977 76.6635 31.2977H96.1499C97.5331 31.2977 98.6586 30.1681 98.6586 28.7788V14.924C98.6586 14.0014 98.0369 12.405 96.1499 12.405Z" fill="#536AB0"/>
<path d="M96.1499 12.405H76.6635C75.6459 12.405 74.155 13.284 74.155 14.924V28.7788C74.155 30.1681 75.2803 31.2977 76.6635 31.2977H96.1499C97.5331 31.2977 98.6586 30.1681 98.6586 28.7788V14.924C98.6586 14.0014 98.0369 12.405 96.1499 12.405ZM93.4436 15.2037L86.4067 20.9637L79.3698 15.2037H93.4436ZM76.9421 28.4991V17.1771L85.4408 24.1344C85.722 24.3646 86.0644 24.48 86.4067 24.48C86.7493 24.48 87.0916 24.3651 87.3728 24.1344L95.8713 17.1771V28.4991H76.9421Z" fill="#E6C79B"/>
<path d="M24.6633 111.522C24.4119 110.708 23.4946 110.044 22.7138 110.379C23.5592 109.526 24.4607 108.541 24.4709 107.337C24.4793 106.134 22.9479 105.01 22.0662 105.826C22.4574 105.132 22.7857 104.346 22.6641 103.559C22.5429 102.771 21.8112 102.036 21.0309 102.179C22.3989 100.976 22.1224 98.412 20.5307 97.5304C21.0494 96.6773 21.3298 95.6792 21.3322 94.6792C21.3332 94.2224 21.2475 93.71 20.879 93.44C20.5937 93.2306 20.1246 93.3329 19.9545 93.5995C20.1873 92.5428 19.8418 91.3692 19.0495 90.6326C18.7343 90.3395 18.3348 90.1071 17.906 90.1089C17.1207 90.1118 16.5272 90.9152 16.4645 91.7003C16.4028 92.4862 16.7263 93.2447 17.0441 93.9658C15.6377 93.7176 14.3778 95.1261 14.2257 96.5509C14.0726 97.9772 14.6943 99.3574 15.3006 100.656C15.0701 100.09 14.2477 99.9806 13.737 100.314C13.2269 100.648 12.9784 101.266 12.8407 101.861C12.3722 103.879 12.8697 106.099 14.1528 107.72C13.4135 106.924 11.9525 107.791 11.8343 108.873C11.7154 109.955 12.4066 110.939 13.0628 111.806C12.6852 111.057 11.4431 111.209 11.002 111.921C10.5593 112.633 10.7355 113.575 11.1021 114.329C11.4685 115.084 12.0071 115.751 12.3026 116.536L23.6198 115.604C24.0732 115.212 24.2744 114.607 24.4453 114.03C24.6881 113.214 24.9131 112.337 24.6633 111.522Z" fill="#79A958"/>
<path d="M51.1362 110.458C50.8249 109.913 50.03 109.933 49.4386 110.139C49.106 110.254 48.7921 110.415 48.4939 110.599C48.8394 109.861 49.1002 109.084 49.2607 108.285C49.3879 107.65 49.3592 106.822 48.7675 106.562C48.3473 106.378 47.866 106.597 47.4779 106.843C46.6053 107.396 45.8535 108.121 45.2266 108.944C46.4872 106.596 47.2783 103.994 47.508 101.335C45.3567 102.185 43.6803 104.087 42.9959 106.296C43.7776 102.595 44.3804 98.7834 43.4337 95.1506C40.458 97.7478 38.9504 101.937 39.5843 105.845C38.4445 102.36 38.4047 98.4985 36.6476 95.2837C36.5062 95.0252 36.3416 94.7602 36.0826 94.6219C35.6151 94.3726 35.0054 94.6508 34.7143 95.0945C34.4242 95.539 34.3756 96.0952 34.3555 96.6263C34.2364 99.6787 34.7799 102.756 35.9363 105.581C34.8685 103.658 33.8012 101.732 32.734 99.8081C32.0012 98.4869 31.1274 97.0488 29.6786 96.635C29.2046 97.7129 29.5485 98.9592 29.9208 100.076C30.8585 102.887 31.9469 105.647 33.1806 108.34C32.0033 105.999 30.4359 103.855 28.5646 102.026C28.2071 101.675 27.7098 101.312 27.2538 101.515C26.7105 101.757 26.7512 102.537 26.9054 103.114C27.6735 105.989 29.0188 108.706 30.8316 111.061C29.0854 108.993 27.0316 107.103 24.4315 106.517C24.1161 106.446 23.7275 106.421 23.5317 106.678C23.3289 106.946 23.4748 107.328 23.63 107.627C25.3699 110.98 27.5645 114.096 30.1315 116.863L48.0952 117.399C49.7708 115.834 50.8939 113.686 51.2253 111.413C51.2715 111.09 51.2985 110.741 51.1362 110.458Z" fill="#579326"/>
<path d="M66.9056 110.771C65.9408 109.928 64.267 109.968 63.4867 110.985C63.7823 110.505 64.0857 110.004 64.1518 109.444C64.2179 108.883 63.9738 108.243 63.4517 108.035C63.1575 107.916 62.8266 107.951 62.5141 107.998C61.2942 108.18 60.0997 108.529 58.9737 109.032C59.131 107.801 58.2192 106.527 57.0069 106.283C55.7939 106.04 54.4648 106.864 54.1376 108.062C53.8423 106.758 52.3493 105.869 51.0696 106.232C49.7892 106.594 48.9806 108.137 49.4081 109.402C48.6547 108.82 47.7446 108.377 46.7936 108.401C45.8421 108.424 44.8676 109.009 44.5993 109.926C44.4145 110.561 44.6881 111.293 45.187 111.692C44.2115 111.36 43.1782 111.201 42.1504 111.241C42.7135 114.251 44.9539 116.885 47.8258 117.914L65.0296 116.965C66.1935 116.433 67.2263 115.513 67.6708 114.31C68.1156 113.106 67.8694 111.615 66.9056 110.771Z" fill="#79A958"/>
<defs>
<linearGradient id="paint0_linear" x1="86.4068" y1="108.148" x2="86.4068" y2="117.427" gradientUnits="userSpaceOnUse">
<stop stop-color="#BCC0C9"/>
<stop offset="0.329801" stop-color="#A4ADB6"/>
<stop offset="0.743103" stop-color="#8D99A4"/>
<stop offset="1" stop-color="#84929D"/>
</linearGradient>
<linearGradient id="paint1_linear" x1="87.1573" y1="12.8471" x2="87.1573" y2="5.69025" gradientUnits="userSpaceOnUse">
<stop offset="0.073472" stop-color="white"/>
<stop offset="0.250535" stop-color="#E8D5D9"/>
<stop offset="0.563915" stop-color="#C2909C"/>
<stop offset="0.790515" stop-color="#AA6575"/>
<stop offset="0.905469" stop-color="#A15466"/>
</linearGradient>
<linearGradient id="paint2_linear" x1="86.87" y1="8.01727" x2="86.87" y2="1.91796" gradientUnits="userSpaceOnUse">
<stop offset="0.321544" stop-color="white"/>
<stop offset="0.422996" stop-color="#E8D5D9"/>
<stop offset="0.602552" stop-color="#C2909C"/>
<stop offset="0.732386" stop-color="#AA6575"/>
<stop offset="0.798251" stop-color="#A15466"/>
</linearGradient>
<linearGradient id="paint3_linear" x1="87.1571" y1="46.2035" x2="87.1571" y2="39.0467" gradientUnits="userSpaceOnUse">
<stop offset="0.073472" stop-color="white"/>
<stop offset="0.250535" stop-color="#E8D5D9"/>
<stop offset="0.563915" stop-color="#C2909C"/>
<stop offset="0.790515" stop-color="#AA6575"/>
<stop offset="0.905469" stop-color="#A15466"/>
</linearGradient>
<linearGradient id="paint4_linear" x1="86.87" y1="41.374" x2="86.87" y2="35.2746" gradientUnits="userSpaceOnUse">
<stop offset="0.321544" stop-color="white"/>
<stop offset="0.422996" stop-color="#E8D5D9"/>
<stop offset="0.602552" stop-color="#C2909C"/>
<stop offset="0.732386" stop-color="#AA6575"/>
<stop offset="0.798251" stop-color="#A15466"/>
</linearGradient>
<linearGradient id="paint5_linear" x1="87.5645" y1="143.075" x2="87.5645" y2="-13.9592" gradientUnits="userSpaceOnUse">
<stop offset="0.100237" stop-color="#70C0FF"/>
<stop offset="0.289354" stop-color="#4F88B5"/>
<stop offset="0.547993" stop-color="#253F54"/>
<stop offset="0.728875" stop-color="#0A1218"/>
<stop offset="0.814638"/>
</linearGradient>
</defs>
</svg>
