<svg width="218" height="238" viewBox="0 0 218 238" fill="none" xmlns="http://www.w3.org/2000/svg">
<rect width="217.013" height="237.28" fill="black" fill-opacity="0"/>
<rect width="217.013" height="237.28" fill="black" fill-opacity="0"/>
<path opacity="0.3" d="M108.507 237.28C168.433 237.28 217.013 234.12 217.013 230.222C217.013 226.324 168.433 223.164 108.507 223.164C48.5801 223.164 0 226.324 0 230.222C0 234.12 48.5801 237.28 108.507 237.28Z" fill="black"/>
<rect width="181.245" height="232.735" fill="black" fill-opacity="0" transform="translate(16.3275)"/>
<rect width="170.79" height="231.866" fill="black" fill-opacity="0" transform="translate(26.7824)"/>
<rect width="18.5407" height="45.4106" fill="black" fill-opacity="0" transform="translate(169.827 185.807)"/>
<path d="M186.267 214.16C187.84 213.771 188.702 211.74 188.246 210.158C187.787 208.576 186.345 207.49 184.809 207.027C185.663 205.74 186.561 204.289 186.359 202.768C186.173 201.363 184.453 200.282 183.372 201.019C184.632 199.944 185.544 198.272 185.165 196.681C184.801 195.142 182.826 194.203 181.575 195.005C182.782 193.899 182.966 191.728 181.827 190.567C180.579 189.293 178.139 189.641 177.213 191.229C177.896 190.179 178.453 189.046 178.868 187.862C179.054 187.331 179.202 186.704 178.896 186.246C178.435 185.547 177.364 185.799 176.62 186.204C174.206 187.512 172.235 189.678 171.131 192.231C170.694 203.975 170.259 215.719 169.827 227.462C169.975 228.274 170.823 228.733 171.615 228.828C172.405 228.922 173.221 228.773 174.003 228.921C174.636 229.041 175.214 229.35 175.782 229.655C177.387 230.517 179.114 231.404 180.931 231.184C182.748 230.965 184.536 229.108 184.028 227.299C186.516 225.793 187.143 221.772 185.207 219.651C186.292 218.952 187.452 218.161 187.894 216.923C188.334 215.685 187.524 213.982 186.267 214.16Z" fill="#79A958"/>
<rect width="23.4374" height="22.3112" fill="black" fill-opacity="0" transform="translate(174.135 209.555)"/>
<path d="M191.981 228.472C192.272 228.39 192.568 228.325 192.858 228.236C194.356 227.778 195.909 227.168 196.919 225.913C197.245 225.508 197.51 225.029 197.562 224.508C197.731 222.825 195.768 221.893 194.146 221.789C191.64 221.628 189.083 222.284 186.869 223.581C188.5 222.167 189.928 220.495 191.063 218.631C191.246 218.329 191.421 217.927 191.215 217.653C191.028 217.4 190.648 217.442 190.341 217.52C186.689 218.438 183.367 220.82 181.241 224.052C183.266 221.352 185.07 218.471 186.62 215.454C187.088 214.543 187.541 213.458 187.135 212.541C183.748 213.99 180.917 216.828 179.412 220.28C180.492 217.99 181.243 215.541 181.632 213.041C181.749 212.282 181.831 211.488 181.581 210.774C181.329 210.063 180.653 209.465 179.918 209.566C179.367 209.642 178.922 210.071 178.541 210.496C175.338 214.077 173.726 219.098 174.224 223.873C174.22 226.186 174.216 228.498 174.211 230.81C175.047 231.506 176.204 231.59 177.283 231.646C184.018 231.995 191.022 232.294 197.302 229.498C195.607 228.781 193.814 228.493 191.981 228.472Z" fill="#579326"/>
<rect width="156.471" height="230.258" fill="black" fill-opacity="0" transform="translate(26.7824)"/>
<rect width="41.1705" height="149.18" fill="black" fill-opacity="0" transform="translate(89.8713)"/>
<path d="M126.879 149.18C115.852 149.18 104.825 149.18 93.7972 149.18C93.6458 113.732 93.4943 78.2832 93.3429 42.8347C104.752 42.8347 116.162 42.8347 127.571 42.8347C127.341 78.2832 127.11 113.732 126.879 149.18Z" fill="#8F847F"/>
<path d="M110.469 30.9448C103.578 34.908 96.7115 38.871 89.8713 42.8345C103.595 42.8345 117.318 42.8345 131.042 42.8345C124.21 38.871 117.352 34.908 110.469 30.9448Z" fill="#EE8F00"/>
<path d="M126.522 73.199C126.517 74.0694 126.511 74.9395 126.506 75.8099C125.531 75.8099 124.556 75.8099 123.582 75.8099C123.586 74.9395 123.591 74.0694 123.595 73.199C122.62 73.199 121.644 73.199 120.668 73.199C120.664 74.0694 120.661 74.9395 120.657 75.8099C119.682 75.8099 118.707 75.8099 117.732 75.8099C117.735 74.9395 117.738 74.0694 117.741 73.199C116.766 73.199 115.79 73.199 114.814 73.199C114.811 74.0694 114.81 74.9395 114.808 75.8099C113.833 75.8099 112.858 75.8099 111.882 75.8099C111.884 74.9395 111.885 74.0694 111.887 73.199C110.911 73.199 109.935 73.199 108.96 73.199C108.959 74.0694 108.959 74.9395 108.958 75.8099C107.983 75.8099 107.007 75.8099 106.032 75.8099C106.032 74.9395 106.032 74.0694 106.032 73.199C105.056 73.199 104.08 73.199 103.105 73.199C103.106 74.0694 103.107 74.9395 103.108 75.8099C102.133 75.8099 101.158 75.8099 100.183 75.8099C100.181 74.9395 100.179 74.0694 100.177 73.199C99.2016 73.199 98.2254 73.199 97.2498 73.199C97.2523 74.0694 97.2554 74.9395 97.2579 75.8099C96.2828 75.8099 95.3076 75.8099 94.3325 75.8099C94.3289 74.9395 94.3259 74.0694 94.3221 73.199C93.3467 73.199 92.3705 73.199 91.3949 73.199C91.4076 75.7442 91.4203 78.2894 91.4324 80.8346C104.087 80.8346 116.741 80.8346 129.395 80.8346C129.414 78.2894 129.432 75.7442 129.45 73.199C128.474 73.199 127.498 73.199 126.522 73.199Z" fill="#5F564F"/>
<path d="M126.298 109.21C126.292 110.081 126.287 110.951 126.281 111.822C125.318 111.822 124.354 111.822 123.391 111.822C123.395 110.951 123.4 110.081 123.405 109.21C122.44 109.21 121.475 109.21 120.511 109.21C120.507 110.081 120.503 110.951 120.499 111.822C119.535 111.822 118.572 111.822 117.608 111.822C117.611 110.951 117.614 110.081 117.618 109.21C116.653 109.21 115.688 109.21 114.724 109.21C114.721 110.081 114.719 110.951 114.717 111.822C113.753 111.822 112.79 111.822 111.826 111.822C111.827 110.951 111.828 110.081 111.83 109.21C110.865 109.21 109.901 109.21 108.936 109.21C108.935 110.081 108.935 110.951 108.934 111.822C107.97 111.822 107.006 111.822 106.043 111.822C106.042 110.951 106.042 110.081 106.042 109.21C105.077 109.21 104.113 109.21 103.148 109.21C103.149 110.081 103.151 110.951 103.151 111.822C102.188 111.822 101.224 111.822 100.26 111.822C100.258 110.951 100.256 110.081 100.254 109.21C99.2898 109.21 98.3254 109.21 97.3606 109.21C97.3632 110.081 97.3659 110.951 97.3685 111.822C96.4045 111.822 95.4408 111.822 94.477 111.822C94.4735 110.951 94.4699 110.081 94.4664 109.21C93.5019 109.21 92.5372 109.21 91.5729 109.21C91.5851 111.756 91.5978 114.301 91.6105 116.847C104.119 116.847 116.628 116.847 129.138 116.847C129.156 114.301 129.174 111.756 129.192 109.21C128.227 109.21 127.263 109.21 126.298 109.21Z" fill="#5F564F"/>
<path d="M112.509 32.6929C111.149 32.6929 109.788 32.6929 108.427 32.6929C108.428 30.5949 108.429 28.4972 108.43 26.3989C109.794 26.3989 111.157 26.3989 112.52 26.3989C112.517 28.4972 112.513 30.5949 112.509 32.6929Z" fill="#EE8F00"/>
<path d="M111.192 0C110.733 0 110.275 0 109.817 0C109.809 8.79961 109.801 17.5992 109.793 26.3988C110.247 26.3988 110.702 26.3988 111.157 26.3988C111.169 17.5992 111.18 8.79961 111.192 0Z" fill="#695135"/>
<path d="M131.023 45.2816C117.31 45.2816 103.597 45.2816 89.8845 45.2816C89.8799 44.4655 89.8753 43.6494 89.8713 42.8335C103.595 42.8335 117.318 42.8335 131.042 42.8335C131.035 43.6494 131.029 44.4655 131.023 45.2816Z" fill="#302E35"/>
<rect width="29.0061" height="53.433" fill="black" fill-opacity="0" transform="translate(96.3122 48.791)"/>
<path d="M113.645 102.224C111.444 102.224 109.244 102.224 107.043 102.224C107.043 101.529 107.043 100.834 107.043 100.139C109.245 100.139 111.447 100.139 113.65 100.139C113.649 100.834 113.647 101.529 113.645 102.224Z" fill="#99918D"/>
<path d="M119.499 63.7667C117.272 63.7667 115.044 63.7667 112.815 63.7667C112.817 63.0715 112.819 62.3766 112.82 61.6816C115.049 61.6816 117.278 61.6816 119.508 61.6816C119.505 62.3766 119.502 63.0715 119.499 63.7667Z" fill="#99918D"/>
<path d="M125.306 50.8761C123.069 50.8761 120.833 50.8761 118.596 50.8761C118.598 50.1809 118.601 49.4859 118.603 48.791C120.842 48.791 123.08 48.791 125.318 48.791C125.314 49.4859 125.31 50.1809 125.306 50.8761Z" fill="#99918D"/>
<path d="M108.505 87.8822C106.295 87.8822 104.084 87.8822 101.873 87.8822C101.872 87.187 101.871 86.4918 101.87 85.7971C104.082 85.7971 106.294 85.7971 108.506 85.7971C108.506 86.4918 108.506 87.187 108.505 87.8822Z" fill="#99918D"/>
<path d="M103.013 58.6534C100.782 58.6534 98.5504 58.6534 96.3188 58.6534C96.3168 57.9582 96.3142 57.2633 96.3122 56.5684C98.5451 56.5684 100.778 56.5684 103.011 56.5684C103.012 57.2633 103.012 57.9582 103.013 58.6534Z" fill="#99918D"/>
<path opacity="0.3" d="M93.6597 116.93C104.803 116.93 115.946 116.93 127.089 116.93C127.07 119.964 127.05 122.998 127.03 126.032C127.037 126.032 114.578 118.972 93.6678 118.825C93.6648 118.193 93.6623 117.562 93.6597 116.93Z" fill="#352D28"/>
<rect width="32.9605" height="156.351" fill="black" fill-opacity="0" transform="translate(46.688 30.354)"/>
<path d="M78.869 186.705C69.3124 186.705 59.7558 186.705 50.199 186.705C49.5993 154.787 48.9991 122.87 48.3989 90.9524C58.2588 90.9524 68.1188 90.9524 77.9788 90.9524C78.2756 122.87 78.5719 154.787 78.869 186.705Z" fill="#95897B"/>
<path d="M64.4126 56.7529C63.2766 56.7529 62.1401 56.7529 61.0041 56.7529C56.1812 67.4657 51.4093 78.1782 46.688 88.8915C57.669 88.8915 68.65 88.8915 79.6308 88.8915C74.6089 78.1782 69.5361 67.4657 64.4126 56.7529Z" fill="#FF9E0A"/>
<path d="M62.8065 44.0139C62.6216 44.0139 62.4364 44.0139 62.2517 44.0139C61.8573 48.2601 61.4648 52.5065 61.0739 56.7529C62.1635 56.7529 63.2533 56.7529 64.3426 56.7529C63.8327 52.5065 63.3202 48.2601 62.8065 44.0139Z" fill="#695135"/>
<path d="M79.6485 90.9523C68.6749 90.9523 57.7015 90.9523 46.7279 90.9523C46.7144 90.2653 46.7012 89.5782 46.688 88.8914C57.669 88.8914 68.65 88.8914 79.6308 88.8914C79.6366 89.5782 79.6427 90.2653 79.6485 90.9523Z" fill="#695135"/>
<path d="M63.0506 30.354C62.5988 30.354 62.1467 30.354 61.6952 30.354C61.8205 39.1536 61.9458 47.9532 62.0711 56.7528C62.5191 56.7528 62.9671 56.7528 63.4154 56.7528C63.2939 47.9532 63.1721 39.1536 63.0506 30.354Z" fill="#695135"/>
<rect width="11.7332" height="27.4104" fill="black" fill-opacity="0" transform="translate(56.5007 98.304)"/>
<rect width="11.7332" height="27.4104" fill="black" fill-opacity="0" transform="translate(56.5007 98.304)"/>
<path d="M56.8514 125.66C56.7347 118.267 56.618 110.874 56.5013 103.481C56.4557 100.634 58.998 98.304 62.1497 98.304C65.3025 98.304 67.9113 100.634 67.9478 103.481C68.0432 110.796 68.1386 118.111 68.234 125.427C64.4455 125.739 60.6505 125.763 56.8514 125.66Z" fill="#F1D197"/>
<path d="M60.652 125.046C59.7096 125.046 58.7428 125.035 57.7182 125.013C57.6063 117.836 57.4947 110.658 57.3829 103.48C57.3438 100.995 59.4864 98.9722 62.1594 98.9722C64.8326 98.9722 67.0341 100.995 67.0665 103.48C67.1609 110.595 67.2553 117.708 67.3496 124.822C65.2603 124.973 63.0607 125.045 60.652 125.046Z" fill="#3D7E9B"/>
<path d="M62.5415 125.446C62.2695 125.446 61.9976 125.446 61.7256 125.446C61.5947 116.491 61.4638 107.536 61.3334 98.5808C61.6069 98.5808 61.8804 98.5808 62.1538 98.5808C62.2832 107.536 62.4126 116.491 62.5415 125.446Z" fill="#F1D197"/>
<path d="M56.719 119.646C56.7159 119.438 56.7124 119.231 56.7094 119.023C60.5394 119.023 64.3699 119.023 68.2 119.023C68.2025 119.231 68.2056 119.438 68.2081 119.646C64.3783 119.646 60.5488 119.646 56.719 119.646Z" fill="#F1D197"/>
<path d="M56.5602 109.604C56.5571 109.397 56.5536 109.19 56.5505 108.982C60.3897 108.982 64.2294 108.982 68.0691 108.982C68.0716 109.19 68.0744 109.397 68.0772 109.604C64.238 109.604 60.3993 109.604 56.5602 109.604Z" fill="#F1D197"/>
<path opacity="0.1" d="M59.8093 114.391C61.41 109.092 63.6972 104.398 66.1812 100.933C65.2913 99.7505 63.8164 98.9722 62.1594 98.9722C59.4864 98.9722 57.3438 100.995 57.3829 103.48C57.4947 110.658 57.6063 117.836 57.7182 125.013C57.7514 125.014 57.7834 125.014 57.8169 125.014C58.0127 121.806 58.666 118.177 59.8093 114.391Z" fill="white"/>
<path opacity="0.3" d="M79.3398 180.921L62.9706 181.687V90.9524H77.4689L79.3398 180.921Z" fill="black"/>
<rect width="25.7347" height="128.024" fill="black" fill-opacity="0" transform="translate(141.4 42.8069)"/>
<path d="M164.381 170.831C156.869 170.831 149.356 170.831 141.842 170.831C142.13 145.871 142.417 120.911 142.705 95.9504C150.403 95.9504 158.102 95.9504 165.8 95.9504C165.327 120.911 164.855 145.871 164.381 170.831Z" fill="#5F564F"/>
<path d="M155.987 69.2058C155.102 69.2058 154.217 69.2058 153.332 69.2058C149.329 77.5833 145.358 85.9608 141.418 94.3385C149.991 94.3385 158.562 94.3385 167.135 94.3385C163.45 85.9608 159.734 77.5833 155.987 69.2058Z" fill="#E38800"/>
<path d="M155.027 59.2434C154.883 59.2434 154.739 59.2434 154.595 59.2434C154.191 62.5642 153.789 65.885 153.387 69.2057C154.236 69.2057 155.084 69.2057 155.933 69.2057C155.632 65.885 155.33 62.5642 155.027 59.2434Z" fill="#695135"/>
<path d="M167.104 95.9503C158.536 95.9503 149.968 95.9503 141.4 95.9503C141.406 95.4129 141.412 94.8759 141.418 94.3384C149.991 94.3384 158.562 94.3384 167.135 94.3384C167.124 94.8759 167.114 95.4129 167.104 95.9503Z" fill="#3D3630"/>
<path d="M155.736 42.8069C155.286 42.8069 154.836 42.8069 154.387 42.8069C154.254 51.6065 154.122 60.4061 153.99 69.2057C154.436 69.2057 154.882 69.2057 155.328 69.2057C155.465 60.4061 155.6 51.6065 155.736 42.8069Z" fill="#695135"/>
<rect width="32.929" height="81.4171" fill="black" fill-opacity="0" transform="translate(26.7824 148.841)"/>
<path d="M58.0813 230.258C49.1784 230.258 40.2756 230.258 31.373 230.258C30.7674 206.423 30.1619 182.587 29.5561 158.751C38.6731 158.751 47.79 158.751 56.9065 158.751C57.2979 182.587 57.6896 206.423 58.0813 230.258Z" fill="#CDBFB2"/>
<path d="M43.0234 148.841C37.5919 152.145 32.1784 155.448 26.7824 158.751C37.7481 158.751 48.7139 158.751 59.6797 158.751C54.1452 155.448 48.5937 152.145 43.0234 148.841Z" fill="#FF9E0A"/>
<path d="M59.7114 160.79C48.753 160.79 37.7946 160.79 26.8362 160.79C26.8184 160.11 26.8004 159.431 26.7824 158.751C37.7482 158.751 48.7139 158.751 59.6797 158.751C59.6901 159.431 59.7008 160.11 59.7114 160.79Z" fill="#695135"/>
<rect width="70.928" height="41.1808" fill="black" fill-opacity="0" transform="translate(69.6345 142.065)"/>
<path d="M136.824 142.065C136.805 143.941 136.787 145.817 136.769 147.694C135.525 147.694 134.281 147.694 133.036 147.694C133.052 145.817 133.068 143.941 133.084 142.065C131.838 142.065 130.591 142.065 129.345 142.065C129.33 143.941 129.317 145.817 129.304 147.694C128.059 147.694 126.816 147.694 125.572 147.694C125.584 145.817 125.595 143.941 125.606 142.065C124.36 142.065 123.114 142.065 121.867 142.065C121.858 143.941 121.849 145.817 121.84 147.694C120.635 147.694 119.429 147.694 118.223 147.694C118.23 145.817 118.238 143.941 118.245 142.065C118.206 142.065 118.166 142.065 118.127 142.065C116.919 142.065 115.712 142.065 114.505 142.065C114.466 142.065 114.427 142.065 114.388 142.065C114.383 143.941 114.379 145.817 114.374 147.694C113.17 147.694 111.965 147.694 110.76 147.694C110.762 145.817 110.764 143.941 110.766 142.065C110.727 142.065 110.688 142.065 110.649 142.065C109.442 142.065 108.235 142.065 107.028 142.065C106.988 142.065 106.949 142.065 106.909 142.065C106.909 143.941 106.909 145.817 106.909 147.694C105.704 147.694 104.5 147.694 103.295 147.694C103.292 145.817 103.29 143.941 103.288 142.065C103.249 142.065 103.21 142.065 103.17 142.065C101.963 142.065 100.756 142.065 99.5486 142.065C99.5095 142.065 99.4704 142.065 99.4308 142.065C99.4354 143.941 99.4402 145.817 99.4448 147.694C98.2396 147.694 97.0346 147.694 95.8296 147.694C95.823 145.817 95.8159 143.941 95.8091 142.065C95.77 142.065 95.7309 142.065 95.6919 142.065C94.4849 142.065 93.2776 142.065 92.0706 142.065C92.0313 142.065 91.992 142.065 91.9524 142.065C91.9615 143.941 91.9707 145.817 91.9798 147.694C90.7753 147.694 89.5704 147.694 88.3654 147.694C88.3542 145.817 88.3428 143.941 88.3311 142.065C87.0848 142.065 85.8382 142.065 84.5919 142.065C84.6054 143.941 84.6191 145.817 84.6328 147.694C83.3892 147.694 82.1452 147.694 80.9011 147.694C80.8852 145.817 80.8692 143.941 80.8535 142.065C79.6064 142.065 78.3598 142.065 77.1132 142.065C77.1312 143.941 77.1495 145.817 77.1675 147.694C75.924 147.694 74.6799 147.694 73.4361 147.694C73.4156 145.817 73.3948 143.941 73.3745 142.065C72.1279 142.065 70.8808 142.065 69.6345 142.065C69.8017 155.792 69.9689 169.518 70.136 183.246C77.4752 183.246 84.8144 183.246 92.1538 183.246C100.8 183.246 109.446 183.246 118.092 183.246C125.432 183.246 132.771 183.246 140.11 183.246C140.261 169.518 140.412 155.792 140.563 142.065C139.316 142.065 138.07 142.065 136.824 142.065Z" fill="#AA9D93"/>
<rect width="42.7395" height="14.0832" fill="black" fill-opacity="0" transform="translate(73.8828 154.991)"/>
<path d="M93.8808 159.771C91.7319 159.771 89.5827 159.771 87.4335 159.771C87.4292 159.076 87.4247 158.381 87.4201 157.686C89.5708 157.686 91.7215 157.686 93.8722 157.686C93.8752 158.381 93.8777 159.076 93.8808 159.771Z" fill="#95897B"/>
<path d="M114.307 163.698C112.16 163.698 110.014 163.698 107.867 163.698C107.868 163.003 107.868 162.307 107.868 161.613C110.016 161.613 112.164 161.613 114.312 161.613C114.31 162.307 114.309 163.003 114.307 163.698Z" fill="#95897B"/>
<path d="M116.617 157.077C114.47 157.077 112.324 157.077 110.178 157.077C110.178 156.382 110.178 155.687 110.178 154.991C112.327 154.991 114.474 154.991 116.622 154.991C116.621 155.687 116.619 156.382 116.617 157.077Z" fill="#95897B"/>
<path d="M80.3328 169.075C78.1903 169.075 76.048 169.075 73.9056 169.075C73.898 168.38 73.8904 167.684 73.8828 166.99C76.0269 166.99 78.1707 166.99 80.3146 166.99C80.3209 167.684 80.3268 168.38 80.3328 169.075Z" fill="#95897B"/>
<path d="M85.0949 163.698C82.9483 163.698 80.8017 163.698 78.655 163.698C78.6484 163.003 78.6418 162.307 78.6355 161.613C80.7836 161.613 82.9321 161.613 85.0802 161.613C85.0848 162.307 85.0898 163.003 85.0949 163.698Z" fill="#95897B"/>
<rect width="46.2922" height="88.3494" fill="black" fill-opacity="0" transform="translate(114.385 118.481)"/>
<path d="M155.517 206.83C143.013 206.83 130.509 206.83 118.005 206.83C118.101 180.964 118.196 155.099 118.292 129.233C131.12 129.233 143.947 129.233 156.775 129.233C156.356 155.099 155.936 180.964 155.517 206.83Z" fill="#95897B"/>
<path d="M137.641 118.481C129.863 122.065 122.113 125.649 114.39 129.234C129.82 129.234 145.248 129.234 160.677 129.234C153.025 125.649 145.346 122.065 137.641 118.481Z" fill="#EE8F00"/>
<path d="M160.638 131.448C145.22 131.448 129.803 131.448 114.385 131.448C114.387 130.71 114.388 129.971 114.39 129.233C129.82 129.233 145.248 129.233 160.677 129.233C160.664 129.971 160.651 130.71 160.638 131.448Z" fill="#3D3630"/>
<path d="M141.814 131.448C138.945 131.448 136.077 131.448 133.208 131.448C132.994 156.575 132.778 181.703 132.563 206.83C135.361 206.83 138.16 206.83 140.958 206.83C141.243 181.703 141.528 156.575 141.814 131.448Z" fill="#A79B8D"/>
<rect width="27.1548" height="53.2629" fill="black" fill-opacity="0" transform="translate(50.0117 93.2959)"/>
<path d="M56.5006 142.567C54.3484 142.567 52.1964 142.567 50.0439 142.567C50.0333 141.872 50.0224 141.178 50.0117 140.482C52.1655 140.482 54.3192 140.482 56.4727 140.482C56.4818 141.178 56.4912 141.872 56.5006 142.567Z" fill="#A79B8D"/>
<path d="M71.7393 134.433C69.5607 134.433 67.3821 134.433 65.2035 134.433C65.1931 133.739 65.1827 133.043 65.1725 132.348C67.3527 132.348 69.5328 132.348 71.7129 132.348C71.7215 133.043 71.7304 133.739 71.7393 134.433Z" fill="#786F66"/>
<path d="M77.1665 95.381C74.9879 95.381 72.8093 95.381 70.6307 95.381C70.6203 94.6863 70.6099 93.9906 70.5997 93.2959C72.7798 93.2959 74.96 93.2959 77.1401 93.2959C77.1487 93.9906 77.1576 94.6863 77.1665 95.381Z" fill="#786F66"/>
<path d="M74.4384 98.3043C72.2598 98.3043 70.0812 98.3043 67.9026 98.3043C67.8925 97.6091 67.8823 96.9139 67.8719 96.2188C70.0521 96.2188 72.2319 96.2188 74.412 96.2188C74.4212 96.9139 74.4298 97.6091 74.4384 98.3043Z" fill="#786F66"/>
<path d="M61.3664 131.383C59.1858 131.383 57.0054 131.383 54.825 131.383C54.8151 130.688 54.8052 129.993 54.7956 129.298C56.9777 129.298 59.1596 129.298 61.3415 129.298C61.3499 129.993 61.3583 130.688 61.3664 131.383Z" fill="#A79B8D"/>
<path d="M60.304 146.559C58.1452 146.559 55.9869 146.559 53.8286 146.559C53.8164 145.864 53.8042 145.169 53.7925 144.474C55.9524 144.474 58.1122 144.474 60.272 144.474C60.2827 145.169 60.2933 145.864 60.304 146.559Z" fill="#A79B8D"/>
<path d="M57.0848 99.346C54.9021 99.346 52.7192 99.346 50.5363 99.346C50.5242 98.6511 50.5122 97.9564 50.5003 97.2615C52.6845 97.2615 54.8687 97.2615 57.0528 97.2615C57.0635 97.9564 57.0741 98.6511 57.0848 99.346Z" fill="#A79B8D"/>
<g opacity="0.3">
<rect width="16.4631" height="31.5983" fill="black" fill-opacity="0" transform="translate(64.5738 153.324)"/>
<path opacity="0.3" d="M80.9001 178.928C80.5967 177.955 79.511 177.161 78.598 177.561C79.5808 176.54 80.6297 175.363 80.6287 173.924C80.6262 172.485 78.8108 171.141 77.7824 172.117C78.2342 171.288 78.6117 170.348 78.4592 169.407C78.3075 168.464 77.4364 167.585 76.5181 167.756C78.1158 166.319 77.7606 163.252 75.8692 162.198C76.4709 161.178 76.7903 159.985 76.7807 158.789C76.7761 158.243 76.6688 157.63 76.2294 157.307C75.8895 157.056 75.336 157.179 75.1378 157.498C75.3999 156.235 74.9762 154.831 74.028 153.951C73.651 153.6 73.1746 153.322 72.6667 153.324C71.7368 153.328 71.0457 154.288 70.9828 155.227C70.9214 156.167 71.3151 157.074 71.7012 157.936C70.0341 157.639 68.5663 159.324 68.4093 161.027C68.2507 162.733 69.0064 164.383 69.7411 165.936C69.4608 165.259 68.4887 165.128 67.8918 165.527C67.2954 165.927 67.0125 166.664 66.8595 167.376C66.3403 169.789 66.9643 172.444 68.4983 174.381C67.6165 173.43 65.9113 174.467 65.791 175.76C65.6698 177.054 66.498 178.231 67.2827 179.267C66.8271 178.371 65.3704 178.554 64.8649 179.405C64.3573 180.256 64.5805 181.382 65.0234 182.285C65.4663 183.187 66.1086 183.985 66.4684 184.923C70.8844 184.552 75.302 184.18 79.721 183.809C80.2482 183.339 80.4775 182.617 80.6718 181.927C80.9478 180.951 81.2025 179.902 80.9001 178.928Z" fill="black"/>
</g>
<g opacity="0.3">
<rect width="32.731" height="27.3457" fill="black" fill-opacity="0" transform="translate(79.4034 158.608)"/>
<path opacity="0.3" d="M111.989 177.655C111.624 177.003 110.69 177.028 109.995 177.274C109.604 177.412 109.235 177.604 108.885 177.824C109.291 176.942 109.598 176.013 109.787 175.057C109.937 174.298 109.904 173.308 109.208 172.997C108.713 172.777 108.147 173.039 107.691 173.333C106.664 173.994 105.78 174.861 105.045 175.845C106.523 173.038 107.454 169.926 107.725 166.747C105.188 167.764 103.216 170.037 102.416 172.679C103.327 168.253 104.034 163.696 102.908 159.353C99.3956 162.458 97.6381 167.468 98.4004 172.14C97.0443 167.973 96.9809 163.356 94.8883 159.512C94.7201 159.203 94.524 158.886 94.2173 158.721C93.663 158.422 92.9438 158.755 92.6024 159.286C92.2624 159.817 92.2084 160.482 92.1878 161.117C92.0666 164.767 92.7287 168.446 94.1051 171.824C92.8378 169.524 91.5679 167.223 90.2954 164.922C89.4217 163.342 88.3789 161.622 86.6637 161.128C86.1128 162.416 86.5303 163.907 86.9788 165.242C88.1082 168.603 89.4111 171.903 90.8804 175.123C89.4801 172.324 87.6186 169.761 85.3964 167.573C84.9717 167.154 84.3822 166.72 83.8464 166.963C83.2081 167.252 83.2639 168.185 83.4512 168.874C84.3842 172.312 85.9925 175.56 88.1404 178.376C86.0732 175.904 83.6399 173.644 80.5737 172.943C80.202 172.858 79.7444 172.828 79.5169 173.136C79.2812 173.456 79.4572 173.914 79.6429 174.271C81.7277 178.28 84.335 182.006 87.3659 185.314C94.3842 185.527 101.401 185.741 108.416 185.954C110.379 184.084 111.7 181.515 112.092 178.797C112.147 178.412 112.179 177.994 111.989 177.655Z" fill="black"/>
</g>
<g opacity="0.3">
<rect width="30.2059" height="14.065" fill="black" fill-opacity="0" transform="translate(101.435 172.505)"/>
<path opacity="0.3" d="M130.512 178.03C129.386 177.022 127.419 177.071 126.494 178.286C126.845 177.712 127.206 177.113 127.288 176.444C127.369 175.772 127.087 175.008 126.475 174.758C126.129 174.617 125.74 174.658 125.373 174.714C123.937 174.932 122.53 175.35 121.204 175.951C121.395 174.478 120.329 172.955 118.904 172.664C117.477 172.373 115.91 173.358 115.522 174.791C115.178 173.232 113.424 172.169 111.917 172.603C110.409 173.036 109.458 174.88 109.96 176.394C109.075 175.697 108.004 175.168 106.886 175.196C105.767 175.224 104.623 175.924 104.309 177.019C104.092 177.779 104.415 178.654 105.001 179.131C103.856 178.735 102.642 178.544 101.435 178.593C102.105 182.19 104.737 185.341 108.101 186.57C114.818 186.192 121.537 185.814 128.259 185.436C129.627 184.8 130.846 183.7 131.379 182.262C131.911 180.822 131.637 179.039 130.512 178.03Z" fill="black"/>
</g>
<rect width="16.4632" height="31.5988" fill="black" fill-opacity="0" transform="translate(63.2415 152.319)"/>
<path d="M79.5683 177.923C79.2647 176.949 78.1787 176.155 77.2659 176.556C78.2487 175.535 79.2979 174.358 79.2969 172.918C79.2941 171.48 77.4785 170.136 76.4504 171.112C76.9022 170.283 77.2796 169.342 77.1274 168.401C76.9755 167.459 76.1041 166.58 75.1858 166.75C76.7834 165.313 76.4283 162.247 74.5374 161.193C75.1391 160.173 75.4582 158.979 75.4486 157.784C75.444 157.237 75.3365 156.625 74.8971 156.302C74.5572 156.051 74.0036 156.174 73.8058 156.493C74.0676 155.229 73.6439 153.826 72.6957 152.946C72.3189 152.595 71.8425 152.317 71.3347 152.319C70.4044 152.322 69.7134 153.283 69.6508 154.222C69.5891 155.161 69.9833 156.069 70.3694 156.931C68.7023 156.634 67.2342 158.318 67.0772 160.022C66.9189 161.727 67.6743 163.377 68.409 164.93C68.1284 164.253 67.1568 164.122 66.5597 164.521C65.963 164.921 65.6804 165.659 65.5277 166.371C65.0082 168.783 65.6322 171.438 67.1665 173.376C66.2842 172.425 64.579 173.461 64.4587 174.754C64.3375 176.048 65.166 177.225 65.9503 178.261C65.495 177.366 64.0381 177.548 63.5328 178.399C63.0249 179.251 63.2482 180.376 63.6911 181.279C64.134 182.181 64.7766 182.979 65.136 183.918C69.5521 183.546 73.9696 183.175 78.3892 182.804C78.9159 182.334 79.1457 181.612 79.3398 180.921C79.6155 179.945 79.8702 178.897 79.5683 177.923Z" fill="#79A958"/>
<rect width="32.7311" height="27.3459" fill="black" fill-opacity="0" transform="translate(78.0712 157.603)"/>
<path d="M110.657 176.65C110.292 175.998 109.358 176.023 108.663 176.269C108.272 176.406 107.903 176.599 107.553 176.819C107.959 175.937 108.266 175.007 108.455 174.052C108.605 173.293 108.572 172.302 107.876 171.991C107.382 171.771 106.815 172.034 106.358 172.327C105.332 172.988 104.448 173.855 103.712 174.84C105.191 172.032 106.122 168.921 106.393 165.742C103.856 166.759 101.884 169.032 101.084 171.673C101.995 167.248 102.702 162.691 101.576 158.347C98.0635 161.453 96.306 166.462 97.0681 171.134C95.7122 166.967 95.6488 162.35 93.5562 158.507C93.3877 158.197 93.1919 157.881 92.8849 157.716C92.3309 157.417 91.6115 157.75 91.2705 158.28C90.9303 158.811 90.8763 159.477 90.8558 160.112C90.7342 163.761 91.3963 167.441 92.7733 170.819C91.5054 168.519 90.2355 166.217 88.9631 163.916C88.0894 162.336 87.0468 160.617 85.3319 160.122C84.7809 161.411 85.198 162.901 85.6465 164.237C86.7758 167.597 88.0792 170.898 89.5483 174.118C88.148 171.318 86.2862 168.755 84.064 166.568C83.6394 166.149 83.0498 165.714 82.5143 165.957C81.8763 166.246 81.9319 167.179 82.1188 167.868C83.0523 171.307 84.6602 174.555 86.8083 177.371C84.7408 174.898 82.3075 172.638 79.2416 171.938C78.8697 171.852 78.4121 171.823 78.1848 172.131C77.9488 172.451 78.1251 172.908 78.3106 173.266C80.3953 177.275 83.0026 181 86.0338 184.308C93.0521 184.522 100.069 184.735 107.084 184.949C109.047 183.079 110.367 180.51 110.76 177.792C110.815 177.406 110.847 176.988 110.657 176.65Z" fill="#579326"/>
<rect width="30.2058" height="14.0655" fill="black" fill-opacity="0" transform="translate(100.103 171.5)"/>
<path d="M129.18 177.025C128.054 176.016 126.086 176.065 125.162 177.281C125.513 176.707 125.873 176.107 125.955 175.438C126.037 174.767 125.755 174.002 125.143 173.753C124.797 173.611 124.408 173.653 124.04 173.708C122.604 173.927 121.197 174.344 119.871 174.946C120.063 173.473 118.998 171.95 117.572 171.658C116.145 171.367 114.578 172.352 114.189 173.785C113.846 172.226 112.091 171.163 110.585 171.597C109.077 172.03 108.126 173.875 108.627 175.388C107.742 174.691 106.672 174.162 105.554 174.191C104.435 174.218 103.29 174.918 102.977 176.013C102.761 176.773 103.083 177.648 103.669 178.126C102.524 177.729 101.31 177.539 100.103 177.587C100.773 181.184 103.405 184.335 106.768 185.565C113.485 185.186 120.205 184.808 126.927 184.43C128.295 183.794 129.514 182.694 130.046 181.256C130.579 179.816 130.305 178.033 129.18 177.025Z" fill="#79A958"/>
<rect width="95.892" height="56.2609" fill="black" fill-opacity="0" transform="translate(57.1716 173.998)"/>
<path d="M148.008 173.998C147.973 176.561 147.939 179.124 147.904 181.687C146.223 181.687 144.542 181.687 142.862 181.687C142.892 179.124 142.923 176.561 142.953 173.998C141.268 173.998 139.582 173.998 137.897 173.998C137.871 176.561 137.845 179.124 137.819 181.687C136.138 181.687 134.458 181.687 132.777 181.687C132.799 179.124 132.821 176.561 132.843 173.998C131.157 173.998 129.472 173.998 127.787 173.998C127.769 176.561 127.752 179.124 127.734 181.687C126.105 181.687 124.478 181.687 122.85 181.687C122.863 179.124 122.877 176.561 122.89 173.998C122.838 173.998 122.785 173.998 122.732 173.998C121.1 173.998 119.468 173.998 117.836 173.998C117.782 173.998 117.73 173.998 117.677 173.998C117.668 176.561 117.658 179.124 117.649 181.687C116.022 181.687 114.394 181.687 112.766 181.687C112.771 179.124 112.776 176.561 112.781 173.998C112.728 173.998 112.674 173.998 112.621 173.998C110.989 173.998 109.357 173.998 107.725 173.998C107.672 173.998 107.619 173.998 107.565 173.998C107.565 176.561 107.564 179.124 107.564 181.687C105.936 181.687 104.309 181.687 102.681 181.687C102.677 179.124 102.674 176.561 102.67 173.998C102.617 173.998 102.563 173.998 102.51 173.998C100.878 173.998 99.2457 173.998 97.614 173.998C97.561 173.998 97.5082 173.998 97.4557 173.998C97.4636 176.561 97.4715 179.124 97.4796 181.687C95.8515 181.687 94.2234 181.687 92.5952 181.687C92.5831 179.124 92.5709 176.561 92.5587 173.998C92.5057 173.998 92.4527 173.998 92.3994 173.998C90.7677 173.998 89.1356 173.998 87.5034 173.998C87.4506 173.998 87.3974 173.998 87.3441 173.998C87.3608 176.561 87.3773 179.124 87.3938 181.687C85.7662 181.687 84.1386 181.687 82.511 181.687C82.4902 179.124 82.4694 176.561 82.4486 173.998C80.7637 173.998 79.0787 173.998 77.3938 173.998C77.4187 176.561 77.4435 179.124 77.4689 181.687C75.7878 181.687 74.1069 181.687 72.426 181.687C72.3966 179.124 72.3674 176.561 72.3383 173.998C70.6531 173.998 68.9676 173.998 67.2827 173.998C67.3162 176.561 67.3497 179.124 67.3831 181.687C65.7023 181.687 64.0214 181.687 62.3405 181.687C62.303 179.124 62.2649 176.561 62.2274 173.998C60.5419 173.998 58.857 173.998 57.1716 173.998C57.4795 192.751 57.7875 211.505 58.0955 230.258C67.9661 230.258 77.8367 230.258 87.7079 230.258C99.3365 230.258 110.965 230.258 122.594 230.258C132.465 230.258 142.336 230.258 152.207 230.258C152.492 211.505 152.778 192.751 153.064 173.998C151.378 173.998 149.693 173.998 148.008 173.998Z" fill="#E2D9D2"/>
<rect width="18.2052" height="16.4325" fill="black" fill-opacity="0" transform="translate(62.0374 186.239)"/>
<path d="M68.5358 194.579C66.411 194.579 64.2862 194.579 62.1614 194.579C62.1512 193.884 62.1406 193.189 62.1304 192.494C64.2565 192.494 66.3831 192.494 68.5092 192.494C68.5181 193.189 68.5269 193.884 68.5358 194.579Z" fill="#EDE5DF"/>
<path d="M71.0107 191.551C68.8839 191.551 66.757 191.551 64.6307 191.551C64.6205 190.856 64.6109 190.161 64.6013 189.466C66.7291 189.466 68.8575 189.466 70.9858 189.466C70.994 190.161 71.0023 190.856 71.0107 191.551Z" fill="#EDE5DF"/>
<path d="M80.2426 202.672C78.1233 202.672 76.0046 202.672 73.8856 202.672C73.878 201.977 73.8702 201.282 73.8625 200.587C75.983 200.587 78.1035 200.587 80.2238 200.587C80.2299 201.282 80.2365 201.977 80.2426 202.672Z" fill="#EDE5DF"/>
<path d="M68.4559 188.325C66.3268 188.325 64.1974 188.325 62.0686 188.325C62.0579 187.63 62.0478 186.934 62.0374 186.239C64.168 186.239 66.2989 186.239 68.4293 186.239C68.4384 186.934 68.4471 187.63 68.4559 188.325Z" fill="#EDE5DF"/>
<rect width="32.9262" height="81.4171" fill="black" fill-opacity="0" transform="translate(150.327 148.841)"/>
<path d="M178.753 230.258C169.851 230.258 160.947 230.258 152.045 230.258C152.407 206.423 152.768 182.587 153.13 158.751C162.247 158.751 171.363 158.751 180.48 158.751C179.904 182.587 179.329 206.423 178.753 230.258Z" fill="#CDBFB2"/>
<path d="M166.999 148.841C161.433 152.145 155.885 155.448 150.356 158.751C161.322 158.751 172.287 158.751 183.253 158.751C177.853 155.448 172.434 152.145 166.999 148.841Z" fill="#EE8F00"/>
<path d="M183.203 160.79C172.244 160.79 161.285 160.79 150.327 160.79C150.337 160.11 150.347 159.431 150.357 158.751C161.322 158.751 172.288 158.751 183.254 158.751C183.237 159.431 183.219 160.11 183.203 160.79Z" fill="#695135"/>
<rect width="13.8161" height="27.1513" fill="black" fill-opacity="0" transform="translate(159.411 190.594)"/>
<path d="M165.75 210.597C163.637 210.597 161.524 210.597 159.411 210.597C159.423 209.902 159.435 209.207 159.448 208.512C161.562 208.512 163.677 208.512 165.792 208.512C165.778 209.207 165.764 209.902 165.75 210.597Z" fill="#AFA297"/>
<path d="M173.18 217.745C171.073 217.745 168.965 217.745 166.856 217.745C166.87 217.05 166.884 216.356 166.898 215.66C169.008 215.66 171.117 215.66 173.227 215.66C173.211 216.356 173.196 217.05 173.18 217.745Z" fill="#AFA297"/>
<path d="M166.103 192.678C163.977 192.678 161.851 192.678 159.725 192.678C159.737 191.983 159.749 191.288 159.762 190.594C161.889 190.594 164.017 190.594 166.143 190.594C166.13 191.288 166.116 191.983 166.103 192.678Z" fill="#AFA297"/>
<rect width="11.7643" height="8.34021" fill="black" fill-opacity="0" transform="translate(164.398 175.352)"/>
<path d="M170.802 180.664C168.667 180.664 166.533 180.664 164.398 180.664C164.411 179.97 164.424 179.275 164.437 178.579C166.573 178.579 168.71 178.579 170.845 178.579C170.831 179.275 170.816 179.97 170.802 180.664Z" fill="#AFA297"/>
<path d="M175.972 183.692C173.839 183.692 171.707 183.692 169.574 183.692C169.589 182.997 169.603 182.302 169.618 181.607C171.752 181.607 173.885 181.607 176.02 181.607C176.004 182.302 175.987 182.997 175.972 183.692Z" fill="#AFA297"/>
<path d="M176.114 177.437C173.977 177.437 171.841 177.437 169.704 177.437C169.719 176.742 169.733 176.047 169.747 175.352C171.885 175.352 174.024 175.352 176.162 175.352C176.147 176.047 176.131 176.742 176.114 177.437Z" fill="#AFA297"/>
<rect width="9.06089" height="8.33971" fill="black" fill-opacity="0" transform="translate(34.1553 172.989)"/>
<path d="M40.758 181.328C38.6241 181.328 36.4897 181.328 34.3555 181.328C34.339 180.633 34.3222 179.938 34.3055 179.244C36.4409 179.244 38.5767 179.244 40.7124 179.244C40.7276 179.938 40.7428 180.633 40.758 181.328Z" fill="#AFA297"/>
<path d="M43.2162 178.3C41.0797 178.3 38.9437 178.3 36.8072 178.3C36.7915 177.605 36.7753 176.91 36.759 176.215C38.897 176.215 41.0345 176.215 43.172 176.215C43.1867 176.91 43.2015 177.605 43.2162 178.3Z" fill="#AFA297"/>
<path d="M40.621 175.074C38.4825 175.074 36.344 175.074 34.2055 175.074C34.1888 174.378 34.172 173.683 34.1553 172.989C36.2953 172.989 38.4353 172.989 40.5754 172.989C40.5906 173.683 40.6058 174.378 40.621 175.074Z" fill="#AFA297"/>
<rect width="11.6398" height="8.33971" fill="black" fill-opacity="0" transform="translate(42.5931 201.569)"/>
<path d="M48.9853 206.88C46.8697 206.88 44.7537 206.88 42.6378 206.88C42.6231 206.185 42.6081 205.49 42.5931 204.796C44.7103 204.796 46.8278 204.796 48.9453 204.796C48.9584 205.49 48.9719 206.185 48.9853 206.88Z" fill="#AFA297"/>
<path d="M54.2329 209.909C52.1192 209.909 50.0053 209.909 47.8914 209.909C47.8777 209.214 47.864 208.518 47.8503 207.824C49.9655 207.824 52.0812 207.824 54.1964 207.824C54.2085 208.518 54.2207 209.214 54.2329 209.909Z" fill="#AFA297"/>
<path d="M54.1229 203.654C52.0046 203.654 49.8864 203.654 47.7682 203.654C47.7545 202.959 47.7408 202.264 47.7271 201.569C49.8469 201.569 51.9666 201.569 54.0863 201.569C54.0985 202.264 54.1109 202.959 54.1229 203.654Z" fill="#AFA297"/>
<rect width="72.2591" height="39.1192" fill="black" fill-opacity="0" transform="translate(77.8596 187.087)"/>
<path d="M150.088 213.346C147.977 213.346 145.866 213.346 143.754 213.346C143.763 212.651 143.772 211.956 143.78 211.261C145.893 211.261 148.006 211.261 150.119 211.261C150.109 211.956 150.098 212.651 150.088 213.346Z" fill="#EDE5DF"/>
<path d="M142.174 192.399C140.048 192.399 137.922 192.399 135.795 192.399C135.802 191.704 135.809 191.008 135.815 190.313C137.943 190.313 140.071 190.313 142.199 190.313C142.191 191.008 142.182 191.704 142.174 192.399Z" fill="#EDE5DF"/>
<path d="M84.1873 226.206C82.0848 226.206 79.9823 226.206 77.8799 226.206C77.8733 225.511 77.8667 224.816 77.8596 224.121C79.9636 224.121 82.0676 224.121 84.1711 224.121C84.1767 224.816 84.1817 225.511 84.1873 226.206Z" fill="#EDE5DF"/>
<path d="M147.352 195.427C145.228 195.427 143.104 195.427 140.98 195.427C140.988 194.732 140.996 194.037 141.003 193.342C143.13 193.342 145.255 193.342 147.38 193.342C147.371 194.037 147.362 194.732 147.352 195.427Z" fill="#EDE5DF"/>
<path d="M139.697 189.172C137.568 189.172 135.439 189.172 133.311 189.172C133.317 188.478 133.323 187.783 133.329 187.087C135.459 187.087 137.589 187.087 139.719 187.087C139.712 187.783 139.704 188.478 139.697 189.172Z" fill="#EDE5DF"/>
<path d="M101.07 189.172C98.9413 189.172 96.8129 189.172 94.684 189.172C94.6815 188.478 94.6784 187.783 94.6757 187.087C96.8058 187.087 98.9357 187.087 101.066 187.087C101.067 187.783 101.069 188.478 101.07 189.172Z" fill="#EDE5DF"/>
<rect width="11.1137" height="9.69813" fill="black" fill-opacity="0" transform="translate(148.509 110.867)"/>
<path d="M159.587 120.566C157.41 120.566 155.233 120.566 153.056 120.566C153.067 119.87 153.077 119.176 153.087 118.481C155.265 118.481 157.444 118.481 159.622 118.481C159.61 119.176 159.598 119.87 159.587 120.566Z" fill="#7F7773"/>
<path d="M155.054 112.952C152.873 112.952 150.691 112.952 148.509 112.952C148.518 112.257 148.527 111.563 148.536 110.867C150.72 110.867 152.904 110.867 155.087 110.867C155.077 111.563 155.066 112.257 155.054 112.952Z" fill="#7F7773"/>
<rect width="10.7527" height="5.89159" fill="black" fill-opacity="0" transform="translate(140.523 147.798)"/>
<path d="M146.983 153.69C144.83 153.69 142.676 153.69 140.523 153.69C140.531 152.995 140.538 152.3 140.547 151.605C142.701 151.605 144.856 151.605 147.011 151.605C147.002 152.3 146.993 152.995 146.983 153.69Z" fill="#A79B8D"/>
<path d="M151.245 149.883C149.089 149.883 146.933 149.883 144.777 149.883C144.786 149.188 144.794 148.493 144.803 147.798C146.961 147.798 149.118 147.798 151.276 147.798C151.265 148.493 151.256 149.188 151.245 149.883Z" fill="#A79B8D"/>
<rect width="6.68621" height="26.3233" fill="black" fill-opacity="0" transform="translate(129.692 140.198)"/>
<path d="M136.125 166.522C133.981 166.522 131.837 166.522 129.692 166.522C129.697 165.827 129.703 165.131 129.708 164.436C131.854 164.436 134 164.436 136.145 164.436C136.139 165.131 136.132 165.827 136.125 166.522Z" fill="#A79B8D"/>
<path d="M136.358 142.284C134.196 142.284 132.036 142.284 129.874 142.284C129.879 141.589 129.884 140.894 129.89 140.198C132.052 140.198 134.215 140.198 136.378 140.198C136.372 140.894 136.365 141.589 136.358 142.284Z" fill="#A79B8D"/>
<path opacity="0.3" d="M57.1716 173.998C57.4795 192.751 57.7875 211.505 58.0955 230.258C59.2487 230.258 60.4019 230.258 61.5556 230.258C61.2695 211.505 60.9831 192.751 60.6972 173.998C59.5219 173.998 58.3466 173.998 57.1716 173.998Z" fill="#352D28"/>
<path opacity="0.3" d="M149.374 173.998C149.111 192.751 148.848 211.505 148.585 230.258C149.739 230.258 150.892 230.258 152.045 230.258C152.329 211.505 152.614 192.751 152.899 173.998C151.724 173.998 150.549 173.998 149.374 173.998Z" fill="#352D28"/>
<rect width="11.0763" height="26.1307" fill="black" fill-opacity="0" transform="translate(37.7919 169.584)"/>
<rect width="11.0763" height="26.1307" fill="black" fill-opacity="0" transform="translate(37.7919 169.584)"/>
<path d="M38.2669 195.663C38.1091 188.615 37.9509 181.567 37.7931 174.519C37.7312 171.805 40.0843 169.584 43.0204 169.584C45.9575 169.584 48.4034 171.805 48.4562 174.519C48.5937 181.493 48.7309 188.467 48.8682 195.441C45.3415 195.738 41.8068 195.761 38.2669 195.663Z" fill="#F1D197"/>
<path d="M41.8033 195.078C40.9255 195.078 40.025 195.068 39.0701 195.046C38.9184 188.204 38.7662 181.362 38.6143 174.519C38.561 172.15 40.5437 170.221 43.0339 170.221C45.5242 170.221 47.5887 172.15 47.6353 174.519C47.7703 181.301 47.9052 188.083 48.0402 194.865C46.095 195.009 44.0468 195.078 41.8033 195.078Z" fill="#3D7E9B"/>
<path d="M43.5658 195.46C43.3127 195.46 43.0592 195.46 42.8058 195.46C42.6247 186.923 42.443 178.386 42.2614 169.848C42.5166 169.848 42.7713 169.848 43.0265 169.848C43.2061 178.386 43.3862 186.923 43.5658 195.46Z" fill="#F1D197"/>
<path d="M38.1036 189.929C38.0993 189.732 38.095 189.534 38.0904 189.336C41.6581 189.336 45.2264 189.336 48.7941 189.336C48.7979 189.534 48.8017 189.732 48.8058 189.929C45.2385 189.929 41.6708 189.929 38.1036 189.929Z" fill="#F1D197"/>
<path d="M37.889 180.356C37.8844 180.159 37.8801 179.961 37.8755 179.764C41.4522 179.764 45.029 179.764 48.6059 179.764C48.6095 179.961 48.6135 180.159 48.6176 180.356C45.0412 180.356 41.4648 180.356 37.889 180.356Z" fill="#F1D197"/>
<path opacity="0.1" d="M40.9474 184.92C42.403 179.869 44.5024 175.395 46.7936 172.091C45.957 170.963 44.5775 170.221 43.0339 170.221C40.5437 170.221 38.561 172.15 38.6143 174.519C38.7662 181.362 38.9184 188.204 39.0701 195.046C39.1011 195.047 39.131 195.047 39.1625 195.048C39.3233 191.99 39.9073 188.53 40.9474 184.92Z" fill="white"/>
<rect width="11.7761" height="27.8433" fill="black" fill-opacity="0" transform="translate(160.444 168.728)"/>
<rect width="11.7761" height="27.8433" fill="black" fill-opacity="0" transform="translate(160.444 168.728)"/>
<path d="M160.444 196.516C160.582 189.006 160.72 181.496 160.857 173.986C160.909 171.095 163.513 168.728 166.641 168.728C169.77 168.728 172.281 171.095 172.219 173.986C172.063 181.418 171.906 188.848 171.75 196.279C167.979 196.596 164.212 196.62 160.444 196.516Z" fill="#F1D197"/>
<path d="M164.238 195.893C163.302 195.893 162.343 195.882 161.327 195.859C161.462 188.568 161.597 181.277 161.732 173.986C161.778 171.462 163.974 169.406 166.627 169.406C169.282 169.406 171.397 171.462 171.344 173.986C171.194 181.213 171.043 188.439 170.893 195.665C168.814 195.819 166.628 195.893 164.238 195.893Z" fill="#3D7E9B"/>
<path d="M166.099 196.299C165.829 196.299 165.559 196.299 165.29 196.299C165.467 187.203 165.644 178.106 165.821 169.01C166.093 169.01 166.364 169.01 166.636 169.01C166.457 178.106 166.278 187.203 166.099 196.299Z" fill="#F1D197"/>
<path d="M160.519 190.406C160.523 190.196 160.527 189.985 160.531 189.775C164.333 189.775 168.134 189.775 171.936 189.775C171.931 189.985 171.927 190.196 171.923 190.406C168.122 190.406 164.32 190.406 160.519 190.406Z" fill="#F1D197"/>
<path d="M160.706 180.206C160.71 179.996 160.714 179.786 160.718 179.575C164.528 179.575 168.34 179.575 172.15 179.575C172.146 179.786 172.142 179.996 172.137 180.206C168.327 180.206 164.517 180.206 160.706 180.206Z" fill="#F1D197"/>
<path opacity="0.1" d="M163.766 185.069C165.537 179.687 167.968 174.919 170.553 171.399C169.71 170.197 168.273 169.406 166.627 169.406C163.974 169.406 161.778 171.462 161.732 173.986C161.597 181.277 161.462 188.568 161.327 195.859C161.36 195.86 161.392 195.86 161.425 195.86C161.729 192.602 162.501 188.915 163.766 185.069Z" fill="white"/>
<rect width="8.46606" height="21.1822" fill="black" fill-opacity="0" transform="translate(143.972 140.094)"/>
<rect width="8.46606" height="21.1822" fill="black" fill-opacity="0" transform="translate(143.972 140.094)"/>
<path d="M143.972 160.172C144.051 154.587 144.13 149.002 144.209 143.416C144.239 141.266 146.119 139.793 148.385 140.146C150.651 140.497 152.474 142.546 152.437 144.696C152.344 150.223 152.251 155.749 152.158 161.276C149.429 161.085 146.701 160.677 143.972 160.172Z" fill="#F1D197"/>
<path d="M146.717 160.137C146.04 160.031 145.346 159.914 144.609 159.782C144.688 154.36 144.765 148.937 144.843 143.515C144.87 141.637 146.455 140.351 148.377 140.65C150.298 140.949 151.836 142.72 151.804 144.598C151.714 149.972 151.625 155.346 151.535 160.721C150.031 160.6 148.449 160.408 146.717 160.137Z" fill="#3D7E9B"/>
<path d="M148.066 160.651C147.871 160.62 147.676 160.59 147.48 160.559C147.583 153.793 147.688 147.028 147.791 140.263C147.988 140.294 148.185 140.324 148.382 140.355C148.277 147.12 148.171 153.886 148.066 160.651Z" fill="#F1D197"/>
<path d="M144.009 155.624C144.011 155.468 144.014 155.311 144.016 155.154C146.77 155.584 149.523 156.014 152.274 156.444C152.272 156.6 152.269 156.757 152.267 156.914C149.516 156.484 146.763 156.054 144.009 155.624Z" fill="#F1D197"/>
<path d="M144.116 148.038C144.119 147.881 144.121 147.725 144.123 147.568C146.884 147.999 149.643 148.428 152.403 148.858C152.4 149.015 152.397 149.171 152.394 149.328C149.637 148.898 146.877 148.468 144.116 148.038Z" fill="#F1D197"/>
<path opacity="0.3" d="M146.347 152.01C147.614 148.196 149.363 144.913 151.224 142.578C150.61 141.587 149.568 140.835 148.377 140.651C146.455 140.352 144.87 141.637 144.843 143.515C144.765 148.937 144.688 154.36 144.609 159.782C144.633 159.786 144.657 159.789 144.68 159.794C144.891 157.398 145.441 154.736 146.347 152.01Z" fill="white"/>
<path opacity="0.3" d="M62.0711 56.7527C63.1421 67.4482 64.204 78.1437 65.2568 88.8393C70.0483 88.8568 74.8393 88.8735 79.6307 88.8913C74.5858 78.178 69.4897 67.4655 64.3425 56.7527C63.5856 56.7527 62.8283 56.7527 62.0711 56.7527Z" fill="#352D28"/>
<path opacity="0.3" d="M155.015 69.2058C156.065 77.5833 157.106 85.9608 158.137 94.3385C161.136 94.3385 164.135 94.3385 167.135 94.3385C163.432 85.9608 159.698 77.5833 155.933 69.2058C155.627 69.2058 155.321 69.2058 155.015 69.2058Z" fill="#352D28"/>
<path opacity="0.3" d="M110.157 32.2031C112.578 35.7464 114.991 39.2898 117.396 42.8332C121.944 42.8332 126.493 42.8332 131.042 42.8332C124.885 39.2622 118.708 35.6914 112.51 32.1204C112.514 30.2133 112.517 28.3063 112.52 26.3987C111.838 26.3987 111.156 26.3987 110.474 26.3987C110.368 28.3336 110.263 30.2681 110.157 32.2031Z" fill="#352D28"/>
<path opacity="0.3" d="M93.3542 45.4904C93.3664 45.4904 125.417 50.0013 127.501 53.5314C127.519 50.7811 127.537 48.0313 127.555 45.2815C116.154 45.351 104.754 45.4207 93.3542 45.4904Z" fill="#352D28"/>
<path opacity="0.3" d="M93.5054 80.8342C104.778 80.8342 116.051 80.8342 127.324 80.8342C127.304 83.868 127.285 86.9023 127.264 89.9361C127.273 89.9361 114.667 82.8757 93.513 82.7286C93.5105 82.0973 93.508 81.4658 93.5054 80.8342Z" fill="#352D28"/>
<path opacity="0.3" d="M118.284 131.448C131.103 131.448 143.921 131.448 156.739 131.448C156.685 134.807 156.63 138.166 156.576 141.525C156.586 141.525 142.329 133.708 118.276 133.546C118.279 132.846 118.281 132.147 118.284 131.448Z" fill="#352D28"/>
<path opacity="0.3" d="M153.099 160.754C162.228 160.754 171.358 160.754 180.487 160.754C180.424 163.371 180.361 165.988 180.297 168.605C180.303 168.605 170.203 162.515 153.074 162.388C153.083 161.843 153.091 161.298 153.099 160.754Z" fill="#352D28"/>
<path opacity="0.3" d="M29.5804 160.791C38.7093 160.791 47.8387 160.791 56.9678 160.791C57.0107 163.407 57.0538 166.025 57.097 168.642C57.1023 168.642 46.7552 162.552 29.622 162.425C29.6081 161.88 29.5941 161.336 29.5804 160.791Z" fill="#352D28"/>
<path opacity="0.2" d="M141.814 131.448C141.653 145.631 141.492 159.815 141.331 173.998C141.872 173.998 142.412 173.998 142.953 173.998C142.923 176.561 142.892 179.124 142.862 181.688C144.435 181.688 146.009 181.688 147.583 181.688C147.725 179.124 147.866 176.561 148.008 173.998C149.638 173.998 151.269 173.998 152.899 173.998C152.966 169.596 153.032 165.193 153.099 160.791C151.918 160.791 150.739 160.791 149.559 160.791C149.824 160.111 150.09 159.431 150.357 158.751C152.353 157.559 154.353 156.365 156.355 155.173C156.483 147.264 156.611 139.356 156.739 131.448C151.764 131.448 146.789 131.448 141.814 131.448Z" fill="black"/>
<path opacity="0.2" d="M44.8719 160.791C46.4166 183.858 47.9366 206.924 49.4323 229.991C52.3202 230.08 55.2081 230.169 58.0955 230.258C57.7104 207.103 57.3253 183.946 56.9399 160.791C52.9174 160.791 48.8945 160.791 44.8719 160.791Z" fill="black"/>
<path opacity="0.2" d="M168.403 160.791C169.011 183.858 169.595 206.924 170.154 229.991C173.039 230.08 175.923 230.169 178.807 230.258C179.361 207.103 179.916 183.946 180.471 160.791C176.449 160.791 172.426 160.791 168.403 160.791Z" fill="black"/>
<path opacity="0.3" d="M137.64 118.481C140.439 122.065 143.226 125.649 146.005 129.233C150.896 129.233 155.787 129.233 160.677 129.233C153.025 125.649 145.346 122.065 137.64 118.481Z" fill="#352D28"/>
<path opacity="0.3" d="M167 148.841C168.426 152.145 169.848 155.448 171.265 158.751C175.259 158.841 179.253 158.93 183.247 159.02C177.85 155.627 172.433 152.234 167 148.841Z" fill="#352D28"/>
<path opacity="0.3" d="M43.0234 148.841C44.3798 152.145 45.7322 155.448 47.0802 158.751C51.2801 158.751 55.4798 158.751 59.6797 158.751C54.1452 155.448 48.5937 152.145 43.0234 148.841Z" fill="#352D28"/>
<rect width="8.73796" height="20.3501" fill="black" fill-opacity="0" transform="translate(106.071 49.833)"/>
<rect width="8.68318" height="20.3501" fill="black" fill-opacity="0" transform="translate(106.098 49.833)"/>
<path d="M106.103 70.1425C106.101 64.6538 106.1 59.1653 106.098 53.6766C106.097 51.5631 108.053 49.8333 110.444 49.833C112.836 49.833 114.787 51.5634 114.781 53.6766C114.768 59.1075 114.754 64.5387 114.741 69.9698C111.863 70.2011 108.984 70.2191 106.103 70.1425Z" fill="#F1D197"/>
<path d="M108.994 69.6871C108.279 69.6871 107.546 69.6785 106.768 69.6625C106.768 64.3337 106.768 59.0052 106.768 53.6767C106.767 51.831 108.416 50.3296 110.444 50.3293C112.471 50.3296 114.118 51.831 114.113 53.6767C114.102 58.9581 114.089 64.2397 114.077 69.5213C112.491 69.6328 110.821 69.6871 108.994 69.6871Z" fill="#3D7E9B"/>
<path d="M110.422 69.984C110.216 69.984 110.01 69.984 109.803 69.984C109.81 63.3354 109.815 56.6872 109.822 50.0386C110.029 50.0386 110.237 50.0386 110.445 50.0386C110.437 56.6872 110.43 63.3354 110.422 69.984Z" fill="#F1D197"/>
<path d="M106.074 65.6772C106.074 65.5234 106.074 65.3697 106.073 65.2158C108.979 65.2158 111.885 65.2158 114.791 65.2158C114.79 65.3697 114.79 65.5234 114.79 65.6772C111.884 65.6772 108.979 65.6772 106.074 65.6772Z" fill="#F1D197"/>
<path d="M106.072 58.2224C106.072 58.0688 106.071 57.9149 106.071 57.7615C108.984 57.7615 111.897 57.7615 114.809 57.7615C114.809 57.9149 114.809 58.0688 114.808 58.2224C111.896 58.2224 108.984 58.2224 106.072 58.2224Z" fill="#F1D197"/>
<path opacity="0.1" d="M108.48 61.7763C109.757 57.843 111.546 54.358 113.472 51.7856C112.811 50.9074 111.701 50.3293 110.444 50.3293C108.416 50.3296 106.767 51.831 106.768 53.6767C106.768 59.0052 106.768 64.3337 106.768 69.6625C106.794 69.6627 106.818 69.6632 106.843 69.6638C107.029 67.2821 107.568 64.587 108.48 61.7763Z" fill="white"/>
<rect width="8.64156" height="20.35" fill="black" fill-opacity="0" transform="translate(106.081 84.5415)"/>
<rect width="8.58754" height="20.35" fill="black" fill-opacity="0" transform="translate(106.107 84.5415)"/>
<path d="M106.111 104.851C106.11 99.3623 106.109 93.8735 106.107 88.3851C106.106 86.2716 108.041 84.5415 110.405 84.5415C112.771 84.5415 114.701 86.2716 114.695 88.3851C114.681 93.816 114.668 99.2469 114.654 104.678C111.809 104.91 108.961 104.927 106.111 104.851Z" fill="#F1D197"/>
<path d="M108.971 104.395C108.264 104.395 107.538 104.387 106.77 104.371C106.77 99.042 106.77 93.7138 106.769 88.385C106.769 86.5393 108.4 85.0374 110.406 85.0374C112.411 85.0374 114.039 86.5393 114.034 88.385C114.022 93.6666 114.011 98.9477 113.999 104.229C112.429 104.341 110.778 104.395 108.971 104.395Z" fill="#3D7E9B"/>
<path d="M110.384 104.692C110.18 104.692 109.976 104.692 109.772 104.692C109.778 98.0441 109.784 91.3955 109.79 84.7468C109.996 84.7468 110.201 84.7468 110.406 84.7468C110.398 91.3955 110.391 98.0441 110.384 104.692Z" fill="#F1D197"/>
<path d="M106.083 100.386C106.083 100.232 106.083 100.078 106.083 99.9238C108.957 99.9238 111.83 99.9238 114.704 99.9238C114.703 100.078 114.703 100.232 114.703 100.386C111.83 100.386 108.956 100.386 106.083 100.386Z" fill="#F1D197"/>
<path d="M106.081 92.9304C106.081 92.7765 106.081 92.6229 106.081 92.4695C108.961 92.4695 111.842 92.4695 114.722 92.4695C114.722 92.6229 114.722 92.7765 114.721 92.9304C111.841 92.9304 108.961 92.9304 106.081 92.9304Z" fill="#F1D197"/>
<path opacity="0.1" d="M108.463 96.4844C109.725 92.551 111.496 89.066 113.4 86.4942C112.746 85.6154 111.649 85.0374 110.406 85.0374C108.4 85.0374 106.769 86.5393 106.769 88.385C106.77 93.7138 106.77 99.042 106.77 104.371C106.795 104.371 106.819 104.371 106.844 104.372C107.028 101.99 107.561 99.2955 108.463 96.4844Z" fill="white"/>
<rect width="8.72352" height="20.3498" fill="black" fill-opacity="0" transform="translate(150.726 100.961)"/>
<rect width="8.72352" height="20.3498" fill="black" fill-opacity="0" transform="translate(150.726 100.961)"/>
<path d="M150.726 121.27C150.804 115.782 150.881 110.293 150.96 104.804C150.989 102.691 152.927 100.961 155.264 100.961C157.602 100.961 159.485 102.691 159.449 104.804C159.357 110.235 159.265 115.666 159.173 121.098C156.356 121.329 153.542 121.347 150.726 121.27Z" fill="#C4AA7B"/>
<path d="M153.558 120.815C152.859 120.815 152.143 120.807 151.383 120.79C151.46 115.461 151.537 110.133 151.614 104.804C151.64 102.959 153.274 101.457 155.256 101.457C157.239 101.457 158.827 102.959 158.796 104.804C158.707 110.086 158.619 115.367 158.53 120.649C156.977 120.761 155.344 120.815 153.558 120.815Z" fill="#2B5A6E"/>
<path d="M154.951 121.112C154.749 121.112 154.547 121.112 154.345 121.112C154.448 114.464 154.55 107.815 154.652 101.167C154.855 101.167 155.058 101.167 155.261 101.167C155.158 107.815 155.054 114.464 154.951 121.112Z" fill="#C4AA7B"/>
<path d="M150.761 116.805C150.764 116.651 150.766 116.498 150.768 116.344C153.609 116.344 156.449 116.344 159.29 116.344C159.288 116.498 159.285 116.651 159.282 116.805C156.442 116.805 153.602 116.805 150.761 116.805Z" fill="#C4AA7B"/>
<path d="M150.867 109.351C150.869 109.197 150.872 109.043 150.874 108.889C153.722 108.889 156.569 108.889 159.417 108.889C159.414 109.043 159.411 109.197 159.408 109.351C156.561 109.351 153.715 109.351 150.867 109.351Z" fill="#C4AA7B"/>
<path opacity="0.1" d="M153.17 112.904C154.475 108.971 156.276 105.486 158.196 102.913C157.562 102.035 156.485 101.457 155.256 101.457C153.274 101.457 151.64 102.959 151.614 104.804C151.537 110.133 151.46 115.461 151.383 120.79C151.408 120.791 151.432 120.791 151.456 120.791C151.673 118.41 152.238 115.715 153.17 112.904Z" fill="white"/>
<rect width="8.49164" height="20.7327" fill="black" fill-opacity="0" transform="translate(122.522 140.09)"/>
<rect width="8.48262" height="20.7327" fill="black" fill-opacity="0" transform="translate(122.526 140.09)"/>
<path d="M122.526 160.823C122.554 155.334 122.583 149.846 122.611 144.357C122.621 142.244 124.522 140.333 126.835 140.111C129.147 139.889 131.026 141.438 131.009 143.551C130.966 148.983 130.924 154.413 130.881 159.844C128.096 160.344 125.312 160.63 122.526 160.823Z" fill="#F1D197"/>
<path d="M125.324 160.097C124.632 160.164 123.923 160.225 123.172 160.28C123.201 154.952 123.23 149.623 123.257 144.295C123.267 142.449 124.87 140.795 126.831 140.607C128.792 140.419 130.377 141.768 130.362 143.613C130.322 148.895 130.282 154.176 130.241 159.458C128.706 159.718 127.091 159.928 125.324 160.097Z" fill="#3D7E9B"/>
<path d="M126.703 160.261C126.504 160.28 126.305 160.3 126.105 160.319C126.147 153.671 126.189 147.022 126.231 140.374C126.431 140.355 126.632 140.335 126.833 140.316C126.79 146.965 126.747 153.613 126.703 160.261Z" fill="#F1D197"/>
<path d="M122.522 156.361C122.523 156.207 122.523 156.052 122.524 155.898C125.334 155.628 128.144 155.358 130.955 155.087C130.953 155.241 130.952 155.395 130.951 155.549C128.141 155.82 125.331 156.09 122.522 156.361Z" fill="#F1D197"/>
<path d="M122.56 148.906C122.561 148.752 122.561 148.598 122.562 148.444C125.378 148.174 128.195 147.903 131.013 147.633C131.012 147.786 131.011 147.94 131.009 148.094C128.192 148.364 125.376 148.635 122.56 148.906Z" fill="#F1D197"/>
<path opacity="0.1" d="M124.87 152.235C126.125 148.183 127.875 144.533 129.752 141.783C129.117 140.966 128.046 140.49 126.831 140.607C124.87 140.795 123.267 142.449 123.257 144.295C123.23 149.623 123.201 154.952 123.172 160.28C123.197 160.278 123.22 160.276 123.244 160.274C123.438 157.876 123.972 155.131 124.87 152.235Z" fill="white"/>
<rect width="20.4318" height="31.1947" fill="black" fill-opacity="0" transform="translate(94.8829 199.064)"/>
<rect width="20.4318" height="31.1947" fill="black" fill-opacity="0" transform="translate(94.8829 199.064)"/>
<path d="M95.317 230.258C95.4263 220.355 95.2807 210.449 94.8829 200.545C101.512 199.842 108.166 199.34 114.833 199.064C114.388 209.373 114.558 219.715 115.315 230.013C108.696 230.12 101.997 230.194 95.317 230.258Z" fill="#534635"/>
<rect width="13.599" height="26.7756" fill="black" fill-opacity="0" transform="translate(98.3084 201.848)"/>
<path d="M111.184 228.624C111.171 228.624 111.161 228.482 111.153 228.212C111.146 227.942 111.141 227.545 111.14 227.033C111.137 226.009 111.145 224.528 111.164 222.698C111.202 219.038 111.281 213.982 111.393 208.397C111.441 206.179 111.487 204.046 111.531 202.049C111.596 202.115 111.66 202.18 111.724 202.245C109.777 202.356 107.965 202.46 106.34 202.553C105.934 202.575 105.54 202.597 105.159 202.617C104.777 202.642 104.41 202.686 104.055 202.717C103.347 202.784 102.692 202.846 102.097 202.901C100.908 203.011 99.9619 203.092 99.3127 203.141C98.6633 203.19 98.3107 203.206 98.3084 203.183C98.3061 203.161 98.6544 203.102 99.2995 203.014C99.9444 202.925 100.887 202.806 102.072 202.664C102.666 202.593 103.319 202.516 104.026 202.432C104.38 202.394 104.746 202.343 105.128 202.311C105.51 202.284 105.904 202.256 106.311 202.227C107.94 202.117 109.757 201.994 111.71 201.862C111.775 201.857 111.841 201.853 111.907 201.848C111.905 201.918 111.904 201.988 111.903 202.058C111.866 204.054 111.826 206.188 111.784 208.406C111.671 213.99 111.549 219.045 111.44 222.704C111.386 224.533 111.335 226.014 111.291 227.037C111.27 227.548 111.25 227.945 111.232 228.214C111.213 228.483 111.198 228.624 111.184 228.624Z" fill="#362A18"/>
<rect width="0.81509" height="24.3102" fill="black" fill-opacity="0" transform="translate(103.811 204.735)"/>
<path d="M103.915 229.045C103.888 229.045 103.866 228.705 103.849 228.09C103.833 227.474 103.821 226.583 103.815 225.482C103.804 223.28 103.815 220.235 103.85 216.874C104.001 213.519 104.159 210.483 104.293 208.287C104.36 207.188 104.422 206.299 104.472 205.686C104.524 205.072 104.565 204.734 104.592 204.735C104.619 204.737 104.629 205.078 104.625 205.694C104.621 206.31 104.602 207.2 104.57 208.301C104.506 210.5 104.391 213.539 104.241 216.894C104.204 220.249 104.15 223.286 104.091 225.485C104.061 226.585 104.031 227.474 104.001 228.09C103.971 228.705 103.942 229.045 103.915 229.045Z" fill="#362A18"/>
<rect width="0.899792" height="23.682" fill="black" fill-opacity="0" transform="translate(107.248 204.524)"/>
<path d="M108.111 228.206C108.083 228.207 108.044 227.878 107.996 227.279C107.948 226.682 107.891 225.815 107.829 224.745C107.705 222.604 107.56 219.644 107.423 216.374C107.336 213.103 107.279 210.142 107.257 207.997C107.246 206.925 107.245 206.057 107.252 205.457C107.26 204.858 107.276 204.525 107.304 204.524C107.33 204.524 107.365 204.855 107.405 205.453C107.444 206.052 107.488 206.919 107.534 207.99C107.627 210.132 107.727 213.093 107.813 216.363C107.949 219.63 108.051 222.589 108.104 224.733C108.131 225.804 108.146 226.672 108.147 227.272C108.149 227.872 108.137 228.205 108.111 228.206Z" fill="#362A18"/>
<rect width="19.9163" height="11.6451" fill="black" fill-opacity="0" transform="translate(155.29 44.2778)"/>
<path d="M168.662 53.8753C168.093 55.0866 165.914 55.1315 165.914 55.1315C165.951 53.1725 165.988 51.2137 166.025 49.2549C167.019 49.2848 168.014 49.3147 169.009 49.3446C168.893 50.8552 168.777 52.3652 168.662 53.8753Z" fill="#9E2121"/>
<rect width="19.3564" height="8.25917" fill="black" fill-opacity="0" transform="translate(155.85 47.6638)"/>
<path d="M175.206 47.6638C174.059 47.7721 167.494 47.6638 167.494 47.6638C163.608 48.9611 159.726 50.2582 155.85 51.5558C155.848 51.5558 167.021 50.6476 167.415 51.8043C167.415 51.8043 167.948 52.3772 166.991 53.5146C166.034 54.6524 165.541 55.1402 166.223 55.6823C166.904 56.2238 175.033 55.6823 175.033 55.6823C174.314 54.2197 173.595 52.757 172.875 51.2947C173.651 50.0843 174.428 48.8739 175.206 47.6638Z" fill="#EF3325"/>
<rect width="12.4191" height="7.88701" fill="black" fill-opacity="0" transform="translate(155.29 44.2778)"/>
<path d="M167.709 44.8651C167.314 43.7085 155.392 44.6172 155.393 44.6167C155.358 47.0189 155.324 49.4209 155.29 51.8231C155.289 51.8231 160.17 50.9177 166.578 51.457C167.266 51.5148 167.568 52.1648 167.568 52.1648C167.615 49.7314 167.662 47.2985 167.709 44.8651Z" fill="#FF4A2C"/>
<rect width="20.2228" height="11.645" fill="black" fill-opacity="0" transform="translate(110.647 1.5542)"/>
<path d="M124.296 11.1519C123.734 12.3628 121.516 12.4079 121.516 12.4079C121.524 10.4491 121.533 8.49005 121.542 6.53101C122.556 6.56092 123.569 6.59109 124.584 6.62076C124.487 8.1313 124.391 9.64135 124.296 11.1519Z" fill="#9E2121"/>
<rect width="19.656" height="8.25891" fill="black" fill-opacity="0" transform="translate(111.214 4.94043)"/>
<path d="M130.87 4.94043C129.703 5.04894 123.016 4.94043 123.016 4.94043C119.077 6.23776 115.143 7.53508 111.214 8.83241C111.213 8.83241 122.577 7.92426 122.996 9.08087C122.996 9.08087 123.547 9.6536 122.589 10.7915C121.63 11.9288 121.136 12.4169 121.837 12.9587C122.54 13.5002 130.81 12.9587 130.81 12.9587C130.057 11.4963 129.304 10.0339 128.549 8.57102C129.321 7.36091 130.095 6.15079 130.87 4.94043Z" fill="#EF3325"/>
<rect width="12.5467" height="7.88676" fill="black" fill-opacity="0" transform="translate(110.647 1.5542)"/>
<path d="M123.194 2.14125C122.775 0.985138 110.646 1.89329 110.647 1.89329C110.647 4.29526 110.647 6.69723 110.647 9.09945C110.646 9.09945 115.604 8.19409 122.139 8.7331C122.839 8.79116 123.157 9.44096 123.157 9.44096C123.17 7.00781 123.181 4.57465 123.194 2.14125Z" fill="#FF4A2C"/>
<rect width="20.0421" height="11.645" fill="black" fill-opacity="0" transform="translate(63.0731 31.6619)"/>
<path d="M76.6662 41.2593C76.1304 42.4704 73.9442 42.5156 73.9442 42.5156C73.9234 40.5568 73.9031 38.5975 73.8828 36.6387C74.8826 36.6686 75.8823 36.6985 76.8823 36.7284C76.8103 38.239 76.7382 39.749 76.6662 41.2593Z" fill="#9E2121"/>
<rect width="19.3805" height="8.25891" fill="black" fill-opacity="0" transform="translate(63.7347 35.0481)"/>
<path d="M83.0551 35.0481C81.9062 35.1561 75.3126 35.0481 75.3126 35.0481C71.4485 36.3454 67.5891 37.6427 63.7347 38.9401C63.7339 38.9401 74.9244 38.0319 75.3537 39.1883C75.3539 39.1883 75.9057 39.7613 74.9782 40.8986C74.0508 42.0365 73.5698 42.5243 74.27 43.0663C74.9701 43.6079 83.1147 43.0663 83.1152 43.0663C82.3516 41.6039 81.5868 40.1413 80.8209 38.6787C81.5647 37.4686 82.3093 36.258 83.0551 35.0481Z" fill="#EF3325"/>
<rect width="12.445" height="7.88685" fill="black" fill-opacity="0" transform="translate(63.0731 31.6619)"/>
<path d="M75.4455 32.249C75.0155 31.0929 63.0721 32.0008 63.0731 32.0008C63.1089 34.403 63.1447 36.805 63.1807 39.207C63.1799 39.207 68.0538 38.3018 74.5034 38.8408C75.1949 38.8987 75.5181 39.5487 75.5181 39.5487C75.494 37.1156 75.4699 34.6824 75.4455 32.249Z" fill="#FF4A2C"/>
<rect width="21.0566" height="27.3979" fill="black" fill-opacity="0" transform="translate(69.1763 189.602)"/>
<path opacity="0.3" fill-rule="evenodd" clip-rule="evenodd" d="M89.511 217L81.6865 212.04L71.6383 217V190.766H89.511V217Z" fill="black"/>
<path fill-rule="evenodd" clip-rule="evenodd" d="M88.7507 216.111L80.9265 211.151L70.8775 216.111V189.877H88.7507V216.111Z" fill="#0D89D6"/>
<path d="M90.2329 189.602H69.1763V190.898H90.2329V189.602Z" fill="#695135"/>
<rect width="21.0574" height="27.3979" fill="black" fill-opacity="0" transform="translate(120.426 189.602)"/>
<path opacity="0.3" fill-rule="evenodd" clip-rule="evenodd" d="M140.761 217L132.936 212.04L122.888 217V190.766H140.761V217Z" fill="black"/>
<path fill-rule="evenodd" clip-rule="evenodd" d="M140.001 216.111L132.176 211.151L122.128 216.111V189.877H140.001V216.111Z" fill="#0D89D6"/>
<path d="M141.483 189.602H120.426V190.898H141.483V189.602Z" fill="#695135"/>
<g opacity="0.3">
<rect width="14.0125" height="27.3105" fill="black" fill-opacity="0" transform="translate(130.664 205.027)"/>
<path opacity="0.3" d="M144.576 227.157C144.337 226.315 143.428 225.629 142.645 225.975C143.499 225.093 144.413 224.076 144.437 222.831C144.462 221.589 142.941 220.427 142.05 221.271C142.448 220.554 142.786 219.741 142.675 218.928C142.562 218.112 141.838 217.353 141.054 217.501C142.437 216.258 142.192 213.607 140.603 212.697C141.134 211.816 141.426 210.785 141.44 209.751C141.446 209.279 141.364 208.747 140.998 208.47C140.713 208.254 140.242 208.36 140.068 208.635C140.313 207.544 139.978 206.331 139.189 205.568C138.876 205.266 138.476 205.026 138.044 205.027C137.253 205.031 136.65 205.861 136.58 206.673C136.508 207.485 136.828 208.268 137.139 209.013C135.728 208.757 134.451 210.213 134.286 211.685C134.119 213.159 134.731 214.586 135.328 215.927C135.1 215.342 134.278 215.229 133.763 215.574C133.249 215.919 132.995 216.557 132.851 217.173C132.365 219.258 132.847 221.553 134.117 223.226C133.384 222.405 131.914 223.3 131.788 224.419C131.661 225.537 132.344 226.555 132.991 227.45C132.621 226.677 131.38 226.833 130.933 227.568C130.486 228.305 130.655 229.277 131.015 230.057C131.374 230.836 131.906 231.527 132.195 232.337C135.958 232.017 139.722 231.696 143.487 231.376C143.944 230.968 144.152 230.344 144.329 229.748C144.582 228.905 144.817 227.998 144.576 227.157Z" fill="black"/>
</g>
<g opacity="0.3">
<rect width="51.548" height="27.962" fill="black" fill-opacity="0" transform="translate(32.949 204.772)"/>
<g opacity="0.3">
<rect width="32.3035" height="27.3457" fill="black" fill-opacity="0" transform="translate(32.949 204.772)"/>
<path opacity="0.3" d="M65.0987 223.82C64.7291 223.167 63.8098 223.192 63.1294 223.438C62.7469 223.576 62.3867 223.768 62.0452 223.988C62.4308 223.106 62.7185 222.177 62.8889 221.221C63.0249 220.462 62.9762 219.472 62.2862 219.161C61.7958 218.941 61.2421 219.203 60.7974 219.497C59.7971 220.158 58.9412 221.025 58.2324 222.009C59.6436 219.202 60.5104 216.09 60.7261 212.912C58.2446 213.928 56.3395 216.201 55.5942 218.843C56.4199 214.418 57.0432 209.861 55.8651 205.517C52.4562 208.622 50.8057 213.632 51.6312 218.304C50.2294 214.138 50.0929 209.52 47.9706 205.676C47.8001 205.367 47.6018 205.05 47.2971 204.885C46.7469 204.587 46.0437 204.919 45.7164 205.45C45.3902 205.981 45.3476 206.646 45.3374 207.282C45.2765 210.931 45.9873 214.61 47.3973 217.988C46.1122 215.688 44.825 213.387 43.535 211.086C42.6494 209.506 41.5949 207.786 39.8986 207.292C39.3765 208.58 39.8118 210.071 40.2745 211.406C41.4407 214.767 42.7768 218.067 44.275 221.287C42.8514 218.488 40.9772 215.925 38.754 213.737C38.3293 213.318 37.7418 212.884 37.2182 213.127C36.5946 213.416 36.6641 214.349 36.8597 215.038C37.8339 218.476 39.4698 221.724 41.6297 224.54C39.5546 222.067 37.1223 219.808 34.0924 219.107C33.7245 219.022 33.2735 218.992 33.0548 219.3C32.828 219.62 33.0086 220.078 33.1974 220.435C35.3143 224.444 37.9414 228.17 40.9787 231.478C47.892 231.691 54.8037 231.905 61.7134 232.118C63.616 230.248 64.8752 227.679 65.2182 224.961C65.2664 224.576 65.2915 224.157 65.0987 223.82Z" fill="black"/>
</g>
<g opacity="0.3">
<rect width="29.7751" height="14.065" fill="black" fill-opacity="0" transform="translate(54.722 218.669)"/>
<path opacity="0.3" d="M83.3418 224.194C82.2172 223.186 80.2806 223.235 79.3902 224.45C79.7266 223.877 80.0716 223.277 80.1416 222.608C80.2116 221.936 79.9217 221.172 79.3146 220.922C78.9724 220.781 78.5898 220.822 78.2289 220.878C76.8184 221.096 75.4399 221.514 74.1441 222.115C74.309 220.642 73.2354 219.119 71.827 218.828C70.4176 218.537 68.8904 219.522 68.5312 220.955C68.1685 219.396 66.4237 218.333 64.9473 218.767C63.4693 219.2 62.5622 221.044 63.0802 222.558C62.1979 221.861 61.1355 221.332 60.035 221.36C58.9341 221.388 57.8181 222.088 57.5267 223.183C57.326 223.943 57.6581 224.818 58.2425 225.295C57.1081 224.898 55.9102 224.708 54.722 224.756C55.4399 228.354 58.0817 231.505 61.4125 232.734C68.0198 232.356 74.6292 231.978 81.2415 231.6C82.5779 230.964 83.7606 229.864 84.2618 228.425C84.7636 226.986 84.4653 225.203 83.3418 224.194Z" fill="black"/>
</g>
</g>
<rect width="14.0126" height="27.3105" fill="black" fill-opacity="0" transform="translate(128.53 204.576)"/>
<path d="M142.442 226.706C142.203 225.865 141.294 225.178 140.511 225.525C141.365 224.642 142.279 223.625 142.303 222.38C142.327 221.138 140.807 219.976 139.916 220.82C140.314 220.103 140.652 219.29 140.54 218.477C140.427 217.661 139.704 216.902 138.92 217.05C140.303 215.807 140.058 213.157 138.469 212.246C139 211.366 139.292 210.334 139.306 209.3C139.312 208.828 139.23 208.296 138.864 208.019C138.579 207.803 138.108 207.909 137.934 208.184C138.178 207.094 137.844 205.88 137.055 205.117C136.742 204.815 136.342 204.575 135.91 204.576C135.119 204.58 134.516 205.41 134.446 206.222C134.374 207.034 134.694 207.818 135.005 208.562C133.594 208.306 132.317 209.762 132.152 211.234C131.985 212.708 132.597 214.135 133.194 215.477C132.966 214.891 132.144 214.778 131.629 215.123C131.115 215.468 130.861 216.106 130.717 216.722C130.231 218.807 130.713 221.102 131.983 222.776C131.25 221.954 129.78 222.849 129.654 223.968C129.527 225.085 130.21 226.104 130.858 226.999C130.487 226.226 129.246 226.382 128.799 227.117C128.352 227.854 128.521 228.826 128.88 229.606C129.24 230.386 129.772 231.076 130.061 231.886C133.824 231.566 137.588 231.246 141.353 230.925C141.81 230.517 142.018 229.893 142.195 229.297C142.448 228.454 142.683 227.547 142.442 226.706Z" fill="#579326"/>
<rect width="66.0357" height="33.2458" fill="black" fill-opacity="0" transform="translate(16.3275 199.038)"/>
<rect width="16.1992" height="31.5983" fill="black" fill-opacity="0" transform="translate(16.3275 199.038)"/>
<path d="M32.3764 224.641C32.0614 223.668 30.9799 222.874 30.0872 223.274C31.0385 222.254 32.0525 221.076 32.0279 219.637C32.0025 218.199 30.193 216.855 29.1963 217.831C29.6281 217.001 29.9845 216.062 29.8194 215.12C29.655 214.178 28.7828 213.299 27.8813 213.469C29.431 212.032 29.0319 208.966 27.1527 207.912C27.729 206.891 28.0238 205.699 27.9949 204.503C27.9817 203.956 27.866 203.344 27.4282 203.021C27.0893 202.77 26.5464 202.893 26.3566 203.212C26.5941 201.948 26.1542 200.545 25.2062 199.664C24.8295 199.314 24.3559 199.035 23.8559 199.038C22.9401 199.041 22.2752 200.002 22.2288 200.941C22.1831 201.88 22.586 202.787 22.9797 203.649C21.3333 203.352 19.9152 205.037 19.7884 206.741C19.6598 208.445 20.4307 210.096 21.1791 211.649C20.8919 210.972 19.933 210.841 19.3516 211.24C18.7709 211.64 18.5043 212.377 18.3653 213.09C17.8929 215.502 18.5504 218.157 20.0923 220.095C19.208 219.144 17.5464 220.18 17.4487 221.473C17.3503 222.767 18.1852 223.944 18.9741 224.98C18.5111 224.085 17.0801 224.266 16.5961 225.118C16.1101 225.97 16.348 227.095 16.7985 227.998C17.2496 228.9 17.8949 229.698 18.2643 230.636C22.6058 230.265 26.9492 229.893 31.2942 229.522C31.8052 229.053 32.0198 228.33 32.1999 227.64C32.4553 226.664 32.6895 225.616 32.3764 224.641Z" fill="#79A958"/>
<rect width="32.3035" height="27.3457" fill="black" fill-opacity="0" transform="translate(30.8149 204.322)"/>
<path d="M62.9644 223.369C62.5951 222.717 61.6758 222.742 60.9954 222.987C60.6128 223.125 60.2524 223.318 59.9112 223.538C60.2968 222.655 60.5842 221.726 60.7549 220.77C60.8906 220.011 60.8422 219.021 60.1522 218.71C59.6616 218.49 59.108 218.753 58.6631 219.046C57.6631 219.707 56.8072 220.574 56.0984 221.559C57.5093 218.751 58.3764 215.64 58.5918 212.461C56.1106 213.477 54.2052 215.751 53.4601 218.392C54.2856 213.967 54.9091 209.41 53.7311 205.066C50.3219 208.172 48.6717 213.181 49.4972 217.853C48.0951 213.687 47.9588 209.069 45.8366 205.225C45.6661 204.916 45.4677 204.599 45.1628 204.434C44.6126 204.136 43.9096 204.469 43.5821 204.999C43.2559 205.53 43.2135 206.196 43.2034 206.831C43.1425 210.48 43.8533 214.159 45.263 217.538C43.9781 215.238 42.691 212.936 41.4007 210.635C40.5152 209.055 39.4606 207.335 37.7643 206.841C37.2424 208.13 37.6775 209.62 38.1405 210.955C39.3066 214.316 40.6428 217.616 42.141 220.836C40.7173 218.037 38.8432 215.474 36.6199 213.286C36.1953 212.868 35.6075 212.433 35.0842 212.676C34.4604 212.964 34.5301 213.898 34.7254 214.588C35.6998 218.025 37.3353 221.274 39.4954 224.089C37.4205 221.616 34.9883 219.357 31.9581 218.657C31.5905 218.571 31.1394 218.541 30.9208 218.849C30.6937 219.169 30.8746 219.627 31.0631 219.984C33.18 223.994 35.8071 227.719 38.8447 231.027C45.7577 231.241 52.6692 231.454 59.5794 231.667C61.4819 229.797 62.7412 227.228 63.0842 224.511C63.1324 224.125 63.1572 223.707 62.9644 223.369Z" fill="#579326"/>
<rect width="29.7751" height="14.065" fill="black" fill-opacity="0" transform="translate(52.588 218.219)"/>
<path d="M81.2075 223.743C80.0832 222.735 78.1466 222.784 77.2562 224C77.5925 223.426 77.9375 222.826 78.0073 222.156C78.0776 221.486 77.7874 220.721 77.1806 220.471C76.8381 220.33 76.4556 220.372 76.0946 220.427C74.6844 220.646 73.3059 221.063 72.0098 221.664C72.175 220.191 71.1014 218.668 69.693 218.377C68.2836 218.086 66.7564 219.071 66.3969 220.504C66.0344 218.945 64.2896 217.882 62.813 218.316C61.3353 218.749 60.4281 220.593 60.9462 222.107C60.0636 221.41 59.0015 220.881 57.901 220.909C56.8 220.937 55.6838 221.637 55.3926 222.732C55.1917 223.492 55.524 224.367 56.1085 224.844C54.9741 224.447 53.7759 224.257 52.588 224.305C53.3059 227.903 55.9477 231.054 59.2785 232.283C65.8855 231.905 72.4951 231.527 79.1073 231.149C80.4439 230.513 81.6263 229.413 82.1278 227.974C82.6296 226.535 82.3313 224.752 81.2075 223.743Z" fill="#79A958"/>
<rect width="13.0099" height="18.1155" fill="black" fill-opacity="0" transform="translate(134.487 101.181)"/>
<path d="M136.416 111.98L136.651 119.297L138.581 118.715L137.499 113.062L136.416 111.98Z" fill="#493133"/>
<path d="M144.15 114.174C141.872 114.985 137.839 114.502 135.968 111.32C133.313 106.807 134.721 102.873 136.368 101.786L144.15 114.174Z" fill="#493133"/>
<path d="M145.035 107.586C146.569 111.208 145.854 114.213 143.437 114.299C141.021 114.385 137.818 111.518 136.283 107.897C134.749 104.274 135.464 101.269 137.88 101.183C140.297 101.097 143.501 103.964 145.035 107.586Z" fill="url(#paint0_radial)"/>
<rect width="7.38788" height="6.17023" fill="black" fill-opacity="0" transform="translate(140.109 102.611)"/>
<path d="M140.109 107.741L145.52 104.247L145.787 104.672L140.659 108.782L140.109 107.741Z" fill="#493133"/>
<path d="M145.111 104.067L145.787 105.071L147.497 104.011L146.705 102.611L145.111 104.067Z" fill="#3B3CA3"/>
<path opacity="0.25" d="M141.415 103.585C141.185 102.981 140.906 102.484 140.587 102.075C139.658 101.482 138.722 101.153 137.88 101.183C135.464 101.269 134.748 104.274 136.283 107.897C136.784 109.081 137.465 110.183 138.238 111.129C140.67 108.011 141.504 105.534 141.415 103.585Z" fill="#897E6F"/>
<path opacity="0.4" d="M136.416 111.442L137.673 110.776C138.775 112.615 141.031 113.985 142.327 114.301C140.361 114.451 137.763 113.437 136.416 111.442Z" fill="#705B60"/>
<path opacity="0.4" d="M136.956 112.588L137.596 119.002L138.446 118.756L137.368 112.947L136.956 112.588Z" fill="#705B60"/>
<path opacity="0.4" d="M135.354 103.373C134.587 104.624 134.569 106.394 134.804 107.558L135.699 107.075C135.338 106.05 135.087 104.59 135.354 103.373Z" fill="#AEB7AB"/>
<path opacity="0.4" d="M140.481 107.742L145.398 104.492L145.298 104.068L146.632 102.935L146.943 103.469L145.632 104.247L145.519 104.672L140.575 107.961L140.481 107.742Z" fill="#AEB7AB"/>
<path opacity="0.4" d="M140.659 108.782L145.268 113.323C145.481 112.985 145.645 112.635 145.698 112.347L140.936 108.56L140.659 108.782Z" fill="#897E6F"/>
<path opacity="0.75" d="M145.481 104.068L145.857 104.709L147.267 103.908L146.709 103.067L145.481 104.068Z" fill="#AEB7AB"/>
<rect width="12.1759" height="15.7308" fill="black" fill-opacity="0" transform="translate(73.9261 193.213)"/>
<rect width="12.1759" height="15.7308" fill="black" fill-opacity="0" transform="translate(73.9261 193.213)"/>
<path fill-rule="evenodd" clip-rule="evenodd" d="M83.7688 200.413C84.4324 200.58 85.0151 200.798 85.4103 201.337C86.2381 202.468 85.9694 204.46 84.9286 205.393C84.2315 206.018 83.3713 206.116 82.5336 206.291C81.8078 206.444 81.8 206.406 81.8352 207.13C81.857 207.575 81.8685 208.021 81.9042 208.464C81.9212 208.673 81.8839 208.774 81.6465 208.769C81.3545 208.765 81.0607 208.785 80.7708 208.817C80.542 208.843 80.4915 208.756 80.4872 208.54C80.4755 207.984 80.4278 207.428 80.4093 206.872C80.4009 206.63 80.3603 206.5 80.0572 206.516C79.2538 206.555 79.2525 206.538 79.2934 207.35C79.3142 207.767 79.3322 208.184 79.3619 208.601C79.3761 208.8 79.3355 208.886 79.1003 208.905C77.9636 209 77.9722 209.009 77.9019 207.86C77.8768 207.45 78.0308 206.892 77.7515 206.675C77.5062 206.484 76.9793 206.651 76.577 206.667C76.1457 206.684 75.714 206.704 75.2832 206.735C75.0749 206.75 74.9747 206.711 75.0146 206.467C75.0747 206.096 75.1226 205.722 75.1417 205.348C75.1546 205.085 75.284 205.043 75.5098 205.018C75.8263 204.983 76.1711 205.11 76.4557 204.845C76.646 204.668 76.7292 204.479 76.7071 204.221C76.547 202.381 76.4938 200.534 76.3887 198.69C76.3824 198.579 76.3984 198.475 76.3986 198.368C76.4004 197.878 76.129 197.576 75.6376 197.561C75.3598 197.553 75.0805 197.574 74.803 197.598C74.599 197.616 74.492 197.568 74.493 197.335C74.4948 197.03 74.4816 196.722 74.4458 196.418C74.4141 196.149 74.5295 196.086 74.7715 196.079C75.495 196.054 76.2183 196.002 76.9423 195.98C77.2137 195.971 77.2972 195.879 77.2726 195.604C77.2246 195.064 77.2279 194.519 77.1802 193.979C77.1569 193.713 77.2079 193.595 77.5004 193.607C77.8454 193.621 78.2934 193.461 78.5108 193.624C78.7371 193.795 78.6006 194.273 78.633 194.616C78.645 194.74 78.6488 194.865 78.6551 194.99C78.6967 195.837 78.6962 195.823 79.5042 195.787C79.77 195.775 79.8365 195.689 79.8177 195.442C79.7759 194.887 79.7634 194.329 79.7211 193.774C79.7046 193.559 79.7614 193.495 79.9841 193.477C81.129 193.381 81.1282 193.373 81.1812 194.515C81.1952 194.82 81.2292 195.127 81.2221 195.432C81.216 195.682 81.2992 195.763 81.5536 195.773C82.1678 195.798 82.7614 195.927 83.3472 196.133C85.1424 196.764 85.3111 199.463 83.8903 200.283C83.8576 200.302 83.8357 200.341 83.7688 200.413ZM81.854 204.514C81.9676 204.466 82.1526 204.4 82.3243 204.31C82.8066 204.056 83.0498 203.629 83.0673 203.104C83.0861 202.539 82.7579 202.164 82.2604 201.947C82.0209 201.843 81.7601 201.767 81.5019 201.728C80.7543 201.616 80.0029 201.675 79.2525 201.717C79.0415 201.729 79.0394 201.84 79.0476 201.99C79.0945 202.865 79.1427 203.74 79.1825 204.615C79.1889 204.764 79.2157 204.85 79.3903 204.842C80.1975 204.806 81.0034 204.765 81.854 204.514ZM80.9892 200.083C81.2893 200.002 81.5686 199.878 81.8028 199.672C82.3269 199.211 82.3253 198.184 81.7718 197.877C81.368 197.652 80.9522 197.454 80.4545 197.429C79.9565 197.405 79.4732 197.544 78.9786 197.484C78.8139 197.464 78.8233 197.604 78.8291 197.717C78.8702 198.509 78.9167 199.3 78.9494 200.092C78.9562 200.257 79.0049 200.31 79.1693 200.304C79.7827 200.282 80.3923 200.237 80.9892 200.083Z" fill="#3D3D3C"/>
<path fill-rule="evenodd" clip-rule="evenodd" d="M83.9727 200.413C84.6363 200.58 85.2193 200.798 85.6142 201.337C86.442 202.468 86.1736 204.46 85.1325 205.393C84.4354 206.018 83.5752 206.116 82.7375 206.291C82.0118 206.444 82.0041 206.406 82.0389 207.13C82.061 207.575 82.0726 208.021 82.1087 208.464C82.1251 208.673 82.0881 208.774 81.8504 208.769C81.5584 208.765 81.2649 208.785 80.9747 208.817C80.7459 208.843 80.6954 208.756 80.6908 208.54C80.6794 207.984 80.632 207.428 80.6132 206.872C80.6048 206.63 80.564 206.5 80.2609 206.516C79.458 206.555 79.4564 206.538 79.4973 207.35C79.5181 207.767 79.5364 208.184 79.5658 208.601C79.58 208.8 79.5391 208.886 79.3045 208.905C78.1673 209 78.1761 209.009 78.1059 207.86C78.0807 207.45 78.2345 206.892 77.9554 206.675C77.7099 206.484 77.1832 206.651 76.7809 206.667C76.3496 206.684 75.9179 206.704 75.4874 206.735C75.2791 206.75 75.1787 206.711 75.2182 206.467C75.2786 206.096 75.3268 205.722 75.3456 205.348C75.3585 205.085 75.4879 205.043 75.7137 205.018C76.03 204.983 76.3753 205.11 76.6599 204.845C76.8499 204.668 76.9331 204.479 76.911 204.221C76.751 202.381 76.6979 200.534 76.5929 198.69C76.5863 198.579 76.6023 198.475 76.6026 198.368C76.6046 197.878 76.3332 197.576 75.8415 197.561C75.564 197.553 75.2844 197.574 75.0069 197.598C74.8035 197.616 74.6957 197.568 74.6969 197.335C74.6987 197.03 74.6853 196.722 74.6497 196.418C74.618 196.149 74.7335 196.086 74.9755 196.079C75.6992 196.054 76.4222 196.002 77.1462 195.98C77.4176 195.971 77.5008 195.879 77.4765 195.604C77.4285 195.064 77.4318 194.519 77.3844 193.979C77.3608 193.713 77.4115 193.595 77.7043 193.607C78.0495 193.621 78.4973 193.461 78.7147 193.624C78.941 193.795 78.8045 194.273 78.8372 194.616C78.8494 194.74 78.8527 194.865 78.8588 194.99C78.9006 195.837 78.9001 195.823 79.7081 195.787C79.9737 195.775 80.0407 195.689 80.0214 195.442C79.9798 194.887 79.9674 194.329 79.925 193.774C79.9085 193.559 79.9653 193.495 80.1881 193.477C81.3329 193.381 81.3321 193.373 81.3852 194.515C81.3991 194.82 81.4331 195.127 81.4258 195.432C81.4199 195.682 81.5031 195.763 81.7576 195.773C82.3717 195.798 82.9651 195.927 83.5511 196.133C85.3466 196.764 85.5148 199.463 84.0942 200.283C84.0612 200.302 84.0397 200.341 83.9727 200.413ZM82.0577 204.514C82.1718 204.466 82.3565 204.4 82.5282 204.31C83.0107 204.056 83.2535 203.629 83.271 203.104C83.29 202.539 82.9615 202.164 82.4646 201.947C82.2248 201.843 81.9641 201.767 81.7058 201.728C80.9582 201.616 80.2068 201.675 79.4564 201.717C79.2454 201.729 79.2436 201.84 79.2512 201.99C79.2982 202.865 79.3469 203.74 79.3862 204.615C79.393 204.764 79.4194 204.85 79.5942 204.842C80.4014 204.806 81.2076 204.765 82.0577 204.514ZM81.1931 200.083C81.493 200.002 81.7725 199.878 82.0064 199.672C82.531 199.211 82.5293 198.184 81.9757 197.877C81.5719 197.652 81.1561 197.454 80.6581 197.429C80.1604 197.405 79.6769 197.544 79.1825 197.484C79.0181 197.464 79.027 197.604 79.0331 197.717C79.0742 198.509 79.1203 199.3 79.1533 200.092C79.1601 200.257 79.2089 200.31 79.373 200.304C79.9869 200.282 80.5965 200.237 81.1931 200.083Z" fill="#3D3D3C"/>
<path fill-rule="evenodd" clip-rule="evenodd" d="M83.2547 200.188C83.9184 200.355 84.5008 200.573 84.8963 201.113C85.7235 202.243 85.4552 204.235 84.4143 205.168C83.7172 205.794 82.8567 205.891 82.0193 206.067C81.2936 206.219 81.2859 206.181 81.3204 206.905C81.3425 207.35 81.3544 207.796 81.3902 208.239C81.4067 208.448 81.3697 208.549 81.132 208.545C80.8402 208.54 80.5467 208.561 80.2563 208.593C80.0277 208.618 79.9772 208.531 79.9724 208.316C79.961 207.759 79.9135 207.203 79.8948 206.647C79.8864 206.405 79.8461 206.275 79.5424 206.291C78.7398 206.33 78.7383 206.313 78.7791 207.125C78.7996 207.542 78.8179 207.959 78.8473 208.376C78.8615 208.575 78.8207 208.661 78.586 208.68C77.4488 208.775 77.4577 208.784 77.3874 207.634C77.3623 207.225 77.516 206.667 77.2375 206.45C76.9919 206.259 76.4653 206.427 76.0625 206.442C75.6312 206.46 75.1994 206.479 74.7692 206.51C74.5609 206.525 74.4602 206.486 74.4998 206.242C74.5607 205.872 74.6084 205.497 74.6271 205.123C74.6401 204.86 74.7695 204.818 74.9952 204.793C75.3116 204.758 75.6568 204.885 75.9417 204.62C76.1315 204.443 76.2152 204.254 76.1926 203.996C76.0328 202.156 75.9798 200.309 75.8745 198.466C75.8681 198.355 75.8841 198.25 75.8846 198.143C75.8861 197.653 75.6147 197.351 75.1231 197.336C74.8458 197.328 74.566 197.349 74.2887 197.373C74.085 197.391 73.9777 197.344 73.9785 197.111C73.9803 196.805 73.9673 196.497 73.9313 196.193C73.8996 195.925 74.015 195.861 74.257 195.854C74.981 195.829 75.704 195.777 76.4278 195.755C76.6992 195.746 76.7829 195.654 76.7585 195.379C76.7103 194.839 76.7134 194.294 76.666 193.754C76.6426 193.488 76.6931 193.37 76.9858 193.382C77.3311 193.397 77.7791 193.236 77.9962 193.4C78.2225 193.57 78.0863 194.048 78.119 194.391C78.1309 194.515 78.1342 194.641 78.1406 194.766C78.1824 195.612 78.1817 195.598 78.9897 195.562C79.2555 195.55 79.3222 195.465 79.3035 195.217C79.2613 194.662 79.2492 194.104 79.2065 193.549C79.1901 193.334 79.2474 193.271 79.4696 193.252C80.6145 193.156 80.6137 193.149 80.667 194.289C80.6809 194.596 80.7149 194.902 80.7078 195.207C80.7015 195.457 80.7847 195.538 81.0394 195.548C81.6533 195.573 82.2469 195.702 82.8329 195.908C84.6284 196.539 84.7966 199.238 83.3758 200.059C83.343 200.077 83.3212 200.116 83.2547 200.188ZM81.3395 204.29C81.4534 204.241 81.6383 204.175 81.8103 204.085C82.2923 203.83 82.5351 203.404 82.5526 202.879C82.5716 202.314 82.2436 201.939 81.7464 201.722C81.5064 201.618 81.2461 201.542 80.9876 201.503C80.2398 201.39 79.4886 201.45 78.738 201.493C78.5269 201.505 78.5252 201.616 78.5333 201.765C78.5797 202.64 78.6287 203.515 78.6682 204.39C78.6751 204.539 78.701 204.625 78.8757 204.617C79.6832 204.581 80.4891 204.54 81.3395 204.29ZM80.4752 199.858C80.7745 199.777 81.0541 199.653 81.288 199.447C81.8126 198.986 81.8111 197.959 81.2573 197.652C80.8539 197.428 80.4379 197.229 79.9397 197.205C79.4422 197.18 78.959 197.319 78.464 197.259C78.2999 197.239 78.3085 197.379 78.3146 197.492C78.3562 198.284 78.4024 199.075 78.4349 199.868C78.442 200.032 78.4904 200.085 78.655 200.08C79.2684 200.057 79.8783 200.013 80.4752 199.858Z" fill="#FEFDFB"/>
<rect width="12.1759" height="15.7308" fill="black" fill-opacity="0" transform="translate(124.381 193.213)"/>
<rect width="12.1759" height="15.7308" fill="black" fill-opacity="0" transform="translate(124.381 193.213)"/>
<path fill-rule="evenodd" clip-rule="evenodd" d="M134.224 200.413C134.888 200.58 135.47 200.798 135.865 201.337C136.693 202.468 136.425 204.46 135.384 205.393C134.687 206.018 133.826 206.116 132.989 206.291C132.263 206.444 132.255 206.406 132.29 207.13C132.312 207.575 132.324 208.021 132.359 208.464C132.376 208.673 132.339 208.774 132.102 208.769C131.81 208.765 131.516 208.785 131.226 208.817C130.997 208.843 130.947 208.756 130.942 208.54C130.931 207.984 130.883 207.428 130.864 206.872C130.856 206.63 130.815 206.5 130.512 206.516C129.709 206.555 129.708 206.538 129.749 207.35C129.769 207.767 129.787 208.184 129.817 208.601C129.831 208.8 129.791 208.886 129.555 208.905C128.419 209 128.427 209.009 128.357 207.86C128.332 207.45 128.486 206.892 128.207 206.675C127.961 206.484 127.434 206.651 127.032 206.667C126.601 206.684 126.169 206.704 125.738 206.735C125.53 206.75 125.43 206.711 125.47 206.467C125.53 206.096 125.578 205.722 125.597 205.348C125.61 205.085 125.739 205.043 125.965 205.018C126.281 204.983 126.626 205.11 126.911 204.845C127.101 204.668 127.184 204.479 127.162 204.221C127.002 202.381 126.949 200.534 126.844 198.69C126.838 198.579 126.854 198.475 126.854 198.368C126.856 197.878 126.584 197.576 126.093 197.561C125.815 197.553 125.536 197.574 125.258 197.598C125.054 197.616 124.947 197.568 124.948 197.335C124.95 197.03 124.937 196.722 124.901 196.418C124.869 196.149 124.985 196.086 125.227 196.079C125.95 196.054 126.673 196.002 127.397 195.98C127.669 195.971 127.752 195.879 127.728 195.604C127.68 195.064 127.683 194.519 127.635 193.979C127.612 193.713 127.663 193.595 127.956 193.607C128.301 193.621 128.749 193.461 128.966 193.624C129.192 193.795 129.056 194.273 129.088 194.616C129.1 194.74 129.104 194.865 129.11 194.99C129.152 195.837 129.151 195.823 129.959 195.787C130.225 195.775 130.292 195.689 130.273 195.442C130.231 194.887 130.219 194.329 130.176 193.774C130.16 193.559 130.217 193.495 130.439 193.477C131.584 193.381 131.583 193.373 131.636 194.515C131.65 194.82 131.684 195.127 131.677 195.432C131.671 195.682 131.754 195.763 132.009 195.773C132.623 195.798 133.217 195.927 133.802 196.133C135.598 196.764 135.766 199.463 134.345 200.283C134.313 200.302 134.291 200.341 134.224 200.413ZM132.309 204.514C132.423 204.466 132.608 204.4 132.779 204.31C133.262 204.056 133.505 203.629 133.522 203.104C133.541 202.539 133.213 202.164 132.716 201.947C132.476 201.843 132.215 201.767 131.957 201.728C131.209 201.616 130.458 201.675 129.708 201.717C129.497 201.729 129.495 201.84 129.503 201.99C129.55 202.865 129.598 203.74 129.638 204.615C129.644 204.764 129.671 204.85 129.845 204.842C130.653 204.806 131.459 204.765 132.309 204.514ZM131.444 200.083C131.744 200.002 132.024 199.878 132.258 199.672C132.782 199.211 132.78 198.184 132.227 197.877C131.823 197.652 131.407 197.454 130.91 197.429C130.412 197.405 129.928 197.544 129.434 197.484C129.269 197.464 129.278 197.604 129.284 197.717C129.325 198.509 129.372 199.3 129.405 200.092C129.411 200.257 129.46 200.31 129.624 200.304C130.238 200.282 130.847 200.237 131.444 200.083Z" fill="#3D3D3C"/>
<path fill-rule="evenodd" clip-rule="evenodd" d="M134.428 200.413C135.091 200.58 135.674 200.798 136.069 201.337C136.897 202.468 136.629 204.46 135.588 205.393C134.891 206.018 134.03 206.116 133.193 206.291C132.467 206.444 132.459 206.406 132.494 207.13C132.516 207.575 132.528 208.021 132.564 208.464C132.58 208.673 132.543 208.774 132.306 208.769C132.014 208.765 131.72 208.785 131.43 208.817C131.201 208.843 131.151 208.756 131.146 208.54C131.135 207.984 131.087 207.428 131.068 206.872C131.06 206.63 131.019 206.5 130.716 206.516C129.913 206.555 129.912 206.538 129.952 207.35C129.973 207.767 129.991 208.184 130.021 208.601C130.035 208.8 129.994 208.886 129.76 208.905C128.622 209 128.631 209.009 128.561 207.86C128.536 207.45 128.69 206.892 128.411 206.675C128.165 206.484 127.638 206.651 127.236 206.667C126.805 206.684 126.373 206.704 125.943 206.735C125.734 206.75 125.634 206.711 125.673 206.467C125.734 206.096 125.782 205.722 125.801 205.348C125.814 205.085 125.943 205.043 126.169 205.018C126.485 204.983 126.83 205.11 127.115 204.845C127.305 204.668 127.388 204.479 127.366 204.221C127.206 202.381 127.153 200.534 127.048 198.69C127.041 198.579 127.057 198.475 127.058 198.368C127.06 197.878 126.788 197.576 126.297 197.561C126.019 197.553 125.74 197.574 125.462 197.598C125.259 197.616 125.151 197.568 125.152 197.335C125.154 197.03 125.14 196.722 125.105 196.418C125.073 196.149 125.189 196.086 125.431 196.079C126.154 196.054 126.877 196.002 127.601 195.98C127.873 195.971 127.956 195.879 127.932 195.604C127.884 195.064 127.887 194.519 127.84 193.979C127.816 193.713 127.867 193.595 128.159 193.607C128.505 193.621 128.952 193.461 129.17 193.624C129.396 193.795 129.26 194.273 129.292 194.616C129.305 194.74 129.308 194.865 129.314 194.99C129.356 195.837 129.355 195.823 130.163 195.787C130.429 195.775 130.496 195.689 130.477 195.442C130.435 194.887 130.422 194.329 130.38 193.774C130.364 193.559 130.42 193.495 130.643 193.477C131.788 193.381 131.787 193.373 131.84 194.515C131.854 194.82 131.888 195.127 131.881 195.432C131.875 195.682 131.958 195.763 132.213 195.773C132.827 195.798 133.42 195.927 134.006 196.133C135.802 196.764 135.97 199.463 134.549 200.283C134.516 200.302 134.495 200.341 134.428 200.413ZM132.513 204.514C132.627 204.466 132.812 204.4 132.983 204.31C133.466 204.056 133.709 203.629 133.726 203.104C133.745 202.539 133.417 202.164 132.92 201.947C132.68 201.843 132.419 201.767 132.161 201.728C131.413 201.616 130.662 201.675 129.912 201.717C129.701 201.729 129.699 201.84 129.706 201.99C129.753 202.865 129.802 203.74 129.841 204.615C129.848 204.764 129.875 204.85 130.049 204.842C130.857 204.806 131.663 204.765 132.513 204.514ZM131.648 200.083C131.948 200.002 132.228 199.878 132.462 199.672C132.986 199.211 132.984 198.184 132.431 197.877C132.027 197.652 131.611 197.454 131.113 197.429C130.616 197.405 130.132 197.544 129.638 197.484C129.473 197.464 129.482 197.604 129.488 197.717C129.529 198.509 129.575 199.3 129.608 200.092C129.615 200.257 129.664 200.31 129.828 200.304C130.442 200.282 131.052 200.237 131.648 200.083Z" fill="#3D3D3C"/>
<path fill-rule="evenodd" clip-rule="evenodd" d="M133.71 200.188C134.374 200.355 134.956 200.573 135.352 201.113C136.179 202.243 135.91 204.235 134.87 205.168C134.172 205.794 133.312 205.891 132.475 206.067C131.749 206.219 131.741 206.181 131.776 206.905C131.798 207.35 131.81 207.796 131.845 208.239C131.862 208.448 131.825 208.549 131.587 208.545C131.295 208.54 131.002 208.561 130.711 208.593C130.483 208.618 130.432 208.531 130.428 208.316C130.416 207.759 130.369 207.203 130.35 206.647C130.342 206.405 130.301 206.275 129.998 206.291C129.195 206.33 129.193 206.313 129.234 207.125C129.255 207.542 129.273 207.959 129.303 208.376C129.317 208.575 129.276 208.661 129.041 208.68C127.904 208.775 127.913 208.784 127.843 207.634C127.818 207.225 127.971 206.667 127.693 206.45C127.447 206.259 126.92 206.427 126.518 206.442C126.086 206.46 125.655 206.479 125.224 206.51C125.016 206.525 124.915 206.486 124.955 206.242C125.016 205.872 125.064 205.497 125.082 205.123C125.095 204.86 125.225 204.818 125.45 204.793C125.767 204.758 126.112 204.885 126.397 204.62C126.587 204.443 126.67 204.254 126.648 203.996C126.488 202.156 126.435 200.309 126.33 198.466C126.323 198.355 126.339 198.25 126.34 198.143C126.341 197.653 126.07 197.351 125.578 197.336C125.301 197.328 125.021 197.349 124.744 197.373C124.54 197.391 124.433 197.344 124.434 197.111C124.435 196.805 124.423 196.497 124.386 196.193C124.355 195.925 124.47 195.861 124.712 195.854C125.436 195.829 126.159 195.777 126.883 195.755C127.154 195.746 127.238 195.654 127.214 195.379C127.166 194.839 127.169 194.294 127.121 193.754C127.098 193.488 127.148 193.37 127.441 193.382C127.786 193.397 128.234 193.236 128.451 193.4C128.678 193.57 128.542 194.048 128.574 194.391C128.586 194.515 128.589 194.641 128.596 194.766C128.638 195.612 128.637 195.598 129.445 195.562C129.711 195.55 129.777 195.465 129.759 195.217C129.717 194.662 129.704 194.104 129.662 193.549C129.645 193.334 129.703 193.271 129.925 193.252C131.07 193.156 131.069 193.149 131.122 194.289C131.136 194.596 131.17 194.902 131.163 195.207C131.157 195.457 131.24 195.538 131.495 195.548C132.108 195.573 132.702 195.702 133.288 195.908C135.084 196.539 135.252 199.238 133.831 200.059C133.798 200.077 133.776 200.116 133.71 200.188ZM131.795 204.29C131.909 204.241 132.094 204.175 132.266 204.085C132.747 203.83 132.99 203.404 133.008 202.879C133.027 202.314 132.699 201.939 132.202 201.722C131.962 201.618 131.701 201.542 131.443 201.503C130.695 201.39 129.944 201.45 129.193 201.493C128.982 201.505 128.98 201.616 128.988 201.765C129.035 202.64 129.084 203.515 129.123 204.39C129.13 204.539 129.156 204.625 129.331 204.617C130.138 204.581 130.944 204.54 131.795 204.29ZM130.93 199.858C131.23 199.777 131.509 199.653 131.743 199.447C132.268 198.986 132.266 197.959 131.712 197.652C131.309 197.428 130.893 197.229 130.395 197.205C129.897 197.18 129.414 197.319 128.919 197.259C128.755 197.239 128.764 197.379 128.77 197.492C128.811 198.284 128.858 199.075 128.89 199.868C128.897 200.032 128.946 200.085 129.11 200.08C129.724 200.057 130.333 200.013 130.93 199.858Z" fill="#FEFDFB"/>
<defs>
<radialGradient id="paint0_radial" cx="0" cy="0" r="1" gradientUnits="userSpaceOnUse" gradientTransform="translate(143.595 107.452) scale(7.63851 7.63412)">
<stop stop-color="#B2B799"/>
<stop offset="1" stop-color="#897E6F"/>
</radialGradient>
</defs>
</svg>
