<svg width="194" height="141" viewBox="0 0 194 141" fill="none" xmlns="http://www.w3.org/2000/svg">
<rect width="193.565" height="140.998" fill="black" fill-opacity="0"/>
<rect width="193.565" height="140.998" fill="black" fill-opacity="0"/>
<rect width="193.565" height="140.998" fill="black" fill-opacity="0"/>
<path opacity="0.3" d="M95.7584 140.998C148.644 140.998 191.517 138.209 191.517 134.769C191.517 131.329 148.644 128.54 95.7584 128.54C42.8725 128.54 6.10352e-05 131.329 6.10352e-05 134.769C6.10352e-05 138.209 42.8725 140.998 95.7584 140.998Z" fill="black"/>
<rect width="192.392" height="138.564" fill="black" fill-opacity="0" transform="translate(1.17279)"/>
<rect width="20.0193" height="48.3081" fill="black" fill-opacity="0" transform="translate(163.928 83.2234)"/>
<path d="M181.725 113.385C183.448 112.972 184.335 110.811 183.785 109.128C183.234 107.445 181.616 106.29 179.915 105.798C180.817 104.429 181.761 102.884 181.495 101.267C181.25 99.7721 179.333 98.6216 178.168 99.4063C179.521 98.2621 180.471 96.4838 180.011 94.7907C179.568 93.1539 177.382 92.1545 176.034 93.0074C177.325 91.8315 177.466 89.5223 176.19 88.2866C174.79 86.9315 172.137 87.3024 171.164 88.9912C171.883 87.8746 172.463 86.6685 172.885 85.409C173.075 84.8446 173.22 84.1773 172.875 83.6895C172.352 82.9464 171.191 83.2149 170.39 83.6449C167.788 85.0373 165.687 87.3409 164.539 90.0573L163.928 127.536C164.111 128.4 165.06 128.888 165.939 128.989C166.816 129.09 167.715 128.931 168.585 129.089C169.288 129.216 169.936 129.544 170.573 129.869C172.372 130.786 174.309 131.73 176.316 131.495C178.323 131.262 180.249 129.287 179.634 127.363C182.345 125.761 182.914 121.483 180.716 119.226C181.894 118.483 183.15 117.642 183.6 116.324C184.048 115.008 183.104 113.196 181.725 113.385Z" fill="#79A958"/>
<rect width="25.9612" height="23.735" fill="black" fill-opacity="0" transform="translate(167.603 109.812)"/>
<path d="M187.516 129.936C187.836 129.849 188.161 129.779 188.479 129.685C190.123 129.197 191.822 128.549 192.895 127.214C193.243 126.782 193.519 126.272 193.559 125.719C193.69 123.929 191.49 122.937 189.697 122.826C186.924 122.655 184.122 123.354 181.714 124.733C183.474 123.228 184.999 121.45 186.193 119.467C186.386 119.146 186.566 118.718 186.331 118.427C186.116 118.157 185.698 118.202 185.363 118.286C181.364 119.262 177.769 121.796 175.508 125.234C177.671 122.362 179.579 119.297 181.199 116.087C181.688 115.118 182.154 113.964 181.681 112.988C177.995 114.529 174.955 117.549 173.386 121.221C174.516 118.786 175.278 116.18 175.637 113.519C175.745 112.713 175.812 111.868 175.517 111.109C175.222 110.352 174.461 109.716 173.655 109.824C173.052 109.905 172.574 110.36 172.166 110.813C168.738 114.623 167.081 119.964 167.749 125.044L167.909 132.423C168.852 133.164 170.135 133.254 171.333 133.313C178.802 133.684 186.58 134.002 193.44 131.027C191.539 130.264 189.546 129.958 187.516 129.936Z" fill="#579326"/>
<rect width="16.8661" height="89.9529" fill="black" fill-opacity="0" transform="translate(1.17285 38.8005)"/>
<path d="M2.26825 42.4199L10.6792 40.2844V49.9501L15.5605 55.8785V124.08L8.91361 128.754V127.393L13.8025 122.862L14.043 57.0678L4.91107 52.0889L2.26825 42.4199Z" fill="#494252"/>
<path d="M1.17285 41.3815V43.4742L11.7634 40.7429V38.8005L1.17285 41.3815Z" fill="#2E2933"/>
<path d="M13.5514 62.801V65.3947L18.039 65.1259L17.9476 62.801H13.5514Z" fill="#2E2933"/>
<path d="M13.5514 91.0249L12.7264 93.6168L17.9477 93.6386L17.8157 91.0249H13.5514Z" fill="#2E2933"/>
<path d="M12.7264 120.497L13.8025 122.862L16.8492 122.582L16.934 120.557L12.7264 120.497Z" fill="#2E2933"/>
<rect width="149.17" height="111.432" fill="black" fill-opacity="0" transform="translate(19.4427 20.613)"/>
<path d="M168.613 129.919C152.063 130.813 130.984 131.406 109.067 131.735C102.986 131.829 96.8289 131.895 90.6904 131.951C64.6879 132.158 38.939 132.017 19.4427 131.574C19.8948 107.912 21.1185 57.7903 21.1185 57.7903C21.1185 57.7903 48.4103 21.133 49.2206 20.6818C49.9917 20.2401 128.847 22.0742 132.5 22.0088C144.126 33.6102 153.136 47.6576 166.203 57.6022C165.751 81.7274 166.551 105.879 168.613 129.919Z" fill="#96492D"/>
<rect width="99.9189" height="90.6629" fill="black" fill-opacity="0" transform="translate(19.4427 41.3816)"/>
<rect width="32.8803" height="4.19757" fill="black" fill-opacity="0" transform="translate(82.5935 98.9055)"/>
<path d="M115.003 99.4081C114.983 99.2725 114.957 99.1264 114.859 99.0303C114.739 98.9117 114.55 98.9046 114.381 98.9056C104.094 98.9568 93.8056 99.0242 83.5184 99.1064L82.5935 103.103C93.5534 102.874 104.514 102.646 115.474 102.418C115.318 101.415 115.161 100.41 115.003 99.4081Z" fill="#CCC394"/>
<rect width="31.3613" height="16.508" fill="black" fill-opacity="0" transform="translate(83.2866 83.4492)"/>
<path d="M108.56 83.7527C100.327 83.6513 92.0948 83.5506 83.8624 83.4492L83.2866 99.9572C93.7427 99.831 104.198 99.6018 114.648 99.2707C112.115 94.3141 110.072 89.1083 108.56 83.7527Z" fill="#407081"/>
<rect width="17.6342" height="0.382711" fill="black" fill-opacity="0" transform="translate(86.629 87.2229)"/>
<rect width="17.6342" height="0.382711" fill="black" fill-opacity="0" transform="translate(86.629 87.2229)"/>
<rect width="17.6342" height="0.382711" fill="black" fill-opacity="0" transform="translate(86.629 87.2229)"/>
<rect width="17.6342" height="0.382711" fill="black" fill-opacity="0" transform="translate(86.629 87.2229)"/>
<path d="M104.263 87.3453C104.263 87.3699 104.017 87.3952 103.571 87.4201C103.125 87.4449 102.479 87.4693 101.682 87.4918C100.086 87.5365 97.8822 87.5737 95.4474 87.5927C93.0127 87.6118 90.8084 87.609 89.2125 87.5892C88.4145 87.5793 87.7688 87.5651 87.3225 87.5474C86.8761 87.5294 86.6293 87.5078 86.629 87.4832C86.6288 87.4586 86.8754 87.4333 87.3213 87.4084C87.7674 87.3836 88.4129 87.3592 89.2105 87.3367C90.8058 87.2921 93.0099 87.2548 95.4446 87.2358C97.8794 87.2168 100.084 87.2195 101.68 87.2393C102.478 87.2492 103.123 87.2634 103.57 87.2812C104.016 87.2992 104.263 87.3207 104.263 87.3453Z" fill="#628D9D"/>
<rect width="17.4024" height="0.930485" fill="black" fill-opacity="0" transform="translate(88.5895 89.501)"/>
<rect width="17.4024" height="0.930485" fill="black" fill-opacity="0" transform="translate(88.5895 89.501)"/>
<rect width="17.4024" height="0.930485" fill="black" fill-opacity="0" transform="translate(88.5895 89.501)"/>
<rect width="17.4024" height="0.930485" fill="black" fill-opacity="0" transform="translate(88.5895 89.501)"/>
<path d="M105.992 89.5367C105.993 89.5613 105.751 89.5968 105.311 89.6399C104.872 89.683 104.236 89.7337 103.449 89.7885C101.877 89.8985 99.7021 90.026 97.2994 90.1447C94.8967 90.2634 92.7204 90.3508 91.1443 90.3962C90.3561 90.419 89.7181 90.4312 89.2767 90.4314C88.8353 90.432 88.5908 90.4205 88.5895 90.396C88.5882 90.3714 88.8306 90.3359 89.2698 90.2928C89.7091 90.2497 90.3453 90.199 91.1317 90.1439C92.7048 90.0342 94.8791 89.9066 97.2818 89.788C99.6845 89.6693 101.861 89.5821 103.437 89.5365C104.225 89.5137 104.863 89.5015 105.305 89.501C105.746 89.5007 105.991 89.5121 105.992 89.5367Z" fill="#628D9D"/>
<rect width="17.9772" height="1.06514" fill="black" fill-opacity="0" transform="translate(85.9416 93.1055)"/>
<rect width="17.9772" height="1.06514" fill="black" fill-opacity="0" transform="translate(85.9416 93.1055)"/>
<rect width="17.9772" height="1.06514" fill="black" fill-opacity="0" transform="translate(85.9416 93.1055)"/>
<rect width="17.9772" height="1.06514" fill="black" fill-opacity="0" transform="translate(85.9416 93.1055)"/>
<path d="M103.919 93.1363C103.92 93.1609 103.67 93.1984 103.216 93.2451C102.763 93.2917 102.105 93.3477 101.293 93.4094C99.6683 93.5323 97.4222 93.6776 94.9401 93.8163C92.458 93.9547 90.2097 94.0604 88.5814 94.1187C87.7672 94.1481 87.1079 94.1656 86.6519 94.1697C86.1958 94.1738 85.943 94.1644 85.9416 94.1398C85.9402 94.1152 86.1905 94.0777 86.644 94.031C87.0977 93.9844 87.7549 93.9283 88.5673 93.8667C90.1921 93.7438 92.4381 93.5985 94.9202 93.4598C97.4023 93.3214 99.6506 93.2157 101.279 93.1573C102.093 93.1279 102.752 93.1104 103.208 93.1064C103.665 93.1023 103.917 93.1117 103.919 93.1363Z" fill="#628D9D"/>
<rect width="22.9366" height="0.69506" fill="black" fill-opacity="0" transform="translate(90.8923 96.585)"/>
<rect width="22.9366" height="0.69506" fill="black" fill-opacity="0" transform="translate(90.8923 96.585)"/>
<rect width="22.9366" height="0.69506" fill="black" fill-opacity="0" transform="translate(90.8923 96.585)"/>
<rect width="22.9366" height="0.69506" fill="black" fill-opacity="0" transform="translate(90.8923 96.585)"/>
<path d="M113.829 96.6343C113.83 96.6589 113.509 96.6909 112.93 96.7271C112.35 96.7636 111.51 96.8047 110.473 96.8478C108.399 96.934 105.532 97.0286 102.365 97.111C99.1984 97.1931 96.3308 97.2479 94.2546 97.2694C93.2165 97.2803 92.3762 97.2829 91.7954 97.2768C91.2145 97.2705 90.893 97.2552 90.8923 97.2306C90.8917 97.2061 91.212 97.1741 91.7918 97.1379C92.3715 97.1013 93.2108 97.0603 94.248 97.0172C96.3226 96.931 99.1891 96.8364 102.356 96.754C105.523 96.6719 108.39 96.6171 110.467 96.5955C111.505 96.5846 112.345 96.5821 112.926 96.5882C113.507 96.5945 113.828 96.6097 113.829 96.6343Z" fill="#628D9D"/>
<rect width="18.6215" height="27.5296" fill="black" fill-opacity="0" transform="translate(90.4459 104.421)"/>
<path d="M90.6904 131.951C90.8416 123.211 90.7569 114.469 90.4459 105.729C96.4809 105.108 102.534 104.665 108.597 104.421C108.201 113.519 108.361 122.646 109.067 131.735C102.986 131.829 96.8289 131.895 90.6904 131.951Z" fill="#534635"/>
<rect width="5.48321" height="19.7703" fill="black" fill-opacity="0" transform="translate(110.492 104.764)"/>
<path d="M115.149 104.764L110.766 105.343C110.38 111.524 110.462 124.393 110.644 124.514C110.775 124.602 114.536 124.382 115.975 124.291C115.419 117.798 115.143 111.28 115.149 104.764Z" fill="#F1ECBD"/>
<rect width="18.2266" height="23.4333" fill="black" fill-opacity="0" transform="translate(89.4308 57.3196)"/>
<path d="M107.238 57.3196L89.7848 58.4407C89.2972 65.8674 89.3135 73.3279 89.8325 80.7528C95.729 80.3802 101.647 80.3249 107.55 80.5881C107.764 72.8322 107.658 65.0673 107.238 57.3196Z" fill="#F1ECBD"/>
<rect width="14.8464" height="19.0872" fill="black" fill-opacity="0" transform="translate(91.121 59.4929)"/>
<rect width="7.64582" height="18.9533" fill="black" fill-opacity="0" transform="translate(98.3215 59.4929)"/>
<path d="M105.626 59.4929L98.3215 59.9612C98.5047 62.8634 98.6792 66.5135 98.8121 70.4907C98.906 73.3143 98.9684 75.972 99.0009 78.3198C101.295 78.3045 103.589 78.3436 105.88 78.4463C106.054 72.1282 105.968 65.8031 105.626 59.4929Z" fill="#8D7E9B"/>
<rect width="6.72977" height="18.5533" fill="black" fill-opacity="0" transform="translate(91.1209 60.0269)"/>
<path d="M97.5179 70.5343C97.3849 66.5693 97.3149 62.9296 97.3043 60.0269L91.4088 60.4056C91.0125 66.4557 91.0252 72.5321 91.4478 78.5801C93.5792 78.4458 95.7147 78.3699 97.8507 78.337C97.7264 75.9976 97.6122 73.3497 97.5179 70.5343Z" fill="#8D7E9B"/>
<rect width="3.26532" height="17.7958" fill="black" fill-opacity="0" transform="translate(111.601 105.751)"/>
<path d="M114.374 105.751L111.764 106.27C111.535 111.836 111.583 123.421 111.691 123.529C111.77 123.608 114.009 123.41 114.867 123.328C114.535 117.484 114.371 111.617 114.374 105.751Z" fill="#8D7E9B"/>
<rect width="5.48296" height="19.7703" fill="black" fill-opacity="0" transform="translate(83.248 104.764)"/>
<path d="M87.9045 104.764L83.521 105.343C83.1369 111.524 83.2186 124.393 83.3992 124.514C83.5306 124.602 87.2911 124.382 88.731 124.291C88.1739 117.798 87.8984 111.28 87.9045 104.764Z" fill="#F1ECBD"/>
<rect width="3.26519" height="17.7958" fill="black" fill-opacity="0" transform="translate(84.3568 105.751)"/>
<path d="M87.1298 105.751L84.5195 106.27C84.2906 111.836 84.3388 123.421 84.4474 123.529C84.525 123.608 86.7645 123.41 87.6219 123.328C87.2906 117.484 87.1263 111.617 87.1298 105.751Z" fill="#8D7E9B"/>
<rect width="12.3837" height="23.63" fill="black" fill-opacity="0" transform="translate(93.5519 106.878)"/>
<rect width="12.3837" height="23.63" fill="black" fill-opacity="0" transform="translate(93.5519 106.878)"/>
<rect width="12.3837" height="23.63" fill="black" fill-opacity="0" transform="translate(93.5519 106.878)"/>
<rect width="12.3837" height="23.63" fill="black" fill-opacity="0" transform="translate(93.5519 106.878)"/>
<path d="M105.272 130.508C105.26 130.508 105.25 130.383 105.243 130.145C105.237 129.907 105.233 129.556 105.232 129.104C105.229 128.201 105.237 126.894 105.255 125.279C105.29 122.048 105.364 117.586 105.467 112.658C105.511 110.701 105.553 108.818 105.593 107.056C105.652 107.114 105.711 107.172 105.769 107.229C103.997 107.327 102.347 107.419 100.867 107.501C100.498 107.52 100.139 107.539 99.791 107.557C99.4439 107.579 99.1092 107.618 98.7861 107.645C98.1414 107.704 97.545 107.758 97.0024 107.808C95.9198 107.904 95.0582 107.976 94.4667 108.019C93.8753 108.062 93.554 108.076 93.552 108.056C93.5499 108.037 93.8673 107.985 94.4552 107.907C95.0429 107.828 95.9011 107.724 96.9808 107.598C97.522 107.536 98.117 107.468 98.7602 107.394C99.0828 107.36 99.4164 107.315 99.7637 107.287C100.112 107.263 100.471 107.239 100.841 107.213C102.325 107.116 103.979 107.007 105.756 106.89L105.936 106.878L105.932 107.063C105.898 108.826 105.862 110.709 105.824 112.666C105.721 117.594 105.607 122.055 105.508 125.284C105.458 126.898 105.411 128.205 105.371 129.107C105.351 129.559 105.332 129.909 105.315 130.147C105.299 130.384 105.284 130.509 105.272 130.508Z" fill="#362A18"/>
<rect width="0.419382" height="21.2694" fill="black" fill-opacity="0" transform="translate(93.444 109.427)"/>
<rect width="0.419382" height="21.2694" fill="black" fill-opacity="0" transform="translate(93.444 109.427)"/>
<rect width="0.419382" height="21.2694" fill="black" fill-opacity="0" transform="translate(93.444 109.427)"/>
<rect width="0.419382" height="21.2694" fill="black" fill-opacity="0" transform="translate(93.444 109.427)"/>
<path d="M93.5438 130.696C93.5192 130.696 93.4988 130.398 93.4829 129.86C93.4671 129.321 93.4559 128.542 93.4497 127.58C93.4373 125.655 93.4448 122.996 93.4751 120.059C93.5054 117.123 93.5528 114.464 93.6051 112.54C93.6312 111.578 93.6585 110.8 93.6854 110.262C93.7123 109.724 93.7389 109.427 93.7635 109.427C93.7881 109.427 93.8085 109.725 93.8244 110.263C93.8402 110.802 93.8514 111.581 93.8576 112.543C93.87 114.468 93.8626 117.127 93.8323 120.063C93.8019 123 93.7545 125.658 93.7022 127.582C93.6761 128.545 93.6488 129.323 93.622 129.861C93.5951 130.399 93.5684 130.696 93.5438 130.696Z" fill="#362A18"/>
<rect width="0.789219" height="21.4539" fill="black" fill-opacity="0" transform="translate(98.5112 109.427)"/>
<rect width="0.789219" height="21.4539" fill="black" fill-opacity="0" transform="translate(98.5112 109.427)"/>
<rect width="0.789219" height="21.4539" fill="black" fill-opacity="0" transform="translate(98.5112 109.427)"/>
<rect width="0.789219" height="21.4539" fill="black" fill-opacity="0" transform="translate(98.5112 109.427)"/>
<path d="M98.5946 130.881C98.5699 130.881 98.5505 130.581 98.5367 130.037C98.523 129.494 98.5146 128.707 98.5121 127.736C98.5068 125.792 98.5242 123.105 98.5656 120.139C98.7111 117.179 98.8628 114.499 98.9904 112.561C99.0542 111.591 99.1121 110.807 99.16 110.266C99.2081 109.724 99.2463 109.425 99.2709 109.427C99.2955 109.428 99.3042 109.729 99.2989 110.273C99.2936 110.816 99.2742 111.602 99.2427 112.573C99.1795 114.515 99.0678 117.196 98.9223 120.157C98.8812 123.118 98.8239 125.798 98.7646 127.738C98.735 128.709 98.7048 129.494 98.6759 130.037C98.6469 130.58 98.6192 130.881 98.5946 130.881Z" fill="#362A18"/>
<rect width="0.796452" height="20.8992" fill="black" fill-opacity="0" transform="translate(101.688 109.241)"/>
<rect width="0.796452" height="20.8992" fill="black" fill-opacity="0" transform="translate(101.688 109.241)"/>
<rect width="0.796452" height="20.8992" fill="black" fill-opacity="0" transform="translate(101.688 109.241)"/>
<rect width="0.796452" height="20.8992" fill="black" fill-opacity="0" transform="translate(101.688 109.241)"/>
<path d="M102.449 130.14C102.425 130.141 102.389 129.85 102.346 129.322C102.302 128.795 102.251 128.03 102.195 127.085C102.084 125.196 101.955 122.584 101.834 119.698C101.759 116.811 101.712 114.198 101.695 112.305C101.687 111.359 101.686 110.593 101.693 110.064C101.701 109.534 101.717 109.241 101.742 109.241C101.766 109.24 101.797 109.532 101.833 110.06C101.868 110.589 101.907 111.354 101.947 112.299C102.029 114.19 102.117 116.802 102.191 119.688C102.312 122.572 102.401 125.183 102.448 127.075C102.471 128.02 102.484 128.786 102.485 129.316C102.485 129.845 102.474 130.139 102.449 130.14Z" fill="#362A18"/>
<rect width="0.357179" height="21.2694" fill="black" fill-opacity="0" transform="translate(95.5798 109.242)"/>
<rect width="0.357179" height="21.2694" fill="black" fill-opacity="0" transform="translate(95.5798 109.242)"/>
<rect width="0.357179" height="21.2694" fill="black" fill-opacity="0" transform="translate(95.5798 109.242)"/>
<rect width="0.357179" height="21.2694" fill="black" fill-opacity="0" transform="translate(95.5798 109.242)"/>
<path d="M95.7584 130.511C95.7338 130.511 95.7102 130.213 95.6889 129.675C95.6676 129.137 95.6483 128.359 95.6321 127.396C95.5999 125.472 95.5798 122.813 95.5798 119.876C95.5798 116.94 95.5999 114.281 95.6321 112.357C95.6483 111.394 95.6676 110.616 95.6889 110.077C95.7102 109.539 95.7338 109.242 95.7584 109.242C95.783 109.242 95.8066 109.539 95.8279 110.077C95.8492 110.616 95.8685 111.394 95.8848 112.357C95.917 114.281 95.937 116.94 95.937 119.876C95.937 122.813 95.917 125.472 95.8848 127.396C95.8685 128.359 95.8492 129.137 95.8279 129.675C95.8066 130.213 95.783 130.511 95.7584 130.511Z" fill="#362A18"/>
<g opacity="0.5">
<rect width="99.9189" height="90.6629" fill="black" fill-opacity="0" transform="translate(19.4427 41.3816)"/>
<path opacity="0.5" d="M119.362 41.3816L32.9866 41.91C26.7588 50.2147 21.1185 57.7902 21.1185 57.7902C21.1185 57.7902 19.8948 107.912 19.4427 131.574C38.939 132.017 64.6879 132.158 90.6904 131.951C92.3794 131.935 94.0694 131.918 95.7584 131.899V72.4028L117.748 67.2265L119.362 41.3816Z" fill="black" fill-opacity="0.37"/>
</g>
<rect width="24.6652" height="0.589435" fill="black" fill-opacity="0" transform="translate(87.4357 50.4133)"/>
<rect width="24.6652" height="0.589435" fill="black" fill-opacity="0" transform="translate(87.4357 50.4133)"/>
<rect width="24.6652" height="0.589435" fill="black" fill-opacity="0" transform="translate(87.4357 50.4133)"/>
<rect width="24.6652" height="0.589435" fill="black" fill-opacity="0" transform="translate(87.4357 50.4133)"/>
<path d="M112.101 50.575C112.101 50.5996 111.755 50.6237 111.131 50.646C110.507 50.6681 109.604 50.6886 108.488 50.7063C106.257 50.7418 103.175 50.7662 99.7709 50.771C96.3661 50.8729 93.283 50.9454 91.0509 50.9799C89.9347 50.9971 89.0314 51.005 88.4068 51.0022C87.7823 50.9997 87.4365 50.9865 87.4357 50.9619C87.435 50.9373 87.7793 50.9036 88.4026 50.8635C89.0259 50.8235 89.9281 50.7771 91.0433 50.7276C93.2735 50.6285 96.3555 50.5162 99.7601 50.4143C103.169 50.4092 106.255 50.4249 108.488 50.4538C109.605 50.4685 110.508 50.4865 111.132 50.5068C111.756 50.5273 112.101 50.5504 112.101 50.575Z" fill="#628D9D"/>
<rect width="77.5922" height="51.9071" fill="black" fill-opacity="0" transform="translate(12.7249)"/>
<rect width="77.5922" height="51.9071" fill="black" fill-opacity="0" transform="translate(12.7249)"/>
<rect width="77.5922" height="51.9071" fill="black" fill-opacity="0" transform="translate(12.7249)"/>
<rect width="77.5922" height="51.9071" fill="black" fill-opacity="0" transform="translate(12.7249)"/>
<path d="M12.7264 51.9068C12.7157 51.9004 12.7639 51.7998 12.8682 51.6096C12.9724 51.4192 13.1328 51.1391 13.3464 50.7737C13.5629 50.4081 13.8296 49.9576 14.1446 49.426C14.4727 48.9011 14.8626 48.3028 15.2979 47.6264C17.0521 44.9306 19.7643 41.14 23.33 36.6309C24.2227 35.5052 25.1579 34.326 26.1323 33.0972C27.1206 31.8797 28.1489 30.6133 29.2134 29.302C31.3488 26.6841 33.6302 23.8868 36.0308 20.9433C40.8422 15.0667 46.1316 8.60617 51.6839 1.82442C52.088 1.33206 52.4909 0.841222 52.8918 0.352664L53.1814 0L53.4527 0.358749C63.7605 13.9927 73.0155 26.2974 79.6732 35.2071C83.0022 39.6622 85.6821 43.2689 87.5202 45.7693C88.4393 47.0192 89.1478 47.9927 89.6219 48.6575C89.8589 48.9896 90.0372 49.2447 90.1539 49.4186C90.2706 49.5925 90.3256 49.6851 90.316 49.6924C90.3064 49.6998 90.2323 49.6217 90.0968 49.462C89.9614 49.3025 89.7645 49.0614 89.5093 48.7429C88.9989 48.1058 88.2551 47.1591 87.3026 45.9343C85.3973 43.4852 82.6568 39.9243 79.2765 35.5083C72.5159 26.6754 63.1976 14.4225 52.887 0.794318C53.0732 0.796346 53.2593 0.798374 53.4479 0.800403C53.0469 1.28896 52.644 1.78031 52.2397 2.27292C46.6707 9.04351 41.3654 15.4936 36.5396 21.3609C34.1219 24.2884 31.8242 27.0707 29.6737 29.6747C28.5985 30.9764 27.5601 32.2336 26.5619 33.4422C25.5757 34.6602 24.6291 35.8292 23.7255 36.945C20.114 41.408 17.3497 45.1395 15.5288 47.7813C15.0756 48.4428 14.6728 49.0307 14.3233 49.5408C13.9861 50.057 13.7005 50.4946 13.4689 50.8495C13.2357 51.202 13.0554 51.4697 12.9307 51.6474C12.806 51.8251 12.7369 51.9131 12.7264 51.9068Z" fill="#628D9D"/>
<rect width="12.8564" height="24.1016" fill="black" fill-opacity="0" transform="translate(109.394 111.366)"/>
<path d="M122.149 130.895C121.921 130.153 121.08 129.547 120.365 129.853C121.139 129.074 121.966 128.176 121.975 127.078C121.983 125.981 120.578 124.956 119.771 125.701C120.129 125.068 120.43 124.351 120.32 123.633C120.207 122.914 119.538 122.244 118.822 122.374C120.076 121.277 119.823 118.938 118.364 118.135C118.84 117.357 119.096 116.447 119.099 115.535C119.1 115.118 119.02 114.649 118.683 114.404C118.422 114.214 117.992 114.307 117.837 114.55C118.049 113.587 117.733 112.516 117.007 111.843C116.719 111.577 116.353 111.365 115.959 111.366C115.239 111.369 114.697 112.101 114.639 112.818C114.581 113.534 114.879 114.226 115.169 114.884C113.881 114.657 112.727 115.942 112.587 117.242C112.447 118.542 113.017 119.802 113.573 120.985C113.36 120.469 112.607 120.369 112.14 120.673C111.672 120.978 111.444 121.541 111.318 122.084C110.889 123.924 111.345 125.95 112.521 127.427C111.844 126.702 110.504 127.492 110.396 128.479C110.287 129.465 110.921 130.364 111.522 131.154C111.176 130.471 110.038 130.609 109.634 131.258C109.228 131.908 109.39 132.766 109.725 133.455C110.06 134.143 110.554 134.752 110.826 135.467L121.195 134.619C121.61 134.259 121.794 133.709 121.951 133.182C122.174 132.438 122.379 131.638 122.149 130.895Z" fill="#579326"/>
<rect width="52.973" height="48.5226" fill="black" fill-opacity="0" transform="translate(117.857 87.0151)"/>
<rect width="52.973" height="48.5225" fill="black" fill-opacity="0" transform="translate(117.857 87.0151)"/>
<path d="M170.769 134.182C169.649 134.331 168.453 134.464 167.192 134.585C153.201 135.941 132.076 135.536 122.718 135.254C119.753 135.169 117.974 135.094 117.974 135.094C117.974 135.094 118.412 102.729 117.857 87.3455L168.547 87.0151C167.87 99.7453 171.325 131.876 170.769 134.182Z" fill="#822C0C"/>
<rect width="45.6322" height="38.821" fill="black" fill-opacity="0" transform="translate(121.56 96.7166)"/>
<path d="M167.192 134.585C153.201 135.94 132.076 135.536 122.718 135.253C122.332 122.637 121.946 110.019 121.56 97.4022C129.525 97.4866 137.489 97.5809 145.454 97.6659C150.359 97.7135 164.234 96.6112 166.269 96.7248C166.627 109.351 166.937 121.968 167.192 134.585Z" fill="#534635"/>
<rect width="38.6391" height="35.3009" fill="black" fill-opacity="0" transform="translate(126.579 98.5278)"/>
<rect width="38.6391" height="35.3009" fill="black" fill-opacity="0" transform="translate(126.579 98.5278)"/>
<rect width="38.6391" height="35.3009" fill="black" fill-opacity="0" transform="translate(126.579 98.5278)"/>
<rect width="38.6391" height="35.3009" fill="black" fill-opacity="0" transform="translate(126.579 98.5278)"/>
<path d="M164.946 133.829C164.94 133.828 164.936 133.767 164.934 133.647C164.933 133.521 164.933 133.345 164.932 133.117C164.939 132.644 164.948 131.958 164.96 131.078C164.977 130.192 165.006 129.109 164.991 127.849C164.989 127.219 164.987 126.546 164.986 125.832C164.984 125.475 164.983 125.107 164.981 124.73C164.972 124.353 164.962 123.966 164.953 123.569C164.934 122.776 164.914 121.945 164.894 121.079C164.877 120.212 164.824 119.311 164.789 118.378C164.723 116.511 164.598 114.517 164.481 112.416C164.219 108.215 163.88 103.593 163.545 98.7271L163.734 98.8929C163.405 98.9099 163.074 98.9269 162.742 98.9441C160.247 99.0709 157.812 99.1946 155.46 99.3143C154.284 99.384 153.127 99.4002 151.994 99.44C150.862 99.4743 149.753 99.5077 148.672 99.5402C147.59 99.5724 146.535 99.6036 145.51 99.6337C144.485 99.6573 143.489 99.6573 142.527 99.6692C140.603 99.6855 138.81 99.7007 137.172 99.7149C136.763 99.7179 136.363 99.7207 135.974 99.7235C135.585 99.7194 135.206 99.7154 134.837 99.7113C134.101 99.7017 133.406 99.6923 132.755 99.6834C131.457 99.6629 130.338 99.6452 129.421 99.6304C128.511 99.6099 127.803 99.5937 127.313 99.5828C127.078 99.5734 126.896 99.5663 126.765 99.5612C126.642 99.5544 126.579 99.5478 126.579 99.5417C126.579 99.5356 126.642 99.5298 126.766 99.5247C126.896 99.5214 127.078 99.5169 127.314 99.5108C127.803 99.5062 128.512 99.4999 129.422 99.4915C130.339 99.4895 131.458 99.4869 132.757 99.4839C133.407 99.4842 134.102 99.4842 134.839 99.4844C135.207 99.4842 135.586 99.4839 135.976 99.4837C136.365 99.4766 136.764 99.4697 137.173 99.4624C138.809 99.435 140.6 99.4053 142.523 99.3731C143.484 99.3549 144.479 99.349 145.503 99.3199C146.527 99.2849 147.581 99.2486 148.662 99.2114C149.743 99.1751 150.851 99.1376 151.982 99.0993C153.113 99.0562 154.269 99.0369 155.444 98.9649C157.795 98.843 160.228 98.717 162.721 98.5877C163.053 98.5707 163.383 98.5537 163.713 98.537L163.89 98.5278L163.902 98.703C164.235 103.567 164.563 108.192 164.807 112.397C164.915 114.5 165.028 116.496 165.082 118.367C165.11 119.302 165.156 120.203 165.166 121.071C165.178 121.939 165.191 122.771 165.202 123.566C165.207 123.963 165.213 124.35 165.218 124.728C165.215 125.106 165.212 125.474 165.21 125.831C165.202 126.546 165.194 127.22 165.187 127.851C165.184 129.112 165.135 130.196 165.097 131.082C165.056 131.961 165.025 132.647 165.003 133.12C164.989 133.347 164.978 133.523 164.97 133.649C164.96 133.768 164.952 133.829 164.946 133.829Z" fill="#362A18"/>
<rect width="0.466024" height="31.6363" fill="black" fill-opacity="0" transform="translate(161.526 100.545)"/>
<rect width="0.466024" height="31.6363" fill="black" fill-opacity="0" transform="translate(161.526 100.545)"/>
<rect width="0.466024" height="31.6363" fill="black" fill-opacity="0" transform="translate(161.526 100.545)"/>
<rect width="0.466024" height="31.6363" fill="black" fill-opacity="0" transform="translate(161.526 100.545)"/>
<path d="M161.609 132.182C161.597 132.182 161.586 132.071 161.576 131.86C161.567 131.649 161.558 131.338 161.552 130.938C161.538 130.137 161.53 128.979 161.527 127.547C161.522 124.685 161.539 120.73 161.58 116.362C161.622 111.994 161.679 108.04 161.739 105.177C161.768 103.746 161.798 102.588 161.827 101.788C161.842 101.388 161.856 101.077 161.87 100.866C161.883 100.656 161.896 100.545 161.909 100.545C161.921 100.545 161.932 100.656 161.942 100.867C161.951 101.078 161.96 101.389 161.966 101.789C161.98 102.59 161.988 103.748 161.991 105.18C161.996 108.042 161.979 111.997 161.938 116.365C161.896 120.733 161.839 124.688 161.779 127.55C161.75 128.981 161.72 130.139 161.691 130.939C161.676 131.339 161.662 131.65 161.648 131.861C161.635 132.071 161.622 132.182 161.609 132.182Z" fill="#362A18"/>
<rect width="43.4648" height="3.5982" fill="black" fill-opacity="0" transform="translate(121.107 90.7341)"/>
<rect width="9.64689" height="3.21277" fill="black" fill-opacity="0" transform="translate(154.925 90.7864)"/>
<path d="M155.152 92.734C155.176 93.164 155.176 93.5709 155.168 93.9639C158.303 93.9672 161.437 93.9753 164.572 93.9991C164.572 92.9718 164.571 91.9448 164.571 90.918C161.383 90.8695 158.16 90.8221 154.925 90.7864C155.031 91.3723 155.115 92.0269 155.152 92.734Z" fill="#534635"/>
<rect width="10.4749" height="3.3768" fill="black" fill-opacity="0" transform="translate(131.149 90.7585)"/>
<path d="M131.149 90.9776C131.267 91.6419 131.367 92.3852 131.427 93.1914C131.45 93.5144 131.466 93.8293 131.476 94.1353C134.859 94.0829 138.242 94.0446 141.624 94.0154C141.61 93.7165 141.598 93.4082 141.589 93.089C141.569 92.228 141.572 91.4258 141.603 90.7585C138.109 90.788 134.62 90.8564 131.149 90.9776Z" fill="#534635"/>
<rect width="11.2456" height="3.26735" fill="black" fill-opacity="0" transform="translate(142.68 90.7341)"/>
<path d="M153.859 92.804C153.821 92.0698 153.785 91.3853 153.763 90.7727C150.08 90.7367 146.379 90.7218 142.68 90.7459C142.786 91.4053 142.863 92.1968 142.883 93.0571C142.891 93.3829 142.89 93.696 142.883 94.0015C146.564 93.9733 150.245 93.9602 153.925 93.9602C153.904 93.589 153.882 93.2062 153.859 92.804Z" fill="#534635"/>
<rect width="9.09742" height="3.30733" fill="black" fill-opacity="0" transform="translate(121.107 91.0249)"/>
<path d="M130.135 93.2874C130.076 92.4688 130.029 91.7072 129.999 91.0249C127.042 91.1382 124.095 91.2827 121.181 91.4886C121.156 92.4358 121.132 93.3835 121.107 94.3322C124.14 94.2633 127.172 94.2093 130.204 94.1588C130.181 93.8749 130.158 93.5861 130.135 93.2874Z" fill="#534635"/>
<rect width="1.13155" height="35.4013" fill="black" fill-opacity="0" transform="translate(124.115 99.3674)"/>
<rect width="1.13155" height="35.4013" fill="black" fill-opacity="0" transform="translate(124.115 99.3674)"/>
<rect width="1.13155" height="35.4013" fill="black" fill-opacity="0" transform="translate(124.115 99.3674)"/>
<rect width="1.13155" height="35.4013" fill="black" fill-opacity="0" transform="translate(124.115 99.3674)"/>
<path d="M125.008 134.769C124.995 134.768 124.985 134.644 124.976 134.408C124.967 134.172 124.959 133.824 124.953 133.376C124.942 132.479 124.936 131.182 124.937 129.58C124.983 126.376 124.868 121.95 124.811 117.062C124.626 112.178 124.521 107.754 124.317 104.553C124.236 102.953 124.177 101.657 124.145 100.761C124.128 100.313 124.118 99.965 124.116 99.7287C124.113 99.4927 124.118 99.3682 124.13 99.3674C124.142 99.3667 124.162 99.4896 124.188 99.7244C124.213 99.9592 124.246 100.306 124.283 100.753C124.359 101.646 124.456 102.939 124.569 104.538C124.838 107.732 124.983 112.162 125.168 117.053C125.225 121.946 125.3 126.376 125.19 129.582C125.157 131.185 125.123 132.482 125.092 133.378C125.077 133.826 125.062 134.174 125.047 134.41C125.033 134.646 125.02 134.769 125.008 134.769Z" fill="#362A18"/>
<rect width="1.41681" height="30.2275" fill="black" fill-opacity="0" transform="translate(128.203 101.604)"/>
<rect width="1.41681" height="30.2275" fill="black" fill-opacity="0" transform="translate(128.203 101.604)"/>
<rect width="1.41681" height="30.2275" fill="black" fill-opacity="0" transform="translate(128.203 101.604)"/>
<rect width="1.41681" height="30.2275" fill="black" fill-opacity="0" transform="translate(128.203 101.604)"/>
<path d="M129.606 131.831C129.581 131.834 129.525 131.414 129.445 130.652C129.365 129.89 129.26 128.786 129.138 127.422C128.86 124.695 128.664 120.915 128.431 116.74C128.301 112.56 128.169 108.775 128.21 106.037C128.213 104.668 128.222 103.56 128.236 102.794C128.25 102.028 128.27 101.604 128.294 101.604C128.319 101.604 128.346 102.027 128.375 102.793C128.404 103.558 128.434 104.666 128.463 106.035C128.486 108.775 128.658 112.551 128.788 116.725C129.02 120.895 129.177 124.673 129.39 127.403C129.479 128.769 129.546 129.875 129.583 130.64C129.621 131.405 129.63 131.829 129.606 131.831Z" fill="#362A18"/>
<rect width="0.469053" height="30.3438" fill="black" fill-opacity="0" transform="translate(133.562 101.603)"/>
<rect width="0.469053" height="30.3438" fill="black" fill-opacity="0" transform="translate(133.562 101.603)"/>
<rect width="0.469053" height="30.3438" fill="black" fill-opacity="0" transform="translate(133.562 101.603)"/>
<rect width="0.469053" height="30.3438" fill="black" fill-opacity="0" transform="translate(133.562 101.603)"/>
<path d="M133.949 131.947C133.924 131.947 133.896 131.523 133.867 130.755C133.838 129.988 133.808 128.877 133.778 127.504C133.718 124.759 133.66 120.966 133.618 116.776C133.576 112.587 133.558 108.794 133.563 106.048C133.565 104.675 133.574 103.564 133.587 102.796C133.601 102.028 133.62 101.603 133.645 101.603C133.669 101.603 133.697 102.027 133.726 102.795C133.755 103.562 133.786 104.673 133.816 106.045C133.875 108.791 133.933 112.584 133.975 116.773C134.017 120.963 134.035 124.756 134.031 127.502C134.028 128.875 134.02 129.986 134.006 130.754C133.993 131.522 133.973 131.947 133.949 131.947Z" fill="#362A18"/>
<rect width="0.810131" height="30.1197" fill="black" fill-opacity="0" transform="translate(138.376 102.416)"/>
<rect width="0.810131" height="30.1197" fill="black" fill-opacity="0" transform="translate(138.376 102.416)"/>
<rect width="0.810131" height="30.1197" fill="black" fill-opacity="0" transform="translate(138.376 102.416)"/>
<rect width="0.810131" height="30.1197" fill="black" fill-opacity="0" transform="translate(138.376 102.416)"/>
<path d="M138.715 132.535C138.69 132.534 138.681 132.111 138.686 131.349C138.691 130.586 138.71 129.483 138.741 128.12C138.849 125.396 138.805 121.631 138.829 117.472C138.717 113.317 138.681 109.554 138.515 106.829C138.455 105.467 138.413 104.364 138.392 103.602C138.371 102.839 138.371 102.417 138.395 102.416C138.42 102.414 138.467 102.834 138.531 103.594C138.594 104.354 138.675 105.455 138.767 106.815C138.997 109.533 139.074 113.305 139.186 117.469C139.162 121.633 139.166 125.403 138.993 128.128C138.93 129.491 138.873 130.593 138.825 131.355C138.778 132.116 138.739 132.536 138.715 132.535Z" fill="#362A18"/>
<rect width="4.35177" height="0.812717" fill="black" fill-opacity="0" transform="translate(141.397 132.849)"/>
<rect width="4.35177" height="0.812717" fill="black" fill-opacity="0" transform="translate(141.397 132.849)"/>
<rect width="4.35177" height="0.812717" fill="black" fill-opacity="0" transform="translate(141.397 132.849)"/>
<rect width="4.35177" height="0.812717" fill="black" fill-opacity="0" transform="translate(141.397 132.849)"/>
<path d="M145.747 132.863C145.769 132.902 145.567 133.064 145.194 133.253C144.817 133.432 144.256 133.606 143.614 133.656C142.972 133.689 142.394 133.59 141.99 133.459C141.601 133.321 141.385 133.187 141.397 133.144C141.412 133.092 141.666 133.144 142.062 133.216C142.448 133.276 142.991 133.33 143.591 133.3C144.19 133.252 144.721 133.13 145.103 133.018C145.48 132.897 145.721 132.816 145.747 132.863Z" fill="#362A18"/>
<rect width="0.464143" height="29.8748" fill="black" fill-opacity="0" transform="translate(142.624 102.309)"/>
<rect width="0.464143" height="29.8748" fill="black" fill-opacity="0" transform="translate(142.624 102.309)"/>
<rect width="0.464143" height="29.8748" fill="black" fill-opacity="0" transform="translate(142.624 102.309)"/>
<rect width="0.464143" height="29.8748" fill="black" fill-opacity="0" transform="translate(142.624 102.309)"/>
<path d="M142.773 132.183C142.748 132.183 142.728 131.764 142.714 131.008C142.7 130.252 142.69 129.158 142.687 127.807C142.679 125.104 142.693 121.371 142.731 117.248C142.67 113.123 142.634 109.389 142.626 106.685C142.622 105.334 142.625 104.239 142.635 103.483C142.645 102.727 142.662 102.309 142.687 102.309C142.712 102.308 142.741 102.726 142.774 103.481C142.807 104.237 142.842 105.33 142.878 106.682C142.951 109.384 143.027 113.118 143.088 117.243C143.051 121.369 142.996 125.106 142.939 127.809C142.911 129.161 142.881 130.255 142.853 131.011C142.825 131.766 142.797 132.184 142.773 132.183Z" fill="#362A18"/>
<rect width="1.089" height="32.3447" fill="black" fill-opacity="0" transform="translate(147.273 102.19)"/>
<rect width="1.089" height="32.3447" fill="black" fill-opacity="0" transform="translate(147.273 102.19)"/>
<rect width="1.089" height="32.3447" fill="black" fill-opacity="0" transform="translate(147.273 102.19)"/>
<rect width="1.089" height="32.3447" fill="black" fill-opacity="0" transform="translate(147.273 102.19)"/>
<path d="M148.318 134.535C148.306 134.535 148.291 134.422 148.275 134.207C148.259 133.992 148.241 133.674 148.222 133.265C148.183 132.447 148.139 131.262 148.092 129.799C147.998 126.873 147.893 122.831 147.799 118.365C147.611 113.901 147.461 109.858 147.37 106.931C147.324 105.467 147.294 104.283 147.28 103.464C147.274 103.054 147.272 102.736 147.274 102.521C147.277 102.305 147.284 102.191 147.296 102.19C147.309 102.19 147.325 102.302 147.346 102.517C147.367 102.732 147.391 103.049 147.419 103.458C147.475 104.275 147.544 105.458 147.622 106.92C147.778 109.845 147.968 113.885 148.156 118.35C148.25 122.819 148.315 126.865 148.345 129.794C148.359 131.259 148.365 132.444 148.361 133.263C148.359 133.672 148.354 133.991 148.347 134.206C148.34 134.422 148.33 134.535 148.318 134.535Z" fill="#362A18"/>
<rect width="0.465601" height="28.6974" fill="black" fill-opacity="0" transform="translate(152.319 102.661)"/>
<rect width="0.465601" height="28.6974" fill="black" fill-opacity="0" transform="translate(152.319 102.661)"/>
<rect width="0.465601" height="28.6974" fill="black" fill-opacity="0" transform="translate(152.319 102.661)"/>
<rect width="0.465601" height="28.6974" fill="black" fill-opacity="0" transform="translate(152.319 102.661)"/>
<path d="M152.475 131.359C152.45 131.358 152.43 130.956 152.416 130.23C152.401 129.503 152.391 128.453 152.387 127.155C152.378 124.558 152.391 120.973 152.427 117.012C152.365 113.05 152.329 109.463 152.321 106.866C152.316 105.567 152.319 104.516 152.329 103.79C152.339 103.064 152.356 102.662 152.381 102.661C152.406 102.661 152.435 103.062 152.468 103.788C152.501 104.514 152.537 105.564 152.573 106.862C152.646 109.458 152.722 113.045 152.784 117.007C152.748 120.971 152.695 124.56 152.64 127.157C152.612 128.456 152.583 129.506 152.555 130.232C152.527 130.958 152.5 131.359 152.475 131.359Z" fill="#362A18"/>
<rect width="1.01955" height="28.6989" fill="black" fill-opacity="0" transform="translate(157.771 100.659)"/>
<rect width="1.01955" height="28.6989" fill="black" fill-opacity="0" transform="translate(157.771 100.659)"/>
<rect width="1.01955" height="28.6989" fill="black" fill-opacity="0" transform="translate(157.771 100.659)"/>
<rect width="1.01955" height="28.6989" fill="black" fill-opacity="0" transform="translate(157.771 100.659)"/>
<path d="M158.553 129.358C158.528 129.358 158.51 128.955 158.498 128.228C158.486 127.501 158.48 126.45 158.481 125.151C158.521 122.553 158.419 118.966 158.37 115.003C158.207 111.045 158.118 107.459 157.94 104.865C157.87 103.567 157.82 102.517 157.793 101.79C157.766 101.064 157.763 100.661 157.787 100.659C157.812 100.658 157.862 101.057 157.932 101.781C158.001 102.505 158.09 103.552 158.192 104.848C158.435 107.436 158.564 111.028 158.727 114.994C158.776 118.962 158.838 122.555 158.733 125.154C158.7 126.454 158.667 127.505 158.637 128.231C158.606 128.958 158.577 129.359 158.553 129.358Z" fill="#362A18"/>
<rect width="123.778" height="72.7941" fill="black" fill-opacity="0" transform="translate(47.7665 16.4641)"/>
<rect width="123.778" height="72.7941" fill="black" fill-opacity="0" transform="translate(47.7665 16.4641)"/>
<path d="M170.574 51.4787C170.574 51.4787 137.182 18.7314 136.224 18.344C135.371 17.9987 74.7731 16.3763 59.0268 16.4678L47.7665 51.3169C68.9451 52.9091 91.1653 53.8888 112.378 52.8516C112.551 64.8393 113.017 76.8236 113.775 88.7886C124.289 87.7344 161.077 90.2418 171.545 88.7967C171.024 78.8769 170.574 51.4787 170.574 51.4787Z" fill="#407081"/>
<rect width="53.827" height="0.581604" fill="black" fill-opacity="0" transform="translate(114.983 85.405)"/>
<rect width="53.827" height="0.581604" fill="black" fill-opacity="0" transform="translate(114.983 85.405)"/>
<rect width="53.827" height="0.581604" fill="black" fill-opacity="0" transform="translate(114.983 85.405)"/>
<rect width="53.827" height="0.581604" fill="black" fill-opacity="0" transform="translate(114.983 85.405)"/>
<path d="M168.81 85.4631C168.81 85.4755 168.622 85.4889 168.263 85.5037C167.895 85.5148 167.369 85.5305 166.695 85.5508C165.324 85.5762 163.356 85.6127 160.928 85.6575C156.058 85.7318 149.329 85.8099 141.897 85.8743C134.466 85.9387 127.737 85.9767 122.867 85.9866C120.438 85.9838 118.47 85.9813 117.098 85.9798C116.425 85.9712 115.898 85.9646 115.53 85.9598C115.171 85.9514 114.983 85.941 114.983 85.9286C114.983 85.9164 115.171 85.9027 115.529 85.888C115.897 85.8769 116.424 85.8611 117.097 85.8409C118.468 85.8155 120.437 85.779 122.864 85.7341C127.734 85.6598 134.463 85.5817 141.894 85.5173C149.326 85.4529 156.055 85.4149 160.926 85.405C163.354 85.4078 165.322 85.4104 166.694 85.4119C167.368 85.4205 167.894 85.4271 168.263 85.4319C168.621 85.4403 168.81 85.4509 168.81 85.4631Z" fill="#628D9D"/>
<rect width="45.6444" height="0.587122" fill="black" fill-opacity="0" transform="translate(122.705 81.7263)"/>
<rect width="45.6444" height="0.587122" fill="black" fill-opacity="0" transform="translate(122.705 81.7263)"/>
<rect width="45.6444" height="0.587122" fill="black" fill-opacity="0" transform="translate(122.705 81.7263)"/>
<rect width="45.6444" height="0.587122" fill="black" fill-opacity="0" transform="translate(122.705 81.7263)"/>
<path d="M168.349 81.7712C168.349 81.7836 168.19 81.7978 167.886 81.814C167.582 81.83 167.134 81.8477 166.557 81.8667C165.402 81.905 163.732 81.9486 161.667 81.995C157.537 82.0878 151.831 82.191 145.529 82.2833C139.226 82.3132 133.52 82.3201 129.39 82.3074C127.325 82.301 125.654 82.2896 124.499 82.2737C123.921 82.2658 123.473 82.2567 123.169 82.2465C122.864 82.2364 122.705 82.2252 122.705 82.2128C122.705 82.2006 122.864 82.1877 123.168 82.1748C123.472 82.1616 123.921 82.1482 124.498 82.1347C125.653 82.1081 127.324 82.081 129.389 82.0549C133.519 82.0031 139.225 81.9562 145.527 81.9263C151.828 81.834 157.533 81.7707 161.663 81.7428C163.728 81.7286 165.399 81.7235 166.554 81.7278C167.132 81.7301 167.581 81.7349 167.885 81.742C168.189 81.7491 168.349 81.759 168.349 81.7712Z" fill="#628D9D"/>
<rect width="8.52921" height="0.45232" fill="black" fill-opacity="0" transform="translate(114.866 61.2471)"/>
<rect width="8.52921" height="0.45232" fill="black" fill-opacity="0" transform="translate(114.866 61.2471)"/>
<rect width="8.52921" height="0.45232" fill="black" fill-opacity="0" transform="translate(114.866 61.2471)"/>
<rect width="8.52921" height="0.45232" fill="black" fill-opacity="0" transform="translate(114.866 61.2471)"/>
<path d="M123.396 61.313C123.405 61.4111 121.496 61.5845 119.132 61.6994C116.776 61.6827 114.866 61.5894 114.866 61.4907C114.867 61.3921 116.778 61.3257 119.135 61.3424C121.479 61.2276 123.387 61.2149 123.396 61.313Z" fill="#628D9D"/>
<rect width="8.08662" height="0.891906" fill="black" fill-opacity="0" transform="translate(114.397 64.6807)"/>
<rect width="8.08662" height="0.891906" fill="black" fill-opacity="0" transform="translate(114.397 64.6807)"/>
<rect width="8.08662" height="0.891906" fill="black" fill-opacity="0" transform="translate(114.397 64.6807)"/>
<rect width="8.08662" height="0.891906" fill="black" fill-opacity="0" transform="translate(114.397 64.6807)"/>
<path d="M118.452 65.3046C120.679 65.1567 122.479 64.957 122.472 64.8587C122.466 64.7603 120.655 64.8005 118.429 64.9484C116.202 65.0964 114.403 65.296 114.409 65.3944C114.416 65.4928 116.226 65.4526 118.452 65.3046Z" fill="#628D9D"/>
<rect width="8.30138" height="0.368076" fill="black" fill-opacity="0" transform="translate(159.473 67.0168)"/>
<rect width="8.30138" height="0.368076" fill="black" fill-opacity="0" transform="translate(159.473 67.0168)"/>
<rect width="8.30138" height="0.368076" fill="black" fill-opacity="0" transform="translate(159.473 67.0168)"/>
<rect width="8.30138" height="0.368076" fill="black" fill-opacity="0" transform="translate(159.473 67.0168)"/>
<path d="M167.774 67.2592C167.771 67.3576 165.913 67.4091 163.625 67.3738C161.332 67.388 159.473 67.3198 159.473 67.2212C159.472 67.1226 161.33 67.031 163.623 67.0168C165.919 67.0521 167.777 67.1606 167.774 67.2592Z" fill="#628D9D"/>
<rect width="9.91173" height="0.356974" fill="black" fill-opacity="0" transform="translate(160.856 70.0278)"/>
<rect width="9.91173" height="0.356974" fill="black" fill-opacity="0" transform="translate(160.856 70.0278)"/>
<rect width="9.91173" height="0.356974" fill="black" fill-opacity="0" transform="translate(160.856 70.0278)"/>
<rect width="9.91173" height="0.356974" fill="black" fill-opacity="0" transform="translate(160.856 70.0278)"/>
<path d="M170.768 70.2063C170.768 70.2555 170.213 70.3001 169.317 70.3326C168.42 70.3648 167.181 70.3848 165.812 70.3848C164.444 70.3848 163.205 70.3648 162.308 70.3326C161.411 70.3001 160.856 70.2555 160.856 70.2063C160.856 70.1571 161.411 70.1125 162.308 70.0801C163.205 70.0479 164.444 70.0278 165.812 70.0278C167.181 70.0278 168.42 70.0479 169.317 70.0801C170.213 70.1125 170.768 70.1571 170.768 70.2063Z" fill="#628D9D"/>
<rect width="6.91378" height="0.396553" fill="black" fill-opacity="0" transform="translate(114.984 76.0886)"/>
<rect width="6.91378" height="0.396553" fill="black" fill-opacity="0" transform="translate(114.984 76.0886)"/>
<rect width="6.91378" height="0.396553" fill="black" fill-opacity="0" transform="translate(114.984 76.0886)"/>
<rect width="6.91378" height="0.396553" fill="black" fill-opacity="0" transform="translate(114.984 76.0886)"/>
<path d="M121.897 76.1814C121.904 76.2798 120.357 76.4159 118.442 76.4851C116.532 76.4872 114.984 76.4088 114.984 76.3102C114.984 76.2116 116.532 76.1302 118.441 76.1282C120.344 76.0589 121.891 76.083 121.897 76.1814Z" fill="#628D9D"/>
<rect width="35.2715" height="0.695754" fill="black" fill-opacity="0" transform="translate(66.1115 19.7893)"/>
<rect width="35.2715" height="0.695754" fill="black" fill-opacity="0" transform="translate(66.1115 19.7893)"/>
<rect width="35.2715" height="0.695754" fill="black" fill-opacity="0" transform="translate(66.1115 19.7893)"/>
<rect width="35.2715" height="0.695754" fill="black" fill-opacity="0" transform="translate(66.1115 19.7893)"/>
<path d="M101.383 20.4357C101.383 20.4481 101.259 20.458 101.024 20.4656C100.789 20.4732 100.442 20.4785 99.9959 20.4818C99.103 20.4879 97.8114 20.4854 96.2154 20.4745C93.0234 20.4527 88.6141 20.3982 83.7441 20.3155C78.8742 20.2331 74.4657 20.1385 71.2748 20.0523C69.6794 20.009 68.3883 19.9679 67.4962 19.9317C67.0502 19.9134 66.704 19.8962 66.4692 19.8807C66.2344 19.865 66.1113 19.851 66.1115 19.8386C66.1118 19.8262 66.2353 19.8163 66.4705 19.8087C66.7055 19.8011 67.0522 19.7958 67.4986 19.7927C68.3913 19.7864 69.6831 19.7889 71.2791 19.7998C74.471 19.8216 78.8803 19.8764 83.7502 19.9588C88.6202 20.0412 93.0287 20.1358 96.2197 20.222C97.8151 20.2653 99.1062 20.3064 99.9983 20.3429C100.444 20.3609 100.791 20.3781 101.025 20.3936C101.26 20.4093 101.383 20.4235 101.383 20.4357Z" fill="#628D9D"/>
<rect width="40.5713" height="0.603881" fill="black" fill-opacity="0" transform="translate(68.8796 25.0532)"/>
<rect width="40.5713" height="0.603881" fill="black" fill-opacity="0" transform="translate(68.8796 25.0532)"/>
<rect width="40.5713" height="0.603881" fill="black" fill-opacity="0" transform="translate(68.8796 25.0532)"/>
<rect width="40.5713" height="0.603881" fill="black" fill-opacity="0" transform="translate(68.8796 25.0532)"/>
<path d="M109.451 25.5987C109.451 25.6111 109.309 25.6212 109.038 25.6296C108.768 25.638 108.369 25.6446 107.856 25.6491C106.829 25.658 105.344 25.6595 103.508 25.6534C99.8364 25.6418 94.7647 25.601 89.163 25.5335C83.5614 25.4663 78.4903 25.3855 74.8197 25.3091C72.9844 25.2709 71.4993 25.2338 70.473 25.2004C69.9598 25.1834 69.5614 25.1674 69.2914 25.1525C69.0212 25.1378 68.8795 25.1241 68.8796 25.1116C68.8798 25.0995 69.0218 25.0891 69.2922 25.0807C69.5625 25.0723 69.9612 25.0657 70.4746 25.0614C71.5014 25.0523 72.9871 25.0508 74.8227 25.0569C78.4941 25.0685 83.5657 25.1094 89.1673 25.1765C94.7691 25.244 99.8402 25.3249 103.511 25.4012C105.346 25.4392 106.831 25.4765 107.858 25.5102C108.371 25.5269 108.769 25.5429 109.039 25.5579C109.309 25.5726 109.451 25.5863 109.451 25.5987Z" fill="#628D9D"/>
<rect width="45.6373" height="1.06401" fill="black" fill-opacity="0" transform="translate(78.4509 28.4807)"/>
<rect width="45.6373" height="1.06401" fill="black" fill-opacity="0" transform="translate(78.4509 28.4807)"/>
<rect width="45.6373" height="1.06401" fill="black" fill-opacity="0" transform="translate(78.4509 28.4807)"/>
<rect width="45.6373" height="1.06401" fill="black" fill-opacity="0" transform="translate(78.4509 28.4807)"/>
<path d="M124.088 28.7429C124.088 28.7553 123.928 28.7657 123.624 28.774C123.32 28.7824 122.871 28.789 122.293 28.7938C121.138 28.8032 119.467 28.8052 117.402 28.8002C113.271 28.7474 107.567 28.8506 101.265 28.8957C94.9671 29.0676 89.2633 29.1609 85.1357 29.3562C83.0717 29.4325 81.401 29.488 80.2461 29.5182C79.6686 29.5334 79.2201 29.5422 78.9158 29.5443C78.6115 29.5463 78.4514 29.5415 78.4509 29.5291C78.4504 29.5166 78.6094 29.4976 78.9126 29.4725C79.2159 29.4472 79.6634 29.416 80.2399 29.3795C81.3928 29.3065 83.0618 29.2124 85.1245 29.1039C89.2472 28.8443 94.9554 28.7109 101.259 28.539C107.564 28.4936 113.273 28.4303 117.404 28.5479C119.469 28.5852 121.141 28.6217 122.296 28.6549C122.873 28.6716 123.321 28.6873 123.625 28.702C123.929 28.717 124.088 28.7307 124.088 28.7429Z" fill="#628D9D"/>
<rect width="19.7088" height="0.74114" fill="black" fill-opacity="0" transform="translate(119.362 23.2737)"/>
<rect width="19.7088" height="0.74114" fill="black" fill-opacity="0" transform="translate(119.362 23.2737)"/>
<rect width="19.7088" height="0.74114" fill="black" fill-opacity="0" transform="translate(119.362 23.2737)"/>
<rect width="19.7088" height="0.74114" fill="black" fill-opacity="0" transform="translate(119.362 23.2737)"/>
<path d="M139.07 23.2997C139.072 23.3243 138.799 23.3646 138.302 23.4163C137.805 23.4678 137.085 23.5311 136.195 23.6016C134.416 23.7654 131.95 23.86 129.227 23.9672C126.501 24.007 124.032 24.0456 122.249 23.9779C121.357 23.9555 120.635 23.9312 120.136 23.9064C119.637 23.8815 119.362 23.8559 119.362 23.8313C119.362 23.8067 119.638 23.7852 120.137 23.7674C120.636 23.7494 121.358 23.7355 122.251 23.7256C124.037 23.7286 126.498 23.65 129.217 23.6105C131.936 23.5032 134.399 23.4487 136.18 23.3496C137.071 23.3113 137.793 23.2867 138.292 23.2776C138.792 23.2685 139.069 23.2751 139.07 23.2997Z" fill="#628D9D"/>
<rect width="22.2446" height="0.36035" fill="black" fill-opacity="0" transform="translate(105.071 35.9514)"/>
<rect width="22.2446" height="0.36035" fill="black" fill-opacity="0" transform="translate(105.071 35.9514)"/>
<rect width="22.2446" height="0.36035" fill="black" fill-opacity="0" transform="translate(105.071 35.9514)"/>
<rect width="22.2446" height="0.36035" fill="black" fill-opacity="0" transform="translate(105.071 35.9514)"/>
<path d="M127.315 36.1069C127.315 36.1315 127.004 36.1559 126.442 36.1784C125.879 36.201 125.064 36.222 124.058 36.2403C122.045 36.2771 119.265 36.3034 116.193 36.31C113.122 36.3169 110.342 36.3032 108.329 36.2753C107.322 36.2613 106.508 36.2441 105.945 36.2238C105.382 36.2038 105.071 36.181 105.071 36.1564C105.071 36.1318 105.382 36.1077 105.945 36.0849C106.508 36.0623 107.322 36.0413 108.328 36.023C110.341 35.9863 113.121 35.9599 116.193 35.953C119.264 35.9465 122.045 35.9601 124.057 35.988C125.064 36.002 125.878 36.0192 126.441 36.0395C127.004 36.0595 127.315 36.0824 127.315 36.1069Z" fill="#628D9D"/>
<rect width="30.6586" height="0.449345" fill="black" fill-opacity="0" transform="translate(94.2368 39.1077)"/>
<rect width="30.6586" height="0.449345" fill="black" fill-opacity="0" transform="translate(94.2368 39.1077)"/>
<rect width="30.6586" height="0.449345" fill="black" fill-opacity="0" transform="translate(94.2368 39.1077)"/>
<rect width="30.6586" height="0.449345" fill="black" fill-opacity="0" transform="translate(94.2368 39.1077)"/>
<path d="M124.895 39.2897C124.895 39.3143 124.466 39.3376 123.69 39.3589C122.915 39.38 121.792 39.399 120.405 39.4149C117.631 39.4466 113.8 39.4657 109.568 39.4646C105.335 39.5209 101.503 39.5519 98.7282 39.5564C97.341 39.5587 96.2183 39.5544 95.4423 39.5435C94.6664 39.5323 94.2372 39.5146 94.2368 39.49C94.2364 39.4654 94.6652 39.4362 95.4405 39.4046C96.2159 39.3729 97.338 39.3386 98.7248 39.3042C101.498 39.2349 105.33 39.164 109.563 39.1077C113.797 39.1087 117.631 39.1295 120.405 39.1624C121.793 39.1789 122.915 39.1984 123.691 39.22C124.467 39.2415 124.896 39.2651 124.895 39.2897Z" fill="#628D9D"/>
<rect width="23.7433" height="0.65641" fill="black" fill-opacity="0" transform="translate(94.0049 42.0339)"/>
<rect width="23.7433" height="0.65641" fill="black" fill-opacity="0" transform="translate(94.0049 42.0339)"/>
<rect width="23.7433" height="0.65641" fill="black" fill-opacity="0" transform="translate(94.0049 42.0339)"/>
<rect width="23.7433" height="0.65641" fill="black" fill-opacity="0" transform="translate(94.0049 42.0339)"/>
<path d="M117.748 42.0724C117.749 42.097 117.418 42.1314 116.818 42.1728C116.219 42.2141 115.35 42.2623 114.276 42.314C112.129 42.4177 109.161 42.5363 105.881 42.6454C102.602 42.6824 99.6336 42.6961 97.4844 42.6882C96.4097 42.6841 95.5401 42.675 94.9389 42.6603C94.3378 42.6459 94.0052 42.6261 94.0049 42.6015C94.0047 42.5769 94.3366 42.5495 94.9373 42.5214C95.5379 42.4932 96.4073 42.4641 97.4815 42.4359C99.63 42.3791 102.598 42.3257 105.877 42.2884C109.153 42.1794 112.119 42.1008 114.268 42.0617C115.342 42.0422 116.211 42.0326 116.813 42.0341C117.414 42.0354 117.747 42.0478 117.748 42.0724Z" fill="#628D9D"/>
<g opacity="0.5">
<rect width="123.385" height="72.7914" fill="black" fill-opacity="0" transform="translate(47.7665 16.4644)"/>
<path opacity="0.5" d="M167.192 51.5586L105.071 45.3189L82.9958 16.778C72.8122 16.5716 63.8309 16.4408 59.0268 16.4679L47.7665 51.317C68.9451 52.9084 91.1653 53.8888 112.378 52.8516C112.551 64.8394 113.017 76.8237 113.775 88.7886C124.167 87.7476 160.206 90.1813 171.151 88.8424L167.192 51.5586Z" fill="#407081"/>
</g>
<rect width="48.1147" height="50.7812" fill="black" fill-opacity="0" transform="translate(116.831 27.3899)"/>
<rect width="3.93897" height="25.8432" fill="black" fill-opacity="0" transform="translate(121.328 52.292)"/>
<path d="M124.693 52.292L121.49 52.8624C121.226 60.94 121.308 77.8131 121.569 78.0169C121.569 78.0169 124.274 78.1468 125.267 78.1343C125.076 69.52 124.884 60.9055 124.693 52.292Z" fill="#CCC394"/>
<path d="M124.693 52.292L125.267 78.1343L155.773 78.1711L156.006 52.292H124.693Z" fill="#F1ECBD"/>
<path d="M156.006 52.292L159.764 52.6596V78.1711H155.773L156.006 52.292Z" fill="#CCC394"/>
<rect width="28.7372" height="23.8032" fill="black" fill-opacity="0" transform="translate(125.981 53.3293)"/>
<path d="M134.593 59.926C136.405 59.8756 138.341 59.8226 140.361 59.767C140.367 59.3343 140.373 58.9045 140.38 58.4905C140.401 56.5573 140.388 54.8209 140.326 53.3293H134.043C134.25 55.1545 134.448 57.4092 134.593 59.926Z" fill="#8D7E9B"/>
<path d="M140.828 77.1171C140.651 74.0095 140.491 69.8506 140.39 65.2606C140.341 63.8084 140.338 62.4061 140.348 61.0598C138.351 61.1093 136.439 61.1306 134.657 61.13C134.697 61.95 134.732 62.7869 134.757 63.6461C134.945 69.5379 134.72 74.6241 134.45 77.1089L140.828 77.1171Z" fill="#8D7E9B"/>
<path d="M141.269 53.3293C141.433 54.8259 141.532 56.5642 141.572 58.4832C141.579 58.8903 141.584 59.3107 141.588 59.7333C143.681 59.6623 145.687 59.5957 147.578 59.5335C147.571 57.1843 147.585 55.081 147.619 53.3293H141.269Z" fill="#8D7E9B"/>
<path d="M148.821 60.6909C148.866 62.3285 148.905 64.0637 148.936 65.862C149.008 70.137 149.02 74.0572 148.981 77.1262L154.504 77.1325L154.655 60.2361C152.97 60.3981 151.003 60.555 148.821 60.6909Z" fill="#8D7E9B"/>
<path d="M148.785 59.4927C150.949 59.42 152.925 59.3533 154.664 59.2957L154.718 53.3293H148.536C148.628 55.0706 148.714 57.159 148.785 59.4927Z" fill="#8D7E9B"/>
<path d="M133.463 63.6855C133.437 62.8113 133.41 61.9597 133.381 61.1256C131.426 61.1132 129.644 61.0751 128.128 61.0178C127.402 60.9894 126.75 60.9585 126.149 60.925L126.508 77.0989L133.867 77.1075C133.715 74.6267 133.651 69.5523 133.463 63.6855Z" fill="#8D7E9B"/>
<path d="M128.131 60.103C129.677 60.0606 131.435 60.0122 133.34 59.9595C133.251 57.4317 133.161 55.1647 133.101 53.3296H125.981L126.132 60.1714C126.739 60.1484 127.398 60.1248 128.131 60.103Z" fill="#8D7E9B"/>
<path d="M147.978 77.1249C147.836 74.0607 147.714 70.1492 147.641 65.885C147.611 64.1039 147.592 62.3875 147.583 60.7644C145.704 60.8714 143.701 60.9624 141.612 61.0261C141.609 61.0261 141.605 61.0261 141.602 61.0271C141.617 62.385 141.635 63.7949 141.684 65.2555C141.786 69.8442 141.812 74.0069 141.773 77.118L147.978 77.1249Z" fill="#8D7E9B"/>
<rect width="2.11749" height="24.5506" fill="black" fill-opacity="0" transform="translate(122.238 52.938)"/>
<rect width="2.11749" height="15.9622" fill="black" fill-opacity="0" transform="translate(122.238 61.5264)"/>
<path d="M123.71 61.6666C123.195 61.8245 122.704 61.97 122.245 62.0973C122.219 69.4242 122.27 77.2418 122.368 77.3757C122.368 77.3757 123.822 77.4997 124.356 77.4878C124.289 72.1674 124.222 66.847 124.156 61.5264C124.007 61.5735 123.863 61.6202 123.71 61.6666Z" fill="#7C6C88"/>
<rect width="1.88889" height="7.86737" fill="black" fill-opacity="0" transform="translate(122.25 52.938)"/>
<path d="M123.328 60.4301C123.604 60.3449 123.875 60.2699 124.139 60.202C124.108 57.7805 124.078 55.359 124.048 52.938L122.325 53.4805C122.288 55.4916 122.264 58.0799 122.25 60.8054C122.592 60.6753 122.947 60.5478 123.328 60.4301Z" fill="#7C6C88"/>
<rect width="2.2136" height="24.5871" fill="black" fill-opacity="0" transform="translate(156.662 52.9382)"/>
<path d="M158.114 59.9479C158.377 59.9961 158.63 60.0501 158.875 60.1081V53.2868L156.789 52.9382L156.754 59.7605C157.178 59.7996 157.635 59.8594 158.114 59.9479Z" fill="#7C6C88"/>
<path d="M157.879 61.2203C157.481 61.1467 157.105 61.0679 156.748 60.9883L156.662 77.5255H158.876V61.3851C158.556 61.3361 158.226 61.2834 157.879 61.2203Z" fill="#7C6C88"/>
<path opacity="0.5" d="M130.875 52.292H124.693L121.49 52.8624C121.226 60.94 121.308 77.8131 121.569 78.0169C121.569 78.0169 124.274 78.1468 125.267 78.1343L143.67 78.1569L130.875 52.292Z" fill="#FFFAE2" fill-opacity="0.46"/>
<rect width="48.1147" height="27.5385" fill="black" fill-opacity="0" transform="translate(116.831 27.3899)"/>
<rect width="47.8996" height="25.6266" fill="black" fill-opacity="0" transform="translate(116.994 27.3899)"/>
<path d="M149.085 37.157C146.243 34.2566 142.319 29.8028 139.053 27.3899C137.958 29.6466 120.746 48.0234 116.994 52.5855C132.923 53.6353 164.893 52.4372 164.893 52.4372C164.893 52.4372 154.177 42.3526 149.085 37.157Z" fill="#628D9D"/>
<rect width="34.9691" height="20.2597" fill="black" fill-opacity="0" transform="translate(121.906 30.4846)"/>
<rect width="34.9691" height="20.2597" fill="black" fill-opacity="0" transform="translate(121.906 30.4846)"/>
<rect width="34.9691" height="20.2597" fill="black" fill-opacity="0" transform="translate(121.906 30.4846)"/>
<rect width="34.9691" height="20.2597" fill="black" fill-opacity="0" transform="translate(121.906 30.4846)"/>
<path d="M156.874 48.3724C156.865 48.38 156.743 48.2585 156.52 48.0194C156.293 47.7707 155.97 47.416 155.557 46.9627C155.141 46.4975 154.634 45.9314 154.047 45.2747C153.455 44.6196 152.809 43.8473 152.027 43.0543C151.258 42.2475 150.416 41.364 149.512 40.4147C149.286 40.1772 149.057 39.9353 148.823 39.6896C148.706 39.5667 148.588 39.4429 148.47 39.3182C148.346 39.198 148.222 39.0768 148.097 38.9549C147.596 38.4663 147.081 37.9633 146.552 37.4474C146.024 36.9309 145.482 36.4013 144.929 35.86C144.652 35.5892 144.372 35.3154 144.09 35.0388C143.797 34.7731 143.501 34.5046 143.203 34.2339C142.01 33.1503 140.773 32.0274 139.504 30.8751C139.587 30.869 139.672 30.8626 139.757 30.8563C139.539 31.1131 139.319 31.3715 139.099 31.6311C134.522 37.0572 130.277 41.8885 127.133 45.3229C126.938 45.5384 126.747 45.7488 126.561 45.9539C126.371 46.1542 126.185 46.3492 126.004 46.5391C125.643 46.9176 125.301 47.2748 124.982 47.6092C124.343 48.2732 123.792 48.8465 123.339 49.3175C122.889 49.7767 122.536 50.1357 122.29 50.3874C122.047 50.6293 121.915 50.7523 121.906 50.7439C121.897 50.7355 122.011 50.5961 122.237 50.3383C122.472 50.0756 122.808 49.7011 123.237 49.2225C123.678 48.7397 124.215 48.1528 124.836 47.4726C125.149 47.1323 125.484 46.7688 125.838 46.3837C126.016 46.191 126.199 45.993 126.386 45.7896C126.569 45.582 126.756 45.369 126.948 45.151C130.04 41.6786 134.249 36.8265 138.826 31.4001C139.047 31.1408 139.267 30.8824 139.485 30.6256L139.605 30.4846L139.739 30.6068C141.008 31.7639 142.246 32.8917 143.44 33.9801C143.738 34.2526 144.033 34.5226 144.326 34.7899C144.607 35.0682 144.887 35.3438 145.163 35.6166C145.714 36.162 146.254 36.6957 146.781 37.2164C147.307 37.7372 147.82 38.2447 148.318 38.7379C148.442 38.8611 148.566 38.9835 148.688 39.105C148.806 39.231 148.923 39.356 149.039 39.48C149.271 39.7284 149.498 39.9728 149.722 40.2132C150.617 41.1746 151.449 42.0695 152.209 42.8869C152.981 43.6919 153.615 44.4768 154.194 45.1454C154.764 45.8178 155.256 46.3976 155.66 46.8745C156.052 47.3463 156.359 47.7152 156.574 47.9743C156.78 48.2279 156.883 48.3648 156.874 48.3724Z" fill="#407081"/>
<rect width="9.80317" height="0.420302" fill="black" fill-opacity="0" transform="translate(135.493 38.5532)"/>
<rect width="9.80317" height="0.420302" fill="black" fill-opacity="0" transform="translate(135.493 38.5532)"/>
<rect width="9.80317" height="0.420302" fill="black" fill-opacity="0" transform="translate(135.493 38.5532)"/>
<rect width="9.80317" height="0.420302" fill="black" fill-opacity="0" transform="translate(135.493 38.5532)"/>
<path d="M145.296 38.7306C145.301 38.829 143.103 38.9383 140.387 38.9735C137.681 38.8833 135.489 38.7304 135.493 38.6318C135.496 38.5331 137.693 38.5265 140.399 38.6168C143.098 38.5808 145.291 38.6323 145.296 38.7306Z" fill="#407081"/>
<rect width="13.1416" height="0.438551" fill="black" fill-opacity="0" transform="translate(133.193 41.9377)"/>
<rect width="13.1416" height="0.438551" fill="black" fill-opacity="0" transform="translate(133.193 41.9377)"/>
<rect width="13.1416" height="0.438551" fill="black" fill-opacity="0" transform="translate(133.193 41.9377)"/>
<rect width="13.1416" height="0.438551" fill="black" fill-opacity="0" transform="translate(133.193 41.9377)"/>
<path d="M146.335 42.2844C146.334 42.3335 145.597 42.364 144.408 42.3733C143.218 42.3825 141.575 42.3706 139.76 42.3353C137.946 42.3003 136.304 42.2484 135.115 42.1931C133.927 42.1378 133.192 42.0787 133.193 42.0296C133.194 41.9804 133.931 41.9499 135.12 41.9408C136.31 41.9314 137.953 41.9434 139.767 41.9786C141.582 42.0136 143.224 42.0656 144.413 42.1208C145.601 42.1761 146.336 42.2352 146.335 42.2844Z" fill="#407081"/>
<rect width="22.2451" height="0.368224" fill="black" fill-opacity="0" transform="translate(130.197 45.5728)"/>
<rect width="22.2451" height="0.368224" fill="black" fill-opacity="0" transform="translate(130.197 45.5728)"/>
<rect width="22.2451" height="0.368224" fill="black" fill-opacity="0" transform="translate(130.197 45.5728)"/>
<rect width="22.2451" height="0.368224" fill="black" fill-opacity="0" transform="translate(130.197 45.5728)"/>
<path d="M152.442 45.7119C152.443 45.7365 152.131 45.7613 151.569 45.7849C151.006 45.8085 150.192 45.831 149.185 45.8513C147.172 45.8916 144.392 45.9228 141.32 45.9355C138.249 45.9477 135.469 45.939 133.456 45.915C132.449 45.9028 131.635 45.8868 131.072 45.8678C130.509 45.8488 130.197 45.8265 130.197 45.8019C130.197 45.7773 130.508 45.7524 131.071 45.7289C131.634 45.7053 132.448 45.6827 133.455 45.6624C135.467 45.6221 138.248 45.5907 141.319 45.5785C144.391 45.5658 147.171 45.5747 149.184 45.5988C150.191 45.611 151.005 45.6269 151.568 45.646C152.131 45.665 152.442 45.6873 152.442 45.7119Z" fill="#407081"/>
<rect width="30.0802" height="0.682615" fill="black" fill-opacity="0" transform="translate(130.201 48.3147)"/>
<rect width="30.0802" height="0.682615" fill="black" fill-opacity="0" transform="translate(130.201 48.3147)"/>
<rect width="30.0802" height="0.682615" fill="black" fill-opacity="0" transform="translate(130.201 48.3147)"/>
<rect width="30.0802" height="0.682615" fill="black" fill-opacity="0" transform="translate(130.201 48.3147)"/>
<path d="M160.282 48.6142C160.281 48.6388 159.859 48.6548 159.098 48.6626C158.336 48.6705 157.234 48.6705 155.874 48.6624C153.152 48.6162 149.392 48.6705 145.24 48.6748C141.09 48.7691 137.331 48.8043 134.609 48.9154C133.249 48.9557 132.147 48.9823 131.386 48.9925C130.624 49.0029 130.202 48.9968 130.201 48.9722C130.2 48.9476 130.62 48.9068 131.38 48.8538C132.139 48.8008 133.239 48.7359 134.599 48.6631C137.316 48.4877 141.079 48.4121 145.236 48.3178C149.392 48.3132 153.155 48.2993 155.878 48.4101C157.239 48.4504 158.34 48.4889 159.101 48.5239C159.862 48.5587 160.282 48.5896 160.282 48.6142Z" fill="#407081"/>
<rect width="48.1147" height="2.49121" fill="black" fill-opacity="0" transform="translate(116.831 52.437)"/>
<path d="M164.893 52.437L116.831 52.6708C116.983 53.4243 117.135 54.1757 117.287 54.9282C133.174 54.9115 149.06 54.9006 164.946 54.897C164.929 54.0771 164.911 53.2572 164.893 52.437Z" fill="#CCC394"/>
<rect width="71.0229" height="87.5695" fill="black" fill-opacity="0" transform="translate(15.5605 49.437)"/>
<rect width="69.6637" height="85.6507" fill="black" fill-opacity="0" transform="translate(16.326 49.437)"/>
<path d="M85.9897 49.437L17.9476 51.1742C18.2758 78.6886 17.735 106.212 16.326 133.692C39.3393 133.521 62.3565 133.986 85.3434 135.088C84.3018 105.196 85.9897 49.437 85.9897 49.437Z" fill="#96492D"/>
<rect width="56.5142" height="14.0259" fill="black" fill-opacity="0" transform="translate(23.197 79.5908)"/>
<rect width="56.5142" height="14.0259" fill="black" fill-opacity="0" transform="translate(23.197 79.5908)"/>
<path d="M23.4818 80.7028C23.4818 80.7028 22.841 85.1346 23.4818 92.717C41.1541 92.5775 79.7112 93.6168 79.7112 93.6168C79.7112 93.6168 79.2647 88.1546 79.7112 79.5908L23.4818 80.7028Z" fill="#822C0C"/>
<path d="M35.7994 85.3244L25.6558 84.6049V81.4434H35.2089L35.7994 85.3244Z" fill="#96492D"/>
<path d="M41.9709 90.4551L31.8273 89.7358V86.5737H41.3793L41.9709 90.4551Z" fill="#96492D"/>
<path d="M77.5255 91.5832L67.3819 90.8647V87.7017H76.9349L77.5255 91.5832Z" fill="#96492D"/>
<path d="M45.8471 85.3244L36.8994 84.6049V81.4434H45.3255L45.8471 85.3244Z" fill="#96492D"/>
<rect width="56.5142" height="14.0264" fill="black" fill-opacity="0" transform="translate(23.197 122.98)"/>
<rect width="56.5142" height="14.0264" fill="black" fill-opacity="0" transform="translate(23.197 122.98)"/>
<path d="M23.4818 124.092C23.4818 124.092 22.841 128.524 23.4818 136.106C41.1541 135.967 79.7112 137.006 79.7112 137.006C79.7112 137.006 79.2647 131.544 79.7112 122.98L23.4818 124.092Z" fill="#822C0C"/>
<path d="M66.8801 129.634L56.736 128.914V125.752H66.2895L66.8801 129.634Z" fill="#96492D"/>
<path d="M73.0516 134.764L62.9075 134.044V130.882H72.46L73.0516 134.764Z" fill="#96492D"/>
<path d="M76.9288 129.634L67.9796 128.914V125.752H76.4073L76.9288 129.634Z" fill="#96492D"/>
<rect width="20.1923" height="9.01142" fill="black" fill-opacity="0" transform="translate(65.244 101.245)"/>
<path d="M75.3881 105.127L65.244 104.407V101.245H74.7975L75.3881 105.127Z" fill="#822C0C"/>
<path d="M81.5586 110.257L71.4155 109.537V106.375H80.968L81.5586 110.257Z" fill="#822C0C"/>
<path d="M85.4363 105.127L76.4875 104.407V101.245H84.9142L85.4363 105.127Z" fill="#822C0C"/>
<rect width="20.1918" height="9.01157" fill="black" fill-opacity="0" transform="translate(15.5604 110.143)"/>
<path d="M25.6086 115.273L35.7522 115.993V119.155H26.1992L25.6086 115.273Z" fill="#822C0C"/>
<path d="M19.4366 110.143L29.5807 110.862V114.024H20.0282L19.4366 110.143Z" fill="#822C0C"/>
<path d="M15.5604 115.273L24.5087 115.993V119.155H16.081L15.5604 115.273Z" fill="#822C0C"/>
<rect width="20.1923" height="9.012" fill="black" fill-opacity="0" transform="translate(66.3911 55.7302)"/>
<path d="M76.4393 60.8604L86.5834 61.5796V64.7422H77.0308L76.4393 60.8604Z" fill="#822C0C"/>
<path d="M70.2682 55.7302L80.4123 56.449V59.6118H70.8593L70.2682 55.7302Z" fill="#822C0C"/>
<path d="M66.3911 60.8604L75.3403 61.5796V64.7422H66.9126L66.3911 60.8604Z" fill="#822C0C"/>
<rect width="14.0213" height="9.01207" fill="black" fill-opacity="0" transform="translate(17.3032 67.272)"/>
<path d="M21.181 67.272L31.3246 67.9915V71.1531H21.7715L21.181 67.272Z" fill="#822C0C"/>
<path d="M17.3032 72.4028L26.2525 73.1213V76.2839H17.8248L17.3032 72.4028Z" fill="#822C0C"/>
<rect width="38.4356" height="25.8791" fill="black" fill-opacity="0" transform="translate(32.3873 95.6816)"/>
<rect width="3.93832" height="25.8429" fill="black" fill-opacity="0" transform="translate(32.3873 95.6816)"/>
<path d="M35.7523 95.6816L32.5493 96.2526C32.285 104.33 32.3672 121.203 32.629 121.407C32.629 121.407 35.3322 121.536 36.3256 121.524C36.1348 112.909 35.943 104.296 35.7523 95.6816Z" fill="#CCC394"/>
<path d="M35.7523 95.6816L36.3256 121.524L66.8325 121.561L67.0658 95.6816H35.7523Z" fill="#F1ECBD"/>
<path d="M67.0658 95.6816L70.8228 96.0498V121.561H66.8325L67.0658 95.6816Z" fill="#CCC394"/>
<rect width="28.7372" height="23.8017" fill="black" fill-opacity="0" transform="translate(37.04 96.7205)"/>
<path d="M45.6523 103.315C47.4641 103.265 49.4002 103.211 51.4205 103.157C51.4266 102.725 51.4327 102.295 51.4398 101.88C51.46 99.9472 51.4464 98.2102 51.385 96.7205H45.1024C45.3089 98.5451 45.5082 100.799 45.6523 103.315Z" fill="#8D7E9B"/>
<path d="M51.8878 120.506C51.7107 117.4 51.5509 113.241 51.4489 108.651C51.4007 107.198 51.3971 105.796 51.4078 104.45C49.4108 104.499 47.4991 104.521 45.7163 104.521C45.7558 105.34 45.7913 106.176 45.8167 107.036C46.0039 112.928 45.7792 118.015 45.5098 120.499L51.8878 120.506Z" fill="#8D7E9B"/>
<path d="M52.3286 96.7205C52.4925 98.2155 52.5914 99.954 52.6315 101.873C52.6386 102.28 52.6427 102.701 52.6472 103.123C54.7406 103.053 56.7467 102.986 58.6371 102.923C58.63 100.574 58.6447 98.4706 58.6782 96.7205H52.3286Z" fill="#8D7E9B"/>
<path d="M59.8801 104.081C59.9258 105.718 59.9649 107.453 59.9958 109.252C60.0673 113.526 60.0795 117.447 60.0399 120.516L65.5635 120.522L65.7147 103.626C64.0303 103.787 62.0628 103.945 59.8801 104.081Z" fill="#8D7E9B"/>
<path d="M59.8447 102.882C62.0085 102.809 63.9847 102.744 65.7234 102.685L65.7772 96.7205H59.595C59.6874 98.4602 59.7721 100.549 59.8447 102.882Z" fill="#8D7E9B"/>
<path d="M44.5224 107.076C44.4966 106.201 44.4692 105.35 44.4408 104.516C42.4849 104.504 40.7031 104.465 39.1871 104.407C38.4615 104.38 37.8096 104.349 37.2084 104.316L37.5671 120.489L44.9268 120.497C44.7746 118.016 44.7102 112.942 44.5224 107.076Z" fill="#8D7E9B"/>
<path d="M39.1907 103.494C40.7361 103.45 42.4946 103.402 44.4002 103.35C44.3104 100.821 44.2201 98.554 44.1612 96.7205H37.04L37.1922 103.561C37.7985 103.538 38.4575 103.515 39.1907 103.494Z" fill="#8D7E9B"/>
<path d="M59.0369 120.514C58.8948 117.45 58.7736 113.539 58.701 109.274C58.6706 107.493 58.6518 105.777 58.6422 104.155C56.7634 104.262 54.7609 104.353 52.6721 104.417C52.6685 104.417 52.665 104.417 52.6614 104.417C52.6762 105.775 52.6944 107.185 52.7431 108.645C52.8456 113.233 52.8715 117.398 52.8329 120.507L59.0369 120.514Z" fill="#8D7E9B"/>
<rect width="2.11781" height="24.551" fill="black" fill-opacity="0" transform="translate(33.2975 96.3276)"/>
<rect width="2.11781" height="15.9626" fill="black" fill-opacity="0" transform="translate(33.2975 104.916)"/>
<path d="M34.769 105.058C34.2535 105.215 33.7629 105.36 33.3042 105.488C33.2784 112.814 33.3291 120.632 33.4275 120.766C33.4275 120.766 34.8816 120.889 35.4154 120.878C35.3489 115.557 35.2814 110.236 35.215 104.916C35.0663 104.963 34.9217 105.01 34.769 105.058Z" fill="#7C6C88"/>
<rect width="1.88889" height="7.86763" fill="black" fill-opacity="0" transform="translate(33.3096 96.3276)"/>
<path d="M34.3878 103.821C34.6643 103.735 34.9342 103.66 35.1985 103.592C35.1681 101.172 35.1371 98.7489 35.1072 96.3276L33.3847 96.8705C33.3477 98.882 33.3233 101.47 33.3096 104.195C33.6516 104.065 34.0067 103.938 34.3878 103.821Z" fill="#7C6C88"/>
<rect width="2.2136" height="24.5876" fill="black" fill-opacity="0" transform="translate(67.7214 96.3276)"/>
<path d="M69.1728 103.338C69.4361 103.385 69.6903 103.44 69.9343 103.498V96.6775L67.8496 96.3276L67.8141 103.151C68.2382 103.19 68.6949 103.249 69.1728 103.338Z" fill="#7C6C88"/>
<path d="M68.9395 104.61C68.5407 104.536 68.1653 104.458 67.8076 104.378L67.7213 120.915H69.9349V104.775C69.6153 104.727 69.2855 104.673 68.9395 104.61Z" fill="#7C6C88"/>
<rect width="38.4356" height="25.8791" fill="black" fill-opacity="0" transform="translate(32.3873 52.292)"/>
<rect width="3.93832" height="25.8432" fill="black" fill-opacity="0" transform="translate(32.3873 52.2922)"/>
<path d="M35.7523 52.2922L32.5493 52.8627C32.285 60.9402 32.3672 77.8133 32.629 78.0172C32.629 78.0172 35.3322 78.147 36.3256 78.1346C36.1348 69.5203 35.943 60.9058 35.7523 52.2922Z" fill="#CCC394"/>
<path d="M35.7523 52.292L36.3256 78.1343L66.8325 78.1711L67.0658 52.292H35.7523Z" fill="#F1ECBD"/>
<path d="M67.0658 52.292L70.8228 52.6596V78.1711H66.8325L67.0658 52.292Z" fill="#CCC394"/>
<rect width="28.7372" height="23.8032" fill="black" fill-opacity="0" transform="translate(37.04 53.3296)"/>
<path d="M45.6523 59.9263C47.4641 59.8758 49.4002 59.8228 51.4205 59.7673C51.4266 59.3345 51.4327 58.9048 51.4398 58.4908C51.46 56.5576 51.4464 54.8211 51.385 53.3296H45.1024C45.3089 55.1548 45.5082 57.4094 45.6523 59.9263Z" fill="#8D7E9B"/>
<path d="M51.8878 77.1173C51.7107 74.0097 51.5509 69.8508 51.4489 65.2608C51.4007 63.8086 51.3971 62.4063 51.4078 61.0601C49.4108 61.1095 47.4991 61.1308 45.7163 61.1303C45.7558 61.9502 45.7913 62.7871 45.8167 63.6463C46.0039 69.5382 45.7792 74.6243 45.5098 77.1092L51.8878 77.1173Z" fill="#8D7E9B"/>
<path d="M52.3286 53.3296C52.4925 54.8262 52.5914 56.5644 52.6315 58.4834C52.6386 58.8906 52.6427 59.3109 52.6472 59.7336C54.7406 59.6626 56.7467 59.5959 58.6371 59.5338C58.63 57.1846 58.6447 55.0812 58.6782 53.3296H52.3286Z" fill="#8D7E9B"/>
<path d="M59.8801 60.6912C59.9258 62.3287 59.9649 64.0639 59.9958 65.8622C60.0673 70.1373 60.0795 74.0574 60.0399 77.1264L65.5635 77.1328L65.7147 60.2363C64.0303 60.3983 62.0628 60.5553 59.8801 60.6912Z" fill="#8D7E9B"/>
<path d="M59.8447 59.493C62.0085 59.4202 63.9847 59.3535 65.7234 59.296L65.7772 53.3296H59.595C59.6874 55.0709 59.7721 57.1592 59.8447 59.493Z" fill="#8D7E9B"/>
<path d="M44.5224 63.6858C44.4966 62.8116 44.4692 61.96 44.4408 61.1258C42.4849 61.1134 40.7031 61.0754 39.1871 61.0181C38.4615 60.9897 37.8096 60.9588 37.2084 60.9253L37.5671 77.0992L44.9268 77.1078C44.7746 74.627 44.7102 69.5525 44.5224 63.6858Z" fill="#8D7E9B"/>
<path d="M39.1907 60.103C40.7361 60.0606 42.4946 60.0122 44.4002 59.9595C44.3104 57.4317 44.2201 55.1647 44.1612 53.3296H37.04L37.1922 60.1714C37.7985 60.1484 38.4575 60.1248 39.1907 60.103Z" fill="#8D7E9B"/>
<path d="M59.0369 77.1251C58.8948 74.0609 58.7736 70.1494 58.701 65.8852C58.6706 64.1042 58.6518 62.3878 58.6422 60.7646C56.7634 60.8716 54.7609 60.9627 52.6721 61.0263C52.6685 61.0263 52.665 61.0263 52.6614 61.0273C52.6762 62.3852 52.6944 63.7951 52.7431 65.2557C52.8456 69.8444 52.8715 74.0072 52.8329 77.1183L59.0369 77.1251Z" fill="#8D7E9B"/>
<rect width="2.11781" height="24.5506" fill="black" fill-opacity="0" transform="translate(33.2975 52.9382)"/>
<rect width="2.11781" height="15.9622" fill="black" fill-opacity="0" transform="translate(33.2975 61.5266)"/>
<path d="M34.769 61.6668C34.2535 61.8248 33.7629 61.9703 33.3042 62.0976C33.2784 69.4244 33.3291 77.2421 33.4275 77.376C33.4275 77.376 34.8816 77.4999 35.4154 77.488C35.3489 72.1676 35.2814 66.8472 35.215 61.5266C35.0663 61.5738 34.9217 61.6204 34.769 61.6668Z" fill="#7C6C88"/>
<rect width="1.88889" height="7.86737" fill="black" fill-opacity="0" transform="translate(33.3096 52.9382)"/>
<path d="M34.3878 60.4304C34.6643 60.3452 34.9342 60.2701 35.1985 60.2022C35.1681 57.7807 35.1371 55.3592 35.1072 52.9382L33.3847 53.4808C33.3477 55.4918 33.3233 58.0801 33.3096 60.8056C33.6516 60.6755 34.0067 60.548 34.3878 60.4304Z" fill="#7C6C88"/>
<rect width="2.2136" height="24.5871" fill="black" fill-opacity="0" transform="translate(67.7214 52.9382)"/>
<path d="M69.1728 59.9479C69.4361 59.9961 69.6903 60.0501 69.9343 60.1081V53.2868L67.8496 52.9382L67.8141 59.7605C68.2382 59.7996 68.6949 59.8594 69.1728 59.9479Z" fill="#7C6C88"/>
<path d="M68.9395 61.2203C68.5407 61.1467 68.1653 61.0679 67.8076 60.9883L67.7213 77.5255H69.9349V61.3851C69.6153 61.3361 69.2855 61.2834 68.9395 61.2203Z" fill="#7C6C88"/>
<rect width="77.5896" height="63.7075" fill="black" fill-opacity="0" transform="translate(12.7264 0.576416)"/>
<rect width="53.1989" height="18.9651" fill="black" fill-opacity="0" transform="translate(24.6726 45.3188)"/>
<rect width="6.60025" height="17.489" fill="black" fill-opacity="0" transform="translate(24.6727 46.7949)"/>
<path d="M25.1121 53.9177C24.8137 57.2189 24.5164 60.5367 24.7661 63.8422C24.7757 63.9639 24.7904 64.097 24.8762 64.1852C24.9868 64.2978 25.1679 64.2902 25.3252 64.276C26.866 64.1254 28.4069 63.9766 29.9477 63.8273C30.5966 58.1679 31.039 52.486 31.2729 46.7949L25.7529 46.803C25.5393 49.1746 25.3252 51.5461 25.1121 53.9177Z" fill="#F1ECBD"/>
<rect width="5.06285" height="16.7462" fill="black" fill-opacity="0" transform="translate(72.8087 45.3188)"/>
<path d="M77.5941 47.1605C77.5672 46.8106 77.21 46.3416 76.9954 46.6197L72.8087 45.3188C72.8229 50.3155 72.8366 55.3106 72.8493 60.3069C72.8513 60.7428 72.8635 61.2138 73.1258 61.5624C73.5459 62.1184 74.3714 62.1002 75.0649 62.0294C75.6895 61.9656 76.3146 61.9004 76.9401 61.836C77.135 61.8157 77.3485 61.7858 77.4784 61.64C77.5906 61.513 77.6088 61.3302 77.622 61.1613C77.964 56.5022 77.9543 51.8169 77.5941 47.1605Z" fill="#F1ECBD"/>
<rect width="68.0422" height="45.7888" fill="black" fill-opacity="0" transform="translate(17.9476 5.3855)"/>
<path d="M62.8533 20.5338C60.3094 17.2346 54.9852 8.90124 52.7513 5.3855C41.7473 17.606 17.9476 51.1743 17.9476 51.1743L85.9898 49.4371C85.9898 49.4371 65.0248 23.3488 62.8533 20.5338Z" fill="#822C0C"/>
<rect width="77.5896" height="51.3342" fill="black" fill-opacity="0" transform="translate(12.7264 0.576416)"/>
<path d="M53.1699 0.576416C44.768 11.0022 35.0942 22.4178 26.6914 32.8418C21.7441 38.9805 16.7789 45.1444 12.7264 51.9067C14.3223 51.9761 17.8431 51.106 19.4397 51.1742C21.1825 46.9394 47.7376 14.3978 52.3327 5.97869C57.1592 13.1141 80.3419 43.2673 82.8041 49.9169C85.3084 49.8414 87.8122 49.7658 90.316 49.6923C78.1922 33.9558 65.2942 16.3127 53.1699 0.576416Z" fill="#F1ECBD"/>
<path d="M40.768 42.2248L30.6245 41.5061V38.3433H40.177L40.768 42.2248Z" fill="#96492D"/>
<path d="M46.9395 47.3557L36.7954 46.6357V43.4741H46.3479L46.9395 47.3557Z" fill="#96492D"/>
<path d="M50.8157 42.2248L41.8665 41.5061V38.3433H50.2942L50.8157 42.2248Z" fill="#96492D"/>
<path d="M59.9289 24.9746L49.7848 24.2543V21.0925H59.3368L59.9289 24.9746Z" fill="#96492D"/>
<path d="M66.0994 30.1052L55.9553 29.3847V26.2231H65.5083L66.0994 30.1052Z" fill="#96492D"/>
<path opacity="0.5" d="M53.1699 0.576416C44.768 11.0022 35.0942 22.4178 26.6914 32.8418C21.7441 38.9805 16.7789 45.1444 12.7264 51.9067C12.943 51.9163 13.1997 51.9061 13.4778 51.8854L17.9522 51.7578C18.0313 58.659 18.0557 65.5594 18.0262 72.4605L17.3032 72.4027L17.8248 76.2838H17.9963C17.9009 89.3261 17.6143 102.366 17.1287 115.399L15.5605 115.273L16.081 119.155H16.9811C16.7868 124.002 16.5752 128.848 16.3261 133.692C18.6554 133.675 20.9836 133.668 23.3124 133.665C23.355 134.439 23.4093 135.249 23.4818 136.106C28.2586 136.068 34.5656 136.116 41.2206 136.208L35.1982 51.1742L61.8452 11.9651C58.9248 8.09899 56.0242 4.28205 53.1699 0.576416Z" fill="black" fill-opacity="0.37"/>
<rect width="60.5801" height="29.3398" fill="black" fill-opacity="0" transform="translate(18.305 109.224)"/>
<rect width="14.876" height="27.8861" fill="black" fill-opacity="0" transform="translate(18.305 109.224)"/>
<path d="M33.0653 131.82C32.799 130.961 31.8263 130.26 30.9988 130.613C31.8948 129.713 32.8507 128.674 32.8614 127.404C32.8705 126.134 31.2469 124.948 30.3124 125.809C30.7269 125.077 31.075 124.248 30.9461 123.417C30.8177 122.586 30.042 121.81 29.2145 121.96C30.665 120.692 30.3718 117.986 28.6843 117.055C29.2343 116.155 29.5316 115.102 29.5341 114.047C29.5351 113.565 29.4443 113.024 29.0536 112.739C28.7513 112.518 28.254 112.626 28.0734 112.908C28.3205 111.793 27.9542 110.554 27.114 109.777C26.7802 109.468 26.3565 109.222 25.9019 109.224C25.0694 109.227 24.4402 110.075 24.3738 110.904C24.3083 111.733 24.6513 112.533 24.9882 113.294C23.4971 113.032 22.1617 114.519 22.0004 116.022C21.838 117.527 22.4971 118.983 23.1399 120.354C22.8953 119.757 22.0237 119.641 21.4823 119.993C20.9415 120.346 20.6782 120.997 20.5321 121.625C20.0354 123.754 20.563 126.097 21.9232 127.807C21.1394 126.968 19.5904 127.883 19.4651 129.024C19.3393 130.166 20.0719 131.205 20.7675 132.119C20.3672 131.329 19.0506 131.489 18.5828 132.241C18.1135 132.992 18.3002 133.985 18.6888 134.782C19.0775 135.578 19.6483 136.282 19.9618 137.11L31.9593 136.127C32.4397 135.713 32.6533 135.075 32.8345 134.466C33.0917 133.605 33.3302 132.68 33.0653 131.82Z" fill="#79A958"/>
<rect width="29.5013" height="24.1328" fill="black" fill-opacity="0" transform="translate(31.7605 113.888)"/>
<path d="M61.1298 130.697C60.8 130.122 59.9572 130.143 59.3302 130.36C58.9775 130.482 58.6447 130.652 58.3286 130.846C58.6949 130.067 58.9715 129.247 59.1414 128.404C59.2764 127.734 59.2459 126.86 58.6188 126.586C58.1734 126.392 57.663 126.623 57.2515 126.882C56.3266 127.466 55.5295 128.231 54.8649 129.099C56.2013 126.622 57.0399 123.876 57.2835 121.071C55.0029 121.967 53.2256 123.974 52.5001 126.305C53.3286 122.4 53.9679 118.378 52.9643 114.545C49.8096 117.285 48.2114 121.706 48.8837 125.829C47.6751 122.152 47.633 118.077 45.77 114.685C45.6203 114.412 45.4458 114.133 45.1713 113.987C44.6756 113.724 44.0293 114.017 43.7208 114.485C43.4133 114.954 43.3616 115.541 43.3403 116.102C43.214 119.323 43.7903 122.569 45.0161 125.551C43.8842 123.521 42.7528 121.49 41.6214 119.459C40.8446 118.065 39.9182 116.547 38.3824 116.111C37.8796 117.248 38.2444 118.564 38.6391 119.742C39.633 122.708 40.7868 125.62 42.0947 128.462C40.8466 125.991 39.185 123.73 37.2013 121.799C36.8223 121.43 36.2951 121.046 35.8116 121.26C35.2358 121.515 35.2789 122.339 35.4423 122.947C36.2566 125.981 37.6827 128.848 39.6046 131.333C37.7533 129.15 35.5762 127.156 32.8197 126.538C32.4854 126.463 32.0734 126.437 31.8659 126.709C31.6508 126.991 31.8055 127.395 31.9699 127.71C33.8147 131.248 36.1409 134.536 38.8623 137.455L57.906 138.02C59.6823 136.37 60.873 134.103 61.2241 131.705C61.2733 131.364 61.3017 130.995 61.1298 130.697Z" fill="#579326"/>
<rect width="27.2815" height="12.4126" fill="black" fill-opacity="0" transform="translate(51.6036 126.152)"/>
<path d="M77.8472 131.027C76.8244 130.138 75.0501 130.18 74.2226 131.253C74.5362 130.747 74.8578 130.218 74.9279 129.627C74.9979 129.035 74.7391 128.36 74.1856 128.14C73.8736 128.015 73.523 128.052 73.1917 128.101C71.8984 128.294 70.6321 128.662 69.4383 129.193C69.6052 127.893 68.6387 126.549 67.3535 126.292C66.0674 126.035 64.6584 126.904 64.3114 128.168C63.9984 126.793 62.4159 125.855 61.0593 126.238C59.7016 126.62 58.8446 128.247 59.2977 129.583C58.4991 128.968 57.5341 128.501 56.526 128.526C55.5174 128.551 54.4844 129.168 54.1998 130.135C54.0039 130.805 54.2942 131.578 54.8228 131.999C53.7888 131.649 52.6934 131.481 51.6036 131.524C52.2008 134.699 54.5757 137.479 57.6204 138.564L75.8584 137.563C77.0923 137.002 78.1871 136.031 78.6585 134.762C79.1298 133.491 78.869 131.918 77.8472 131.027Z" fill="#79A958"/>
<g opacity="0.4">
<rect width="22.7909" height="31.3694" fill="black" fill-opacity="0" transform="translate(132.274 101.561)"/>
<path opacity="0.4" fill-rule="evenodd" clip-rule="evenodd" d="M151.605 117.083C152.862 117.632 153.943 118.25 154.548 119.446C155.816 121.949 154.636 125.798 152.274 127.305C150.692 128.314 148.961 128.226 147.248 128.301C145.764 128.366 145.762 128.288 145.594 129.731C145.493 130.617 145.371 131.502 145.297 132.391C145.262 132.809 145.156 132.996 144.687 132.91C144.112 132.805 143.525 132.751 142.941 132.721C142.482 132.696 142.409 132.508 142.471 132.08C142.629 130.976 142.717 129.863 142.86 128.757C142.923 128.276 142.885 128.007 142.28 127.938C140.681 127.755 140.684 127.721 140.5 129.339C140.405 130.17 140.305 131.001 140.227 131.834C140.19 132.231 140.082 132.388 139.612 132.351C137.333 132.168 137.347 132.188 137.583 129.894C137.667 129.076 138.153 128.022 137.673 127.503C137.249 127.046 136.154 127.205 135.353 127.106C134.495 126.999 133.635 126.898 132.774 126.819C132.358 126.781 132.172 126.67 132.33 126.201C132.57 125.49 132.787 124.765 132.946 124.031C133.057 123.515 133.326 123.474 133.781 123.499C134.418 123.532 135.058 123.896 135.708 123.464C136.14 123.177 136.368 122.83 136.407 122.314C136.69 118.623 137.187 114.957 137.58 111.279C137.604 111.057 137.669 110.857 137.704 110.645C137.867 109.677 137.43 108.991 136.463 108.802C135.917 108.696 135.357 108.647 134.802 108.604C134.393 108.573 134.196 108.445 134.274 107.984C134.377 107.38 134.451 106.767 134.479 106.156C134.504 105.614 134.753 105.527 135.234 105.591C136.672 105.778 138.119 105.909 139.556 106.101C140.095 106.173 140.291 106.017 140.332 105.467C140.413 104.383 140.597 103.307 140.679 102.223C140.719 101.691 140.858 101.474 141.432 101.593C142.11 101.735 143.047 101.563 143.423 101.957C143.816 102.367 143.39 103.267 143.343 103.955C143.326 104.205 143.292 104.454 143.263 104.704C143.071 106.39 143.073 106.361 144.682 106.554C145.212 106.618 145.371 106.47 145.415 105.974C145.513 104.863 145.67 103.757 145.767 102.647C145.804 102.216 145.938 102.109 146.384 102.144C148.677 102.328 148.678 102.312 148.412 104.586C148.34 105.194 148.307 105.81 148.194 106.411C148.1 106.904 148.238 107.09 148.738 107.194C149.943 107.443 151.074 107.891 152.166 108.487C155.509 110.32 154.962 115.709 151.887 116.868C151.816 116.894 151.76 116.963 151.605 117.083ZM146.484 124.568C146.725 124.508 147.112 124.439 147.481 124.316C148.516 123.97 149.135 123.208 149.341 122.175C149.562 121.064 149.036 120.216 148.124 119.626C147.684 119.341 147.194 119.107 146.696 118.946C145.255 118.48 143.75 118.353 142.253 118.193C141.832 118.148 141.793 118.367 141.76 118.666C141.567 120.409 141.378 122.155 141.171 123.897C141.136 124.194 141.16 124.372 141.508 124.414C143.115 124.605 144.721 124.787 146.484 124.568ZM146.219 115.528C146.837 115.466 147.43 115.311 147.96 114.981C149.146 114.239 149.478 112.21 148.484 111.423C147.759 110.848 147.001 110.321 146.025 110.11C145.05 109.899 144.049 110.017 143.091 109.738C142.773 109.644 142.745 109.923 142.72 110.149C142.544 111.727 142.377 113.307 142.183 114.883C142.143 115.21 142.222 115.331 142.55 115.373C143.769 115.529 144.989 115.639 146.219 115.528Z" fill="black"/>
</g>
<rect width="27.2055" height="21.5503" fill="black" fill-opacity="0" transform="translate(39.4425 25.6582)"/>
<path opacity="0.3" d="M66.6481 35.3992H39.4426V37.1597H66.6481V35.3992Z" fill="black"/>
<path opacity="0.3" d="M65.7079 30.408H40.3827V32.1677H65.7079V30.408Z" fill="black"/>
<path opacity="0.3" d="M66.6481 39.6516H39.4426V41.4119H66.6481V39.6516Z" fill="black"/>
<rect width="16.68" height="21.5503" fill="black" fill-opacity="0" transform="translate(44.4925 25.6582)"/>
<path fill-rule="evenodd" clip-rule="evenodd" d="M57.9761 35.5213C58.8855 35.751 59.6836 36.0487 60.2252 36.7882C61.3589 38.3368 60.991 41.0659 59.5654 42.3444C58.6103 43.2009 57.4314 43.3342 56.284 43.5743C55.2901 43.7835 55.2792 43.7315 55.3272 44.7236C55.3571 45.3331 55.3731 45.9438 55.422 46.5515C55.4451 46.8375 55.3944 46.9757 55.0687 46.9699C54.6686 46.9628 54.2665 46.9917 53.8693 47.0353C53.5557 47.0703 53.4865 46.9514 53.4806 46.6557C53.4647 45.8939 53.3995 45.1325 53.3738 44.3699C53.3627 44.0383 53.3069 43.8616 52.8913 43.8818C51.7911 43.9358 51.7894 43.9128 51.8452 45.0245C51.8738 45.596 51.8987 46.1679 51.939 46.7386C51.9586 47.0114 51.9028 47.1286 51.5808 47.1557C50.0235 47.2853 50.0352 47.2974 49.939 45.723C49.9045 45.1622 50.1156 44.3973 49.7333 44.1009C49.3967 43.8392 48.6752 44.0674 48.1242 44.0895C47.5331 44.1136 46.9418 44.1399 46.3518 44.1828C46.0664 44.2033 45.9291 44.1496 45.9837 43.8154C46.0661 43.3078 46.1318 42.7949 46.1577 42.2818C46.1755 41.922 46.3528 41.8647 46.662 41.8303C47.0955 41.7816 47.5682 41.9565 47.9581 41.5929C48.2183 41.3508 48.3327 41.092 48.3023 40.7391C48.0829 38.2169 48.0103 35.6877 47.866 33.162C47.8573 33.0101 47.8792 32.8676 47.8797 32.7198C47.882 32.049 47.5101 31.6352 46.837 31.6144C46.4565 31.604 46.074 31.6332 45.6937 31.6659C45.4144 31.69 45.2675 31.6251 45.2693 31.3061C45.2716 30.8868 45.2536 30.4649 45.2044 30.0493C45.1607 29.6812 45.319 29.595 45.6508 29.5841C46.642 29.5512 47.6326 29.4786 48.6242 29.4482C48.9961 29.4366 49.1105 29.3103 49.077 28.9346C49.0111 28.1945 49.0156 27.4473 48.9504 26.707C48.9182 26.3435 48.988 26.1812 49.3891 26.1984C49.8614 26.2182 50.4756 25.9981 50.7731 26.2223C51.0834 26.4555 50.8959 27.1109 50.9408 27.5799C50.9573 27.7501 50.9621 27.9225 50.9707 28.0939C51.0281 29.2533 51.0271 29.2337 52.1341 29.1848C52.4981 29.1683 52.5895 29.0512 52.5636 28.7117C52.5065 27.9514 52.4893 27.1877 52.4312 26.4279C52.4083 26.1333 52.4865 26.0453 52.7916 26.0202C54.3599 25.8891 54.3589 25.8785 54.4314 27.4413C54.4507 27.8606 54.4974 28.2799 54.4872 28.6985C54.4791 29.0408 54.593 29.1516 54.9418 29.1655C55.783 29.2003 56.5961 29.3765 57.399 29.6581C59.8581 30.5229 60.089 34.2205 58.1425 35.3444C58.0976 35.3702 58.0677 35.4225 57.9761 35.5213ZM55.353 41.1404C55.5091 41.0732 55.7622 40.984 55.9974 40.8597C56.6582 40.5121 56.991 39.928 57.0151 39.2077C57.041 38.4347 56.5912 37.9208 55.9099 37.6236C55.5816 37.4806 55.2247 37.3767 54.8705 37.3235C53.8464 37.1693 52.8175 37.2504 51.7894 37.3088C51.4999 37.325 51.4974 37.4771 51.5083 37.6822C51.5727 38.8809 51.6389 40.0791 51.6932 41.2781C51.7024 41.4824 51.7386 41.6003 51.9781 41.5894C53.0836 41.5397 54.1879 41.4839 55.353 41.1404ZM54.1686 35.0698C54.5793 34.9598 54.9621 34.7886 55.2828 34.507C56.0012 33.8754 55.9989 32.4683 55.2407 32.0477C54.6874 31.7402 54.1176 31.4686 53.4357 31.4344C52.7536 31.4007 52.0915 31.5921 51.4139 31.5097C51.1884 31.4818 51.2011 31.6732 51.2095 31.8284C51.2655 32.9133 51.3292 33.9979 51.3741 35.0827C51.3835 35.3076 51.4502 35.3811 51.6752 35.3728C52.5154 35.3424 53.3508 35.2815 54.1686 35.0698Z" fill="#3D3D3C"/>
<path fill-rule="evenodd" clip-rule="evenodd" d="M58.2556 35.5213C59.1648 35.751 59.9634 36.0487 60.5045 36.7882C61.6382 38.3368 61.2703 41.0659 59.8447 42.3444C58.8896 43.2009 57.711 43.3342 56.5636 43.5743C55.5694 43.7835 55.5585 43.7315 55.6065 44.7236C55.6364 45.3331 55.6524 45.9438 55.7018 46.5515C55.7244 46.8375 55.6737 46.9757 55.348 46.9699C54.9482 46.9628 54.5463 46.9917 54.1486 47.0353C53.8353 47.0703 53.7658 46.9514 53.7599 46.6557C53.7439 45.8939 53.6793 45.1325 53.6534 44.3699C53.642 44.0383 53.5862 43.8616 53.1706 43.8818C52.0707 43.9358 52.0687 43.9128 52.1245 45.0245C52.1531 45.596 52.178 46.1679 52.2183 46.7386C52.2379 47.0114 52.182 47.1286 51.8606 47.1557C50.3028 47.2853 50.3145 47.2974 50.2183 45.723C50.1838 45.1622 50.3949 44.3973 50.0126 44.1009C49.676 43.8392 48.9545 44.0674 48.4035 44.0895C47.8124 44.1136 47.2211 44.1399 46.6316 44.1828C46.3459 44.2033 46.2084 44.1496 46.263 43.8154C46.3454 43.3078 46.4111 42.7949 46.437 42.2818C46.4547 41.922 46.6321 41.8647 46.9413 41.8303C47.3748 41.7816 47.8474 41.9565 48.2376 41.5929C48.4979 41.3508 48.612 41.092 48.5816 40.7391C48.3622 38.2169 48.2896 35.6877 48.1458 33.162C48.1369 33.0101 48.1584 32.8676 48.159 32.7198C48.1617 32.049 47.7899 31.6352 47.1163 31.6144C46.7363 31.604 46.3533 31.6332 45.973 31.6659C45.6942 31.69 45.5468 31.6251 45.5486 31.3061C45.5509 30.8868 45.5326 30.4649 45.4839 30.0493C45.4403 29.6812 45.5986 29.595 45.9299 29.5841C46.9218 29.5512 47.9119 29.4786 48.9038 29.4482C49.2756 29.4366 49.3898 29.3103 49.3563 28.9346C49.2906 28.1945 49.2952 27.4473 49.2302 26.707C49.1975 26.3435 49.2675 26.1812 49.6683 26.1984C50.1412 26.2182 50.7548 25.9981 51.0524 26.2223C51.3627 26.4555 51.1752 27.1109 51.2203 27.5799C51.2371 27.7501 51.2417 27.9225 51.2503 28.0939C51.3074 29.2533 51.3063 29.2337 52.4134 29.1848C52.7777 29.1683 52.8688 29.0512 52.8429 28.7117C52.7858 27.9514 52.7685 27.1877 52.7105 26.4279C52.6879 26.1333 52.7658 26.0453 53.0709 26.0202C54.6392 25.8891 54.6384 25.8785 54.711 27.4413C54.73 27.8606 54.7767 28.2799 54.7668 28.6985C54.7584 29.0408 54.8723 29.1516 55.2211 29.1655C56.0623 29.2003 56.8754 29.3765 57.6782 29.6581C60.1377 30.5229 60.3685 34.2205 58.422 35.3444C58.3771 35.3702 58.3472 35.4225 58.2556 35.5213ZM55.6323 41.1404C55.7883 41.0732 56.0415 40.984 56.2769 40.8597C56.9375 40.5121 57.2706 39.928 57.2944 39.2077C57.3203 38.4347 56.8705 37.9208 56.1897 37.6236C55.8609 37.4806 55.504 37.3767 55.1498 37.3235C54.126 37.1693 53.0968 37.2504 52.0687 37.3088C51.7795 37.325 51.7772 37.4771 51.7876 37.6822C51.852 38.8809 51.9187 40.0791 51.9725 41.2781C51.9816 41.4824 52.0179 41.6003 52.2574 41.5894C53.3629 41.5397 54.4674 41.4839 55.6323 41.1404ZM54.4479 35.0698C54.8586 34.9598 55.2414 34.7886 55.5621 34.507C56.2805 33.8754 56.2782 32.4683 55.5199 32.0477C54.9667 31.7402 54.3972 31.4686 53.715 31.4344C53.0329 31.4007 52.3708 31.5921 51.6932 31.5097C51.4682 31.4818 51.4806 31.6732 51.4887 31.8284C51.5451 32.9133 51.6085 33.9979 51.6534 35.0827C51.6628 35.3076 51.7295 35.3811 51.9545 35.3728C52.7952 35.3424 53.6303 35.2815 54.4479 35.0698Z" fill="#3D3D3C"/>
<path fill-rule="evenodd" clip-rule="evenodd" d="M57.2718 35.2134C58.181 35.4431 58.9793 35.7405 59.5207 36.4803C60.6541 38.0284 60.2863 40.7572 58.8603 42.036C57.9052 42.8924 56.7267 43.026 55.5793 43.2664C54.5851 43.4758 54.5747 43.4228 54.6224 44.4157C54.6523 45.0249 54.6686 45.6351 54.7175 46.2431C54.7404 46.5288 54.6896 46.6673 54.3639 46.662C53.9643 46.6543 53.562 46.6838 53.1645 46.7274C52.8515 46.7626 52.782 46.6434 52.7756 46.3476C52.7599 45.5855 52.6949 44.8243 52.6691 44.0622C52.6579 43.7304 52.6023 43.5531 52.1866 43.5737C51.0869 43.6277 51.0851 43.6049 51.1409 44.7163C51.1688 45.2881 51.1939 45.8603 51.2343 46.431C51.2538 46.703 51.198 46.8207 50.8763 46.8478C49.3187 46.9776 49.3304 46.9895 49.2343 45.4151C49.1998 44.8543 49.4106 44.0886 49.0288 43.7925C48.6924 43.5308 47.9707 43.759 47.4192 43.7813C46.8284 43.8051 46.237 43.8315 45.6475 43.8749C45.3621 43.8949 45.2244 43.8414 45.2789 43.5072C45.3616 43.0002 45.427 42.487 45.4529 41.9739C45.4707 41.6136 45.6477 41.5566 45.9572 41.5218C46.3908 41.4742 46.8634 41.6483 47.2538 41.285C47.5136 41.0427 47.6285 40.7843 47.5975 40.4309C47.3786 37.909 47.306 35.3797 47.1617 32.8541C47.1531 32.7019 47.1749 32.5592 47.1754 32.4119C47.1777 31.7416 46.8058 31.3268 46.1323 31.3062C45.7523 31.2956 45.369 31.325 44.9895 31.3572C44.7102 31.382 44.563 31.3174 44.5645 30.9982C44.5666 30.5789 44.5491 30.157 44.4996 29.7414C44.456 29.3731 44.6143 29.2871 44.9458 29.2762C45.9377 29.2425 46.9281 29.1707 47.9194 29.1403C48.2913 29.1286 48.4063 29.0021 48.3725 28.6264C48.3068 27.8861 48.3109 27.1397 48.2462 26.3991C48.214 26.0355 48.2832 25.8733 48.684 25.89C49.1571 25.9098 49.7708 25.6902 50.0684 25.9141C50.3783 26.1471 50.1916 26.8022 50.2365 27.2715C50.2528 27.4421 50.2573 27.6143 50.266 27.7857C50.3236 28.9446 50.3223 28.9253 51.4293 28.8764C51.7934 28.8607 51.8844 28.743 51.8591 28.4033C51.8015 27.6432 51.7847 26.8793 51.7264 26.1195C51.7036 25.8246 51.782 25.7374 52.0869 25.7118C53.6551 25.5807 53.6541 25.5706 53.7267 27.1338C53.7462 27.5524 53.7926 27.9723 53.783 28.3904C53.7743 28.7326 53.8882 28.8437 54.2371 28.8576C55.0783 28.8918 55.8913 29.0686 56.6939 29.3502C59.1539 30.2148 59.3842 33.9126 57.4377 35.0365C57.3928 35.0618 57.3629 35.1143 57.2718 35.2134ZM54.6483 40.8322C54.8043 40.7653 55.0577 40.6758 55.2931 40.5518C55.9534 40.2037 56.2863 39.6198 56.3104 38.8998C56.3362 38.126 55.8867 37.6124 55.2056 37.3155C54.8768 37.1722 54.5204 37.0685 54.1663 37.0155C53.1417 36.8609 52.1127 36.9423 51.0846 37.0008C50.7951 37.0173 50.7929 37.1692 50.8038 37.3745C50.8677 38.573 50.9344 39.7712 50.989 40.9696C50.9981 41.174 51.0339 41.2916 51.2733 41.2815C52.3794 41.2318 53.4831 41.1755 54.6483 40.8322ZM53.4641 34.7614C53.8745 34.6513 54.2573 34.4805 54.578 34.1985C55.2964 33.5672 55.2941 32.1606 54.5359 31.7395C53.9829 31.4322 53.4129 31.161 52.7307 31.1267C52.0491 31.0928 51.387 31.2842 50.7091 31.2018C50.4841 31.1739 50.4963 31.3653 50.5044 31.5207C50.5613 32.6051 50.6247 33.6892 50.6691 34.7748C50.6787 34.9994 50.7454 35.0732 50.9707 35.0651C51.8111 35.0344 52.6465 34.9733 53.4641 34.7614Z" fill="#FEFDFB"/>
</svg>
