<svg width="156" height="186" viewBox="0 0 156 186" fill="none" xmlns="http://www.w3.org/2000/svg">
<path opacity="0.3" d="M155.21 177.47C155.21 181.824 120.474 185.353 77.6235 185.353C34.7734 185.353 0.036377 181.824 0.036377 177.47C0.036377 173.116 34.7734 169.586 77.6235 169.586C120.474 169.586 155.21 173.116 155.21 177.47Z" fill="black"/>
<path d="M138.829 153.335C140.603 152.908 141.517 150.672 140.951 148.93C140.383 147.188 138.717 145.993 136.965 145.483C137.894 144.066 138.866 142.468 138.592 140.794C138.339 139.247 136.365 138.056 135.165 138.868C136.558 137.684 137.537 135.844 137.063 134.092C136.607 132.398 134.354 131.363 132.966 132.246C134.296 131.029 134.441 128.639 133.127 127.36C131.685 125.958 128.951 126.342 127.95 128.089C128.69 126.934 129.288 125.686 129.722 124.382C129.918 123.798 130.067 123.107 129.712 122.603C129.173 121.833 127.978 122.111 127.152 122.556C124.472 123.998 122.307 126.382 121.125 129.193L120.495 167.982C120.684 168.875 121.661 169.38 122.567 169.485C123.47 169.589 124.397 169.425 125.293 169.588C126.017 169.72 126.684 170.059 127.34 170.396C129.194 171.344 131.189 172.322 133.256 172.079C135.324 171.838 137.308 169.793 136.675 167.802C139.467 166.144 140.054 161.716 137.79 159.381C139.003 158.612 140.296 157.741 140.76 156.378C141.222 155.015 140.249 153.14 138.829 153.335Z" fill="#79A958"/>
<path d="M119.102 21.4355H99.4387V172.709H119.102V21.4355Z" fill="#5696AC"/>
<path d="M127.319 21.2551H91.2217V25.1165H127.319V21.2551Z" fill="#BFB1AA"/>
<path d="M127.319 25.1165H91.2217V25.8519H127.319V25.1165Z" fill="#756151"/>
<path d="M127.319 56.7021H91.2217V57.4379H127.319V56.7021Z" fill="#756151"/>
<path d="M127.319 43.3958H91.2217V56.7019H127.319V43.3958Z" fill="#B5835B"/>
<path d="M127.319 79.0137H91.2217V82.8745H127.319V79.0137Z" fill="#BFB1AA"/>
<path d="M127.319 82.8748H91.2217V83.6105H127.319V82.8748Z" fill="#756151"/>
<path d="M127.319 114.46H91.2217V115.196H127.319V114.46Z" fill="#756151"/>
<path d="M127.319 101.154H91.2217V114.46H127.319V101.154Z" fill="#B5835B"/>
<path d="M127.319 136.773H91.2217V140.634H127.319V136.773Z" fill="#BFB1AA"/>
<path d="M127.319 140.634H91.2217V141.37H127.319V140.634Z" fill="#756151"/>
<path d="M127.319 172.219H91.2217V172.956H127.319V172.219Z" fill="#756151"/>
<path d="M127.319 158.913H91.2217V172.219H127.319V158.913Z" fill="#A88B74"/>
<path d="M128.125 18.0276H119.102V172.955H128.125V18.0276Z" fill="#B5835B"/>
<path d="M99.4388 18.0276H90.4155V172.955H99.4388V18.0276Z" fill="#B5835B"/>
<path d="M100.627 21.1128H99.4387V172.955H100.627V21.1128Z" fill="#756151"/>
<path d="M119.102 21.1128H117.911V172.955H119.102V21.1128Z" fill="#756151"/>
<path d="M130.807 25.2166H128.369V172.955H130.807V25.2166Z" fill="#3B3B3B"/>
<path d="M90.1712 25.2166H87.7317V172.955H90.1712V25.2166Z" fill="#3B3B3B"/>
<path d="M117.911 25.8518H114.761V43.3958H117.911V25.8518Z" fill="#3B3B3B"/>
<path d="M117.911 25.8518H100.627V30.1521H117.911V25.8518Z" fill="#3B3B3B"/>
<path d="M117.911 57.4377H114.761V79.0136H117.911V57.4377Z" fill="#3B3B3B"/>
<path d="M117.911 57.4377H100.627V62.7255H117.911V57.4377Z" fill="#3B3B3B"/>
<path d="M117.911 83.2434H114.761V101.154H117.911V83.2434Z" fill="#3B3B3B"/>
<path d="M117.911 83.2437H100.627V87.6335H117.911V83.2437Z" fill="#3B3B3B"/>
<path d="M117.911 114.275H114.761V136.316H117.911V114.275Z" fill="#3B3B3B"/>
<path d="M117.911 114.276H100.627V119.679H117.911V114.276Z" fill="#3B3B3B"/>
<path d="M117.911 141.001H114.761V158.913H117.911V141.001Z" fill="#3B3B3B"/>
<path d="M117.911 141.002H100.627V145.391H117.911V141.002Z" fill="#3B3B3B"/>
<path d="M78.4657 21.4355H58.801V172.709H78.4657V21.4355Z" fill="#5696AC"/>
<path d="M86.6827 21.2551H50.5857V25.1165H86.6827V21.2551Z" fill="#BFB1AA"/>
<path d="M86.6827 25.1165H50.5857V25.8519H86.6827V25.1165Z" fill="#756151"/>
<path d="M86.6827 56.7021H50.5857V57.4379H86.6827V56.7021Z" fill="#756151"/>
<path d="M86.6827 43.3958H50.5857V56.7019H86.6827V43.3958Z" fill="#B5835B"/>
<path d="M86.6827 79.0137H50.5857V82.8745H86.6827V79.0137Z" fill="#BFB1AA"/>
<path d="M86.6827 82.8748H50.5857V83.6105H86.6827V82.8748Z" fill="#756151"/>
<path d="M86.6827 114.46H50.5857V115.196H86.6827V114.46Z" fill="#756151"/>
<path d="M86.6827 101.154H50.5857V114.46H86.6827V101.154Z" fill="#A88B74"/>
<path d="M86.6827 136.773H50.5857V140.634H86.6827V136.773Z" fill="#BFB1AA"/>
<path d="M86.6827 140.634H50.5857V141.37H86.6827V140.634Z" fill="#756151"/>
<path d="M86.6827 172.219H50.5857V172.956H86.6827V172.219Z" fill="#756151"/>
<path d="M86.6827 158.913H50.5857V172.219H86.6827V158.913Z" fill="#A88B74"/>
<path d="M87.4891 18.0276H78.4656V172.955H87.4891V18.0276Z" fill="#B5835B"/>
<path d="M58.801 18.0276H49.7795V172.955H58.801V18.0276Z" fill="#B5835B"/>
<path d="M59.9911 21.1128H58.801V172.955H59.9911V21.1128Z" fill="#756151"/>
<path d="M78.4655 21.1128H77.2754V172.955H78.4655V21.1128Z" fill="#756151"/>
<path d="M90.1712 25.2166H87.7317V172.955H90.1712V25.2166Z" fill="#3B3B3B"/>
<path d="M49.5349 25.2166H47.0959V172.955H49.5349V25.2166Z" fill="#3B3B3B"/>
<path d="M77.2755 25.8518H74.125V43.3958H77.2755V25.8518Z" fill="#3B3B3B"/>
<path d="M77.2755 25.8518H59.991V30.1521H77.2755V25.8518Z" fill="#3B3B3B"/>
<path d="M77.2755 57.4377H74.125V79.0136H77.2755V57.4377Z" fill="#3B3B3B"/>
<path d="M77.2755 57.4377H59.991V62.7255H77.2755V57.4377Z" fill="#3B3B3B"/>
<path d="M77.2755 83.2434H74.125V101.154H77.2755V83.2434Z" fill="#3B3B3B"/>
<path d="M77.2755 83.2437H59.991V87.6335H77.2755V83.2437Z" fill="#3B3B3B"/>
<path d="M77.2755 114.275H74.125V136.316H77.2755V114.275Z" fill="#3B3B3B"/>
<path d="M77.2755 114.276H59.991V119.679H77.2755V114.276Z" fill="#3B3B3B"/>
<path d="M77.2755 141.001H74.125V158.913H77.2755V141.001Z" fill="#3B3B3B"/>
<path d="M77.2755 141.002H59.991V145.391H77.2755V141.002Z" fill="#3B3B3B"/>
<path d="M27.2708 172.681H90.472V101.538L58.8008 82.8667L27.2708 101.538V172.681Z" fill="#806A54"/>
<g opacity="0.32">
<g opacity="0.32">
<g opacity="0.32">
<path opacity="0.32" d="M94.6169 170.661H69.1699V172.955H94.6169V170.661Z" fill="#5C4C3C"/>
<path opacity="0.32" d="M70.0468 170.661H44.2219V172.955H70.0468V170.661Z" fill="#A69585"/>
<path opacity="0.32" d="M44.2219 170.661H27.366V172.955H44.2219V170.661Z" fill="#A6896D"/>
</g>
<g opacity="0.32">
<path opacity="0.32" d="M94.6169 168.367H76.332V170.661H94.6169V168.367Z" fill="#A6896D"/>
<path opacity="0.32" d="M77.4616 168.367H44.2219V170.661H77.4616V168.367Z" fill="#5C4C3C"/>
<path opacity="0.32" d="M44.2219 168.367H27.366V170.661H44.2219V168.367Z" fill="#A69585"/>
</g>
<g opacity="0.32">
<path opacity="0.32" d="M94.617 166.072H83.7485V168.367H94.617V166.072Z" fill="#5C4C3C"/>
<path opacity="0.32" d="M84.6259 166.072H58.801V168.367H84.6259V166.072Z" fill="#A69585"/>
<path opacity="0.32" d="M58.8008 166.072H32.9778V168.367H58.8008V166.072Z" fill="#A6896D"/>
<path opacity="0.32" d="M33.8546 166.072H27.366V168.367H33.8546V166.072Z" fill="#6E5B48"/>
</g>
<g opacity="0.32">
<path opacity="0.32" d="M94.6168 163.778H61.7529V166.072H94.6168V163.778Z" fill="#A6896D"/>
<path opacity="0.32" d="M62.8832 163.778H29.6433V166.072H62.8832V163.778Z" fill="#5C4C3C"/>
<path opacity="0.32" d="M29.6431 163.778H27.366V166.072H29.6431V163.778Z" fill="#A69585"/>
</g>
<g opacity="0.32">
<path opacity="0.32" d="M94.6169 161.485H69.1699V163.778H94.6169V161.485Z" fill="#5C4C3C"/>
<path opacity="0.32" d="M70.0468 161.485H44.2219V163.778H70.0468V161.485Z" fill="#A69585"/>
<path opacity="0.32" d="M44.2219 161.485H27.366V163.778H44.2219V161.485Z" fill="#A6896D"/>
</g>
<g opacity="0.32">
<path opacity="0.32" d="M94.6169 159.19H76.332V161.485H94.6169V159.19Z" fill="#A6896D"/>
<path opacity="0.32" d="M77.4616 159.19H44.2219V161.485H77.4616V159.19Z" fill="#5C4C3C"/>
<path opacity="0.32" d="M44.2219 159.19H27.366V161.485H44.2219V159.19Z" fill="#A69585"/>
</g>
<g opacity="0.32">
<path opacity="0.32" d="M94.617 156.896H83.7485V159.19H94.617V156.896Z" fill="#5C4C3C"/>
<path opacity="0.32" d="M84.6259 156.896H58.801V159.19H84.6259V156.896Z" fill="#A69585"/>
<path opacity="0.32" d="M58.8008 156.896H32.9778V159.19H58.8008V156.896Z" fill="#A6896D"/>
<path opacity="0.32" d="M33.8546 156.896H27.366V159.19H33.8546V156.896Z" fill="#6E5B48"/>
</g>
<g opacity="0.32">
<path opacity="0.32" d="M94.6168 154.602H61.7529V156.896H94.6168V154.602Z" fill="#A6896D"/>
<path opacity="0.32" d="M62.8832 154.602H29.6433V156.896H62.8832V154.602Z" fill="#5C4C3C"/>
<path opacity="0.32" d="M29.6431 154.602H27.366V156.896H29.6431V154.602Z" fill="#A69585"/>
</g>
<g opacity="0.32">
<path opacity="0.32" d="M94.6169 152.308H69.1699V154.602H94.6169V152.308Z" fill="#5C4C3C"/>
<path opacity="0.32" d="M70.0468 152.308H44.2219V154.602H70.0468V152.308Z" fill="#A69585"/>
<path opacity="0.32" d="M44.2219 152.308H27.366V154.602H44.2219V152.308Z" fill="#A6896D"/>
</g>
<g opacity="0.32">
<path opacity="0.32" d="M94.6169 150.014H76.332V152.308H94.6169V150.014Z" fill="#A6896D"/>
<path opacity="0.32" d="M77.4616 150.014H44.2219V152.308H77.4616V150.014Z" fill="#5C4C3C"/>
<path opacity="0.32" d="M44.2219 150.014H27.366V152.308H44.2219V150.014Z" fill="#A69585"/>
</g>
<g opacity="0.32">
<path opacity="0.32" d="M94.617 147.72H83.7485V150.014H94.617V147.72Z" fill="#5C4C3C"/>
<path opacity="0.32" d="M84.6259 147.72H58.801V150.014H84.6259V147.72Z" fill="#A69585"/>
<path opacity="0.32" d="M58.8008 147.72H32.9778V150.014H58.8008V147.72Z" fill="#A6896D"/>
<path opacity="0.32" d="M33.8546 147.72H27.366V150.014H33.8546V147.72Z" fill="#6E5B48"/>
</g>
<g opacity="0.32">
<path opacity="0.32" d="M94.6168 145.426H61.7529V147.72H94.6168V145.426Z" fill="#A6896D"/>
<path opacity="0.32" d="M62.8832 145.426H29.6433V147.72H62.8832V145.426Z" fill="#5C4C3C"/>
<path opacity="0.32" d="M29.6431 145.426H27.366V147.72H29.6431V145.426Z" fill="#A69585"/>
</g>
<g opacity="0.32">
<path opacity="0.32" d="M94.6169 143.132H69.1699V145.426H94.6169V143.132Z" fill="#5C4C3C"/>
<path opacity="0.32" d="M70.0468 143.132H44.2219V145.426H70.0468V143.132Z" fill="#A69585"/>
<path opacity="0.32" d="M44.2219 143.132H27.366V145.426H44.2219V143.132Z" fill="#A6896D"/>
</g>
<g opacity="0.32">
<path opacity="0.32" d="M94.6169 140.837H76.332V143.131H94.6169V140.837Z" fill="#A6896D"/>
<path opacity="0.32" d="M77.4616 140.837H44.2219V143.131H77.4616V140.837Z" fill="#5C4C3C"/>
<path opacity="0.32" d="M44.2219 140.837H27.366V143.131H44.2219V140.837Z" fill="#A69585"/>
</g>
<g opacity="0.32">
<path opacity="0.32" d="M94.617 138.543H83.7485V140.837H94.617V138.543Z" fill="#5C4C3C"/>
<path opacity="0.32" d="M84.6259 138.543H58.801V140.837H84.6259V138.543Z" fill="#A69585"/>
<path opacity="0.32" d="M58.8008 138.543H32.9778V140.837H58.8008V138.543Z" fill="#A6896D"/>
<path opacity="0.32" d="M33.8546 138.543H27.366V140.837H33.8546V138.543Z" fill="#6E5B48"/>
</g>
<g opacity="0.32">
<path opacity="0.32" d="M94.6168 136.25H61.7529V138.544H94.6168V136.25Z" fill="#A6896D"/>
<path opacity="0.32" d="M62.8832 136.25H29.6433V138.544H62.8832V136.25Z" fill="#5C4C3C"/>
<path opacity="0.32" d="M29.6431 136.25H27.366V138.544H29.6431V136.25Z" fill="#A69585"/>
</g>
<g opacity="0.32">
<path opacity="0.32" d="M94.6169 133.956H69.1699V136.25H94.6169V133.956Z" fill="#5C4C3C"/>
<path opacity="0.32" d="M70.0468 133.956H44.2219V136.25H70.0468V133.956Z" fill="#A69585"/>
<path opacity="0.32" d="M44.2219 133.956H27.366V136.25H44.2219V133.956Z" fill="#A6896D"/>
</g>
<g opacity="0.32">
<path opacity="0.32" d="M94.6169 131.661H76.332V133.956H94.6169V131.661Z" fill="#A6896D"/>
<path opacity="0.32" d="M77.4616 131.661H44.2219V133.956H77.4616V131.661Z" fill="#5C4C3C"/>
<path opacity="0.32" d="M44.2219 131.661H27.366V133.956H44.2219V131.661Z" fill="#A69585"/>
</g>
<g opacity="0.32">
<path opacity="0.32" d="M94.617 129.367H83.7485V131.661H94.617V129.367Z" fill="#5C4C3C"/>
<path opacity="0.32" d="M84.6259 129.367H58.801V131.661H84.6259V129.367Z" fill="#A69585"/>
<path opacity="0.32" d="M58.8008 129.367H32.9778V131.661H58.8008V129.367Z" fill="#A6896D"/>
<path opacity="0.32" d="M33.8546 129.367H27.366V131.661H33.8546V129.367Z" fill="#6E5B48"/>
</g>
<g opacity="0.32">
<path opacity="0.32" d="M94.6168 127.073H61.7529V129.367H94.6168V127.073Z" fill="#A6896D"/>
<path opacity="0.32" d="M62.8832 127.073H29.6433V129.367H62.8832V127.073Z" fill="#5C4C3C"/>
<path opacity="0.32" d="M29.6431 127.073H27.366V129.367H29.6431V127.073Z" fill="#A69585"/>
</g>
<g opacity="0.32">
<path opacity="0.32" d="M94.6169 124.779H69.1699V127.073H94.6169V124.779Z" fill="#5C4C3C"/>
<path opacity="0.32" d="M70.0468 124.779H44.2219V127.073H70.0468V124.779Z" fill="#A69585"/>
<path opacity="0.32" d="M44.2219 124.779H27.366V127.073H44.2219V124.779Z" fill="#A6896D"/>
</g>
<g opacity="0.32">
<path opacity="0.32" d="M94.6169 122.485H76.332V124.779H94.6169V122.485Z" fill="#A6896D"/>
<path opacity="0.32" d="M77.4616 122.485H44.2219V124.779H77.4616V122.485Z" fill="#5C4C3C"/>
<path opacity="0.32" d="M44.2219 122.485H27.366V124.779H44.2219V122.485Z" fill="#A69585"/>
</g>
<g opacity="0.32">
<path opacity="0.32" d="M94.617 120.192H83.7485V122.485H94.617V120.192Z" fill="#5C4C3C"/>
<path opacity="0.32" d="M84.6259 120.192H58.801V122.485H84.6259V120.192Z" fill="#A69585"/>
<path opacity="0.32" d="M58.8008 120.192H32.9778V122.485H58.8008V120.192Z" fill="#A6896D"/>
<path opacity="0.32" d="M33.8546 120.192H27.366V122.485H33.8546V120.192Z" fill="#6E5B48"/>
</g>
<g opacity="0.32">
<path opacity="0.32" d="M94.6168 117.897H61.7529V120.191H94.6168V117.897Z" fill="#A6896D"/>
<path opacity="0.32" d="M62.8832 117.897H29.6433V120.191H62.8832V117.897Z" fill="#5C4C3C"/>
<path opacity="0.32" d="M29.6431 117.897H27.366V120.191H29.6431V117.897Z" fill="#A69585"/>
</g>
<g opacity="0.32">
<path opacity="0.32" d="M94.6169 115.602H69.1699V117.897H94.6169V115.602Z" fill="#5C4C3C"/>
<path opacity="0.32" d="M70.0468 115.602H44.2219V117.897H70.0468V115.602Z" fill="#A69585"/>
<path opacity="0.32" d="M44.2219 115.602H27.366V117.897H44.2219V115.602Z" fill="#A6896D"/>
</g>
<g opacity="0.32">
<path opacity="0.32" d="M94.6169 113.308H76.332V115.602H94.6169V113.308Z" fill="#A6896D"/>
<path opacity="0.32" d="M77.4616 113.308H44.2219V115.602H77.4616V113.308Z" fill="#5C4C3C"/>
<path opacity="0.32" d="M44.2219 113.308H27.366V115.602H44.2219V113.308Z" fill="#A69585"/>
</g>
<g opacity="0.32">
<path opacity="0.32" d="M94.617 111.014H83.7485V113.308H94.617V111.014Z" fill="#5C4C3C"/>
<path opacity="0.32" d="M84.6259 111.014H58.801V113.308H84.6259V111.014Z" fill="#A69585"/>
<path opacity="0.32" d="M58.8008 111.014H32.9778V113.308H58.8008V111.014Z" fill="#A6896D"/>
<path opacity="0.32" d="M33.8546 111.014H27.366V113.308H33.8546V111.014Z" fill="#6E5B48"/>
</g>
<g opacity="0.32">
<path opacity="0.32" d="M94.6168 108.721H61.7529V111.015H94.6168V108.721Z" fill="#A6896D"/>
<path opacity="0.32" d="M62.8832 108.721H29.6433V111.015H62.8832V108.721Z" fill="#5C4C3C"/>
<path opacity="0.32" d="M29.6431 108.721H27.366V111.015H29.6431V108.721Z" fill="#A69585"/>
</g>
<g opacity="0.32">
<path opacity="0.32" d="M94.6169 106.427H69.1699V108.721H94.6169V106.427Z" fill="#5C4C3C"/>
<path opacity="0.32" d="M70.0468 106.427H44.2219V108.721H70.0468V106.427Z" fill="#A69585"/>
<path opacity="0.32" d="M44.2219 106.427H27.366V108.721H44.2219V106.427Z" fill="#A6896D"/>
</g>
<g opacity="0.32">
<path opacity="0.32" d="M94.6169 104.133H76.332V106.427H94.6169V104.133Z" fill="#A6896D"/>
<path opacity="0.32" d="M77.4616 104.133H44.2219V106.427H77.4616V104.133Z" fill="#5C4C3C"/>
<path opacity="0.32" d="M44.2219 104.133H27.366V106.427H44.2219V104.133Z" fill="#A69585"/>
</g>
<g opacity="0.32">
<path opacity="0.32" d="M94.617 101.839H83.7485V104.133H94.617V101.839Z" fill="#5C4C3C"/>
<path opacity="0.32" d="M84.6259 101.839H58.801V104.133H84.6259V101.839Z" fill="#A69585"/>
<path opacity="0.32" d="M58.8008 101.839H32.9778V104.133H58.8008V101.839Z" fill="#A6896D"/>
<path opacity="0.32" d="M33.8546 101.839H27.366V104.133H33.8546V101.839Z" fill="#6E5B48"/>
</g>
<g opacity="0.32">
<path opacity="0.32" d="M94.6168 99.5449H61.7529V101.838H94.6168V99.5449Z" fill="#A6896D"/>
<path opacity="0.32" d="M62.8832 99.5449H29.6433V101.838H62.8832V99.5449Z" fill="#5C4C3C"/>
<path opacity="0.32" d="M29.6431 99.5449H27.366V101.838H29.6431V99.5449Z" fill="#A69585"/>
</g>
<g opacity="0.32">
<path opacity="0.32" d="M94.6169 97.25H69.1699V99.5451H94.6169V97.25Z" fill="#5C4C3C"/>
<path opacity="0.32" d="M70.0468 97.25H44.2219V99.5451H70.0468V97.25Z" fill="#A69585"/>
<path opacity="0.32" d="M44.2219 97.25H27.366V99.5451H44.2219V97.25Z" fill="#A6896D"/>
</g>
<g opacity="0.32">
<path opacity="0.32" d="M94.6169 94.9563H76.332V97.2499H94.6169V94.9563Z" fill="#A6896D"/>
<path opacity="0.32" d="M77.4616 94.9563H44.2219V97.2499H77.4616V94.9563Z" fill="#5C4C3C"/>
<path opacity="0.32" d="M44.2219 94.9565H27.366V97.2501H44.2219V94.9565Z" fill="#A69585"/>
</g>
<g opacity="0.32">
<path opacity="0.32" d="M94.617 92.6619H83.7485V94.9562H94.617V92.6619Z" fill="#5C4C3C"/>
<path opacity="0.32" d="M84.6259 92.6619H58.801V94.9562H84.6259V92.6619Z" fill="#A69585"/>
<path opacity="0.32" d="M58.8008 92.6619H32.9778V94.9562H58.8008V92.6619Z" fill="#A6896D"/>
<path opacity="0.32" d="M33.8546 92.6619H27.366V94.9562H33.8546V92.6619Z" fill="#6E5B48"/>
</g>
<g opacity="0.32">
<path opacity="0.32" d="M94.6168 90.3682H61.7529V92.662H94.6168V90.3682Z" fill="#A6896D"/>
<path opacity="0.32" d="M62.8832 90.3682H29.6433V92.662H62.8832V90.3682Z" fill="#5C4C3C"/>
<path opacity="0.32" d="M29.6431 90.3682H27.366V92.662H29.6431V90.3682Z" fill="#A69585"/>
</g>
<g opacity="0.32">
<path opacity="0.32" d="M94.6169 88.0737H69.1699V90.3681H94.6169V88.0737Z" fill="#5C4C3C"/>
<path opacity="0.32" d="M70.0468 88.0737H44.2219V90.3681H70.0468V88.0737Z" fill="#A69585"/>
<path opacity="0.32" d="M44.2219 88.0737H27.366V90.3681H44.2219V88.0737Z" fill="#A6896D"/>
</g>
<g opacity="0.32">
<path opacity="0.32" d="M94.6169 85.7803H76.332V88.0738H94.6169V85.7803Z" fill="#A6896D"/>
<path opacity="0.32" d="M77.4616 85.7803H44.2219V88.0738H77.4616V85.7803Z" fill="#5C4C3C"/>
<path opacity="0.32" d="M44.2219 85.7803H27.366V88.0738H44.2219V85.7803Z" fill="#A69585"/>
</g>
<g opacity="0.32">
<path opacity="0.32" d="M94.617 83.4861H83.7485V85.7802H94.617V83.4861Z" fill="#5C4C3C"/>
<path opacity="0.32" d="M84.6259 83.4861H58.801V85.7802H84.6259V83.4861Z" fill="#A69585"/>
<path opacity="0.32" d="M58.8008 83.4861H32.9778V85.7802H58.8008V83.4861Z" fill="#A6896D"/>
<path opacity="0.32" d="M33.8546 83.4861H27.366V85.7802H33.8546V83.4861Z" fill="#6E5B48"/>
</g>
</g>
</g>
<path d="M80.1959 104.683H71.0308V141.781H80.1959V104.683Z" fill="#5696AC"/>
<path d="M80.1959 150.825H71.0308V172.681H80.1959V150.825Z" fill="#5696AC"/>
<path d="M21.6709 172.681H28.2045V102.294L57.9095 86.0647L89.3988 102.641V172.527H95.9322V98.6729L57.8528 78.627L21.6709 98.3955V172.681Z" fill="#B5835B"/>
<path d="M56.7111 147.976H35.2935V172.681H56.7111V147.976Z" fill="#5696AC"/>
<path d="M56.7111 113.931H35.2935V138.637H56.7111V113.931Z" fill="#5696AC"/>
<path d="M35.2935 109.277H56.7111V91.1523L35.2935 103.506V109.277Z" fill="#5696AC"/>
<path d="M70.7583 138.637H71.3039V104.957H79.9229V138.637H80.4683V104.409H70.7583V138.637Z" fill="#38352C"/>
<path d="M35.0229 103.348L56.4385 90.9944V90.6575H56.982V109.552H35.0229V103.348ZM56.4385 91.6257L35.5665 103.664V109.005H56.4385V91.6257Z" fill="#38352C"/>
<path d="M35.0229 138.636H35.5665V114.203H56.4385V138.636H56.982V113.657H35.0229V138.636Z" fill="#38352C"/>
<path d="M70.7583 150.552H80.4683V172.956H70.7583V150.552ZM79.9229 151.098H71.3039V172.408H79.9229V151.098Z" fill="#38352C"/>
<path d="M80.1959 165.849H71.0308V166.395H80.1959V165.849Z" fill="#38352C"/>
<path d="M35.0229 147.702H56.982V172.955H35.0229V147.702ZM56.4385 148.249H35.5665V172.408H56.4385V148.249Z" fill="#38352C"/>
<path d="M49.9681 147.976H49.4219V172.681H49.9681V147.976Z" fill="#38352C"/>
<path d="M42.6442 147.976H42.1001V172.681H42.6442V147.976Z" fill="#38352C"/>
<path d="M28.3521 102.213L57.9094 86.0647L89.3987 102.641V108.08L56.8764 91.3721L28.3521 107.831V102.213Z" fill="#38352C"/>
<path d="M89.3988 172.527H84.5811V100.104L89.3988 103.049V172.527Z" fill="#38352C"/>
<path d="M92.6665 138.501H24.9368V145.062H92.6665V138.501Z" fill="#C9A990"/>
<path d="M52.928 93.3807V109.286H56.4383V91.3721L52.928 93.3807Z" fill="#38352C"/>
<path d="M56.4384 113.947H35.2915V116.868H56.4384V113.947Z" fill="#38352C"/>
<path d="M56.4385 114.203H52.146V138.501H56.4385V114.203Z" fill="#38352C"/>
<path d="M79.9229 104.683H77.4536V138.501H79.9229V104.683Z" fill="#38352C"/>
<path d="M79.9229 104.683H71.304V107.154H79.9229V104.683Z" fill="#38352C"/>
<path d="M56.7109 147.851H35.5664V151.098H56.7109V147.851Z" fill="#38352C"/>
<path d="M56.711 147.634H52.8591V172.527H56.711V147.634Z" fill="#38352C"/>
<path d="M80.196 150.552H70.7583V153.684H80.196V150.552Z" fill="#38352C"/>
<path d="M79.9229 150.825H77.4536V172.408H79.9229V150.825Z" fill="#38352C"/>
<path opacity="0.3" d="M41.4412 97.7827L78.688 115.408V138.5H89.3988V104.133L56.9821 88.0737L41.4412 97.7827Z" fill="#00142F"/>
<path opacity="0.3" d="M89.3989 145.062H28.2046V159.191H89.3989V145.062Z" fill="#00142F"/>
<path opacity="0.3" d="M95.9324 98.6729V100.104V172.527H130.807" fill="#00142F"/>
<path d="M149.328 172.527H6.12451V176.144H149.328V172.527Z" fill="#C9A990"/>
<path d="M129.96 172.395V158.423L145.858 172.395H129.96Z" fill="#3B3B3B"/>
<path d="M10.4927 104.089L17.0676 102.455L17.0203 110.034L20.8014 114.707L20.4685 168.186L15.2579 171.818L15.2645 170.75L19.1023 167.222L19.6111 115.632L12.508 111.683L10.4927 104.089Z" fill="#494252"/>
<path d="M9.64178 103.27L9.63159 104.91L17.9106 102.821L17.9203 101.297L9.64178 103.27Z" fill="#2E2933"/>
<path d="M19.1983 120.126L19.1858 122.16L22.6899 121.971L22.6298 120.147L19.1983 120.126Z" fill="#2E2933"/>
<path d="M19.0607 142.257L18.4045 144.285L22.4791 144.328L22.3892 142.278L19.0607 142.257Z" fill="#2E2933"/>
<path d="M18.2729 165.363L19.1013 167.222L21.4807 167.018L21.5567 165.43L18.2729 165.363Z" fill="#2E2933"/>
<path d="M141.009 171.379C141.338 171.289 141.673 171.217 142.001 171.119C143.693 170.614 145.444 169.944 146.549 168.562C146.907 168.115 147.191 167.587 147.233 167.015C147.368 165.162 145.102 164.135 143.254 164.021C140.399 163.844 137.512 164.567 135.031 165.995C136.845 164.437 138.415 162.596 139.645 160.544C139.844 160.212 140.029 159.769 139.788 159.468C139.566 159.189 139.135 159.235 138.79 159.321C134.671 160.332 130.967 162.954 128.638 166.513C130.867 163.54 132.832 160.368 134.501 157.046C135.005 156.043 135.485 154.849 134.997 153.839C131.201 155.434 128.068 158.559 126.452 162.36C127.617 159.839 128.401 157.142 128.771 154.389C128.882 153.554 128.952 152.679 128.648 151.894C128.343 151.11 127.56 150.453 126.73 150.564C126.108 150.648 125.616 151.12 125.196 151.588C121.664 155.531 119.957 161.059 120.646 166.316L120.81 173.953C121.781 174.72 123.104 174.812 124.338 174.874C132.032 175.258 140.044 175.587 147.11 172.508C145.152 171.718 143.099 171.401 141.009 171.379Z" fill="#579326"/>
<path d="M102.45 169.493C102.215 168.725 101.348 168.098 100.612 168.415C101.41 167.608 102.261 166.679 102.27 165.542C102.279 164.408 100.832 163.347 100 164.118C100.369 163.463 100.679 162.721 100.565 161.978C100.45 161.233 99.7601 160.54 99.0231 160.674C100.314 159.539 100.054 157.119 98.5507 156.287C99.0414 155.482 99.3054 154.54 99.308 153.596C99.309 153.164 99.227 152.679 98.8799 152.426C98.6103 152.229 98.1681 152.325 98.0076 152.577C98.2266 151.581 97.901 150.472 97.1531 149.775C96.8562 149.5 96.4789 149.281 96.0738 149.281C95.3322 149.285 94.773 150.043 94.7139 150.784C94.6543 151.526 94.9606 152.242 95.2596 152.922C93.9326 152.688 92.7441 154.018 92.6003 155.363C92.4555 156.708 93.0425 158.012 93.6153 159.237C93.3963 158.702 92.6207 158.599 92.1393 158.914C91.6575 159.23 91.4228 159.812 91.2927 160.374C90.8505 162.279 91.3204 164.375 92.5324 165.903C91.8341 165.154 90.4543 165.971 90.3425 166.992C90.2306 168.014 90.8834 168.944 91.5028 169.761C91.1463 169.055 89.9745 169.198 89.5575 169.869C89.1399 170.542 89.3061 171.43 89.6521 172.143C89.997 172.854 90.5061 173.485 90.7857 174.225L101.467 173.347C101.895 172.975 102.084 172.405 102.246 171.86C102.476 171.09 102.687 170.262 102.45 169.493Z" fill="#579326"/>
<path d="M17.6435 169.976C17.4357 169.302 16.6763 168.753 16.0306 169.03C16.7299 168.324 17.476 167.509 17.4841 166.513C17.4911 165.518 16.2242 164.588 15.4949 165.263C15.8184 164.689 16.0899 164.039 15.9896 163.388C15.8892 162.736 15.284 162.128 14.6383 162.245C15.7701 161.251 15.5411 159.129 14.2243 158.4C14.6534 157.694 14.8857 156.869 14.8873 156.041C14.8883 155.663 14.8175 155.239 14.5126 155.016C14.2766 154.842 13.8885 154.927 13.7479 155.148C13.9403 154.273 13.6546 153.303 12.9987 152.693C12.7384 152.451 12.4076 152.258 12.053 152.26C11.4033 152.262 10.912 152.927 10.8606 153.577C10.8093 154.227 11.0769 154.854 11.3398 155.451C10.1761 155.246 9.13399 156.411 9.00829 157.589C8.88155 158.77 9.39557 159.911 9.89731 160.986C9.70681 160.518 9.02658 160.427 8.60376 160.703C8.18172 160.98 7.97632 161.49 7.86212 161.982C7.47484 163.652 7.88669 165.489 8.94792 166.83C8.33642 166.171 7.12728 166.889 7.0298 167.784C6.93128 168.679 7.50332 169.494 8.04583 170.21C7.73381 169.591 6.70628 169.716 6.34095 170.305C5.97484 170.895 6.12066 171.674 6.42353 172.298C6.72693 172.923 7.17275 173.474 7.41709 174.124L16.7801 173.353C17.1551 173.028 17.3218 172.528 17.4632 172.05C17.6641 171.375 17.8499 170.65 17.6435 169.976Z" fill="#79A958"/>
<path d="M39.5451 169.096C39.2877 168.644 38.6299 168.661 38.1405 168.831C37.8655 168.926 37.6055 169.06 37.3591 169.212C37.645 168.602 37.8608 167.959 37.9933 167.297C38.0986 166.772 38.0751 166.087 37.5857 165.872C37.2378 165.72 36.8396 165.901 36.5184 166.104C35.7966 166.562 35.1747 167.162 34.656 167.843C35.6989 165.9 36.3535 163.748 36.5432 161.548C34.7636 162.251 33.3768 163.824 32.8102 165.652C33.457 162.59 33.9556 159.437 33.1727 156.431C30.7105 158.58 29.4634 162.046 29.9882 165.279C29.0448 162.396 29.0119 159.201 27.5581 156.541C27.4413 156.327 27.3054 156.108 27.0911 155.994C26.7041 155.788 26.1998 156.018 25.9591 156.385C25.7189 156.752 25.6787 157.213 25.6622 157.652C25.5634 160.177 26.0132 162.723 26.9699 165.061C26.0864 163.469 25.2036 161.876 24.3206 160.284C23.7146 159.191 22.9915 158.001 21.7928 157.659C21.4003 158.551 21.6851 159.582 21.9932 160.506C22.7688 162.831 23.6691 165.115 24.6901 167.343C23.7159 165.406 22.4192 163.633 20.8708 162.119C20.5753 161.829 20.164 161.529 19.7866 161.696C19.3371 161.896 19.3708 162.542 19.4986 163.019C20.1337 165.398 21.2469 167.645 22.7466 169.594C21.3018 167.883 19.6029 166.319 17.4517 165.835C17.1909 165.776 16.8692 165.755 16.7072 165.968C16.5394 166.19 16.6601 166.506 16.7887 166.754C18.2281 169.528 20.0435 172.105 22.1675 174.394L37.0293 174.838C38.4154 173.543 39.3446 171.766 39.6185 169.885C39.6569 169.619 39.6794 169.329 39.5451 169.096Z" fill="#579326"/>
<path d="M52.5914 169.354C51.7933 168.657 50.4085 168.69 49.7628 169.532C50.0076 169.135 50.2583 168.72 50.3129 168.257C50.3677 167.792 50.1657 167.263 49.734 167.091C49.4902 166.993 49.2169 167.022 48.9582 167.06C47.9489 167.211 46.9606 167.5 46.029 167.916C46.1594 166.897 45.4049 165.843 44.402 165.642C43.3982 165.44 42.2986 166.122 42.0278 167.113C41.7835 166.034 40.5488 165.299 39.4901 165.599C38.4305 165.898 37.7617 167.175 38.1153 168.222C37.492 167.74 36.7386 167.374 35.9521 167.394C35.165 167.413 34.359 167.897 34.1366 168.655C33.984 169.181 34.2106 169.786 34.623 170.116C33.816 169.842 32.9612 169.71 32.1106 169.744C32.5768 172.233 34.4301 174.413 36.8063 175.264L51.0393 174.479C52.0023 174.039 52.8563 173.277 53.2245 172.282C53.5922 171.286 53.3887 170.052 52.5914 169.354Z" fill="#79A958"/>
<path d="M109.736 20.5087L89.3103 0L68.8849 20.5088L89.3103 41.0175L109.736 20.5087Z" fill="#007700"/>
<path fill-rule="evenodd" clip-rule="evenodd" d="M72.7383 20.344C73.9482 19.2546 75.1587 18.1651 76.3759 17.0688C77.5017 18.2315 78.6285 19.3952 79.7402 20.5429C78.7017 21.5917 77.5858 22.7184 76.3989 23.9167C75.1989 22.8341 73.9686 21.7231 72.7383 20.6127C72.7383 20.523 72.7383 20.4338 72.7383 20.344Z" fill="white"/>
<path fill-rule="evenodd" clip-rule="evenodd" d="M79.7898 13.7512C82.9617 10.6006 86.302 7.28296 89.5536 4.05371C92.7611 7.26958 96.087 10.604 99.4173 13.9432C98.3449 14.9086 97.1357 15.997 95.77 17.2263C93.9366 15.3371 91.8159 13.1519 89.578 10.8462C87.3465 13.1752 85.2901 15.3213 83.1956 17.5076C81.9374 16.12 80.8743 14.9471 79.7898 13.7512Z" fill="white"/>
<path fill-rule="evenodd" clip-rule="evenodd" d="M89.4977 36.9204C86.2494 33.6835 82.9329 30.3789 79.6274 27.0851C80.7114 26.0177 81.8403 24.906 83.1767 23.5896C85.1252 25.6979 87.1687 27.9093 89.2588 30.1703C91.6855 27.7025 93.8038 25.5488 95.8478 23.4707C97.2041 24.7769 98.3774 25.9067 99.4907 26.9789C96.1387 30.3136 92.7956 33.6397 89.4977 36.9204Z" fill="white"/>
<path fill-rule="evenodd" clip-rule="evenodd" d="M86.2834 20.348C87.2681 19.3803 88.4323 18.2362 89.613 17.0757C90.6361 18.1835 91.7422 19.3816 92.7703 20.4944C91.8008 21.4668 90.6536 22.6174 89.5581 23.7163C88.5682 22.6979 87.4111 21.5075 86.2834 20.348Z" fill="white"/>
<path fill-rule="evenodd" clip-rule="evenodd" d="M99.3042 20.2932C99.3439 20.2454 99.5067 20.0386 99.6834 19.844C100.58 18.8547 101.48 17.8687 102.42 16.8364C103.703 18.2434 104.797 19.4441 105.882 20.6338C104.928 21.5978 103.809 22.7282 102.72 23.8281C101.607 22.6762 100.479 21.5086 99.3042 20.2932Z" fill="white"/>
</svg>
