<svg width="249" height="149" viewBox="0 0 249 149" fill="none" xmlns="http://www.w3.org/2000/svg">
<path opacity="0.3" d="M123.655 148.605C191.846 148.605 247.126 145.441 247.126 141.537C247.126 137.634 191.846 134.47 123.655 134.47C55.4647 134.47 0.185059 137.634 0.185059 141.537C0.185059 145.441 55.4647 148.605 123.655 148.605Z" fill="black"/>
<path d="M245.9 126.326C247.674 125.899 248.589 123.663 248.022 121.921C247.454 120.179 245.788 118.983 244.036 118.474C244.965 117.057 245.937 115.458 245.663 113.784C245.41 112.238 243.436 111.047 242.236 111.859C243.63 110.675 244.608 108.835 244.135 107.082C243.678 105.388 241.426 104.354 240.038 105.237C241.367 104.02 241.512 101.63 240.198 100.351C238.757 98.9483 236.023 99.3324 235.021 101.08C235.762 99.9244 236.359 98.6765 236.793 97.3729C236.989 96.7888 237.138 96.0982 236.783 95.5934C236.245 94.824 235.049 95.1022 234.223 95.5472C231.543 96.9882 229.379 99.3723 228.196 102.184L227.567 140.972C227.755 141.866 228.733 142.371 229.638 142.475C230.542 142.58 231.468 142.416 232.364 142.579C233.088 142.71 233.755 143.05 234.412 143.386C236.265 144.335 238.26 145.312 240.328 145.069C242.395 144.828 244.38 142.784 243.746 140.793C246.538 139.135 247.125 134.707 244.861 132.372C246.074 131.603 247.368 130.732 247.831 129.368C248.293 128.006 247.321 126.13 245.9 126.326Z" fill="#79A958"/>
<path d="M115.739 75.2109L113.012 69.1163C63.9841 71.3753 25.4461 79.5181 14.966 89.8568V88.8712C25.184 76.9731 62.891 67.5653 111.071 64.7785L100.958 42.1819C52.6209 48.0256 17.7143 62.2629 14.7039 79.173V96.3798H126.077L117.092 74.5998L115.739 75.2109Z" fill="#CC734C"/>
<path d="M17.4593 65.1427V61.9236C28.5645 47.8332 57.9609 36.4717 95.9673 31.248L84.9792 6.93774L85.3074 7.67086C51.2979 15.3314 25.9565 29.3861 17.4321 46.2332V66.743H98.3501V36.5108L98.2589 36.3132C58.772 41.0496 28.2975 51.7969 17.4593 65.1427Z" fill="#CC734C"/>
<path d="M17.4321 37.8937V46.3661C17.4643 46.3075 17.4986 46.2482 17.5305 46.1832V37.7266C17.4986 37.7793 17.4643 37.8394 17.4321 37.8937Z" fill="#231F20"/>
<path d="M84.9273 6.5489L82.3685 0.8125C75.4083 2.4674 68.8311 4.38679 62.7049 6.5489C40.6211 14.3414 24.4287 25.2314 17.5303 37.7267V46.1833C26.0541 29.3368 51.3955 15.2821 85.4061 7.62129L84.9273 6.5489Z" fill="#9E4B35"/>
<path d="M91.8973 49.7632C92.2775 49.7632 92.6455 49.8125 93.0079 49.8721C91.8581 48.7879 90.3165 48.1099 88.608 48.1099C85.0626 48.1099 82.1721 51.0093 82.1721 54.5783V81.9505H85.4622V56.2267C85.4622 52.6576 88.3503 49.7632 91.8973 49.7632Z" fill="#703A2A"/>
<path d="M73.2661 53.0025C73.7142 53.0025 74.1436 53.067 74.5654 53.1646C73.5331 52.0629 72.0791 51.3628 70.4511 51.3628C67.3403 51.3628 64.8054 53.9085 64.8054 57.0391V81.0587H67.6175V58.6738C67.6175 55.5432 70.1545 53.0025 73.2661 53.0025Z" fill="#703A2A"/>
<path d="M57.4292 56.8378C57.7964 56.8378 58.1547 56.8874 58.4978 56.9713C57.6346 56.0115 56.3968 55.4001 55.0089 55.4001C52.4129 55.4001 50.2998 57.5174 50.2998 60.1321V80.1636H52.7171V61.5684C52.7171 58.9553 54.8301 56.8378 57.4292 56.8378Z" fill="#703A2A"/>
<path d="M44.4504 61.1108C44.8476 61.1108 45.2177 61.1895 45.5757 61.3034C44.8921 60.4464 43.8546 59.8896 42.6734 59.8896C40.6262 59.8896 38.9519 61.5632 38.9519 63.6313V79.474H40.7292V64.8572C40.7292 62.7896 42.4011 61.1108 44.4504 61.1108Z" fill="#703A2A"/>
<path d="M34.5119 64.3843C34.0391 63.6567 33.3647 63.1941 32.6123 63.1941C31.1776 63.1941 30.0059 64.8671 30.0059 66.9353V82.7779H32.1634V68.0919C32.1634 66.1468 33.2008 64.5722 34.5119 64.3843Z" fill="#703A2A"/>
<path d="M27.0812 69.4119C26.7378 68.6777 26.2507 68.2148 25.7061 68.2148C24.6686 68.2148 23.8235 69.8884 23.8235 71.9565V87.7939H26.4367V72.2027C26.4367 71.0854 26.6892 70.0951 27.0812 69.4119Z" fill="#703A2A"/>
<path d="M21.4059 91.496V75.6533C21.4059 73.5904 20.9188 71.9116 20.3104 71.9116C19.7078 71.9116 19.217 73.5904 19.217 75.6533V91.496H21.4059Z" fill="#703A2A"/>
<path d="M152.224 63.489V103.385C201.615 100.958 237.878 92.9479 237.878 83.4376C237.878 73.9256 201.615 65.9161 152.224 63.489Z" fill="#AD5D47"/>
<path d="M237.679 82.5461H152.619V139.811H237.679V82.5461Z" fill="#AD5D47"/>
<path d="M192.138 117.19C191.812 117.19 191.493 117.225 191.184 117.293C189.718 118.091 188.713 119.636 188.713 121.429V139.811H196.86V121.926C196.86 119.312 194.744 117.19 192.138 117.19Z" fill="#4D241A"/>
<path d="M17.7237 95.3265V79.4844C17.7237 77.4212 17.4668 75.7422 17.153 75.7422C16.8417 75.7422 16.5864 77.4212 16.5864 79.4844V95.3265H17.7237Z" fill="#703A2A"/>
<path d="M179.623 89.3154C179.042 89.3154 178.493 89.4283 177.971 89.6111C176.331 90.4679 175.19 92.1758 175.19 94.1655V107.388C178.478 107.561 181.66 107.747 184.754 107.945V94.4607C184.754 91.6195 182.457 89.3154 179.623 89.3154Z" fill="#4D241A"/>
<path d="M196.531 139.811L177.135 102.873L177.159 102.824L166.304 82.2999V75.8461C151.494 75.5155 137.446 75.7627 124.603 76.5008L124.444 79.7894C85.663 82.5014 56.4556 88.2373 53.7444 101.204V118.411H147.648L159.202 139.811H196.531Z" fill="#DB7A4F"/>
<path d="M139.327 113.92V86.5488C139.327 82.9798 135.853 80.0798 131.565 80.0798C127.293 80.0798 123.814 82.9798 123.814 86.5488V113.92H139.327Z" fill="#4D241A"/>
<path d="M185.443 94.1654C185.443 91.3189 183.146 89.0149 180.312 89.0149C179.466 89.0149 178.677 89.2416 177.971 89.611C178.493 89.4282 179.042 89.3153 179.623 89.3153C182.457 89.3153 184.754 91.6194 184.754 94.4606V107.945C184.982 107.959 185.215 107.974 185.443 107.989V94.1654Z" fill="#703A2A"/>
<path d="M124.346 74.8018C67.3623 76.4018 17.6532 80.9218 14.0789 98.0333V115.24H129.923L137.488 99.6539L124.346 74.8018Z" fill="#CC734C"/>
<path d="M90.4855 82.1921C91.4777 82.1921 92.4072 82.4379 93.2458 82.8415C92.0665 81.4823 90.3477 80.6064 88.4113 80.6064C84.8662 80.6064 81.9739 83.5006 81.9739 87.0749V114.448H84.0472V88.6613C84.0472 85.0907 86.9377 82.1921 90.4855 82.1921Z" fill="#703A2A"/>
<path d="M94.8565 87.075C94.8565 85.4508 94.2361 83.9788 93.2457 82.8416C92.4071 82.438 91.4776 82.1921 90.4854 82.1921C86.9376 82.1921 84.0471 85.0908 84.0471 88.6614V114.448H94.8565V87.075Z" fill="#4D241A"/>
<path d="M161.168 106.521V87.0749C161.168 83.5006 158.285 80.6064 154.723 80.6064C151.175 80.6064 148.285 83.5006 148.285 87.0749V106.521H161.168Z" fill="#4D241A"/>
<path d="M17.2628 118.051V102.209C17.2628 100.146 17.0082 98.467 16.6947 98.467C16.3808 98.467 16.1255 100.146 16.1255 102.209V118.051H17.2628Z" fill="#703A2A"/>
<path d="M111.532 81.3695C112.824 81.3695 114.023 81.6544 115.094 82.1225C113.679 80.8725 111.686 80.0798 109.463 80.0798C105.189 80.0798 101.708 82.9798 101.708 86.5488V113.92H103.782V87.833C103.782 84.2637 107.264 81.3695 111.532 81.3695Z" fill="#703A2A"/>
<path d="M117.222 86.5487C117.222 84.8308 116.405 83.2799 115.094 82.1224C114.023 81.6543 112.824 81.3694 111.532 81.3694C107.264 81.3694 103.782 84.2636 103.782 87.8329V113.92H117.222V86.5487Z" fill="#4D241A"/>
<path d="M72.9201 84.9538C73.1726 84.9538 73.4106 84.9984 73.6532 85.0273C72.7069 84.3086 71.5372 83.866 70.2557 83.866C67.1467 83.866 64.6074 86.4057 64.6074 89.5373V113.557H67.2716V90.6304C67.2716 87.4933 69.8091 84.9538 72.9201 84.9538Z" fill="#703A2A"/>
<path d="M75.9082 89.5373C75.9082 87.6914 75.0158 86.0659 73.653 85.0273C73.4105 84.9985 73.1724 84.9539 72.92 84.9539C69.8089 84.9539 67.2715 87.4933 67.2715 90.6304V113.557H75.9082V89.5373Z" fill="#4D241A"/>
<path d="M57.7694 87.1975C56.9682 86.5675 55.9725 86.1797 54.8797 86.1797C52.2832 86.1797 50.1675 88.3009 50.1675 90.9101V110.947H53.3248V91.9043C53.3248 89.3785 55.3007 87.3408 57.7694 87.1975Z" fill="#703A2A"/>
<path d="M59.5957 90.9103C59.5957 89.3992 58.8755 88.0652 57.7696 87.1978C55.3008 87.341 53.325 89.3787 53.325 91.9045V110.947H59.5957V90.9103Z" fill="#4D241A"/>
<path d="M44.6369 89.5067C44.0142 89.0402 43.2488 88.7537 42.4105 88.7537C40.3591 88.7537 38.6892 90.4322 38.6892 92.4954V108.338H41.7148V93.1592C41.7148 91.3734 42.97 89.8772 44.6369 89.5067Z" fill="#703A2A"/>
<path d="M46.1422 92.4955C46.1422 91.2693 45.5466 90.1914 44.637 89.5068C42.97 89.8773 41.7148 91.3735 41.7148 93.1593V108.338H46.1422V92.4955Z" fill="#4D241A"/>
<path d="M34.4704 93.2343C34.0045 92.2096 33.2033 91.53 32.2832 91.53C30.8495 91.53 29.6775 93.2038 29.6775 95.2717V111.114H32.9014V96.6603C32.9014 95.1245 33.5485 93.8099 34.4704 93.2343Z" fill="#703A2A"/>
<path d="M34.8971 95.2721C34.8971 94.5188 34.7374 93.8203 34.4704 93.2346C33.5484 93.8103 32.9014 95.1249 32.9014 96.6607V111.115H34.8971V95.2721Z" fill="#4D241A"/>
<path d="M161.958 139.811V121.158C161.958 117.589 159.075 114.694 155.512 114.694C151.964 114.694 149.075 117.589 149.075 121.158V139.811H161.958Z" fill="#4D241A"/>
<path d="M13.2378 115.437V139.811H159.202L140.229 104.675L13.2378 115.437Z" fill="#CC734C"/>
<path d="M26.6918 96.2231C26.3923 94.9373 25.7426 94.041 24.9827 94.041C23.9458 94.041 23.0996 95.7159 23.0996 97.779V113.621H26.3873V98.2414C26.3873 97.4975 26.5031 96.809 26.6918 96.2231Z" fill="#703A2A"/>
<path d="M26.8685 97.7789C26.8685 97.2221 26.8021 96.6944 26.6922 96.2229C26.5033 96.8088 26.3875 97.4973 26.3875 98.2412V113.621H26.8685V97.7789Z" fill="#4D241A"/>
<path d="M21.0775 115.008V99.1709C21.0775 97.1043 20.587 95.4255 19.9815 95.4255C19.3784 95.4255 18.8887 97.1043 18.8887 99.1709V115.008H21.0775Z" fill="#703A2A"/>
<path d="M34.0587 119.981C33.5902 118.872 32.7958 118.145 31.8885 118.145C30.4548 118.145 29.2854 120.001 29.2854 122.29V139.816H32.8376V123.477C32.8376 122 33.3281 120.715 34.0587 119.981Z" fill="#703A2A"/>
<path d="M34.4999 122.29C34.4999 121.434 34.335 120.64 34.0588 119.981C33.3282 120.715 32.8376 122 32.8376 123.477V139.816H34.4999V122.29Z" fill="#4D241A"/>
<path d="M235.113 139.801V123.959C235.113 121.897 234.861 120.217 234.548 120.217C234.231 120.217 233.978 121.897 233.978 123.959V139.801H235.113Z" fill="#703A2A"/>
<path d="M232.748 114.226V101.239C232.748 99.1708 232.493 97.4973 232.176 97.4973C231.862 97.4973 231.61 99.1708 231.61 101.239V113.886C232.005 113.999 232.385 114.113 232.748 114.226Z" fill="#703A2A"/>
<path d="M228.761 113.148V100.294C228.761 98.2263 228.271 96.5527 227.663 96.5527C227.06 96.5527 226.57 98.2263 226.57 100.294V112.665C227.339 112.823 228.068 112.986 228.761 113.148Z" fill="#703A2A"/>
<path d="M209.355 121.635C209.355 119.262 207.686 117.337 205.624 117.337C205.129 117.337 204.661 117.455 204.229 117.657C206.205 117.771 207.777 119.636 207.777 121.931V139.806H209.355V121.635Z" fill="#703A2A"/>
<path d="M206.99 95.6371V109.805C207.512 109.864 208.055 109.919 208.568 109.977V95.3419C208.568 93.274 206.896 91.5955 204.837 91.5955C204.315 91.5955 203.817 91.708 203.364 91.9046C205.376 91.9589 206.99 93.6088 206.99 95.6371Z" fill="#703A2A"/>
<path d="M204.23 117.657C202.867 118.297 201.9 119.834 201.9 121.636V139.806H207.777V121.931C207.777 119.636 206.205 117.771 204.23 117.657Z" fill="#4D241A"/>
<path d="M201.113 95.3421V109.214C203.15 109.402 205.094 109.603 206.989 109.805V95.6373C206.989 93.609 205.376 91.9591 203.364 91.9048C202.042 92.4763 201.113 93.8006 201.113 95.3421Z" fill="#4D241A"/>
<path d="M193.423 116.697C192.606 116.697 191.854 116.924 191.184 117.293C191.493 117.225 191.812 117.19 192.138 117.19C194.744 117.19 196.86 119.311 196.86 121.926V139.811H198.139V121.429C198.139 118.815 196.029 116.697 193.423 116.697Z" fill="#703A2A"/>
<path d="M193.423 89.7488C192.606 89.7488 191.854 89.97 191.184 90.3399C191.493 90.2754 191.812 90.2408 192.138 90.2408C194.744 90.2408 196.86 92.3622 196.86 94.9767V108.845C197.281 108.879 197.723 108.915 198.139 108.949V94.4797C198.139 91.8652 196.029 89.7488 193.423 89.7488Z" fill="#703A2A"/>
<path d="M192.138 90.2407C191.812 90.2407 191.493 90.2754 191.184 90.3399C189.718 91.1462 188.713 92.6831 188.713 94.4797V108.21C191.528 108.408 194.234 108.623 196.86 108.845V94.9766C196.86 92.3622 194.744 90.2407 192.138 90.2407Z" fill="#4D241A"/>
<path d="M231.259 139.812V123.984C231.259 121.61 230.768 119.691 230.164 119.691C229.56 119.691 229.07 121.61 229.07 123.984V139.812H231.259Z" fill="#703A2A"/>
<path d="M221.427 111.715C222.278 111.858 223.109 111.996 223.893 112.139V97.6501C223.893 95.5825 223.052 93.9087 222.01 93.9087C221.359 93.9087 220.782 94.5681 220.443 95.5723C221.03 96.2075 221.427 97.4234 221.427 98.8359V111.715Z" fill="#703A2A"/>
<path d="M224.815 122.615C224.815 120.247 223.971 118.323 222.93 118.323C222.302 118.323 221.749 119.032 221.406 120.109C221.965 120.857 222.349 122.221 222.349 123.806V139.811H224.815V122.615Z" fill="#703A2A"/>
<path d="M220.127 111.504C220.568 111.572 220.997 111.646 221.427 111.716V98.8361C221.427 97.4237 221.03 96.2078 220.443 95.5725C220.245 96.1632 220.127 96.8771 220.127 97.6504V111.504Z" fill="#4D241A"/>
<path d="M221.406 120.109C221.184 120.813 221.049 121.68 221.049 122.615V139.811H222.349V123.806C222.349 122.221 221.966 120.857 221.406 120.109Z" fill="#4D241A"/>
<path d="M214.716 97.4873V110.725C215.349 110.809 215.984 110.893 216.592 110.976V96.5918C216.592 94.5236 215.425 92.8503 213.981 92.8503C213.336 92.8503 212.746 93.204 212.292 93.7708C213.645 93.9088 214.716 95.5092 214.716 97.4873Z" fill="#703A2A"/>
<path d="M217.646 122.467C217.646 120.094 216.479 118.175 215.035 118.175C214.427 118.175 213.872 118.534 213.432 119.11C214.743 119.332 215.771 121.139 215.771 123.359V139.811H217.646V122.467Z" fill="#703A2A"/>
<path d="M211.378 110.302C212.524 110.44 213.633 110.583 214.716 110.725V97.4875C214.716 95.5093 213.645 93.909 212.292 93.771C211.736 94.4553 211.378 95.4597 211.378 96.592V110.302Z" fill="#4D241A"/>
<path d="M213.432 119.11C212.827 119.897 212.43 121.099 212.43 122.467V139.811H215.771V123.359C215.771 121.139 214.743 119.332 213.432 119.11Z" fill="#4D241A"/>
<path d="M179.128 139.811V121.247C179.128 118.111 176.596 115.57 173.472 115.57C170.359 115.57 167.824 118.111 167.824 121.247V139.811H179.128Z" fill="#4D241A"/>
<path d="M140.117 139.811V119.641C140.117 116.067 136.643 113.172 132.355 113.172C128.082 113.172 124.603 116.067 124.603 119.641V139.811H140.117Z" fill="#4D241A"/>
<path d="M111.434 114.955C113.005 114.955 114.462 115.354 115.684 116.017C114.282 114.877 112.368 114.163 110.252 114.163C105.981 114.163 102.5 117.063 102.5 120.632V139.812H103.684V121.424C103.684 117.855 107.164 114.955 111.434 114.955Z" fill="#703A2A"/>
<path d="M118.014 120.631C118.014 118.825 117.116 117.194 115.684 116.017C114.461 115.353 113.005 114.955 111.434 114.955C107.163 114.955 103.684 117.855 103.684 121.424V139.811H118.014V120.631Z" fill="#4D241A"/>
<path d="M91.1766 115.619C91.7824 115.619 92.3531 115.727 92.91 115.886C91.8579 115.141 90.5857 114.694 89.2007 114.694C85.6535 114.694 82.7656 117.589 82.7656 121.158V139.811H84.7386V122.083C84.7386 118.514 87.6265 115.619 91.1766 115.619Z" fill="#703A2A"/>
<path d="M95.6483 121.158C95.6483 118.977 94.5599 117.058 92.9101 115.886C92.3532 115.727 91.7825 115.619 91.1768 115.619C87.6267 115.619 84.7388 118.514 84.7388 122.083V139.811H95.6483V121.158Z" fill="#4D241A"/>
<path d="M73.2166 116.856C73.7118 116.856 74.1824 116.939 74.6385 117.063C73.6358 116.142 72.3142 115.57 70.8456 115.57C67.7351 115.57 65.2 118.111 65.2 121.247V139.811H67.5683V122.531C67.5683 119.4 70.1058 116.856 73.2166 116.856Z" fill="#703A2A"/>
<path d="M76.5017 121.247C76.5017 119.583 75.7763 118.096 74.6385 117.062C74.1825 116.939 73.7118 116.856 73.2166 116.856C70.1058 116.856 67.5684 119.4 67.5684 122.531V139.811H76.5017V121.247Z" fill="#4D241A"/>
<path d="M57.3457 118.085C57.5221 118.085 57.6912 118.12 57.8652 118.135C57.0073 117.249 55.811 116.697 54.4845 116.697C51.8908 116.697 49.7749 118.815 49.7749 121.429V139.811H52.6361V122.817C52.6361 120.203 54.7523 118.085 57.3457 118.085Z" fill="#703A2A"/>
<path d="M59.2012 121.429C59.2012 120.149 58.6885 118.987 57.8651 118.135C57.691 118.12 57.522 118.085 57.3456 118.085C54.7522 118.085 52.636 120.203 52.636 122.817V139.811H59.2012V121.429Z" fill="#4D241A"/>
<path d="M44.2005 118.987C43.5167 118.075 42.5357 117.49 41.4232 117.49C39.3739 117.49 37.7014 119.479 37.7014 121.931V139.811H40.8593V123.388C40.8593 121.089 42.3297 119.218 44.2005 118.987Z" fill="#703A2A"/>
<path d="M45.1563 121.931C45.1563 120.799 44.7889 119.775 44.2004 118.987C42.3296 119.218 40.8591 121.089 40.8591 123.388V139.811H45.1563V121.931Z" fill="#4D241A"/>
<path d="M27.3093 120.808C27.0226 119.332 26.3531 118.292 25.5736 118.292C24.5369 118.292 23.6934 120.149 23.6934 122.433V139.811H26.8481V123.492C26.8481 122.462 27.025 121.537 27.3093 120.808Z" fill="#703A2A"/>
<path d="M27.4621 122.433C27.4621 121.856 27.4079 121.31 27.3098 120.808C27.0252 121.537 26.8481 122.462 26.8481 123.492V139.811H27.4621V122.433Z" fill="#4D241A"/>
<path d="M21.2765 139.811V123.752C21.2765 121.463 20.7834 119.607 20.1779 119.607C19.575 119.607 19.0842 121.463 19.0842 123.752V139.811H21.2765Z" fill="#703A2A"/>
<path d="M17.2338 139.811V124.648C17.2338 122.363 16.9814 120.508 16.6649 120.508C16.3511 120.508 16.0986 122.363 16.0986 124.648V139.811H17.2338Z" fill="#703A2A"/>
<path d="M17.4592 61.9237V65.1427C28.2974 51.7969 58.772 41.0497 98.2588 36.3132L95.9673 31.248C57.9608 36.4717 28.5645 47.8333 17.4592 61.9237Z" fill="#E8B16D"/>
<path d="M121.201 68.7954C68.3121 70.4897 26.0228 78.9526 14.9664 89.857C13.1134 91.6838 12.1055 93.5783 12.1055 95.5231C12.1055 97.1434 12.8063 98.7232 14.1111 100.264V97.7038H14.2554C14.3487 97.0649 14.5938 96.4291 14.9664 95.7997C21.1982 85.2985 66.7277 76.9088 124.685 75.447L121.201 68.7954Z" fill="#9E4B35"/>
<path d="M140.553 105.335C140.453 105.335 140.354 105.335 140.254 105.335C76.1242 105.335 22.9774 109.205 13.2963 114.27C12.2618 114.811 11.708 115.368 11.708 115.93C11.708 116.48 12.2202 117.027 13.2054 117.554C13.9267 117.278 14.8706 117.002 15.988 116.736C30.9796 113.133 80.7331 110.484 139.856 110.484C141.023 110.484 142.164 110.494 143.321 110.494L140.553 105.335Z" fill="#9E4B35"/>
<path d="M137.02 98.7383C73.2923 99.0038 21.4137 104.646 14.0789 111.863V113.915C25.5149 109.027 77.6371 105.335 140.254 105.335C140.354 105.335 140.453 105.335 140.553 105.335L137.02 98.7383Z" fill="#E8B16D"/>
<path d="M111.071 64.7788C62.8836 67.5657 24.7987 76.9582 14.6936 89.1379V90.1232C25.1766 79.7847 63.977 71.3861 113.012 69.1167L111.071 64.7788Z" fill="#E8B16D"/>
<path d="M98.3548 36.3574C88.8453 37.4896 79.8259 38.9477 71.5082 40.7341C42.2543 47.0068 21.2765 57.0055 14.9982 68.6486C13.7133 71.0308 13.0244 73.4727 13.0244 75.9735C13.0244 78.3618 13.6665 80.7002 14.8409 82.9799C14.8213 82.6695 14.7695 82.3598 14.7695 82.0489C14.7695 81.2518 14.8631 80.4591 14.9982 79.6706C17.9593 62.3913 52.9398 47.9032 101.013 42.3001L98.3548 36.3574Z" fill="#9E4B35"/>
<path d="M237.306 139.376C237.635 139.285 237.97 139.213 238.298 139.116C239.991 138.611 241.741 137.94 242.847 136.559C243.205 136.112 243.489 135.584 243.531 135.012C243.665 133.159 241.399 132.132 239.552 132.018C236.696 131.841 233.809 132.563 231.328 133.991C233.142 132.434 234.713 130.593 235.943 128.54C236.141 128.209 236.326 127.766 236.085 127.465C235.863 127.185 235.433 127.232 235.087 127.318C230.968 128.328 227.264 130.951 224.935 134.51C227.164 131.537 229.13 128.365 230.798 125.043C231.302 124.04 231.782 122.846 231.294 121.836C227.498 123.431 224.366 126.556 222.75 130.357C223.914 127.836 224.698 125.139 225.068 122.386C225.179 121.551 225.249 120.676 224.945 119.891C224.641 119.107 223.857 118.449 223.027 118.561C222.405 118.645 221.913 119.116 221.493 119.585C217.961 123.528 216.254 129.056 216.943 134.313L217.107 141.95C218.079 142.716 219.401 142.809 220.635 142.871C228.329 143.255 236.341 143.584 243.408 140.505C241.449 139.715 239.397 139.398 237.306 139.376Z" fill="#579326"/>
<path d="M155.593 138.571C155.358 137.802 154.491 137.175 153.755 137.492C154.553 136.686 155.404 135.756 155.413 134.62C155.422 133.485 153.975 132.424 153.143 133.195C153.512 132.54 153.821 131.798 153.708 131.055C153.593 130.31 152.903 129.617 152.166 129.751C153.457 128.616 153.197 126.196 151.693 125.364C152.184 124.559 152.448 123.617 152.451 122.673C152.452 122.242 152.37 121.757 152.023 121.503C151.753 121.306 151.311 121.402 151.15 121.654C151.369 120.658 151.044 119.549 150.296 118.852C149.999 118.577 149.621 118.358 149.216 118.359C148.475 118.362 147.916 119.12 147.856 119.862C147.797 120.603 148.103 121.319 148.402 122C147.075 121.765 145.887 123.095 145.743 124.44C145.598 125.785 146.185 127.089 146.758 128.314C146.539 127.78 145.763 127.676 145.282 127.992C144.8 128.307 144.565 128.889 144.435 129.451C143.993 131.356 144.463 133.452 145.675 134.981C144.977 134.231 143.597 135.048 143.485 136.07C143.373 137.091 144.026 138.021 144.645 138.838C144.289 138.132 143.117 138.275 142.7 138.946C142.282 139.619 142.449 140.507 142.795 141.22C143.14 141.931 143.649 142.562 143.928 143.303L154.61 142.424C155.038 142.052 155.227 141.482 155.388 140.937C155.618 140.167 155.83 139.339 155.593 138.571Z" fill="#579326"/>
<path d="M22.6913 139.033C22.4169 138.144 21.415 137.419 20.5625 137.785C21.4855 136.853 22.4702 135.777 22.4812 134.463C22.4906 133.149 20.8181 131.921 19.8554 132.813C20.2824 132.055 20.6409 131.196 20.5082 130.337C20.3759 129.476 19.5768 128.673 18.7244 128.829C20.2186 127.516 19.9165 124.716 18.1782 123.753C18.7447 122.821 19.051 121.731 19.0536 120.639C19.0547 120.14 18.9611 119.581 18.5587 119.286C18.2472 119.057 17.735 119.169 17.5489 119.46C17.8035 118.306 17.4261 117.025 16.5606 116.22C16.2167 115.9 15.7803 115.646 15.312 115.648C14.4543 115.651 13.8062 116.529 13.7378 117.386C13.6704 118.244 14.0237 119.073 14.3707 119.86C12.8346 119.589 11.459 121.127 11.2928 122.683C11.1256 124.241 11.8045 125.748 12.4667 127.167C12.2148 126.548 11.3169 126.429 10.7592 126.793C10.2021 127.158 9.9308 127.832 9.78028 128.482C9.26861 130.686 9.81216 133.111 11.2134 134.88C10.4059 134.011 8.81025 134.959 8.68115 136.14C8.55153 137.321 9.30624 138.396 10.0228 139.343C9.61042 138.525 8.25415 138.691 7.77227 139.469C7.28882 140.246 7.48115 141.274 7.8815 142.099C8.28185 142.923 8.86983 143.652 9.19282 144.509L21.5519 143.491C22.0468 143.062 22.2669 142.402 22.4535 141.772C22.7184 140.881 22.9641 139.923 22.6913 139.033Z" fill="#79A958"/>
<path d="M51.6016 137.871C51.2618 137.275 50.3937 137.298 49.7477 137.522C49.3845 137.648 49.0416 137.824 48.716 138.025C49.0934 137.219 49.3782 136.371 49.5533 135.498C49.6923 134.804 49.661 133.9 49.015 133.616C48.5561 133.415 48.0303 133.654 47.6064 133.923C46.6537 134.527 45.8326 135.319 45.1479 136.218C46.5246 133.653 47.3885 130.812 47.6394 127.908C45.2901 128.836 43.4592 130.913 42.7118 133.325C43.5653 129.284 44.2239 125.122 43.1901 121.154C39.9402 123.991 38.2939 128.566 38.9864 132.833C37.7415 129.027 37.6981 124.81 35.7789 121.3C35.6247 121.017 35.4449 120.728 35.1622 120.577C34.6516 120.305 33.9857 120.608 33.6679 121.093C33.3512 121.578 33.2979 122.186 33.276 122.766C33.1458 126.099 33.7395 129.459 35.0023 132.545C33.8362 130.444 32.6707 128.342 31.5052 126.24C30.705 124.798 29.7507 123.227 28.1686 122.775C27.6507 123.952 28.0265 125.314 28.4331 126.533C29.457 129.603 30.6455 132.617 31.9929 135.558C30.7071 133.001 28.9955 130.661 26.9519 128.662C26.5615 128.28 26.0185 127.883 25.5204 128.104C24.9272 128.368 24.9716 129.221 25.1399 129.85C25.9787 132.991 27.4479 135.957 29.4277 138.529C27.5206 136.271 25.2779 134.207 22.4383 133.567C22.0939 133.489 21.6695 133.462 21.4557 133.743C21.2341 134.035 21.3935 134.453 21.5629 134.78C23.4632 138.442 25.8596 141.844 28.6631 144.865L48.2807 145.451C50.1105 143.742 51.3371 141.396 51.6988 138.914C51.7495 138.562 51.7787 138.18 51.6016 137.871Z" fill="#579326"/>
<path d="M68.8228 138.213C67.7692 137.292 65.9415 137.336 65.089 138.447C65.412 137.922 65.7434 137.375 65.8155 136.764C65.8876 136.151 65.6211 135.452 65.0509 135.225C64.7295 135.095 64.3683 135.133 64.027 135.184C62.6948 135.384 61.3903 135.765 60.1605 136.314C60.3324 134.969 59.3368 133.578 58.0129 133.312C56.688 133.046 55.2366 133.946 54.8791 135.254C54.5566 133.83 52.9265 132.859 51.5289 133.256C50.1303 133.651 49.2476 135.336 49.7143 136.718C48.8916 136.082 47.8976 135.599 46.8591 135.624C45.82 135.65 44.7559 136.289 44.4627 137.29C44.261 137.983 44.5599 138.783 45.1045 139.219C44.0394 138.856 42.911 138.682 41.7883 138.726C42.4035 142.013 44.85 144.89 47.9864 146.013L66.7741 144.977C68.0451 144.396 69.173 143.391 69.6585 142.078C70.1441 140.763 69.8754 139.134 68.8228 138.213Z" fill="#79A958"/>
</svg>
