<svg width="134" height="195" viewBox="0 0 134 195" fill="none" xmlns="http://www.w3.org/2000/svg">
<rect width="133.978" height="194.305" fill="black" fill-opacity="0"/>
<path opacity="0.3" d="M61.4746 194.305C94.525 194.305 121.318 192.364 121.318 189.97C121.318 187.577 94.525 185.636 61.4746 185.636C28.4242 185.636 1.63159 187.577 1.63159 189.97C1.63159 192.364 28.4242 194.305 61.4746 194.305Z" fill="black"/>
<rect width="133.978" height="193.113" fill="black" fill-opacity="0"/>
<rect width="29.6368" height="50.3237" fill="black" fill-opacity="0" transform="translate(104.341 142.79)"/>
<rect width="20.0193" height="48.3083" fill="black" fill-opacity="0" transform="translate(104.341 142.79)"/>
<path d="M122.138 172.951C123.861 172.538 124.748 170.378 124.198 168.694C123.647 167.012 122.03 165.856 120.329 165.364C121.231 163.995 122.174 162.45 121.908 160.833C121.663 159.339 119.746 158.188 118.582 158.973C119.934 157.829 120.884 156.05 120.424 154.357C119.981 152.72 117.795 151.721 116.447 152.574C117.738 151.398 117.879 149.089 116.603 147.853C115.204 146.498 112.55 146.869 111.578 148.557C112.297 147.441 112.877 146.235 113.298 144.975C113.488 144.411 113.633 143.744 113.288 143.256C112.765 142.513 111.605 142.781 110.803 143.212C108.201 144.604 106.1 146.907 104.953 149.624L104.341 187.103C104.524 187.967 105.473 188.454 106.352 188.555C107.229 188.656 108.129 188.498 108.998 188.655C109.701 188.783 110.349 189.11 110.986 189.436C112.785 190.352 114.722 191.297 116.729 191.062C118.736 190.829 120.662 188.854 120.048 186.93C122.758 185.328 123.328 181.049 121.13 178.793C122.307 178.05 123.563 177.208 124.013 175.891C124.461 174.575 123.517 172.762 122.138 172.951Z" fill="#79A958"/>
<rect width="25.9612" height="23.7351" fill="black" fill-opacity="0" transform="translate(108.017 169.378)"/>
<path d="M127.93 189.503C128.25 189.415 128.575 189.346 128.893 189.252C130.536 188.764 132.235 188.116 133.308 186.781C133.656 186.349 133.932 185.839 133.973 185.286C134.103 183.496 131.904 182.504 130.11 182.393C127.338 182.222 124.535 182.92 122.127 184.3C123.888 182.795 125.412 181.017 126.607 179.033C126.799 178.713 126.979 178.285 126.745 177.994C126.529 177.724 126.112 177.769 125.776 177.852C121.778 178.828 118.182 181.363 115.921 184.801C118.085 181.929 119.993 178.864 121.612 175.654C122.102 174.685 122.568 173.531 122.094 172.555C118.409 174.096 115.368 177.115 113.799 180.788C114.93 178.352 115.691 175.746 116.05 173.086C116.158 172.28 116.226 171.434 115.931 170.676C115.635 169.918 114.875 169.283 114.069 169.39C113.465 169.472 112.988 169.927 112.58 170.38C109.151 174.19 107.494 179.531 108.163 184.611L108.322 191.99C109.265 192.731 110.549 192.821 111.747 192.88C119.216 193.251 126.993 193.569 133.853 190.594C131.952 189.831 129.959 189.524 127.93 189.503Z" fill="#579326"/>
<rect width="21.1964" height="130.587" fill="black" fill-opacity="0" transform="translate(-6.10352e-05 57.2449)"/>
<path d="M1.09576 61.1869L8.97299 58.7117L9.48695 67.8944L14.4395 73.2667L19.783 183.038L13.7168 187.832L13.6442 186.539L18.0481 181.974L13.0613 74.4779L4.12063 70.2327L1.09576 61.1869Z" fill="#8A8294"/>
<path d="M-6.10352e-05 60.2594L0.111304 62.2473L10.0273 59.0898L9.9241 57.2449L-6.10352e-05 60.2594Z" fill="#6E6775"/>
<path d="M12.8989 79.951L13.0369 82.4149L17.286 81.921L17.0755 79.7175L12.8989 79.951Z" fill="#6E6775"/>
<path d="M14.3997 106.764L13.7538 109.271L18.7153 109.014L18.451 106.538L14.3997 106.764Z" fill="#6E6775"/>
<path d="M15.0651 135.749L14.419 138.256L19.3807 137.999L19.1161 135.523L15.0651 135.749Z" fill="#6E6775"/>
<path d="M16.8807 163.876L16.2348 166.382L21.1962 166.126L20.9319 163.65L16.8807 163.876Z" fill="#6E6775"/>
<path d="M16.9 179.786L18.0481 181.975L20.9276 181.548L20.9005 179.619L16.9 179.786Z" fill="#6E6775"/>
<rect width="22.276" height="137.241" fill="black" fill-opacity="0" transform="translate(107.855 53.2524)"/>
<path d="M128.979 57.3962L120.701 54.7944L120.161 64.4449L114.956 70.0916L109.34 185.457L115.715 190.494L115.792 189.135L111.163 184.339L116.404 71.3638L125.8 66.9026L128.979 57.3962Z" fill="#494252"/>
<path d="M130.131 56.4208L130.014 58.5102L119.593 55.192L119.701 53.2524L130.131 56.4208Z" fill="#2E2933"/>
<path d="M116.575 77.116L116.43 79.7056L111.965 79.1864L112.185 76.8706L116.575 77.116Z" fill="#2E2933"/>
<path d="M114.998 105.296L115.676 107.93L110.462 107.66L110.74 105.057L114.998 105.296Z" fill="#2E2933"/>
<path d="M114.298 135.757L114.977 138.391L109.763 138.122L110.041 135.519L114.298 135.757Z" fill="#2E2933"/>
<path d="M112.39 165.318L113.069 167.952L107.855 167.682L108.133 165.08L112.39 165.318Z" fill="#2E2933"/>
<path d="M112.37 182.038L111.163 184.339L108.137 183.89L108.166 181.863L112.37 182.038Z" fill="#2E2933"/>
<rect width="121.597" height="191.374" fill="black" fill-opacity="0" transform="translate(2.87415)"/>
<rect width="94.6437" height="8.38914" fill="black" fill-opacity="0" transform="translate(18.9533 182.985)"/>
<path d="M102.066 188.811C105.909 188.644 109.753 188.477 113.597 188.311C113.049 186.536 112.5 184.761 111.949 182.985C109.234 183.103 106.52 183.22 103.807 183.338C103.225 185.162 102.645 186.987 102.066 188.811Z" fill="#E3E6E0"/>
<path d="M75.8585 189.948C79.6982 189.781 83.5386 189.615 87.3798 189.448C86.8086 187.673 86.236 185.898 85.6622 184.123C82.9501 184.24 80.2383 184.358 77.527 184.475C76.9696 186.3 76.4133 188.124 75.8585 189.948Z" fill="#E3E6E0"/>
<path d="M42.2983 191.121C44.5211 191.119 46.7438 191.118 48.9665 191.116C50.5475 191.047 52.1284 190.979 53.7093 190.91C53.1152 189.134 52.5198 187.36 51.9229 185.584C49.2179 185.702 46.5132 185.819 43.809 185.936C43.3042 187.664 42.8006 189.393 42.2983 191.121Z" fill="#E3E6E0"/>
<path d="M18.9533 191.374C22.7828 191.208 26.6131 191.041 30.4444 190.875C29.8328 189.099 29.2202 187.324 28.6058 185.549C25.8985 185.666 23.1913 185.784 20.4845 185.901C19.9726 187.726 19.4622 189.55 18.9533 191.374Z" fill="#E3E6E0"/>
<rect width="121.597" height="5.09106" fill="black" fill-opacity="0" transform="translate(2.87408 45.2214)"/>
<path d="M2.87408 45.2991C2.87459 45.2991 4.07804 48.7538 4.83096 50.3125C4.83096 50.3125 6.41036 50.2861 9.05471 50.2344C20.7693 50.0113 53.4794 49.3955 64.1177 49.4829C71.208 49.5357 86.8042 49.5347 100.045 49.6105C108.496 49.665 115.983 49.7385 119.681 49.8713C120.854 49.9195 121.641 49.953 121.962 50.0159C122.797 48.4997 123.633 46.9836 124.471 45.4675C124.471 45.4675 112.074 45.4135 97.9176 45.3836C85.5974 45.344 71.935 45.3222 63.9416 45.3448C46.7681 45.4185 8.39007 45.0735 2.87408 45.2991Z" fill="#47A19A"/>
<rect width="12.1375" height="26.088" fill="black" fill-opacity="0" transform="translate(106.855 15.762)"/>
<path d="M106.876 32.1975C106.929 32.2614 106.985 32.3197 107.038 32.382C107.323 32.7053 107.895 33.3589 108.403 33.9311C108.534 34.0691 108.663 34.2161 108.774 34.3348C108.914 34.4899 109.064 34.6456 109.224 34.7914C110.825 36.4462 112.495 37.889 114.103 39.145C114.103 39.1481 114.103 39.1509 114.103 39.1544C114.258 39.271 114.412 39.3882 114.567 39.5053C114.627 39.5507 114.687 39.5961 114.747 39.6409C114.954 39.7969 115.162 39.9528 115.369 40.109C115.48 40.1898 115.597 40.272 115.705 40.3526C116.456 40.8919 117.197 41.3939 117.898 41.85C117.898 41.85 117.915 41.26 117.943 40.2613C117.96 39.6719 117.977 39.0814 117.994 38.4917C118.048 36.3716 118.144 33.4499 118.246 30.3867C118.275 29.5683 118.304 28.7502 118.333 27.9315C118.372 26.9225 118.418 25.9139 118.457 24.934C118.456 24.9054 118.455 24.877 118.455 24.8481C118.619 20.9645 118.802 17.4708 118.993 15.762C115.165 15.9161 111.337 16.0708 107.51 16.2252C107.51 16.2252 107.522 17.9352 107.448 20.7325C107.373 23.6149 107.209 27.6514 106.855 32.1698C106.855 32.1698 106.865 32.1782 106.876 32.1975Z" fill="#5AB8B3"/>
<rect width="18.2058" height="3.75533" fill="black" fill-opacity="0" transform="translate(103.465 12.4712)"/>
<path d="M103.465 13.2044C104.805 14.2119 106.143 15.2192 107.479 16.2265C111.316 16.0719 115.154 15.917 118.993 15.762C119.884 14.6653 120.777 13.5682 121.671 12.4712C115.6 12.7159 109.532 12.96 103.465 13.2044Z" fill="#257B80"/>
<rect width="19.3902" height="3.18767" fill="black" fill-opacity="0" transform="translate(102.841 1.99365)"/>
<path d="M102.841 5.18132C109.302 4.9217 115.765 4.66208 122.231 4.40272C121.632 3.59953 121.034 2.7971 120.434 1.99365C120.434 2.0005 120.434 2.00684 120.434 2.01292C118.573 2.08442 116.713 2.15591 114.852 2.22741C111.932 2.34099 109.011 2.45534 106.092 2.56917C105.007 3.4398 103.923 4.31043 102.841 5.18132Z" fill="#6BC8C7"/>
<rect width="19.3902" height="8.80164" fill="black" fill-opacity="0" transform="translate(102.841 4.40283)"/>
<path d="M102.841 5.18143C103.05 7.85569 103.258 10.5302 103.465 13.2045C109.532 12.9601 115.6 12.7159 121.671 12.4713C121.857 9.78178 122.044 7.09205 122.231 4.40283C115.765 4.6622 109.302 4.92181 102.841 5.18143Z" fill="#5AB8B3"/>
<rect width="14.4087" height="2.5693" fill="black" fill-opacity="0" transform="translate(106.026)"/>
<path d="M106.026 0.0730174C106.048 0.905112 106.07 1.73746 106.092 2.5693C110.871 2.37763 115.652 2.18596 120.434 1.99378C120.421 1.32953 120.407 0.664763 120.394 0C118.051 0.0116625 115.709 0.0233249 113.368 0.0344805C110.92 0.0471573 108.473 0.0603408 106.026 0.0730174Z" fill="#5AB8B3"/>
<rect width="110.627" height="5.12169" fill="black" fill-opacity="0" transform="translate(9.05475 49.4744)"/>
<path d="M9.05475 50.2343C9.6788 51.5795 10.3018 52.925 10.9239 54.2705C10.9239 54.2705 15.935 54.3788 22.8625 54.4744C23.143 54.4789 23.4236 54.4835 23.7042 54.4881C28.6337 54.5423 34.4251 54.5902 40.0875 54.5961C40.0642 54.5271 40.0411 54.4579 40.0177 54.3889C43.4713 54.4029 46.9249 54.4171 50.3785 54.431C50.3727 54.4597 50.3671 54.4881 50.3612 54.5172C50.6144 54.5068 50.8655 54.4962 51.1076 54.4959C56.2415 54.4084 65.0837 54.284 74.6824 54.1661C83.3435 54.0685 92.634 53.9635 100.386 53.8735C102.244 53.8451 104.025 53.8291 105.679 53.8088C105.662 53.7465 105.644 53.6838 105.627 53.6217C109.078 53.6385 112.528 53.6549 115.979 53.6717C115.976 53.6816 115.973 53.6912 115.97 53.7006C117.363 53.6912 118.139 53.679 118.139 53.679C118.652 52.4098 119.166 51.1404 119.681 49.8712C115.983 49.7384 108.496 49.6648 100.045 49.6103C86.8042 49.5345 71.208 49.5355 64.1177 49.4828C53.4797 49.3953 20.7694 50.0112 9.05475 50.2343Z" fill="#257B80"/>
<rect width="24.1389" height="136.636" fill="black" fill-opacity="0" transform="translate(21.2017 54.488)"/>
<path d="M24.7029 191.124C27.069 191.122 29.4353 191.121 31.8011 191.119C34.7793 191.12 37.7572 191.12 40.7352 191.121C41.2562 191.121 41.7773 191.12 42.2983 191.12C42.8006 189.392 43.3042 187.664 43.809 185.936C44.3176 185.914 44.826 185.892 45.3349 185.87C45.466 169.312 43.3009 120.696 43.4866 101.585C43.6905 82.4735 42.9995 60.2037 42.9972 60.2037C42.6433 60.2179 42.2892 60.2328 41.9356 60.2473C41.3207 58.3635 40.7047 56.4798 40.0875 54.596C34.4249 54.5902 28.6337 54.5423 23.7042 54.488C23.2768 56.3231 22.8503 58.1582 22.4246 59.9932C22.017 60.01 21.6093 60.0267 21.2017 60.0434C21.2131 60.0434 23.9477 125.006 24.861 143.761C25.8102 162.507 27.0906 185.615 27.0893 185.615C27.5946 185.592 28.1005 185.571 28.6058 185.549C29.2202 187.324 29.8328 189.099 30.4444 190.874C28.5302 190.958 26.6164 191.041 24.7029 191.124Z" fill="#A2A29B"/>
<g opacity="0.26">
<rect width="24.1389" height="136.636" fill="black" fill-opacity="0" transform="translate(21.2017 54.488)"/>
<path opacity="0.26" d="M31.8011 191.119C30.796 188.575 29.7879 186.03 28.7762 183.485C26.9701 143.256 25.101 103.027 23.1694 62.7983C23.4749 62.1929 23.7803 61.587 24.086 60.9815C24.6388 59.4362 25.1925 57.8904 25.7476 56.3454C29.9797 56.3905 34.2121 56.4352 38.4437 56.4803C39.2719 58.4251 40.0979 60.3705 40.9221 62.3156C41.9772 102.486 42.9985 142.656 43.9863 182.827C43.3404 183.242 42.6951 183.656 42.0497 184.072C41.6101 186.421 41.172 188.771 40.7352 191.121C41.2562 191.121 41.7773 191.12 42.2983 191.12C42.8006 189.392 43.3042 187.664 43.809 185.936C44.3176 185.914 44.826 185.892 45.3349 185.87C45.466 169.312 43.3009 120.696 43.4866 101.585C43.6905 82.4735 42.9995 60.2037 42.9972 60.2037C42.6433 60.2179 42.2892 60.2328 41.9356 60.2473C41.3207 58.3635 40.7047 56.4798 40.0875 54.596C34.4249 54.5902 28.6337 54.5423 23.7042 54.488C23.2768 56.3231 22.8503 58.1582 22.4246 59.9932C22.017 60.01 21.6093 60.0267 21.2017 60.0434C21.2131 60.0434 23.9477 125.006 24.861 143.761C25.8102 162.507 27.0906 185.615 27.0893 185.615C27.5946 185.592 28.1005 185.571 28.6058 185.549C29.2202 187.324 29.8328 189.099 30.4444 190.874C28.5302 190.958 26.6164 191.041 24.7029 191.124C27.069 191.122 29.4353 191.121 31.8011 191.119Z" fill="#0A1C44"/>
</g>
<rect width="30.8306" height="136.743" fill="black" fill-opacity="0" transform="translate(47.9685 54.1663)"/>
<path d="M50.5251 185.645C50.9911 185.625 51.4571 185.605 51.9229 185.584C52.5198 187.36 53.1151 189.134 53.7093 190.91C61.0893 190.589 68.4723 190.269 75.8584 189.948C76.4132 188.124 76.9696 186.299 77.5269 184.475C77.9508 184.457 78.3749 184.438 78.7991 184.42C78.0761 167.263 77.4297 103.98 77.1834 93.1692C76.9366 82.3703 77.0439 60.7246 77.0441 60.7246C76.8711 60.7317 76.6979 60.7391 76.5246 60.7459C75.9148 58.7937 75.3036 56.8418 74.6908 54.8896C74.688 54.6487 74.6849 54.4076 74.6824 54.1663C65.0834 54.2842 56.2415 54.4086 51.1075 54.4961C50.8655 54.4964 50.6144 54.507 50.3612 54.5174C49.9198 56.3299 49.4789 58.1429 49.0393 59.9554C48.6824 59.9701 48.3254 59.9848 47.9685 59.9995C47.9675 59.9995 48.1643 90.2414 48.8483 104.538C49.5373 118.844 50.3424 174.818 50.5251 185.645Z" fill="#A2A29B"/>
<rect width="33.238" height="135.639" fill="black" fill-opacity="0" transform="translate(74.6824 53.8091)"/>
<path d="M77.1789 54.9008C79.8014 54.9137 82.4242 54.9269 85.0467 54.9396C84.567 56.7782 84.0881 58.6166 83.6104 60.4549C83.2601 60.4691 82.9095 60.4833 82.5592 60.498C82.5599 60.498 82.5754 83.0386 82.2662 93.5947C81.8828 106.977 83.5373 142.54 83.7279 153.35C83.9463 164.149 84.478 178.765 84.0422 184.193C84.5822 184.17 85.1221 184.146 85.6622 184.123C86.236 185.898 86.8085 187.673 87.3798 189.448C92.274 189.235 97.1695 189.023 102.066 188.811C102.645 186.987 103.225 185.162 103.807 183.338C104.139 183.323 104.472 183.309 104.805 183.295C104.803 183.295 105.736 169.894 105.765 157.169C105.782 144.462 106.509 112.617 106.537 100.538C106.56 88.4586 107.917 59.9793 107.92 59.9793C107.916 59.8051 107.912 59.6312 107.908 59.457C107.734 59.4639 107.561 59.4712 107.388 59.4783C106.82 57.5885 106.25 55.6989 105.679 53.8091C97.7832 53.9052 87.1845 54.0253 77.1507 54.1415C76.3283 54.146 75.495 54.1617 74.6824 54.1663C74.685 54.4077 74.688 54.6488 74.6908 54.8896C75.5201 54.8937 76.3496 54.897 77.1789 54.9008Z" fill="#A2A29B"/>
<rect width="97.9237" height="126.662" fill="black" fill-opacity="0" transform="translate(16.0367 59.2085)"/>
<path d="M78.7991 184.42C80.5464 184.345 82.2942 184.269 84.0421 184.193C84.4779 178.765 83.9465 164.149 83.7278 153.35C83.5373 142.54 81.883 106.977 82.2661 93.5947C82.5753 83.0386 82.5599 60.498 82.5591 60.498C80.7207 60.5733 78.8823 60.6492 77.0441 60.7247C77.0439 60.7247 76.9366 82.3703 77.1834 93.1693C77.4297 103.98 78.0761 167.263 78.7991 184.42Z" fill="#C3CABA"/>
<path d="M45.3348 185.87C47.0646 185.795 48.7947 185.72 50.525 185.645C50.3424 174.818 49.5372 118.844 48.8482 104.538C48.1643 90.2414 47.9675 59.9995 47.9685 59.9995C46.3112 60.0675 44.6542 60.1354 42.9971 60.2039C42.9992 60.2039 43.6904 82.4737 43.4865 101.585C43.3008 120.696 45.4659 169.312 45.3348 185.87Z" fill="#C3CABA"/>
<path d="M21.4885 185.858C23.3551 185.777 25.2221 185.696 27.0892 185.615C27.0902 185.615 25.8102 162.507 24.8609 143.761C23.9477 125.006 21.213 60.0437 21.2016 60.0437C19.5961 60.1096 17.9905 60.176 16.3852 60.242C15.6985 61.3484 15.9994 96.1696 17.5296 104.889C19.3619 115.263 21.4936 185.858 21.4885 185.858Z" fill="#C3CABA"/>
<path d="M104.805 183.295C106.847 183.206 108.889 183.118 110.932 183.03C111.414 175.693 111.65 140.384 111.895 127.537C112.079 118.303 112.583 100.912 112.668 90.1055C112.748 79.2979 113.958 59.2085 113.96 59.2085C111.943 59.2911 109.925 59.3738 107.908 59.457C107.912 59.6311 107.916 59.8051 107.92 59.9792C107.917 59.9792 106.56 88.4586 106.537 100.538C106.509 112.617 105.782 144.462 105.765 157.168C105.736 169.894 104.803 183.295 104.805 183.295Z" fill="#C3CABA"/>
<rect width="121.597" height="34.2989" fill="black" fill-opacity="0" transform="translate(2.87408 11.1687)"/>
<path d="M2.87408 45.2993C8.39007 45.0736 46.7681 45.4189 63.9416 45.3449C71.935 45.3223 85.5974 45.3442 97.9176 45.3837C112.074 45.4136 124.471 45.4676 124.471 45.4676C124.471 45.4676 121.656 44.3004 117.898 41.8502C114.536 39.6686 110.422 36.4718 106.855 32.179C102.476 26.8933 98.9297 19.9275 98.7895 11.1687C98.7895 11.1687 90.7364 11.3705 79.949 11.5957C60.4977 11.9886 32.1582 12.447 25.9695 11.8776C25.9905 11.8776 24.9218 34.84 2.87408 45.2993Z" fill="#6BC8C7"/>
<rect width="102.615" height="7.46033" fill="black" fill-opacity="0" transform="translate(13.3546 53.2856)"/>
<path d="M13.3546 54.4375C14.0165 56.3869 14.6768 58.3358 15.3358 60.2852C17.6986 60.1881 20.0614 60.0908 22.4246 59.9934C22.8503 58.1583 23.2767 56.3233 23.7042 54.4882C23.4236 54.4836 23.1431 54.4791 22.8625 54.4745C21.4165 54.4674 19.9703 54.4598 18.5241 54.453C16.8011 54.4476 15.0779 54.4426 13.3546 54.4375Z" fill="#D7DBD1"/>
<path d="M105.666 53.2865C106.242 55.3503 106.815 57.414 107.388 59.4783C109.752 59.3812 112.116 59.2841 114.481 59.1872C114.976 57.3583 115.472 55.5293 115.97 53.7008C114.71 53.714 112.956 53.5588 110.803 53.4371C109.271 53.3474 107.547 53.2769 105.666 53.2865Z" fill="#D7DBD1"/>
<path d="M74.6824 54.1662C75.2981 56.3592 75.9123 58.5525 76.5246 60.7458C78.8864 60.649 81.2481 60.5516 83.6104 60.4548C84.1068 58.3175 84.6043 56.1807 85.1033 54.0435C83.5845 54.0617 82.0655 54.0795 80.5467 54.0975C80.5175 54.0987 80.4886 54.0997 80.4597 54.1008C78.5338 54.1226 76.6079 54.1444 74.6824 54.1662Z" fill="#D7DBD1"/>
<path d="M40.0875 54.5962C40.7047 56.48 41.3207 58.3637 41.9356 60.2475C44.3032 60.1501 46.6712 60.0528 49.0393 59.9554C49.656 58.1353 50.2742 56.3152 50.8937 54.4956C46.2222 54.1728 42.8742 54.3962 40.0875 54.5962Z" fill="#D7DBD1"/>
<rect width="30.1974" height="16.4591" fill="black" fill-opacity="0" transform="translate(26.7473 3.625)"/>
<path d="M26.7473 19.4878C33.5855 19.6232 40.4221 19.7591 47.258 19.8947C50.4871 19.9578 53.7161 20.021 56.9447 20.0841C56.9447 20.0841 56.8229 19.9746 56.5967 19.7553C55.3567 18.5495 51.1834 14.0295 49.7641 6.62911C49.6088 5.90274 49.5028 5.15558 49.4264 4.3785C49.4143 4.33236 49.413 4.31309 49.4132 4.31309C48.0137 4.24235 46.6139 4.17162 45.2138 4.10088C44.4772 4.06082 43.7405 4.02051 43.0038 3.97995C40.6626 3.86205 38.3214 3.74365 35.9797 3.625C35.9802 3.625 35.1563 9.07215 32.3993 13.7886C32.103 14.2957 31.7844 14.784 31.448 15.2642C31.4485 15.2738 31.4394 15.2738 31.4394 15.2738C30.7818 16.1939 30.0456 17.0607 29.2037 17.7995C29.1375 17.8583 29.0989 17.8893 29.0989 17.8893C28.3886 18.5175 27.605 19.0629 26.7473 19.4878Z" fill="#5AB8B3"/>
<rect width="19.1167" height="23.4728" fill="black" fill-opacity="0" transform="translate(32.2816 22.1382)"/>
<path d="M32.2816 45.611C33.6276 45.591 34.9736 45.5704 36.3199 45.5502C39.5591 45.5071 42.7983 45.4634 46.0378 45.4198C46.446 45.413 46.8544 45.4059 47.2628 45.3985C48.6413 45.38 50.0198 45.362 51.3983 45.3438C51.2075 37.6085 51.0147 29.8732 50.8209 22.1382C49.6712 22.1531 48.5216 22.1678 47.3716 22.1828C45.2937 22.2069 43.2159 22.2312 41.138 22.2551C38.2986 22.2911 35.4594 22.3266 32.6202 22.3621C32.6189 22.3937 32.6174 22.4254 32.6159 22.4569C32.5025 30.1749 32.3911 37.8932 32.2816 45.611Z" fill="#464743"/>
<rect width="31.3532" height="3.10476" fill="black" fill-opacity="0" transform="translate(26.7473 19.4878)"/>
<path d="M26.7473 19.4878C26.8072 20.5225 26.8673 21.5574 26.9274 22.5926C28.8234 22.5472 30.7197 22.5023 32.6159 22.4569C35.4566 22.39 38.2973 22.3225 41.138 22.2551C43.2146 22.2059 45.2912 22.1565 47.3681 22.107C50.6794 22.0302 53.9911 21.9529 57.3032 21.8758C57.5688 21.1743 57.8346 20.4725 58.1005 19.7705C57.5992 19.7654 57.0979 19.7603 56.5967 19.7553C53.4802 19.7292 50.3638 19.703 47.2471 19.6772C40.4145 19.6138 33.5809 19.5509 26.7473 19.4878Z" fill="#407575"/>
<path d="M36.3199 45.5503C36.3201 45.5569 36.3206 45.563 36.3209 45.5698C39.7367 45.5503 43.1522 45.5315 46.5682 45.5128C46.8016 45.5128 47.035 45.5123 47.2684 45.5123C47.0107 40.2908 46.7517 35.0688 46.4911 29.847C46.4906 29.847 46.8305 23.8885 41.0003 24.1245C35.1692 24.3605 36.0325 30.2719 36.0317 30.2719C36.1278 35.3649 36.224 40.4573 36.3199 45.5503Z" fill="#E3ECEB"/>
<rect width="11.6816" height="20.5052" fill="black" fill-opacity="0" transform="translate(106.855 19.8477)"/>
<rect width="3.76053" height="5.23545" fill="black" fill-opacity="0" transform="translate(114.777 19.8477)"/>
<path d="M118.457 24.9343C118.456 24.9056 118.455 24.8772 118.455 24.8483C118.482 23.1819 118.51 21.5149 118.537 19.8477C117.444 20.0089 116.351 20.1699 115.259 20.3311C115.098 21.9152 114.937 23.499 114.777 25.0831C116.003 25.0337 117.23 24.9837 118.457 24.9343Z" fill="#407575"/>
<rect width="4.75647" height="2.71584" fill="black" fill-opacity="0" transform="translate(107.444 20.7354)"/>
<path d="M107.444 20.7354C109.015 20.9351 110.585 21.1347 112.156 21.3342C112.171 21.9766 112.185 22.6194 112.2 23.2616C110.638 23.3249 109.075 23.3883 107.512 23.4512C107.49 22.5461 107.467 21.6407 107.444 20.7354Z" fill="#407575"/>
<rect width="7.29275" height="3.18082" fill="black" fill-opacity="0" transform="translate(111.041 27.8657)"/>
<path d="M111.041 27.8657C111.066 28.926 111.091 29.9863 111.116 31.0465C112.179 30.9497 113.243 30.8528 114.307 30.7555C115.62 30.633 116.933 30.5096 118.246 30.3869C118.275 29.5684 118.304 28.7503 118.333 27.9316C116.944 27.918 115.554 27.9048 114.164 27.8911C113.123 27.8825 112.082 27.8738 111.041 27.8657Z" fill="#407575"/>
<rect width="8.71513" height="2.61925" fill="black" fill-opacity="0" transform="translate(106.855 32.1716)"/>
<path d="M109.209 34.7909C111.329 34.7044 113.45 34.6182 115.571 34.532C115.555 33.8001 115.539 33.0679 115.523 32.3354C112.634 32.2809 109.745 32.2259 106.855 32.1716C106.856 32.1716 108.639 34.2171 109.209 34.7909Z" fill="#407575"/>
<rect width="3.96424" height="3.21099" fill="black" fill-opacity="0" transform="translate(114.062 37.1418)"/>
<path d="M114.062 37.3028C114.075 37.9199 114.089 38.5373 114.103 39.1546C114.258 39.2713 114.412 39.3884 114.567 39.5055C114.627 39.5476 114.687 39.59 114.747 39.632C114.747 39.6348 114.747 39.6379 114.747 39.6412C114.954 39.7971 115.162 39.953 115.369 40.1092C115.478 40.1906 115.587 40.2717 115.696 40.3528C116.445 40.3224 117.194 40.292 117.943 40.2616C117.96 39.6721 117.977 39.0816 117.994 38.4919C118.005 38.0416 118.016 37.5919 118.026 37.1418C116.705 37.1953 115.383 37.2491 114.062 37.3028Z" fill="#407575"/>
<rect width="21.3793" height="14.0065" fill="black" fill-opacity="0" transform="translate(29.1035 4.10083)"/>
<path d="M48.26 10.9746C46.6255 11.0405 44.9913 11.1064 43.3571 11.1721C43.6732 12.6069 43.9888 14.0411 44.3038 15.4753C46.3632 15.3919 48.4231 15.309 50.4827 15.2261C49.743 13.8091 49.002 12.3916 48.26 10.9746Z" fill="#407575"/>
<path d="M37.6633 9.94762C37.5864 8.51668 37.5093 7.08549 37.4322 5.6543C39.042 5.70652 40.6514 5.75875 42.2612 5.81149C42.146 7.13315 42.0311 8.45482 41.9165 9.77649C40.4987 9.83353 39.0811 9.89032 37.6633 9.94762Z" fill="#407575"/>
<path d="M41.5629 17.7802C40.155 17.7204 38.747 17.66 37.3389 17.5999C37.7496 15.5212 38.1613 13.4433 38.5743 11.3651C39.3526 11.3336 40.1309 11.3019 40.9091 11.271C41.1276 13.441 41.3455 15.6105 41.5629 17.7802Z" fill="#407575"/>
<path d="M32.399 13.7856C33.3094 13.7491 34.2199 13.712 35.1304 13.6755C34.5753 15.1526 34.0218 16.6302 33.469 18.1073C32.0139 18.0348 30.5588 17.9625 29.1035 17.89C29.1029 17.89 31.35 15.7976 32.399 13.7856Z" fill="#407575"/>
<path d="M45.2138 4.10083C45.2714 5.23083 45.3285 6.36082 45.3858 7.49082C46.8462 7.432 48.3064 7.37318 49.7671 7.31486C49.7884 7.12218 49.7869 6.88437 49.764 6.62906C49.6999 5.75665 49.4784 4.65226 49.4264 4.37845C49.4142 4.33231 49.4129 4.31304 49.4132 4.31304C48.0137 4.2423 46.6139 4.17157 45.2138 4.10083Z" fill="#407575"/>
<rect width="7.83537" height="18.4769" fill="black" fill-opacity="0" transform="translate(37.6512 26.8862)"/>
<path d="M45.4865 45.0663C45.315 41.6401 45.1425 38.2136 44.9697 34.7871C44.1293 34.8213 43.2891 34.8556 42.4484 34.8895C42.6194 38.2113 42.7899 41.5334 42.9598 44.8551C43.8021 44.9254 44.6443 44.9959 45.4865 45.0663Z" fill="#8F9384"/>
<path d="M40.6088 45.266C40.5179 41.6818 40.4271 38.0979 40.3363 34.5139C39.4411 34.5499 38.5461 34.5864 37.6511 34.6229C37.8424 38.2028 38.0329 41.7835 38.2229 45.3631C39.0182 45.3309 39.8132 45.2982 40.6088 45.266Z" fill="#8F9384"/>
<path d="M42.2151 26.8862C42.2549 28.8166 42.2947 30.747 42.3346 32.6774C43.1758 32.6429 44.017 32.609 44.8582 32.5745C44.8574 32.5745 45.3602 27.5487 42.2151 26.8862Z" fill="#8F9384"/>
<path d="M40.6745 32.7446C40.5504 30.8162 40.4259 28.8881 40.3013 26.9595C40.3008 26.9595 37.8107 27.5918 38.092 32.8495C38.9528 32.8146 39.8138 32.7796 40.6745 32.7446Z" fill="#8F9384"/>
<g opacity="0.18">
<rect width="8.86328" height="41.8501" fill="black" fill-opacity="0" transform="translate(113.368)"/>
<path opacity="0.18" d="M113.59 16.4081C113.783 20.236 113.974 24.0636 114.164 27.8911C114.212 28.8459 114.259 29.8007 114.307 30.7555C114.331 31.2743 114.355 31.7925 114.379 32.311C114.419 33.0662 114.459 33.8218 114.499 34.577C114.541 35.4781 114.584 36.3792 114.626 37.28C114.666 38.0639 114.707 38.8478 114.747 39.632C114.747 39.6348 114.747 39.6378 114.747 39.6411C114.954 39.797 115.162 39.953 115.369 40.1091C115.478 40.1905 115.587 40.2716 115.696 40.3528C115.699 40.3528 115.702 40.3528 115.705 40.3528C116.456 40.892 117.197 41.394 117.898 41.8501C117.898 41.8501 117.915 41.2602 117.943 40.2615C117.96 39.672 117.977 39.0816 117.994 38.4918C118.048 36.3718 118.144 33.4501 118.246 30.3869C118.275 29.5685 118.304 28.7504 118.333 27.9317C118.372 26.9226 118.418 25.9141 118.457 24.9342C118.456 24.9055 118.455 24.8771 118.455 24.8482C118.619 20.9646 118.802 17.4709 118.993 15.7621C119.884 14.6653 120.777 13.5683 121.671 12.4713C121.857 9.7818 122.044 7.09207 122.231 4.40285C121.632 3.59966 121.034 2.79723 120.434 1.99378C120.421 1.32953 120.407 0.664763 120.393 0C118.051 0.0116625 115.709 0.0233249 113.368 0.0344804C113.859 0.762627 114.351 1.49052 114.842 2.21841C114.846 2.22145 114.849 2.2245 114.852 2.22754C115.681 3.01831 116.509 3.80857 117.337 4.59908C117.036 7.2556 116.735 9.91212 116.436 12.5691C116.407 12.6079 116.379 12.6467 116.35 12.6853C115.537 13.7795 114.725 14.8735 113.914 15.967C113.806 16.114 113.698 16.2611 113.59 16.4081Z" fill="#0A1C44"/>
</g>
<rect width="120.453" height="34.4454" fill="black" fill-opacity="0" transform="translate(3.64886 11.1606)"/>
<rect width="5.94425" height="11.7609" fill="black" fill-opacity="0" transform="translate(94.772 11.1665)"/>
<path d="M100.716 21.0071C99.3524 21.647 97.9897 22.2875 96.6277 22.9274C96.6297 22.9274 94.3606 16.7894 94.838 11.6822C96.1548 11.5103 97.4719 11.3387 98.7893 11.1665C98.7885 11.1665 98.6931 17.4054 100.716 21.0071Z" fill="#4BADAA"/>
<rect width="6.53146" height="6.03763" fill="black" fill-opacity="0" transform="translate(91.7736 25.7878)"/>
<path d="M97.4608 25.7878C95.5643 26.1276 93.6685 26.4678 91.7736 26.8081C91.8263 28.4804 91.8788 30.1529 91.9311 31.8255C94.0549 31.4977 96.1794 31.1696 98.305 30.8413C98.0242 29.1568 97.7429 27.4723 97.4608 25.7878Z" fill="#4BADAA"/>
<rect width="17.1578" height="10.8973" fill="black" fill-opacity="0" transform="translate(79.1284 34.0625)"/>
<path d="M96.2862 44.9598C95.4326 41.3272 94.5749 37.6946 93.7132 34.0625C88.8504 34.2597 83.9889 34.4578 79.1284 34.6553C79.7974 38.0627 80.4633 41.4697 81.1264 44.8769C86.1799 44.9046 91.2332 44.932 96.2862 44.9598Z" fill="#4BADAA"/>
<rect width="12.0812" height="7.98197" fill="black" fill-opacity="0" transform="translate(59.7038 34.9658)"/>
<path d="M71.4983 34.9658C67.5666 34.9914 63.6351 35.0165 59.7038 35.0424C59.941 37.6774 60.1774 40.3126 60.4131 42.9478C64.2028 42.7082 67.9935 42.4694 71.785 42.23C71.6896 39.8085 71.5942 37.3873 71.4983 34.9658Z" fill="#4BADAA"/>
<rect width="6.8412" height="15.5286" fill="black" fill-opacity="0" transform="translate(71.2979 11.6646)"/>
<path d="M71.2979 11.7581C72.9321 11.7269 74.5658 11.696 76.2 11.6646C76.8507 16.7798 77.4971 21.8946 78.1391 27.0099C76.6323 27.071 75.1254 27.1321 73.6188 27.1932C72.8502 22.0482 72.0767 16.9033 71.2979 11.7581Z" fill="#4BADAA"/>
<rect width="5.1271" height="9.94203" fill="black" fill-opacity="0" transform="translate(59.8476 19.9858)"/>
<path d="M64.9747 20.1704C63.2659 20.1088 61.5566 20.0472 59.8476 19.9858C59.9955 23.3 60.1429 26.6137 60.2898 29.9279C61.7007 29.8706 63.1117 29.8133 64.5231 29.756C64.6731 26.561 64.8235 23.3654 64.9747 20.1704Z" fill="#4BADAA"/>
<rect width="4.93151" height="4.63356" fill="black" fill-opacity="0" transform="translate(51.2837 40.7234)"/>
<path d="M56.2152 45.357C56.1447 43.8124 56.0739 42.2679 56.0031 40.7234C54.4298 40.7875 52.8568 40.8517 51.2837 40.9156C51.321 42.3929 51.358 43.8702 51.3951 45.3473C53.0019 45.3504 54.6084 45.3534 56.2152 45.357Z" fill="#4BADAA"/>
<rect width="7.79072" height="6.02216" fill="black" fill-opacity="0" transform="translate(21.5452 21.7725)"/>
<path d="M23.8199 21.7725C25.6586 21.8364 27.4972 21.8997 29.3359 21.9631C29.0543 23.907 28.7737 25.851 28.4937 27.7946C26.1781 27.5748 23.862 27.3547 21.5452 27.1352C21.5447 27.1352 23.1446 23.8735 23.8199 21.7725Z" fill="#4BADAA"/>
<rect width="7.8029" height="3.3801" fill="black" fill-opacity="0" transform="translate(24.4853 42.2258)"/>
<path d="M32.1 42.2258C29.5617 42.3293 27.0233 42.433 24.4853 42.5367C24.5383 43.4405 24.5916 44.3438 24.6443 45.2474C27.1928 45.3671 29.7405 45.4865 32.2882 45.6059C32.2255 44.4792 32.1629 43.3523 32.1 42.2258Z" fill="#4BADAA"/>
<rect width="8.22528" height="5.08105" fill="black" fill-opacity="0" transform="translate(9.22119 36.4954)"/>
<path d="M15.0254 36.4954C15.8326 36.5844 16.6393 36.6736 17.4465 36.7623C17.3069 38.174 17.1679 39.5854 17.0294 40.9963C14.4262 41.19 11.8234 41.3832 9.22119 41.5764C9.22018 41.5764 13.2298 38.5487 15.0254 36.4954Z" fill="#4BADAA"/>
<g opacity="0.6">
<rect width="120.453" height="34.177" fill="black" fill-opacity="0" transform="translate(3.64886 11.1606)"/>
<g opacity="0.6">
<rect width="25.6941" height="13.6846" fill="black" fill-opacity="0" transform="translate(98.4083 31.6191)"/>
<path opacity="0.6" d="M106.401 31.6203C106.349 31.5516 98.4057 34.4338 98.4083 34.4338C98.4083 34.4338 99.5524 41.2305 102.727 45.1349C109.852 45.1912 116.978 45.2475 124.102 45.3038C124.107 45.3038 111.606 39.0065 106.401 31.6203Z" fill="#4B86AB"/>
</g>
<g opacity="0.6">
<rect width="6.15668" height="5.81695" fill="black" fill-opacity="0" transform="translate(88.9122 11.1606)"/>
<path opacity="0.6" d="M88.9245 11.564C88.9245 11.564 88.8423 17.2893 89.1023 16.9643C89.3644 16.6402 95.0689 16.7234 95.0689 16.7234C95.0691 16.7234 94.4172 12.7556 94.822 11.1606C92.856 11.295 90.89 11.4296 88.9245 11.564Z" fill="#4B86AB"/>
</g>
<g opacity="0.6">
<rect width="9.27069" height="15.9997" fill="black" fill-opacity="0" transform="translate(81.8605 22.1772)"/>
<path opacity="0.6" d="M89.152 22.1772C86.7213 22.2754 84.2908 22.3737 81.8605 22.4724C82.5904 27.707 83.3154 32.942 84.0356 38.1769C86.4006 38.0806 88.7659 37.9845 91.1312 37.8882C90.4762 32.6509 89.8164 27.4142 89.152 22.1772Z" fill="#4B86AB"/>
</g>
<g opacity="0.6">
<rect width="11.8914" height="6.03154" fill="black" fill-opacity="0" transform="translate(69.235 39.3062)"/>
<path opacity="0.6" d="M69.4785 45.3377C69.3973 43.3272 69.3162 41.3167 69.235 39.3062C72.8479 39.3619 76.4603 39.4177 80.0726 39.4735C80.4247 41.2746 80.7758 43.0757 81.1264 44.877C77.2431 45.0304 73.3603 45.1843 69.4785 45.3377Z" fill="#4B86AB"/>
</g>
<g opacity="0.6">
<rect width="7.37139" height="8.7413" fill="black" fill-opacity="0" transform="translate(69.0046 22.1101)"/>
<path opacity="0.6" d="M76.376 30.5918C74.2444 30.6785 72.1127 30.7647 69.9816 30.8514C69.6571 28.0265 69.3314 25.2019 69.0046 22.3773C71.203 22.2881 73.4019 22.1996 75.6008 22.1101C75.86 24.9375 76.1185 27.7646 76.376 30.5918Z" fill="#4B86AB"/>
</g>
<g opacity="0.6">
<rect width="5.61619" height="11.3055" fill="black" fill-opacity="0" transform="translate(56.4473 11.9968)"/>
<path opacity="0.6" d="M62.0635 12.1299C61.825 15.8543 61.5876 19.5785 61.3511 23.3024C59.7167 23.1632 58.0822 23.0242 56.4473 22.8853C56.4879 19.2557 56.5287 15.6264 56.5698 11.9968C58.4014 12.0412 60.2324 12.0856 62.0635 12.1299Z" fill="#4B86AB"/>
</g>
<g opacity="0.6">
<rect width="4.31076" height="9.28903" fill="black" fill-opacity="0" transform="translate(51.0685 27.1538)"/>
<path opacity="0.6" d="M51.0685 27.3618C51.3978 27.0411 55.3796 27.1869 55.3793 27.1869C55.3694 30.2156 55.3593 33.2438 55.3494 36.2725C53.9574 36.3293 52.5658 36.386 51.1743 36.4428C51.1391 33.4157 51.1041 30.3885 51.0685 27.3618Z" fill="#4B86AB"/>
</g>
<g opacity="0.6">
<rect width="8.55303" height="8.58715" fill="black" fill-opacity="0" transform="translate(20.4495 31.3062)"/>
<path opacity="0.6" d="M29.0026 39.8933C29.0026 39.8933 28.948 34.7136 28.513 31.3062C25.9939 31.4086 23.4751 31.511 20.9566 31.6132C20.7869 34.2844 20.618 36.9556 20.4495 39.6273C23.3009 39.7156 26.1517 39.8043 29.0026 39.8933Z" fill="#4B86AB"/>
</g>
<g opacity="0.6">
<rect width="11.6707" height="4.08162" fill="black" fill-opacity="0" transform="translate(3.64893 41.1411)"/>
<path opacity="0.6" d="M15.3197 45.2227C15.2347 43.862 15.1497 42.5018 15.0645 41.1411C13.1162 41.2864 11.1685 41.4312 9.22123 41.5762C9.22022 41.5762 5.2953 44.2492 3.64893 45.0825C7.53934 45.1292 11.4298 45.1761 15.3197 45.2227Z" fill="#4B86AB"/>
</g>
</g>
<g opacity="0.18">
<rect width="44.5221" height="42.7051" fill="black" fill-opacity="0" transform="translate(79.949 11.1687)"/>
<path opacity="0.18" d="M79.949 11.5957C80.2778 14.0351 83.9632 39.0345 97.9176 45.3837C98.2519 45.5406 98.5975 45.6877 98.9501 45.8165C99.3156 47.0811 99.6809 48.3457 100.045 49.6106C100.128 49.8923 100.21 50.1745 100.293 50.4561C100.324 51.5955 100.355 52.7346 100.386 53.8738C102.244 53.8454 104.025 53.8294 105.679 53.8091C105.662 53.7467 105.644 53.6841 105.627 53.622C109.078 53.6387 112.528 53.6552 115.979 53.6719C115.976 53.6818 115.973 53.6915 115.97 53.7008C117.363 53.6915 118.139 53.6793 118.139 53.6793C118.652 52.4101 119.166 51.1407 119.681 49.8715C120.854 49.9197 121.641 49.9531 121.962 50.016C122.797 48.4999 123.633 46.9837 124.471 45.4676C124.471 45.4676 121.656 44.3004 117.898 41.8502C114.536 39.6686 110.422 36.4718 106.855 32.179C102.476 26.8933 98.9298 19.9275 98.7895 11.1687C98.7895 11.1687 90.7365 11.3705 79.949 11.5957Z" fill="#0A1C44"/>
</g>
<g opacity="0.05">
<rect width="7.23339" height="135.123" fill="black" fill-opacity="0" transform="translate(108.736 53.3979)"/>
<path opacity="0.05" d="M111.949 182.985C111.61 183 111.271 183.015 110.932 183.03C111.414 175.693 111.65 140.384 111.895 127.537C112.079 118.303 112.583 100.912 112.668 90.1054C112.748 79.2978 113.958 59.2084 113.96 59.2084C114.134 59.2013 114.307 59.1942 114.481 59.1871C114.976 57.3581 115.472 55.5291 115.97 53.7007C114.71 53.7139 113.916 53.5194 111.763 53.3979C111.721 55.3666 111.679 57.3348 111.636 59.3037C110.703 100.575 109.776 141.848 108.855 183.12C108.815 184.92 108.776 186.721 108.736 188.521C110.356 188.451 111.977 188.381 113.597 188.311C113.049 186.535 112.5 184.76 111.949 182.985Z" fill="#0A1C44"/>
</g>
<g opacity="0.09">
<rect width="6.9201" height="135.659" fill="black" fill-opacity="0" transform="translate(80.4597 54.0435)"/>
<path opacity="0.09" d="M85.6622 184.123C85.1221 184.146 84.5822 184.17 84.0422 184.193C84.478 178.765 83.9465 164.149 83.7279 153.35C83.5373 142.54 81.8831 106.977 82.2662 93.5946C82.5754 83.0385 82.5599 60.4979 82.5592 60.4979C82.9095 60.4832 83.2601 60.469 83.6104 60.4548C84.1069 58.3175 84.6043 56.1807 85.1033 54.0435C83.5845 54.0617 82.0655 54.0795 80.5467 54.0975C80.5176 54.0987 80.4886 54.0997 80.4597 54.1008C80.4787 56.2616 80.4975 58.4215 80.5163 60.5821C80.8669 101.823 81.185 143.064 81.4704 184.305C81.4831 186.104 81.4957 187.903 81.5082 189.702C83.465 189.618 85.4224 189.533 87.3798 189.448C86.8085 187.673 86.236 185.898 85.6622 184.123Z" fill="#0A1C44"/>
</g>
<g opacity="0.09">
<rect width="8.21132" height="136.705" fill="black" fill-opacity="0" transform="translate(45.4979 54.4502)"/>
<path opacity="0.09" d="M51.9228 185.584C51.4571 185.605 50.9911 185.625 50.5251 185.645C50.3424 174.818 49.5372 118.844 48.8483 104.538C48.1643 90.2414 47.9675 59.9995 47.9685 59.9995C48.3254 59.9848 48.6824 59.9701 49.0393 59.9554C49.656 58.1353 50.2742 56.3152 50.8937 54.4956C49.0951 54.4801 47.2965 54.4652 45.4979 54.4502C45.5337 56.3319 45.5697 58.2141 45.6057 60.0964C46.4175 101.983 47.2034 143.87 47.9634 185.756C47.9964 187.556 48.0289 189.355 48.0613 191.155C49.9439 191.073 51.8264 190.992 53.7092 190.91C53.1151 189.134 52.5197 187.36 51.9228 185.584Z" fill="#0A1C44"/>
</g>
<g opacity="0.09">
<rect width="11.9204" height="136.671" fill="black" fill-opacity="0" transform="translate(18.524 54.4529)"/>
<path opacity="0.09" d="M28.6057 185.549C28.1004 185.571 27.5946 185.592 27.0893 185.615C27.0903 185.615 25.8102 162.507 24.8609 143.761C23.9477 125.006 21.213 60.0435 21.2016 60.0435C21.6093 60.0268 22.0169 60.0101 22.4246 59.9933C22.8503 58.1583 23.2767 56.3232 23.7042 54.4881C23.4236 54.4836 23.143 54.479 22.8625 54.4744C21.4165 54.4673 19.9703 54.4597 18.524 54.4529C18.6141 56.3496 18.7039 58.246 18.7935 60.1429C20.7463 102.005 22.6377 143.867 24.4682 185.728C24.5466 187.527 24.6248 189.325 24.7029 191.124C26.6164 191.041 28.5301 190.958 30.4444 190.875C29.8328 189.099 29.2202 187.324 28.6057 185.549Z" fill="#0A1C44"/>
</g>
<g opacity="0.26">
<rect width="3.69483" height="5.55668" fill="black" fill-opacity="0" transform="translate(100.112 183.338)"/>
<path opacity="0.26" d="M102.066 188.811C102.645 186.986 103.225 185.162 103.806 183.338C102.573 184.842 101.341 186.346 100.112 187.851C100.12 188.199 100.129 188.546 100.137 188.894C100.78 188.867 101.423 188.839 102.066 188.811Z" fill="#0A1C44"/>
</g>
<g opacity="0.26">
<rect width="4.21208" height="5.34447" fill="black" fill-opacity="0" transform="translate(86.1155 184.103)"/>
<path opacity="0.26" d="M90.3276 189.32C88.9267 187.581 87.5226 185.842 86.1155 184.103C86.5379 185.885 86.9595 187.666 87.3798 189.448C88.3623 189.405 89.3451 189.363 90.3276 189.32Z" fill="#0A1C44"/>
</g>
<g opacity="0.26">
<rect width="30.7697" height="130.384" fill="black" fill-opacity="0" transform="translate(77.1507 53.8091)"/>
<path opacity="0.26" d="M77.1789 54.9008C79.8014 54.9137 82.4242 54.9269 85.0467 54.9396C84.567 56.7782 84.088 58.6166 83.6104 60.4549C83.26 60.4691 82.9095 60.4833 82.5591 60.498C82.5599 60.498 82.5754 83.0386 82.2661 93.5947C81.8828 106.977 83.5373 142.54 83.7278 153.35C83.9462 164.149 84.4779 178.765 84.0421 184.193C84.5822 184.17 85.122 184.146 85.6621 184.123C84.9475 143.883 84.1753 103.643 83.3458 63.4035C84.0269 63.1348 84.7083 62.866 85.3899 62.5973C85.966 60.4887 86.5437 58.38 87.1225 56.2711C92.4483 56.1446 97.7745 56.0181 103.102 55.8913C104.03 57.8458 104.955 59.8006 105.879 61.7551C105.189 102.283 104.498 142.81 103.806 183.338C104.139 183.323 104.472 183.309 104.805 183.295C104.803 183.295 105.736 169.894 105.765 157.169C105.782 144.463 106.509 112.617 106.537 100.538C106.56 88.4586 107.917 59.9793 107.92 59.9793C107.916 59.8051 107.912 59.6312 107.908 59.457C107.734 59.4639 107.561 59.4712 107.388 59.4783C106.82 57.5885 106.25 55.6989 105.679 53.8091C97.7831 53.9052 87.1844 54.0253 77.1507 54.1415C77.1601 54.3945 77.1695 54.6478 77.1789 54.9008Z" fill="#0A1C44"/>
</g>
<g opacity="0.26">
<rect width="30.8306" height="136.743" fill="black" fill-opacity="0" transform="translate(47.9685 54.1663)"/>
<path opacity="0.26" d="M50.5251 185.645C50.9911 185.625 51.4571 185.605 51.9229 185.584C52.5198 187.36 53.1151 189.134 53.7093 190.91C54.2227 190.887 54.7361 190.866 55.2496 190.843C54.4442 189.077 53.637 187.311 52.828 185.545C51.7214 144.651 50.5664 103.756 49.3627 62.8619C49.8579 62.1951 50.3536 61.5278 50.8498 60.8608C51.383 59.3644 51.9173 57.8678 52.4525 56.372C59.381 55.8974 66.3135 55.423 73.2504 54.9487C74.1631 57.7033 75.0728 60.4582 75.9792 63.2128C76.3359 102.995 76.6651 142.777 76.9665 182.56C75.8645 185.003 74.7661 187.447 73.6712 189.89C73.8559 189.933 74.0408 189.976 74.2258 190.019C74.7702 189.995 75.314 189.972 75.8584 189.948C76.4132 188.124 76.9696 186.299 77.5269 184.475C77.9508 184.457 78.3749 184.438 78.7991 184.42C78.0761 167.263 77.4297 103.98 77.1834 93.1692C76.9366 82.3703 77.0439 60.7246 77.0441 60.7246C76.8711 60.7317 76.6979 60.7391 76.5246 60.7459C75.9148 58.7937 75.3036 56.8418 74.6908 54.8896C74.688 54.6487 74.6849 54.4076 74.6824 54.1663C65.0834 54.2842 56.2415 54.4086 51.1075 54.4961C50.8655 54.4964 50.6144 54.507 50.3612 54.5174C49.9198 56.3299 49.4789 58.1429 49.0393 59.9554C48.6824 59.9701 48.3254 59.9848 47.9685 59.9995C47.9675 59.9995 48.1643 90.2414 48.8483 104.538C49.5373 118.844 50.3424 174.818 50.5251 185.645Z" fill="#0A1C44"/>
</g>
<rect width="21.4602" height="41.5327" fill="black" fill-opacity="0" transform="translate(36.6403 3.97974)"/>
<g opacity="0.22">
<rect width="15.0967" height="18.1271" fill="black" fill-opacity="0" transform="translate(43.0038 3.97974)"/>
<path opacity="0.22" d="M47.3681 22.1068C50.6793 22.03 53.9911 21.9527 57.3031 21.8756C57.5687 21.1741 57.8346 20.4723 58.1005 19.7703C57.5992 19.7652 57.0979 19.7601 56.5966 19.755C55.3567 18.5492 51.1834 14.0293 49.7641 6.6289C49.6999 5.75649 49.4784 4.6521 49.4264 4.37829C49.4142 4.33215 49.413 4.31288 49.4132 4.31288C48.0137 4.24214 46.6139 4.17141 45.2138 4.10067C44.4771 4.06061 43.7405 4.0203 43.0038 3.97974C43.1075 5.20379 43.4018 8.05527 44.102 11.137C44.4312 12.5699 44.8506 14.0468 45.3747 15.4338C45.8833 16.7733 46.4883 18.0328 47.2176 19.0885C47.2679 20.0943 47.3181 21.1008 47.3681 22.1068Z" fill="#0A1C44"/>
</g>
<g opacity="0.22">
<rect width="14.758" height="23.3744" fill="black" fill-opacity="0" transform="translate(36.6403 22.1379)"/>
<path opacity="0.22" d="M36.6403 22.7117C38.0943 23.1825 39.5477 23.6533 41.0002 24.1241C41.6583 31.0326 42.3115 37.9414 42.9596 44.8504C43.9858 45.0398 45.0122 45.23 46.0378 45.4196C46.2146 45.4505 46.3914 45.4817 46.5682 45.5124C46.8016 45.5124 47.035 45.5119 47.2684 45.5119C47.2666 45.4741 47.2648 45.4363 47.2628 45.3983C48.6413 45.3798 50.0198 45.3618 51.3983 45.3435C51.2075 37.6083 51.0147 29.873 50.8209 22.1379C49.6712 22.1529 48.5216 22.1676 47.3716 22.1826C47.3734 22.2143 47.3749 22.2459 47.3764 22.2774C43.797 22.4221 40.2181 22.5669 36.6403 22.7117Z" fill="#0A1C44"/>
</g>
<rect width="16.7521" height="45.866" fill="black" fill-opacity="0" transform="translate(24.4305 66.4927)"/>
<rect width="12.6559" height="38.0768" fill="black" fill-opacity="0" transform="translate(26.0879 66.4927)"/>
<rect width="12.6559" height="38.0768" fill="black" fill-opacity="0" transform="translate(26.0879 66.4927)"/>
<path d="M27.2924 104.556C26.8934 94.3046 26.4936 84.052 26.0948 73.8004C25.9396 69.8529 28.4112 66.5646 31.5847 66.4938C34.7595 66.4231 37.4754 69.5958 37.6199 73.5438C37.9949 83.6887 38.3693 93.8335 38.7437 103.979C34.9416 104.496 31.1217 104.614 27.2924 104.556Z" fill="#F1D197"/>
<path d="M31.0958 103.62C30.1471 103.642 29.1735 103.648 28.1405 103.64C27.7549 93.6869 27.3683 83.7342 26.9822 73.781C26.8477 70.3342 28.9284 67.4802 31.6199 67.4204C34.3117 67.3606 36.6055 70.117 36.7328 73.564C37.0986 83.429 37.4644 93.2944 37.83 103.16C35.7323 103.416 33.5205 103.567 31.0958 103.62Z" fill="#3D7E9B"/>
<path d="M33.0131 104.133C32.7397 104.139 32.4657 104.145 32.1917 104.151C31.7191 91.7325 31.246 79.3142 30.7726 66.8959C31.0486 66.8901 31.3241 66.8838 31.5999 66.8777C32.071 79.2962 32.5423 91.7143 33.0131 104.133Z" fill="#F1D197"/>
<path d="M26.9299 96.2173C26.9187 95.9295 26.9076 95.6423 26.8964 95.3543C30.7526 95.2683 34.6095 95.1826 38.4657 95.0964C38.4763 95.385 38.4867 95.6722 38.4977 95.9595C34.6417 96.0454 30.7858 96.1314 26.9299 96.2173Z" fill="#F1D197"/>
<path d="M26.3876 82.2927C26.3761 82.0055 26.3652 81.7174 26.3538 81.4312C30.2196 81.3453 34.0857 81.2591 37.952 81.1729C37.9622 81.4593 37.9731 81.7474 37.9837 82.0344C34.1182 82.1206 30.2526 82.2068 26.3876 82.2927Z" fill="#F1D197"/>
<path opacity="0.1" d="M29.8411 88.8594C31.2508 81.4747 33.3749 74.9123 35.7442 70.0513C34.8033 68.4292 33.2884 67.3831 31.6199 67.4204C28.9284 67.4802 26.8477 70.3342 26.9822 73.781C27.3683 83.7342 27.7549 93.6869 28.1405 103.64C28.174 103.64 28.2064 103.64 28.2404 103.64C28.315 99.186 28.834 94.1367 29.8411 88.8594Z" fill="white"/>
<path d="M40.9648 102.583L24.4305 102.95L24.5385 107.795L41.0727 107.428L40.9648 102.583Z" fill="#6C6D6A"/>
<path opacity="0.2" d="M24.5383 107.795L41.1826 112.359L41.0725 107.427L24.5383 107.795Z" fill="black"/>
<rect width="16.5383" height="46.0669" fill="black" fill-opacity="0" transform="translate(54.6398 66.4814)"/>
<rect width="11.9752" height="38.0333" fill="black" fill-opacity="0" transform="translate(56.9518 66.4814)"/>
<rect width="11.9752" height="38.0333" fill="black" fill-opacity="0" transform="translate(56.9518 66.4814)"/>
<path d="M57.4653 104.439C57.2948 94.1809 57.1238 83.922 56.9531 73.664C56.8861 69.714 59.4302 66.4814 62.6045 66.4814C65.7798 66.4814 68.4244 69.714 68.4815 73.664C68.6302 83.8145 68.7783 93.9654 68.927 104.116C65.1142 104.548 61.2925 104.582 57.4653 104.439Z" fill="#F1D197"/>
<path d="M61.2887 103.588C60.3397 103.588 59.366 103.573 58.3338 103.541C58.1697 93.5819 58.005 83.6234 57.8407 73.6641C57.7833 70.2151 59.9269 67.4082 62.619 67.4082C65.3115 67.4082 67.5434 70.2151 67.5938 73.6641C67.7397 83.5347 67.8858 93.4057 68.0314 103.277C65.9284 103.486 63.7141 103.588 61.2887 103.588Z" fill="#3D7E9B"/>
<path d="M63.1943 104.143C62.9203 104.143 62.6463 104.143 62.3723 104.143C62.1765 91.717 61.9802 79.2911 61.7838 66.8652C62.0598 66.8652 62.3353 66.8652 62.6111 66.8652C62.8051 79.2911 62.9999 91.717 63.1943 104.143Z" fill="#F1D197"/>
<path d="M57.2887 96.0937C57.2841 95.8062 57.2795 95.5185 57.2745 95.2305C61.1317 95.2305 64.9893 95.2305 68.8468 95.2305C68.8508 95.5185 68.8549 95.8062 68.8595 96.0937C65.0025 96.0937 61.1456 96.0937 57.2887 96.0937Z" fill="#F1D197"/>
<path d="M57.0568 82.1606C57.0517 81.8731 57.0471 81.5851 57.0421 81.2986C60.9091 81.2986 64.7762 81.2986 68.6433 81.2986C68.6468 81.5851 68.6514 81.8731 68.656 82.1606C64.7894 82.1606 60.9228 82.1606 57.0568 82.1606Z" fill="#F1D197"/>
<path opacity="0.1" d="M60.3632 88.8026C61.9371 81.4506 64.2067 74.9374 66.6839 70.1299C65.7793 68.4875 64.2879 67.4082 62.619 67.4082C59.9269 67.4082 57.7833 70.2151 57.8407 73.6641C58.005 83.6234 58.1697 93.5819 58.3338 103.541C58.3673 103.542 58.3995 103.542 58.4335 103.543C58.6073 99.0924 59.2387 94.0558 60.3632 88.8026Z" fill="white"/>
<path d="M71.1781 102.77H54.6398V107.616H71.1781V102.77Z" fill="#6C6D6A"/>
<path opacity="0.2" d="M54.6398 107.616L71.1781 112.548V107.616H54.6398Z" fill="black"/>
<rect width="16.5977" height="46.1714" fill="black" fill-opacity="0" transform="translate(84.8773 66.4788)"/>
<rect width="11.6312" height="38.0211" fill="black" fill-opacity="0" transform="translate(87.6089 66.4788)"/>
<rect width="11.5917" height="38.0211" fill="black" fill-opacity="0" transform="translate(87.6158 66.4788)"/>
<path d="M87.7428 104.369C87.7007 94.1101 87.6583 83.8499 87.6159 73.5905C87.5984 69.6399 90.1829 66.4396 93.3569 66.4791C96.532 66.5187 99.136 69.7839 99.1436 73.7347C99.1652 83.8862 99.1862 94.0381 99.2075 104.19C95.3897 104.574 91.568 104.56 87.7428 104.369Z" fill="#F1D197"/>
<path d="M91.5762 103.566C90.6272 103.554 89.6538 103.527 88.6221 103.483C88.5828 93.522 88.5427 83.5622 88.5031 73.6014C88.4889 70.1518 90.6675 67.3723 93.3593 67.4061C96.0516 67.4395 98.2482 70.274 98.2555 73.7236C98.2779 83.5951 98.3002 93.4672 98.3223 103.34C96.2167 103.523 94.0014 103.596 91.5762 103.566Z" fill="#3D7E9B"/>
<path d="M93.4748 104.145C93.2008 104.142 92.9268 104.139 92.6528 104.135C92.6128 91.7073 92.5719 79.2802 92.5311 66.853C92.8071 66.8561 93.0826 66.8596 93.3583 66.8629C93.3969 79.2906 93.4359 91.7177 93.4748 104.145Z" fill="#F1D197"/>
<path d="M87.6703 96.023C87.6693 95.735 87.6683 95.4475 87.667 95.1589C91.5239 95.2076 95.3811 95.2558 99.2383 95.304C99.2388 95.592 99.2393 95.8797 99.2401 96.1675C95.3836 96.1193 91.527 96.0711 87.6703 96.023Z" fill="#F1D197"/>
<path d="M87.613 82.0879C87.6115 81.7998 87.6105 81.5123 87.6089 81.2253C91.4758 81.2738 95.3426 81.3224 99.2094 81.3706C99.2094 81.6574 99.2102 81.9454 99.2112 82.2329C95.3449 82.1845 91.4788 82.136 87.613 82.0879Z" fill="#F1D197"/>
<path opacity="0.1" d="M90.836 88.7703C92.5017 81.4391 94.8528 74.9547 97.3901 70.1782C96.506 68.5247 95.0283 67.4269 93.3594 67.4061C90.6676 67.3723 88.489 70.1518 88.5032 73.6014C88.5428 83.5622 88.5828 93.522 88.6222 103.483C88.6556 103.484 88.6879 103.485 88.7219 103.486C88.9514 99.0378 89.6458 94.0093 90.836 88.7703Z" fill="white"/>
<path d="M101.475 102.872L84.9379 102.665L84.8772 107.511L101.414 107.718L101.475 102.872Z" fill="#6C6D6A"/>
<path opacity="0.2" d="M84.8773 107.511L101.352 112.65L101.414 107.718L84.8773 107.511Z" fill="black"/>
<path opacity="0.3" d="M22.8787 89.5645L24.4302 57.9779L40.6088 57.3613L40.0178 54.3892L23.7042 54.4883L22.4246 59.9935L21.2017 60.0437L22.4652 89.5645" fill="black"/>
<path opacity="0.3" d="M48.861 104.807L51.7344 57.2898L75.5247 56.9394L74.6824 54.1663L50.8922 54.5002L49.0393 59.9554L47.9686 59.9995L48.861 104.807Z" fill="black"/>
<path opacity="0.3" d="M82.2094 98.9862L82.5592 60.4979L83.6104 60.4548L85.1033 54.1662L105.311 54.0435L106.729 57.2897L86.738 56.9393L82.2094 98.9862Z" fill="black"/>
<path d="M104.312 119.001L94.1683 118.283V115.119H103.721L104.312 119.001Z" fill="#8F8F89"/>
<path d="M96.3732 123.991L86.2296 123.272V120.109H95.7826L96.3732 123.991Z" fill="#8F8F89"/>
<path d="M104.607 157.574L99.7329 156.856V153.693H104.017L104.607 157.574Z" fill="#8F8F89"/>
<path d="M96.3732 162.815L86.2296 162.097V158.934H95.7826L96.3732 162.815Z" fill="#8F8F89"/>
<path d="M73.2494 147.498L63.1058 146.779V143.616H72.6589L73.2494 147.498Z" fill="#8F8F89"/>
<path d="M62.6994 129.62L52.5558 128.901V125.738H62.1089L62.6994 129.62Z" fill="#8F8F89"/>
<path d="M67.3336 123.991L57.19 123.272V120.109H66.743L67.3336 123.991Z" fill="#8F8F89"/>
<path d="M36.965 122.05L26.8214 121.332V118.168H36.3744L36.965 122.05Z" fill="#8F8F89"/>
<path d="M42.0365 158.012L31.8929 157.294V154.131H41.446L42.0365 158.012Z" fill="#8F8F89"/>
<path d="M35.516 162.815L27.0893 162.097V158.934H34.9254L35.516 162.815Z" fill="#8F8F89"/>
<path d="M42.0365 181.932L31.8929 181.214V178.051H41.446L42.0365 181.932Z" fill="#8F8F89"/>
<rect width="18.3303" height="27.986" fill="black" fill-opacity="0" transform="translate(54.9769 162.841)"/>
<rect width="18.3303" height="27.986" fill="black" fill-opacity="0" transform="translate(54.9769 162.841)"/>
<path d="M55.3663 190.827C55.4642 181.941 55.3339 173.055 54.9769 164.17C60.9239 163.538 66.894 163.088 72.8747 162.841C72.4757 172.089 72.6284 181.367 73.3072 190.607C67.3694 190.703 61.359 190.769 55.3663 190.827Z" fill="#534635"/>
<rect width="12.2002" height="24.0217" fill="black" fill-opacity="0" transform="translate(58.05 165.338)"/>
<path d="M69.6013 189.36C69.5893 189.359 69.5805 189.233 69.5733 188.99C69.567 188.748 69.5629 188.391 69.5617 187.932C69.5589 187.014 69.5668 185.685 69.5832 184.043C69.617 180.759 69.688 176.224 69.7885 171.214C69.8316 169.224 69.8729 167.31 69.9123 165.519C69.9706 165.577 70.0284 165.636 70.0855 165.694C68.3389 165.794 66.7136 165.887 65.2557 165.97C64.8915 165.99 64.5378 166.009 64.1956 166.028C63.8534 166.05 63.5236 166.09 63.2055 166.118C62.5706 166.177 61.9825 166.233 61.4485 166.283C60.3821 166.381 59.5335 166.454 58.9511 166.498C58.3684 166.542 58.052 166.556 58.05 166.536C58.048 166.516 58.3605 166.463 58.9391 166.384C59.5178 166.304 60.363 166.197 61.4262 166.069C61.9597 166.006 62.5454 165.937 63.1791 165.862C63.4967 165.828 63.8258 165.781 64.168 165.753C64.5109 165.729 64.8646 165.704 65.2294 165.678C66.6913 165.579 68.3212 165.469 70.0726 165.35C70.1319 165.346 70.1908 165.342 70.2502 165.338C70.2486 165.401 70.2476 165.463 70.2466 165.526C70.2131 167.317 70.1771 169.231 70.1396 171.221C70.0386 176.231 69.9285 180.766 69.8308 184.049C69.7824 185.69 69.7362 187.018 69.6977 187.936C69.6781 188.394 69.6601 188.75 69.6439 188.992C69.6276 189.234 69.6137 189.36 69.6013 189.36Z" fill="#362A18"/>
<rect width="0.731269" height="21.8099" fill="black" fill-opacity="0" transform="translate(62.9867 167.928)"/>
<path d="M63.0799 189.738C63.0558 189.738 63.036 189.433 63.0213 188.881C63.0061 188.328 62.9959 187.529 62.9908 186.541C62.9802 184.565 62.9898 181.834 63.0221 178.818C63.1568 175.809 63.2988 173.085 63.4196 171.114C63.4794 170.129 63.5347 169.332 63.5801 168.782C63.6261 168.231 63.6634 167.927 63.6875 167.928C63.7118 167.929 63.7209 168.236 63.7171 168.789C63.7133 169.341 63.6961 170.14 63.6677 171.127C63.6103 173.101 63.5073 175.826 63.3721 178.836C63.3394 181.846 63.2904 184.571 63.2374 186.544C63.211 187.53 63.1836 188.329 63.1568 188.881C63.1304 189.433 63.104 189.738 63.0799 189.738Z" fill="#362A18"/>
<rect width="0.807235" height="21.246" fill="black" fill-opacity="0" transform="translate(66.0699 167.739)"/>
<path d="M66.844 188.985C66.8196 188.987 66.7846 188.69 66.7413 188.154C66.6986 187.618 66.6471 186.84 66.5911 185.88C66.48 183.959 66.3498 181.304 66.2268 178.37C66.1492 175.435 66.0982 172.779 66.0787 170.855C66.0688 169.893 66.0672 169.114 66.0741 168.576C66.0807 168.038 66.0954 167.74 66.12 167.739C66.1441 167.739 66.1756 168.036 66.2106 168.572C66.2461 169.11 66.2851 169.887 66.3273 170.848C66.4097 172.77 66.5003 175.426 66.5774 178.36C66.6994 181.292 66.7905 183.947 66.8382 185.869C66.8625 186.83 66.8762 187.609 66.877 188.147C66.8785 188.686 66.8676 188.984 66.844 188.985Z" fill="#362A18"/>
<rect width="17.1233" height="27.6193" fill="black" fill-opacity="0" transform="translate(54.4252 106.3)"/>
<rect width="17.1233" height="27.6193" fill="black" fill-opacity="0" transform="translate(54.4252 106.3)"/>
<path opacity="0.3" d="M55.208 106.969C55.208 106.969 66.5693 110.033 71.4181 108.326L71.3136 132.757C71.3136 132.757 62.8924 135.399 56.2329 132.716L55.208 106.969Z" fill="black"/>
<path d="M54.7067 106.3C54.7067 106.3 66.5692 108.675 71.4181 106.968L70.8123 132.088C70.8123 132.088 62.138 135.03 55.4784 132.348L54.7067 106.3Z" fill="white"/>
<rect width="17.1233" height="8.4898" fill="black" fill-opacity="0" transform="translate(54.4252 106.559)"/>
<path d="M55.4785 107.382C55.4785 107.382 63.4521 111.925 70.379 108.334C70.379 108.334 63.9133 113.007 55.4785 107.382Z" fill="#E0E0E0"/>
<path d="M55.4785 108.204C55.4785 108.204 56.655 112.228 56.5251 114.391C56.5251 114.391 55.514 109.718 55.4785 108.204Z" fill="#E0E0E0"/>
<path d="M70.379 108.867C70.379 108.867 70.1426 113.053 69.2973 115.049C69.2973 115.049 69.9066 110.306 70.379 108.867Z" fill="#E0E0E0"/>
<rect width="1.35617" height="1.24941" fill="black" fill-opacity="0" transform="translate(54.4252 106.559)"/>
<path d="M55.4206 107.1C55.4206 107.134 55.4181 107.167 55.4125 107.199C55.3699 107.451 55.1669 107.641 54.9229 107.641C54.6479 107.641 54.4252 107.399 54.4252 107.1C54.4252 106.802 54.6479 106.559 54.9229 106.559C55.1979 106.559 55.4206 106.802 55.4206 107.1Z" fill="#828282"/>
<path d="M55.7813 107.543L55.7296 107.809H55.4206L55.208 107.543L55.4125 107.199L55.7813 107.543Z" fill="#9C9C9C"/>
<rect width="1.35617" height="1.24941" fill="black" fill-opacity="0" transform="translate(70.1923 107.382)"/>
<path d="M70.5526 107.922C70.5526 107.956 70.5556 107.989 70.5607 108.021C70.6033 108.273 70.8067 108.463 71.0508 108.463C71.3253 108.463 71.5485 108.221 71.5485 107.922C71.5485 107.623 71.3253 107.382 71.0508 107.382C70.7758 107.382 70.5526 107.623 70.5526 107.922Z" fill="#828282"/>
<path d="M70.1923 108.365L70.2441 108.631H70.5525L70.7651 108.365L70.5607 108.021L70.1923 108.365Z" fill="#9C9C9C"/>
<rect width="12.399" height="17.8944" fill="black" fill-opacity="0" transform="translate(56.729 111.16)"/>
<path d="M62.5697 129.052L56.729 114.123L69.0705 114.363L62.6554 129.054L62.5697 129.052Z" fill="#00CBFF"/>
<path opacity="0.31" d="M62.6272 126.088L56.786 111.16L69.128 111.398L62.7125 126.09L62.6272 126.088Z" fill="#303533"/>
<rect width="12.8564" height="24.1018" fill="black" fill-opacity="0" transform="translate(82.075 166)"/>
<path d="M94.8304 185.529C94.6021 184.787 93.7609 184.181 93.046 184.487C93.8207 183.708 94.6472 182.81 94.6558 181.712C94.6645 180.616 93.2596 179.59 92.4524 180.335C92.8101 179.702 93.1109 178.985 93.0008 178.267C92.8887 177.548 92.219 176.878 91.5036 177.008C92.7568 175.911 92.5046 173.573 91.045 172.769C91.5214 171.991 91.7776 171.081 91.7801 170.169C91.7812 169.752 91.7015 169.283 91.3646 169.038C91.1028 168.848 90.6736 168.941 90.5178 169.184C90.7304 168.221 90.4143 167.15 89.6883 166.477C89.4001 166.211 89.0338 165.999 88.6406 166C87.9207 166.004 87.3778 166.736 87.3205 167.452C87.2626 168.169 87.5599 168.86 87.8501 169.518C86.562 169.291 85.4082 170.576 85.2687 171.876C85.1282 173.176 85.6979 174.436 86.254 175.62C86.0414 175.103 85.2885 175.003 84.8212 175.307C84.3534 175.612 84.1256 176.175 83.9993 176.718C83.5701 178.558 84.0262 180.584 85.2028 182.061C84.5249 181.336 83.1855 182.126 83.0769 183.113C82.9684 184.1 83.602 184.998 84.2033 185.788C83.8572 185.106 82.7198 185.244 82.3149 185.893C81.9095 186.543 82.0708 187.401 82.4067 188.089C82.7416 188.777 83.2357 189.386 83.5072 190.102L93.876 189.253C94.2916 188.893 94.4752 188.343 94.632 187.816C94.8552 187.072 95.0607 186.272 94.8304 185.529Z" fill="#579326"/>
<rect width="49.1961" height="23.8265" fill="black" fill-opacity="0" transform="translate(1.48975 167.706)"/>
<rect width="12.0805" height="22.6461" fill="black" fill-opacity="0" transform="translate(1.48975 167.706)"/>
<path d="M13.4764 186.055C13.26 185.358 12.4703 184.789 11.7981 185.075C12.5256 184.344 13.3019 183.5 13.3105 182.469C13.3181 181.438 11.9995 180.475 11.2407 181.174C11.5774 180.58 11.86 179.906 11.7554 179.231C11.6509 178.556 11.021 177.926 10.349 178.048C11.5271 177.018 11.2889 174.821 9.91855 174.065C10.3653 173.334 10.6068 172.479 10.6088 171.622C10.6093 171.23 10.5358 170.792 10.2187 170.56C9.97309 170.381 9.56924 170.468 9.42261 170.697C9.62302 169.792 9.32571 168.786 8.64331 168.155C8.37238 167.904 8.02814 167.704 7.65904 167.706C6.98273 167.708 6.47182 168.397 6.41804 169.07C6.36477 169.743 6.64331 170.393 6.91703 171.011C5.70622 170.798 4.62149 172.005 4.49059 173.226C4.35868 174.448 4.89394 175.631 5.41601 176.744C5.21738 176.259 4.50962 176.165 4.06999 176.451C3.63062 176.737 3.41702 177.266 3.2983 177.776C2.89495 179.505 3.32342 181.408 4.42793 182.797C3.79145 182.115 2.53371 182.858 2.43174 183.785C2.32976 184.712 2.92438 185.556 3.48958 186.298C3.16436 185.656 2.0951 185.787 1.71535 186.397C1.33432 187.007 1.48577 187.814 1.80134 188.461C2.11692 189.107 2.58039 189.679 2.83508 190.352L12.5781 189.553C12.9683 189.217 13.1418 188.699 13.2887 188.204C13.4977 187.505 13.6915 186.754 13.4764 186.055Z" fill="#79A958"/>
<rect width="23.9576" height="19.5978" fill="black" fill-opacity="0" transform="translate(12.4167 171.493)"/>
<path d="M36.2669 185.144C35.9992 184.676 35.3148 184.694 34.8057 184.87C34.5193 184.968 34.2491 185.106 33.9924 185.265C34.2897 184.632 34.5144 183.966 34.6524 183.281C34.762 182.737 34.7372 182.027 34.2278 181.805C33.866 181.647 33.4515 181.835 33.1177 182.045C32.3663 182.519 31.7192 183.141 31.1796 183.846C32.2648 181.834 32.9457 179.604 33.1436 177.326C31.2915 178.054 29.8483 179.684 29.259 181.577C29.932 178.405 30.451 175.139 29.6362 172.026C27.0741 174.252 25.7762 177.842 26.3222 181.19C25.3409 178.204 25.3064 174.895 23.7935 172.14C23.6722 171.919 23.5302 171.692 23.3074 171.573C22.9048 171.36 22.38 171.598 22.1294 171.978C21.8797 172.359 21.8376 172.836 21.8204 173.291C21.7179 175.907 22.1859 178.543 23.1814 180.964C22.2623 179.316 21.3435 177.666 20.4246 176.017C19.7937 174.885 19.0416 173.652 17.7942 173.298C17.3861 174.222 17.6821 175.29 18.0028 176.247C18.8097 178.655 19.7468 181.021 20.809 183.329C19.7955 181.322 18.4459 179.486 16.8351 177.918C16.5271 177.617 16.0992 177.306 15.7067 177.48C15.2389 177.687 15.2739 178.356 15.4066 178.85C16.068 181.314 17.226 183.642 18.7869 185.66C17.2833 183.887 15.5154 182.268 13.277 181.766C13.0053 181.705 12.6707 181.684 12.5022 181.904C12.3277 182.134 12.4533 182.462 12.5867 182.718C14.0847 185.591 15.9741 188.261 18.1841 190.632L33.6489 191.091C35.0916 189.751 36.0586 187.909 36.3437 185.962C36.3836 185.685 36.4069 185.386 36.2669 185.144Z" fill="#579326"/>
<rect width="22.1549" height="10.0801" fill="black" fill-opacity="0" transform="translate(28.5309 181.452)"/>
<path d="M49.843 185.411C49.0124 184.689 47.5716 184.724 46.8996 185.595C47.1543 185.184 47.4155 184.754 47.4724 184.275C47.5292 183.794 47.3191 183.245 46.8696 183.067C46.6159 182.965 46.3313 182.995 46.0624 183.035C45.0122 183.192 43.9838 183.491 43.0142 183.922C43.1497 182.866 42.3648 181.775 41.3212 181.566C40.2768 181.357 39.1327 182.063 38.8508 183.09C38.5967 181.973 37.3115 181.211 36.2098 181.522C35.1071 181.832 34.4115 183.154 34.7793 184.239C34.1309 183.739 33.347 183.36 32.5284 183.381C31.7093 183.401 30.8706 183.902 30.6393 184.687C30.4802 185.231 30.7159 185.859 31.1451 186.201C30.3054 185.917 29.416 185.78 28.5309 185.815C29.016 188.393 30.9447 190.651 33.417 191.532L48.2278 190.719C49.2299 190.264 50.1192 189.475 50.5018 188.444C50.8846 187.412 50.6728 186.135 49.843 185.411Z" fill="#79A958"/>
</svg>
