<svg width="195" height="244" viewBox="0 0 195 244" fill="none" xmlns="http://www.w3.org/2000/svg">
<rect width="194.119" height="243.567" fill="black" fill-opacity="0"/>
<path opacity="0.3" d="M87.6535 243.567C129.665 243.567 163.721 240.255 163.721 236.17C163.721 232.084 129.665 228.772 87.6535 228.772C45.6423 228.772 11.5854 232.084 11.5854 236.17C11.5854 240.255 45.6423 243.567 87.6535 243.567Z" fill="black"/>
<rect width="194.119" height="239.165" fill="black" fill-opacity="0"/>
<rect width="194.119" height="239.165" fill="black" fill-opacity="0"/>
<rect width="19.6144" height="48.3082" fill="black" fill-opacity="0" transform="translate(134.864 188.658)"/>
<path d="M152.264 218.819C153.937 218.406 154.84 216.246 154.342 214.563C153.843 212.88 152.298 211.725 150.658 211.232C151.559 209.863 152.505 208.319 152.278 206.701C152.07 205.207 150.229 204.056 149.083 204.841C150.418 203.697 151.376 201.918 150.961 200.225C150.561 198.589 148.45 197.589 147.123 198.442C148.4 197.266 148.581 194.957 147.358 193.721C146.018 192.366 143.421 192.737 142.446 194.426C143.165 193.309 143.751 192.103 144.184 190.844C144.378 190.279 144.531 189.612 144.202 189.124C143.704 188.381 142.565 188.65 141.776 189.08C139.212 190.472 137.128 192.776 135.973 195.492C135.6 207.985 135.231 220.478 134.864 232.971C135.028 233.835 135.934 234.322 136.778 234.423C137.62 234.524 138.487 234.366 139.321 234.523C139.995 234.651 140.612 234.979 141.22 235.304C142.935 236.22 144.779 237.165 146.711 236.93C148.643 236.697 150.533 234.722 149.978 232.798C152.615 231.196 153.253 226.917 151.176 224.661C152.327 223.918 153.556 223.076 154.017 221.759C154.476 220.443 153.601 218.63 152.264 218.819Z" fill="#79A958"/>
<rect width="24.9555" height="23.735" fill="black" fill-opacity="0" transform="translate(138.469 215.247)"/>
<path d="M157.506 235.371C157.815 235.284 158.129 235.214 158.437 235.12C160.028 234.632 161.676 233.984 162.74 232.649C163.085 232.217 163.362 231.707 163.414 231.154C163.583 229.364 161.487 228.372 159.76 228.261C157.093 228.09 154.376 228.789 152.03 230.168C153.755 228.663 155.261 226.884 156.456 224.901C156.648 224.581 156.83 224.153 156.611 223.862C156.408 223.592 156.004 223.637 155.679 223.72C151.799 224.697 148.282 227.231 146.045 230.669C148.179 227.797 150.076 224.732 151.703 221.522C152.194 220.553 152.668 219.399 152.229 218.423C148.635 219.964 145.644 222.984 144.07 226.656C145.201 224.22 145.981 221.615 146.375 218.954C146.494 218.148 146.574 217.302 146.302 216.544C146.029 215.786 145.304 215.151 144.523 215.258C143.937 215.34 143.467 215.795 143.065 216.248C139.683 220.058 138.009 225.4 138.578 230.479C138.592 232.939 138.606 235.398 138.62 237.858C139.515 238.599 140.746 238.688 141.895 238.748C149.062 239.119 156.514 239.437 163.174 236.462C161.366 235.699 159.457 235.393 157.506 235.371Z" fill="#579326"/>
<rect width="188.055" height="231.217" fill="black" fill-opacity="0" transform="translate(6.06416 4.43481)"/>
<path d="M141.027 235.652C108.741 235.652 76.4546 235.652 44.1679 235.652C43.4218 193.917 42.6758 152.182 41.9294 110.448C75.6225 110.448 109.315 110.448 143.009 110.448C142.349 152.182 141.688 193.917 141.027 235.652Z" fill="#F4EEED"/>
<path d="M114.924 235.652C123.625 235.652 132.326 235.652 141.027 235.652C141.718 191.99 142.409 148.327 143.1 104.665C134.003 104.665 124.905 104.665 115.808 104.665C115.513 148.327 115.219 191.99 114.924 235.652Z" fill="#D6CECD"/>
<path d="M44.1679 235.652C52.8691 235.652 61.5698 235.652 70.2707 235.652C69.8866 191.99 69.5025 148.327 69.1185 104.665C60.0211 104.665 50.9234 104.665 41.826 104.665C42.6068 148.327 43.3874 191.99 44.1679 235.652Z" fill="white"/>
<path d="M124.788 142.937C122.884 142.937 120.98 142.937 119.077 142.937C119.082 142.218 119.088 141.499 119.094 140.779C120.999 140.779 122.904 140.779 124.809 140.779C124.802 141.499 124.795 142.218 124.788 142.937Z" fill="#CEC3C2"/>
<path d="M127.616 145.534C125.714 145.534 123.812 145.534 121.91 145.534C121.916 144.814 121.922 144.096 121.929 143.377C123.832 143.377 125.736 143.377 127.639 143.377C127.631 144.096 127.623 144.814 127.616 145.534Z" fill="#CEC3C2"/>
<path d="M92.4201 62.3923C75.3176 76.3929 58.4515 90.393 41.8211 104.394C41.8538 106.236 41.8868 108.078 41.9198 109.92C75.619 109.92 109.318 109.92 143.017 109.92C143.047 108.078 143.076 106.236 143.104 104.394C126.446 90.393 109.551 76.3929 92.4201 62.3923Z" fill="#4F3E35"/>
<path d="M41.9198 109.92C51.2065 109.92 60.4926 109.92 69.7793 109.92C69.7625 107.988 69.746 106.055 69.7296 104.123C77.1877 90.2125 84.7514 76.3027 92.4201 62.3923C75.3176 76.3929 58.4515 90.393 41.8211 104.394C41.8538 106.236 41.8868 108.078 41.9198 109.92Z" fill="#775A4D"/>
<path d="M143.017 109.92C133.731 109.92 124.445 109.92 115.159 109.92C115.171 107.988 115.184 106.055 115.196 104.123C107.709 90.2125 100.117 76.3027 92.4191 62.3923C109.55 76.3929 126.445 90.393 143.104 104.394C143.076 106.236 143.047 108.078 143.017 109.92Z" fill="#3D2B23"/>
<path d="M142.99 111.606C109.31 111.606 75.6301 111.606 41.95 111.606C41.9363 110.834 41.9223 110.061 41.9086 109.289C75.6149 109.289 109.321 109.289 143.027 109.289C143.015 110.061 143.003 110.834 142.99 111.606Z" fill="#656E79"/>
<path opacity="0.1" d="M99.4164 94.3391C99.4108 97.7656 96.6114 100.542 93.1634 100.542C89.7156 100.542 86.9107 97.7656 86.8995 94.3391C86.8884 90.9136 89.689 88.1375 93.1537 88.1375C96.6185 88.1375 99.4225 90.9136 99.4164 94.3391Z" fill="black"/>
<path d="M98.4611 93.557C98.457 96.8446 95.7699 99.511 92.4581 99.511C89.1471 99.511 86.4541 96.8446 86.4429 93.557C86.4317 90.2682 89.1195 87.6018 92.446 87.6018C95.7732 87.6018 98.4656 90.2682 98.4611 93.557Z" fill="#535F6F"/>
<path d="M97.7655 135.111C94.1791 135.111 90.5926 135.111 87.0061 135.111C86.9921 130.222 86.9782 125.334 86.964 120.446C90.5683 120.446 94.1725 120.446 97.7767 120.446C97.7731 125.334 97.769 130.222 97.7655 135.111Z" fill="white"/>
<path d="M96.3366 132.893C93.7007 132.893 91.0649 132.893 88.4287 132.893C88.4206 129.483 88.4125 126.072 88.4044 122.662C91.0492 122.662 93.6943 122.662 96.3394 122.662C96.3384 126.072 96.3374 129.483 96.3366 132.893Z" fill="#444F5C"/>
<path d="M130.243 173.853C128.36 173.853 126.476 173.853 124.591 173.853C124.599 173.134 124.606 172.415 124.613 171.696C126.498 171.696 128.383 171.696 130.269 171.696C130.261 172.415 130.252 173.134 130.243 173.853Z" fill="#CEC3C2"/>
<path d="M61.7174 221.985C59.8643 221.985 58.0112 221.985 56.158 221.985C56.1481 221.266 56.1385 220.547 56.1286 219.827C57.9832 219.827 59.8376 219.827 61.692 219.827C61.7004 220.547 61.7088 221.266 61.7174 221.985Z" fill="#CEC3C2"/>
<path d="M78.9617 153.203C77.065 153.203 75.1679 153.203 73.2709 153.203C73.2654 152.484 73.26 151.765 73.2547 151.045C75.153 151.045 77.0513 151.045 78.9498 151.045C78.9536 151.765 78.9576 152.484 78.9617 153.203Z" fill="#CEC3C2"/>
<path d="M110.147 191.516C108.274 191.516 106.402 191.516 104.529 191.516C104.532 190.797 104.534 190.079 104.536 189.359C106.41 189.359 108.284 189.359 110.158 189.359C110.154 190.079 110.151 190.797 110.147 191.516Z" fill="#CEC3C2"/>
<path d="M103.98 191.516C102.107 191.516 100.235 191.516 98.3622 191.516C98.3632 190.797 98.3637 190.079 98.3642 189.359C100.238 189.359 102.113 189.359 103.987 189.359C103.985 190.079 103.982 190.797 103.98 191.516Z" fill="#CEC3C2"/>
<path d="M94.7555 175.72C92.8828 175.72 91.0102 175.72 89.1375 175.72C89.138 175.001 89.139 174.282 89.1395 173.563C91.0137 173.563 92.8876 173.563 94.7616 173.563C94.7595 174.282 94.7575 175.001 94.7555 175.72Z" fill="#CEC3C2"/>
<path d="M107.471 166.547C105.598 166.547 103.725 166.547 101.853 166.547C101.853 165.828 101.854 165.109 101.855 164.39C103.729 164.39 105.603 164.39 107.477 164.39C107.475 165.109 107.473 165.828 107.471 166.547Z" fill="#CEC3C2"/>
<path d="M63.6999 198.09C61.8273 198.09 59.9546 198.09 58.0819 198.09C58.0827 197.371 58.0832 196.652 58.084 195.934C59.9579 195.934 61.8321 195.934 63.7062 195.934C63.7042 196.652 63.7019 197.371 63.6999 198.09Z" fill="#CEC3C2"/>
<path d="M59.4195 194.196C57.5469 194.196 55.6742 194.196 53.8016 194.196C53.8021 193.477 53.8031 192.758 53.8036 192.039C55.6778 192.039 57.5517 192.039 59.4256 192.039C59.4236 192.758 59.4216 193.477 59.4195 194.196Z" fill="#CEC3C2"/>
<path d="M60.8878 150.873C59.0152 150.873 57.1425 150.873 55.2699 150.873C55.2704 150.154 55.2714 149.436 55.2719 148.717C57.1461 148.717 59.02 148.717 60.8939 148.717C60.8919 149.436 60.8899 150.154 60.8878 150.873Z" fill="#CEC3C2"/>
<path d="M79.9249 202.686C78.0523 202.686 76.1796 202.686 74.3069 202.686C74.3075 201.967 74.3085 201.248 74.309 200.529C76.1832 200.529 78.0571 200.529 79.931 200.529C79.929 201.248 79.9269 201.967 79.9249 202.686Z" fill="#CEC3C2"/>
<path d="M106.792 220.683C104.92 220.683 103.047 220.683 101.174 220.683C101.175 219.964 101.176 219.245 101.176 218.526C103.051 218.526 104.925 218.526 106.798 218.526C106.796 219.245 106.794 219.964 106.792 220.683Z" fill="#CEC3C2"/>
<path d="M95.6647 224.142C93.792 224.142 91.9193 224.142 90.0467 224.142C90.0475 223.423 90.0482 222.704 90.0487 221.985C91.9229 221.985 93.7971 221.985 95.671 221.985C95.669 222.704 95.6667 223.423 95.6647 224.142Z" fill="#CEC3C2"/>
<path d="M134.427 209.791C132.554 209.791 130.681 209.791 128.809 209.791C128.809 209.072 128.81 208.353 128.811 207.634C130.685 207.634 132.559 207.634 134.433 207.634C134.431 208.353 134.429 209.072 134.427 209.791Z" fill="#CEC3C2"/>
<path d="M124.88 193.117C123.008 193.117 121.135 193.117 119.262 193.117C119.263 192.398 119.263 191.68 119.264 190.96C121.138 190.96 123.012 190.96 124.886 190.96C124.884 191.68 124.882 192.398 124.88 193.117Z" fill="#CEC3C2"/>
<path d="M68.1636 210.869C66.291 210.869 64.4183 210.869 62.5457 210.869C62.5464 210.15 62.5469 209.431 62.5477 208.712C64.4216 208.712 66.2958 208.712 68.17 208.712C68.1679 209.431 68.1657 210.15 68.1636 210.869Z" fill="#CEC3C2"/>
<path d="M112.964 147.789C111.091 147.789 109.219 147.789 107.346 147.789C107.346 147.07 107.347 146.351 107.348 145.632C109.222 145.632 111.096 145.632 112.97 145.632C112.968 146.351 112.966 147.07 112.964 147.789Z" fill="#CEC3C2"/>
<path d="M53.3305 167.625C51.4427 167.625 49.5545 167.625 47.6667 167.625C47.655 166.906 47.6433 166.188 47.6317 165.469C49.5211 165.469 51.4104 165.469 53.2996 165.469C53.31 166.188 53.3201 166.906 53.3305 167.625Z" fill="#CEC3C2"/>
<path d="M138.161 230.419C136.313 230.419 134.465 230.419 132.617 230.419C132.627 229.7 132.636 228.982 132.645 228.263C134.494 228.263 136.343 228.263 138.193 228.263C138.182 228.982 138.171 229.7 138.161 230.419Z" fill="#CEC3C2"/>
<path d="M132.076 230.419C130.228 230.419 128.38 230.419 126.533 230.419C126.54 229.7 126.548 228.982 126.555 228.263C128.405 228.263 130.254 228.263 132.103 228.263C132.094 228.982 132.085 229.7 132.076 230.419Z" fill="#CEC3C2"/>
<path d="M43.8163 215.977C45.4338 215.977 47.0512 215.977 48.6687 215.977C48.657 215.258 48.6453 214.539 48.6337 213.82C47.0149 213.82 45.3962 213.82 43.7778 213.82C43.7904 214.539 43.8034 215.258 43.8163 215.977Z" fill="#CEC3C2"/>
<rect width="188.055" height="186.004" fill="black" fill-opacity="0" transform="translate(6.06416 4.43481)"/>
<path opacity="0.3" d="M193.877 47.3949C190.008 41.5584 186.116 35.7218 182.201 29.8855C181.753 29.2179 180.736 29.028 180.037 29.4808C177.854 30.8917 175.674 32.3026 173.497 33.7133C173.496 33.7143 173.494 33.7148 173.493 33.7158C173.492 33.7168 173.491 33.7179 173.489 33.7186C169.313 36.4251 165.148 39.1313 160.994 41.8377C160.988 41.8416 160.981 41.8448 160.975 41.8489C160.969 41.8527 160.963 41.8575 160.957 41.8616C158.884 43.2122 156.814 44.563 154.746 45.9133C154.745 45.9143 154.743 45.9153 154.741 45.9163C154.74 45.9173 154.738 45.9189 154.737 45.9199C152.664 47.2737 150.594 48.6279 148.526 49.982C148.526 49.982 148.525 49.9825 148.525 49.9827C148.524 49.9832 148.524 49.9835 148.523 49.9838C146.458 51.3364 144.395 52.6892 142.334 54.0421C142.331 54.0446 142.326 54.0466 142.322 54.0492C142.318 54.0519 142.315 54.055 142.31 54.0578C140.253 55.4091 138.198 56.7604 136.146 58.1113C136.143 58.113 136.14 58.1143 136.138 58.1158C136.135 58.1176 136.133 58.1196 136.13 58.1214C132.017 60.8296 127.914 63.5381 123.822 66.2466C123.82 66.2476 123.818 66.2486 123.816 66.2497C123.815 66.2507 123.813 66.2524 123.812 66.2532C122.121 67.3723 120.432 68.4914 118.745 69.6107C118.761 73.717 118.778 77.8232 118.794 81.9291C112.166 86.3431 105.568 90.7571 98.9974 95.1712C94.5525 88.663 90.0784 82.1548 85.5754 75.6466C87.1494 71.8492 88.7291 68.0518 90.3148 64.2544C86.4021 58.6074 82.4678 52.9605 78.5114 47.3135C78.5099 47.3113 78.5089 47.309 78.5074 47.3067C78.5056 47.3044 78.5038 47.3027 78.5023 47.3004C77.105 45.3058 75.705 43.3115 74.3024 41.317C74.3009 41.315 74.2999 41.3127 74.2983 41.3107C74.2968 41.3086 74.2953 41.3071 74.2938 41.3051C72.8899 39.3088 71.483 37.3124 70.0736 35.3161C70.0731 35.3156 70.0731 35.3151 70.0725 35.3149C70.0725 35.3144 70.072 35.3141 70.0718 35.3136C68.6626 33.3178 67.2506 31.3217 65.8361 29.3257C65.8346 29.3236 65.8333 29.3216 65.8321 29.3193C65.8305 29.3173 65.8288 29.3155 65.8272 29.3132C64.4155 27.3217 63.0015 25.33 61.5845 23.3382C61.5809 23.3332 61.5779 23.3276 61.5743 23.3225C61.5705 23.3174 61.5662 23.3129 61.5626 23.3078C58.723 19.3167 55.8724 15.3256 53.0111 11.3345C53.0101 11.3332 53.0096 11.3319 53.0086 11.3307C53.0078 11.3294 53.0068 11.3284 53.0061 11.3274C51.5144 9.24688 50.0203 7.16664 48.5228 5.08641C48.0431 4.41911 47.0096 4.22896 46.3242 4.68177C40.3226 8.64043 34.3442 12.5986 28.3891 16.5575C27.6803 17.0283 27.5134 17.9735 28.0162 18.6682C29.5215 20.7492 31.0235 22.8296 32.5228 24.9106C32.5235 24.9114 32.5241 24.9124 32.5246 24.9132C32.5251 24.9139 32.5256 24.9142 32.5256 24.9147C33.9647 26.9115 35.4008 28.9086 36.8343 30.9057C36.8351 30.9067 36.8361 30.9082 36.8366 30.9092C36.8371 30.91 36.8379 30.9105 36.8381 30.9113C41.141 36.9053 45.4196 42.9001 49.6732 48.8943C49.674 48.8953 49.6748 48.8964 49.6753 48.8976C49.6758 48.8979 49.6763 48.8984 49.6768 48.8989C52.5119 52.8941 55.3364 56.8895 58.1497 60.8849C58.1507 60.8864 58.1514 60.8879 58.1524 60.8892C58.153 60.89 58.1537 60.8905 58.1542 60.8915C62.2537 66.7126 66.3298 72.5342 70.383 78.3556C74.4018 78.1987 78.4211 78.0415 82.4409 77.8843C82.4886 77.8523 82.5365 77.8204 82.5845 77.7882C86.9954 84.1587 91.3785 90.5295 95.7342 96.9002C89.3115 101.221 82.9165 105.542 76.549 109.862C76.5165 109.815 76.4838 109.767 76.451 109.72C72.8029 108.108 69.1492 106.496 65.4891 104.885C55.6826 111.545 45.9416 118.205 36.2663 124.865C26.3378 131.699 16.4786 138.533 6.68841 145.368C6.01337 145.839 5.86243 146.784 6.35051 147.479C10.4502 153.315 14.5266 159.152 18.5799 164.988C19.0426 165.656 20.0243 165.846 20.6697 165.393C22.6828 163.982 24.6993 162.571 26.7189 161.161C26.7201 161.16 26.7219 161.159 26.7229 161.158C26.7245 161.157 26.7257 161.156 26.727 161.155C28.6661 159.8 30.6075 158.446 32.5517 157.091C32.5517 157.091 32.552 157.091 32.5522 157.091C32.5522 157.091 32.5527 157.091 32.5527 157.09C34.4939 155.738 36.4378 154.386 38.3845 153.033C38.3891 153.03 38.3939 153.028 38.3985 153.025C38.4031 153.021 38.4071 153.018 38.4117 153.014C40.3559 151.664 42.3026 150.314 44.2521 148.963C44.2547 148.961 44.2577 148.959 44.2602 148.958C44.2633 148.956 44.2656 148.954 44.2684 148.952C46.2217 147.598 48.1781 146.245 50.137 144.891C50.1372 144.891 50.1375 144.891 50.1377 144.891C50.138 144.891 50.1382 144.89 50.1385 144.89C52.0992 143.536 54.0624 142.181 56.0284 140.827C56.0299 140.826 56.0314 140.825 56.0325 140.824C56.034 140.823 56.035 140.822 56.0365 140.821C57.9995 139.469 59.9652 138.117 61.9335 136.764C61.9366 136.762 61.9401 136.76 61.9432 136.758C61.9462 136.756 61.9493 136.754 61.9523 136.751C67.5259 132.922 73.1213 129.093 78.7382 125.263C78.6677 121.157 78.5974 117.051 78.5266 112.945C85.0279 108.531 91.5581 104.117 98.1171 99.7025C102.557 106.21 106.969 112.719 111.352 119.227C109.768 123.024 108.19 126.822 106.618 130.62C107.728 132.27 108.836 133.921 109.942 135.572C109.943 135.573 109.944 135.574 109.945 135.575C109.945 135.576 109.946 135.577 109.947 135.578C112.623 139.572 115.289 143.566 117.944 147.56C117.946 147.563 117.947 147.565 117.948 147.567C117.95 147.57 117.951 147.572 117.953 147.574C119.278 149.567 120.6 151.56 121.919 153.553C121.921 153.556 121.923 153.56 121.925 153.563C121.927 153.566 121.929 153.569 121.932 153.572C124.574 157.564 127.206 161.556 129.827 165.548C129.828 165.55 129.829 165.553 129.831 165.555C129.833 165.557 129.834 165.558 129.836 165.56C131.143 167.553 132.448 169.544 133.75 171.536C133.753 171.541 133.756 171.546 133.759 171.551C133.762 171.556 133.766 171.56 133.769 171.564C136.379 175.556 138.978 179.548 141.566 183.54C141.567 183.541 141.567 183.542 141.568 183.543C141.568 183.544 141.569 183.545 141.57 183.546C142.919 185.627 144.265 187.707 145.608 189.787C146.038 190.455 147.003 190.645 147.663 190.192C153.435 186.234 159.231 182.275 165.05 178.316C165.743 177.845 165.943 176.9 165.497 176.205C164.161 174.124 162.822 172.042 161.48 169.961C161.48 169.961 161.48 169.961 161.48 169.96L161.479 169.96C160.191 167.962 158.901 165.964 157.607 163.967C157.607 163.967 157.607 163.965 157.606 163.965C157.606 163.965 157.606 163.964 157.606 163.964C153.724 157.969 149.817 151.973 145.887 145.977C145.886 145.977 145.886 145.977 145.886 145.976L145.885 145.976C139.447 136.156 132.944 126.337 126.375 116.518C122.404 116.675 118.434 116.832 114.465 116.989C114.417 117.021 114.369 117.053 114.321 117.086C110.034 110.715 105.72 104.344 101.378 97.9737C107.807 93.653 114.263 89.332 120.747 85.0111C120.779 85.0587 120.812 85.1059 120.844 85.1531C124.498 86.765 128.146 88.3765 131.788 89.9882C137.716 86.0414 143.667 82.0944 149.64 78.1474C149.643 78.1454 149.646 78.1439 149.649 78.1421C149.652 78.1404 149.655 78.1378 149.658 78.1358C153.757 75.4275 157.867 72.7191 161.988 70.0106C161.989 70.0101 161.99 70.0095 161.991 70.0085C161.992 70.008 161.993 70.007 161.994 70.0065C164.055 68.6521 166.119 67.2978 168.185 65.9434C168.186 65.9426 168.187 65.9424 168.188 65.9416C168.189 65.9411 168.189 65.9403 168.19 65.9398C172.323 63.2311 176.466 60.5218 180.621 57.8131C180.624 57.8116 180.626 57.8101 180.629 57.8085C180.632 57.8068 180.634 57.8047 180.636 57.803C182.712 56.4496 184.79 55.0962 186.871 53.7431C186.872 53.7424 186.872 53.7421 186.873 53.7416C186.874 53.7414 186.875 53.7404 186.875 53.7398C189.046 52.3287 191.219 50.9173 193.395 49.5058C194.121 49.0348 194.337 48.0896 193.877 47.3949ZM180.265 54.4393C176.938 49.4415 173.593 44.4438 170.232 39.4457C171.443 38.6587 172.655 37.8717 173.869 37.0848C177.226 42.0829 180.567 47.0811 183.891 52.0787C182.681 52.8657 181.472 53.6524 180.265 54.4393ZM174.029 58.5063C172.699 56.5105 171.365 54.5146 170.029 52.5183C171.235 51.7314 172.442 50.9449 173.65 50.1574C174.985 52.1537 176.317 54.1496 177.646 56.1459C176.44 56.9326 175.234 57.7193 174.029 58.5063ZM167.811 62.5729C166.478 60.5769 165.143 58.5811 163.804 56.585C165.007 55.798 166.211 55.0113 167.416 54.2243C168.753 56.2204 170.087 58.2162 171.419 60.2123C170.216 60.999 169.013 61.786 167.811 62.5729ZM161.609 66.6398C160.273 64.6438 158.936 62.648 157.595 60.6517C158.795 59.8647 159.996 59.0777 161.197 58.291C162.537 60.2871 163.874 62.2829 165.207 64.2792C164.007 65.0662 162.807 65.8529 161.609 66.6398ZM155.423 70.7068C154.086 68.7107 152.746 66.7146 151.403 64.7186C152.6 63.9316 153.797 63.1446 154.995 62.3577C156.337 64.3537 157.676 66.3501 159.012 68.3459C157.814 69.1328 156.618 69.9198 155.423 70.7068ZM149.254 74.7729C147.915 72.7769 146.573 70.7808 145.228 68.785C146.421 67.998 147.615 67.2113 148.81 66.4246C150.154 68.4207 151.495 70.4167 152.833 72.4125C151.639 73.1995 150.446 73.9862 149.254 74.7729ZM143.1 78.8401C141.758 76.844 140.414 74.848 139.067 72.8522C140.258 72.0652 141.449 71.2782 142.641 70.4913C143.987 72.4873 145.33 74.4834 146.67 76.4797C145.479 77.2667 144.289 78.0531 143.1 78.8401ZM136.964 82.9063C135.62 80.9104 134.274 78.9144 132.924 76.9183C134.112 76.1311 135.3 75.3444 136.489 74.5574C137.837 76.5535 139.182 78.5495 140.525 80.5456C139.337 81.3326 138.15 82.1195 136.964 82.9063ZM130.388 65.5509C131.744 67.5467 133.097 69.5431 134.448 71.5389C133.259 72.3258 132.07 73.1128 130.882 73.8998C129.53 71.9039 128.175 69.9076 126.818 67.9118C128.007 67.1249 129.197 66.3379 130.388 65.5509ZM136.55 61.4843C137.904 63.4806 139.256 65.4764 140.604 67.4724C139.411 68.2597 138.219 69.0466 137.028 69.8336C135.678 67.8378 134.325 65.8417 132.97 63.8457C134.163 63.0587 135.356 62.2715 136.55 61.4843ZM142.729 57.4181C144.081 59.4142 145.43 61.4102 146.776 63.406C145.58 64.1927 144.386 64.9795 143.192 65.7662C141.844 63.7701 140.494 61.7743 139.14 59.7785C140.336 58.9918 141.532 58.2051 142.729 57.4181ZM148.924 53.3512C150.274 55.3472 151.621 57.3433 152.965 59.3394C151.766 60.1261 150.568 60.913 149.37 61.6998C148.025 59.7039 146.677 57.7081 145.326 55.7121C146.525 54.9251 147.724 54.1381 148.924 53.3512ZM155.136 49.2845C156.483 51.2806 157.828 53.2764 159.17 55.2722C157.968 56.0592 156.767 56.8461 155.566 57.6333C154.223 55.6373 152.877 53.6415 151.528 51.6454C152.73 50.8582 153.932 50.0715 155.136 49.2845ZM161.363 45.2184C162.709 47.2142 164.051 49.21 165.391 51.2058C164.186 51.9928 162.981 52.7795 161.777 53.5664C160.436 51.5706 159.092 49.5751 157.746 47.5793C158.951 46.7923 160.157 46.0053 161.363 45.2184ZM167.608 41.1514C168.951 43.1472 170.292 45.1431 171.629 47.1389C170.421 47.9258 169.213 48.7128 168.006 49.4998C166.667 47.5037 165.326 45.5076 163.982 43.5118C165.19 42.7251 166.398 41.9381 167.608 41.1514ZM121.865 71.1928C122.656 70.6677 123.448 70.1429 124.241 69.6181C125.599 71.6142 126.955 73.6102 128.308 75.606C126.179 77.0182 124.052 78.4306 121.928 79.8431C121.908 76.9594 121.886 74.0762 121.865 71.1928ZM83.445 72.5705C82.0013 70.4882 80.5548 68.406 79.1053 66.3237C81.1307 64.9698 83.1586 63.6162 85.1893 62.2626C85.7273 63.0364 86.2649 63.8107 86.8021 64.5847C85.6801 67.2465 84.5611 69.9086 83.445 72.5705ZM65.7922 66.4363C67.8118 65.0824 69.8336 63.7285 71.8584 62.3749C72.6702 63.5353 73.4807 64.6955 74.2902 65.8557C72.2669 67.2095 70.2458 68.5634 68.2275 69.917C67.4165 68.7566 66.6048 67.5964 65.7922 66.4363ZM61.5845 60.4407C63.606 59.0868 65.6301 57.733 67.6573 56.3791C68.4718 57.5393 69.2854 58.6995 70.0982 59.8599C68.0725 61.2135 66.0495 62.5673 64.0292 63.9212C63.2151 62.761 62.4003 61.6011 61.5845 60.4407ZM57.3602 54.4447C59.3838 53.0908 61.4102 51.7369 63.4394 50.3831C64.2572 51.5432 65.0738 52.7034 65.8896 53.8636C63.8617 55.2174 61.8366 56.571 59.8138 57.9247C58.9969 56.765 58.1791 55.6046 57.3602 54.4447ZM53.1195 48.4486C55.1451 47.0948 57.1738 45.7409 59.205 44.387C60.0259 45.5472 60.8457 46.7076 61.6649 47.8678C59.6347 49.2216 57.6075 50.5752 55.5829 51.9291C54.7625 50.7689 53.9416 49.6088 53.1195 48.4486ZM48.8625 42.4526C50.8904 41.0987 52.9211 39.7451 54.9543 38.3912C55.7785 39.5514 56.6017 40.7118 57.4236 41.8717C55.3917 43.2258 53.3622 44.5795 51.3356 45.9331C50.5121 44.7729 49.688 43.6127 48.8625 42.4526ZM44.589 36.4565C46.6189 35.1027 48.6519 33.749 50.6874 32.3954C51.5147 33.5556 52.3409 34.7155 53.1664 35.8757C51.1319 37.2293 49.1004 38.5831 47.0715 39.937C46.2448 38.7766 45.4173 37.6167 44.589 36.4565ZM40.2993 30.4605C42.3315 29.1066 44.3665 27.7527 46.4043 26.3991C47.2346 27.5595 48.0644 28.7197 48.8929 29.8804C46.8564 31.234 44.8229 32.5876 42.792 33.9415C41.9619 32.7811 41.1309 31.6206 40.2993 30.4605ZM35.9934 24.4644C41.0877 21.0742 46.1989 17.6844 51.3272 14.2947C52.159 15.4551 52.9898 16.6156 53.8199 17.7757C48.6945 21.1655 43.586 24.5552 38.4946 27.9449C37.6618 26.7848 36.828 25.6246 35.9934 24.4644ZM58.1002 23.7718C56.0558 25.1256 54.0137 26.4792 51.9746 27.8329C51.1466 26.6724 50.3176 25.512 49.4881 24.3519C51.5281 22.998 53.5713 21.6444 55.6169 20.2908C56.4457 21.4512 57.2734 22.6114 58.1002 23.7718ZM62.3643 29.7676C60.3217 31.1212 58.2821 32.475 56.245 33.8284C55.4201 32.6682 54.5946 31.5081 53.7681 30.3479C55.8062 28.9945 57.8473 27.6407 59.8909 26.2871C60.7164 27.4472 61.5408 28.6074 62.3643 29.7676ZM66.6116 35.7629C64.5713 37.1167 62.534 38.4706 60.4992 39.8244C59.6776 38.6643 58.8551 37.5041 58.0317 36.344C60.0677 34.9903 62.1065 33.6362 64.1479 32.2824C64.9701 33.4425 65.7915 34.6027 66.6116 35.7629ZM70.8432 41.7594C68.8052 43.1133 66.7697 44.4669 64.7372 45.8208C63.9188 44.6603 63.0992 43.4999 62.279 42.3395C64.3128 40.9859 66.3496 39.6323 68.3886 38.2784C69.208 39.4386 70.0259 40.5992 70.8432 41.7594ZM75.0583 47.7555C73.0223 49.1091 70.9893 50.4627 68.9586 51.8163C68.1433 50.6561 67.3272 49.4962 66.5101 48.336C68.5419 46.9822 70.5764 45.6283 72.6136 44.2747C73.4295 45.4349 74.2445 46.5953 75.0583 47.7555ZM79.2572 53.7513C77.2235 55.1049 75.1923 56.4587 73.1639 57.8123C72.3519 56.6519 71.5388 55.4918 70.7248 54.3318C72.7544 52.9777 74.7864 51.6239 76.8214 50.27C77.6342 51.4307 78.4465 52.5908 79.2572 53.7513ZM74.9231 60.3276C76.9508 58.9738 78.9807 57.6202 81.0137 56.2666C81.8234 57.4267 82.6322 58.5869 83.4399 59.7471C81.4079 61.1009 79.379 62.4548 77.3529 63.8084C76.5439 62.648 75.7339 61.4878 74.9231 60.3276ZM46.8427 8.05071C47.7372 9.29353 48.6306 10.5363 49.5228 11.7792C44.3922 15.1692 39.2788 18.5591 34.1821 21.9491C33.2866 20.7061 32.3896 19.4632 31.4918 18.2202C36.5918 14.8304 41.7087 11.4404 46.8427 8.05071ZM80.3871 74.6188C77.4762 74.6888 74.5657 74.7592 71.6553 74.8297C71.0987 74.0306 70.5416 73.2314 69.9843 72.4328C72.0015 71.0787 74.0213 69.7251 76.0441 68.3712C77.4949 70.4535 78.9427 72.5358 80.3876 74.6183C80.3874 74.6183 80.3871 74.6188 80.3871 74.6188ZM73.382 112.012C73.382 112.012 73.3823 112.012 73.3825 112.013C71.3039 113.425 69.2288 114.837 67.1563 116.249C65.7813 114.253 64.4033 112.257 63.0228 110.261C63.8189 109.719 64.6154 109.177 65.4125 108.635C68.072 109.761 70.7286 110.886 73.382 112.012ZM67.3922 129.323C66.0231 127.327 64.6514 125.331 63.277 123.335C64.4279 122.548 65.5799 121.761 66.7326 120.974C68.1058 122.97 69.4764 124.966 70.844 126.962C69.6925 127.749 68.5419 128.536 67.3922 129.323ZM61.4586 133.389C60.0875 131.393 58.7138 129.398 57.3374 127.402C58.4853 126.615 59.6342 125.828 60.7839 125.041C62.159 127.037 63.5317 129.032 64.9013 131.029C63.7529 131.816 62.6053 132.602 61.4586 133.389ZM55.5418 137.456C54.1689 135.46 52.793 133.464 51.4145 131.468C52.5588 130.681 53.7042 129.894 54.8503 129.108C56.2278 131.103 57.6027 133.099 58.9746 135.095C57.8295 135.882 56.6854 136.669 55.5418 137.456ZM49.6408 141.523C48.2653 139.527 46.8873 137.531 45.5068 135.535C46.6484 134.748 47.7907 133.961 48.934 133.174C50.3135 135.17 51.6905 137.166 53.0647 139.162C51.9224 139.949 50.7813 140.736 49.6408 141.523ZM43.7569 145.589C42.3795 143.593 40.9995 141.597 39.6164 139.601C40.7547 138.815 41.8937 138.028 43.0337 137.241C44.4155 139.237 45.7942 141.233 47.1704 143.229C46.0319 144.015 44.8939 144.802 43.7569 145.589ZM37.8889 149.656C36.5091 147.66 35.1268 145.664 33.7417 143.668C34.8767 142.881 36.0129 142.094 37.1496 141.308C38.5337 143.303 39.9147 145.299 41.2932 147.295C40.1575 148.082 39.0228 148.869 37.8889 149.656ZM32.0372 153.722C30.6555 151.726 29.2709 149.731 27.8838 147.735C29.0157 146.948 30.1486 146.161 31.2826 145.374C32.6684 147.37 34.0517 149.366 35.4322 151.361C34.2998 152.148 33.1679 152.935 32.0372 153.722ZM26.2016 157.789C22.7361 152.791 19.2536 147.793 15.7539 142.795C16.8845 142.008 18.0162 141.221 19.1486 140.435C22.6451 145.432 26.1245 150.43 29.587 155.428C28.4576 156.215 27.3292 157.002 26.2016 157.789ZM25.0096 136.368C26.4038 138.363 27.7955 140.36 29.1841 142.355C28.0497 143.142 26.916 143.929 25.7833 144.716C24.3934 142.72 23.0005 140.724 21.6052 138.729C22.7392 137.942 23.8741 137.155 25.0096 136.368ZM30.8866 132.301C32.2785 134.297 33.6681 136.293 35.0548 138.289C33.9173 139.076 32.7805 139.863 31.6448 140.649C30.2569 138.654 28.8665 136.658 27.4733 134.662C28.61 133.875 29.7478 133.088 30.8866 132.301ZM36.7808 128.234C38.1704 130.23 39.5575 132.226 40.9421 134.222C39.8013 135.009 38.6616 135.796 37.5225 136.583C36.1369 134.587 34.7486 132.591 33.3574 130.595C34.4977 129.808 35.6387 129.021 36.7808 128.234ZM42.6902 124.168C44.0781 126.164 45.4632 128.16 46.8457 130.156C45.7016 130.943 44.5586 131.729 43.4165 132.516C42.0329 130.52 40.6468 128.524 39.258 126.528C40.401 125.742 41.5454 124.954 42.6902 124.168ZM48.6164 120.101C50.002 122.097 51.3851 124.093 52.7651 126.089C51.6184 126.876 50.4723 127.663 49.3272 128.449C47.9457 126.453 46.5616 124.457 45.1748 122.461C46.3211 121.674 47.4683 120.888 48.6164 120.101ZM54.5596 116.034C55.9429 118.03 57.3237 120.026 58.7017 122.022C57.5515 122.809 56.4021 123.596 55.2537 124.383C53.8742 122.387 52.4924 120.391 51.1075 118.395C52.2572 117.608 53.4079 116.821 54.5596 116.034ZM61.1963 120.316C59.8194 118.32 58.4394 116.324 57.0568 114.328C58.2095 113.541 59.3633 112.754 60.5177 111.967C61.899 113.964 63.278 115.96 64.654 117.956C63.5005 118.743 62.348 119.529 61.1963 120.316ZM20.142 162.024C16.6707 157.026 13.1826 152.028 9.67725 147.031C10.885 146.188 12.0938 145.344 13.3038 144.501C16.8056 149.499 20.2904 154.497 23.7582 159.495C22.5519 160.338 21.3465 161.181 20.142 162.024ZM75.6504 123.681C74.8808 124.206 74.1111 124.731 73.342 125.256C71.9751 123.26 70.6058 121.264 69.2334 119.268C71.3047 117.856 73.379 116.443 75.4561 115.031C75.5211 117.915 75.586 120.798 75.6504 123.681ZM113.421 122.302C114.82 124.385 116.217 126.467 117.61 128.55C115.609 129.904 113.61 131.257 111.614 132.611C111.095 131.837 110.576 131.063 110.057 130.289C111.175 127.627 112.296 124.965 113.421 122.302ZM130.653 128.438C128.646 129.792 126.641 131.145 124.64 132.499C123.867 131.339 123.093 130.179 122.319 129.018C124.322 127.664 126.328 126.311 128.336 124.957C129.11 126.117 129.882 127.278 130.653 128.438ZM134.631 134.433C132.626 135.787 130.623 137.141 128.624 138.495C127.854 137.334 127.084 136.174 126.312 135.014C128.313 133.66 130.317 132.306 132.324 130.952C133.093 132.112 133.862 133.273 134.631 134.433ZM138.593 140.429C136.589 141.783 134.589 143.137 132.592 144.49C131.826 143.33 131.059 142.17 130.291 141.01C132.29 139.657 134.291 138.303 136.295 136.949C137.062 138.109 137.827 139.269 138.593 140.429ZM142.538 146.425C140.537 147.779 138.539 149.133 136.544 150.486C135.781 149.326 135.017 148.166 134.252 147.006C136.249 145.652 138.248 144.298 140.25 142.944C141.014 144.104 141.776 145.265 142.538 146.425ZM146.467 152.421C144.469 153.775 142.473 155.129 140.48 156.483C139.72 155.322 138.959 154.162 138.197 153.002C140.192 151.648 142.189 150.294 144.188 148.94C144.949 150.101 145.709 151.261 146.467 152.421ZM150.38 158.417C148.384 159.771 146.39 161.125 144.399 162.479C143.643 161.318 142.885 160.158 142.126 158.998C144.119 157.644 146.114 156.291 148.111 154.937C148.868 156.097 149.625 157.257 150.38 158.417ZM154.276 164.413C152.283 165.767 150.291 167.121 148.302 168.474C147.549 167.314 146.794 166.154 146.039 164.994C148.029 163.64 150.021 162.287 152.017 160.933C152.771 162.093 153.524 163.253 154.276 164.413ZM158.157 170.409C153.169 173.799 148.198 177.189 143.244 180.579C142.492 179.419 141.738 178.258 140.984 177.098C145.941 173.708 150.915 170.319 155.907 166.929C156.658 168.089 157.407 169.249 158.157 170.409ZM137.078 171.102C139.06 169.749 141.044 168.395 143.031 167.042C143.787 168.202 144.542 169.362 145.297 170.522C143.311 171.875 141.328 173.229 139.347 174.583C138.592 173.423 137.836 172.263 137.078 171.102ZM133.155 165.106C135.139 163.752 137.126 162.399 139.115 161.045C139.875 162.205 140.633 163.366 141.391 164.526C139.402 165.879 137.417 167.233 135.435 168.587C134.676 167.426 133.916 166.266 133.155 165.106ZM129.217 159.111C131.203 157.757 133.192 156.403 135.183 155.049C135.946 156.209 136.707 157.37 137.468 158.53C135.478 159.884 133.49 161.237 131.505 162.591C130.744 161.431 129.981 160.271 129.217 159.111ZM125.262 153.114C127.25 151.76 129.241 150.407 131.235 149.053C132 150.213 132.765 151.374 133.529 152.534C131.537 153.888 129.547 155.242 127.56 156.596C126.795 155.435 126.029 154.275 125.262 153.114ZM121.291 147.119C123.282 145.765 125.274 144.412 127.27 143.058C128.039 144.218 128.807 145.378 129.573 146.538C127.579 147.891 125.587 149.245 123.598 150.599C122.83 149.439 122.061 148.279 121.291 147.119ZM117.302 141.122C119.295 139.768 121.291 138.415 123.289 137.061C124.061 138.221 124.832 139.382 125.602 140.542C123.606 141.896 121.611 143.25 119.62 144.604C118.849 143.443 118.076 142.283 117.302 141.122ZM121.615 134.546C119.616 135.9 117.619 137.254 115.626 138.608C114.851 137.447 114.076 136.287 113.299 135.127C115.294 133.773 117.292 132.419 119.292 131.066C120.067 132.226 120.841 133.386 121.615 134.546ZM147.285 186.823C146.482 185.58 145.679 184.337 144.874 183.095C149.825 179.705 154.794 176.314 159.779 172.924C160.581 174.168 161.382 175.411 162.181 176.654C157.198 180.044 152.233 183.433 147.285 186.823ZM116.452 120.255C119.321 120.185 122.189 120.114 125.057 120.044C125.592 120.843 126.125 121.642 126.658 122.441C124.649 123.795 122.642 125.149 120.638 126.503C119.245 124.42 117.85 122.338 116.452 120.255L116.452 120.255ZM123.976 82.8619V82.8616C126.098 81.4492 128.223 80.0368 130.352 78.6246C131.702 80.6204 133.05 82.6167 134.394 84.6125C133.579 85.1546 132.764 85.6964 131.949 86.2382C129.294 85.113 126.636 83.9873 123.976 82.8619ZM186.514 50.3732C183.193 45.375 179.855 40.3766 176.5 35.3785C177.801 34.5358 179.103 33.6928 180.405 32.8498C183.758 37.8479 187.093 42.8455 190.411 47.8437C189.112 48.6869 187.813 49.5302 186.514 50.3732Z" fill="black"/>
<rect width="36.1821" height="0.447081" fill="black" fill-opacity="0" transform="translate(72.6347 106.875)"/>
<path d="M72.6347 106.964C72.6347 106.952 72.761 106.941 73.0023 106.931C73.2433 106.921 73.5987 106.913 74.0566 106.906C74.9721 106.891 76.2968 106.881 77.9341 106.878C81.2085 106.87 85.7316 106.883 90.7281 106.92C95.724 106.958 100.246 107.011 103.52 107.068C105.157 107.096 106.481 107.125 107.396 107.153C107.854 107.168 108.209 107.181 108.45 107.195C108.691 107.209 108.817 107.221 108.817 107.234C108.817 107.246 108.69 107.257 108.449 107.267C108.208 107.276 107.852 107.285 107.395 107.292C106.479 107.307 105.154 107.317 103.517 107.32C100.243 107.328 95.721 107.315 90.7258 107.277C85.7301 107.24 81.2075 107.187 77.9335 107.13C76.2968 107.102 74.9721 107.073 74.0563 107.045C73.5987 107.03 73.2433 107.017 73.0023 107.003C72.761 106.99 72.6347 106.977 72.6347 106.964Z" fill="#362A18"/>
<rect width="13.0961" height="1.03605" fill="black" fill-opacity="0" transform="translate(85.3651 74.1196)"/>
<path d="M85.3651 74.9253C85.3679 74.8761 86.1053 74.851 87.2925 74.8497C88.48 74.887 90.1162 74.782 91.9247 74.729C93.723 74.5642 95.3572 74.4707 96.5373 74.2912C97.7189 74.1502 98.454 74.0871 98.4611 74.136C98.4682 74.1847 97.7468 74.3358 96.5749 74.5407C95.4108 74.783 93.7636 74.9194 91.9475 75.0853C90.1274 75.139 88.479 75.2039 87.2877 75.102C86.0962 75.0384 85.3623 74.9745 85.3651 74.9253Z" fill="#362A18"/>
<rect width="18.4147" height="1.29064" fill="black" fill-opacity="0" transform="translate(85.741 76.9087)"/>
<path d="M85.741 78.1844C85.7377 78.1598 85.9909 78.1073 86.4523 78.0333C86.9138 77.959 87.583 77.8632 88.4115 77.7524C90.0655 77.4998 92.3699 77.3201 94.9148 77.1109C97.4672 76.9935 99.7787 76.8767 101.449 76.9167C102.285 76.9213 102.962 76.9309 103.429 76.9456C103.897 76.9603 104.156 76.9801 104.156 77.005C104.156 77.0295 103.898 77.0567 103.431 77.0846C102.964 77.1124 102.288 77.1414 101.452 77.1692C99.7792 77.1938 97.4798 77.3503 94.9384 77.4674C92.4008 77.6761 90.0992 77.8152 88.4409 78.0034C87.6104 78.082 86.9371 78.1393 86.4703 78.1712C86.0041 78.2026 85.7443 78.2087 85.741 78.1844Z" fill="#362A18"/>
<rect width="14.7908" height="1.29047" fill="black" fill-opacity="0" transform="translate(61.8013 88.7739)"/>
<path d="M61.8014 90.0494C61.7927 90.0008 62.6073 89.8398 63.9335 89.6184C65.2557 89.3664 67.1076 89.1859 69.1517 88.977C71.2062 88.8589 73.0675 88.7422 74.412 88.7818C75.758 88.7907 76.5908 88.8208 76.5921 88.87C76.5931 88.9192 75.7626 88.9785 74.4186 89.0343C73.0705 89.0592 71.2255 89.2158 69.1839 89.333C67.1484 89.5414 65.2998 89.6811 63.9716 89.8684C62.6395 90.0254 61.8102 90.0981 61.8014 90.0494Z" fill="#362A18"/>
<rect width="19.8472" height="0.449672" fill="black" fill-opacity="0" transform="translate(84.2953 81.7283)"/>
<path d="M84.2953 82.0898C84.2948 82.0652 84.5723 82.0378 85.0741 82.0096C85.5759 81.9812 86.3021 81.9523 87.1997 81.9234C88.9949 81.8667 91.4754 81.8127 94.2162 81.7746C96.9566 81.7368 99.4377 81.7226 101.234 81.7303C102.132 81.7341 102.859 81.7434 103.362 81.7576C103.864 81.7723 104.142 81.7919 104.142 81.8165C104.143 81.8408 103.865 81.8684 103.364 81.8966C102.861 81.925 102.135 81.9541 101.237 81.9828C99.4418 82.0396 96.9615 82.0938 94.2212 82.1316C91.4812 82.1694 89 82.1836 87.204 82.176C86.3059 82.1724 85.5789 82.163 85.0766 82.1486C84.5738 82.1339 84.2958 82.1144 84.2953 82.0898Z" fill="#362A18"/>
<rect width="23.1354" height="0.750111" fill="black" fill-opacity="0" transform="translate(81.5692 86.0676)"/>
<path d="M81.5692 86.3761C81.5708 86.3515 81.8957 86.3411 82.482 86.3434C83.0682 86.3457 83.9158 86.3606 84.9625 86.3867C87.0548 86.4805 89.9465 86.439 93.1395 86.4608C96.3293 86.3599 99.2191 86.3294 101.312 86.1837C102.359 86.1317 103.206 86.0954 103.792 86.0787C104.378 86.0617 104.703 86.0637 104.705 86.0886C104.706 86.1132 104.384 86.1575 103.801 86.2171C103.218 86.2767 102.373 86.351 101.328 86.4354C99.2434 86.6456 96.3445 86.7163 93.1446 86.8177C89.9442 86.7962 87.0467 86.7972 84.9538 86.639C83.9066 86.5807 83.0599 86.5272 82.4751 86.4821C81.8907 86.4374 81.5682 86.4007 81.5692 86.3761Z" fill="#362A18"/>
<rect width="17.2271" height="0.749982" fill="black" fill-opacity="0" transform="translate(57.4777 92.9719)"/>
<path d="M57.4777 93.2803C57.4795 93.2557 57.722 93.2453 58.1593 93.2478C58.5964 93.2498 59.2283 93.265 60.0076 93.2909C61.566 93.3847 63.7192 93.3434 66.0969 93.3652C68.4688 93.264 70.6195 93.2333 72.1766 93.0876C72.9554 93.0356 73.5863 92.9996 74.0229 92.9826C74.4597 92.9659 74.7022 92.9684 74.7047 92.993C74.707 93.0173 74.4688 93.0617 74.0363 93.121C73.6038 93.1806 72.9767 93.2549 72.2009 93.3391C70.6555 93.549 68.4927 93.6207 66.1066 93.7219C63.7194 93.7006 61.5576 93.7014 59.9977 93.5429C59.2172 93.4846 58.5865 93.4314 58.1512 93.3862C57.7159 93.3414 57.4759 93.3048 57.4777 93.2803Z" fill="#362A18"/>
<rect width="27.1612" height="0.447193" fill="black" fill-opacity="0" transform="translate(78.1893 89.9814)"/>
<path d="M78.1893 90.1267C78.1893 90.1021 78.57 90.0823 79.2573 90.0668C79.9447 90.0519 80.9391 90.0415 82.168 90.0367C84.6251 90.0265 88.0191 90.0374 91.7677 90.0714C95.5175 90.0159 98.9132 89.986 101.371 89.9819C102.6 89.9799 103.595 89.9844 104.283 89.9956C104.97 90.0068 105.35 90.0248 105.351 90.0494C105.351 90.0742 104.971 90.1031 104.284 90.1345C103.597 90.166 102.603 90.2 101.374 90.2342C98.9172 90.3029 95.5231 90.3729 91.7735 90.4286C88.0216 90.3944 84.6246 90.3435 82.1664 90.2889C80.9371 90.2616 79.9427 90.2334 79.2555 90.2058C78.5683 90.1781 78.1888 90.1513 78.1893 90.1267Z" fill="#362A18"/>
<rect width="29.3647" height="0.992974" fill="black" fill-opacity="0" transform="translate(77.0948 93.8545)"/>
<path d="M77.0948 94.7991C77.0943 94.7745 77.5048 94.7421 78.2476 94.7056C78.9901 94.6691 80.0647 94.627 81.3927 94.5831C84.0487 94.4957 87.7179 94.3988 91.7724 94.3144C95.8255 94.1453 99.4961 94.0119 102.154 93.9333C103.483 93.8943 104.559 93.8684 105.303 93.8588C106.047 93.8492 106.459 93.8555 106.46 93.8801C106.461 93.9047 106.051 93.9452 105.308 93.9977C104.566 94.05 103.492 94.1141 102.164 94.1856C99.5093 94.3288 95.8404 94.5017 91.7879 94.6711C87.7311 94.7558 84.0576 94.8126 81.3988 94.8357C80.0695 94.8471 78.9936 94.8506 78.2501 94.8445C77.5066 94.8387 77.0954 94.8237 77.0948 94.7991Z" fill="#362A18"/>
<rect width="17.8991" height="0.992744" fill="black" fill-opacity="0" transform="translate(117.829 101.432)"/>
<path d="M117.829 102.377C117.829 102.352 118.08 102.32 118.532 102.283C118.985 102.246 119.64 102.204 120.449 102.161C122.067 102.073 124.303 101.976 126.774 101.892C129.243 101.722 131.48 101.589 133.101 101.511C133.912 101.471 134.568 101.446 135.022 101.436C135.476 101.426 135.727 101.433 135.728 101.458C135.73 101.482 135.481 101.523 135.029 101.575C134.578 101.627 133.924 101.691 133.116 101.763C131.499 101.905 129.264 102.079 126.794 102.248C124.319 102.333 122.077 102.389 120.455 102.413C119.644 102.424 118.987 102.428 118.534 102.422C118.08 102.416 117.829 102.401 117.829 102.377Z" fill="#1C160D"/>
<rect width="17.9265" height="0.992819" fill="black" fill-opacity="0" transform="translate(114.84 96.7319)"/>
<path d="M114.84 97.6766C114.84 97.652 115.09 97.6198 115.543 97.583C115.997 97.546 116.652 97.5044 117.463 97.4608C119.084 97.3726 121.323 97.2765 123.797 97.1916C126.271 97.0227 128.511 96.8894 130.135 96.8108C130.946 96.7717 131.604 96.7459 132.058 96.7362C132.513 96.7266 132.765 96.7329 132.766 96.7575C132.768 96.7821 132.518 96.8227 132.066 96.8749C131.614 96.9274 130.959 96.9913 130.15 97.0628C128.53 97.2058 126.292 97.3787 123.819 97.548C121.339 97.6332 119.094 97.6895 117.47 97.7128C116.657 97.7245 116 97.7275 115.545 97.7222C115.091 97.7161 114.84 97.7012 114.84 97.6766Z" fill="#1C160D"/>
<rect width="17.9549" height="0.992787" fill="black" fill-opacity="0" transform="translate(107.599 91.6028)"/>
<path d="M107.599 92.5475C107.599 92.5229 107.849 92.4907 108.303 92.4539C108.757 92.4169 109.414 92.3753 110.226 92.3315C111.85 92.2435 114.092 92.1472 116.571 92.0625C119.048 91.8934 121.292 91.7603 122.918 91.6817C123.731 91.6424 124.389 91.6168 124.844 91.6071C125.299 91.5975 125.552 91.6036 125.553 91.6284C125.555 91.653 125.305 91.6933 124.852 91.7456C124.4 91.798 123.744 91.8622 122.933 91.9337C121.311 92.0767 119.069 92.2496 116.593 92.4189C114.109 92.5039 111.86 92.5607 110.233 92.5837C109.419 92.5954 108.761 92.5984 108.306 92.5929C107.851 92.5868 107.599 92.5721 107.599 92.5475Z" fill="#1C160D"/>
<rect width="10.341" height="1.00431" fill="black" fill-opacity="0" transform="translate(105.473 81.9287)"/>
<path d="M105.473 82.8721C105.471 82.7621 107.789 82.6297 110.64 82.3866C113.485 82.1224 115.802 81.8438 115.814 81.9531C115.82 82.002 115.25 82.1229 114.322 82.2791C113.397 82.4502 112.102 82.5922 110.671 82.7423C109.238 82.8468 107.94 82.9368 106.997 82.9307C106.056 82.9401 105.474 82.9213 105.473 82.8721Z" fill="#1C160D"/>
<rect width="6.40909" height="1.00509" fill="black" fill-opacity="0" transform="translate(100.808 74.9878)"/>
<path d="M100.808 75.9309C100.804 75.8211 102.244 75.688 104.007 75.4444C105.759 75.1817 107.195 74.9034 107.217 75.0119C107.233 75.0968 105.85 75.5286 104.059 75.7976C102.273 76.0445 100.809 76.0181 100.808 75.9309Z" fill="#1C160D"/>
<rect width="32.3003" height="0.448125" fill="black" fill-opacity="0" transform="translate(77.1192 98.5979)"/>
<path d="M77.1192 98.7499C77.1192 98.7377 77.2323 98.7263 77.4475 98.7164C77.6628 98.7063 77.9802 98.6977 78.3889 98.6896C79.2065 98.6743 80.3891 98.6637 81.8501 98.6581C84.7724 98.647 88.809 98.6566 93.2674 98.6891C97.7269 98.6333 101.764 98.6028 104.688 98.5983C106.15 98.5965 107.332 98.6008 108.15 98.612C108.558 98.6176 108.876 98.6247 109.091 98.6338C109.306 98.6424 109.419 98.653 109.419 98.6655C109.419 98.6779 109.307 98.6911 109.092 98.7058C108.877 98.72 108.559 98.7352 108.151 98.7509C107.334 98.7826 106.152 98.8163 104.69 98.8508C101.768 98.9198 97.731 98.9902 93.2722 99.046C88.8112 99.0136 84.7722 98.9641 81.849 98.9106C80.3876 98.8838 79.2049 98.8561 78.3876 98.8285C77.9789 98.8148 77.6616 98.8014 77.4467 98.7882C77.2318 98.775 77.1187 98.7621 77.1192 98.7499Z" fill="#362A18"/>
<rect width="18.5558" height="0.420853" fill="black" fill-opacity="0" transform="translate(51.7138 99.4143)"/>
<path d="M51.7138 99.5613C51.7143 99.5365 51.9741 99.5157 52.4437 99.4992C52.9132 99.4827 53.5926 99.4706 54.4317 99.463C56.1103 99.4478 58.4279 99.4518 60.9883 99.4782C63.55 99.4331 65.8696 99.4118 67.5492 99.4145C68.3891 99.4158 69.0687 99.4232 69.5388 99.4361C70.0086 99.4493 70.2689 99.468 70.2697 99.4926C70.2704 99.5172 70.0114 99.5451 69.5424 99.575C69.0736 99.6047 68.3947 99.6359 67.5561 99.6668C65.8785 99.7287 63.5601 99.7898 60.999 99.8352C58.4345 99.8088 56.1126 99.7649 54.4322 99.7155C53.5921 99.6906 52.9122 99.6643 52.4429 99.6382C51.9731 99.6121 51.7138 99.5859 51.7138 99.5613Z" fill="#362A18"/>
<rect width="12.1416" height="0.420815" fill="black" fill-opacity="0" transform="translate(66.7123 84.4282)"/>
<path d="M66.7123 84.5752C66.7138 84.5258 67.3945 84.4921 68.4921 84.4769C69.59 84.4616 71.105 84.4657 72.7783 84.4921C74.4541 84.4469 75.9726 84.4259 77.072 84.4284C78.1715 84.4312 78.8521 84.4571 78.8539 84.5065C78.8554 84.556 78.1776 84.6188 77.0804 84.6807C75.9833 84.7426 74.4668 84.8037 72.791 84.849C71.1111 84.8227 69.5898 84.7788 68.4896 84.7294C67.3896 84.6797 66.7108 84.6244 66.7123 84.5752Z" fill="#362A18"/>
<rect width="8.38283" height="0.403071" fill="black" fill-opacity="0" transform="translate(73.4741 80.6897)"/>
<path d="M73.4741 80.8186C73.4802 80.7106 75.3554 80.7446 77.6649 80.7355C79.9686 80.7068 81.8521 80.6417 81.8569 80.7497C81.861 80.8387 79.9995 81.063 77.67 81.0925C75.346 81.1016 73.4686 80.9069 73.4741 80.8186Z" fill="#362A18"/>
<rect width="37.8984" height="0.936341" fill="black" fill-opacity="0" transform="translate(73.0005 103.509)"/>
<path d="M73.0005 104.215C73.0005 104.203 73.1332 104.192 73.3858 104.183C73.6382 104.174 74.0109 104.165 74.4906 104.159C75.4498 104.146 76.8376 104.139 78.5522 104.138C81.9822 104.171 86.7184 104.077 91.9508 104.034C97.18 103.887 101.917 103.809 105.345 103.652C107.06 103.591 108.448 103.547 109.407 103.525C109.887 103.514 110.26 103.509 110.512 103.509C110.765 103.509 110.898 103.515 110.899 103.527C110.899 103.54 110.768 103.557 110.515 103.581C110.264 103.604 109.892 103.631 109.413 103.664C108.455 103.729 107.069 103.81 105.356 103.904C101.932 104.126 97.1922 104.244 91.9579 104.391C86.7225 104.434 81.9827 104.488 78.552 104.391C76.8366 104.359 75.4485 104.328 74.4893 104.298C74.0099 104.283 73.6375 104.269 73.3851 104.255C73.1327 104.241 73.0002 104.228 73.0005 104.215Z" fill="#362A18"/>
<rect width="20.2616" height="0.564614" fill="black" fill-opacity="0" transform="translate(48.2841 102.333)"/>
<path d="M48.2841 102.72C48.2841 102.696 48.5679 102.672 49.0804 102.651C49.5931 102.63 50.3348 102.61 51.2511 102.594C53.0837 102.561 55.6149 102.541 58.4112 102.54C61.207 102.446 63.7397 102.38 65.5738 102.351C66.4911 102.336 67.2334 102.33 67.7468 102.334C68.2602 102.338 68.5446 102.352 68.5456 102.377C68.5469 102.401 68.2643 102.434 67.7529 102.473C67.2412 102.511 66.5007 102.556 65.585 102.603C63.7539 102.697 61.2235 102.803 58.4277 102.897C55.6265 102.898 53.0898 102.878 51.2541 102.846C50.3366 102.83 49.5938 102.811 49.0806 102.79C48.5677 102.769 48.2841 102.745 48.2841 102.72Z" fill="#362A18"/>
<rect width="39.7239" height="34.9307" fill="black" fill-opacity="0" transform="translate(72.9969 201.608)"/>
<rect width="39.7239" height="34.9307" fill="black" fill-opacity="0" transform="translate(72.9969 201.608)"/>
<path d="M112.721 235.682C100.616 236.901 82.3577 236.537 74.2633 236.283C73.8452 224.931 73.4226 213.577 72.9969 202.225C79.9665 202.301 86.9346 202.386 93.9021 202.462C98.1917 202.505 110.336 201.513 112.118 201.615C112.365 212.977 112.569 224.329 112.721 235.682Z" fill="#534635"/>
<rect width="33.6727" height="31.7819" fill="black" fill-opacity="0" transform="translate(77.4003 203.219)"/>
<path d="M110.783 235.001C110.777 235.001 110.773 234.945 110.771 234.838C110.771 234.723 110.771 234.564 110.77 234.36C110.777 233.933 110.788 233.316 110.801 232.526C110.819 231.728 110.849 230.754 110.84 229.621C110.841 229.054 110.843 228.448 110.844 227.806C110.844 227.484 110.845 227.153 110.845 226.814C110.838 226.475 110.831 226.126 110.825 225.77C110.812 225.056 110.798 224.308 110.784 223.529C110.774 222.749 110.732 221.939 110.705 221.099C110.656 219.42 110.556 217.625 110.464 215.735C110.254 211.955 109.979 207.796 109.708 203.418C109.769 203.474 109.829 203.529 109.89 203.584C109.602 203.6 109.313 203.615 109.022 203.63C106.84 203.744 104.71 203.855 102.653 203.963C101.624 204.025 100.613 204.04 99.6224 204.075C98.6326 204.106 97.663 204.136 96.7172 204.165C95.7715 204.194 94.8493 204.221 93.9531 204.248C93.0568 204.269 92.1862 204.269 91.3445 204.279C89.6621 204.293 88.0944 204.306 86.6626 204.318C85.2314 204.341 83.9379 204.298 82.8011 204.287C81.6667 204.267 80.6882 204.251 79.8853 204.237C79.0913 204.217 78.4718 204.201 78.0426 204.19C77.8381 204.181 77.6788 204.174 77.5637 204.169C77.4556 204.162 77.4003 204.156 77.4003 204.15C77.4003 204.144 77.4556 204.138 77.5637 204.133C77.6788 204.129 77.8381 204.124 78.0429 204.118C78.4721 204.113 79.0916 204.107 79.8856 204.098C80.6882 204.095 81.6667 204.091 82.8016 204.088C83.9381 204.079 85.2329 204.105 86.6626 204.066C88.0931 204.04 89.6593 204.013 91.3402 203.983C92.1809 203.966 93.0505 203.961 93.946 203.935C94.8412 203.903 95.7631 203.87 96.7078 203.836C97.6529 203.803 98.6214 203.769 99.6108 203.735C100.6 203.696 101.611 203.678 102.639 203.613C104.694 203.504 106.823 203.39 109.003 203.274C109.294 203.259 109.583 203.243 109.871 203.228C109.928 203.225 109.986 203.222 110.043 203.219C110.047 203.277 110.05 203.336 110.054 203.394C110.323 207.771 110.587 211.932 110.779 215.716C110.863 217.608 110.951 219.405 110.988 221.088C111.008 221.929 111.044 222.741 111.047 223.522C111.054 224.302 111.06 225.051 111.065 225.766C111.068 226.123 111.07 226.472 111.073 226.812C111.068 227.152 111.064 227.483 111.06 227.805C111.049 228.448 111.039 229.055 111.029 229.622C111.02 230.757 110.971 231.732 110.932 232.529C110.892 233.32 110.86 233.936 110.839 234.363C110.824 234.567 110.813 234.724 110.805 234.839C110.796 234.946 110.788 235.001 110.783 235.001Z" fill="#362A18"/>
<rect width="0.516231" height="28.4659" fill="black" fill-opacity="0" transform="translate(107.836 205.053)"/>
<path d="M107.902 233.519C107.879 233.519 107.861 233.12 107.85 232.4C107.84 231.679 107.835 230.637 107.836 229.349C107.84 226.773 107.868 223.215 107.921 219.284C107.974 215.354 108.041 211.796 108.107 209.221C108.14 207.933 108.173 206.891 108.204 206.171C108.234 205.451 108.262 205.053 108.286 205.053C108.31 205.053 108.328 205.452 108.339 206.172C108.349 206.893 108.354 207.935 108.352 209.223C108.348 211.799 108.32 215.358 108.266 219.288C108.213 223.218 108.145 226.776 108.08 229.352C108.047 230.639 108.015 231.681 107.984 232.401C107.954 233.121 107.926 233.519 107.902 233.519Z" fill="#362A18"/>
<rect width="1.16578" height="31.8533" fill="black" fill-opacity="0" transform="translate(75.2435 203.993)"/>
<path d="M76.2394 235.847C76.2278 235.847 76.2166 235.735 76.206 235.522C76.1958 235.31 76.1862 234.996 76.1773 234.593C76.1598 233.787 76.1456 232.62 76.1352 231.178C76.1517 228.295 76.0238 224.313 75.9439 219.915C75.7534 215.521 75.637 211.541 75.4419 208.66C75.363 207.22 75.3049 206.054 75.2727 205.248C75.2567 204.844 75.2471 204.531 75.2443 204.319C75.2415 204.106 75.246 203.994 75.258 203.993C75.2699 203.993 75.2889 204.103 75.314 204.314C75.3394 204.526 75.3706 204.838 75.4074 205.239C75.4809 206.043 75.5763 207.207 75.6862 208.645C75.9437 211.519 76.0989 215.505 76.2889 219.906C76.3683 224.309 76.4576 228.296 76.3785 231.18C76.3574 232.623 76.3343 233.79 76.311 234.596C76.2993 234.999 76.2871 235.312 76.2752 235.524C76.2633 235.736 76.2511 235.847 76.2394 235.847Z" fill="#362A18"/>
<rect width="1.3704" height="27.1982" fill="black" fill-opacity="0" transform="translate(78.8451 206.005)"/>
<path d="M80.2019 233.204C80.1781 233.206 80.1253 232.828 80.0502 232.143C79.9749 231.458 79.8772 230.464 79.7631 229.237C79.5056 226.784 79.3143 223.382 79.0903 219.625C78.9561 215.864 78.8235 212.458 78.8481 209.994C78.8453 208.762 78.8488 207.765 78.8595 207.076C78.8696 206.387 78.8869 206.006 78.9107 206.005C78.9346 206.005 78.9632 206.386 78.9942 207.075C79.0254 207.763 79.0589 208.76 79.0929 209.992C79.1309 212.458 79.3016 215.855 79.4353 219.61C79.6586 223.362 79.8108 226.762 80.0058 229.218C80.0883 230.447 80.1492 231.442 80.1834 232.131C80.2177 232.819 80.2255 233.201 80.2019 233.204Z" fill="#362A18"/>
<rect width="0.510112" height="27.3029" fill="black" fill-opacity="0" transform="translate(83.5185 206.005)"/>
<path d="M83.9614 233.308C83.9378 233.308 83.9097 232.926 83.8798 232.236C83.8498 231.545 83.8179 230.546 83.7851 229.311C83.7202 226.841 83.6537 223.428 83.6017 219.658C83.5495 215.889 83.5216 212.475 83.5188 210.005C83.5172 208.769 83.5221 207.769 83.5332 207.078C83.5444 206.387 83.5621 206.005 83.586 206.005C83.6098 206.005 83.6377 206.386 83.6682 207.077C83.6986 207.768 83.7311 208.767 83.7636 210.002C83.829 212.472 83.8952 215.885 83.9467 219.655C83.9985 223.424 84.0259 226.837 84.0284 229.308C84.0297 230.544 84.0249 231.543 84.0137 232.234C84.0025 232.925 83.9853 233.308 83.9614 233.308Z" fill="#362A18"/>
<rect width="0.761119" height="27.1011" fill="black" fill-opacity="0" transform="translate(87.7194 206.736)"/>
<path d="M88.0883 233.837C88.0644 233.836 88.0535 233.455 88.054 232.769C88.0543 232.083 88.066 231.09 88.0883 229.864C88.1723 227.413 88.1236 224.025 88.1352 220.284C88.0279 216.546 87.9894 213.16 87.8415 210.708C87.7877 209.482 87.7499 208.49 87.7319 207.803C87.7136 207.117 87.7149 206.737 87.7387 206.736C87.7626 206.735 87.807 207.112 87.8666 207.796C87.9259 208.48 88.001 209.47 88.0858 210.694C88.2963 213.139 88.3732 216.533 88.4805 220.28C88.4683 224.027 88.4777 227.42 88.3313 229.872C88.278 231.098 88.2291 232.09 88.1877 232.775C88.1461 233.46 88.1119 233.838 88.0883 233.837Z" fill="#362A18"/>
<rect width="3.76569" height="0.751712" fill="black" fill-opacity="0" transform="translate(90.4099 234.117)"/>
<path d="M94.1738 234.132C94.1953 234.171 94.0228 234.322 93.6999 234.495C93.3742 234.66 92.8871 234.819 92.3303 234.863C91.7727 234.893 91.2712 234.802 90.9206 234.68C90.584 234.553 90.3983 234.429 90.4104 234.386C90.4247 234.334 90.6464 234.377 90.9888 234.438C91.3222 234.488 91.791 234.535 92.308 234.507C92.8239 234.465 93.2813 234.357 93.6121 234.26C93.9386 234.155 94.1492 234.085 94.1738 234.132Z" fill="#362A18"/>
<rect width="0.446428" height="26.8808" fill="black" fill-opacity="0" transform="translate(91.4262 206.64)"/>
<path d="M91.5995 233.52C91.5759 233.52 91.5561 233.143 91.5403 232.463C91.5249 231.783 91.514 230.798 91.5074 229.582C91.4942 227.15 91.4998 223.792 91.5277 220.082C91.4688 216.371 91.4348 213.011 91.4277 210.578C91.4242 209.362 91.427 208.377 91.4368 207.697C91.4467 207.016 91.4637 206.64 91.4876 206.64C91.5114 206.639 91.5403 207.015 91.5718 207.695C91.6033 208.375 91.6375 209.358 91.6725 210.574C91.7423 213.006 91.8143 216.366 91.8727 220.077C91.8448 223.79 91.8001 227.152 91.7504 229.585C91.7258 230.801 91.6999 231.786 91.6743 232.466C91.6487 233.145 91.623 233.521 91.5995 233.52Z" fill="#362A18"/>
<rect width="0.956003" height="29.1033" fill="black" fill-opacity="0" transform="translate(95.4893 206.533)"/>
<path d="M96.3983 235.637C96.3747 235.637 96.344 235.23 96.3085 234.494C96.2735 233.758 96.2334 232.692 96.1918 231.376C96.1076 228.743 96.0152 225.106 95.9341 221.088C95.7712 217.071 95.6423 213.433 95.566 210.799C95.5279 209.483 95.5028 208.417 95.4937 207.679C95.484 206.943 95.4901 206.534 95.5142 206.533C95.5381 206.532 95.5774 206.939 95.6284 207.674C95.6791 208.409 95.7413 209.473 95.8108 210.789C95.9493 213.42 96.1165 217.056 96.2788 221.073C96.3597 225.094 96.413 228.735 96.4348 231.371C96.4455 232.688 96.448 233.755 96.4424 234.492C96.4364 235.229 96.4219 235.636 96.3983 235.637Z" fill="#362A18"/>
<rect width="0.419106" height="25.8213" fill="black" fill-opacity="0" transform="translate(99.8847 206.957)"/>
<path d="M99.9978 232.779C99.974 232.778 99.9552 232.416 99.941 231.763C99.9273 231.109 99.9187 230.164 99.9151 228.996C99.908 226.66 99.9217 223.434 99.9588 219.87C99.9101 216.305 99.8852 213.077 99.8847 210.74C99.8842 209.572 99.8903 208.627 99.902 207.973C99.9136 207.319 99.9319 206.958 99.9557 206.957C99.9796 206.957 100.007 207.318 100.037 207.971C100.066 208.624 100.098 209.569 100.13 210.737C100.193 213.073 100.256 216.299 100.304 219.865C100.267 223.432 100.214 226.661 100.158 228.998C100.131 230.167 100.102 231.112 100.075 231.765C100.048 232.418 100.021 232.779 99.9978 232.779Z" fill="#362A18"/>
<rect width="0.847552" height="25.8228" fill="black" fill-opacity="0" transform="translate(104.665 205.156)"/>
<path d="M105.265 230.979C105.241 230.978 105.225 230.616 105.215 229.962C105.204 229.308 105.201 228.362 105.203 227.193C105.243 224.856 105.163 221.628 105.133 218.063C105.003 214.502 104.938 211.276 104.792 208.941C104.737 207.773 104.698 206.828 104.678 206.174C104.659 205.52 104.659 205.158 104.684 205.156C104.708 205.154 104.752 205.514 104.813 206.165C104.874 206.816 104.95 207.759 105.037 208.924C105.244 211.252 105.348 214.484 105.478 218.053C105.508 221.624 105.549 224.857 105.447 227.196C105.413 228.366 105.379 229.311 105.348 229.965C105.318 230.619 105.289 230.98 105.265 230.979Z" fill="#362A18"/>
<path opacity="0.3" d="M41.95 111.606C51.1481 112.463 60.3384 113.32 69.521 114.177C84.9401 115.532 100.339 116.887 115.716 118.243C124.646 121.421 133.547 124.6 142.42 127.778C142.609 122.387 142.8 116.997 142.99 111.606C109.31 111.606 75.6301 111.606 41.95 111.606Z" fill="black"/>
<rect width="188.135" height="186.004" fill="black" fill-opacity="0"/>
<rect width="166.694" height="95.1061" fill="black" fill-opacity="0" transform="translate(21.4411)"/>
<rect width="72.8903" height="95.1061" fill="black" fill-opacity="0" transform="translate(21.4411)"/>
<path d="M92.1451 95.0732C91.6826 94.9855 91.2542 94.7224 90.9685 94.3061C74.3825 70.1241 57.3987 45.9421 40.0164 21.7602C39.4167 20.9268 39.6204 19.7923 40.473 19.2274C41.3246 18.662 42.5015 18.8796 43.1009 19.7132C60.47 43.8946 77.4409 68.0766 94.0134 92.2583C94.5845 93.0929 94.3653 94.2259 93.5246 94.7916C93.1035 95.0737 92.6081 95.1612 92.1451 95.0732Z" fill="#473E32"/>
<path d="M64.28 73.921C50.3673 54.0251 36.1854 34.1293 21.7336 14.2333C21.2288 13.5387 21.3936 12.5937 22.1029 12.1224C28.0588 8.16427 34.0377 4.20561 40.04 0.246954C40.7257 -0.205855 41.7612 -0.0157058 42.2427 0.651592C56.4977 20.3742 70.4876 40.0972 84.2126 59.8195C82.6058 63.6803 81.0051 67.5416 79.4104 71.4024C78.3909 72.085 77.3724 72.767 76.3541 73.4495C72.3288 73.6067 68.3041 73.7638 64.28 73.921ZM25.2133 13.7853C38.9003 32.655 52.345 51.525 65.5469 70.3949C68.4612 70.3244 71.3759 70.2539 74.291 70.184C75.3095 69.5014 76.3288 68.8189 77.3491 68.1364C78.4614 65.4743 79.5769 62.8122 80.6956 60.1499C67.5609 41.3053 54.1844 22.4605 40.5662 3.61615C35.4315 7.00563 30.314 10.3956 25.2133 13.7853Z" fill="#473E32"/>
<path d="M27.2795 21.1174C26.8835 21.0444 26.5123 20.8253 26.2607 20.479C25.7579 19.7838 25.9238 18.8391 26.6313 18.3681C32.5808 14.4094 38.5535 10.4502 44.5494 6.49133C45.263 6.02002 46.2473 6.20104 46.7473 6.89597C47.2475 7.59065 47.074 8.53557 46.3607 9.00688C40.3678 12.9653 34.3982 16.924 28.4515 20.8826C28.0978 21.1181 27.6762 21.1909 27.2795 21.1174Z" fill="#473E32"/>
<path d="M31.6062 27.1138C31.211 27.0408 30.8413 26.8222 30.591 26.4746C30.0899 25.7797 30.2569 24.8345 30.9644 24.3632C36.9073 20.4045 42.8736 16.4461 48.8629 12.488C49.576 12.0164 50.5575 12.1979 51.0557 12.8924C51.554 13.5873 51.3797 14.5325 50.6671 15.0025C44.6803 18.9614 38.7168 22.9203 32.7764 26.879C32.423 27.1148 32.0014 27.1873 31.6062 27.1138Z" fill="#473E32"/>
<path d="M35.9182 33.1093C35.523 33.0358 35.1544 32.8168 34.9058 32.4699C34.4063 31.7747 34.5737 30.8296 35.281 30.3595C41.2178 26.4009 47.1778 22.4419 53.1608 18.4833C53.8728 18.012 54.8525 18.193 55.349 18.8877C55.8452 19.5826 55.6699 20.5275 54.9578 20.9988C48.9776 24.9572 43.0205 28.9159 37.0867 32.8743C36.7325 33.1098 36.3127 33.1829 35.9182 33.1093Z" fill="#473E32"/>
<path d="M40.2127 39.1059C39.8188 39.0329 39.4509 38.8138 39.2023 38.4665C38.7054 37.7716 38.8741 36.8261 39.5801 36.3551C45.5103 32.3964 51.4636 28.4383 57.4406 24.4799C58.1519 24.0085 59.1303 24.1896 59.6245 24.8845C60.1191 25.5784 59.9431 26.5236 59.2318 26.9941C53.2577 30.9531 47.3069 34.912 41.3789 38.8711C41.0255 39.1064 40.6057 39.1789 40.2127 39.1059Z" fill="#473E32"/>
<path d="M44.49 45.1021C44.0978 45.0288 43.731 44.8098 43.4834 44.4624C42.9885 43.7678 43.1579 42.8231 43.8632 42.3515C49.7871 38.3929 55.7341 34.4337 61.7044 30.475C62.4152 30.004 63.3911 30.185 63.8835 30.8797C64.3759 31.5739 64.1988 32.5193 63.4885 32.9903C57.5207 36.9493 51.576 40.9082 45.6546 44.8671C45.3023 45.1029 44.8832 45.1754 44.49 45.1021Z" fill="#473E32"/>
<path d="M48.7528 51.0974C48.3617 51.0242 47.9949 50.8051 47.7483 50.4575C47.2551 49.7628 47.4256 48.8179 48.1298 48.3474C54.0476 44.3887 59.9888 40.4303 65.9533 36.4711C66.6631 36.0001 67.6364 36.1811 68.127 36.8758C68.6179 37.5705 68.4398 38.5156 67.73 38.9869C61.7686 42.9453 55.8307 46.904 49.9157 50.8627C49.5636 51.0979 49.145 51.1705 48.7528 51.0974Z" fill="#473E32"/>
<path d="M52.9984 57.0939C52.6073 57.0209 52.243 56.8018 51.9969 56.4545C51.5053 55.7596 51.6768 54.8141 52.3805 54.3428C58.2922 50.3844 64.227 46.4258 70.1852 42.4671C70.8944 41.9958 71.8653 42.1771 72.3541 42.8717C72.8427 43.5664 72.6638 44.5106 71.9551 44.9821C66 48.9413 60.0679 52.9 54.1593 56.8591C53.8067 57.0944 53.3896 57.1672 52.9984 57.0939Z" fill="#473E32"/>
<path d="M57.2277 63.0898C56.8373 63.0165 56.4738 62.7974 56.229 62.4504C55.7396 61.7562 55.9116 60.811 56.6148 60.34C62.5194 56.3813 68.4477 52.4229 74.399 48.4645C75.1075 47.9932 76.0776 48.1742 76.5644 48.8691C77.0512 49.563 76.8713 50.5085 76.1633 50.979C70.2143 54.9377 64.2886 58.8963 58.3858 62.8547C58.0344 63.0903 57.6174 63.1628 57.2277 63.0898Z" fill="#473E32"/>
<path d="M61.4418 69.0857C61.0517 69.0122 60.6892 68.7937 60.4454 68.4461C59.9578 67.7516 60.1311 66.8062 60.8335 66.3349C66.732 62.3767 72.6539 58.4181 78.5989 54.4594C79.3066 53.9884 80.2734 54.1694 80.7584 54.8641C81.2442 55.559 81.0634 56.5039 80.3551 56.975C74.4129 60.9336 68.4936 64.8923 62.5978 68.8509C62.2468 69.0862 61.8305 69.1587 61.4418 69.0857Z" fill="#473E32"/>
<rect width="97.5074" height="70.3032" fill="black" fill-opacity="0" transform="translate(90.6277 24.7988)"/>
<path d="M92.1239 95.0692C92.5866 95.1572 93.082 95.07 93.5024 94.7873C117.888 78.3862 142.671 61.9852 167.853 45.5842C168.722 45.0193 168.972 43.8845 168.412 43.0514C167.851 42.2183 166.692 42.0007 165.823 42.5659C140.628 58.9666 115.832 75.3677 91.4339 91.7684C90.5919 92.3348 90.3748 93.4679 90.9473 94.302C91.2327 94.7183 91.6619 94.9815 92.1239 95.0692Z" fill="#473E32"/>
<path d="M114.828 80.7181C114.143 79.7121 113.457 78.7061 112.77 77.7C112.745 73.5254 112.72 69.3504 112.695 65.176C132.863 51.7991 153.296 38.4227 173.994 25.0458C174.694 24.593 175.712 24.7829 176.162 25.4505C180.095 31.2873 184.005 37.1234 187.891 42.96C188.354 43.6546 188.139 44.5998 187.413 45.0709C166.605 58.5649 146.067 72.0592 125.799 85.5532C122.148 83.9415 118.491 82.33 114.828 80.7181ZM174.37 28.4148C154.613 41.1959 135.097 53.9767 115.823 66.7576C115.85 69.6412 115.877 72.5249 115.904 75.4084C116.59 76.4146 117.275 77.4209 117.96 78.4269C120.627 79.5523 123.29 80.678 125.951 81.8035C145.199 69.0054 164.689 56.2068 184.422 43.4087C181.088 38.4106 177.738 33.4129 174.37 28.4148Z" fill="#473E32"/>
<path d="M179.717 49.5406C180.106 49.6139 180.528 49.5414 180.89 49.3066C181.615 48.8353 181.828 47.8906 181.364 47.1964C177.471 41.3594 173.555 35.5225 169.616 29.6857C169.147 28.9908 168.177 28.8095 167.45 29.2808C166.722 29.7519 166.514 30.697 166.983 31.3917C170.925 37.228 174.844 43.0649 178.74 48.9012C178.972 49.2485 179.329 49.4676 179.717 49.5406Z" fill="#473E32"/>
<path d="M173.474 53.6086C173.863 53.6816 174.284 53.6093 174.645 53.3738C175.368 52.9022 175.578 51.9576 175.114 51.2621C171.215 45.4256 167.292 39.5892 163.346 33.7529C162.876 33.0582 161.908 32.8772 161.183 33.3485C160.457 33.8198 160.251 34.7648 160.721 35.4587C164.669 41.2955 168.595 47.1323 172.496 52.9689C172.729 53.3165 173.085 53.5356 173.474 53.6086Z" fill="#473E32"/>
<path d="M167.247 57.6742C167.635 57.7477 168.055 57.6749 168.416 57.4394C169.136 56.9678 169.345 56.0231 168.879 55.329C164.974 49.4924 161.045 43.6556 157.093 37.819C156.623 37.1243 155.653 36.9428 154.93 37.4138C154.207 37.8854 154.003 38.8306 154.474 39.525C158.429 45.3616 162.36 51.1982 166.269 57.0347C166.502 57.3821 166.857 57.6009 167.247 57.6742Z" fill="#473E32"/>
<path d="M161.036 61.7417C161.423 61.8147 161.843 61.7422 162.202 61.5069C162.921 61.0354 163.127 60.0902 162.662 59.3955C158.749 53.5587 154.814 47.7224 150.855 41.886C150.384 41.1913 149.418 41.0103 148.696 41.4814C147.975 41.9519 147.773 42.8971 148.244 43.5908C152.206 49.4281 156.144 55.2649 160.058 61.102C160.291 61.4494 160.648 61.6684 161.036 61.7417Z" fill="#473E32"/>
<path d="M154.84 65.8082C155.228 65.8817 155.647 65.8092 156.006 65.5734C156.722 65.1024 156.926 64.1572 156.46 63.4625C152.542 57.6257 148.6 51.7889 144.636 45.9525C144.164 45.2576 143.197 45.0763 142.478 45.5476C141.758 46.018 141.558 46.9634 142.031 47.6583C145.998 53.4951 149.942 59.332 153.863 65.1688C154.097 65.5164 154.453 65.7352 154.84 65.8082Z" fill="#473E32"/>
<path d="M148.663 69.8748C149.049 69.9478 149.467 69.8753 149.825 69.6397C150.54 69.1684 150.742 68.2235 150.274 67.5296C146.35 61.6927 142.402 55.8559 138.431 50.0191C137.958 49.3244 136.993 49.1434 136.275 49.6144C135.558 50.0858 135.36 51.0309 135.833 51.7256C139.807 57.5622 143.757 63.3985 147.684 69.2348C147.918 69.5822 148.275 69.8015 148.663 69.8748Z" fill="#473E32"/>
<path d="M142.5 73.9421C142.887 74.0154 143.305 73.9429 143.662 73.7074C144.375 73.236 144.575 72.2906 144.107 71.5957C140.176 65.7594 136.221 59.9225 132.244 54.0862C131.771 53.391 130.806 53.21 130.09 53.6811C129.374 54.1524 129.179 55.0968 129.652 55.7915C133.633 61.6283 137.589 67.4656 141.523 73.3025C141.757 73.6498 142.114 73.8689 142.5 73.9421Z" fill="#473E32"/>
<path d="M136.355 78.0083C136.741 78.0815 137.158 78.009 137.513 77.7732C138.225 77.3029 138.423 76.358 137.954 75.6633C134.016 69.8268 130.055 63.9902 126.072 58.1539C125.597 57.4587 124.635 57.2779 123.921 57.7492C123.206 58.2193 123.013 59.1649 123.489 59.8591C127.475 65.6957 131.438 71.5323 135.378 77.3688C135.613 77.7162 135.968 77.9352 136.355 78.0083Z" fill="#473E32"/>
<path d="M130.226 82.0749C130.611 82.1482 131.027 82.0752 131.383 81.8399C132.092 81.3688 132.287 80.4239 131.818 79.729C127.874 73.8927 123.907 68.0558 119.917 62.2195C119.442 61.5248 118.479 61.3438 117.767 61.8149C117.055 62.2859 116.864 63.2311 117.339 63.9258C121.332 69.7624 125.302 75.599 129.248 81.4353C129.483 81.7831 129.839 82.0017 130.226 82.0749Z" fill="#473E32"/>
<rect width="159.971" height="95.106" fill="black" fill-opacity="0" transform="translate(0 90.8977)"/>
<rect width="94.4388" height="70.3033" fill="black" fill-opacity="0" transform="translate(0 90.9016)"/>
<path d="M92.9421 90.9343C92.4789 90.8466 91.9822 90.9336 91.5621 91.2168C67.1582 107.618 43.1529 124.019 19.5458 140.42C18.7312 140.985 18.545 142.119 19.1285 142.953C19.7112 143.785 20.8413 144.003 21.6554 143.438C45.2493 127.037 69.2414 110.636 93.6321 94.2351C94.4726 93.6694 94.692 92.5359 94.1207 91.7025C93.8343 91.285 93.4053 91.0225 92.9421 90.9343Z" fill="#473E32"/>
<path d="M70.419 105.285C71.1136 106.291 71.8071 107.298 72.5002 108.304C72.5806 112.479 72.6605 116.653 72.7404 120.828C53.1166 134.205 33.7579 147.581 14.664 160.958C14.0186 161.411 13.0354 161.221 12.5706 160.553C8.49986 154.717 4.40574 148.88 0.288533 143.044C-0.201574 142.349 -0.0524111 141.404 0.622881 140.933C19.9562 127.438 39.559 113.944 59.4312 100.45C63.0999 102.061 66.7622 103.673 70.419 105.285ZM14.1292 157.589C32.3928 144.808 50.8979 132.027 69.645 119.246C69.5745 116.362 69.504 113.479 69.4332 110.595C68.7396 109.589 68.0451 108.583 67.35 107.577C64.6904 106.452 62.0276 105.326 59.3619 104.2C40.5384 116.999 21.9578 129.797 3.61933 142.595C7.13963 147.593 10.6432 152.591 14.1292 157.589Z" fill="#473E32"/>
<path d="M7.82659 136.463C7.44455 136.39 7.03841 136.461 6.7 136.697C6.02319 137.168 5.87149 138.114 6.36007 138.807C10.4707 144.644 14.5582 150.481 18.6224 156.318C19.1064 157.013 20.044 157.194 20.7185 156.723C21.3931 156.251 21.5488 155.307 21.0653 154.612C17.0039 148.775 12.9194 142.938 8.81162 137.102C8.56733 136.754 8.20888 136.536 7.82659 136.463Z" fill="#473E32"/>
<path d="M13.6797 132.396C13.2977 132.323 12.891 132.395 12.5519 132.631C11.8725 133.102 11.7193 134.047 12.2079 134.742C16.3119 140.578 20.3928 146.415 24.4507 152.251C24.9339 152.946 25.872 153.127 26.5486 152.656C27.2249 152.185 27.3829 151.239 26.9002 150.545C22.8451 144.708 18.7665 138.872 14.665 133.035C14.421 132.688 14.0623 132.469 13.6797 132.396Z" fill="#473E32"/>
<path d="M19.5504 128.33C19.1673 128.256 18.7599 128.329 18.4205 128.565C17.7386 129.036 17.5829 129.982 18.0717 130.675C22.1696 136.512 26.2442 142.349 30.2957 148.185C30.7782 148.879 31.7173 149.06 32.3957 148.59C33.0737 148.119 33.2338 147.174 32.7518 146.479C28.7031 140.643 24.6311 134.806 20.5357 128.969C20.2911 128.622 19.9334 128.403 19.5504 128.33Z" fill="#473E32"/>
<path d="M25.4367 124.263C25.0532 124.189 24.6453 124.262 24.3038 124.498C23.6211 124.969 23.4631 125.914 23.9504 126.608C28.042 132.445 32.1105 138.281 36.1557 144.118C36.6371 144.813 37.5778 144.994 38.2582 144.523C38.9383 144.052 39.1004 143.107 38.6194 142.412C34.5768 136.576 30.5111 130.739 26.422 124.902C26.178 124.555 25.8193 124.336 25.4367 124.263Z" fill="#473E32"/>
<path d="M31.3383 120.195C30.9558 120.122 30.5469 120.195 30.2049 120.43C29.52 120.902 29.3601 121.846 29.8462 122.541C33.9314 128.378 37.9933 134.214 42.0319 140.051C42.5129 140.747 43.4543 140.928 44.1364 140.456C44.8183 139.985 44.9827 139.039 44.5022 138.346C40.4659 132.509 36.4066 126.672 32.3241 120.835C32.0811 120.488 31.7224 120.268 31.3383 120.195Z" fill="#473E32"/>
<path d="M37.2582 116.129C36.8749 116.056 36.4647 116.128 36.1212 116.364C35.4347 116.835 35.2724 117.781 35.7579 118.474C39.8371 124.311 43.8931 130.148 47.9259 135.984C48.4061 136.679 49.348 136.86 50.0319 136.389C50.7158 135.918 50.8822 134.973 50.4028 134.278C46.3728 128.442 42.3201 122.605 38.244 116.769C38.0012 116.421 37.6422 116.202 37.2582 116.129Z" fill="#473E32"/>
<path d="M43.1932 112.062C42.8086 111.989 42.3992 112.062 42.0544 112.297C41.3657 112.769 41.2016 113.713 41.6864 114.408C45.7594 120.245 49.8089 126.082 53.8355 131.918C54.3145 132.613 55.2577 132.795 55.9433 132.323C56.6295 131.852 56.7977 130.907 56.3188 130.212C52.2952 124.376 48.2485 118.539 44.1788 112.702C43.936 112.354 43.5775 112.136 43.1932 112.062Z" fill="#473E32"/>
<path d="M49.1445 107.995C48.7597 107.922 48.3492 107.995 48.004 108.23C47.314 108.701 47.1473 109.646 47.6313 110.341C51.6975 116.177 55.7407 122.013 59.7602 127.85C60.2389 128.545 61.1838 128.726 61.8716 128.255C62.559 127.784 62.7298 126.839 62.2516 126.145C58.2343 120.309 54.1935 114.472 50.1295 108.635C49.8878 108.288 49.5288 108.068 49.1445 107.995Z" fill="#473E32"/>
<path d="M55.1131 103.929C54.7275 103.856 54.3165 103.928 53.9705 104.164C53.278 104.635 53.1095 105.58 53.5925 106.275C57.6526 112.112 61.6894 117.948 65.7031 123.784C66.1811 124.479 67.1255 124.66 67.8153 124.189C68.5058 123.718 68.6785 122.773 68.2003 122.078C64.1897 116.241 60.1557 110.405 56.0984 104.568C55.8569 104.221 55.4976 104.002 55.1131 103.929Z" fill="#473E32"/>
<rect width="69.2372" height="95.106" fill="black" fill-opacity="0" transform="translate(90.7343 90.8977)"/>
<path d="M92.9206 90.9304C93.3838 91.0184 93.8127 91.281 94.0984 91.6984C110.674 115.88 126.85 140.062 142.629 164.244C143.173 165.077 142.94 166.211 142.11 166.777C141.28 167.342 140.168 167.124 139.623 166.291C123.831 142.109 107.642 117.927 91.0537 93.7456C90.4814 92.9115 90.6986 91.7782 91.5405 91.2128C91.9609 90.9297 92.4581 90.8427 92.9206 90.9304Z" fill="#473E32"/>
<path d="M120.431 112.083C133.8 131.979 146.901 151.874 159.732 171.77C160.18 172.465 159.981 173.41 159.289 173.881C153.469 177.84 147.673 181.798 141.899 185.757C141.239 186.209 140.272 186.02 139.84 185.352C127.049 165.63 113.993 145.907 100.673 126.185C102.265 122.323 103.864 118.463 105.469 114.602C106.48 113.919 107.491 113.236 108.504 112.554C112.478 112.397 116.454 112.239 120.431 112.083ZM156.411 172.219C144.223 153.349 131.791 134.479 119.118 115.609C116.245 115.679 113.373 115.75 110.501 115.82C109.489 116.502 108.479 117.185 107.469 117.867C106.348 120.529 105.23 123.192 104.115 125.854C116.823 144.699 129.29 163.543 141.513 182.388C146.463 178.998 151.429 175.609 156.411 172.219Z" fill="#473E32"/>
<path d="M154.752 164.887C155.126 164.96 155.471 165.178 155.696 165.525C156.146 166.22 155.948 167.166 155.255 167.636C149.428 171.595 143.625 175.554 137.846 179.513C137.157 179.984 136.234 179.803 135.781 179.108C135.329 178.413 135.519 177.468 136.207 176.997C141.99 173.038 147.796 169.079 153.624 165.121C153.971 164.885 154.377 164.813 154.752 164.887Z" fill="#473E32"/>
<path d="M150.857 158.89C151.233 158.963 151.578 159.182 151.804 159.53C152.256 160.224 152.059 161.169 151.365 161.64C145.532 165.599 139.722 169.558 133.936 173.516C133.247 173.987 132.322 173.806 131.868 173.112C131.413 172.417 131.603 171.471 132.292 171C138.081 167.042 143.893 163.083 149.728 159.125C150.075 158.889 150.482 158.817 150.857 158.89Z" fill="#473E32"/>
<path d="M146.946 152.895C147.323 152.968 147.669 153.187 147.895 153.534C148.349 154.229 148.153 155.175 147.458 155.645C141.619 159.603 135.803 163.562 130.011 167.521C129.321 167.991 128.393 167.81 127.936 167.116C127.48 166.421 127.669 165.477 128.359 165.006C134.154 161.047 139.972 157.088 145.814 153.13C146.162 152.894 146.569 152.821 146.946 152.895Z" fill="#473E32"/>
<path d="M143.018 146.898C143.395 146.972 143.743 147.19 143.971 147.538C144.427 148.233 144.231 149.178 143.536 149.649C137.69 153.607 131.867 157.566 126.068 161.524C125.378 161.995 124.449 161.815 123.99 161.119C123.532 160.426 123.72 159.48 124.41 159.009C130.212 155.05 136.037 151.092 141.885 147.133C142.233 146.898 142.641 146.825 143.018 146.898Z" fill="#473E32"/>
<path d="M139.074 140.901C139.453 140.974 139.801 141.194 140.03 141.541C140.487 142.236 140.293 143.181 139.597 143.652C133.745 147.611 127.917 151.57 122.111 155.528C121.42 156 120.488 155.819 120.028 155.124C119.568 154.429 119.754 153.484 120.446 153.014C126.254 149.054 132.085 145.095 137.939 141.136C138.289 140.901 138.696 140.828 139.074 140.901Z" fill="#473E32"/>
<path d="M135.114 134.906C135.493 134.979 135.842 135.199 136.072 135.546C136.531 136.241 136.338 137.186 135.641 137.657C129.783 141.615 123.948 145.574 118.136 149.532C117.445 150.004 116.511 149.822 116.049 149.128C115.586 148.433 115.772 147.488 116.465 147.017C122.278 143.058 128.116 139.1 133.977 135.141C134.325 134.906 134.735 134.833 135.114 134.906Z" fill="#473E32"/>
<path d="M131.137 128.91C131.518 128.983 131.868 129.202 132.099 129.55C132.561 130.245 132.368 131.189 131.67 131.661C125.806 135.619 119.964 139.578 114.146 143.537C113.454 144.008 112.517 143.827 112.054 143.132C111.589 142.437 111.774 141.493 112.467 141.022C118.287 137.063 124.131 133.104 129.998 129.145C130.347 128.909 130.757 128.837 131.137 128.91Z" fill="#473E32"/>
<path d="M127.144 122.914C127.526 122.987 127.877 123.206 128.109 123.554C128.572 124.248 128.381 125.193 127.682 125.664C121.811 129.622 115.963 133.581 110.139 137.539C109.446 138.01 108.509 137.83 108.043 137.135C107.576 136.441 107.76 135.496 108.454 135.025C114.281 131.067 120.131 127.108 126.004 123.149C126.354 122.914 126.764 122.841 127.144 122.914Z" fill="#473E32"/>
<path d="M123.136 116.918C123.517 116.991 123.869 117.21 124.103 117.558C124.568 118.252 124.377 119.198 123.678 119.669C117.8 123.628 111.947 127.586 106.116 131.544C105.422 132.016 104.481 131.834 104.013 131.14C103.546 130.445 103.729 129.5 104.423 129.029C110.257 125.07 116.113 121.112 121.993 117.153C122.343 116.917 122.754 116.845 123.136 116.918Z" fill="#473E32"/>
<rect width="47.1568" height="23.7525" fill="black" fill-opacity="0" transform="translate(30.7151 215.238)"/>
<rect width="11.5707" height="22.5758" fill="black" fill-opacity="0" transform="translate(30.7151 215.238)"/>
<path d="M42.1831 233.53C41.9627 232.835 41.1945 232.268 40.5553 232.554C41.2394 231.824 41.9685 230.983 41.9578 229.955C41.9459 228.927 40.661 227.967 39.9454 228.664C40.2572 228.072 40.5162 227.4 40.4028 226.728C40.2897 226.055 39.6717 225.426 39.0279 225.548C40.1405 224.521 39.8701 222.331 38.5357 221.577C38.9513 220.849 39.1671 219.996 39.1527 219.142C39.1456 218.752 39.0659 218.314 38.7559 218.083C38.5154 217.904 38.1278 217.992 37.9911 218.22C38.1664 217.317 37.8599 216.314 37.1887 215.685C36.9223 215.435 36.586 215.236 36.2298 215.238C35.5773 215.24 35.0989 215.926 35.0608 216.597C35.0238 217.268 35.3059 217.917 35.5821 218.532C34.4104 218.321 33.3906 219.524 33.2912 220.741C33.1905 221.959 33.7311 223.138 34.2567 224.248C34.0553 223.764 33.3724 223.671 32.9556 223.956C32.5393 224.241 32.345 224.768 32.242 225.277C31.8921 227.001 32.3462 228.898 33.4365 230.282C32.8107 229.602 31.6189 230.343 31.5421 231.267C31.4647 232.191 32.054 233.032 32.6118 233.772C32.2861 233.133 31.2635 233.262 30.9132 233.871C30.5611 234.479 30.725 235.283 31.0418 235.928C31.3586 236.573 31.8153 237.143 32.074 237.813C35.1775 237.548 38.282 237.283 41.3876 237.017C41.7549 236.682 41.9114 236.166 42.0431 235.673C42.2303 234.976 42.4023 234.226 42.1831 233.53Z" fill="#79A958"/>
<rect width="23.0415" height="19.5373" fill="black" fill-opacity="0" transform="translate(41.0938 219.013)"/>
<path d="M64.0274 232.621C63.7654 232.155 63.1088 232.173 62.6225 232.348C62.3488 232.447 62.0911 232.585 61.8468 232.742C62.1248 232.112 62.3326 231.448 62.4571 230.765C62.5563 230.223 62.5241 229.515 62.0327 229.293C61.6834 229.136 61.2877 229.323 60.9693 229.533C60.2537 230.005 59.64 230.625 59.1309 231.328C60.1472 229.322 60.7748 227.099 60.9376 224.828C59.1649 225.554 57.7983 227.179 57.2577 229.066C57.8618 225.904 58.3202 222.648 57.4947 219.545C55.0548 221.764 53.8595 225.342 54.4318 228.68C53.4462 225.703 53.3653 222.405 51.8666 219.658C51.7463 219.438 51.6063 219.211 51.3897 219.093C50.9985 218.88 50.4962 219.118 50.2608 219.497C50.0261 219.877 49.9934 220.352 49.9838 220.805C49.9262 223.413 50.4186 226.041 51.4115 228.455C50.5036 226.812 49.5941 225.168 48.6834 223.523C48.0581 222.395 47.3133 221.166 46.106 220.813C45.7286 221.733 46.0322 222.799 46.3567 223.753C47.1745 226.153 48.1142 228.511 49.1705 230.812C48.1657 228.812 46.8389 226.981 45.2623 225.418C44.9614 225.119 44.5441 224.808 44.1695 224.981C43.7235 225.188 43.7692 225.855 43.9056 226.347C44.5852 228.804 45.7382 231.125 47.2689 233.136C45.7976 231.369 44.0715 229.755 41.9122 229.254C41.6504 229.194 41.3288 229.172 41.171 229.392C41.0076 229.621 41.1344 229.948 41.2674 230.203C42.7595 233.068 44.619 235.729 46.7747 238.093C51.7128 238.245 56.6499 238.398 61.5863 238.55C62.9513 237.214 63.8575 235.379 64.1096 233.437C64.1451 233.162 64.1639 232.863 64.0274 232.621Z" fill="#579326"/>
<rect width="21.256" height="10.0487" fill="black" fill-opacity="0" transform="translate(56.6159 228.941)"/>
<path d="M77.0512 232.889C76.2499 232.169 74.8676 232.203 74.2293 233.072C74.4706 232.662 74.7182 232.234 74.7691 231.755C74.8204 231.276 74.6149 230.729 74.1819 230.551C73.9381 230.45 73.6646 230.479 73.4069 230.52C72.3998 230.675 71.4153 230.974 70.4886 231.403C70.6098 230.351 69.8465 229.263 68.8422 229.055C67.8371 228.847 66.745 229.551 66.485 230.574C66.2298 229.461 64.9878 228.701 63.9328 229.011C62.8772 229.321 62.2242 230.638 62.59 231.72C61.9619 231.222 61.2052 230.844 60.4196 230.864C59.6337 230.884 58.8348 231.384 58.6233 232.166C58.4777 232.709 58.7118 233.335 59.1278 233.676C58.3191 233.392 57.4642 233.256 56.6159 233.29C57.1162 235.861 58.9931 238.112 61.3693 238.99C66.0913 238.72 70.8143 238.45 75.5388 238.18C76.4952 237.726 77.3414 236.939 77.7017 235.912C78.0624 234.883 77.8518 233.609 77.0512 232.889Z" fill="#79A958"/>
<rect width="12.3639" height="24.1018" fill="black" fill-opacity="0" transform="translate(120.296 215.063)"/>
<path d="M132.571 234.593C132.361 233.851 131.56 233.245 130.869 233.55C131.623 232.771 132.43 231.873 132.453 230.775C132.475 229.679 131.134 228.654 130.348 229.398C130.7 228.766 130.998 228.049 130.902 227.331C130.802 226.611 130.164 225.941 129.473 226.071C130.694 224.974 130.48 222.636 129.08 221.832C129.549 221.055 129.807 220.144 129.821 219.232C129.826 218.815 129.755 218.346 129.432 218.102C129.181 217.911 128.765 218.004 128.612 218.247C128.828 217.285 128.535 216.213 127.84 215.54C127.564 215.274 127.212 215.063 126.831 215.063C126.134 215.067 125.601 215.799 125.538 216.515C125.474 217.232 125.755 217.924 126.028 218.581C124.785 218.355 123.657 219.639 123.51 220.939C123.361 222.239 123.9 223.499 124.424 224.683C124.224 224.166 123.499 224.066 123.045 224.371C122.591 224.676 122.365 225.239 122.238 225.782C121.808 227.622 122.229 229.647 123.348 231.124C122.702 230.399 121.405 231.189 121.292 232.176C121.179 233.163 121.78 234.061 122.351 234.851C122.024 234.169 120.929 234.307 120.534 234.956C120.139 235.606 120.287 236.464 120.603 237.153C120.919 237.84 121.388 238.45 121.642 239.165C124.963 238.882 128.285 238.599 131.607 238.316C132.011 237.957 132.194 237.406 132.351 236.88C132.575 236.135 132.783 235.335 132.571 234.593Z" fill="#579326"/>
<path d="M90.1971 168.75L92.1446 161.42L96.756 159.737L97.903 155.429L97.8639 155.322L93.3247 156.979L96.5951 144.672H87.3202L83.0431 160.733L79.4723 162.037L78.2922 166.478L81.8605 165.176L79.3399 174.641H104.024L105.607 168.75H90.1971Z" fill="#1B4F94"/>
</svg>
