<?xml version="1.0" encoding="utf-8"?>
<!-- Generator: Adobe Illustrator 16.0.0, SVG Export Plug-In . SVG Version: 6.00 Build 0)  -->
<!DOCTYPE svg PUBLIC "-//W3C//DTD SVG 1.1//EN" "http://www.w3.org/Graphics/SVG/1.1/DTD/svg11.dtd">
<svg version="1.1" id="Layer_1" xmlns="http://www.w3.org/2000/svg" xmlns:xlink="http://www.w3.org/1999/xlink" x="0px" y="0px"
	 width="31.517px" height="30.326px" viewBox="0 0 31.517 30.326" enable-background="new 0 0 31.517 30.326" xml:space="preserve">
<path fill="#FFFFFF" d="M30.426,15.02l-4.717,4.596l1.113,6.49c0.232,1.355-0.322,2.723-1.436,3.529
	c-0.629,0.459-1.373,0.691-2.121,0.691c-0.574,0-1.15-0.137-1.68-0.416l-5.828-3.064l-5.83,3.064
	C9.4,30.189,8.824,30.326,8.25,30.326c-0.75,0-1.494-0.232-2.123-0.691c-1.111-0.807-1.668-2.174-1.436-3.529l1.113-6.49L1.09,15.02
	c-0.984-0.959-1.338-2.393-0.914-3.699s1.553-2.26,2.914-2.457l6.518-0.947l2.914-5.906C13.129,0.779,14.383,0,15.758,0
	c1.373,0,2.629,0.779,3.234,2.01l2.916,5.906l6.518,0.947c1.357,0.197,2.49,1.15,2.914,2.457S31.408,14.061,30.426,15.02z"/>
</svg>
