<?xml version="1.0" encoding="utf-8"?>
<!-- Generator: Adobe Illustrator 16.0.0, SVG Export Plug-In . SVG Version: 6.00 Build 0)  -->
<!DOCTYPE svg PUBLIC "-//W3C//DTD SVG 1.1//EN" "http://www.w3.org/Graphics/SVG/1.1/DTD/svg11.dtd">
<svg version="1.1" id="Layer_1" xmlns="http://www.w3.org/2000/svg" xmlns:xlink="http://www.w3.org/1999/xlink" x="0px" y="0px"
	 width="33.828px" height="31.923px" viewBox="0 0 33.828 31.923" enable-background="new 0 0 33.828 31.923" xml:space="preserve">
<g>
	<path fill="#FFFFFF" d="M10.133,16.731c-0.631,0.633-0.729,1.594-0.293,2.33l-1.824,1.822c-0.641,0.641-1.678,0.641-2.318,0
		L0.48,15.668c-0.641-0.641-0.641-1.678,0-2.318l1.803-1.803c0.746,0.514,1.777,0.439,2.441-0.225
		c0.662-0.664,0.736-1.693,0.223-2.439l4.928-4.928c0.166-0.164,0.357-0.287,0.561-0.365c2.391-1.539,8.125-4.855,12.498-3.082
		l0.807,2.902c0,0-8.545,0.322-7.578,4.514l1.248,1.248c0.639,0.639,0.639,1.678,0,2.318l-4.949,4.947
		C11.727,16.004,10.764,16.1,10.133,16.731z"/>
	<path fill="#FFFFFF" d="M32.807,30.155l-0.746,0.746c-1.236,1.238-3.109,1.369-4.184,0.297L14.141,17.459l5.223-5.225
		l13.738,13.736C34.176,27.045,34.043,28.918,32.807,30.155z"/>
</g>
</svg>
