<?xml version="1.0" encoding="utf-8"?>
<!-- Generator: Adobe Illustrator 16.0.0, SVG Export Plug-In . SVG Version: 6.00 Build 0)  -->
<!DOCTYPE svg PUBLIC "-//W3C//DTD SVG 1.1//EN" "http://www.w3.org/Graphics/SVG/1.1/DTD/svg11.dtd">
<svg version="1.1" id="Layer_1" xmlns="http://www.w3.org/2000/svg" xmlns:xlink="http://www.w3.org/1999/xlink" x="0px" y="0px"
	 width="31px" height="31px" viewBox="0 0 31 31" enable-background="new 0 0 31 31" xml:space="preserve">
<path fill="#FFFFFF" d="M30.999,18.67c0,0.912-0.74,1.652-1.654,1.652h-9.023v9.025c0,0.912-0.74,1.652-1.654,1.652H12.33
	c-0.912,0-1.652-0.74-1.652-1.652v-9.025H1.652C0.74,20.323,0,19.583,0,18.67v-6.338c0-0.914,0.74-1.654,1.652-1.654h9.025V1.655
	C10.678,0.741,11.418,0,12.33,0h6.337c0.914,0,1.654,0.74,1.654,1.654v9.023h9.023c0.914,0,1.654,0.74,1.654,1.654V18.67z"/>
</svg>
