<svg width="62" height="62" viewBox="0 0 62 62" fill="none" xmlns="http://www.w3.org/2000/svg">
<path d="M57.8435 15.4391C55.0714 10.6899 51.311 6.92961 46.5616 4.15757C41.8114 1.38567 36.6258 0 31.001 0C25.3767 0 20.1896 1.38567 15.4402 4.15757C10.6905 6.92918 6.9302 10.6895 4.15801 15.4391C1.38567 20.1891 0 25.3762 0 31C0 36.6241 1.3861 41.8104 4.15758 46.5606C6.92964 51.3098 10.6899 55.0701 15.4396 57.8424C20.1896 60.6142 25.3763 62 31.0004 62C36.6245 62 41.8118 60.6142 46.5615 57.8424C51.3109 55.0711 55.0711 51.3098 57.843 46.5606C60.6145 41.8108 62 36.6238 62 31C62.0001 25.3756 60.6145 20.1884 57.8435 15.4391ZM50.0123 42.0193C48.048 45.3829 45.3841 48.0478 42.0205 50.0121C38.6569 51.9764 34.9838 52.9576 31.0006 52.9576C27.0183 52.9576 23.3449 51.9764 19.9809 50.0121C16.6173 48.0476 13.9534 45.3829 11.9891 42.0193C10.0243 38.6557 9.04229 34.9825 9.04229 31C9.04229 27.0172 10.0247 23.344 11.9891 19.9804C13.953 16.6168 16.6176 13.9524 19.9809 11.9882C23.3445 10.0237 27.0177 9.04183 31.0006 9.04183C34.9837 9.04183 38.6569 10.0237 42.0205 11.9882C45.3841 13.9525 48.0481 16.6168 50.0123 19.9804C51.9768 23.344 52.9584 27.0172 52.9584 31C52.9584 34.9825 51.9768 38.6557 50.0123 42.0193Z" fill="white"/>
<path d="M29.7085 9.04168H15.4997V1.29151C15.4997 0.941733 15.372 0.638897 15.1163 0.383423C14.8605 0.127666 14.558 0 14.2082 0C13.8316 0 13.5219 0.120739 13.2798 0.363064L0.363066 13.2796C0.121446 13.5219 0 13.8311 0 14.208C0 14.5851 0.120881 14.8943 0.363066 15.1362L13.2397 28.0128C13.5627 28.2817 13.8859 28.4153 14.2088 28.4153C14.5851 28.4153 14.8949 28.2944 15.1372 28.0525C15.3794 27.8106 15.5003 27.5018 15.5003 27.1246V19.3747H29.7095C30.0588 19.3747 30.3617 19.2471 30.6171 18.9916C30.8728 18.7356 31.0004 18.4327 31.0004 18.0839V10.3328C31.0004 9.98285 30.8722 9.67959 30.6171 9.42511C30.3607 9.16935 30.0578 9.04168 29.7085 9.04168Z" transform="translate(15.5004 16.7924)" fill="white"/>
</svg>
