<?xml version="1.0" encoding="utf-8"?>
<!-- Generator: Adobe Illustrator 16.0.0, SVG Export Plug-In . SVG Version: 6.00 Build 0)  -->
<!DOCTYPE svg PUBLIC "-//W3C//DTD SVG 1.1//EN" "http://www.w3.org/Graphics/SVG/1.1/DTD/svg11.dtd">
<svg version="1.1" id="Layer_1" xmlns="http://www.w3.org/2000/svg" xmlns:xlink="http://www.w3.org/1999/xlink" x="0px" y="0px"
	 width="40.272px" height="40.272px" viewBox="0 0 40.272 40.272" enable-background="new 0 0 40.272 40.272" xml:space="preserve">
<path fill="#FFFFFF" d="M39.029,28.276l-8.141-8.141l8.141-8.141c1.656-1.656,1.656-4.344,0-6.001l-4.752-4.751
	c-1.656-1.657-4.344-1.656-6.002,0l-8.14,8.141l-8.141-8.141c-1.658-1.657-4.344-1.657-6,0L1.243,5.994
	c-1.656,1.657-1.656,4.345,0,6.001l8.141,8.141l-8.141,8.141c-1.658,1.658-1.656,4.344,0,6.002l4.752,4.751
	c1.656,1.657,4.342,1.657,6,0l8.141-8.141l8.14,8.141c1.658,1.657,4.346,1.657,6.002,0l4.752-4.751
	C40.686,32.62,40.686,29.933,39.029,28.276z"/>
</svg>
