<?xml version="1.0" encoding="utf-8"?>
<!-- Generator: Adobe Illustrator 16.0.0, SVG Export Plug-In . SVG Version: 6.00 Build 0)  -->
<!DOCTYPE svg PUBLIC "-//W3C//DTD SVG 1.1//EN" "http://www.w3.org/Graphics/SVG/1.1/DTD/svg11.dtd">
<svg version="1.1" id="Layer_1" xmlns="http://www.w3.org/2000/svg" xmlns:xlink="http://www.w3.org/1999/xlink" x="0px" y="0px"
	 width="52.59px" height="42.032px" viewBox="0 0 52.59 42.032" enable-background="new 0 0 52.59 42.032" xml:space="preserve">
<g>
	<path fill="#FFFFFF" d="M47.207,0h-26.67c-2.973,0-5.381,2.41-5.381,5.381c0,2.973,2.408,5.381,5.381,5.381h26.67
		c2.975,0,5.383-2.408,5.383-5.381C52.59,2.41,50.182,0,47.207,0z"/>
	<circle fill="#FFFFFF" cx="5.297" cy="5.297" r="5.297"/>
	<path fill="#FFFFFF" d="M47.207,15.635h-26.67c-2.973,0-5.381,2.41-5.381,5.381c0,2.973,2.408,5.382,5.381,5.382h26.67
		c2.975,0,5.383-2.409,5.383-5.382C52.59,18.045,50.182,15.635,47.207,15.635z"/>
	<circle fill="#FFFFFF" cx="5.297" cy="20.932" r="5.297"/>
	<path fill="#FFFFFF" d="M47.207,31.27h-26.67c-2.973,0-5.381,2.41-5.381,5.383s2.408,5.38,5.381,5.38h26.67
		c2.975,0,5.383-2.407,5.383-5.38S50.182,31.27,47.207,31.27z"/>
	<circle fill="#FFFFFF" cx="5.297" cy="36.566" r="5.297"/>
</g>
</svg>
