<svg width="56" height="44" viewBox="0 0 56 44" fill="none" xmlns="http://www.w3.org/2000/svg">
<rect width="55.4819" height="43.2793" fill="black" fill-opacity="0"/>
<rect width="55.4819" height="43.2793" fill="black" fill-opacity="0"/>
<rect width="55.4819" height="43.2793" fill="black" fill-opacity="0"/>
<path d="M27.7433 43.2793C21.0802 43.2793 14.2667 42.8857 7.49133 42.1084C4.51672 41.7695 2.07141 39.6729 1.547 37.0107C-0.515503 26.5234 -0.515503 16.7554 1.54602 6.26953C2.07922 3.56641 4.4679 1.51758 7.48938 1.16992C14.2833 0.393555 21.0948 0 27.7384 0C34.3839 0 41.1964 0.393555 47.9874 1.16992C51.0148 1.51758 53.4034 3.56738 53.9327 6.27051C55.9972 16.7529 55.9982 26.5225 53.9366 37.0107C53.3995 39.7178 51.0089 41.7646 47.9855 42.1084C41.213 42.8857 34.4015 43.2793 27.7433 43.2793Z" fill="black"/>
<path d="M50.9894 3.84766C50.7159 2.45361 49.3409 1.34473 47.6466 1.15039C40.9855 0.388672 34.2902 0 27.7384 0C21.1925 0 14.4943 0.388672 7.83313 1.15039C6.13977 1.34473 4.76477 2.45361 4.48938 3.84766C2.505 13.9385 2.505 23.3408 4.48938 33.4307C4.76477 34.8252 6.13977 35.9355 7.83313 36.1279C14.4972 36.8916 21.1945 37.2793 27.7433 37.2793C34.2902 37.2793 40.9835 36.8916 47.6466 36.1279C49.3409 35.9355 50.7159 34.8252 50.9923 33.4316C52.9767 23.3408 52.9767 13.9404 50.9894 3.84766Z" fill="#EBEB00"/>
<rect width="27.0488" height="20.3088" fill="black" fill-opacity="0" transform="translate(15.5656 8.48511)"/>
<path d="M30.9347 20.0972L18.2814 28.5029C17.9874 28.6963 17.6495 28.7939 17.3136 28.7939C17.0294 28.7939 16.7433 28.7256 16.4855 28.5889C15.9171 28.2822 15.5656 27.6904 15.5656 27.0469V10.2334C15.5656 9.58983 15.9171 8.99755 16.4855 8.69237C17.0538 8.38866 17.7413 8.41991 18.2814 8.77831L30.9347 17.1855C31.4191 17.5068 31.714 18.0552 31.714 18.6387C31.714 19.2256 31.4191 19.7715 30.9347 20.0972Z" fill="black"/>
<rect width="16.1484" height="20.3088" fill="black" fill-opacity="0" transform="translate(26.4659 8.48511)"/>
<path d="M41.8351 17.1855L29.1827 8.77831C28.6417 8.41991 27.9542 8.38866 27.3859 8.69237C26.8175 8.99755 26.4659 9.58983 26.4659 10.2334V12.2612L31.8351 15.8291C32.7784 16.456 33.3419 17.5068 33.3419 18.6387C33.3419 19.7676 32.7823 20.8184 31.8419 21.4482L26.4659 25.0205V27.0469C26.4659 27.6904 26.8175 28.2822 27.3859 28.5889C27.6437 28.7256 27.9308 28.7939 28.214 28.7939C28.5499 28.7939 28.8888 28.6963 29.1827 28.5029L41.8351 20.0972C42.3195 19.7715 42.6144 19.2256 42.6144 18.6387C42.6144 18.0552 42.3195 17.5068 41.8351 17.1855Z" fill="black"/>
</svg>
