<svg width="189" height="12" viewBox="0 0 189 12" fill="none" xmlns="http://www.w3.org/2000/svg">
<rect width="187.851" height="10.8838" fill="black" fill-opacity="0" transform="translate(0.508789 0.85498)"/>
<path d="M27.9238 0.85498L17.041 11.7388H30.1406L41.0254 0.85498H27.9238Z" fill="#EBEB00"/>
<path d="M135.263 0.85498L124.379 11.7388H137.479L148.363 0.85498H135.263Z" fill="#EBEB00"/>
<path d="M81.5938 0.85498L70.71 11.7388H83.8105L94.6934 0.85498H81.5938Z" fill="#EBEB00"/>
<path d="M54.7588 0.85498L43.875 11.7388H56.9756L67.8594 0.85498H54.7588Z" fill="#EBEB00"/>
<path d="M108.428 0.85498L97.5449 11.7388H110.646L121.529 0.85498H108.428Z" fill="#EBEB00"/>
<path d="M188.359 1.42725L178.049 11.7388H188.359V1.42725Z" fill="#EBEB00"/>
<path d="M162.098 0.85498L151.213 11.7388H164.314L175.198 0.85498H162.098Z" fill="#EBEB00"/>
<path d="M0.508789 0.85498V11.7388H3.30664L14.1895 0.85498H0.508789Z" fill="#EBEB00"/>
<path d="M14.1895 0.85498L3.30664 11.7388H17.041L27.9238 0.85498H14.1895Z" fill="black"/>
<path d="M41.0254 0.85498L30.1406 11.7388H43.875L54.7588 0.85498H41.0254Z" fill="black"/>
<path d="M67.8594 0.85498L56.9756 11.7388H70.71L81.5938 0.85498H67.8594Z" fill="black"/>
<path d="M94.6934 0.85498L83.8105 11.7388H97.5449L108.428 0.85498H94.6934Z" fill="black"/>
<path d="M121.529 0.85498L110.646 11.7388H124.379L135.263 0.85498H121.529Z" fill="black"/>
<path d="M148.363 0.85498L137.479 11.7388H151.213L162.098 0.85498H148.363Z" fill="black"/>
<path d="M188.359 0.85498H175.198L164.314 11.7388H178.049L188.359 1.42725V0.85498Z" fill="black"/>
</svg>
