<svg width="2325" height="501" viewBox="0 0 2325 501" fill="none" xmlns="http://www.w3.org/2000/svg">
<rect width="2324.05" height="500.066" fill="black" fill-opacity="0" transform="translate(0 0.694092)"/>
<rect width="2324.05" height="498.454" fill="black" fill-opacity="0" transform="translate(0 0.694092)"/>
<rect width="2324.05" height="498.454" fill="black" fill-opacity="0" transform="translate(0 0.694092)"/>
<rect width="1359.56" height="498.453" fill="black" fill-opacity="0" transform="translate(0 0.694092)"/>
<path d="M306.756 352.401L508.711 297.644L507.834 327.808L703.894 238.178L664.213 295.935L747.934 268.078L860.143 210.825L785.903 269.131L934.855 255.165L998.473 205.619L969.374 256.122L1043.43 203.848L1010.79 257.275L1154.33 191.84L1268.94 234.636L1359.56 143.214L1241.12 58.419L1336.07 0.694092L1172.95 26.3404L1134.37 46.3998L1103.3 45.5331L740.559 165.244L693.372 124.696L648.498 123.445L591.87 170.167L521.696 207.457L244.738 289.718L359.849 308.602L306.756 352.401Z" fill="white"/>
<path d="M1154.33 191.84L1010.79 257.274L1043.43 203.848L969.374 256.122L998.474 205.619L934.855 255.165L785.903 269.131L860.143 210.825L747.935 268.077L664.213 295.934L703.894 238.178L507.835 327.808L508.712 297.644L306.756 352.401L359.849 308.602L244.739 289.718L215.049 298.54L0 480.221L1242.13 499.148L1229.9 444.473L1132.69 342.16L1288.55 328.384L1263.47 240.151L1268.94 234.636L1154.33 191.84Z" fill="#6A7BA8"/>
<rect width="1247.78" height="498.454" fill="black" fill-opacity="0" transform="translate(1076.27 0.694092)"/>
<path d="M1574.56 273.955L1756.57 311.213L1927.76 302.695L1740.62 226.249L1477.88 74.0569L1458.71 99.6925L1380.21 27.0684L1336.07 0.694092C1250.1 22.2523 1188.95 93.3323 1147.66 165.103L1387.68 325.104L1574.56 273.955Z" fill="#B1D3EA"/>
<path d="M1927.76 302.695L1756.57 311.213L1574.56 273.955L1387.68 325.104L1147.66 165.103C1097.03 253.093 1076.27 342.107 1076.27 342.107L1242.13 499.148L2093.51 487.113L2324.05 485.918L1927.76 302.695Z" fill="#4E6493"/>
<path d="M1221.74 479.793L2324.05 485.438V500.76H1221.74V479.793Z" fill="#4E6493"/>
<path d="M0 479.793L1224.09 480.6L1242.72 500.76H0V479.793Z" fill="#6A7BA8"/>
</svg>
