<?xml version="1.0" encoding="utf-8"?>
<!-- Generator: Adobe Illustrator 16.0.0, SVG Export Plug-In . SVG Version: 6.00 Build 0)  -->
<!DOCTYPE svg PUBLIC "-//W3C//DTD SVG 1.1//EN" "http://www.w3.org/Graphics/SVG/1.1/DTD/svg11.dtd">
<svg version="1.1" id="Layer_1" xmlns="http://www.w3.org/2000/svg" xmlns:xlink="http://www.w3.org/1999/xlink" x="0px" y="0px"
	 width="38.339px" height="53.109px" viewBox="0 0 38.339 53.109" enable-background="new 0 0 38.339 53.109" xml:space="preserve">
<path fill-rule="evenodd" clip-rule="evenodd" fill="#B3B3B3" d="M31.434,24.603c2.256,0.691,4.227,1.54,5.494,3.467
	c2.656,4.037,1.391,10.857-2.355,13.895c-2.508,2.037-5.486,2.225-8.402,2.686c-2.525,0.4-2.545,0.27-2.549,2.77
	c-0.002,1.539-0.037,3.076,0.012,4.611c0.02,0.723-0.125,1.064-0.941,1.008c-1.006-0.066-2.02-0.045-3.025,0.016
	c-0.791,0.049-0.949-0.26-0.93-1.004c0.057-1.92-0.012-3.842,0.018-5.764C18.768,45.451,18.65,45,17.602,45
	c-2.771-0.002-2.773-0.061-2.771,2.744c0,1.439-0.01,2.883,0.021,4.322c0.014,0.688-0.141,0.977-0.953,1.004
	c-3.932,0.133-3.904,0.164-3.949-3.809c-0.016-1.414,0.609-3.313-0.313-4.107c-0.814-0.699-2.656-0.215-4.045-0.229
	c-1.49-0.014-2.979-0.02-4.469,0.014c-0.719,0.016-1.059-0.137-0.881-0.971c0.273-1.266,0.502-2.549,0.631-3.836
	c0.09-0.904,0.543-1.025,1.324-1.072c1.096-0.068,2.262,0.43,3.289-0.436c0.684-0.576,1.006-1.213,0.971-2.105
	c-0.234-6.371-0.102-12.743-0.146-19.116c-0.004-0.383,0.068-0.738,0.088-1.109c0.09-1.687-0.793-2.775-2.482-2.911
	c-0.955-0.075-1.922-0.049-2.881-0.015c-0.705,0.027-1.066-0.155-1.023-0.958c0.059-1.054,0.066-2.117-0.006-3.169
	c-0.063-0.932,0.346-1.129,1.18-1.115C3.684,8.167,6.184,8.11,8.678,8.158C9.615,8.174,9.92,7.871,9.883,6.92
	C9.809,5.05,9.914,3.173,9.842,1.302c-0.033-0.919,0.16-1.318,1.166-1.226c1.188,0.108,2.758-0.366,3.477,0.233
	c0.752,0.625,0.199,2.25,0.254,3.436c0.02,0.432,0.01,0.865,0.01,1.297c0,2.924-0.002,2.875,2.789,2.89
	c0.916,0.005,1.16-0.278,1.139-1.136c-0.049-1.92,0.004-3.844-0.049-5.763c-0.02-0.744,0.189-0.954,0.957-0.979
	c3.961-0.135,3.959-0.16,3.945,3.781c-0.004,1.056,0.061,2.117-0.016,3.168c-0.064,0.859,0.209,1.153,1.084,1.232
	c2.109,0.191,4.133,0.736,6.115,1.547c6.076,2.482,6.193,11.811,1.16,14.396C31.756,24.238,31.674,24.366,31.434,24.603z
	 M24.135,38.41c0.4-0.148,1.049-0.342,1.656-0.625c1.703-0.793,2.613-2.219,2.764-4.027c0.162-1.943-0.904-3.293-2.58-4.125
	c-0.809-0.4-1.691-0.707-2.576-0.885c-2.557-0.516-5.152-0.439-7.744-0.422c-0.73,0.006-0.754,0.387-0.754,0.904
	c0.012,3.023,0.029,6.045,0.016,9.068c-0.002,0.516,0.074,0.816,0.676,0.818C18.379,39.131,21.162,39.129,24.135,38.41z
	 M21.916,22.991c1.045-0.226,2.029-0.608,2.871-1.276c1.885-1.499,2.055-5.037,0.201-6.192c-1.352-0.842-2.752-1.596-4.461-1.767
	s-3.398,0.228-5.094-0.064c-0.561-0.098-0.555,0.385-0.553,0.777c0.006,2.735,0.031,5.471,0.006,8.207
	c-0.004,0.566,0.154,0.76,0.723,0.768C17.727,23.471,19.834,23.421,21.916,22.991z"/>
</svg>
