<?xml version="1.0" encoding="utf-8"?>
<!-- Generator: Adobe Illustrator 16.0.0, SVG Export Plug-In . SVG Version: 6.00 Build 0)  -->
<!DOCTYPE svg PUBLIC "-//W3C//DTD SVG 1.1//EN" "http://www.w3.org/Graphics/SVG/1.1/DTD/svg11.dtd">
<svg version="1.1" id="Layer_1" xmlns="http://www.w3.org/2000/svg" xmlns:xlink="http://www.w3.org/1999/xlink" x="0px" y="0px"
	 width="32.184px" height="42.911px" viewBox="0 0 32.184 42.911" enable-background="new 0 0 32.184 42.911" xml:space="preserve">
<g>
	<g>
		<g>
			<g>
				<g>
					<path fill="#B3B3B3" d="M30.395,8.631V4.866c1.064-0.619,1.789-1.761,1.789-3.078V0.894C32.184,0.399,31.785,0,31.289,0H0.895
						C0.402,0,0,0.399,0,0.894v0.895c0,1.317,0.725,2.459,1.789,3.078v3.765c0,3.543,1.51,6.934,4.143,9.304l3.912,3.521
						l-3.912,3.521c-2.633,2.369-4.143,5.76-4.143,9.303v3.766C0.725,38.663,0,39.804,0,41.122v0.895
						c0,0.494,0.402,0.895,0.895,0.895h30.395c0.496,0,0.895-0.4,0.895-0.895v-0.895c0-1.318-0.725-2.459-1.787-3.078v-3.766
						c0-3.543-1.512-6.934-4.145-9.303l-3.912-3.521l3.912-3.521C28.885,15.564,30.395,12.174,30.395,8.631z M23.861,15.276
						l-5.389,4.85c-0.379,0.339-0.592,0.821-0.592,1.329c0,0.507,0.213,0.989,0.592,1.328l5.389,4.851
						c1.879,1.692,2.959,4.114,2.959,6.645v3.268h-2.236l-7.775-10.369c-0.338-0.45-1.096-0.45-1.432,0L7.6,37.546H5.365v-3.268
						c0-2.53,1.078-4.952,2.959-6.645l5.389-4.851c0.377-0.339,0.592-0.821,0.592-1.328c0-0.508-0.215-0.991-0.592-1.329
						l-5.389-4.85c-1.881-1.692-2.959-4.115-2.959-6.646V5.363H26.82v3.268C26.82,11.161,25.74,13.584,23.861,15.276z"/>
					<path fill="#B3B3B3" d="M22.254,12.515H9.928c-0.352,0-0.672,0.209-0.816,0.531c-0.143,0.325-0.082,0.702,0.156,0.965
						l6.225,5.742c0.172,0.154,0.385,0.23,0.6,0.23s0.432-0.076,0.602-0.23l6.223-5.742c0.238-0.263,0.297-0.64,0.154-0.965
						C22.928,12.724,22.607,12.515,22.254,12.515z"/>
				</g>
			</g>
		</g>
	</g>
</g>
</svg>
